<?xml version="1.0" standalone="no"?>
<!DOCTYPE svg PUBLIC "-//W3C//DTD SVG 1.1//EN" "http://www.w3.org/Graphics/SVG/1.1/DTD/svg11.dtd" >
<svg xmlns="http://www.w3.org/2000/svg" xmlns:xlink="http://www.w3.org/1999/xlink" version="1.1">
<metadata>
Created by FontForge 20201107 at Tue Sep 19 10:25:55 2023
 By Unknown
(c) 2023 Adobe (http://www.adobe.com/), with Reserved Font Name `Source'
</metadata>
<defs>
<font id="SourceSans3-ExtraLightItalic" horiz-adv-x="0" >
  <font-face 
    font-family="Source Sans 3 ExtraLight"
    font-weight="250"
    font-style="italic"
    font-stretch="normal"
    units-per-em="1000"
    panose-1="2 11 3 3 3 4 3 9 2 4"
    ascent="800"
    descent="-200"
    x-height="478"
    cap-height="660"
    bbox="-610 -288 2076 934"
    underline-thickness="50"
    underline-position="-75"
    slope="-11"
    unicode-range="U+0021-1F916"
  />
<missing-glyph horiz-adv-x="600" 
d="M42 0l130 660h416l-130 -660h-416zM320 364h4l72 92l126 172h-292l56 -172zM96 32h318l-60 176l-40 104h-4l-82 -104zM96 72l198 268l-92 270zM434 72l110 538l-202 -270z" />
    <glyph glyph-name="f_f" unicode="ff" horiz-adv-x="488" 
d="M48 0l118 588q10 47 30 77t47 44.5t57 14.5q26 0 44.5 -6t31.5 -16l-12 -20q-13 8 -28 12t-38 4q-41 0 -68 -33t-36 -77l-118 -588h-28zM290 0l120 598q10 47 28.5 77t43 44.5t52.5 14.5q24 0 41 -6.5t29 -15.5l-12 -20q-12 8 -25.5 12t-34.5 4q-37 0 -61 -33t-33 -77
l-120 -598h-28zM70 452l6 22l68 4h378l-6 -26h-446z" />
    <glyph glyph-name="f_t" unicode="ft" horiz-adv-x="490" 
d="M48 0l120 598q10 47 28.5 77t43 44.5t52.5 14.5q24 0 41 -6.5t29 -15.5l-12 -20q-12 8 -25.5 12t-34.5 4q-37 0 -61 -33t-33 -77l-120 -598h-28zM370 -12q-54 0 -75 27t-21 63q0 14 1 24t3 22l68 328h-276l6 22l68 4h208l36 158h24l-32 -158h132l-6 -26h-132l-68 -330
q-1 -9 -2.5 -18t-1.5 -20q0 -34 15 -52t55 -18q18 0 33 6t27 12l10 -22q-13 -7 -32 -14.5t-40 -7.5z" />
    <glyph glyph-name="f_f_t" unicode="fft" horiz-adv-x="732" 
d="M48 0l118 588q10 47 30 77t47 44.5t57 14.5q26 0 44.5 -6t31.5 -16l-12 -20q-13 8 -28 12t-38 4q-41 0 -68 -33t-36 -77l-118 -588h-28zM290 0l120 598q10 47 28.5 77t43 44.5t52.5 14.5q24 0 41 -6.5t29 -15.5l-12 -20q-12 8 -25.5 12t-34.5 4q-37 0 -61 -33t-33 -77
l-120 -598h-28zM612 -12q-54 0 -75 27t-21 63q0 14 1 24t3 22l68 328h-518l6 22l68 4h450l36 158h24l-32 -158h132l-6 -26h-132l-68 -330q-1 -9 -2.5 -18t-1.5 -20q0 -34 15 -52t55 -18q18 0 33 6t27 12l10 -22q-13 -7 -32 -14.5t-40 -7.5z" />
    <glyph glyph-name=".notdef" horiz-adv-x="600" 
d="M42 0l130 660h416l-130 -660h-416zM320 364h4l72 92l126 172h-292l56 -172zM96 32h318l-60 176l-40 104h-4l-82 -104zM96 72l198 268l-92 270zM434 72l110 538l-202 -270z" />
    <glyph glyph-name="space" unicode="&#xa0;" horiz-adv-x="200" 
 />
    <glyph glyph-name="space" unicode=" " horiz-adv-x="200" 
 />
    <glyph glyph-name="A" unicode="A" horiz-adv-x="480" 
d="M-42 0l362 660h30l84 -660h-30l-48 396q-6 56 -13 113t-13 117h-4q-30 -61 -60 -116t-62 -114l-216 -396h-30zM104 238l8 26h280l-6 -26h-282z" />
    <glyph glyph-name="B" unicode="B" horiz-adv-x="550" 
d="M40 0l132 660h156q92 0 141 -38t49 -104q0 -50 -24.5 -85.5t-59.5 -55.5t-66 -25v-4q32 -7 61 -24.5t47 -46.5t18 -71q0 -70 -33 -115.5t-92.5 -68t-138.5 -22.5h-190zM142 364h118q114 0 171 43t57 109q0 56 -42 87t-134 31h-116zM74 26h138q75 0 132 17.5t88.5 56.5
t31.5 103t-48.5 99.5t-137.5 35.5h-140z" />
    <glyph glyph-name="C" unicode="C" horiz-adv-x="536" 
d="M278 -12q-74 0 -123 34t-73 92.5t-24 131.5q0 58 14.5 118t42 115t68 98.5t92.5 69t115 25.5q56 0 96 -27.5t56 -68.5l-22 -10q-18 38 -51 59t-81 21q-58 0 -105 -24.5t-83.5 -65.5t-61.5 -92.5t-37.5 -106.5t-12.5 -105q0 -67 20 -121t62.5 -85.5t109.5 -31.5
q48 0 89 17.5t75 46.5l14 -16q-40 -36 -83 -55t-97 -19z" />
    <glyph glyph-name="D" unicode="D" horiz-adv-x="572" 
d="M40 0l132 660h104q91 0 151 -32.5t89.5 -90t29.5 -133.5q0 -84 -22.5 -157.5t-66.5 -128.5t-110 -86.5t-153 -31.5h-154zM74 26h122q77 0 136.5 30t100.5 83t62 120.5t21 142.5q0 68 -26.5 120.5t-80 82t-135.5 29.5h-78z" />
    <glyph glyph-name="E" unicode="E" horiz-adv-x="484" 
d="M40 0l132 660h342l-6 -26h-312l-54 -270h264l-6 -26h-262l-64 -312h322l-6 -26h-350z" />
    <glyph glyph-name="F" unicode="F" horiz-adv-x="448" 
d="M40 0l132 660h342l-6 -26h-312l-56 -282h264l-6 -26h-262l-66 -326h-30z" />
    <glyph glyph-name="G" unicode="G" horiz-adv-x="570" 
d="M288 -12q-78 0 -129 33.5t-76 91.5t-25 133q0 73 22 148t65 138t106 101.5t145 38.5q59 0 98 -28t58 -66l-22 -14q-19 36 -52.5 59t-83.5 23q-59 0 -107 -24t-85 -65.5t-62.5 -92.5t-38.5 -106t-13 -106q0 -65 20 -119t64.5 -86.5t117.5 -32.5q48 0 84 16t60 38l44 222
h-158l6 26h188l-54 -262q-34 -30 -76.5 -48t-95.5 -18z" />
    <glyph glyph-name="H" unicode="H" horiz-adv-x="598" 
d="M40 0l132 660h30l-60 -296h356l60 296h30l-132 -660h-30l68 338h-356l-68 -338h-30z" />
    <glyph glyph-name="I" unicode="I" horiz-adv-x="212" 
d="M40 0l132 660h30l-132 -660h-30z" />
    <glyph glyph-name="J" unicode="J" horiz-adv-x="428" 
d="M146 -12q-60 0 -94.5 28t-49.5 74l22 10q17 -43 46.5 -64.5t77.5 -21.5q59 0 96 43.5t50 112.5l98 490h30l-98 -492q-10 -55 -34 -95.5t-60.5 -62.5t-83.5 -22z" />
    <glyph glyph-name="K" unicode="K" horiz-adv-x="522" 
d="M40 0l132 660h30l-74 -370h2l396 370h38l-252 -238l152 -422h-32l-144 402l-168 -158l-50 -244h-30z" />
    <glyph glyph-name="L" unicode="L" horiz-adv-x="432" 
d="M40 0l132 660h30l-126 -634h300l-6 -26h-330z" />
    <glyph glyph-name="M" unicode="M" horiz-adv-x="676" 
d="M40 0l132 660h50l66 -398q6 -37 12.5 -74.5t13.5 -75.5h4q20 38 38.5 75.5t39.5 74.5l220 398h50l-132 -660h-30l92 460q6 27 12.5 57t13 59.5t12.5 55.5h-4l-78 -142l-226 -414h-34l-72 414l-24 142h-4q-5 -27 -10 -56.5l-10 -59t-10 -56.5l-92 -460h-30z" />
    <glyph glyph-name="N" unicode="N" horiz-adv-x="600" 
d="M40 0l132 660h34l180 -478q8 -21 16.5 -43.5t17 -46t16.5 -46.5h4q8 48 16.5 93.5t17.5 90.5l86 430h30l-132 -660h-32l-182 484q-12 32 -25 67t-25 69h-4q-7 -48 -16 -93.5t-18 -90.5l-86 -436h-30z" />
    <glyph glyph-name="O" unicode="O" horiz-adv-x="612" 
d="M274 -12q-72 0 -119 35t-70 97t-23 142q0 53 13 110t39 110.5t63.5 96t86.5 68t108 25.5q72 0 119 -35t70 -97t23 -142q0 -53 -13 -110t-39 -110.5t-63.5 -96t-86.5 -68t-108 -25.5zM276 14q54 0 98 24t77.5 64.5t56.5 90.5t34.5 102t11.5 99q0 74 -19 131t-59.5 89
t-105.5 32q-54 0 -98 -24t-77.5 -64.5t-56.5 -90.5t-34.5 -102t-11.5 -99q0 -74 19 -131t59.5 -89t105.5 -32z" />
    <glyph glyph-name="P" unicode="P" horiz-adv-x="524" 
d="M40 0l132 660h168q60 0 103 -16t66 -49t23 -85q0 -54 -19 -94.5t-55 -67.5t-87 -40.5t-115 -13.5h-128l-58 -294h-30zM134 320h116q125 0 188.5 47.5t63.5 140.5q0 68 -45.5 97t-134.5 29h-126z" />
    <glyph glyph-name="Q" unicode="Q" horiz-adv-x="612" 
d="M274 -12q-72 0 -119 35t-70 97t-23 142q0 53 13 110t39 110.5t63.5 96t86.5 68t108 25.5q72 0 119 -35t70 -97t23 -142q0 -53 -13 -110t-39 -110.5t-63.5 -96t-86.5 -68t-108 -25.5zM276 14q54 0 98 24t77.5 64.5t56.5 90.5t34.5 102t11.5 99q0 74 -19 131t-59.5 89
t-105.5 32q-54 0 -98 -24t-77.5 -64.5t-56.5 -90.5t-34.5 -102t-11.5 -99q0 -74 19 -131t59.5 -89t105.5 -32zM440 -150q-49 0 -91 16.5t-70.5 51t-36.5 88.5l30 -6q7 -41 30.5 -68t59.5 -40.5t80 -13.5q12 0 23 1.5t21 4.5l6 -26q-24 -8 -52 -8z" />
    <glyph glyph-name="R" unicode="R" horiz-adv-x="522" 
d="M40 0l132 660h160q59 0 101.5 -14.5t65.5 -46t23 -81.5q0 -48 -18.5 -86.5t-52 -65.5t-79 -41.5t-98.5 -14.5h-142l-62 -310h-30zM138 336h122q111 0 171.5 48t60.5 132q0 65 -44.5 91.5t-133.5 26.5h-118zM400 0l-128 312l28 12l134 -324h-34z" />
    <glyph glyph-name="S" unicode="S" horiz-adv-x="488" 
d="M226 -12q-70 0 -122.5 29t-85.5 81l24 16q32 -48 78 -74t110 -26q50 0 90.5 20t64 56.5t23.5 85.5q0 45 -23.5 76.5t-62.5 53.5l-88 52q-40 24 -72 60t-32 88q0 44 23 82t64.5 61t96.5 23q60 0 105.5 -26t70.5 -62l-22 -18q-25 33 -65.5 56.5t-94.5 23.5q-45 0 -78 -20
t-51.5 -51.5t-18.5 -64.5q0 -48 27 -77t61 -49l86 -50q47 -27 75.5 -63.5t28.5 -90.5q0 -58 -28 -101t-76 -67t-108 -24z" />
    <glyph glyph-name="T" unicode="T" horiz-adv-x="492" 
d="M180 0l126 634h-206l6 26h442l-6 -26h-206l-126 -634h-30z" />
    <glyph glyph-name="U" unicode="U" horiz-adv-x="594" 
d="M268 -12q-87 0 -136.5 50.5t-49.5 141.5q0 20 2 39t6 43l80 398h30l-78 -390q-6 -24 -8 -44t-2 -38q0 -82 40.5 -128t119.5 -46q44 0 83.5 20t69.5 69t47 135l84 422h30l-86 -430q-19 -95 -54 -147.5t-81 -73.5t-97 -21z" />
    <glyph glyph-name="V" unicode="V" horiz-adv-x="450" 
d="M146 0l-62 660h28l36 -400q6 -54 12 -110t10 -112h4q27 54 56.5 112t57.5 110l210 400h30l-348 -660h-34z" />
    <glyph glyph-name="W" unicode="W" horiz-adv-x="726" 
d="M110 0l-2 660h30v-400q-1 -54 -0.5 -108.5t-1.5 -111.5h4q26 57 51 111.5t49 108.5l188 400h34l14 -400q3 -54 5 -108.5t3 -111.5h4q23 57 45.5 111.5t46.5 108.5l168 400h32l-284 -660h-38l-16 472q0 41 -1 78.5t-1 77.5h-4q-15 -40 -32.5 -77.5t-35.5 -78.5l-220 -472
h-38z" />
    <glyph glyph-name="X" unicode="X" horiz-adv-x="446" 
d="M-36 0l260 344l-114 316h32l72 -210q8 -22 14.5 -41.5t15.5 -42.5h2q18 24 35 46t33 44l152 204h34l-244 -322l124 -338h-32l-76 218q-8 24 -17.5 49.5t-18.5 50.5h-2q-21 -28 -40.5 -55t-37.5 -51l-158 -212h-34z" />
    <glyph glyph-name="Y" unicode="Y" horiz-adv-x="422" 
d="M140 0l55 273l-109 387h30l59 -215q10 -36 19.5 -71t19.5 -72h2q25 35 49.5 71.5t49.5 71.5l151 215h32l-273 -387l-55 -273h-30z" />
    <glyph glyph-name="Z" unicode="Z" horiz-adv-x="502" 
d="M2 0l4 18l480 616h-334l6 26h370l-4 -18l-478 -616h370l-6 -26h-408z" />
    <glyph glyph-name="a" unicode="a" horiz-adv-x="524" 
d="M186 -12q-63 0 -101.5 44t-38.5 128q0 69 21.5 129t59 105t84 70.5t95.5 25.5q44 0 75.5 -22t50.5 -58h4l18 68h24l-96 -478h-24l12 78h-4q-37 -39 -83 -64.5t-97 -25.5zM188 14q50 0 97.5 28.5t92.5 79.5l52 250q-28 50 -59 71t-67 21q-45 0 -86.5 -25.5t-73.5 -68
t-51 -95.5t-19 -109q0 -76 31 -114t83 -38z" />
    <glyph glyph-name="b" unicode="b" horiz-adv-x="522" 
d="M216 -12q-43 0 -74.5 22t-51.5 58h-4l-18 -68h-24l144 722h28l-44 -216l-20 -98h2q39 32 85 57t97 25q63 0 101.5 -44t38.5 -128q0 -69 -21.5 -129t-59 -105t-83.5 -70.5t-96 -25.5zM218 14q45 0 86.5 25.5t73.5 68t51 96t19 108.5q0 76 -30.5 114t-83.5 38
q-42 0 -93 -26.5t-95 -65.5l-54 -266q29 -49 59.5 -70.5t66.5 -21.5z" />
    <glyph glyph-name="c" unicode="c" horiz-adv-x="428" 
d="M210 -12q-51 0 -88.5 22t-57.5 64t-20 102q0 71 22 128.5t58.5 99t82 64t91.5 22.5q42 0 71.5 -15.5t48.5 -42.5l-18 -14q-19 24 -43.5 35t-60.5 11q-42 0 -82 -22.5t-72 -61.5t-51 -90t-19 -108q0 -82 35 -125t105 -43q35 0 71.5 15.5t60.5 34.5l14 -18
q-24 -21 -62.5 -39.5t-85.5 -18.5z" />
    <glyph glyph-name="d" unicode="d" horiz-adv-x="526" 
d="M186 -12q-63 0 -101.5 44t-38.5 128q0 69 21.5 129t59 105t84 70.5t95.5 25.5q44 0 75.5 -22t50.5 -58h4l20 96l44 216h28l-146 -722h-24l12 78h-4q-37 -39 -83 -64.5t-97 -25.5zM188 14q50 0 97.5 28.5t92.5 79.5l52 250q-28 50 -59 71t-67 21q-45 0 -86.5 -25.5
t-73.5 -68t-51 -95.5t-19 -109q0 -76 31 -114t83 -38z" />
    <glyph glyph-name="e" unicode="e" horiz-adv-x="468" 
d="M224 -12q-82 0 -131 50t-49 146q0 68 21 124t56.5 96.5t79 63t89.5 22.5q51 0 82.5 -21.5t45.5 -59.5t14 -87q0 -16 -1.5 -30.5t-4.5 -27t-6 -22.5h-352l6 26h324q3 15 4.5 29.5t1.5 30.5q0 34 -11 65t-36.5 51t-68.5 20q-40 0 -78.5 -21t-69.5 -58.5t-49.5 -88.5
t-18.5 -110q0 -63 21.5 -100.5t56.5 -54.5t76 -17q38 0 67.5 12.5t56.5 31.5l14 -18q-27 -21 -61.5 -36.5t-78.5 -15.5z" />
    <glyph glyph-name="f" unicode="f" horiz-adv-x="246" 
d="M48 0l90 452h-68l6 22l68 4l24 120q10 47 28.5 77t43 44.5t52.5 14.5q24 0 41 -6.5t29 -15.5l-12 -20q-12 8 -25.5 12t-34.5 4q-37 0 -61 -33t-33 -77l-24 -120h108l-6 -26h-108l-90 -452h-28z" />
    <glyph glyph-name="g" unicode="g" horiz-adv-x="518" 
d="M166 -234q-49 0 -90 18t-70 48l18 18q26 -25 64 -41.5t80 -16.5q74 0 116 49.5t58 128.5l24 116q-42 -40 -86.5 -65t-95.5 -25q-61 0 -99.5 44t-38.5 126q0 67 21.5 125.5t58 103t82 70t92.5 25.5q43 0 75 -22t51 -58h4l18 68h24l-106 -526q-18 -85 -68.5 -135.5
t-131.5 -50.5zM186 22q42 0 92.5 28t93.5 74l52 248q-29 50 -59.5 71t-66.5 21q-43 0 -83 -25t-72 -67.5t-50.5 -94.5t-18.5 -105q0 -75 30 -112.5t82 -37.5z" />
    <glyph glyph-name="h" unicode="h" horiz-adv-x="504" 
d="M44 0l144 722h28l-56 -278l-12 -46h4q48 41 90.5 66.5t85.5 25.5q62 0 88 -32.5t26 -83.5q0 -18 -1.5 -30.5t-6.5 -33.5l-62 -310h-28l62 306q5 23 6.5 36t1.5 28q0 47 -21 70.5t-69 23.5q-33 0 -78 -25t-102 -81l-72 -358h-28z" />
    <glyph glyph-name="i" unicode="i" horiz-adv-x="214" 
d="M44 0l96 478h28l-96 -478h-28zM180 600q-12 0 -20 8t-8 20q0 18 11.5 29t24.5 11q12 0 20 -8t8 -22q0 -16 -11 -27t-25 -11z" />
    <glyph glyph-name="j" unicode="j" horiz-adv-x="214" 
d="M-60 -234q-18 0 -32 3.5t-26 10.5l10 22q11 -6 23 -8t25 -2q32 0 52 29t30 75l118 582h28l-116 -578q-8 -41 -22.5 -71t-36.5 -46.5t-53 -16.5zM180 600q-12 0 -20 8t-8 20q0 18 11.5 29t24.5 11q12 0 20 -8t8 -22q0 -16 -11 -27t-25 -11z" />
    <glyph glyph-name="k" unicode="k" horiz-adv-x="436" 
d="M44 0l144 722h28l-108 -546h2l298 302h36l-186 -192l116 -286h-30l-108 266l-138 -140l-26 -126h-28z" />
    <glyph glyph-name="l" unicode="l" horiz-adv-x="226" 
d="M86 -8q-15 0 -25.5 9t-10.5 27q0 5 1.5 12t2.5 14l134 668h28l-134 -670q-1 -7 -1.5 -12t-0.5 -8q0 -14 14 -14q3 0 5.5 0.5t8.5 1.5l6 -22q-7 -3 -13 -4.5t-15 -1.5z" />
    <glyph glyph-name="m" unicode="m" horiz-adv-x="776" 
d="M44 0l96 478h24l-12 -78h4q41 39 83.5 64.5t76.5 25.5q60 0 84.5 -30.5t25.5 -71.5q51 50 96.5 76t79.5 26q60 0 86 -32.5t26 -83.5q0 -18 -1.5 -30.5t-6.5 -33.5l-62 -310h-28l62 306q5 23 6.5 36t1.5 28q0 47 -20.5 70.5t-67.5 23.5q-24 0 -69.5 -25t-98.5 -81
l-72 -358h-28l62 306q5 23 6.5 36t1.5 28q0 47 -20.5 70.5t-67.5 23.5q-24 0 -69.5 -25t-98.5 -81l-72 -358h-28z" />
    <glyph glyph-name="n" unicode="n" horiz-adv-x="504" 
d="M44 0l96 478h24l-12 -78h4q42 39 85.5 64.5t86.5 25.5q62 0 88 -32.5t26 -83.5q0 -18 -1.5 -30.5t-6.5 -33.5l-62 -310h-28l62 306q5 23 6.5 36t1.5 28q0 47 -21 70.5t-69 23.5q-33 0 -78 -25t-102 -81l-72 -358h-28z" />
    <glyph glyph-name="o" unicode="o" horiz-adv-x="500" 
d="M204 -12q-49 0 -84.5 22t-54.5 64t-19 102q0 67 21 124t56.5 99.5t80.5 66.5t92 24q49 0 84.5 -22t54.5 -64t19 -102q0 -67 -21 -124t-56.5 -99.5t-80.5 -66.5t-92 -24zM206 14q41 0 80 22.5t70.5 61.5t50.5 90t19 108q0 83 -34.5 125.5t-97.5 42.5q-40 0 -79.5 -22.5
t-71 -61.5t-50.5 -90t-19 -108q0 -82 34.5 -125t97.5 -43z" />
    <glyph glyph-name="p" unicode="p" horiz-adv-x="520" 
d="M0 -222l140 700h24l-12 -70h4q39 32 84 57t96 25q63 0 101.5 -44.5t38.5 -127.5q0 -69 -21.5 -129t-59 -105t-83.5 -70.5t-96 -25.5q-43 0 -76 23t-54 57h-2l-22 -110l-34 -180h-28zM218 14q45 0 86.5 25.5t73.5 68t51 96t19 108.5q0 76 -30.5 114t-83.5 38
q-42 0 -93 -26.5t-95 -67.5l-54 -268q29 -48 59.5 -68t66.5 -20z" />
    <glyph glyph-name="q" unicode="q" horiz-adv-x="520" 
d="M310 -222l36 180l24 122h-2q-39 -40 -85 -66t-97 -26q-63 0 -101.5 44t-38.5 128q0 69 21.5 129t59 105t84 70.5t95.5 25.5q44 0 75.5 -22t50.5 -58h4l18 68h24l-140 -700h-28zM188 14q50 0 97.5 28.5t92.5 79.5l52 250q-28 50 -59 71t-67 21q-45 0 -86.5 -25.5
t-73.5 -68t-51 -95.5t-19 -109q0 -76 31 -114t83 -38z" />
    <glyph glyph-name="r" unicode="r" horiz-adv-x="308" 
d="M44 0l96 478h24l-16 -90h4q30 42 67 72t83 30q9 0 20.5 -1.5t21.5 -6.5l-12 -26q-6 3 -14 4.5t-22 1.5q-39 0 -83 -37t-77 -103l-64 -322h-28z" />
    <glyph glyph-name="s" unicode="s" horiz-adv-x="384" 
d="M158 -12q-35 0 -66 11.5t-55 31.5t-37 45l20 12q20 -31 56.5 -52.5t85.5 -21.5q35 0 64.5 14t47.5 38.5t18 55.5q0 21 -7.5 37.5t-30 34t-66.5 42.5q-51 29 -79.5 58t-28.5 68q0 38 19 67t50.5 45t68.5 16q41 0 75 -15t59 -45l-18 -16q-21 24 -50.5 37t-67.5 13
q-46 0 -77 -29t-31 -67q0 -33 24 -57t66 -47q51 -27 77 -48.5t35.5 -42.5t9.5 -45q0 -43 -21.5 -74.5t-58.5 -48.5t-82 -17z" />
    <glyph glyph-name="t" unicode="t" horiz-adv-x="290" 
d="M168 -8q-52 0 -73 27.5t-21 64.5q0 12 1 22t3 22l68 324h-76l6 22l76 4l36 158h24l-32 -158h132l-6 -26h-132l-68 -326q-1 -9 -2.5 -18t-1.5 -20q0 -34 14.5 -52t53.5 -18q17 0 32.5 4.5t27.5 11.5l12 -18q-13 -9 -31.5 -16.5t-42.5 -7.5z" />
    <glyph glyph-name="u" unicode="u" horiz-adv-x="504" 
d="M178 -12q-61 0 -87.5 32.5t-26.5 83.5q0 18 2 30.5t6 33.5l62 310h28l-62 -306q-4 -22 -6 -35.5t-2 -28.5q0 -46 21 -70t69 -24q33 0 78 25.5t102 80.5l72 358h28l-96 -478h-24l12 80h-4q-42 -39 -85 -65.5t-87 -26.5z" />
    <glyph glyph-name="v" unicode="v" horiz-adv-x="408" 
d="M136 0l-78 478h28l50 -312q6 -34 11 -70.5t11 -69.5h4q18 35 37.5 70.5t38.5 69.5l170 312h30l-264 -478h-38z" />
    <glyph glyph-name="w" unicode="w" horiz-adv-x="674" 
d="M112 0l-44 478h28l28 -324q3 -33 6 -64.5t6 -63.5h4q15 32 29 63.5t29 64.5l150 324h40l24 -324q2 -33 4.5 -64.5t3.5 -63.5h4q15 32 29.5 63.5t30.5 64.5l154 324h28l-228 -478h-42l-22 312q-3 35 -4 72t-4 70h-4q-15 -33 -31 -70t-33 -72l-144 -312h-42z" />
    <glyph glyph-name="x" unicode="x" horiz-adv-x="380" 
d="M-48 0l226 252l-96 226h30l52 -126q9 -22 16 -40.5t16 -39.5h4q18 20 36 39.5t36 40.5l112 126h32l-204 -232l104 -246h-30l-54 136q-9 23 -19 46.5t-21 45.5h-4q-18 -22 -37.5 -44t-42.5 -46l-122 -138h-34z" />
    <glyph glyph-name="y" unicode="y" horiz-adv-x="408" 
d="M-40 -222q-10 0 -21.5 2t-22.5 8l10 22q15 -6 36 -6q45 0 83.5 39t70.5 103l22 44l-80 488h28l50 -312q6 -34 11 -70.5t11 -69.5h4q18 35 37.5 70.5t38.5 69.5l170 312h30l-300 -546q-24 -44 -50.5 -79t-58 -55t-69.5 -20z" />
    <glyph glyph-name="z" unicode="z" horiz-adv-x="384" 
d="M-10 0l2 18l372 434h-254l6 26h290l-2 -18l-372 -434h292l-6 -26h-328z" />
    <glyph glyph-name="Agrave" unicode="&#xc0;" horiz-adv-x="480" 
d="M-42 0l362 660h30l84 -660h-30l-48 396q-6 56 -13 113t-13 117h-4q-30 -61 -60 -116t-62 -114l-216 -396h-30zM104 238l8 26h280l-6 -26h-282zM380 710l-140 116l2 4h42l126 -120h-30z" />
    <glyph glyph-name="Aacute" unicode="&#xc1;" horiz-adv-x="480" 
d="M-42 0l362 660h30l84 -660h-30l-48 396q-6 56 -13 113t-13 117h-4q-30 -61 -60 -116t-62 -114l-216 -396h-30zM104 238l8 26h280l-6 -26h-282zM260 710l160 120h48l2 -4l-176 -116h-34z" />
    <glyph glyph-name="Acircumflex" unicode="&#xc2;" horiz-adv-x="480" 
d="M-42 0l362 660h30l84 -660h-30l-48 396q-6 56 -13 113t-13 117h-4q-30 -61 -60 -116t-62 -114l-216 -396h-30zM104 238l8 26h280l-6 -26h-282zM190 712l160 120h20l110 -120h-30l-90 90h-4l-132 -90h-34z" />
    <glyph glyph-name="Atilde" unicode="&#xc3;" horiz-adv-x="480" 
d="M-42 0l362 660h30l84 -660h-30l-48 396q-6 56 -13 113t-13 117h-4q-30 -61 -60 -116t-62 -114l-216 -396h-30zM104 238l8 26h280l-6 -26h-282zM416 722q-25 0 -42 12.5t-30 29.5t-27.5 29.5t-34.5 12.5q-23 0 -42 -22.5t-30 -59.5l-22 2q8 45 34.5 75.5t65.5 30.5
q26 0 42.5 -12.5t29.5 -29.5t27 -29.5t35 -12.5q23 0 41.5 22.5t30.5 59.5l22 -2q-7 -45 -34 -75.5t-66 -30.5z" />
    <glyph glyph-name="Adieresis" unicode="&#xc4;" horiz-adv-x="480" 
d="M-42 0l362 660h30l84 -660h-30l-48 396q-6 56 -13 113t-13 117h-4q-30 -61 -60 -116t-62 -114l-216 -396h-30zM104 238l8 26h280l-6 -26h-282zM254 726q-12 0 -19 7t-7 19q0 17 10 27.5t22 10.5t19 -7t7 -21q0 -15 -10 -25.5t-22 -10.5zM436 726q-12 0 -19 7t-7 19
q0 17 10 27.5t22 10.5t19 -7t7 -21q0 -15 -10 -25.5t-22 -10.5z" />
    <glyph glyph-name="Aring" unicode="&#xc5;" horiz-adv-x="480" 
d="M-42 0l362 660h30l84 -660h-30l-48 396q-6 56 -13 113t-13 117h-4q-30 -61 -60 -116t-62 -114l-216 -396h-30zM104 238l8 26h280l-6 -26h-282zM342 702q-30 0 -54 18t-24 54q0 39 30.5 65.5t69.5 26.5q30 0 54 -18t24 -54q0 -39 -30.5 -65.5t-69.5 -26.5zM344 724
q29 0 50.5 20t21.5 48q0 26 -15 39t-39 13q-28 0 -50 -19.5t-22 -48.5q0 -25 15 -38.5t39 -13.5z" />
    <glyph glyph-name="Amacron" unicode="&#x100;" horiz-adv-x="480" 
d="M-42 0l362 660h30l84 -660h-30l-48 396q-6 56 -13 113t-13 117h-4q-30 -61 -60 -116t-62 -114l-216 -396h-30zM104 238l8 26h280l-6 -26h-282zM230 748l6 26h230l-6 -26h-230z" />
    <glyph glyph-name="Abreve" unicode="&#x102;" horiz-adv-x="480" 
d="M-42 0l362 660h30l84 -660h-30l-48 396q-6 56 -13 113t-13 117h-4q-30 -61 -60 -116t-62 -114l-216 -396h-30zM104 238l8 26h280l-6 -26h-282zM338 712q-44 0 -67.5 19t-32 47t-8.5 56l26 4q0 -42 18.5 -71t69.5 -29q48 0 78.5 30.5t45.5 69.5l26 -4q-8 -27 -28 -55
t-52 -47.5t-76 -19.5z" />
    <glyph glyph-name="uni0226" unicode="&#x226;" horiz-adv-x="480" 
d="M-42 0l362 660h30l84 -660h-30l-48 396q-6 56 -13 113t-13 117h-4q-30 -61 -60 -116t-62 -114l-216 -396h-30zM104 238l8 26h280l-6 -26h-282zM344 726q-12 0 -20 8t-8 20q0 18 11.5 29t24.5 11q12 0 20 -8t8 -22q0 -16 -11 -27t-25 -11z" />
    <glyph glyph-name="uni01CD" unicode="&#x1cd;" horiz-adv-x="480" 
d="M-42 0l362 660h30l84 -660h-30l-48 396q-6 56 -13 113t-13 117h-4q-30 -61 -60 -116t-62 -114l-216 -396h-30zM104 238l8 26h280l-6 -26h-282zM324 712l-104 120h30l86 -90h4l136 90h34l-160 -120h-26z" />
    <glyph glyph-name="uni0200" unicode="&#x200;" horiz-adv-x="480" 
d="M-42 0l362 660h30l84 -660h-30l-48 396q-6 56 -13 113t-13 117h-4q-30 -61 -60 -116t-62 -114l-216 -396h-30zM104 238l8 26h280l-6 -26h-282zM246 710l-116 116l2 4h46l102 -120h-34zM426 710l-116 116l2 4h46l102 -120h-34z" />
    <glyph glyph-name="Aogonek" unicode="&#x104;" horiz-adv-x="480" 
d="M386 -214q-31 0 -52.5 16.5t-21.5 49.5q0 29 15 57t37 51.5t42 39.5h-2l-48 396q-6 56 -13 113t-13 117h-4q-30 -61 -60 -116t-62 -114l-216 -396h-34l366 660h30l84 -660q-33 -30 -62.5 -66.5t-29.5 -75.5q0 -21 13.5 -33.5t34.5 -12.5q26 0 56 22l12 -16
q-18 -16 -35 -24t-37 -8zM104 238l8 26h280l-6 -26h-282z" />
    <glyph glyph-name="Aogonek.d" horiz-adv-x="480" 
d="M182 -214q-31 0 -52.5 16.5t-21.5 49.5q0 28 15.5 57t40.5 55t54 44l12 -16q-42 -28 -67 -64.5t-25 -69.5q0 -21 13.5 -33.5t34.5 -12.5q26 0 56 22l12 -16q-18 -16 -35 -24t-37 -8zM-42 0l362 660h30l84 -660h-30l-48 396q-6 56 -13 113t-13 117h-4q-30 -61 -60 -116
t-62 -114l-216 -396h-30zM104 238l8 26h280l-6 -26h-282z" />
    <glyph glyph-name="uni1EA0" unicode="&#x1ea0;" horiz-adv-x="480" 
d="M-42 0l362 660h30l84 -660h-30l-48 396q-6 56 -13 113t-13 117h-4q-30 -61 -60 -116t-62 -114l-216 -396h-30zM104 238l8 26h280l-6 -26h-282zM174 -192q-12 0 -20 8t-8 20q0 18 11.5 29t24.5 11q12 0 20 -8t8 -22q0 -16 -11 -27t-25 -11z" />
    <glyph glyph-name="uni1EA2" unicode="&#x1ea2;" horiz-adv-x="480" 
d="M-42 0l362 660h30l84 -660h-30l-48 396q-6 56 -13 113t-13 117h-4q-30 -61 -60 -116t-62 -114l-216 -396h-30zM104 238l8 26h280l-6 -26h-282zM300 708l-4 22q78 21 78 68q0 22 -21 32.5t-57 11.5l6 24q27 -1 49.5 -7t36.5 -19.5t14 -35.5q0 -33 -26 -57.5t-76 -38.5z
" />
    <glyph glyph-name="uni1EA4" unicode="&#x1ea4;" horiz-adv-x="480" 
d="M-42 0l362 660h30l84 -660h-30l-48 396q-6 56 -13 113t-13 117h-4q-30 -61 -60 -116t-62 -114l-216 -396h-30zM104 238l8 26h280l-6 -26h-282zM210 710l140 100h20l100 -100h-30l-80 70h-4l-112 -70h-34zM420 780l110 100h38l2 -4l-124 -96h-26z" />
    <glyph glyph-name="uni1EA6" unicode="&#x1ea6;" horiz-adv-x="480" 
d="M-42 0l362 660h30l84 -660h-30l-48 396q-6 56 -13 113t-13 117h-4q-30 -61 -60 -116t-62 -114l-216 -396h-30zM104 238l8 26h280l-6 -26h-282zM210 710l140 100h20l100 -100h-30l-80 70h-4l-112 -70h-34zM268 780l-88 96l2 4h32l76 -100h-22z" />
    <glyph glyph-name="uni1EA8" unicode="&#x1ea8;" horiz-adv-x="480" 
d="M-42 0l362 660h30l84 -660h-30l-48 396q-6 56 -13 113t-13 117h-4q-30 -61 -60 -116t-62 -114l-216 -396h-30zM104 238l8 26h280l-6 -26h-282zM210 710l140 100h20l100 -100h-30l-80 70h-4l-112 -70h-34zM449 780l-6 22q63 15 63 54q0 20 -19 27.5t-48 8.5l4 24
q35 -1 63 -12.5t28 -41.5t-21 -50.5t-64 -31.5z" />
    <glyph glyph-name="uni1EAA" unicode="&#x1eaa;" horiz-adv-x="480" 
d="M-42 0l362 660h30l84 -660h-30l-48 396q-6 56 -13 113t-13 117h-4q-30 -61 -60 -116t-62 -114l-216 -396h-30zM104 238l8 26h280l-6 -26h-282zM210 710l140 100h20l100 -100h-30l-80 70h-4l-112 -70h-34zM436 840q-29 0 -48.5 13.5t-38.5 27t-45 13.5q-21 0 -32.5 -14.5
t-19.5 -37.5l-22 4q3 16 11.5 33t25 29t43.5 12q29 0 48.5 -13.5t38.5 -27t45 -13.5q21 0 33 14.5t19 37.5l24 -4q-4 -16 -13 -33t-25.5 -29t-43.5 -12z" />
    <glyph glyph-name="uni1EAC" unicode="&#x1eac;" horiz-adv-x="480" 
d="M-42 0l362 660h30l84 -660h-30l-48 396q-6 56 -13 113t-13 117h-4q-30 -61 -60 -116t-62 -114l-216 -396h-30zM104 238l8 26h280l-6 -26h-282zM190 711l160 120h20l110 -120h-30l-90 90h-4l-132 -90h-34zM174 -192q-12 0 -20 8t-8 20q0 18 11.5 29t24.5 11q12 0 20 -8
t8 -22q0 -16 -11 -27t-25 -11z" />
    <glyph glyph-name="uni1EAE" unicode="&#x1eae;" horiz-adv-x="480" 
d="M-42 0l362 660h30l84 -660h-30l-48 396q-6 56 -13 113t-13 117h-4q-30 -61 -60 -116t-62 -114l-216 -396h-30zM104 238l8 26h280l-6 -26h-282zM338 712q-42 0 -66.5 19t-33.5 47.5t-8 55.5l26 4q-2 -39 18 -69.5t70 -30.5t80.5 30.5t43.5 69.5l26 -4q-8 -27 -28 -55.5
t-51.5 -47.5t-76.5 -19zM310 820l110 100h38l2 -4l-124 -96h-26z" />
    <glyph glyph-name="uni1EB0" unicode="&#x1eb0;" horiz-adv-x="480" 
d="M-42 0l362 660h30l84 -660h-30l-48 396q-6 56 -13 113t-13 117h-4q-30 -61 -60 -116t-62 -114l-216 -396h-30zM104 238l8 26h280l-6 -26h-282zM338 712q-42 0 -66.5 19t-33.5 47.5t-8 55.5l26 4q-2 -39 18 -69.5t70 -30.5t80.5 30.5t43.5 69.5l26 -4q-8 -27 -28 -55.5
t-51.5 -47.5t-76.5 -19zM368 820l-88 96l2 4h32l76 -100h-22z" />
    <glyph glyph-name="uni1EB2" unicode="&#x1eb2;" horiz-adv-x="480" 
d="M-42 0l362 660h30l84 -660h-30l-48 396q-6 56 -13 113t-13 117h-4q-30 -61 -60 -116t-62 -114l-216 -396h-30zM104 238l8 26h280l-6 -26h-282zM338 712q-44 0 -67.5 19t-32 47t-8.5 56l26 4q0 -42 18.5 -71t69.5 -29q48 0 78.5 30.5t45.5 69.5l26 -4q-8 -27 -28 -55
t-52 -47.5t-76 -19.5zM338 798l-4 22q64 14 64 54q0 20 -17 27.5t-47 8.5l6 24q35 -1 60.5 -13t25.5 -41q0 -33 -24.5 -53.5t-63.5 -28.5z" />
    <glyph glyph-name="uni1EB4" unicode="&#x1eb4;" horiz-adv-x="480" 
d="M-42 0l362 660h30l84 -660h-30l-48 396q-6 56 -13 113t-13 117h-4q-30 -61 -60 -116t-62 -114l-216 -396h-30zM104 238l8 26h280l-6 -26h-282zM340 712q-43 0 -68.5 16t-35 39.5t-8.5 46.5l26 4q-1 -31 20 -55.5t71 -24.5t80.5 24.5t40.5 55.5l26 -4q-7 -23 -26.5 -46.5
t-50.5 -39.5t-75 -16zM436 840q-29 0 -48.5 13.5t-38.5 27t-45 13.5q-21 0 -32.5 -14.5t-19.5 -37.5l-22 4q3 16 11.5 33t25 29t43.5 12q29 0 48.5 -13.5t38.5 -27t45 -13.5q21 0 33 14.5t19 37.5l24 -4q-4 -16 -13 -33t-25.5 -29t-43.5 -12z" />
    <glyph glyph-name="uni1EB6" unicode="&#x1eb6;" horiz-adv-x="480" 
d="M-42 0l362 660h30l84 -660h-30l-48 396q-6 56 -13 113t-13 117h-4q-30 -61 -60 -116t-62 -114l-216 -396h-30zM104 238l8 26h280l-6 -26h-282zM338 712q-44 0 -67.5 19t-32 47t-8.5 56l26 4q0 -42 18.5 -71t69.5 -29q48 0 78.5 30.5t45.5 69.5l26 -4q-8 -27 -28 -55
t-52 -47.5t-76 -19.5zM174 -192q-12 0 -20 8t-8 20q0 18 11.5 29t24.5 11q12 0 20 -8t8 -22q0 -16 -11 -27t-25 -11z" />
    <glyph glyph-name="Aringacute" unicode="&#x1fa;" horiz-adv-x="480" 
d="M-42 0l362 660h30l84 -660h-30l-48 396q-6 56 -13 113t-13 117h-4q-30 -61 -60 -116t-62 -114l-216 -396h-30zM104 238l8 26h280l-6 -26h-282zM342 702q-30 0 -54 17t-24 51q0 30 18 48t42 34l96 68h38l2 -4l-108 -74l12 14q29 0 53.5 -17t24.5 -53t-30.5 -60t-69.5 -24z
M344 724q29 0 50.5 17.5t21.5 42.5q0 24 -15 37t-39 13q-28 0 -50 -17.5t-22 -44.5q0 -24 15 -36t39 -12z" />
    <glyph glyph-name="AE" unicode="&#xc6;" horiz-adv-x="774" 
d="M-32 0l490 660h346l-6 -26h-298l-54 -270h250l-6 -26h-248l-64 -312h308l-6 -26h-336l126 632h-4q-43 -60 -86.5 -120t-87.5 -120l-288 -392h-36zM152 226l8 26h258l-8 -26h-258z" />
    <glyph glyph-name="AEacute" unicode="&#x1fc;" horiz-adv-x="774" 
d="M-32 0l490 660h346l-6 -26h-298l-54 -270h250l-6 -26h-248l-64 -312h308l-6 -26h-336l126 632h-4q-43 -60 -86.5 -120t-87.5 -120l-288 -392h-36zM152 226l8 26h258l-8 -26h-258zM550 710l160 120h48l2 -4l-176 -116h-34z" />
    <glyph glyph-name="uni01E2" unicode="&#x1e2;" horiz-adv-x="774" 
d="M-32 0l490 660h346l-6 -26h-298l-54 -270h250l-6 -26h-248l-64 -312h308l-6 -26h-336l126 632h-4q-43 -60 -86.5 -120t-87.5 -120l-288 -392h-36zM152 226l8 26h258l-8 -26h-258zM520 748l6 26h230l-6 -26h-230z" />
    <glyph glyph-name="uni023A" unicode="&#x23a;" horiz-adv-x="480" 
d="M86 -38l-22 12l366 726l22 -12zM-42 0l362 660h30l84 -660h-30l-48 396q-6 56 -13 113t-13 117h-4q-30 -61 -60 -116t-62 -114l-216 -396h-30zM104 238l8 26h280l-6 -26h-282z" />
    <glyph glyph-name="uni0243" unicode="&#x243;" horiz-adv-x="574" 
d="M58 0l132 660h156q61 0 103.5 -17t64.5 -49t22 -76q0 -50 -24.5 -85.5t-59.5 -55.5t-66 -25v-4q32 -7 61 -24.5t47 -46.5t18 -71q0 -70 -33 -115.5t-92.5 -68t-138.5 -22.5h-190zM22 180l6 22l72 4h198l-6 -26h-270zM92 26h138q75 0 132 17.5t88.5 56.5t31.5 103
q0 58 -48.5 96.5t-137.5 38.5h-140zM160 364h118q114 0 171 43t57 109q0 56 -42 87t-134 31h-116z" />
    <glyph glyph-name="uni0181" unicode="&#x181;" horiz-adv-x="664" 
d="M184 0l132 660h30l-60 -296h88q114 0 171 43t57 109q0 41 -19 70t-63.5 44.5t-121.5 15.5h-4q-76 0 -132.5 -25t-94 -64t-55.5 -81.5t-18 -77.5q0 -40 14.5 -64t45.5 -42l-14 -22q-34 17 -55 47.5t-21 78.5q0 41 20.5 88.5t61.5 90t104 70t148 27.5q83 0 134.5 -18.5
t75.5 -53t24 -82.5q0 -50 -24.5 -85.5t-59.5 -55.5t-66 -25v-4q32 -7 61 -24.5t47 -46.5t18 -71q0 -70 -33 -115.5t-92.5 -68t-138.5 -22.5h-160zM218 26h108q75 0 132 17.5t88.5 56.5t31.5 103t-48.5 99.5t-137.5 35.5h-110z" />
    <glyph glyph-name="uni1E02" unicode="&#x1e02;" horiz-adv-x="550" 
d="M40 0l132 660h156q92 0 141 -38t49 -104q0 -50 -24.5 -85.5t-59.5 -55.5t-66 -25v-4q32 -7 61 -24.5t47 -46.5t18 -71q0 -70 -33 -115.5t-92.5 -68t-138.5 -22.5h-190zM142 364h118q114 0 171 43t57 109q0 56 -42 87t-134 31h-116zM74 26h138q75 0 132 17.5t88.5 56.5
t31.5 103t-48.5 99.5t-137.5 35.5h-140zM334 726q-12 0 -20 8t-8 20q0 18 11.5 29t24.5 11q12 0 20 -8t8 -22q0 -16 -11 -27t-25 -11z" />
    <glyph glyph-name="uni1E06" unicode="&#x1e06;" horiz-adv-x="550" 
d="M40 0l132 660h156q92 0 141 -38t49 -104q0 -50 -24.5 -85.5t-59.5 -55.5t-66 -25v-4q32 -7 61 -24.5t47 -46.5t18 -71q0 -70 -33 -115.5t-92.5 -68t-138.5 -22.5h-190zM142 364h118q114 0 171 43t57 109q0 56 -42 87t-134 31h-116zM74 26h138q75 0 132 17.5t88.5 56.5
t31.5 103t-48.5 99.5t-137.5 35.5h-140zM100 -152l4 26h232l-4 -26h-232z" />
    <glyph glyph-name="Ccedilla" unicode="&#xc7;" horiz-adv-x="536" 
d="M278 -12q-74 0 -123 34t-73 92.5t-24 131.5q0 58 14.5 118t42 115t68 98.5t92.5 69t115 25.5q56 0 96 -27.5t56 -68.5l-22 -10q-18 38 -51 59t-81 21q-58 0 -105 -24.5t-83.5 -65.5t-61.5 -92.5t-37.5 -106.5t-12.5 -105q0 -67 20 -121t62.5 -85.5t109.5 -31.5
q48 0 89 17.5t75 46.5l14 -16q-40 -36 -83 -55t-97 -19zM152 -216l-2 24q62 2 93 18.5t31 41.5q0 23 -17 33t-51 13l56 88h28l-42 -70q35 -9 45.5 -22t10.5 -34q0 -43 -42 -66.5t-110 -25.5z" />
    <glyph glyph-name="Cacute" unicode="&#x106;" horiz-adv-x="536" 
d="M278 -12q-74 0 -123 34t-73 92.5t-24 131.5q0 58 14.5 118t42 115t68 98.5t92.5 69t115 25.5q56 0 96 -27.5t56 -68.5l-22 -10q-18 38 -51 59t-81 21q-58 0 -105 -24.5t-83.5 -65.5t-61.5 -92.5t-37.5 -106.5t-12.5 -105q0 -67 20 -121t62.5 -85.5t109.5 -31.5
q48 0 89 17.5t75 46.5l14 -16q-40 -36 -83 -55t-97 -19zM330 710l160 120h48l2 -4l-176 -116h-34z" />
    <glyph glyph-name="Ccircumflex" unicode="&#x108;" horiz-adv-x="536" 
d="M278 -12q-74 0 -123 34t-73 92.5t-24 131.5q0 58 14.5 118t42 115t68 98.5t92.5 69t115 25.5q56 0 96 -27.5t56 -68.5l-22 -10q-18 38 -51 59t-81 21q-58 0 -105 -24.5t-83.5 -65.5t-61.5 -92.5t-37.5 -106.5t-12.5 -105q0 -67 20 -121t62.5 -85.5t109.5 -31.5
q48 0 89 17.5t75 46.5l14 -16q-40 -36 -83 -55t-97 -19zM260 711l160 120h20l110 -120h-30l-90 90h-4l-132 -90h-34z" />
    <glyph glyph-name="Cdotaccent" unicode="&#x10a;" horiz-adv-x="536" 
d="M278 -12q-74 0 -123 34t-73 92.5t-24 131.5q0 58 14.5 118t42 115t68 98.5t92.5 69t115 25.5q56 0 96 -27.5t56 -68.5l-22 -10q-18 38 -51 59t-81 21q-58 0 -105 -24.5t-83.5 -65.5t-61.5 -92.5t-37.5 -106.5t-12.5 -105q0 -67 20 -121t62.5 -85.5t109.5 -31.5
q48 0 89 17.5t75 46.5l14 -16q-40 -36 -83 -55t-97 -19zM414 726q-12 0 -20 8t-8 20q0 18 11.5 29t24.5 11q12 0 20 -8t8 -22q0 -16 -11 -27t-25 -11z" />
    <glyph glyph-name="Ccaron" unicode="&#x10c;" horiz-adv-x="536" 
d="M278 -12q-74 0 -123 34t-73 92.5t-24 131.5q0 58 14.5 118t42 115t68 98.5t92.5 69t115 25.5q56 0 96 -27.5t56 -68.5l-22 -10q-18 38 -51 59t-81 21q-58 0 -105 -24.5t-83.5 -65.5t-61.5 -92.5t-37.5 -106.5t-12.5 -105q0 -67 20 -121t62.5 -85.5t109.5 -31.5
q48 0 89 17.5t75 46.5l14 -16q-40 -36 -83 -55t-97 -19zM394 712l-104 120h30l86 -90h4l136 90h34l-160 -120h-26z" />
    <glyph glyph-name="uni023B" unicode="&#x23b;" horiz-adv-x="536" 
d="M106 -38l-22 12l404 726l22 -12zM278 -12q-74 0 -123 34t-73 92.5t-24 131.5q0 58 14.5 118t42 115t68 98.5t92.5 69t115 25.5q56 0 96 -27.5t56 -68.5l-22 -10q-18 38 -51 59t-81 21q-58 0 -105 -24.5t-83.5 -65.5t-61.5 -92.5t-37.5 -106.5t-12.5 -105q0 -67 20 -121
t62.5 -85.5t109.5 -31.5q48 0 89 17.5t75 46.5l14 -16q-40 -36 -83 -55t-97 -19z" />
    <glyph glyph-name="uni1E0A" unicode="&#x1e0a;" horiz-adv-x="572" 
d="M40 0l132 660h104q91 0 151 -32.5t89.5 -90t29.5 -133.5q0 -84 -22.5 -157.5t-66.5 -128.5t-110 -86.5t-153 -31.5h-154zM74 26h122q77 0 136.5 30t100.5 83t62 120.5t21 142.5q0 68 -26.5 120.5t-80 82t-135.5 29.5h-78zM378 726q-12 0 -20 8t-8 20q0 18 11.5 29
t24.5 11q12 0 20 -8t8 -22q0 -16 -11 -27t-25 -11z" />
    <glyph glyph-name="Dcaron" unicode="&#x10e;" horiz-adv-x="572" 
d="M40 0l132 660h104q91 0 151 -32.5t89.5 -90t29.5 -133.5q0 -84 -22.5 -157.5t-66.5 -128.5t-110 -86.5t-153 -31.5h-154zM74 26h122q77 0 136.5 30t100.5 83t62 120.5t21 142.5q0 68 -26.5 120.5t-80 82t-135.5 29.5h-78zM358 712l-104 120h30l86 -90h4l136 90h34
l-160 -120h-26z" />
    <glyph glyph-name="uni1E0C" unicode="&#x1e0c;" horiz-adv-x="572" 
d="M40 0l132 660h104q91 0 151 -32.5t89.5 -90t29.5 -133.5q0 -84 -22.5 -157.5t-66.5 -128.5t-110 -86.5t-153 -31.5h-154zM74 26h122q77 0 136.5 30t100.5 83t62 120.5t21 142.5q0 68 -26.5 120.5t-80 82t-135.5 29.5h-78zM212 -192q-12 0 -20 8t-8 20q0 18 11.5 29
t24.5 11q12 0 20 -8t8 -22q0 -16 -11 -27t-25 -11z" />
    <glyph glyph-name="uni1E0E" unicode="&#x1e0e;" horiz-adv-x="572" 
d="M40 0l132 660h104q91 0 151 -32.5t89.5 -90t29.5 -133.5q0 -84 -22.5 -157.5t-66.5 -128.5t-110 -86.5t-153 -31.5h-154zM74 26h122q77 0 136.5 30t100.5 83t62 120.5t21 142.5q0 68 -26.5 120.5t-80 82t-135.5 29.5h-78zM102 -152l4 26h232l-4 -26h-232z" />
    <glyph glyph-name="uni1E10" unicode="&#x1e10;" horiz-adv-x="572" 
d="M40 0l132 660h104q91 0 151 -32.5t89.5 -90t29.5 -133.5q0 -84 -22.5 -157.5t-66.5 -128.5t-110 -86.5t-153 -31.5h-154zM74 26h122q77 0 136.5 30t100.5 83t62 120.5t21 142.5q0 68 -26.5 120.5t-80 82t-135.5 29.5h-78zM98 -216l-2 24q62 2 93 18.5t31 41.5
q0 23 -17 33t-51 13l56 88h28l-42 -70q35 -9 45.5 -22t10.5 -34q0 -43 -42 -66.5t-110 -25.5z" />
    <glyph glyph-name="Dcroat" unicode="&#x110;" horiz-adv-x="592" 
d="M54 338l6 22l74 4h198l-6 -26h-272zM60 0l132 660h104q91 0 151 -32.5t89.5 -90t29.5 -133.5q0 -84 -22.5 -157.5t-66.5 -128.5t-110 -86.5t-153 -31.5h-154zM94 26h122q77 0 136.5 30t100.5 83t62 120.5t21 142.5q0 68 -26.5 120.5t-80 82t-135.5 29.5h-78z" />
    <glyph glyph-name="uni018A" unicode="&#x18a;" horiz-adv-x="686" 
d="M184 0l132 660h30l-128 -634h90q79 0 139 30.5t101 84t61.5 123t20.5 148.5q0 68 -23.5 121t-74.5 83t-134 30h-4q-76 0 -132.5 -25t-94 -64t-55.5 -81.5t-18 -77.5q0 -40 14.5 -64t45.5 -42l-14 -22q-34 17 -55 47.5t-21 78.5q0 41 20.5 88.5t61.5 90t104 70t148 27.5
q93 0 151 -33t84.5 -91t26.5 -134q0 -88 -22 -163t-66 -131.5t-110 -88t-153 -31.5h-125z" />
    <glyph glyph-name="Egrave" unicode="&#xc8;" horiz-adv-x="484" 
d="M40 0l132 660h342l-6 -26h-312l-54 -270h264l-6 -26h-262l-64 -312h322l-6 -26h-350zM400 710l-140 116l2 4h42l126 -120h-30z" />
    <glyph glyph-name="Eacute" unicode="&#xc9;" horiz-adv-x="484" 
d="M40 0l132 660h342l-6 -26h-312l-54 -270h264l-6 -26h-262l-64 -312h322l-6 -26h-350zM280 710l160 120h48l2 -4l-176 -116h-34z" />
    <glyph glyph-name="Ecircumflex" unicode="&#xca;" horiz-adv-x="484" 
d="M40 0l132 660h342l-6 -26h-312l-54 -270h264l-6 -26h-262l-64 -312h322l-6 -26h-350zM210 712l160 120h20l110 -120h-30l-90 90h-4l-132 -90h-34z" />
    <glyph glyph-name="uni1EBC" unicode="&#x1ebc;" horiz-adv-x="484" 
d="M40 0l132 660h342l-6 -26h-312l-54 -270h264l-6 -26h-262l-64 -312h322l-6 -26h-350zM442 722q-25 0 -42 12.5t-30 29.5t-27.5 29.5t-34.5 12.5q-23 0 -42 -22.5t-30 -59.5l-22 2q8 45 34.5 75.5t65.5 30.5q26 0 42.5 -12.5t29.5 -29.5t27 -29.5t35 -12.5q23 0 41.5 22.5
t30.5 59.5l22 -2q-7 -45 -34 -75.5t-66 -30.5z" />
    <glyph glyph-name="Edieresis" unicode="&#xcb;" horiz-adv-x="484" 
d="M40 0l132 660h342l-6 -26h-312l-54 -270h264l-6 -26h-262l-64 -312h322l-6 -26h-350zM274 726q-12 0 -19 7t-7 19q0 17 10 27.5t22 10.5t19 -7t7 -21q0 -15 -10 -25.5t-22 -10.5zM456 726q-12 0 -19 7t-7 19q0 17 10 27.5t22 10.5t19 -7t7 -21q0 -15 -10 -25.5t-22 -10.5
z" />
    <glyph glyph-name="Emacron" unicode="&#x112;" horiz-adv-x="484" 
d="M40 0l132 660h342l-6 -26h-312l-54 -270h264l-6 -26h-262l-64 -312h322l-6 -26h-350zM250 748l6 26h230l-6 -26h-230z" />
    <glyph glyph-name="Ebreve" unicode="&#x114;" horiz-adv-x="484" 
d="M40 0l132 660h342l-6 -26h-312l-54 -270h264l-6 -26h-262l-64 -312h322l-6 -26h-350zM358 712q-44 0 -67.5 19t-32 47t-8.5 56l26 4q0 -42 18.5 -71t69.5 -29q48 0 78.5 30.5t45.5 69.5l26 -4q-8 -27 -28 -55t-52 -47.5t-76 -19.5z" />
    <glyph glyph-name="Edotaccent" unicode="&#x116;" horiz-adv-x="484" 
d="M40 0l132 660h342l-6 -26h-312l-54 -270h264l-6 -26h-262l-64 -312h322l-6 -26h-350zM364 726q-12 0 -20 8t-8 20q0 18 11.5 29t24.5 11q12 0 20 -8t8 -22q0 -16 -11 -27t-25 -11z" />
    <glyph glyph-name="Ecaron" unicode="&#x11a;" horiz-adv-x="484" 
d="M40 0l132 660h342l-6 -26h-312l-54 -270h264l-6 -26h-262l-64 -312h322l-6 -26h-350zM344 712l-104 120h30l86 -90h4l136 90h34l-160 -120h-26z" />
    <glyph glyph-name="uni0204" unicode="&#x204;" horiz-adv-x="484" 
d="M40 0l132 660h342l-6 -26h-312l-54 -270h264l-6 -26h-262l-64 -312h322l-6 -26h-350zM266 710l-116 116l2 4h46l102 -120h-34zM446 710l-116 116l2 4h46l102 -120h-34z" />
    <glyph glyph-name="Eogonek" unicode="&#x118;" horiz-adv-x="484" 
d="M310 -214q-31 0 -52.5 16.5t-21.5 49.5q0 29 15 57t37 51.5t42 39.5h-290l132 660h342l-6 -26h-312l-54 -270h264l-6 -26h-262l-64 -312h322l-6 -26q-19 0 -40.5 -13.5t-40.5 -35t-31 -46t-12 -47.5q0 -21 13.5 -33.5t34.5 -12.5q26 0 56 22l12 -16q-18 -16 -35 -24
t-37 -8z" />
    <glyph glyph-name="Eogonek.d" horiz-adv-x="484" 
d="M206 -214q-31 0 -52.5 16.5t-21.5 49.5q0 29 15 57t37 51.5t42 39.5h-186l132 660h342l-6 -26h-312l-54 -270h264l-6 -26h-262l-64 -312h322l-6 -26h-114q-13 0 -32.5 -13.5t-38 -35t-31 -46t-12.5 -47.5q0 -21 13.5 -33.5t34.5 -12.5q26 0 56 22l12 -16q-18 -16 -35 -24
t-37 -8z" />
    <glyph glyph-name="uni1EB8" unicode="&#x1eb8;" horiz-adv-x="484" 
d="M40 0l132 660h342l-6 -26h-312l-54 -270h264l-6 -26h-262l-64 -312h322l-6 -26h-350zM204 -192q-12 0 -20 8t-8 20q0 18 11.5 29t24.5 11q12 0 20 -8t8 -22q0 -16 -11 -27t-25 -11z" />
    <glyph glyph-name="uni1EBA" unicode="&#x1eba;" horiz-adv-x="484" 
d="M40 0l132 660h342l-6 -26h-312l-54 -270h264l-6 -26h-262l-64 -312h322l-6 -26h-350zM326 708l-4 22q78 21 78 68q0 22 -21 32.5t-57 11.5l6 24q27 -1 49.5 -7t36.5 -19.5t14 -35.5q0 -33 -26 -57.5t-76 -38.5z" />
    <glyph glyph-name="uni1EBE" unicode="&#x1ebe;" horiz-adv-x="484" 
d="M40 0l132 660h342l-6 -26h-312l-54 -270h264l-6 -26h-262l-64 -312h322l-6 -26h-350zM236 710l140 100h20l100 -100h-30l-80 70h-4l-112 -70h-34zM446 780l110 100h38l2 -4l-124 -96h-26z" />
    <glyph glyph-name="uni1EC0" unicode="&#x1ec0;" horiz-adv-x="484" 
d="M40 0l132 660h342l-6 -26h-312l-54 -270h264l-6 -26h-262l-64 -312h322l-6 -26h-350zM236 710l140 100h20l100 -100h-30l-80 70h-4l-112 -70h-34zM294 780l-88 96l2 4h32l76 -100h-22z" />
    <glyph glyph-name="uni1EC2" unicode="&#x1ec2;" horiz-adv-x="484" 
d="M40 0l132 660h342l-6 -26h-312l-54 -270h264l-6 -26h-262l-64 -312h322l-6 -26h-350zM236 710l140 100h20l100 -100h-30l-80 70h-4l-112 -70h-34zM475 780l-6 22q63 15 63 54q0 20 -19 27.5t-48 8.5l4 24q35 -1 63 -12.5t28 -41.5t-21 -50.5t-64 -31.5z" />
    <glyph glyph-name="uni1EC4" unicode="&#x1ec4;" horiz-adv-x="484" 
d="M40 0l132 660h342l-6 -26h-312l-54 -270h264l-6 -26h-262l-64 -312h322l-6 -26h-350zM236 710l140 100h20l100 -100h-30l-80 70h-4l-112 -70h-34zM462 840q-29 0 -48.5 13.5t-38.5 27t-45 13.5q-21 0 -32.5 -14.5t-19.5 -37.5l-22 4q3 16 11.5 33t25 29t43.5 12
q29 0 48.5 -13.5t38.5 -27t45 -13.5q21 0 33 14.5t19 37.5l24 -4q-4 -16 -13 -33t-25.5 -29t-43.5 -12z" />
    <glyph glyph-name="uni1EC6" unicode="&#x1ec6;" horiz-adv-x="484" 
d="M40 0l132 660h342l-6 -26h-312l-54 -270h264l-6 -26h-262l-64 -312h322l-6 -26h-350zM216 711l160 120h20l110 -120h-30l-90 90h-4l-132 -90h-34zM204 -192q-12 0 -20 8t-8 20q0 18 11.5 29t24.5 11q12 0 20 -8t8 -22q0 -16 -11 -27t-25 -11z" />
    <glyph glyph-name="uni1E16" unicode="&#x1e16;" horiz-adv-x="484" 
d="M40 0l132 660h342l-6 -26h-312l-54 -270h264l-6 -26h-262l-64 -312h322l-6 -26h-350zM256 748l6 26h230l-6 -26h-230zM336 820l110 100h38l2 -4l-124 -96h-26z" />
    <glyph glyph-name="uni018E" unicode="&#x18e;" horiz-adv-x="484" 
d="M-8 0l4 26h322l62 312h-262l4 26h264l54 270h-312l4 26h342l-132 -660h-350z" />
    <glyph glyph-name="uni0190" unicode="&#x190;" horiz-adv-x="524" 
d="M210 -12q-87 0 -137.5 41t-50.5 111q0 45 19 80.5t50 62t67 44t70 25.5v4q-23 7 -45.5 25t-37.5 45.5t-15 63.5q0 53 29 94t77.5 64.5t104.5 23.5q61 0 105.5 -27.5t60.5 -68.5l-22 -10q-19 38 -56 59t-90 21q-48 0 -89 -19.5t-65.5 -54.5t-24.5 -80q0 -53 40 -90.5
t136 -37.5h40l-4 -26h-58q-71 0 -130.5 -26.5t-95.5 -70t-36 -95.5q0 -63 43.5 -97.5t116.5 -34.5q66 0 121 24.5t103 65.5l14 -16q-55 -49 -111.5 -74.5t-128.5 -25.5z" />
    <glyph glyph-name="uni1E1E" unicode="&#x1e1e;" horiz-adv-x="448" 
d="M40 0l132 660h342l-6 -26h-312l-56 -282h264l-6 -26h-262l-66 -326h-30zM374 726q-12 0 -20 8t-8 20q0 18 11.5 29t24.5 11q12 0 20 -8t8 -22q0 -16 -11 -27t-25 -11z" />
    <glyph glyph-name="uni01F4" unicode="&#x1f4;" horiz-adv-x="570" 
d="M288 -12q-78 0 -129 33.5t-76 91.5t-25 133q0 73 22 148t65 138t106 101.5t145 38.5q59 0 98 -28t58 -66l-22 -14q-19 36 -52.5 59t-83.5 23q-59 0 -107 -24t-85 -65.5t-62.5 -92.5t-38.5 -106t-13 -106q0 -65 20 -119t64.5 -86.5t117.5 -32.5q48 0 84 16t60 38l44 222
h-158l6 26h188l-54 -262q-34 -30 -76.5 -48t-95.5 -18zM330 710l160 120h48l2 -4l-176 -116h-34z" />
    <glyph glyph-name="Gcircumflex" unicode="&#x11c;" horiz-adv-x="570" 
d="M288 -12q-78 0 -129 33.5t-76 91.5t-25 133q0 73 22 148t65 138t106 101.5t145 38.5q59 0 98 -28t58 -66l-22 -14q-19 36 -52.5 59t-83.5 23q-59 0 -107 -24t-85 -65.5t-62.5 -92.5t-38.5 -106t-13 -106q0 -65 20 -119t64.5 -86.5t117.5 -32.5q48 0 84 16t60 38l44 222
h-158l6 26h188l-54 -262q-34 -30 -76.5 -48t-95.5 -18zM260 711l160 120h20l110 -120h-30l-90 90h-4l-132 -90h-34z" />
    <glyph glyph-name="uni1E20" unicode="&#x1e20;" horiz-adv-x="570" 
d="M288 -12q-78 0 -129 33.5t-76 91.5t-25 133q0 73 22 148t65 138t106 101.5t145 38.5q59 0 98 -28t58 -66l-22 -14q-19 36 -52.5 59t-83.5 23q-59 0 -107 -24t-85 -65.5t-62.5 -92.5t-38.5 -106t-13 -106q0 -65 20 -119t64.5 -86.5t117.5 -32.5q48 0 84 16t60 38l44 222
h-158l6 26h188l-54 -262q-34 -30 -76.5 -48t-95.5 -18zM300 748l6 26h230l-6 -26h-230z" />
    <glyph glyph-name="Gbreve" unicode="&#x11e;" horiz-adv-x="570" 
d="M288 -12q-78 0 -129 33.5t-76 91.5t-25 133q0 73 22 148t65 138t106 101.5t145 38.5q59 0 98 -28t58 -66l-22 -14q-19 36 -52.5 59t-83.5 23q-59 0 -107 -24t-85 -65.5t-62.5 -92.5t-38.5 -106t-13 -106q0 -65 20 -119t64.5 -86.5t117.5 -32.5q48 0 84 16t60 38l44 222
h-158l6 26h188l-54 -262q-34 -30 -76.5 -48t-95.5 -18zM408 712q-44 0 -67.5 19t-32 47t-8.5 56l26 4q0 -42 18.5 -71t69.5 -29q48 0 78.5 30.5t45.5 69.5l26 -4q-8 -27 -28 -55t-52 -47.5t-76 -19.5z" />
    <glyph glyph-name="Gdotaccent" unicode="&#x120;" horiz-adv-x="570" 
d="M288 -12q-78 0 -129 33.5t-76 91.5t-25 133q0 73 22 148t65 138t106 101.5t145 38.5q59 0 98 -28t58 -66l-22 -14q-19 36 -52.5 59t-83.5 23q-59 0 -107 -24t-85 -65.5t-62.5 -92.5t-38.5 -106t-13 -106q0 -65 20 -119t64.5 -86.5t117.5 -32.5q48 0 84 16t60 38l44 222
h-158l6 26h188l-54 -262q-34 -30 -76.5 -48t-95.5 -18zM414 726q-12 0 -20 8t-8 20q0 18 11.5 29t24.5 11q12 0 20 -8t8 -22q0 -16 -11 -27t-25 -11z" />
    <glyph glyph-name="Gcaron" unicode="&#x1e6;" horiz-adv-x="570" 
d="M288 -12q-78 0 -129 33.5t-76 91.5t-25 133q0 73 22 148t65 138t106 101.5t145 38.5q59 0 98 -28t58 -66l-22 -14q-19 36 -52.5 59t-83.5 23q-59 0 -107 -24t-85 -65.5t-62.5 -92.5t-38.5 -106t-13 -106q0 -65 20 -119t64.5 -86.5t117.5 -32.5q48 0 84 16t60 38l44 222
h-158l6 26h188l-54 -262q-34 -30 -76.5 -48t-95.5 -18zM394 712l-104 120h30l86 -90h4l136 90h34l-160 -120h-26z" />
    <glyph glyph-name="uni0122" unicode="&#x122;" horiz-adv-x="570" 
d="M288 -12q-78 0 -129 33.5t-76 91.5t-25 133q0 73 22 148t65 138t106 101.5t145 38.5q59 0 98 -28t58 -66l-22 -14q-19 36 -52.5 59t-83.5 23q-59 0 -107 -24t-85 -65.5t-62.5 -92.5t-38.5 -106t-13 -106q0 -65 20 -119t64.5 -86.5t117.5 -32.5q48 0 84 16t60 38l44 222
h-158l6 26h188l-54 -262q-34 -30 -76.5 -48t-95.5 -18zM170 -208l-2 24q62 2 93 18.5t31 41.5q0 23 -17 33t-51 13l10 24q36 -5 55 -13t26 -19.5t7 -29.5q0 -28 -19 -48.5t-53.5 -31.5t-79.5 -12z" />
    <glyph glyph-name="uni01E4" unicode="&#x1e4;" horiz-adv-x="610" 
d="M288 -12q-78 0 -129 33.5t-76 91.5t-25 133q0 73 22 148t65 138t106 101.5t145 38.5q59 0 98 -28t58 -66l-22 -14q-19 36 -52.5 59t-83.5 23q-59 0 -107 -24t-85 -65.5t-62.5 -92.5t-38.5 -106t-13 -106q0 -65 20 -119t64.5 -86.5t117.5 -32.5q48 0 84 16t60 38l50 248
h30l-54 -262q-34 -30 -76.5 -48t-95.5 -18zM300 190l6 22l158 4h102l-6 -26h-260z" />
    <glyph glyph-name="uni00470303" horiz-adv-x="570" 
d="M288 -12q-78 0 -129 33.5t-76 91.5t-25 133q0 73 22 148t65 138t106 101.5t145 38.5q59 0 98 -28t58 -66l-22 -14q-19 36 -52.5 59t-83.5 23q-59 0 -107 -24t-85 -65.5t-62.5 -92.5t-38.5 -106t-13 -106q0 -65 20 -119t64.5 -86.5t117.5 -32.5q48 0 84 16t60 38l44 222
h-158l6 26h188l-54 -262q-34 -30 -76.5 -48t-95.5 -18zM486 722q-25 0 -42 12.5t-30 29.5t-27.5 29.5t-34.5 12.5q-23 0 -42 -22.5t-30 -59.5l-22 2q8 45 34.5 75.5t65.5 30.5q26 0 42.5 -12.5t29.5 -29.5t27 -29.5t35 -12.5q23 0 41.5 22.5t30.5 59.5l22 -2
q-7 -45 -34 -75.5t-66 -30.5z" />
    <glyph glyph-name="uni0193" unicode="&#x193;" horiz-adv-x="570" 
d="M288 -12q-78 0 -129 33.5t-76 91.5t-25 133q0 73 22 148t65 138t106 101.5t145 38.5q45 0 78.5 -17t61.5 -49l-16 -8q-7 39 -9.5 57t-2.5 37q0 28 10 50t29.5 35t48.5 13q14 0 27 -5t23 -13l-12 -20q-9 6 -17 9t-23 3q-28 0 -44 -21.5t-16 -56.5q0 -24 3 -49.5t15 -58.5
l-22 -14q-19 36 -52.5 59t-83.5 23q-59 0 -107 -24t-85 -65.5t-62.5 -92.5t-38.5 -106t-13 -106q0 -65 20 -119t64.5 -86.5t117.5 -32.5q48 0 84 16t60 38l44 222h-158l6 26h188l-54 -262q-34 -30 -76.5 -48t-95.5 -18z" />
    <glyph glyph-name="Hcircumflex" unicode="&#x124;" horiz-adv-x="598" 
d="M40 0l132 660h30l-60 -296h356l60 296h30l-132 -660h-30l68 338h-356l-68 -338h-30zM242 711l160 120h20l110 -120h-30l-90 90h-4l-132 -90h-34z" />
    <glyph glyph-name="uni1E26" unicode="&#x1e26;" horiz-adv-x="598" 
d="M40 0l132 660h30l-60 -296h356l60 296h30l-132 -660h-30l68 338h-356l-68 -338h-30zM306 725q-12 0 -19 7t-7 19q0 17 10 27.5t22 10.5t19 -7t7 -21q0 -15 -10 -25.5t-22 -10.5zM488 725q-12 0 -19 7t-7 19q0 17 10 27.5t22 10.5t19 -7t7 -21q0 -15 -10 -25.5t-22 -10.5z
" />
    <glyph glyph-name="uni1E22" unicode="&#x1e22;" horiz-adv-x="598" 
d="M40 0l132 660h30l-60 -296h356l60 296h30l-132 -660h-30l68 338h-356l-68 -338h-30zM396 725q-12 0 -20 8t-8 20q0 18 11.5 29t24.5 11q12 0 20 -8t8 -22q0 -16 -11 -27t-25 -11z" />
    <glyph glyph-name="uni021E" unicode="&#x21e;" horiz-adv-x="598" 
d="M40 0l132 660h30l-60 -296h356l60 296h30l-132 -660h-30l68 338h-356l-68 -338h-30zM376 711l-104 120h30l86 -90h4l136 90h34l-160 -120h-26z" />
    <glyph glyph-name="uni1E24" unicode="&#x1e24;" horiz-adv-x="598" 
d="M40 0l132 660h30l-60 -296h356l60 296h30l-132 -660h-30l68 338h-356l-68 -338h-30zM236 -192q-12 0 -20 8t-8 20q0 18 11.5 29t24.5 11q12 0 20 -8t8 -22q0 -16 -11 -27t-25 -11z" />
    <glyph glyph-name="uni1E28" unicode="&#x1e28;" horiz-adv-x="598" 
d="M40 0l132 660h30l-60 -296h356l60 296h30l-132 -660h-30l68 338h-356l-68 -338h-30zM-68 -216l-2 24q62 2 93 18.5t31 41.5q0 23 -17 33t-51 13l56 88h28l-42 -70q35 -9 45.5 -22t10.5 -34q0 -43 -42 -66.5t-110 -25.5z" />
    <glyph glyph-name="uni1E2A" unicode="&#x1e2a;" horiz-adv-x="598" 
d="M40 0l132 660h30l-60 -296h356l60 296h30l-132 -660h-30l68 338h-356l-68 -338h-30zM224 -212q-49 0 -74.5 22.5t-34.5 56.5t-9 67l26 2q0 -30 8.5 -58t29.5 -46t60 -18q37 0 65.5 19t48 47.5t28.5 57.5l26 -4q-9 -31 -30.5 -65t-57 -57.5t-86.5 -23.5z" />
    <glyph glyph-name="uni1E96.c" horiz-adv-x="598" 
d="M40 0l132 660h30l-60 -296h356l60 296h30l-132 -660h-30l68 338h-356l-68 -338h-30zM126 -152l4 26h232l-4 -26h-232z" />
    <glyph glyph-name="Hbar" unicode="&#x126;" horiz-adv-x="638" 
d="M80 496l6 24l80 2h494l-6 -26h-574zM60 0l132 660h30l-60 -296h356l60 296h30l-132 -660h-30l68 338h-356l-68 -338h-30z" />
    <glyph glyph-name="Igrave" unicode="&#xcc;" horiz-adv-x="212" 
d="M40 0l132 660h30l-132 -660h-30zM240 710l-140 116l2 4h42l126 -120h-30z" />
    <glyph glyph-name="Iacute" unicode="&#xcd;" horiz-adv-x="212" 
d="M40 0l132 660h30l-132 -660h-30zM120 710l160 120h48l2 -4l-176 -116h-34z" />
    <glyph glyph-name="Icircumflex" unicode="&#xce;" horiz-adv-x="212" 
d="M40 0l132 660h30l-132 -660h-30zM50 712l160 120h20l110 -120h-30l-90 90h-4l-132 -90h-34z" />
    <glyph glyph-name="Itilde" unicode="&#x128;" horiz-adv-x="212" 
d="M40 0l132 660h30l-132 -660h-30zM276 722q-25 0 -42 12.5t-30 29.5t-27.5 29.5t-34.5 12.5q-23 0 -42 -22.5t-30 -59.5l-22 2q8 45 34.5 75.5t65.5 30.5q26 0 42.5 -12.5t29.5 -29.5t27 -29.5t35 -12.5q23 0 41.5 22.5t30.5 59.5l22 -2q-7 -45 -34 -75.5t-66 -30.5z" />
    <glyph glyph-name="Idieresis" unicode="&#xcf;" horiz-adv-x="212" 
d="M40 0l132 660h30l-132 -660h-30zM114 726q-12 0 -19 7t-7 19q0 17 10 27.5t22 10.5t19 -7t7 -21q0 -15 -10 -25.5t-22 -10.5zM296 726q-12 0 -19 7t-7 19q0 17 10 27.5t22 10.5t19 -7t7 -21q0 -15 -10 -25.5t-22 -10.5z" />
    <glyph glyph-name="Imacron" unicode="&#x12a;" horiz-adv-x="212" 
d="M40 0l132 660h30l-132 -660h-30zM90 748l6 26h230l-6 -26h-230z" />
    <glyph glyph-name="Ibreve" unicode="&#x12c;" horiz-adv-x="212" 
d="M40 0l132 660h30l-132 -660h-30zM198 712q-44 0 -67.5 19t-32 47t-8.5 56l26 4q0 -42 18.5 -71t69.5 -29q48 0 78.5 30.5t45.5 69.5l26 -4q-8 -27 -28 -55t-52 -47.5t-76 -19.5z" />
    <glyph glyph-name="Idotaccent" unicode="&#x130;" horiz-adv-x="212" 
d="M40 0l132 660h30l-132 -660h-30zM204 726q-12 0 -20 8t-8 20q0 18 11.5 29t24.5 11q12 0 20 -8t8 -22q0 -16 -11 -27t-25 -11z" />
    <glyph glyph-name="uni01CF" unicode="&#x1cf;" horiz-adv-x="212" 
d="M40 0l132 660h30l-132 -660h-30zM184 712l-104 120h30l86 -90h4l136 90h34l-160 -120h-26z" />
    <glyph glyph-name="uni0208" unicode="&#x208;" horiz-adv-x="212" 
d="M40 0l132 660h30l-132 -660h-30zM106 710l-116 116l2 4h46l102 -120h-34zM286 710l-116 116l2 4h46l102 -120h-34z" />
    <glyph glyph-name="Iogonek" unicode="&#x12e;" horiz-adv-x="212" 
d="M22 -214q-31 0 -52.5 16.5t-21.5 49.5q0 29 15 57t37 51.5t42 39.5h-2l132 660h30l-132 -660q-33 -30 -62.5 -66.5t-29.5 -75.5q0 -21 13.5 -33.5t34.5 -12.5q26 0 56 22l12 -16q-18 -16 -35 -24t-37 -8z" />
    <glyph glyph-name="uni1EC8" unicode="&#x1ec8;" horiz-adv-x="212" 
d="M40 0l132 660h30l-132 -660h-30zM160 708l-4 22q78 21 78 68q0 22 -21 32.5t-57 11.5l6 24q27 -1 49.5 -7t36.5 -19.5t14 -35.5q0 -33 -26 -57.5t-76 -38.5z" />
    <glyph glyph-name="uni1ECA" unicode="&#x1eca;" horiz-adv-x="212" 
d="M40 0l132 660h30l-132 -660h-30zM14 -200q-12 0 -20 8t-8 20q0 18 11.5 29t24.5 11q12 0 20 -8t8 -22q0 -16 -11 -27t-25 -11z" />
    <glyph glyph-name="uni0197" unicode="&#x197;" horiz-adv-x="252" 
d="M48 338l6 22l80 4h108l-6 -26h-188zM60 0l132 660h30l-132 -660h-30z" />
    <glyph glyph-name="IJ" unicode="&#x132;" horiz-adv-x="424" 
d="M166 -150q-16 0 -29.5 3.5t-28.5 12.5l12 24q14 -7 23.5 -9.5t24.5 -2.5q30 0 50.5 28t29.5 74l136 680h30l-134 -672q-9 -44 -24 -75t-37 -47t-53 -16zM40 0l132 660h30l-132 -660h-30z" />
    <glyph glyph-name="Jcircumflex" unicode="&#x134;" horiz-adv-x="428" 
d="M146 -12q-60 0 -94.5 28t-49.5 74l22 10q17 -43 46.5 -64.5t77.5 -21.5q59 0 96 43.5t50 112.5l98 490h30l-98 -492q-10 -55 -34 -95.5t-60.5 -62.5t-83.5 -22zM276 711l160 120h20l110 -120h-30l-90 90h-4l-132 -90h-34z" />
    <glyph glyph-name="uni004A030C" horiz-adv-x="428" 
d="M146 -12q-60 0 -94.5 28t-49.5 74l22 10q17 -43 46.5 -64.5t77.5 -21.5q59 0 96 43.5t50 112.5l98 490h30l-98 -492q-10 -55 -34 -95.5t-60.5 -62.5t-83.5 -22zM410 711l-104 120h30l86 -90h4l136 90h34l-160 -120h-26z" />
    <glyph glyph-name="uni0248" unicode="&#x248;" horiz-adv-x="450" 
d="M194 338l6 22l134 4h102l-6 -26h-236zM146 -12q-60 0 -94.5 28t-49.5 74l22 10q17 -43 46.5 -64.5t77.5 -21.5q59 0 96 43.5t50 112.5l98 490h30l-98 -492q-10 -55 -34 -95.5t-60.5 -62.5t-83.5 -22z" />
    <glyph glyph-name="uni0136" unicode="&#x136;" horiz-adv-x="522" 
d="M40 0l132 660h30l-74 -370h2l396 370h38l-252 -238l152 -422h-32l-144 402l-168 -158l-50 -244h-30zM146 -208l-2 24q62 2 93 18.5t31 41.5q0 23 -17 33t-51 13l10 24q36 -5 55 -13t26 -19.5t7 -29.5q0 -28 -19 -48.5t-53.5 -31.5t-79.5 -12z" />
    <glyph glyph-name="uni1E32" unicode="&#x1e32;" horiz-adv-x="522" 
d="M40 0l132 660h30l-74 -370h2l396 370h38l-252 -238l152 -422h-32l-144 402l-168 -158l-50 -244h-30zM232 -192q-12 0 -20 8t-8 20q0 18 11.5 29t24.5 11q12 0 20 -8t8 -22q0 -16 -11 -27t-25 -11z" />
    <glyph glyph-name="uni1E34" unicode="&#x1e34;" horiz-adv-x="522" 
d="M40 0l132 660h30l-74 -370h2l396 370h38l-252 -238l152 -422h-32l-144 402l-168 -158l-50 -244h-30zM122 -152l4 26h232l-4 -26h-232z" />
    <glyph glyph-name="Lacute" unicode="&#x139;" horiz-adv-x="432" 
d="M40 0l132 660h30l-126 -634h300l-6 -26h-330zM126 710l160 120h48l2 -4l-176 -116h-34z" />
    <glyph glyph-name="Lcaron" unicode="&#x13d;" horiz-adv-x="432" 
d="M40 0l132 660h30l-126 -634h300l-6 -26h-330zM353 516l40 204h28l-8 -48l-38 -156h-22z" />
    <glyph glyph-name="uni013B" unicode="&#x13b;" horiz-adv-x="432" 
d="M40 0l132 660h30l-126 -634h300l-6 -26h-330zM102 -208l-2 24q62 2 93 18.5t31 41.5q0 23 -17 33t-51 13l10 24q36 -5 55 -13t26 -19.5t7 -29.5q0 -28 -19 -48.5t-53.5 -31.5t-79.5 -12z" />
    <glyph glyph-name="uni1E36" unicode="&#x1e36;" horiz-adv-x="432" 
d="M40 0l132 660h30l-126 -634h300l-6 -26h-330zM188 -192q-12 0 -20 8t-8 20q0 18 11.5 29t24.5 11q12 0 20 -8t8 -22q0 -16 -11 -27t-25 -11z" />
    <glyph glyph-name="uni1E38" unicode="&#x1e38;" horiz-adv-x="432" 
d="M40 0l132 660h30l-126 -634h300l-6 -26h-330zM96 748l6 26h230l-6 -26h-230zM188 -192q-12 0 -20 8t-8 20q0 18 11.5 29t24.5 11q12 0 20 -8t8 -22q0 -16 -11 -27t-25 -11z" />
    <glyph glyph-name="uni1E3A" unicode="&#x1e3a;" horiz-adv-x="432" 
d="M40 0l132 660h30l-126 -634h300l-6 -26h-330zM78 -152l4 26h232l-4 -26h-232z" />
    <glyph glyph-name="Lslash" unicode="&#x141;" horiz-adv-x="442" 
d="M8 238l-10 24l118 46l14 4l214 86l10 -24l-230 -92l-14 -4zM50 0l132 660h30l-126 -634h300l-6 -26h-330z" />
    <glyph glyph-name="uni023D" unicode="&#x23d;" horiz-adv-x="452" 
d="M48 338l6 22l80 4h220l-6 -26h-300zM60 0l132 660h30l-126 -634h300l-6 -26h-330z" />
    <glyph glyph-name="uni2C60" unicode="&#x2c60;" horiz-adv-x="452" 
d="M40 282l6 22l78 4h220l-6 -26h-298zM60 392l6 22l78 4h222l-6 -26h-300zM60 0l132 660h30l-126 -634h300l-6 -26h-330z" />
    <glyph glyph-name="uni2C62" unicode="&#x2c62;" horiz-adv-x="492" 
d="M328 296q-38 0 -63 15.5t-45 35.5t-42.5 35.5t-57.5 15.5q-28 0 -45.5 -29t-26.5 -71l-22 6q6 29 17.5 56t31 44.5t49.5 17.5q38 0 63 -15.5t45 -35.5t43 -35.5t57 -15.5q29 0 46 30t26 70l22 -6q-6 -28 -17.5 -55t-31 -45t-49.5 -18zM100 0l132 660h30l-126 -634h300
l-6 -26h-330z" />
    <glyph glyph-name="uniA7AD" unicode="&#xa7ad;" horiz-adv-x="456" 
d="M116 276q-54 0 -80 20.5t-26 51.5q0 18 7.5 32.5t21.5 23t33 8.5q34 0 50 -19.5t21 -45t5 -43.5l-20 8q0 28 -11 51t-43 23q-19 0 -28.5 -11t-9.5 -29q0 -21 19 -32.5t55 -11.5h200l-6 -26h-188zM64 0l132 660h30l-126 -634h300l-6 -26h-330z" />
    <glyph glyph-name="Ldot" unicode="&#x13f;" horiz-adv-x="432" 
d="M40 0l132 660h30l-126 -634h300l-6 -26h-330zM338 292q-13 0 -20.5 9t-7.5 21q0 11 6 21.5t15.5 17.5t20.5 7q14 0 20 -9t6 -23q0 -11 -5.5 -21t-14.5 -16.5t-20 -6.5z" />
    <glyph glyph-name="uni1E3E" unicode="&#x1e3e;" horiz-adv-x="676" 
d="M40 0l132 660h50l66 -398q6 -37 12.5 -74.5t13.5 -75.5h4q20 38 38.5 75.5t39.5 74.5l220 398h50l-132 -660h-30l92 460q6 27 12.5 57t13 59.5t12.5 55.5h-4l-78 -142l-226 -414h-34l-72 414l-24 142h-4q-5 -27 -10 -56.5l-10 -59t-10 -56.5l-92 -460h-30zM344 710
l160 120h48l2 -4l-176 -116h-34z" />
    <glyph glyph-name="uni1E40" unicode="&#x1e40;" horiz-adv-x="676" 
d="M40 0l132 660h50l66 -398q6 -37 12.5 -74.5t13.5 -75.5h4q20 38 38.5 75.5t39.5 74.5l220 398h50l-132 -660h-30l92 460q6 27 12.5 57t13 59.5t12.5 55.5h-4l-78 -142l-226 -414h-34l-72 414l-24 142h-4q-5 -27 -10 -56.5l-10 -59t-10 -56.5l-92 -460h-30zM428 726
q-12 0 -20 8t-8 20q0 18 11.5 29t24.5 11q12 0 20 -8t8 -22q0 -16 -11 -27t-25 -11z" />
    <glyph glyph-name="uni1E42" unicode="&#x1e42;" horiz-adv-x="676" 
d="M40 0l132 660h50l66 -398q6 -37 12.5 -74.5t13.5 -75.5h4q20 38 38.5 75.5t39.5 74.5l220 398h50l-132 -660h-30l92 460q6 27 12.5 57t13 59.5t12.5 55.5h-4l-78 -142l-226 -414h-34l-72 414l-24 142h-4q-5 -27 -10 -56.5l-10 -59t-10 -56.5l-92 -460h-30zM268 -200
q-12 0 -20 8t-8 20q0 18 11.5 29t24.5 11q12 0 20 -8t8 -22q0 -16 -11 -27t-25 -11z" />
    <glyph glyph-name="uni01F8" unicode="&#x1f8;" horiz-adv-x="600" 
d="M40 0l132 660h34l180 -478q8 -21 16.5 -43.5t17 -46t16.5 -46.5h4q8 48 16.5 93.5t17.5 90.5l86 430h30l-132 -660h-32l-182 484q-12 32 -25 67t-25 69h-4q-7 -48 -16 -93.5t-18 -90.5l-86 -436h-30zM440 710l-140 116l2 4h42l126 -120h-30z" />
    <glyph glyph-name="Nacute" unicode="&#x143;" horiz-adv-x="600" 
d="M40 0l132 660h34l180 -478q8 -21 16.5 -43.5t17 -46t16.5 -46.5h4q8 48 16.5 93.5t17.5 90.5l86 430h30l-132 -660h-32l-182 484q-12 32 -25 67t-25 69h-4q-7 -48 -16 -93.5t-18 -90.5l-86 -436h-30zM320 710l160 120h48l2 -4l-176 -116h-34z" />
    <glyph glyph-name="Ncaron" unicode="&#x147;" horiz-adv-x="600" 
d="M40 0l132 660h34l180 -478q8 -21 16.5 -43.5t17 -46t16.5 -46.5h4q8 48 16.5 93.5t17.5 90.5l86 430h30l-132 -660h-32l-182 484q-12 32 -25 67t-25 69h-4q-7 -48 -16 -93.5t-18 -90.5l-86 -436h-30zM384 712l-104 120h30l86 -90h4l136 90h34l-160 -120h-26z" />
    <glyph glyph-name="Ntilde" unicode="&#xd1;" horiz-adv-x="600" 
d="M40 0l132 660h34l180 -478q8 -21 16.5 -43.5t17 -46t16.5 -46.5h4q8 48 16.5 93.5t17.5 90.5l86 430h30l-132 -660h-32l-182 484q-12 32 -25 67t-25 69h-4q-7 -48 -16 -93.5t-18 -90.5l-86 -436h-30zM476 722q-25 0 -42 12.5t-30 29.5t-27.5 29.5t-34.5 12.5
q-23 0 -42 -22.5t-30 -59.5l-22 2q8 45 34.5 75.5t65.5 30.5q26 0 42.5 -12.5t29.5 -29.5t27 -29.5t35 -12.5q23 0 41.5 22.5t30.5 59.5l22 -2q-7 -45 -34 -75.5t-66 -30.5z" />
    <glyph glyph-name="uni1E44" unicode="&#x1e44;" horiz-adv-x="600" 
d="M40 0l132 660h34l180 -478q8 -21 16.5 -43.5t17 -46t16.5 -46.5h4q8 48 16.5 93.5t17.5 90.5l86 430h30l-132 -660h-32l-182 484q-12 32 -25 67t-25 69h-4q-7 -48 -16 -93.5t-18 -90.5l-86 -436h-30zM404 726q-12 0 -20 8t-8 20q0 18 11.5 29t24.5 11q12 0 20 -8t8 -22
q0 -16 -11 -27t-25 -11z" />
    <glyph glyph-name="uni0145" unicode="&#x145;" horiz-adv-x="600" 
d="M40 0l132 660h34l180 -478q8 -21 16.5 -43.5t17 -46t16.5 -46.5h4q8 48 16.5 93.5t17.5 90.5l86 430h30l-132 -660h-32l-182 484q-12 32 -25 67t-25 69h-4q-7 -48 -16 -93.5t-18 -90.5l-86 -436h-30zM140 -216l-2 24q62 2 93 18.5t31 41.5q0 23 -17 33t-51 13l10 24
q36 -5 55 -13t26 -19.5t7 -29.5q0 -28 -19 -48.5t-53.5 -31.5t-79.5 -12z" />
    <glyph glyph-name="uni1E46" unicode="&#x1e46;" horiz-adv-x="600" 
d="M40 0l132 660h34l180 -478q8 -21 16.5 -43.5t17 -46t16.5 -46.5h4q8 48 16.5 93.5t17.5 90.5l86 430h30l-132 -660h-32l-182 484q-12 32 -25 67t-25 69h-4q-7 -48 -16 -93.5t-18 -90.5l-86 -436h-30zM226 -200q-12 0 -20 8t-8 20q0 18 11.5 29t24.5 11q12 0 20 -8t8 -22
q0 -16 -11 -27t-25 -11z" />
    <glyph glyph-name="uni1E48" unicode="&#x1e48;" horiz-adv-x="600" 
d="M40 0l132 660h34l180 -478q8 -21 16.5 -43.5t17 -46t16.5 -46.5h4q8 48 16.5 93.5t17.5 90.5l86 430h30l-132 -660h-32l-182 484q-12 32 -25 67t-25 69h-4q-7 -48 -16 -93.5t-18 -90.5l-86 -436h-30zM116 -160l4 26h232l-4 -26h-232z" />
    <glyph glyph-name="Eng" unicode="&#x14a;" horiz-adv-x="584" 
d="M330 -12q-18 0 -37 4.5t-33 13.5l12 22q14 -7 29 -10.5t31 -3.5q40 0 75.5 38.5t62.5 102.5t42.5 141t15.5 154q0 74 -18.5 116.5t-50.5 61t-73 18.5q-43 0 -100 -30t-110 -84l-106 -532h-30l132 660h28l-16 -88q27 27 62 50t72 36.5t70 13.5q49 0 87.5 -22t60.5 -69.5
t22 -124.5q0 -87 -17 -170.5t-47.5 -150.5t-72 -107t-91.5 -40z" />
    <glyph glyph-name="uni0220" unicode="&#x220;" horiz-adv-x="594" 
d="M388 -188l116 576q6 32 10 61t4 53q0 80 -38.5 112t-101.5 32q-37 0 -92.5 -26t-109.5 -88l-106 -532h-30l132 660h28l-16 -88q42 47 97.5 73.5t98.5 26.5q77 0 122.5 -39.5t45.5 -126.5q0 -25 -4 -55.5t-10 -62.5l-116 -576h-30z" />
    <glyph glyph-name="Ograve" unicode="&#xd2;" horiz-adv-x="612" 
d="M274 -12q-72 0 -119 35t-70 97t-23 142q0 53 13 110t39 110.5t63.5 96t86.5 68t108 25.5q72 0 119 -35t70 -97t23 -142q0 -53 -13 -110t-39 -110.5t-63.5 -96t-86.5 -68t-108 -25.5zM276 14q54 0 98 24t77.5 64.5t56.5 90.5t34.5 102t11.5 99q0 74 -19 131t-59.5 89
t-105.5 32q-54 0 -98 -24t-77.5 -64.5t-56.5 -90.5t-34.5 -102t-11.5 -99q0 -74 19 -131t59.5 -89t105.5 -32zM450 710l-140 116l2 4h42l126 -120h-30z" />
    <glyph glyph-name="Oacute" unicode="&#xd3;" horiz-adv-x="612" 
d="M274 -12q-72 0 -119 35t-70 97t-23 142q0 53 13 110t39 110.5t63.5 96t86.5 68t108 25.5q72 0 119 -35t70 -97t23 -142q0 -53 -13 -110t-39 -110.5t-63.5 -96t-86.5 -68t-108 -25.5zM276 14q54 0 98 24t77.5 64.5t56.5 90.5t34.5 102t11.5 99q0 74 -19 131t-59.5 89
t-105.5 32q-54 0 -98 -24t-77.5 -64.5t-56.5 -90.5t-34.5 -102t-11.5 -99q0 -74 19 -131t59.5 -89t105.5 -32zM330 710l160 120h48l2 -4l-176 -116h-34z" />
    <glyph glyph-name="Ocircumflex" unicode="&#xd4;" horiz-adv-x="612" 
d="M274 -12q-72 0 -119 35t-70 97t-23 142q0 53 13 110t39 110.5t63.5 96t86.5 68t108 25.5q72 0 119 -35t70 -97t23 -142q0 -53 -13 -110t-39 -110.5t-63.5 -96t-86.5 -68t-108 -25.5zM276 14q54 0 98 24t77.5 64.5t56.5 90.5t34.5 102t11.5 99q0 74 -19 131t-59.5 89
t-105.5 32q-54 0 -98 -24t-77.5 -64.5t-56.5 -90.5t-34.5 -102t-11.5 -99q0 -74 19 -131t59.5 -89t105.5 -32zM260 712l160 120h20l110 -120h-30l-90 90h-4l-132 -90h-34z" />
    <glyph glyph-name="Otilde" unicode="&#xd5;" horiz-adv-x="612" 
d="M274 -12q-72 0 -119 35t-70 97t-23 142q0 53 13 110t39 110.5t63.5 96t86.5 68t108 25.5q72 0 119 -35t70 -97t23 -142q0 -53 -13 -110t-39 -110.5t-63.5 -96t-86.5 -68t-108 -25.5zM276 14q54 0 98 24t77.5 64.5t56.5 90.5t34.5 102t11.5 99q0 74 -19 131t-59.5 89
t-105.5 32q-54 0 -98 -24t-77.5 -64.5t-56.5 -90.5t-34.5 -102t-11.5 -99q0 -74 19 -131t59.5 -89t105.5 -32zM486 722q-25 0 -42 12.5t-30 29.5t-27.5 29.5t-34.5 12.5q-23 0 -42 -22.5t-30 -59.5l-22 2q8 45 34.5 75.5t65.5 30.5q26 0 42.5 -12.5t29.5 -29.5t27 -29.5
t35 -12.5q23 0 41.5 22.5t30.5 59.5l22 -2q-7 -45 -34 -75.5t-66 -30.5z" />
    <glyph glyph-name="Odieresis" unicode="&#xd6;" horiz-adv-x="612" 
d="M274 -12q-72 0 -119 35t-70 97t-23 142q0 53 13 110t39 110.5t63.5 96t86.5 68t108 25.5q72 0 119 -35t70 -97t23 -142q0 -53 -13 -110t-39 -110.5t-63.5 -96t-86.5 -68t-108 -25.5zM276 14q54 0 98 24t77.5 64.5t56.5 90.5t34.5 102t11.5 99q0 74 -19 131t-59.5 89
t-105.5 32q-54 0 -98 -24t-77.5 -64.5t-56.5 -90.5t-34.5 -102t-11.5 -99q0 -74 19 -131t59.5 -89t105.5 -32zM324 726q-12 0 -19 7t-7 19q0 17 10 27.5t22 10.5t19 -7t7 -21q0 -15 -10 -25.5t-22 -10.5zM506 726q-12 0 -19 7t-7 19q0 17 10 27.5t22 10.5t19 -7t7 -21
q0 -15 -10 -25.5t-22 -10.5z" />
    <glyph glyph-name="Omacron" unicode="&#x14c;" horiz-adv-x="612" 
d="M274 -12q-72 0 -119 35t-70 97t-23 142q0 53 13 110t39 110.5t63.5 96t86.5 68t108 25.5q72 0 119 -35t70 -97t23 -142q0 -53 -13 -110t-39 -110.5t-63.5 -96t-86.5 -68t-108 -25.5zM276 14q54 0 98 24t77.5 64.5t56.5 90.5t34.5 102t11.5 99q0 74 -19 131t-59.5 89
t-105.5 32q-54 0 -98 -24t-77.5 -64.5t-56.5 -90.5t-34.5 -102t-11.5 -99q0 -74 19 -131t59.5 -89t105.5 -32zM300 748l6 26h230l-6 -26h-230z" />
    <glyph glyph-name="Obreve" unicode="&#x14e;" horiz-adv-x="612" 
d="M274 -12q-72 0 -119 35t-70 97t-23 142q0 53 13 110t39 110.5t63.5 96t86.5 68t108 25.5q72 0 119 -35t70 -97t23 -142q0 -53 -13 -110t-39 -110.5t-63.5 -96t-86.5 -68t-108 -25.5zM276 14q54 0 98 24t77.5 64.5t56.5 90.5t34.5 102t11.5 99q0 74 -19 131t-59.5 89
t-105.5 32q-54 0 -98 -24t-77.5 -64.5t-56.5 -90.5t-34.5 -102t-11.5 -99q0 -74 19 -131t59.5 -89t105.5 -32zM408 712q-44 0 -67.5 19t-32 47t-8.5 56l26 4q0 -42 18.5 -71t69.5 -29q48 0 78.5 30.5t45.5 69.5l26 -4q-8 -27 -28 -55t-52 -47.5t-76 -19.5z" />
    <glyph glyph-name="Ohungarumlaut" unicode="&#x150;" horiz-adv-x="612" 
d="M274 -12q-72 0 -119 35t-70 97t-23 142q0 53 13 110t39 110.5t63.5 96t86.5 68t108 25.5q72 0 119 -35t70 -97t23 -142q0 -53 -13 -110t-39 -110.5t-63.5 -96t-86.5 -68t-108 -25.5zM276 14q54 0 98 24t77.5 64.5t56.5 90.5t34.5 102t11.5 99q0 74 -19 131t-59.5 89
t-105.5 32q-54 0 -98 -24t-77.5 -64.5t-56.5 -90.5t-34.5 -102t-11.5 -99q0 -74 19 -131t59.5 -89t105.5 -32zM290 710l142 120h46l2 -4l-156 -116h-34zM470 710l142 120h46l2 -4l-156 -116h-34z" />
    <glyph glyph-name="uni01D1" unicode="&#x1d1;" horiz-adv-x="612" 
d="M274 -12q-72 0 -119 35t-70 97t-23 142q0 53 13 110t39 110.5t63.5 96t86.5 68t108 25.5q72 0 119 -35t70 -97t23 -142q0 -53 -13 -110t-39 -110.5t-63.5 -96t-86.5 -68t-108 -25.5zM276 14q54 0 98 24t77.5 64.5t56.5 90.5t34.5 102t11.5 99q0 74 -19 131t-59.5 89
t-105.5 32q-54 0 -98 -24t-77.5 -64.5t-56.5 -90.5t-34.5 -102t-11.5 -99q0 -74 19 -131t59.5 -89t105.5 -32zM394 712l-104 120h30l86 -90h4l136 90h34l-160 -120h-26z" />
    <glyph glyph-name="uni020C" unicode="&#x20c;" horiz-adv-x="612" 
d="M274 -12q-72 0 -119 35t-70 97t-23 142q0 53 13 110t39 110.5t63.5 96t86.5 68t108 25.5q72 0 119 -35t70 -97t23 -142q0 -53 -13 -110t-39 -110.5t-63.5 -96t-86.5 -68t-108 -25.5zM276 14q54 0 98 24t77.5 64.5t56.5 90.5t34.5 102t11.5 99q0 74 -19 131t-59.5 89
t-105.5 32q-54 0 -98 -24t-77.5 -64.5t-56.5 -90.5t-34.5 -102t-11.5 -99q0 -74 19 -131t59.5 -89t105.5 -32zM316 710l-116 116l2 4h46l102 -120h-34zM496 710l-116 116l2 4h46l102 -120h-34z" />
    <glyph glyph-name="uni01EA" unicode="&#x1ea;" horiz-adv-x="612" 
d="M222 -214q-31 0 -52.5 16.5t-21.5 49.5q0 27 13.5 54.5t38 52t56.5 41.5l18 -12q-72 0 -119 35t-70 97t-23 142q0 53 13 110t39 110.5t63.5 96t86.5 68t108 25.5q72 0 119 -35t70 -97t23 -142q0 -60 -17.5 -127t-52.5 -127.5t-87 -102t-121 -51.5q-42 -6 -70.5 -29.5
t-43 -52t-14.5 -50.5q0 -21 13.5 -33.5t34.5 -12.5q26 0 56 22l12 -16q-18 -16 -35 -24t-37 -8zM276 14q54 0 98 24t77.5 64.5t56.5 90.5t34.5 102t11.5 99q0 74 -19 131t-59.5 89t-105.5 32q-54 0 -98 -24t-77.5 -64.5t-56.5 -90.5t-34.5 -102t-11.5 -99q0 -74 19 -131
t59.5 -89t105.5 -32z" />
    <glyph glyph-name="uni1ECC" unicode="&#x1ecc;" horiz-adv-x="612" 
d="M274 -12q-72 0 -119 35t-70 97t-23 142q0 53 13 110t39 110.5t63.5 96t86.5 68t108 25.5q72 0 119 -35t70 -97t23 -142q0 -53 -13 -110t-39 -110.5t-63.5 -96t-86.5 -68t-108 -25.5zM276 14q54 0 98 24t77.5 64.5t56.5 90.5t34.5 102t11.5 99q0 74 -19 131t-59.5 89
t-105.5 32q-54 0 -98 -24t-77.5 -64.5t-56.5 -90.5t-34.5 -102t-11.5 -99q0 -74 19 -131t59.5 -89t105.5 -32zM240 -192q-12 0 -20 8t-8 20q0 18 11.5 29t24.5 11q12 0 20 -8t8 -22q0 -16 -11 -27t-25 -11z" />
    <glyph glyph-name="uni1ECE" unicode="&#x1ece;" horiz-adv-x="612" 
d="M274 -12q-72 0 -119 35t-70 97t-23 142q0 53 13 110t39 110.5t63.5 96t86.5 68t108 25.5q72 0 119 -35t70 -97t23 -142q0 -53 -13 -110t-39 -110.5t-63.5 -96t-86.5 -68t-108 -25.5zM276 14q54 0 98 24t77.5 64.5t56.5 90.5t34.5 102t11.5 99q0 74 -19 131t-59.5 89
t-105.5 32q-54 0 -98 -24t-77.5 -64.5t-56.5 -90.5t-34.5 -102t-11.5 -99q0 -74 19 -131t59.5 -89t105.5 -32zM370 708l-4 22q78 21 78 68q0 22 -21 32.5t-57 11.5l6 24q27 -1 49.5 -7t36.5 -19.5t14 -35.5q0 -33 -26 -57.5t-76 -38.5z" />
    <glyph glyph-name="uni1ED0" unicode="&#x1ed0;" horiz-adv-x="612" 
d="M274 -12q-72 0 -119 35t-70 97t-23 142q0 53 13 110t39 110.5t63.5 96t86.5 68t108 25.5q72 0 119 -35t70 -97t23 -142q0 -53 -13 -110t-39 -110.5t-63.5 -96t-86.5 -68t-108 -25.5zM276 14q54 0 98 24t77.5 64.5t56.5 90.5t34.5 102t11.5 99q0 74 -19 131t-59.5 89
t-105.5 32q-54 0 -98 -24t-77.5 -64.5t-56.5 -90.5t-34.5 -102t-11.5 -99q0 -74 19 -131t59.5 -89t105.5 -32zM280 710l140 100h20l100 -100h-30l-80 70h-4l-112 -70h-34zM490 780l110 100h38l2 -4l-124 -96h-26z" />
    <glyph glyph-name="uni1ED2" unicode="&#x1ed2;" horiz-adv-x="612" 
d="M274 -12q-72 0 -119 35t-70 97t-23 142q0 53 13 110t39 110.5t63.5 96t86.5 68t108 25.5q72 0 119 -35t70 -97t23 -142q0 -53 -13 -110t-39 -110.5t-63.5 -96t-86.5 -68t-108 -25.5zM276 14q54 0 98 24t77.5 64.5t56.5 90.5t34.5 102t11.5 99q0 74 -19 131t-59.5 89
t-105.5 32q-54 0 -98 -24t-77.5 -64.5t-56.5 -90.5t-34.5 -102t-11.5 -99q0 -74 19 -131t59.5 -89t105.5 -32zM280 710l140 100h20l100 -100h-30l-80 70h-4l-112 -70h-34zM338 780l-88 96l2 4h32l76 -100h-22z" />
    <glyph glyph-name="uni1ED4" unicode="&#x1ed4;" horiz-adv-x="612" 
d="M274 -12q-72 0 -119 35t-70 97t-23 142q0 53 13 110t39 110.5t63.5 96t86.5 68t108 25.5q72 0 119 -35t70 -97t23 -142q0 -53 -13 -110t-39 -110.5t-63.5 -96t-86.5 -68t-108 -25.5zM276 14q54 0 98 24t77.5 64.5t56.5 90.5t34.5 102t11.5 99q0 74 -19 131t-59.5 89
t-105.5 32q-54 0 -98 -24t-77.5 -64.5t-56.5 -90.5t-34.5 -102t-11.5 -99q0 -74 19 -131t59.5 -89t105.5 -32zM280 710l140 100h20l100 -100h-30l-80 70h-4l-112 -70h-34zM519 780l-6 22q63 15 63 54q0 20 -19 27.5t-48 8.5l4 24q35 -1 63 -12.5t28 -41.5t-21 -50.5
t-64 -31.5z" />
    <glyph glyph-name="uni1ED6" unicode="&#x1ed6;" horiz-adv-x="612" 
d="M274 -12q-72 0 -119 35t-70 97t-23 142q0 53 13 110t39 110.5t63.5 96t86.5 68t108 25.5q72 0 119 -35t70 -97t23 -142q0 -53 -13 -110t-39 -110.5t-63.5 -96t-86.5 -68t-108 -25.5zM276 14q54 0 98 24t77.5 64.5t56.5 90.5t34.5 102t11.5 99q0 74 -19 131t-59.5 89
t-105.5 32q-54 0 -98 -24t-77.5 -64.5t-56.5 -90.5t-34.5 -102t-11.5 -99q0 -74 19 -131t59.5 -89t105.5 -32zM280 710l140 100h20l100 -100h-30l-80 70h-4l-112 -70h-34zM506 840q-29 0 -48.5 13.5t-38.5 27t-45 13.5q-21 0 -32.5 -14.5t-19.5 -37.5l-22 4q3 16 11.5 33
t25 29t43.5 12q29 0 48.5 -13.5t38.5 -27t45 -13.5q21 0 33 14.5t19 37.5l24 -4q-4 -16 -13 -33t-25.5 -29t-43.5 -12z" />
    <glyph glyph-name="uni1ED8" unicode="&#x1ed8;" horiz-adv-x="612" 
d="M274 -12q-72 0 -119 35t-70 97t-23 142q0 53 13 110t39 110.5t63.5 96t86.5 68t108 25.5q72 0 119 -35t70 -97t23 -142q0 -53 -13 -110t-39 -110.5t-63.5 -96t-86.5 -68t-108 -25.5zM276 14q54 0 98 24t77.5 64.5t56.5 90.5t34.5 102t11.5 99q0 74 -19 131t-59.5 89
t-105.5 32q-54 0 -98 -24t-77.5 -64.5t-56.5 -90.5t-34.5 -102t-11.5 -99q0 -74 19 -131t59.5 -89t105.5 -32zM260 711l160 120h20l110 -120h-30l-90 90h-4l-132 -90h-34zM240 -192q-12 0 -20 8t-8 20q0 18 11.5 29t24.5 11q12 0 20 -8t8 -22q0 -16 -11 -27t-25 -11z" />
    <glyph glyph-name="uni1E52" unicode="&#x1e52;" horiz-adv-x="612" 
d="M274 -12q-72 0 -119 35t-70 97t-23 142q0 53 13 110t39 110.5t63.5 96t86.5 68t108 25.5q72 0 119 -35t70 -97t23 -142q0 -53 -13 -110t-39 -110.5t-63.5 -96t-86.5 -68t-108 -25.5zM276 14q54 0 98 24t77.5 64.5t56.5 90.5t34.5 102t11.5 99q0 74 -19 131t-59.5 89
t-105.5 32q-54 0 -98 -24t-77.5 -64.5t-56.5 -90.5t-34.5 -102t-11.5 -99q0 -74 19 -131t59.5 -89t105.5 -32zM300 748l6 26h230l-6 -26h-230zM380 820l110 100h38l2 -4l-124 -96h-26z" />
    <glyph glyph-name="Oslash" unicode="&#xd8;" horiz-adv-x="612" 
d="M24 -22l-22 18l624 682l16 -18zM274 -12q-72 0 -119 35t-70 97t-23 142q0 53 13 110t39 110.5t63.5 96t86.5 68t108 25.5q72 0 119 -35t70 -97t23 -142q0 -53 -13 -110t-39 -110.5t-63.5 -96t-86.5 -68t-108 -25.5zM276 14q54 0 98 24t77.5 64.5t56.5 90.5t34.5 102
t11.5 99q0 74 -19 131t-59.5 89t-105.5 32q-54 0 -98 -24t-77.5 -64.5t-56.5 -90.5t-34.5 -102t-11.5 -99q0 -74 19 -131t59.5 -89t105.5 -32z" />
    <glyph glyph-name="Oslashacute" unicode="&#x1fe;" horiz-adv-x="612" 
d="M24 -22l-22 18l624 682l16 -18zM274 -12q-72 0 -119 35t-70 97t-23 142q0 53 13 110t39 110.5t63.5 96t86.5 68t108 25.5q72 0 119 -35t70 -97t23 -142q0 -53 -13 -110t-39 -110.5t-63.5 -96t-86.5 -68t-108 -25.5zM276 14q54 0 98 24t77.5 64.5t56.5 90.5t34.5 102
t11.5 99q0 74 -19 131t-59.5 89t-105.5 32q-54 0 -98 -24t-77.5 -64.5t-56.5 -90.5t-34.5 -102t-11.5 -99q0 -74 19 -131t59.5 -89t105.5 -32zM330 710l160 120h48l2 -4l-176 -116h-34z" />
    <glyph glyph-name="OE" unicode="&#x152;" horiz-adv-x="802" 
d="M332 0q-91 0 -151 32.5t-89.5 90t-29.5 133.5q0 84 22.5 157.5t66.5 128.5t110 86.5t153 31.5h418l-6 -26h-288l-54 -270h240l-6 -26h-238l-64 -312h298l-6 -26h-376zM334 26h54l122 608h-98q-77 0 -136.5 -30t-100.5 -83t-62 -120.5t-21 -142.5q0 -68 26.5 -120.5
t80 -82t135.5 -29.5z" />
    <glyph glyph-name="uni0245" unicode="&#x245;" horiz-adv-x="444" 
d="M-46 0l348 660h34l62 -660h-28l-36 400q-6 54 -11.5 110.5t-10.5 111.5h-4q-27 -54 -56 -111.5t-58 -110.5l-210 -400h-30z" />
    <glyph glyph-name="uni0186" unicode="&#x186;" horiz-adv-x="536" 
d="M194 -12q-63 0 -106 24.5t-72 69.5l20 16q29 -42 67.5 -63t92.5 -21q60 0 111.5 30.5t89.5 83t59.5 121.5t21.5 145q0 119 -44 185.5t-128 66.5q-45 0 -89 -20t-77 -52l-18 20q33 32 81 55t105 23q64 0 108.5 -32t68 -93t23.5 -149q0 -84 -23.5 -158t-65.5 -131
t-99.5 -89t-125.5 -32z" />
    <glyph glyph-name="uniA74E" unicode="&#xa74e;" horiz-adv-x="1026" 
d="M248 -12q-85 0 -135.5 64t-50.5 178q0 95 25 176t68 140.5t98.5 92.5t116.5 33q54 0 95.5 -25.5t65 -79t23.5 -137.5h-14q37 84 80.5 137.5t91.5 79t100 25.5q86 0 136 -64t50 -178q0 -95 -25 -176t-68 -140.5t-98.5 -92.5t-116.5 -33q-54 0 -95.5 25.5t-65 79
t-23.5 137.5h14q-37 -84 -80 -137.5t-91.5 -79t-100.5 -25.5zM250 14q52 0 101 32.5t88.5 90.5t63 135t23.5 166q0 95 -40 151.5t-118 56.5q-52 0 -101.5 -31.5t-89 -88.5t-62.5 -132t-23 -162q0 -99 40 -158.5t118 -59.5zM692 14q52 0 101.5 31.5t89 88.5t62.5 132t23 162
q0 99 -40 158.5t-118 59.5q-52 0 -101 -32.5t-88.5 -90.5t-63 -135t-23.5 -166q0 -94 40 -151t118 -57z" />
    <glyph glyph-name="uni0222" unicode="&#x222;" horiz-adv-x="646" 
d="M276 -12q-66 0 -117.5 19t-81 57.5t-29.5 95.5q0 56 24 98.5t63.5 71.5t87 45.5t93.5 20.5l-2 -17q-64 13 -99 53t-35 104q0 20 1 38.5t7 43.5l10 42h30l-8 -34q-6 -25 -8 -44.5t-2 -37.5q0 -78 43 -111t123 -33q44 0 81.5 15t66.5 56.5t46 122.5l14 66h30l-16 -74
q-15 -69 -38.5 -111t-58 -65t-83.5 -34l2 18q78 -15 125 -59t47 -125q0 -65 -39 -115t-110 -78.5t-167 -28.5zM278 14q83 0 147 25t100.5 69t36.5 100q0 55 -26.5 91t-70.5 54.5t-99 18.5q-84 0 -149 -26.5t-102 -74t-37 -109.5q0 -49 26.5 -82t72 -49.5t101.5 -16.5z" />
    <glyph glyph-name="Ohorn" unicode="&#x1a0;" horiz-adv-x="612" 
d="M501 620l-27 24q55 2 87.5 28t32.5 70q0 8 -0.5 17.5t-5.5 19.5l30 13q8 -23 8 -44q0 -39 -18 -65.5t-46.5 -41.5t-60.5 -21zM274 -12q-72 0 -119 35t-70 97t-23 142q0 53 13 110t39 110.5t63.5 96t86.5 68t108 25.5q72 0 119 -35t70 -97t23 -142q0 -53 -13 -110
t-39 -110.5t-63.5 -96t-86.5 -68t-108 -25.5zM276 14q54 0 98 24t77.5 64.5t56.5 90.5t34.5 102t11.5 99q0 74 -19 131t-59.5 89t-105.5 32q-54 0 -98 -24t-77.5 -64.5t-56.5 -90.5t-34.5 -102t-11.5 -99q0 -74 19 -131t59.5 -89t105.5 -32z" />
    <glyph glyph-name="uni1EDA" unicode="&#x1eda;" horiz-adv-x="612" 
d="M501 620l-27 24q55 2 87.5 28t32.5 70q0 8 -0.5 17.5t-5.5 19.5l30 13q8 -23 8 -44q0 -39 -18 -65.5t-46.5 -41.5t-60.5 -21zM274 -12q-72 0 -119 35t-70 97t-23 142q0 53 13 110t39 110.5t63.5 96t86.5 68t108 25.5q72 0 119 -35t70 -97t23 -142q0 -53 -13 -110
t-39 -110.5t-63.5 -96t-86.5 -68t-108 -25.5zM276 14q54 0 98 24t77.5 64.5t56.5 90.5t34.5 102t11.5 99q0 74 -19 131t-59.5 89t-105.5 32q-54 0 -98 -24t-77.5 -64.5t-56.5 -90.5t-34.5 -102t-11.5 -99q0 -74 19 -131t59.5 -89t105.5 -32zM328 710l160 120h48l2 -4
l-176 -116h-34z" />
    <glyph glyph-name="uni1EDC" unicode="&#x1edc;" horiz-adv-x="612" 
d="M501 620l-27 24q55 2 87.5 28t32.5 70q0 8 -0.5 17.5t-5.5 19.5l30 13q8 -23 8 -44q0 -39 -18 -65.5t-46.5 -41.5t-60.5 -21zM274 -12q-72 0 -119 35t-70 97t-23 142q0 53 13 110t39 110.5t63.5 96t86.5 68t108 25.5q72 0 119 -35t70 -97t23 -142q0 -53 -13 -110
t-39 -110.5t-63.5 -96t-86.5 -68t-108 -25.5zM276 14q54 0 98 24t77.5 64.5t56.5 90.5t34.5 102t11.5 99q0 74 -19 131t-59.5 89t-105.5 32q-54 0 -98 -24t-77.5 -64.5t-56.5 -90.5t-34.5 -102t-11.5 -99q0 -74 19 -131t59.5 -89t105.5 -32zM448 710l-140 116l2 4h42
l126 -120h-30z" />
    <glyph glyph-name="uni1EDE" unicode="&#x1ede;" horiz-adv-x="612" 
d="M501 620l-27 24q55 2 87.5 28t32.5 70q0 8 -0.5 17.5t-5.5 19.5l30 13q8 -23 8 -44q0 -39 -18 -65.5t-46.5 -41.5t-60.5 -21zM274 -12q-72 0 -119 35t-70 97t-23 142q0 53 13 110t39 110.5t63.5 96t86.5 68t108 25.5q72 0 119 -35t70 -97t23 -142q0 -53 -13 -110
t-39 -110.5t-63.5 -96t-86.5 -68t-108 -25.5zM276 14q54 0 98 24t77.5 64.5t56.5 90.5t34.5 102t11.5 99q0 74 -19 131t-59.5 89t-105.5 32q-54 0 -98 -24t-77.5 -64.5t-56.5 -90.5t-34.5 -102t-11.5 -99q0 -74 19 -131t59.5 -89t105.5 -32zM368 708l-4 22q78 21 78 68
q0 22 -21 32.5t-57 11.5l6 24q27 -1 49.5 -7t36.5 -19.5t14 -35.5q0 -33 -26 -57.5t-76 -38.5z" />
    <glyph glyph-name="uni1EE0" unicode="&#x1ee0;" horiz-adv-x="612" 
d="M501 620l-27 24q55 2 87.5 28t32.5 70q0 8 -0.5 17.5t-5.5 19.5l30 13q8 -23 8 -44q0 -39 -18 -65.5t-46.5 -41.5t-60.5 -21zM274 -12q-72 0 -119 35t-70 97t-23 142q0 53 13 110t39 110.5t63.5 96t86.5 68t108 25.5q72 0 119 -35t70 -97t23 -142q0 -53 -13 -110
t-39 -110.5t-63.5 -96t-86.5 -68t-108 -25.5zM276 14q54 0 98 24t77.5 64.5t56.5 90.5t34.5 102t11.5 99q0 74 -19 131t-59.5 89t-105.5 32q-54 0 -98 -24t-77.5 -64.5t-56.5 -90.5t-34.5 -102t-11.5 -99q0 -74 19 -131t59.5 -89t105.5 -32zM464 722q-25 0 -42 12.5
t-30 29.5t-27.5 29.5t-34.5 12.5q-23 0 -42 -22.5t-30 -59.5l-22 2q8 45 34.5 75.5t65.5 30.5q26 0 42.5 -12.5t29.5 -29.5t27 -29.5t35 -12.5q23 0 41.5 22.5t30.5 59.5l22 -2q-7 -45 -34 -75.5t-66 -30.5z" />
    <glyph glyph-name="uni1EE2" unicode="&#x1ee2;" horiz-adv-x="612" 
d="M501 620l-27 24q55 2 87.5 28t32.5 70q0 8 -0.5 17.5t-5.5 19.5l30 13q8 -23 8 -44q0 -39 -18 -65.5t-46.5 -41.5t-60.5 -21zM274 -12q-72 0 -119 35t-70 97t-23 142q0 53 13 110t39 110.5t63.5 96t86.5 68t108 25.5q72 0 119 -35t70 -97t23 -142q0 -53 -13 -110
t-39 -110.5t-63.5 -96t-86.5 -68t-108 -25.5zM276 14q54 0 98 24t77.5 64.5t56.5 90.5t34.5 102t11.5 99q0 74 -19 131t-59.5 89t-105.5 32q-54 0 -98 -24t-77.5 -64.5t-56.5 -90.5t-34.5 -102t-11.5 -99q0 -74 19 -131t59.5 -89t105.5 -32zM236 -192q-12 0 -20 8t-8 20
q0 18 11.5 29t24.5 11q12 0 20 -8t8 -22q0 -16 -11 -27t-25 -11z" />
    <glyph glyph-name="uni1E56" unicode="&#x1e56;" horiz-adv-x="524" 
d="M40 0l132 660h168q60 0 103 -16t66 -49t23 -85q0 -54 -19 -94.5t-55 -67.5t-87 -40.5t-115 -13.5h-128l-58 -294h-30zM134 320h116q125 0 188.5 47.5t63.5 140.5q0 68 -45.5 97t-134.5 29h-126zM382 726q-12 0 -20 8t-8 20q0 18 11.5 29t24.5 11q12 0 20 -8t8 -22
q0 -16 -11 -27t-25 -11z" />
    <glyph glyph-name="Racute" unicode="&#x154;" horiz-adv-x="522" 
d="M40 0l132 660h160q59 0 101.5 -14.5t65.5 -46t23 -81.5q0 -48 -18.5 -86.5t-52 -65.5t-79 -41.5t-98.5 -14.5h-142l-62 -310h-30zM138 336h122q111 0 171.5 48t60.5 132q0 65 -44.5 91.5t-133.5 26.5h-118zM400 0l-128 312l28 12l134 -324h-34zM286 710l160 120h48l2 -4
l-176 -116h-34z" />
    <glyph glyph-name="Rcaron" unicode="&#x158;" horiz-adv-x="522" 
d="M40 0l132 660h160q59 0 101.5 -14.5t65.5 -46t23 -81.5q0 -48 -18.5 -86.5t-52 -65.5t-79 -41.5t-98.5 -14.5h-142l-62 -310h-30zM138 336h122q111 0 171.5 48t60.5 132q0 65 -44.5 91.5t-133.5 26.5h-118zM400 0l-128 312l28 12l134 -324h-34zM350 712l-104 120h30
l86 -90h4l136 90h34l-160 -120h-26z" />
    <glyph glyph-name="uni1E58" unicode="&#x1e58;" horiz-adv-x="522" 
d="M40 0l132 660h160q59 0 101.5 -14.5t65.5 -46t23 -81.5q0 -48 -18.5 -86.5t-52 -65.5t-79 -41.5t-98.5 -14.5h-142l-62 -310h-30zM138 336h122q111 0 171.5 48t60.5 132q0 65 -44.5 91.5t-133.5 26.5h-118zM400 0l-128 312l28 12l134 -324h-34zM372 726q-12 0 -20 8
t-8 20q0 18 11.5 29t24.5 11q12 0 20 -8t8 -22q0 -16 -11 -27t-25 -11z" />
    <glyph glyph-name="uni0156" unicode="&#x156;" horiz-adv-x="522" 
d="M40 0l132 660h160q59 0 101.5 -14.5t65.5 -46t23 -81.5q0 -48 -18.5 -86.5t-52 -65.5t-79 -41.5t-98.5 -14.5h-142l-62 -310h-30zM138 336h122q111 0 171.5 48t60.5 132q0 65 -44.5 91.5t-133.5 26.5h-118zM400 0l-128 312l28 12l134 -324h-34zM124 -216l-2 24
q62 2 93 18.5t31 41.5q0 23 -17 33t-51 13l10 24q36 -5 55 -13t26 -19.5t7 -29.5q0 -28 -19 -48.5t-53.5 -31.5t-79.5 -12z" />
    <glyph glyph-name="uni1E5A" unicode="&#x1e5a;" horiz-adv-x="522" 
d="M40 0l132 660h160q59 0 101.5 -14.5t65.5 -46t23 -81.5q0 -48 -18.5 -86.5t-52 -65.5t-79 -41.5t-98.5 -14.5h-142l-62 -310h-30zM138 336h122q111 0 171.5 48t60.5 132q0 65 -44.5 91.5t-133.5 26.5h-118zM400 0l-128 312l28 12l134 -324h-34zM210 -200q-12 0 -20 8
t-8 20q0 18 11.5 29t24.5 11q12 0 20 -8t8 -22q0 -16 -11 -27t-25 -11z" />
    <glyph glyph-name="uni1E5C" unicode="&#x1e5c;" horiz-adv-x="522" 
d="M40 0l132 660h160q59 0 101.5 -14.5t65.5 -46t23 -81.5q0 -48 -18.5 -86.5t-52 -65.5t-79 -41.5t-98.5 -14.5h-142l-62 -310h-30zM138 336h122q111 0 171.5 48t60.5 132q0 65 -44.5 91.5t-133.5 26.5h-118zM400 0l-128 312l28 12l134 -324h-34zM256 748l6 26h230l-6 -26
h-230zM210 -200q-12 0 -20 8t-8 20q0 18 11.5 29t24.5 11q12 0 20 -8t8 -22q0 -16 -11 -27t-25 -11z" />
    <glyph glyph-name="uni1E5E" unicode="&#x1e5e;" horiz-adv-x="522" 
d="M40 0l132 660h160q59 0 101.5 -14.5t65.5 -46t23 -81.5q0 -48 -18.5 -86.5t-52 -65.5t-79 -41.5t-98.5 -14.5h-142l-62 -310h-30zM138 336h122q111 0 171.5 48t60.5 132q0 65 -44.5 91.5t-133.5 26.5h-118zM400 0l-128 312l28 12l134 -324h-34zM100 -160l4 26h232l-4 -26
h-232z" />
    <glyph glyph-name="Sacute" unicode="&#x15a;" horiz-adv-x="488" 
d="M226 -12q-70 0 -122.5 29t-85.5 81l24 16q32 -48 78 -74t110 -26q50 0 90.5 20t64 56.5t23.5 85.5q0 45 -23.5 76.5t-62.5 53.5l-88 52q-40 24 -72 60t-32 88q0 44 23 82t64.5 61t96.5 23q60 0 105.5 -26t70.5 -62l-22 -18q-25 33 -65.5 56.5t-94.5 23.5q-45 0 -78 -20
t-51.5 -51.5t-18.5 -64.5q0 -48 27 -77t61 -49l86 -50q47 -27 75.5 -63.5t28.5 -90.5q0 -58 -28 -101t-76 -67t-108 -24zM274 708l160 120h48l2 -4l-176 -116h-34z" />
    <glyph glyph-name="Scircumflex" unicode="&#x15c;" horiz-adv-x="488" 
d="M226 -12q-70 0 -122.5 29t-85.5 81l24 16q32 -48 78 -74t110 -26q50 0 90.5 20t64 56.5t23.5 85.5q0 45 -23.5 76.5t-62.5 53.5l-88 52q-40 24 -72 60t-32 88q0 44 23 82t64.5 61t96.5 23q60 0 105.5 -26t70.5 -62l-22 -18q-25 33 -65.5 56.5t-94.5 23.5q-45 0 -78 -20
t-51.5 -51.5t-18.5 -64.5q0 -48 27 -77t61 -49l86 -50q47 -27 75.5 -63.5t28.5 -90.5q0 -58 -28 -101t-76 -67t-108 -24zM204 710l160 120h20l110 -120h-30l-90 90h-4l-132 -90h-34z" />
    <glyph glyph-name="uni1E60" unicode="&#x1e60;" horiz-adv-x="488" 
d="M226 -12q-70 0 -122.5 29t-85.5 81l24 16q32 -48 78 -74t110 -26q50 0 90.5 20t64 56.5t23.5 85.5q0 45 -23.5 76.5t-62.5 53.5l-88 52q-40 24 -72 60t-32 88q0 44 23 82t64.5 61t96.5 23q60 0 105.5 -26t70.5 -62l-22 -18q-25 33 -65.5 56.5t-94.5 23.5q-45 0 -78 -20
t-51.5 -51.5t-18.5 -64.5q0 -48 27 -77t61 -49l86 -50q47 -27 75.5 -63.5t28.5 -90.5q0 -58 -28 -101t-76 -67t-108 -24zM358 724q-12 0 -20 8t-8 20q0 18 11.5 29t24.5 11q12 0 20 -8t8 -22q0 -16 -11 -27t-25 -11z" />
    <glyph glyph-name="Scaron" unicode="&#x160;" horiz-adv-x="488" 
d="M226 -12q-70 0 -122.5 29t-85.5 81l24 16q32 -48 78 -74t110 -26q50 0 90.5 20t64 56.5t23.5 85.5q0 45 -23.5 76.5t-62.5 53.5l-88 52q-40 24 -72 60t-32 88q0 44 23 82t64.5 61t96.5 23q60 0 105.5 -26t70.5 -62l-22 -18q-25 33 -65.5 56.5t-94.5 23.5q-45 0 -78 -20
t-51.5 -51.5t-18.5 -64.5q0 -48 27 -77t61 -49l86 -50q47 -27 75.5 -63.5t28.5 -90.5q0 -58 -28 -101t-76 -67t-108 -24zM338 710l-104 120h30l86 -90h4l136 90h34l-160 -120h-26z" />
    <glyph glyph-name="uni015E" unicode="&#x15e;" horiz-adv-x="488" 
d="M226 -12q-70 0 -122.5 29t-85.5 81l24 16q32 -48 78 -74t110 -26q50 0 90.5 20t64 56.5t23.5 85.5q0 45 -23.5 76.5t-62.5 53.5l-88 52q-40 24 -72 60t-32 88q0 44 23 82t64.5 61t96.5 23q60 0 105.5 -26t70.5 -62l-22 -18q-25 33 -65.5 56.5t-94.5 23.5q-45 0 -78 -20
t-51.5 -51.5t-18.5 -64.5q0 -48 27 -77t61 -49l86 -50q47 -27 75.5 -63.5t28.5 -90.5q0 -58 -28 -101t-76 -67t-108 -24zM94 -216l-2 24q62 2 93 18.5t31 41.5q0 23 -17 33t-51 13l56 88h28l-42 -70q35 -9 45.5 -22t10.5 -34q0 -43 -42 -66.5t-110 -25.5z" />
    <glyph glyph-name="uni0218" unicode="&#x218;" horiz-adv-x="488" 
d="M226 -12q-70 0 -122.5 29t-85.5 81l24 16q32 -48 78 -74t110 -26q50 0 90.5 20t64 56.5t23.5 85.5q0 45 -23.5 76.5t-62.5 53.5l-88 52q-40 24 -72 60t-32 88q0 44 23 82t64.5 61t96.5 23q60 0 105.5 -26t70.5 -62l-22 -18q-25 33 -65.5 56.5t-94.5 23.5q-45 0 -78 -20
t-51.5 -51.5t-18.5 -64.5q0 -48 27 -77t61 -49l86 -50q47 -27 75.5 -63.5t28.5 -90.5q0 -58 -28 -101t-76 -67t-108 -24zM94 -216l-2 24q62 2 93 18.5t31 41.5q0 23 -17 33t-51 13l10 24q36 -5 55 -13t26 -19.5t7 -29.5q0 -28 -19 -48.5t-53.5 -31.5t-79.5 -12z" />
    <glyph glyph-name="uni1E62" unicode="&#x1e62;" horiz-adv-x="488" 
d="M226 -12q-70 0 -122.5 29t-85.5 81l24 16q32 -48 78 -74t110 -26q50 0 90.5 20t64 56.5t23.5 85.5q0 45 -23.5 76.5t-62.5 53.5l-88 52q-40 24 -72 60t-32 88q0 44 23 82t64.5 61t96.5 23q60 0 105.5 -26t70.5 -62l-22 -18q-25 33 -65.5 56.5t-94.5 23.5q-45 0 -78 -20
t-51.5 -51.5t-18.5 -64.5q0 -48 27 -77t61 -49l86 -50q47 -27 75.5 -63.5t28.5 -90.5q0 -58 -28 -101t-76 -67t-108 -24zM180 -200q-12 0 -20 8t-8 20q0 18 11.5 29t24.5 11q12 0 20 -8t8 -22q0 -16 -11 -27t-25 -11z" />
    <glyph glyph-name="uni1E66" unicode="&#x1e66;" horiz-adv-x="488" 
d="M226 -12q-70 0 -122.5 29t-85.5 81l24 16q32 -48 78 -74t110 -26q50 0 90.5 20t64 56.5t23.5 85.5q0 45 -23.5 76.5t-62.5 53.5l-88 52q-40 24 -72 60t-32 88q0 44 23 82t64.5 61t96.5 23q60 0 105.5 -26t70.5 -62l-22 -18q-25 33 -65.5 56.5t-94.5 23.5q-45 0 -78 -20
t-51.5 -51.5t-18.5 -64.5q0 -48 27 -77t61 -49l86 -50q47 -27 75.5 -63.5t28.5 -90.5q0 -58 -28 -101t-76 -67t-108 -24zM372 824q-12 0 -20 8t-8 20q0 18 11.5 29t24.5 11q12 0 20 -8t8 -22q0 -16 -11 -27t-25 -11zM338 710l-104 100h30l86 -70h4l136 70h34l-160 -100h-26z
" />
    <glyph glyph-name="uni1E9E" unicode="&#x1e9e;" horiz-adv-x="602" 
d="M368 -12q-58 0 -103 25.5t-71 70.5l22 14q27 -43 63 -63.5t91 -20.5q44 0 79.5 22.5t56 59.5t20.5 80q0 32 -17 63.5t-59 58.5t-116 46l4 24l192 164q-19 59 -58.5 86.5t-99.5 27.5q-78 0 -136.5 -54t-81.5 -168l-84 -424h-30l88 440q14 69 47 121t83 81.5t116 29.5
q50 0 86 -14.5t61 -47t41 -86.5l-190 -162q95 -25 139.5 -76t44.5 -104q0 -54 -23.5 -98t-66 -70t-98.5 -26z" />
    <glyph glyph-name="Tcaron" unicode="&#x164;" horiz-adv-x="492" 
d="M180 0l126 634h-206l6 26h442l-6 -26h-206l-126 -634h-30zM324 712l-104 120h30l86 -90h4l136 90h34l-160 -120h-26z" />
    <glyph glyph-name="uni1E6A" unicode="&#x1e6a;" horiz-adv-x="492" 
d="M180 0l126 634h-206l6 26h442l-6 -26h-206l-126 -634h-30zM346 726q-12 0 -20 8t-8 20q0 18 11.5 29t24.5 11q12 0 20 -8t8 -22q0 -16 -11 -27t-25 -11z" />
    <glyph glyph-name="uni0162" unicode="&#x162;" horiz-adv-x="492" 
d="M180 0l126 634h-206l6 26h442l-6 -26h-206l-126 -634h-30zM72 -216l-2 24q62 2 93 18.5t31 41.5q0 23 -17 33t-51 13l56 88h28l-42 -70q35 -9 45.5 -22t10.5 -34q0 -43 -42 -66.5t-110 -25.5z" />
    <glyph glyph-name="uni021A" unicode="&#x21a;" horiz-adv-x="492" 
d="M180 0l126 634h-206l6 26h442l-6 -26h-206l-126 -634h-30zM84 -208l-2 24q62 2 93 18.5t31 41.5q0 23 -17 33t-51 13l10 24q36 -5 55 -13t26 -19.5t7 -29.5q0 -28 -19 -48.5t-53.5 -31.5t-79.5 -12z" />
    <glyph glyph-name="uni1E6C" unicode="&#x1e6c;" horiz-adv-x="492" 
d="M180 0l126 634h-206l6 26h442l-6 -26h-206l-126 -634h-30zM170 -192q-12 0 -20 8t-8 20q0 18 11.5 29t24.5 11q12 0 20 -8t8 -22q0 -16 -11 -27t-25 -11z" />
    <glyph glyph-name="uni1E6E" unicode="&#x1e6e;" horiz-adv-x="492" 
d="M180 0l126 634h-206l6 26h442l-6 -26h-206l-126 -634h-30zM60 -152l4 26h232l-4 -26h-232z" />
    <glyph glyph-name="uni1E97.c" horiz-adv-x="492" 
d="M180 0l126 634h-206l6 26h442l-6 -26h-206l-126 -634h-30zM254 726q-12 0 -19 7t-7 19q0 17 10 27.5t22 10.5t19 -7t7 -21q0 -15 -10 -25.5t-22 -10.5zM436 726q-12 0 -19 7t-7 19q0 17 10 27.5t22 10.5t19 -7t7 -21q0 -15 -10 -25.5t-22 -10.5z" />
    <glyph glyph-name="Tbar" unicode="&#x166;" horiz-adv-x="492" 
d="M116 338l6 24l94 2h196l-6 -26h-290zM180 0l126 634h-206l6 26h442l-6 -26h-206l-126 -634h-30z" />
    <glyph glyph-name="uni023E" unicode="&#x23e;" horiz-adv-x="492" 
d="M-6 -20l-20 16l572 696l20 -16zM180 0l126 634h-206l6 26h442l-6 -26h-206l-126 -634h-30z" />
    <glyph glyph-name="Ugrave" unicode="&#xd9;" horiz-adv-x="594" 
d="M268 -12q-87 0 -136.5 50.5t-49.5 141.5q0 20 2 39t6 43l80 398h30l-78 -390q-6 -24 -8 -44t-2 -38q0 -82 40.5 -128t119.5 -46q44 0 83.5 20t69.5 69t47 135l84 422h30l-86 -430q-19 -95 -54 -147.5t-81 -73.5t-97 -21zM430 710l-140 116l2 4h42l126 -120h-30z" />
    <glyph glyph-name="Uacute" unicode="&#xda;" horiz-adv-x="594" 
d="M268 -12q-87 0 -136.5 50.5t-49.5 141.5q0 20 2 39t6 43l80 398h30l-78 -390q-6 -24 -8 -44t-2 -38q0 -82 40.5 -128t119.5 -46q44 0 83.5 20t69.5 69t47 135l84 422h30l-86 -430q-19 -95 -54 -147.5t-81 -73.5t-97 -21zM310 710l160 120h48l2 -4l-176 -116h-34z" />
    <glyph glyph-name="Ucircumflex" unicode="&#xdb;" horiz-adv-x="594" 
d="M268 -12q-87 0 -136.5 50.5t-49.5 141.5q0 20 2 39t6 43l80 398h30l-78 -390q-6 -24 -8 -44t-2 -38q0 -82 40.5 -128t119.5 -46q44 0 83.5 20t69.5 69t47 135l84 422h30l-86 -430q-19 -95 -54 -147.5t-81 -73.5t-97 -21zM240 712l160 120h20l110 -120h-30l-90 90h-4
l-132 -90h-34z" />
    <glyph glyph-name="Utilde" unicode="&#x168;" horiz-adv-x="594" 
d="M268 -12q-87 0 -136.5 50.5t-49.5 141.5q0 20 2 39t6 43l80 398h30l-78 -390q-6 -24 -8 -44t-2 -38q0 -82 40.5 -128t119.5 -46q44 0 83.5 20t69.5 69t47 135l84 422h30l-86 -430q-19 -95 -54 -147.5t-81 -73.5t-97 -21zM466 722q-25 0 -42 12.5t-30 29.5t-27.5 29.5
t-34.5 12.5q-23 0 -42 -22.5t-30 -59.5l-22 2q8 45 34.5 75.5t65.5 30.5q26 0 42.5 -12.5t29.5 -29.5t27 -29.5t35 -12.5q23 0 41.5 22.5t30.5 59.5l22 -2q-7 -45 -34 -75.5t-66 -30.5z" />
    <glyph glyph-name="Udieresis" unicode="&#xdc;" horiz-adv-x="594" 
d="M268 -12q-87 0 -136.5 50.5t-49.5 141.5q0 20 2 39t6 43l80 398h30l-78 -390q-6 -24 -8 -44t-2 -38q0 -82 40.5 -128t119.5 -46q44 0 83.5 20t69.5 69t47 135l84 422h30l-86 -430q-19 -95 -54 -147.5t-81 -73.5t-97 -21zM304 726q-12 0 -19 7t-7 19q0 17 10 27.5t22 10.5
t19 -7t7 -21q0 -15 -10 -25.5t-22 -10.5zM486 726q-12 0 -19 7t-7 19q0 17 10 27.5t22 10.5t19 -7t7 -21q0 -15 -10 -25.5t-22 -10.5z" />
    <glyph glyph-name="Umacron" unicode="&#x16a;" horiz-adv-x="594" 
d="M268 -12q-87 0 -136.5 50.5t-49.5 141.5q0 20 2 39t6 43l80 398h30l-78 -390q-6 -24 -8 -44t-2 -38q0 -82 40.5 -128t119.5 -46q44 0 83.5 20t69.5 69t47 135l84 422h30l-86 -430q-19 -95 -54 -147.5t-81 -73.5t-97 -21zM280 748l6 26h230l-6 -26h-230z" />
    <glyph glyph-name="Ubreve" unicode="&#x16c;" horiz-adv-x="594" 
d="M268 -12q-87 0 -136.5 50.5t-49.5 141.5q0 20 2 39t6 43l80 398h30l-78 -390q-6 -24 -8 -44t-2 -38q0 -82 40.5 -128t119.5 -46q44 0 83.5 20t69.5 69t47 135l84 422h30l-86 -430q-19 -95 -54 -147.5t-81 -73.5t-97 -21zM388 712q-44 0 -67.5 19t-32 47t-8.5 56l26 4
q0 -42 18.5 -71t69.5 -29q48 0 78.5 30.5t45.5 69.5l26 -4q-8 -27 -28 -55t-52 -47.5t-76 -19.5z" />
    <glyph glyph-name="Uring" unicode="&#x16e;" horiz-adv-x="594" 
d="M268 -12q-87 0 -136.5 50.5t-49.5 141.5q0 20 2 39t6 43l80 398h30l-78 -390q-6 -24 -8 -44t-2 -38q0 -82 40.5 -128t119.5 -46q44 0 83.5 20t69.5 69t47 135l84 422h30l-86 -430q-19 -95 -54 -147.5t-81 -73.5t-97 -21zM392 702q-30 0 -54 18t-24 54q0 39 30.5 65.5
t69.5 26.5q30 0 54 -18t24 -54q0 -39 -30.5 -65.5t-69.5 -26.5zM394 724q29 0 50.5 20t21.5 48q0 26 -15 39t-39 13q-28 0 -50 -19.5t-22 -48.5q0 -25 15 -38.5t39 -13.5z" />
    <glyph glyph-name="Uhungarumlaut" unicode="&#x170;" horiz-adv-x="594" 
d="M268 -12q-87 0 -136.5 50.5t-49.5 141.5q0 20 2 39t6 43l80 398h30l-78 -390q-6 -24 -8 -44t-2 -38q0 -82 40.5 -128t119.5 -46q44 0 83.5 20t69.5 69t47 135l84 422h30l-86 -430q-19 -95 -54 -147.5t-81 -73.5t-97 -21zM270 710l142 120h46l2 -4l-156 -116h-34zM450 710
l142 120h46l2 -4l-156 -116h-34z" />
    <glyph glyph-name="uni01D3" unicode="&#x1d3;" horiz-adv-x="594" 
d="M268 -12q-87 0 -136.5 50.5t-49.5 141.5q0 20 2 39t6 43l80 398h30l-78 -390q-6 -24 -8 -44t-2 -38q0 -82 40.5 -128t119.5 -46q44 0 83.5 20t69.5 69t47 135l84 422h30l-86 -430q-19 -95 -54 -147.5t-81 -73.5t-97 -21zM374 712l-104 120h30l86 -90h4l136 90h34
l-160 -120h-26z" />
    <glyph glyph-name="Uogonek" unicode="&#x172;" horiz-adv-x="594" 
d="M212 -214q-31 0 -52.5 16.5t-21.5 49.5t18 62.5t46 52t58 33.5l8 -12q-87 0 -136.5 50.5t-49.5 141.5q0 20 2 39t6 43l80 398h30l-78 -390q-6 -24 -8 -44t-2 -38q0 -82 40.5 -128t119.5 -46q44 0 83.5 20t69.5 69t47 135l84 422h30l-86 -430q-23 -115 -69.5 -169
t-120.5 -71q-48 -11 -79.5 -33t-47 -48.5t-15.5 -50.5q0 -21 13.5 -33.5t34.5 -12.5q15 0 27.5 5t28.5 17l12 -16q-18 -16 -35 -24t-37 -8z" />
    <glyph glyph-name="uni01D5" unicode="&#x1d5;" horiz-adv-x="594" 
d="M268 -12q-87 0 -136.5 50.5t-49.5 141.5q0 20 2 39t6 43l80 398h30l-78 -390q-6 -24 -8 -44t-2 -38q0 -82 40.5 -128t119.5 -46q44 0 83.5 20t69.5 69t47 135l84 422h30l-86 -430q-19 -95 -54 -147.5t-81 -73.5t-97 -21zM304 726q-12 0 -19 7t-7 19q0 17 10 27.5t22 10.5
t19 -7t7 -21q0 -15 -10 -25.5t-22 -10.5zM486 726q-12 0 -19 7t-7 19q0 17 10 27.5t22 10.5t19 -7t7 -21q0 -15 -10 -25.5t-22 -10.5zM300 854l6 26h230l-6 -26h-230z" />
    <glyph glyph-name="uni01D7" unicode="&#x1d7;" horiz-adv-x="594" 
d="M268 -12q-87 0 -136.5 50.5t-49.5 141.5q0 20 2 39t6 43l80 398h30l-78 -390q-6 -24 -8 -44t-2 -38q0 -82 40.5 -128t119.5 -46q44 0 83.5 20t69.5 69t47 135l84 422h30l-86 -430q-19 -95 -54 -147.5t-81 -73.5t-97 -21zM304 726q-12 0 -19 7t-7 19q0 17 10 27.5t22 10.5
t19 -7t7 -21q0 -15 -10 -25.5t-22 -10.5zM486 726q-12 0 -19 7t-7 19q0 17 10 27.5t22 10.5t19 -7t7 -21q0 -15 -10 -25.5t-22 -10.5zM360 820l110 100h38l2 -4l-124 -96h-26z" />
    <glyph glyph-name="uni01D9" unicode="&#x1d9;" horiz-adv-x="594" 
d="M268 -12q-87 0 -136.5 50.5t-49.5 141.5q0 20 2 39t6 43l80 398h30l-78 -390q-6 -24 -8 -44t-2 -38q0 -82 40.5 -128t119.5 -46q44 0 83.5 20t69.5 69t47 135l84 422h30l-86 -430q-19 -95 -54 -147.5t-81 -73.5t-97 -21zM304 726q-12 0 -19 7t-7 19q0 17 10 27.5t22 10.5
t19 -7t7 -21q0 -15 -10 -25.5t-22 -10.5zM486 726q-12 0 -19 7t-7 19q0 17 10 27.5t22 10.5t19 -7t7 -21q0 -15 -10 -25.5t-22 -10.5zM404 830l-100 90h30l80 -60h4l112 60h34l-140 -90h-20z" />
    <glyph glyph-name="uni01DB" unicode="&#x1db;" horiz-adv-x="594" 
d="M268 -12q-87 0 -136.5 50.5t-49.5 141.5q0 20 2 39t6 43l80 398h30l-78 -390q-6 -24 -8 -44t-2 -38q0 -82 40.5 -128t119.5 -46q44 0 83.5 20t69.5 69t47 135l84 422h30l-86 -430q-19 -95 -54 -147.5t-81 -73.5t-97 -21zM304 726q-12 0 -19 7t-7 19q0 17 10 27.5t22 10.5
t19 -7t7 -21q0 -15 -10 -25.5t-22 -10.5zM486 726q-12 0 -19 7t-7 19q0 17 10 27.5t22 10.5t19 -7t7 -21q0 -15 -10 -25.5t-22 -10.5zM418 820l-88 96l2 4h32l76 -100h-22z" />
    <glyph glyph-name="uni1E72" unicode="&#x1e72;" horiz-adv-x="594" 
d="M268 -12q-87 0 -136.5 50.5t-49.5 141.5q0 20 2 39t6 43l80 398h30l-78 -390q-6 -24 -8 -44t-2 -38q0 -82 40.5 -128t119.5 -46q44 0 83.5 20t69.5 69t47 135l84 422h30l-86 -430q-19 -95 -54 -147.5t-81 -73.5t-97 -21zM124 -180q-12 0 -19 7t-7 19q0 17 10 27.5
t22 10.5t19 -7t7 -21q0 -15 -10 -25.5t-22 -10.5zM290 -180q-12 0 -19 7t-7 19q0 17 10 27.5t22 10.5t19 -7t7 -21q0 -15 -10 -25.5t-22 -10.5z" />
    <glyph glyph-name="uni1EE4" unicode="&#x1ee4;" horiz-adv-x="594" 
d="M268 -12q-87 0 -136.5 50.5t-49.5 141.5q0 20 2 39t6 43l80 398h30l-78 -390q-6 -24 -8 -44t-2 -38q0 -82 40.5 -128t119.5 -46q44 0 83.5 20t69.5 69t47 135l84 422h30l-86 -430q-19 -95 -54 -147.5t-81 -73.5t-97 -21zM204 -200q-12 0 -20 8t-8 20q0 18 11.5 29
t24.5 11q12 0 20 -8t8 -22q0 -16 -11 -27t-25 -11z" />
    <glyph glyph-name="uni0244" unicode="&#x244;" horiz-adv-x="634" 
d="M44 338l6 22l82 4h492l-6 -26h-574zM288 -12q-87 0 -136.5 50.5t-49.5 141.5q0 20 2 39t6 43l80 398h30l-78 -390q-6 -24 -8 -44t-2 -38q0 -82 40.5 -128t119.5 -46q44 0 83.5 20t69.5 69t47 135l84 422h30l-86 -430q-19 -95 -54 -147.5t-81 -73.5t-97 -21z" />
    <glyph glyph-name="uni1EE6" unicode="&#x1ee6;" horiz-adv-x="594" 
d="M268 -12q-87 0 -136.5 50.5t-49.5 141.5q0 20 2 39t6 43l80 398h30l-78 -390q-6 -24 -8 -44t-2 -38q0 -82 40.5 -128t119.5 -46q44 0 83.5 20t69.5 69t47 135l84 422h30l-86 -430q-19 -95 -54 -147.5t-81 -73.5t-97 -21zM350 708l-4 22q78 21 78 68q0 22 -21 32.5
t-57 11.5l6 24q27 -1 49.5 -7t36.5 -19.5t14 -35.5q0 -33 -26 -57.5t-76 -38.5z" />
    <glyph glyph-name="Uhorn" unicode="&#x1af;" horiz-adv-x="600" 
d="M580 636l-24 24q54 2 86 28t32 70q0 8 -0.5 17.5t-5.5 19.5l30 13q8 -23 8 -44q0 -39 -18 -65.5t-47 -41.5t-61 -21zM268 -12q-87 0 -136.5 50.5t-49.5 141.5q0 20 2 39t6 43l80 398h30l-78 -390q-6 -24 -8 -44t-2 -38q0 -82 40.5 -128t119.5 -46q44 0 83.5 20t69.5 69
t47 135l84 422h30l-86 -430q-19 -95 -54 -147.5t-81 -73.5t-97 -21z" />
    <glyph glyph-name="uni1EE8" unicode="&#x1ee8;" horiz-adv-x="600" 
d="M580 636l-24 24q54 2 86 28t32 70q0 8 -0.5 17.5t-5.5 19.5l30 13q8 -23 8 -44q0 -39 -18 -65.5t-47 -41.5t-61 -21zM268 -12q-87 0 -136.5 50.5t-49.5 141.5q0 20 2 39t6 43l80 398h30l-78 -390q-6 -24 -8 -44t-2 -38q0 -82 40.5 -128t119.5 -46q44 0 83.5 20t69.5 69
t47 135l84 422h30l-86 -430q-19 -95 -54 -147.5t-81 -73.5t-97 -21zM310 710l160 120h48l2 -4l-176 -116h-34z" />
    <glyph glyph-name="uni1EEA" unicode="&#x1eea;" horiz-adv-x="600" 
d="M580 636l-24 24q54 2 86 28t32 70q0 8 -0.5 17.5t-5.5 19.5l30 13q8 -23 8 -44q0 -39 -18 -65.5t-47 -41.5t-61 -21zM268 -12q-87 0 -136.5 50.5t-49.5 141.5q0 20 2 39t6 43l80 398h30l-78 -390q-6 -24 -8 -44t-2 -38q0 -82 40.5 -128t119.5 -46q44 0 83.5 20t69.5 69
t47 135l84 422h30l-86 -430q-19 -95 -54 -147.5t-81 -73.5t-97 -21zM430 710l-140 116l2 4h42l126 -120h-30z" />
    <glyph glyph-name="uni1EEC" unicode="&#x1eec;" horiz-adv-x="600" 
d="M580 636l-24 24q54 2 86 28t32 70q0 8 -0.5 17.5t-5.5 19.5l30 13q8 -23 8 -44q0 -39 -18 -65.5t-47 -41.5t-61 -21zM268 -12q-87 0 -136.5 50.5t-49.5 141.5q0 20 2 39t6 43l80 398h30l-78 -390q-6 -24 -8 -44t-2 -38q0 -82 40.5 -128t119.5 -46q44 0 83.5 20t69.5 69
t47 135l84 422h30l-86 -430q-19 -95 -54 -147.5t-81 -73.5t-97 -21zM350 708l-4 22q78 21 78 68q0 22 -21 32.5t-57 11.5l6 24q27 -1 49.5 -7t36.5 -19.5t14 -35.5q0 -33 -26 -57.5t-76 -38.5z" />
    <glyph glyph-name="uni1EEE" unicode="&#x1eee;" horiz-adv-x="600" 
d="M580 636l-24 24q54 2 86 28t32 70q0 8 -0.5 17.5t-5.5 19.5l30 13q8 -23 8 -44q0 -39 -18 -65.5t-47 -41.5t-61 -21zM268 -12q-87 0 -136.5 50.5t-49.5 141.5q0 20 2 39t6 43l80 398h30l-78 -390q-6 -24 -8 -44t-2 -38q0 -82 40.5 -128t119.5 -46q44 0 83.5 20t69.5 69
t47 135l84 422h30l-86 -430q-19 -95 -54 -147.5t-81 -73.5t-97 -21zM466 722q-25 0 -42 12.5t-30 29.5t-27.5 29.5t-34.5 12.5q-23 0 -42 -22.5t-30 -59.5l-22 2q8 45 34.5 75.5t65.5 30.5q26 0 42.5 -12.5t29.5 -29.5t27 -29.5t35 -12.5q23 0 41.5 22.5t30.5 59.5l22 -2
q-7 -45 -34 -75.5t-66 -30.5z" />
    <glyph glyph-name="uni1EF0" unicode="&#x1ef0;" horiz-adv-x="600" 
d="M580 636l-24 24q54 2 86 28t32 70q0 8 -0.5 17.5t-5.5 19.5l30 13q8 -23 8 -44q0 -39 -18 -65.5t-47 -41.5t-61 -21zM268 -12q-87 0 -136.5 50.5t-49.5 141.5q0 20 2 39t6 43l80 398h30l-78 -390q-6 -24 -8 -44t-2 -38q0 -82 40.5 -128t119.5 -46q44 0 83.5 20t69.5 69
t47 135l84 422h30l-86 -430q-19 -95 -54 -147.5t-81 -73.5t-97 -21zM204 -192q-12 0 -20 8t-8 20q0 18 11.5 29t24.5 11q12 0 20 -8t8 -22q0 -16 -11 -27t-25 -11z" />
    <glyph glyph-name="uni1E7E" unicode="&#x1e7e;" horiz-adv-x="450" 
d="M146 0l-62 660h28l36 -400q6 -54 12 -110t10 -112h4q27 54 56.5 112t57.5 110l210 400h30l-348 -660h-34zM124 -200q-12 0 -20 8t-8 20q0 18 11.5 29t24.5 11q12 0 20 -8t8 -22q0 -16 -11 -27t-25 -11z" />
    <glyph glyph-name="Wgrave" unicode="&#x1e80;" horiz-adv-x="726" 
d="M110 0l-2 660h30v-400q-1 -54 -0.5 -108.5t-1.5 -111.5h4q26 57 51 111.5t49 108.5l188 400h34l14 -400q3 -54 5 -108.5t3 -111.5h4q23 57 45.5 111.5t46.5 108.5l168 400h32l-284 -660h-38l-16 472q0 41 -1 78.5t-1 77.5h-4q-15 -40 -32.5 -77.5t-35.5 -78.5l-220 -472
h-38zM500 710l-140 116l2 4h42l126 -120h-30z" />
    <glyph glyph-name="Wacute" unicode="&#x1e82;" horiz-adv-x="726" 
d="M110 0l-2 660h30v-400q-1 -54 -0.5 -108.5t-1.5 -111.5h4q26 57 51 111.5t49 108.5l188 400h34l14 -400q3 -54 5 -108.5t3 -111.5h4q23 57 45.5 111.5t46.5 108.5l168 400h32l-284 -660h-38l-16 472q0 41 -1 78.5t-1 77.5h-4q-15 -40 -32.5 -77.5t-35.5 -78.5l-220 -472
h-38zM380 710l160 120h48l2 -4l-176 -116h-34z" />
    <glyph glyph-name="Wcircumflex" unicode="&#x174;" horiz-adv-x="726" 
d="M110 0l-2 660h30v-400q-1 -54 -0.5 -108.5t-1.5 -111.5h4q26 57 51 111.5t49 108.5l188 400h34l14 -400q3 -54 5 -108.5t3 -111.5h4q23 57 45.5 111.5t46.5 108.5l168 400h32l-284 -660h-38l-16 472q0 41 -1 78.5t-1 77.5h-4q-15 -40 -32.5 -77.5t-35.5 -78.5l-220 -472
h-38zM310 712l160 120h20l110 -120h-30l-90 90h-4l-132 -90h-34z" />
    <glyph glyph-name="Wdieresis" unicode="&#x1e84;" horiz-adv-x="726" 
d="M110 0l-2 660h30v-400q-1 -54 -0.5 -108.5t-1.5 -111.5h4q26 57 51 111.5t49 108.5l188 400h34l14 -400q3 -54 5 -108.5t3 -111.5h4q23 57 45.5 111.5t46.5 108.5l168 400h32l-284 -660h-38l-16 472q0 41 -1 78.5t-1 77.5h-4q-15 -40 -32.5 -77.5t-35.5 -78.5l-220 -472
h-38zM374 726q-12 0 -19 7t-7 19q0 17 10 27.5t22 10.5t19 -7t7 -21q0 -15 -10 -25.5t-22 -10.5zM556 726q-12 0 -19 7t-7 19q0 17 10 27.5t22 10.5t19 -7t7 -21q0 -15 -10 -25.5t-22 -10.5z" />
    <glyph glyph-name="Ygrave" unicode="&#x1ef2;" horiz-adv-x="422" 
d="M140 0l55 273l-109 387h30l59 -215q10 -36 19.5 -71t19.5 -72h2q25 35 49.5 71.5t49.5 71.5l151 215h32l-273 -387l-55 -273h-30zM344 710l-140 116l2 4h42l126 -120h-30z" />
    <glyph glyph-name="Yacute" unicode="&#xdd;" horiz-adv-x="422" 
d="M140 0l55 273l-109 387h30l59 -215q10 -36 19.5 -71t19.5 -72h2q25 35 49.5 71.5t49.5 71.5l151 215h32l-273 -387l-55 -273h-30zM224 710l160 120h48l2 -4l-176 -116h-34z" />
    <glyph glyph-name="Ycircumflex" unicode="&#x176;" horiz-adv-x="422" 
d="M140 0l55 273l-109 387h30l59 -215q10 -36 19.5 -71t19.5 -72h2q25 35 49.5 71.5t49.5 71.5l151 215h32l-273 -387l-55 -273h-30zM154 712l160 120h20l110 -120h-30l-90 90h-4l-132 -90h-34z" />
    <glyph glyph-name="uni1EF8" unicode="&#x1ef8;" horiz-adv-x="422" 
d="M140 0l55 273l-109 387h30l59 -215q10 -36 19.5 -71t19.5 -72h2q25 35 49.5 71.5t49.5 71.5l151 215h32l-273 -387l-55 -273h-30zM380 722q-25 0 -42 12.5t-30 29.5t-27.5 29.5t-34.5 12.5q-23 0 -42 -22.5t-30 -59.5l-22 2q8 45 34.5 75.5t65.5 30.5q26 0 42.5 -12.5
t29.5 -29.5t27 -29.5t35 -12.5q23 0 41.5 22.5t30.5 59.5l22 -2q-7 -45 -34 -75.5t-66 -30.5z" />
    <glyph glyph-name="Ydieresis" unicode="&#x178;" horiz-adv-x="422" 
d="M140 0l55 273l-109 387h30l59 -215q10 -36 19.5 -71t19.5 -72h2q25 35 49.5 71.5t49.5 71.5l151 215h32l-273 -387l-55 -273h-30zM214 726q-12 0 -19 7t-7 19q0 17 10 27.5t22 10.5t19 -7t7 -21q0 -15 -10 -25.5t-22 -10.5zM396 726q-12 0 -19 7t-7 19q0 17 10 27.5
t22 10.5t19 -7t7 -21q0 -15 -10 -25.5t-22 -10.5z" />
    <glyph glyph-name="uni1E8E" unicode="&#x1e8e;" horiz-adv-x="422" 
d="M140 0l55 273l-109 387h30l59 -215q10 -36 19.5 -71t19.5 -72h2q25 35 49.5 71.5t49.5 71.5l151 215h32l-273 -387l-55 -273h-30zM308 726q-12 0 -20 8t-8 20q0 18 11.5 29t24.5 11q12 0 20 -8t8 -22q0 -16 -11 -27t-25 -11z" />
    <glyph glyph-name="uni1EF4" unicode="&#x1ef4;" horiz-adv-x="422" 
d="M140 0l55 273l-109 387h30l59 -215q10 -36 19.5 -71t19.5 -72h2q25 35 49.5 71.5t49.5 71.5l151 215h32l-273 -387l-55 -273h-30zM136 -200q-12 0 -20 8t-8 20q0 18 11.5 29t24.5 11q12 0 20 -8t8 -22q0 -16 -11 -27t-25 -11z" />
    <glyph glyph-name="uni1EF6" unicode="&#x1ef6;" horiz-adv-x="422" 
d="M140 0l55 273l-109 387h30l59 -215q10 -36 19.5 -71t19.5 -72h2q25 35 49.5 71.5t49.5 71.5l151 215h32l-273 -387l-55 -273h-30zM264 708l-4 22q78 21 78 68q0 22 -21 32.5t-57 11.5l6 24q27 -1 49.5 -7t36.5 -19.5t14 -35.5q0 -33 -26 -57.5t-76 -38.5z" />
    <glyph glyph-name="Zacute" unicode="&#x179;" horiz-adv-x="502" 
d="M2 0l4 18l480 616h-334l6 26h370l-4 -18l-478 -616h370l-6 -26h-408zM276 710l160 120h48l2 -4l-176 -116h-34z" />
    <glyph glyph-name="uni1E90" unicode="&#x1e90;" horiz-adv-x="502" 
d="M2 0l4 18l480 616h-334l6 26h370l-4 -18l-478 -616h370l-6 -26h-408zM206 712l160 120h20l110 -120h-30l-90 90h-4l-132 -90h-34z" />
    <glyph glyph-name="Zdotaccent" unicode="&#x17b;" horiz-adv-x="502" 
d="M2 0l4 18l480 616h-334l6 26h370l-4 -18l-478 -616h370l-6 -26h-408zM360 726q-12 0 -20 8t-8 20q0 18 11.5 29t24.5 11q12 0 20 -8t8 -22q0 -16 -11 -27t-25 -11z" />
    <glyph glyph-name="Zcaron" unicode="&#x17d;" horiz-adv-x="502" 
d="M2 0l4 18l480 616h-334l6 26h370l-4 -18l-478 -616h370l-6 -26h-408zM340 712l-104 120h30l86 -90h4l136 90h34l-160 -120h-26z" />
    <glyph glyph-name="uni1E92" unicode="&#x1e92;" horiz-adv-x="502" 
d="M2 0l4 18l480 616h-334l6 26h370l-4 -18l-478 -616h370l-6 -26h-408zM176 -200q-12 0 -20 8t-8 20q0 18 11.5 29t24.5 11q12 0 20 -8t8 -22q0 -16 -11 -27t-25 -11z" />
    <glyph glyph-name="uni1E94" unicode="&#x1e94;" horiz-adv-x="502" 
d="M2 0l4 18l480 616h-334l6 26h370l-4 -18l-478 -616h370l-6 -26h-408zM68 -160l4 26h232l-4 -26h-232z" />
    <glyph glyph-name="Eth" unicode="&#xd0;" horiz-adv-x="592" 
d="M54 338l6 22l74 4h198l-6 -26h-272zM60 0l132 660h104q91 0 151 -32.5t89.5 -90t29.5 -133.5q0 -84 -22.5 -157.5t-66.5 -128.5t-110 -86.5t-153 -31.5h-154zM94 26h122q77 0 136.5 30t100.5 83t62 120.5t21 142.5q0 68 -26.5 120.5t-80 82t-135.5 29.5h-78z" />
    <glyph glyph-name="Thorn" unicode="&#xde;" horiz-adv-x="536" 
d="M40 0l132 660h30l-24 -124h136q60 0 103 -16t66 -49t23 -85q0 -54 -19 -94.5t-55 -67.5t-87 -40.5t-115 -13.5h-126l-34 -170h-30zM110 196h114q125 0 188.5 47.5t63.5 140.5q0 68 -45.5 97t-134.5 29h-124z" />
    <glyph glyph-name="uni01F7" unicode="&#x1f7;" horiz-adv-x="524" 
d="M12 -140l160 800h30l-18 -88q47 39 101 69.5t111 30.5q59 0 97.5 -31t38.5 -103q0 -59 -24 -124.5t-78 -134.5t-142.5 -139.5t-217.5 -141.5l-28 -138h-30zM76 32q160 89 253 178.5t133 171.5t40 150q0 63 -32 88.5t-76 25.5q-25 0 -61.5 -13.5t-77.5 -39t-79 -61.5z" />
    <glyph glyph-name="uni021C" unicode="&#x21c;" horiz-adv-x="466" 
d="M14 -150l-10 24q106 38 177 81.5t113 88.5t60 87t18 77q0 48 -30 73t-84 25q-28 0 -57.5 -8t-64.5 -28l-12 22q89 47 144 83.5t84.5 67t40.5 58t11 55.5q0 44 -25 67t-67 23q-60 0 -108.5 -25.5t-107.5 -76.5l-18 18q39 35 75 59.5t75 37.5t86 13q56 0 88 -28t32 -80
q0 -70 -49.5 -124.5t-144.5 -111.5q74 11 118 -20.5t44 -93.5q0 -59 -38 -124t-123 -127t-227 -113z" />
    <glyph glyph-name="uni01B7" unicode="&#x1b7;" horiz-adv-x="524" 
d="M222 -12q-61 0 -116.5 23t-96.5 77l21 18q42 -52 92.5 -71t101.5 -19q56 0 104 21.5t77 60.5t29 92q0 71 -37 108.5t-105 37.5q-30 0 -48.5 -3.5t-39.5 -12.5l-14 26l289 288h-327l6 26h370l-4 -18l-285 -284q69 14 119.5 -2.5t78 -57.5t27.5 -102q0 -63 -32.5 -109.5
t-87.5 -72.5t-122 -26z" />
    <glyph glyph-name="uni01EE" unicode="&#x1ee;" horiz-adv-x="524" 
d="M222 -12q-61 0 -116.5 23t-96.5 77l21 18q42 -52 92.5 -71t101.5 -19q56 0 104 21.5t77 60.5t29 92q0 71 -37 108.5t-105 37.5q-30 0 -48.5 -3.5t-39.5 -12.5l-14 26l289 288h-327l6 26h370l-4 -18l-285 -284q69 14 119.5 -2.5t78 -57.5t27.5 -102q0 -63 -32.5 -109.5
t-87.5 -72.5t-122 -26zM334 712l-104 120h30l86 -90h4l136 90h34l-160 -120h-26z" />
    <glyph glyph-name="uni018F" unicode="&#x18f;" horiz-adv-x="610" 
d="M264 -12q-65 0 -110 31t-68.5 85t-23.5 122q0 29 3 50.5t7 45.5h486l-6 -26h-458q-18 -132 30 -207t142 -75q62 0 114 28.5t91.5 80t61 120.5t21.5 149q0 76 -17 133t-55.5 89t-103.5 32q-51 0 -99.5 -23t-86.5 -59l-18 20q41 38 94.5 63t111.5 25q71 0 116 -34.5
t66.5 -96.5t21.5 -143q0 -88 -24.5 -163t-68.5 -130.5t-102 -86t-125 -30.5z" />
    <glyph glyph-name="uniA779" unicode="&#xa779;" horiz-adv-x="623" 
d="M284 -12q-70 0 -119.5 32.5t-76 94t-26.5 147.5q0 89 28.5 163t74 127t95.5 78v4h-160l6 26h244q108 0 171 -68t63 -194q0 -53 -12.5 -110t-37 -110.5t-60.5 -96t-83.5 -68t-106.5 -25.5zM286 14q53 0 96 24t75 64.5t53.5 90.5t32.5 102t11 99q0 116 -51.5 177t-146.5 61
q-55 0 -102.5 -33.5t-84 -88t-57 -118.5t-20.5 -126q0 -120 50 -186t144 -66z" />
    <glyph glyph-name="uniA77B" unicode="&#xa77b;" horiz-adv-x="520" 
d="M12 -140l160 800h28l-16 -88q26 26 61.5 49t74.5 37t73 14q64 0 101.5 -31t37.5 -103q0 -18 -2.5 -40t-7.5 -46l-12 -60l-30 -4l12 60q5 24 7.5 45t2.5 37q0 65 -32 90.5t-85 25.5q-29 0 -68 -16.5t-76.5 -42.5t-64.5 -55l-102 -506h298l-6 -26h-296l-28 -140h-30z" />
    <glyph glyph-name="uniA77D" unicode="&#xa77d;" horiz-adv-x="568" 
d="M212 -150q-60 -1 -106.5 14.5t-73 48t-26.5 81.5q0 52 30.5 97t79 80.5t102.5 58.5v4q-39 29 -65.5 67.5t-26.5 94.5q0 57 22.5 103.5t61.5 79.5t88 49v4h-198l6 28h497l-6 -28h-157q-75 0 -128.5 -21.5t-88 -56t-51 -74.5t-16.5 -78q0 -64 40 -110t134 -84
q83 -33 124.5 -64t41.5 -86q0 -34 -17.5 -70.5t-53 -67t-88.5 -50t-125 -20.5zM214 -124q77 0 133.5 27.5t87.5 68.5t31 80q0 33 -17.5 55t-48.5 38.5t-71 32.5t-85 36q-60 -24 -107 -58t-74 -74.5t-27 -83.5q0 -59 49 -90.5t129 -31.5z" />
    <glyph glyph-name="uniA77E" unicode="&#xa77e;" horiz-adv-x="568" 
d="M366 670q60 1 106.5 -14.5t73 -48t26.5 -81.5q0 -52 -30.5 -97t-79 -80.5t-102.5 -58.5v-4q39 -29 65.5 -67.5t26.5 -94.5q0 -57 -22.5 -103.5t-61.5 -79.5t-88 -49v-4h198l-6 -28h-497l6 28h157q75 0 128.5 21.5t88 56t51 74.5t16.5 78q0 64 -40 110t-134 84
q-83 33 -124.5 64t-41.5 86q0 34 17.5 70.5t53 67t88.5 50t125 20.5zM364 644q-77 0 -133.5 -27.5t-87.5 -68.5t-31 -80q0 -33 17.5 -55t48.5 -38.5t71 -32.5t85 -36q60 24 107 58t74 74.5t27 83.5q0 59 -49 90.5t-129 31.5z" />
    <glyph glyph-name="uniA780" unicode="&#xa780;" horiz-adv-x="432" 
d="M422 660l-132 -660h-30l126 634h-300l6 26h330z" />
    <glyph glyph-name="uniA782" unicode="&#xa782;" horiz-adv-x="512" 
d="M12 -140l160 800h28l-16 -90q47 53 95 77.5t99 24.5q59 0 91.5 -30.5t32.5 -87.5q0 -67 -39.5 -135t-123 -136t-215.5 -135q15 -63 75.5 -97.5t164.5 -34.5q23 0 41 3.5t31 6.5l6 -24q-13 -4 -34.5 -9t-45.5 -5q-120 0 -188 43t-80 131q142 72 224.5 138.5t118 128
t35.5 119.5q0 48 -25.5 73t-70.5 25q-43 0 -94.5 -26t-105.5 -88l-134 -672h-30z" />
    <glyph glyph-name="uniA75A" unicode="&#xa75a;" horiz-adv-x="472" 
d="M322 -12q-120 0 -188 43t-80 131q142 72 224.5 138.5t118 128t35.5 119.5q0 48 -25.5 73t-70.5 25q-42 0 -85 -21.5t-91 -67.5l-15 17q47 47 94 72.5t99 25.5q59 0 91.5 -30.5t32.5 -87.5q0 -67 -39.5 -135t-123 -136t-215.5 -135q15 -63 75.5 -97.5t164.5 -34.5
q23 0 41 3.5t31 6.5l6 -24q-13 -4 -34.5 -9t-45.5 -5z" />
    <glyph glyph-name="uniA784" unicode="&#xa784;" horiz-adv-x="520" 
d="M12 -140l160 800h28l-16 -88q26 26 61.5 49t74.5 37t73 14q64 0 101.5 -31t37.5 -103q0 -18 -2.5 -40t-7.5 -46l-12 -60l-30 -4l12 60q5 24 7.5 45t2.5 37q0 65 -32 90.5t-85 25.5q-29 0 -68 -16.5t-76.5 -42.5t-64.5 -55l-134 -672h-30z" />
    <glyph glyph-name="uniA786" unicode="&#xa786;" horiz-adv-x="492" 
d="M238 -12q-59 0 -99 27t-60.5 75t-20.5 110q0 77 27.5 147t71 128t92 97.5t89.5 55.5v4h-238l6 28h442l-6 -28h-83q-64 0 -120.5 -28t-102.5 -74.5t-79 -103t-51 -114t-18 -106.5q0 -84 36.5 -138t115.5 -54q45 0 82 18t70 46l14 -16q-39 -35 -78 -54.5t-90 -19.5z" />
    <glyph glyph-name="uni0194" unicode="&#x194;" horiz-adv-x="408" 
d="M118 -234q-25 0 -42.5 17t-17.5 47q0 42 30 94.5t76 119.5l-10 -36l-70 652h28l40 -392q5 -54 11.5 -110t10.5 -112h4q27 54 56.5 112t57.5 110l206 392h30l-346 -654l4 36q14 -61 19 -95.5t5 -58.5q0 -35 -10 -62.5t-30.5 -43.5t-51.5 -16zM122 -208q35 0 47.5 30.5
t12.5 69.5q0 55 -12 112h-4q-31 -46 -55.5 -90t-24.5 -80q0 -19 10 -30.5t26 -11.5z" />
    <glyph glyph-name="uni0196" unicode="&#x196;" horiz-adv-x="212" 
d="M84 -8q-15 0 -26.5 9t-11.5 27q0 5 1.5 12t2.5 14l122 606h30l-122 -608q-1 -7 -1.5 -12t-0.5 -8q0 -14 14 -14q3 0 5.5 0.5t8.5 1.5l6 -22q-7 -3 -13 -4.5t-15 -1.5z" />
    <glyph glyph-name="uni039B.l" horiz-adv-x="422" 
d="M304 660l-55 -273l109 -387h-30l-59 215q-10 36 -19.5 71t-19.5 72h-2q-25 -35 -49.5 -71.5t-49.5 -71.5l-151 -215h-32l273 387l55 273h30z" />
    <glyph glyph-name="uni01B1" unicode="&#x1b1;" horiz-adv-x="624" 
d="M662 660l-4 -26h-148v-4q20 -24 39.5 -61t32 -81.5t12.5 -91.5q0 -87 -24.5 -161.5t-68.5 -129.5t-102.5 -86t-126.5 -31t-114.5 31.5t-70 87t-23.5 127.5q0 92 29 166.5t75 132t96 97.5v4h-146l4 26h208l-6 -20q-41 -26 -82 -64.5t-74.5 -89.5t-53.5 -114t-20 -136
q0 -65 20.5 -115t61 -78.5t100.5 -28.5q61 0 113.5 29t92 80.5t61 120t21.5 148.5q0 54 -14.5 102.5t-37.5 86t-50 59.5l4 20h196z" />
    <glyph glyph-name="uniA7B3" unicode="&#xa7b3;" horiz-adv-x="451" 
d="M-66 -188l280 442l-96 406h32l58 -262q6 -28 12 -53t16 -60h3q22 35 37.5 59.5t33.5 53.5l164 262h34l-262 -412l104 -436h-33l-59 274q-7 31 -14.5 63.5t-17.5 70.5h-4q-23 -38 -43.5 -70.5t-40.5 -63.5l-170 -274h-34z" />
    <glyph glyph-name="uni0241" unicode="&#x241;" horiz-adv-x="462" 
d="M148 0l56 278q128 42 183 103t55 131q0 65 -35 99.5t-103 34.5q-60 0 -112 -25t-87 -55l-17 20q36 32 92.5 59t125.5 27q49 0 86.5 -17.5t58.5 -51.5t21 -85q0 -59 -29 -108.5t-83.5 -88t-129.5 -63.5l-52 -258h-30z" />
    <glyph glyph-name="uniA722" unicode="&#xa722;" horiz-adv-x="238" 
d="M20 -12l2 24q57 9 88.5 46t31.5 80q0 39 -30 42h6q-3 -19 -16 -30.5t-30 -11.5q-13 0 -21.5 8.5t-8.5 23.5t8 29t23 22.5t35 8.5q30 0 49 -23t19 -59q0 -37 -18 -71.5t-53 -58.5t-85 -30zM108 428l2 24q57 9 88.5 46t31.5 80q0 39 -30 42h6q-3 -19 -16 -30.5t-30 -11.5
q-13 0 -21.5 8.5t-8.5 23.5t8 29t23 22.5t35 8.5q30 0 49 -23t19 -59q0 -37 -18 -71.5t-53 -58.5t-85 -30z" />
    <glyph glyph-name="uniA724" unicode="&#xa724;" horiz-adv-x="238" 
d="M210 428q-49 6 -74.5 39t-25.5 75q0 38 15 67t39.5 45t53.5 16q23 0 35.5 -12t12.5 -30q0 -21 -12.5 -35.5t-29.5 -14.5q-16 0 -26 10t-10 32h8q-22 -1 -38 -20t-16 -54q0 -34 20 -61t56 -33z" />
    <glyph glyph-name="uni004C00B7004C" horiz-adv-x="864" 
d="M40 0l132 660h30l-126 -634h300l-6 -26h-330zM338 292q-13 0 -20.5 9t-7.5 21q0 11 6 21.5t15.5 17.5t20.5 7q14 0 20 -9t6 -23q0 -11 -5.5 -21t-14.5 -16.5t-20 -6.5zM472 0l132 660h30l-126 -634h300l-6 -26h-330z" />
    <glyph glyph-name="uni01320301" horiz-adv-x="424" 
d="M166 -150q-16 0 -29.5 3.5t-28.5 12.5l12 24q14 -7 23.5 -9.5t24.5 -2.5q30 0 50.5 28t29.5 74l136 680h30l-134 -672q-9 -44 -24 -75t-37 -47t-53 -16zM40 0l132 660h30l-132 -660h-30zM126 710l160 120h48l2 -4l-176 -116h-34zM338 710l160 120h48l2 -4l-176 -116h-34z
" />
    <glyph glyph-name="uni01040301" horiz-adv-x="480" 
d="M182 -214q-31 0 -52.5 16.5t-21.5 49.5q0 28 15.5 57t40.5 55t54 44l12 -16q-42 -28 -67 -64.5t-25 -69.5q0 -21 13.5 -33.5t34.5 -12.5q26 0 56 22l12 -16q-18 -16 -35 -24t-37 -8zM-42 0l362 660h30l84 -660h-30l-48 396q-6 56 -13 113t-13 117h-4q-30 -61 -60 -116
t-62 -114l-216 -396h-30zM104 238l8 26h280l-6 -26h-282zM259 710l160 120h48l2 -4l-176 -116h-34z" />
    <glyph glyph-name="uni01180301" horiz-adv-x="484" 
d="M206 -214q-31 0 -52.5 16.5t-21.5 49.5q0 29 15 57t37 51.5t42 39.5h-186l132 660h342l-6 -26h-312l-54 -270h264l-6 -26h-262l-64 -312h322l-6 -26h-114q-13 0 -32.5 -13.5t-38 -35t-31 -46t-12.5 -47.5q0 -21 13.5 -33.5t34.5 -12.5q26 0 56 22l12 -16q-18 -16 -35 -24
t-37 -8zM264 710l160 120h48l2 -4l-176 -116h-34z" />
    <glyph glyph-name="uni012E0301" horiz-adv-x="212" 
d="M22 -214q-31 0 -52.5 16.5t-21.5 49.5q0 29 15 57t37 51.5t42 39.5h-2l132 660h30l-132 -660q-33 -30 -62.5 -66.5t-29.5 -75.5q0 -21 13.5 -33.5t34.5 -12.5q26 0 56 22l12 -16q-18 -16 -35 -24t-37 -8zM126 710l160 120h48l2 -4l-176 -116h-34z" />
    <glyph glyph-name="uni01EA0301" horiz-adv-x="612" 
d="M222 -214q-31 0 -52.5 16.5t-21.5 49.5q0 27 13.5 54.5t38 52t56.5 41.5l18 -12q-72 0 -119 35t-70 97t-23 142q0 53 13 110t39 110.5t63.5 96t86.5 68t108 25.5q72 0 119 -35t70 -97t23 -142q0 -60 -17.5 -127t-52.5 -127.5t-87 -102t-121 -51.5q-42 -6 -70.5 -29.5
t-43 -52t-14.5 -50.5q0 -21 13.5 -33.5t34.5 -12.5q26 0 56 22l12 -16q-18 -16 -35 -24t-37 -8zM276 14q54 0 98 24t77.5 64.5t56.5 90.5t34.5 102t11.5 99q0 74 -19 131t-59.5 89t-105.5 32q-54 0 -98 -24t-77.5 -64.5t-56.5 -90.5t-34.5 -102t-11.5 -99q0 -74 19 -131
t59.5 -89t105.5 -32zM311 710l160 120h48l2 -4l-176 -116h-34z" />
    <glyph glyph-name="uni01720301" horiz-adv-x="594" 
d="M212 -214q-31 0 -52.5 16.5t-21.5 49.5t18 62.5t46 52t58 33.5l8 -12q-87 0 -136.5 50.5t-49.5 141.5q0 20 2 39t6 43l80 398h30l-78 -390q-6 -24 -8 -44t-2 -38q0 -82 40.5 -128t119.5 -46q44 0 83.5 20t69.5 69t47 135l84 422h30l-86 -430q-23 -115 -69.5 -169
t-120.5 -71q-48 -11 -79.5 -33t-47 -48.5t-15.5 -50.5q0 -21 13.5 -33.5t34.5 -12.5q15 0 27.5 5t28.5 17l12 -16q-18 -16 -35 -24t-37 -8zM320 710l160 120h48l2 -4l-176 -116h-34z" />
    <glyph glyph-name="uni01900328" horiz-adv-x="524" 
d="M176 -214q-31 0 -52.5 16.5t-21.5 49.5q0 32 14 59.5t39.5 50t60.5 38.5l-6 -12q-87 0 -137.5 41t-50.5 111q0 45 19 80.5t50 62t67 44t70 25.5v4q-23 7 -45.5 25t-37.5 45.5t-15 63.5q0 53 29 94t77.5 64.5t104.5 23.5q61 0 105.5 -27.5t60.5 -68.5l-22 -10
q-19 38 -56 59t-90 21q-48 0 -89 -19.5t-65.5 -54.5t-24.5 -80q0 -53 40 -90.5t136 -37.5h40l-4 -26h-58q-71 0 -130.5 -26.5t-95.5 -70t-36 -95.5q0 -63 43.5 -97.5t116.5 -34.5q66 0 121 24.5t103 65.5l14 -16q-28 -25 -56 -43.5t-59.5 -31.5t-70.5 -21
q-43 -9 -72.5 -32.5t-44.5 -51.5t-15 -50q0 -21 13.5 -33.5t34.5 -12.5q26 0 56 22l12 -16q-18 -16 -35 -24t-37 -8z" />
    <glyph glyph-name="uni019B.c" horiz-adv-x="422" 
d="M78 514l6 22l78 4h284l-6 -26h-362zM304 660l-55 -273l109 -387h-30l-59 215q-10 36 -19 71t-20 72h-2q-25 -35 -49.5 -71.5t-49.5 -71.5l-151 -215h-32l273 387l55 273h30z" />
    <glyph glyph-name="agrave" unicode="&#xe0;" horiz-adv-x="524" 
d="M186 -12q-63 0 -101.5 44t-38.5 128q0 69 21.5 129t59 105t84 70.5t95.5 25.5q44 0 75.5 -22t50.5 -58h4l18 68h24l-96 -478h-24l12 78h-4q-37 -39 -83 -64.5t-97 -25.5zM188 14q50 0 97.5 28.5t92.5 79.5l52 250q-28 50 -59 71t-67 21q-45 0 -86.5 -25.5t-73.5 -68
t-51 -95.5t-19 -109q0 -76 31 -114t83 -38zM374 570l-124 146l2 4h32l116 -150h-26z" />
    <glyph glyph-name="aacute" unicode="&#xe1;" horiz-adv-x="524" 
d="M186 -12q-63 0 -101.5 44t-38.5 128q0 69 21.5 129t59 105t84 70.5t95.5 25.5q44 0 75.5 -22t50.5 -58h4l18 68h24l-96 -478h-24l12 78h-4q-37 -39 -83 -64.5t-97 -25.5zM188 14q50 0 97.5 28.5t92.5 79.5l52 250q-28 50 -59 71t-67 21q-45 0 -86.5 -25.5t-73.5 -68
t-51 -95.5t-19 -109q0 -76 31 -114t83 -38zM250 570l160 150h38l2 -4l-170 -146h-30z" />
    <glyph glyph-name="acircumflex" unicode="&#xe2;" horiz-adv-x="524" 
d="M186 -12q-63 0 -101.5 44t-38.5 128q0 69 21.5 129t59 105t84 70.5t95.5 25.5q44 0 75.5 -22t50.5 -58h4l18 68h24l-96 -478h-24l12 78h-4q-37 -39 -83 -64.5t-97 -25.5zM188 14q50 0 97.5 28.5t92.5 79.5l52 250q-28 50 -59 71t-67 21q-45 0 -86.5 -25.5t-73.5 -68
t-51 -95.5t-19 -109q0 -76 31 -114t83 -38zM180 570l160 154h20l100 -154h-26l-86 120h-4l-134 -120h-30z" />
    <glyph glyph-name="atilde" unicode="&#xe3;" horiz-adv-x="524" 
d="M186 -12q-63 0 -101.5 44t-38.5 128q0 69 21.5 129t59 105t84 70.5t95.5 25.5q44 0 75.5 -22t50.5 -58h4l18 68h24l-96 -478h-24l12 78h-4q-37 -39 -83 -64.5t-97 -25.5zM188 14q50 0 97.5 28.5t92.5 79.5l52 250q-28 50 -59 71t-67 21q-45 0 -86.5 -25.5t-73.5 -68
t-51 -95.5t-19 -109q0 -76 31 -114t83 -38zM408 580q-27 0 -43 15.5t-27.5 35.5t-25.5 35.5t-36 15.5q-28 0 -45.5 -29.5t-26.5 -70.5l-26 2q7 29 19 57t32.5 46.5t50.5 18.5q27 0 43 -15.5t27.5 -35.5t25.5 -35.5t36 -15.5q29 0 46 30t26 70l26 -2q-7 -28 -19 -56t-32 -47
t-51 -19z" />
    <glyph glyph-name="adieresis" unicode="&#xe4;" horiz-adv-x="524" 
d="M186 -12q-63 0 -101.5 44t-38.5 128q0 69 21.5 129t59 105t84 70.5t95.5 25.5q44 0 75.5 -22t50.5 -58h4l18 68h24l-96 -478h-24l12 78h-4q-37 -39 -83 -64.5t-97 -25.5zM188 14q50 0 97.5 28.5t92.5 79.5l52 250q-28 50 -59 71t-67 21q-45 0 -86.5 -25.5t-73.5 -68
t-51 -95.5t-19 -109q0 -76 31 -114t83 -38zM250 602q-12 0 -19 7t-7 19q0 17 10 27.5t22 10.5t19 -7t7 -21q0 -15 -10 -25.5t-22 -10.5zM416 602q-12 0 -19 7t-7 19q0 17 10 27.5t22 10.5t19 -7t7 -21q0 -15 -10 -25.5t-22 -10.5z" />
    <glyph glyph-name="aring" unicode="&#xe5;" horiz-adv-x="524" 
d="M186 -12q-63 0 -101.5 44t-38.5 128q0 69 21.5 129t59 105t84 70.5t95.5 25.5q44 0 75.5 -22t50.5 -58h4l18 68h24l-96 -478h-24l12 78h-4q-37 -39 -83 -64.5t-97 -25.5zM188 14q50 0 97.5 28.5t92.5 79.5l52 250q-28 50 -59 71t-67 21q-45 0 -86.5 -25.5t-73.5 -68
t-51 -95.5t-19 -109q0 -76 31 -114t83 -38zM326 548q-31 0 -55.5 20.5t-24.5 59.5q0 42 28.5 73t73.5 31q31 0 55.5 -20.5t24.5 -59.5q0 -42 -28.5 -73t-73.5 -31zM328 570q30 0 52 23.5t22 56.5q0 27 -16 43.5t-40 16.5q-30 0 -52 -23.5t-22 -56.5q0 -27 16 -43.5t40 -16.5
z" />
    <glyph glyph-name="amacron" unicode="&#x101;" horiz-adv-x="524" 
d="M186 -12q-63 0 -101.5 44t-38.5 128q0 69 21.5 129t59 105t84 70.5t95.5 25.5q44 0 75.5 -22t50.5 -58h4l18 68h24l-96 -478h-24l12 78h-4q-37 -39 -83 -64.5t-97 -25.5zM188 14q50 0 97.5 28.5t92.5 79.5l52 250q-28 50 -59 71t-67 21q-45 0 -86.5 -25.5t-73.5 -68
t-51 -95.5t-19 -109q0 -76 31 -114t83 -38zM214 610l4 26h232l-4 -26h-232z" />
    <glyph glyph-name="abreve" unicode="&#x103;" horiz-adv-x="524" 
d="M186 -12q-63 0 -101.5 44t-38.5 128q0 69 21.5 129t59 105t84 70.5t95.5 25.5q44 0 75.5 -22t50.5 -58h4l18 68h24l-96 -478h-24l12 78h-4q-37 -39 -83 -64.5t-97 -25.5zM188 14q50 0 97.5 28.5t92.5 79.5l52 250q-28 50 -59 71t-67 21q-45 0 -86.5 -25.5t-73.5 -68
t-51 -95.5t-19 -109q0 -76 31 -114t83 -38zM320 570q-49 0 -74.5 22.5t-34.5 56.5t-9 67l26 2q0 -30 8.5 -58t29.5 -46t60 -18q37 0 65.5 19t48 47.5t28.5 57.5l26 -4q-9 -31 -30.5 -65t-57 -57.5t-86.5 -23.5z" />
    <glyph glyph-name="uni0227" unicode="&#x227;" horiz-adv-x="524" 
d="M186 -12q-63 0 -101.5 44t-38.5 128q0 69 21.5 129t59 105t84 70.5t95.5 25.5q44 0 75.5 -22t50.5 -58h4l18 68h24l-96 -478h-24l12 78h-4q-37 -39 -83 -64.5t-97 -25.5zM188 14q50 0 97.5 28.5t92.5 79.5l52 250q-28 50 -59 71t-67 21q-45 0 -86.5 -25.5t-73.5 -68
t-51 -95.5t-19 -109q0 -76 31 -114t83 -38zM330 600q-12 0 -20 8t-8 20q0 18 11.5 29t24.5 11q12 0 20 -8t8 -22q0 -16 -11 -27t-25 -11z" />
    <glyph glyph-name="uni01CE" unicode="&#x1ce;" horiz-adv-x="524" 
d="M186 -12q-63 0 -101.5 44t-38.5 128q0 69 21.5 129t59 105t84 70.5t95.5 25.5q44 0 75.5 -22t50.5 -58h4l18 68h24l-96 -478h-24l12 78h-4q-37 -39 -83 -64.5t-97 -25.5zM188 14q50 0 97.5 28.5t92.5 79.5l52 250q-28 50 -59 71t-67 21q-45 0 -86.5 -25.5t-73.5 -68
t-51 -95.5t-19 -109q0 -76 31 -114t83 -38zM310 570l-100 154h26l86 -120h4l134 120h30l-160 -154h-20z" />
    <glyph glyph-name="uni0201" unicode="&#x201;" horiz-adv-x="524" 
d="M186 -12q-63 0 -101.5 44t-38.5 128q0 69 21.5 129t59 105t84 70.5t95.5 25.5q44 0 75.5 -22t50.5 -58h4l18 68h24l-96 -478h-24l12 78h-4q-37 -39 -83 -64.5t-97 -25.5zM188 14q50 0 97.5 28.5t92.5 79.5l52 250q-28 50 -59 71t-67 21q-45 0 -86.5 -25.5t-73.5 -68
t-51 -95.5t-19 -109q0 -76 31 -114t83 -38zM254 570l-84 146l2 4h32l76 -150h-26zM404 570l-84 146l2 4h32l76 -150h-26z" />
    <glyph glyph-name="aogonek" unicode="&#x105;" horiz-adv-x="524" 
d="M328 -212q-30 0 -50 17t-20 51q0 30 15.5 59.5t39 54t47.5 40.5l10 68h-4q-37 -39 -83 -64.5t-97 -25.5q-63 0 -101.5 44t-38.5 128q0 69 21.5 129t59 105t84 70.5t95.5 25.5q44 0 75.5 -22t50.5 -58h4l18 68h24l-96 -478q-39 -27 -66.5 -63.5t-27.5 -74.5
q0 -22 12.5 -35t31.5 -13q15 0 27.5 5t28.5 17l12 -16q-18 -16 -35 -24t-37 -8zM188 14q50 0 97.5 28.5t92.5 79.5l52 250q-28 50 -59 71t-67 21q-45 0 -86.5 -25.5t-73.5 -68t-51 -95.5t-19 -109q0 -76 31 -114t83 -38z" />
    <glyph glyph-name="aogonek.d" horiz-adv-x="524" 
d="M192 -212q-30 0 -50 17t-20 51q0 27 14 54.5t37.5 52t50.5 41.5l8 -10q-13 -3 -23.5 -4.5t-22.5 -1.5q-63 0 -101.5 44t-38.5 128q0 69 21.5 129t59 105t84 70.5t95.5 25.5q44 0 75.5 -22t50.5 -58h4l18 68h24l-96 -478h-24l12 78h-4q-25 -27 -53.5 -46t-60.5 -36
q-46 -24 -73 -61.5t-27 -72.5q0 -22 12.5 -35t31.5 -13q26 0 56 22l12 -16q-18 -16 -35 -24t-37 -8zM188 14q50 0 97.5 28.5t92.5 79.5l52 250q-28 50 -59 71t-67 21q-45 0 -86.5 -25.5t-73.5 -68t-51 -95.5t-19 -109q0 -76 31 -114t83 -38z" />
    <glyph glyph-name="uni1EA1" unicode="&#x1ea1;" horiz-adv-x="524" 
d="M186 -12q-63 0 -101.5 44t-38.5 128q0 69 21.5 129t59 105t84 70.5t95.5 25.5q44 0 75.5 -22t50.5 -58h4l18 68h24l-96 -478h-24l12 78h-4q-37 -39 -83 -64.5t-97 -25.5zM188 14q50 0 97.5 28.5t92.5 79.5l52 250q-28 50 -59 71t-67 21q-45 0 -86.5 -25.5t-73.5 -68
t-51 -95.5t-19 -109q0 -76 31 -114t83 -38zM194 -192q-12 0 -20 8t-8 20q0 18 11.5 29t24.5 11q12 0 20 -8t8 -22q0 -16 -11 -27t-25 -11z" />
    <glyph glyph-name="uni1EA3" unicode="&#x1ea3;" horiz-adv-x="524" 
d="M186 -12q-63 0 -101.5 44t-38.5 128q0 69 21.5 129t59 105t84 70.5t95.5 25.5q44 0 75.5 -22t50.5 -58h4l18 68h24l-96 -478h-24l12 78h-4q-37 -39 -83 -64.5t-97 -25.5zM188 14q50 0 97.5 28.5t92.5 79.5l52 250q-28 50 -59 71t-67 21q-45 0 -86.5 -25.5t-73.5 -68
t-51 -95.5t-19 -109q0 -76 31 -114t83 -38zM294 558l-6 22q41 12 59.5 33t18.5 45q0 27 -19.5 40t-52.5 14l6 24q38 -1 66 -17.5t28 -54.5q0 -36 -24.5 -64t-75.5 -42z" />
    <glyph glyph-name="uni1EA5" unicode="&#x1ea5;" horiz-adv-x="524" 
d="M186 -12q-63 0 -101.5 44t-38.5 128q0 69 21.5 129t59 105t84 70.5t95.5 25.5q44 0 75.5 -22t50.5 -58h4l18 68h24l-96 -478h-24l12 78h-4q-37 -39 -83 -64.5t-97 -25.5zM188 14q50 0 97.5 28.5t92.5 79.5l52 250q-28 50 -59 71t-67 21q-45 0 -86.5 -25.5t-73.5 -68
t-51 -95.5t-19 -109q0 -76 31 -114t83 -38zM180 570l150 114h20l110 -114h-26l-96 80h-4l-124 -80h-30zM420 650l112 100h36l2 -4l-120 -96h-30z" />
    <glyph glyph-name="uni1EA7" unicode="&#x1ea7;" horiz-adv-x="524" 
d="M186 -12q-63 0 -101.5 44t-38.5 128q0 69 21.5 129t59 105t84 70.5t95.5 25.5q44 0 75.5 -22t50.5 -58h4l18 68h24l-96 -478h-24l12 78h-4q-37 -39 -83 -64.5t-97 -25.5zM188 14q50 0 97.5 28.5t92.5 79.5l52 250q-28 50 -59 71t-67 21q-45 0 -86.5 -25.5t-73.5 -68
t-51 -95.5t-19 -109q0 -76 31 -114t83 -38zM180 570l150 114h20l110 -114h-26l-96 80h-4l-124 -80h-30zM236 650l-86 96l2 4h32l76 -100h-24z" />
    <glyph glyph-name="uni1EA9" unicode="&#x1ea9;" horiz-adv-x="524" 
d="M186 -12q-63 0 -101.5 44t-38.5 128q0 69 21.5 129t59 105t84 70.5t95.5 25.5q44 0 75.5 -22t50.5 -58h4l18 68h24l-96 -478h-24l12 78h-4q-37 -39 -83 -64.5t-97 -25.5zM188 14q50 0 97.5 28.5t92.5 79.5l52 250q-28 50 -59 71t-67 21q-45 0 -86.5 -25.5t-73.5 -68
t-51 -95.5t-19 -109q0 -76 31 -114t83 -38zM442 648l-6 22q30 9 45 22.5t15 35.5q0 18 -17.5 27.5t-50.5 10.5l6 24q35 -1 62.5 -14.5t27.5 -43.5t-21.5 -52.5t-60.5 -31.5zM180 570l150 114h20l110 -114h-26l-96 80h-4l-124 -80h-30z" />
    <glyph glyph-name="uni1EAB" unicode="&#x1eab;" horiz-adv-x="524" 
d="M186 -12q-63 0 -101.5 44t-38.5 128q0 69 21.5 129t59 105t84 70.5t95.5 25.5q44 0 75.5 -22t50.5 -58h4l18 68h24l-96 -478h-24l12 78h-4q-37 -39 -83 -64.5t-97 -25.5zM188 14q50 0 97.5 28.5t92.5 79.5l52 250q-28 50 -59 71t-67 21q-45 0 -86.5 -25.5t-73.5 -68
t-51 -95.5t-19 -109q0 -76 31 -114t83 -38zM418 706q-29 0 -50.5 10.5t-41 21t-42.5 10.5q-17 0 -26.5 -11.5t-15.5 -34.5l-24 2q5 24 22 47t50 23q29 0 50 -10.5t40 -21t42 -10.5q17 0 26.5 12t15.5 34l24 -2q-4 -24 -20.5 -47t-49.5 -23zM180 570l150 114h20l110 -114h-26
l-96 80h-4l-124 -80h-30z" />
    <glyph glyph-name="uni1EAD" unicode="&#x1ead;" horiz-adv-x="524" 
d="M186 -12q-63 0 -101.5 44t-38.5 128q0 69 21.5 129t59 105t84 70.5t95.5 25.5q44 0 75.5 -22t50.5 -58h4l18 68h24l-96 -478h-24l12 78h-4q-37 -39 -83 -64.5t-97 -25.5zM188 14q50 0 97.5 28.5t92.5 79.5l52 250q-28 50 -59 71t-67 21q-45 0 -86.5 -25.5t-73.5 -68
t-51 -95.5t-19 -109q0 -76 31 -114t83 -38zM180 570l160 154h20l100 -154h-26l-86 120h-4l-134 -120h-30zM194 -192q-12 0 -20 8t-8 20q0 18 11.5 29t24.5 11q12 0 20 -8t8 -22q0 -16 -11 -27t-25 -11z" />
    <glyph glyph-name="uni1EAF" unicode="&#x1eaf;" horiz-adv-x="524" 
d="M186 -12q-63 0 -101.5 44t-38.5 128q0 69 21.5 129t59 105t84 70.5t95.5 25.5q44 0 75.5 -22t50.5 -58h4l18 68h24l-96 -478h-24l12 78h-4q-37 -39 -83 -64.5t-97 -25.5zM188 14q50 0 97.5 28.5t92.5 79.5l52 250q-28 50 -59 71t-67 21q-45 0 -86.5 -25.5t-73.5 -68
t-51 -95.5t-19 -109q0 -76 31 -114t83 -38zM363 570q-49 0 -74.5 22.5t-34.5 56.5t-9 67l26 2q0 -30 8.5 -58t29.5 -46t60 -18q37 0 65.5 19t48 47.5t28.5 57.5l26 -4q-9 -31 -30.5 -65t-57 -57.5t-86.5 -23.5zM343 700l112 100h36l2 -4l-120 -96h-30z" />
    <glyph glyph-name="uni1EB1" unicode="&#x1eb1;" horiz-adv-x="524" 
d="M186 -12q-63 0 -101.5 44t-38.5 128q0 69 21.5 129t59 105t84 70.5t95.5 25.5q44 0 75.5 -22t50.5 -58h4l18 68h24l-96 -478h-24l12 78h-4q-37 -39 -83 -64.5t-97 -25.5zM188 14q50 0 97.5 28.5t92.5 79.5l52 250q-28 50 -59 71t-67 21q-45 0 -86.5 -25.5t-73.5 -68
t-51 -95.5t-19 -109q0 -76 31 -114t83 -38zM363 570q-49 0 -74.5 22.5t-34.5 56.5t-9 67l26 2q0 -30 8.5 -58t29.5 -46t60 -18q37 0 65.5 19t48 47.5t28.5 57.5l26 -4q-9 -31 -30.5 -65t-57 -57.5t-86.5 -23.5zM409 700l-86 96l2 4h32l76 -100h-24z" />
    <glyph glyph-name="uni1EB3" unicode="&#x1eb3;" horiz-adv-x="524" 
d="M186 -12q-63 0 -101.5 44t-38.5 128q0 69 21.5 129t59 105t84 70.5t95.5 25.5q44 0 75.5 -22t50.5 -58h4l18 68h24l-96 -478h-24l12 78h-4q-37 -39 -83 -64.5t-97 -25.5zM188 14q50 0 97.5 28.5t92.5 79.5l52 250q-28 50 -59 71t-67 21q-45 0 -86.5 -25.5t-73.5 -68
t-51 -95.5t-19 -109q0 -76 31 -114t83 -38zM363 570q-49 0 -74.5 22.5t-34.5 56.5t-9 67l26 2q0 -30 8.5 -58t29.5 -46t60 -18q37 0 65.5 19t48 47.5t28.5 57.5l26 -4q-9 -31 -30.5 -65t-57 -57.5t-86.5 -23.5zM363 670l-6 22q36 8 56 23.5t20 36.5t-19 30t-57 10l6 24
q39 -1 68.5 -14.5t29.5 -43.5q0 -34 -28.5 -56.5t-69.5 -31.5z" />
    <glyph glyph-name="uni1EB5" unicode="&#x1eb5;" horiz-adv-x="524" 
d="M186 -12q-63 0 -101.5 44t-38.5 128q0 69 21.5 129t59 105t84 70.5t95.5 25.5q44 0 75.5 -22t50.5 -58h4l18 68h24l-96 -478h-24l12 78h-4q-37 -39 -83 -64.5t-97 -25.5zM188 14q50 0 97.5 28.5t92.5 79.5l52 250q-28 50 -59 71t-67 21q-45 0 -86.5 -25.5t-73.5 -68
t-51 -95.5t-19 -109q0 -76 31 -114t83 -38zM362 570q-47 0 -72.5 16.5t-35 40t-8.5 45.5l26 4q-1 -28 21 -54t74 -26t84 26t41 54l26 -4q-7 -22 -26 -45.5t-51 -40t-79 -16.5zM460 700q-23 0 -40 8t-30.5 19t-28 19t-33.5 8q-42 0 -54 -52l-24 2q6 27 25 51.5t55 24.5
q23 0 40 -8t30.5 -19t28 -19t33.5 -8q42 0 54 52l24 -2q-6 -27 -25 -51.5t-55 -24.5z" />
    <glyph glyph-name="uni1EB7" unicode="&#x1eb7;" horiz-adv-x="524" 
d="M186 -12q-63 0 -101.5 44t-38.5 128q0 69 21.5 129t59 105t84 70.5t95.5 25.5q44 0 75.5 -22t50.5 -58h4l18 68h24l-96 -478h-24l12 78h-4q-37 -39 -83 -64.5t-97 -25.5zM188 14q50 0 97.5 28.5t92.5 79.5l52 250q-28 50 -59 71t-67 21q-45 0 -86.5 -25.5t-73.5 -68
t-51 -95.5t-19 -109q0 -76 31 -114t83 -38zM320 570q-49 0 -74.5 22.5t-34.5 56.5t-9 67l26 2q0 -30 8.5 -58t29.5 -46t60 -18q37 0 65.5 19t48 47.5t28.5 57.5l26 -4q-9 -31 -30.5 -65t-57 -57.5t-86.5 -23.5zM194 -192q-12 0 -20 8t-8 20q0 18 11.5 29t24.5 11q12 0 20 -8
t8 -22q0 -16 -11 -27t-25 -11z" />
    <glyph glyph-name="aringacute" unicode="&#x1fb;" horiz-adv-x="524" 
d="M186 -12q-63 0 -101.5 44t-38.5 128q0 69 21.5 129t59 105t84 70.5t95.5 25.5q44 0 75.5 -22t50.5 -58h4l18 68h24l-96 -478h-24l12 78h-4q-37 -39 -83 -64.5t-97 -25.5zM188 14q50 0 97.5 28.5t92.5 79.5l52 250q-28 50 -59 71t-67 21q-45 0 -86.5 -25.5t-73.5 -68
t-51 -95.5t-19 -109q0 -76 31 -114t83 -38zM326 548q-31 0 -55.5 19t-24.5 55q0 26 9 43.5t28.5 34t50.5 38.5l88 62h36l2 -4l-116 -78l4 4q32 0 56 -19t24 -57q0 -39 -28.5 -68.5t-73.5 -29.5zM328 570q30 0 52 22t22 52q0 26 -16 41t-40 15q-30 0 -52 -22t-22 -54
q0 -24 15.5 -39t40.5 -15z" />
    <glyph glyph-name="ae" unicode="&#xe6;" horiz-adv-x="766" 
d="M158 -12q-46 0 -82 28.5t-36 85.5q0 66 41 107t115 61t174 24q5 20 6.5 33.5t1.5 28.5q0 51 -22 79.5t-76 28.5q-31 0 -70.5 -13t-71.5 -33l-14 22q33 20 75.5 35t82.5 15q54 0 87.5 -29t36.5 -89q35 54 83 86t99 32t82.5 -21.5t45.5 -59.5t14 -87q0 -16 -1.5 -30.5
t-4.5 -27t-6 -22.5h-328q-13 -66 0.5 -117.5t47.5 -81t84 -29.5q41 0 70 12.5t56 31.5l14 -18q-27 -21 -61 -36.5t-81 -15.5q-52 0 -93.5 31t-56.5 77q-51 -51 -104.5 -79.5t-107.5 -28.5zM164 14q39 0 91.5 26.5t106.5 81.5q-6 42 -4.5 74t8.5 72q-89 -2 -156 -19.5
t-104.5 -52.5t-37.5 -88q0 -46 28 -70t68 -24zM396 268h300q3 15 4.5 29.5t1.5 30.5q0 34 -11 65t-36.5 51t-68.5 20q-39 0 -78 -25.5t-69 -69.5t-43 -101z" />
    <glyph glyph-name="aeacute" unicode="&#x1fd;" horiz-adv-x="766" 
d="M158 -12q-46 0 -82 28.5t-36 85.5q0 66 41 107t115 61t174 24q5 20 6.5 33.5t1.5 28.5q0 51 -22 79.5t-76 28.5q-31 0 -70.5 -13t-71.5 -33l-14 22q33 20 75.5 35t82.5 15q54 0 87.5 -29t36.5 -89q35 54 83 86t99 32t82.5 -21.5t45.5 -59.5t14 -87q0 -16 -1.5 -30.5
t-4.5 -27t-6 -22.5h-328q-13 -66 0.5 -117.5t47.5 -81t84 -29.5q41 0 70 12.5t56 31.5l14 -18q-27 -21 -61 -36.5t-81 -15.5q-52 0 -93.5 31t-56.5 77q-51 -51 -104.5 -79.5t-107.5 -28.5zM164 14q39 0 91.5 26.5t106.5 81.5q-6 42 -4.5 74t8.5 72q-89 -2 -156 -19.5
t-104.5 -52.5t-37.5 -88q0 -46 28 -70t68 -24zM396 268h300q3 15 4.5 29.5t1.5 30.5q0 34 -11 65t-36.5 51t-68.5 20q-39 0 -78 -25.5t-69 -69.5t-43 -101zM376 590l160 150h38l2 -4l-170 -146h-30z" />
    <glyph glyph-name="uni01E3" unicode="&#x1e3;" horiz-adv-x="766" 
d="M158 -12q-46 0 -82 28.5t-36 85.5q0 66 41 107t115 61t174 24q5 20 6.5 33.5t1.5 28.5q0 51 -22 79.5t-76 28.5q-31 0 -70.5 -13t-71.5 -33l-14 22q33 20 75.5 35t82.5 15q54 0 87.5 -29t36.5 -89q35 54 83 86t99 32t82.5 -21.5t45.5 -59.5t14 -87q0 -16 -1.5 -30.5
t-4.5 -27t-6 -22.5h-328q-13 -66 0.5 -117.5t47.5 -81t84 -29.5q41 0 70 12.5t56 31.5l14 -18q-27 -21 -61 -36.5t-81 -15.5q-52 0 -93.5 31t-56.5 77q-51 -51 -104.5 -79.5t-107.5 -28.5zM164 14q39 0 91.5 26.5t106.5 81.5q-6 42 -4.5 74t8.5 72q-89 -2 -156 -19.5
t-104.5 -52.5t-37.5 -88q0 -46 28 -70t68 -24zM396 268h300q3 15 4.5 29.5t1.5 30.5q0 34 -11 65t-36.5 51t-68.5 20q-39 0 -78 -25.5t-69 -69.5t-43 -101zM340 630l4 26h232l-4 -26h-232z" />
    <glyph glyph-name="uni2C65" unicode="&#x2c65;" horiz-adv-x="524" 
d="M98 -40l-22 12l332 546l22 -12zM186 -12q-63 0 -101.5 44t-38.5 128q0 69 21.5 129t59 105t84 70.5t95.5 25.5q44 0 75.5 -22t50.5 -58h4l18 68h24l-96 -478h-24l12 78h-4q-37 -39 -83 -64.5t-97 -25.5zM188 14q50 0 97.5 28.5t92.5 79.5l52 250q-28 50 -59 71t-67 21
q-45 0 -86.5 -25.5t-73.5 -68t-51 -95.5t-19 -109q0 -76 31 -114t83 -38z" />
    <glyph glyph-name="uni0180" unicode="&#x180;" horiz-adv-x="542" 
d="M236 -12q-43 0 -74.5 22t-51.5 58h-4l-18 -68h-24l144 722h28l-48 -236l-20 -98h2q39 32 85 57t97 25q63 0 101.5 -41.5t38.5 -120.5q0 -67 -21 -125t-57.5 -102t-82 -68.5t-95.5 -24.5zM238 14q45 0 85.5 24.5t72.5 66t50 92.5t18 105q0 71 -30.5 106.5t-83.5 35.5
q-42 0 -93 -26.5t-95 -65.5l-50 -246q29 -49 59.5 -70.5t66.5 -21.5zM88 584l4 22l94 4h214l-6 -26h-306z" />
    <glyph glyph-name="uni0253" unicode="&#x253;" horiz-adv-x="522" 
d="M216 -12q-43 0 -74.5 22t-51.5 58h-4l-18 -68h-24l118 594q10 50 30.5 81t47.5 45t58 14q27 0 45.5 -7t34.5 -19l-14 -20q-13 9 -29 14.5t-39 5.5q-42 0 -68.5 -31.5t-37.5 -82.5l-18 -88l-20 -98h2q39 32 85 57t97 25q63 0 101.5 -44t38.5 -128q0 -69 -21.5 -129
t-59 -105t-83.5 -70.5t-96 -25.5zM218 14q45 0 86.5 25.5t73.5 68t51 96t19 108.5q0 76 -30.5 114t-83.5 38q-42 0 -93 -26.5t-95 -65.5l-54 -266q29 -49 59.5 -70.5t66.5 -21.5z" />
    <glyph glyph-name="uni1E03" unicode="&#x1e03;" horiz-adv-x="522" 
d="M216 -12q-43 0 -74.5 22t-51.5 58h-4l-18 -68h-24l144 722h28l-44 -216l-20 -98h2q39 32 85 57t97 25q63 0 101.5 -44t38.5 -128q0 -69 -21.5 -129t-59 -105t-83.5 -70.5t-96 -25.5zM218 14q45 0 86.5 25.5t73.5 68t51 96t19 108.5q0 76 -30.5 114t-83.5 38
q-42 0 -93 -26.5t-95 -65.5l-54 -266q29 -49 59.5 -70.5t66.5 -21.5zM360 600q-12 0 -20 8t-8 20q0 18 11.5 29t24.5 11q12 0 20 -8t8 -22q0 -16 -11 -27t-25 -11z" />
    <glyph glyph-name="uni1E07" unicode="&#x1e07;" horiz-adv-x="522" 
d="M216 -12q-43 0 -74.5 22t-51.5 58h-4l-18 -68h-24l144 722h28l-44 -216l-20 -98h2q39 32 85 57t97 25q63 0 101.5 -44t38.5 -128q0 -69 -21.5 -129t-59 -105t-83.5 -70.5t-96 -25.5zM218 14q45 0 86.5 25.5t73.5 68t51 96t19 108.5q0 76 -30.5 114t-83.5 38
q-42 0 -93 -26.5t-95 -65.5l-54 -266q29 -49 59.5 -70.5t66.5 -21.5zM84 -152l4 26h232l-4 -26h-232z" />
    <glyph glyph-name="ccedilla" unicode="&#xe7;" horiz-adv-x="428" 
d="M210 -12q-51 0 -88.5 22t-57.5 64t-20 102q0 71 22 128.5t58.5 99t82 64t91.5 22.5q42 0 71.5 -15.5t48.5 -42.5l-18 -14q-19 24 -43.5 35t-60.5 11q-42 0 -82 -22.5t-72 -61.5t-51 -90t-19 -108q0 -82 35 -125t105 -43q35 0 71.5 15.5t60.5 34.5l14 -18
q-24 -21 -62.5 -39.5t-85.5 -18.5zM82 -216l-2 24q62 2 93 18.5t31 41.5q0 23 -17 33t-51 13l56 88h28l-42 -70q35 -9 45.5 -22t10.5 -34q0 -43 -42 -66.5t-110 -25.5z" />
    <glyph glyph-name="cacute" unicode="&#x107;" horiz-adv-x="428" 
d="M210 -12q-51 0 -88.5 22t-57.5 64t-20 102q0 71 22 128.5t58.5 99t82 64t91.5 22.5q42 0 71.5 -15.5t48.5 -42.5l-18 -14q-19 24 -43.5 35t-60.5 11q-42 0 -82 -22.5t-72 -61.5t-51 -90t-19 -108q0 -82 35 -125t105 -43q35 0 71.5 15.5t60.5 34.5l14 -18
q-24 -21 -62.5 -39.5t-85.5 -18.5zM238 570l160 150h38l2 -4l-170 -146h-30z" />
    <glyph glyph-name="ccircumflex" unicode="&#x109;" horiz-adv-x="428" 
d="M210 -12q-51 0 -88.5 22t-57.5 64t-20 102q0 71 22 128.5t58.5 99t82 64t91.5 22.5q42 0 71.5 -15.5t48.5 -42.5l-18 -14q-19 24 -43.5 35t-60.5 11q-42 0 -82 -22.5t-72 -61.5t-51 -90t-19 -108q0 -82 35 -125t105 -43q35 0 71.5 15.5t60.5 34.5l14 -18
q-24 -21 -62.5 -39.5t-85.5 -18.5zM168 570l160 154h20l100 -154h-26l-86 120h-4l-134 -120h-30z" />
    <glyph glyph-name="cdotaccent" unicode="&#x10b;" horiz-adv-x="428" 
d="M210 -12q-51 0 -88.5 22t-57.5 64t-20 102q0 71 22 128.5t58.5 99t82 64t91.5 22.5q42 0 71.5 -15.5t48.5 -42.5l-18 -14q-19 24 -43.5 35t-60.5 11q-42 0 -82 -22.5t-72 -61.5t-51 -90t-19 -108q0 -82 35 -125t105 -43q35 0 71.5 15.5t60.5 34.5l14 -18
q-24 -21 -62.5 -39.5t-85.5 -18.5zM318 600q-12 0 -20 8t-8 20q0 18 11.5 29t24.5 11q12 0 20 -8t8 -22q0 -16 -11 -27t-25 -11z" />
    <glyph glyph-name="ccaron" unicode="&#x10d;" horiz-adv-x="428" 
d="M210 -12q-51 0 -88.5 22t-57.5 64t-20 102q0 71 22 128.5t58.5 99t82 64t91.5 22.5q42 0 71.5 -15.5t48.5 -42.5l-18 -14q-19 24 -43.5 35t-60.5 11q-42 0 -82 -22.5t-72 -61.5t-51 -90t-19 -108q0 -82 35 -125t105 -43q35 0 71.5 15.5t60.5 34.5l14 -18
q-24 -21 -62.5 -39.5t-85.5 -18.5zM298 570l-100 154h26l86 -120h4l134 120h30l-160 -154h-20z" />
    <glyph glyph-name="uni023C" unicode="&#x23c;" horiz-adv-x="428" 
d="M114 -40l-22 12l288 546l22 -12zM210 -12q-51 0 -88.5 22t-57.5 64t-20 102q0 71 22 128.5t58.5 99t82 64t91.5 22.5q42 0 71.5 -15.5t48.5 -42.5l-18 -14q-19 24 -43.5 35t-60.5 11q-42 0 -82 -22.5t-72 -61.5t-51 -90t-19 -108q0 -82 35 -125t105 -43q35 0 71.5 15.5
t60.5 34.5l14 -18q-24 -21 -62.5 -39.5t-85.5 -18.5z" />
    <glyph glyph-name="uni1E0B" unicode="&#x1e0b;" horiz-adv-x="526" 
d="M186 -12q-63 0 -101.5 44t-38.5 128q0 69 21.5 129t59 105t84 70.5t95.5 25.5q44 0 75.5 -22t50.5 -58h4l20 96l44 216h28l-146 -722h-24l12 78h-4q-37 -39 -83 -64.5t-97 -25.5zM188 14q50 0 97.5 28.5t92.5 79.5l52 250q-28 50 -59 71t-67 21q-45 0 -86.5 -25.5
t-73.5 -68t-51 -95.5t-19 -109q0 -76 31 -114t83 -38zM300 600q-12 0 -20 8t-8 20q0 18 11.5 29t24.5 11q12 0 20 -8t8 -22q0 -16 -11 -27t-25 -11z" />
    <glyph glyph-name="dcaron" unicode="&#x10f;" horiz-adv-x="520" 
d="M186 -12q-63 0 -101.5 44t-38.5 128q0 69 21.5 129t59 105t84 70.5t95.5 25.5q44 0 75.5 -22t50.5 -58h4l20 96l44 216h28l-146 -722h-24l12 78h-4q-37 -39 -83 -64.5t-97 -25.5zM188 14q50 0 97.5 28.5t92.5 79.5l52 250q-28 50 -59 71t-67 21q-45 0 -86.5 -25.5
t-73.5 -68t-51 -95.5t-19 -109q0 -76 31 -114t83 -38zM548 548l40 204h28l-8 -48l-38 -156h-22z" />
    <glyph glyph-name="uni1E0D" unicode="&#x1e0d;" horiz-adv-x="526" 
d="M186 -12q-63 0 -101.5 44t-38.5 128q0 69 21.5 129t59 105t84 70.5t95.5 25.5q44 0 75.5 -22t50.5 -58h4l20 96l44 216h28l-146 -722h-24l12 78h-4q-37 -39 -83 -64.5t-97 -25.5zM188 14q50 0 97.5 28.5t92.5 79.5l52 250q-28 50 -59 71t-67 21q-45 0 -86.5 -25.5
t-73.5 -68t-51 -95.5t-19 -109q0 -76 31 -114t83 -38zM164 -192q-12 0 -20 8t-8 20q0 18 11.5 29t24.5 11q12 0 20 -8t8 -22q0 -16 -11 -27t-25 -11z" />
    <glyph glyph-name="uni1E0F" unicode="&#x1e0f;" horiz-adv-x="526" 
d="M186 -12q-63 0 -101.5 44t-38.5 128q0 69 21.5 129t59 105t84 70.5t95.5 25.5q44 0 75.5 -22t50.5 -58h4l20 96l44 216h28l-146 -722h-24l12 78h-4q-37 -39 -83 -64.5t-97 -25.5zM188 14q50 0 97.5 28.5t92.5 79.5l52 250q-28 50 -59 71t-67 21q-45 0 -86.5 -25.5
t-73.5 -68t-51 -95.5t-19 -109q0 -76 31 -114t83 -38zM54 -152l4 26h232l-4 -26h-232z" />
    <glyph glyph-name="uni1E11" unicode="&#x1e11;" horiz-adv-x="526" 
d="M186 -12q-63 0 -101.5 44t-38.5 128q0 69 21.5 129t59 105t84 70.5t95.5 25.5q44 0 75.5 -22t50.5 -58h4l20 96l44 216h28l-146 -722h-24l12 78h-4q-37 -39 -83 -64.5t-97 -25.5zM188 14q50 0 97.5 28.5t92.5 79.5l52 250q-28 50 -59 71t-67 21q-45 0 -86.5 -25.5
t-73.5 -68t-51 -95.5t-19 -109q0 -76 31 -114t83 -38zM78 -216l-2 24q62 2 93 18.5t31 41.5q0 23 -17 33t-51 13l56 88h28l-42 -70q35 -9 45.5 -22t10.5 -34q0 -43 -42 -66.5t-110 -25.5z" />
    <glyph glyph-name="dcroat" unicode="&#x111;" horiz-adv-x="522" 
d="M186 -12q-63 0 -101.5 44t-38.5 128q0 62 21.5 117.5t58 99t83 68.5t95.5 25q44 0 75 -22t49 -58h4l20 96l48 236h28l-146 -722h-24l12 78h-4q-37 -39 -83 -64.5t-97 -25.5zM188 14q50 0 97.5 28.5t92.5 79.5l48 230q-27 50 -57.5 71t-66.5 21q-45 0 -86 -24.5t-73 -65.5
t-50.5 -90t-18.5 -98q0 -76 31 -114t83 -38zM306 584l6 26h268l-6 -22l-74 -4h-194z" />
    <glyph glyph-name="egrave" unicode="&#xe8;" horiz-adv-x="468" 
d="M224 -12q-82 0 -131 50t-49 146q0 68 21 124t56.5 96.5t79 63t89.5 22.5q51 0 82.5 -21.5t45.5 -59.5t14 -87q0 -16 -1.5 -30.5t-4.5 -27t-6 -22.5h-352l6 26h324q3 15 4.5 29.5t1.5 30.5q0 34 -11 65t-36.5 51t-68.5 20q-40 0 -78.5 -21t-69.5 -58.5t-49.5 -88.5
t-18.5 -110q0 -63 21.5 -100.5t56.5 -54.5t76 -17q38 0 67.5 12.5t56.5 31.5l14 -18q-27 -21 -61.5 -36.5t-78.5 -15.5zM354 570l-124 146l2 4h32l116 -150h-26z" />
    <glyph glyph-name="eacute" unicode="&#xe9;" horiz-adv-x="468" 
d="M224 -12q-82 0 -131 50t-49 146q0 68 21 124t56.5 96.5t79 63t89.5 22.5q51 0 82.5 -21.5t45.5 -59.5t14 -87q0 -16 -1.5 -30.5t-4.5 -27t-6 -22.5h-352l6 26h324q3 15 4.5 29.5t1.5 30.5q0 34 -11 65t-36.5 51t-68.5 20q-40 0 -78.5 -21t-69.5 -58.5t-49.5 -88.5
t-18.5 -110q0 -63 21.5 -100.5t56.5 -54.5t76 -17q38 0 67.5 12.5t56.5 31.5l14 -18q-27 -21 -61.5 -36.5t-78.5 -15.5zM230 570l160 150h38l2 -4l-170 -146h-30z" />
    <glyph glyph-name="ecircumflex" unicode="&#xea;" horiz-adv-x="468" 
d="M224 -12q-82 0 -131 50t-49 146q0 68 21 124t56.5 96.5t79 63t89.5 22.5q51 0 82.5 -21.5t45.5 -59.5t14 -87q0 -16 -1.5 -30.5t-4.5 -27t-6 -22.5h-352l6 26h324q3 15 4.5 29.5t1.5 30.5q0 34 -11 65t-36.5 51t-68.5 20q-40 0 -78.5 -21t-69.5 -58.5t-49.5 -88.5
t-18.5 -110q0 -63 21.5 -100.5t56.5 -54.5t76 -17q38 0 67.5 12.5t56.5 31.5l14 -18q-27 -21 -61.5 -36.5t-78.5 -15.5zM160 570l160 154h20l100 -154h-26l-86 120h-4l-134 -120h-30z" />
    <glyph glyph-name="uni1EBD" unicode="&#x1ebd;" horiz-adv-x="468" 
d="M224 -12q-82 0 -131 50t-49 146q0 68 21 124t56.5 96.5t79 63t89.5 22.5q51 0 82.5 -21.5t45.5 -59.5t14 -87q0 -16 -1.5 -30.5t-4.5 -27t-6 -22.5h-352l6 26h324q3 15 4.5 29.5t1.5 30.5q0 34 -11 65t-36.5 51t-68.5 20q-40 0 -78.5 -21t-69.5 -58.5t-49.5 -88.5
t-18.5 -110q0 -63 21.5 -100.5t56.5 -54.5t76 -17q38 0 67.5 12.5t56.5 31.5l14 -18q-27 -21 -61.5 -36.5t-78.5 -15.5zM388 580q-27 0 -43 15.5t-27.5 35.5t-25.5 35.5t-36 15.5q-28 0 -45.5 -29.5t-26.5 -70.5l-26 2q7 29 19 57t32.5 46.5t50.5 18.5q27 0 43 -15.5
t27.5 -35.5t25.5 -35.5t36 -15.5q29 0 46 30t26 70l26 -2q-7 -28 -19 -56t-32 -47t-51 -19z" />
    <glyph glyph-name="edieresis" unicode="&#xeb;" horiz-adv-x="468" 
d="M224 -12q-82 0 -131 50t-49 146q0 68 21 124t56.5 96.5t79 63t89.5 22.5q51 0 82.5 -21.5t45.5 -59.5t14 -87q0 -16 -1.5 -30.5t-4.5 -27t-6 -22.5h-352l6 26h324q3 15 4.5 29.5t1.5 30.5q0 34 -11 65t-36.5 51t-68.5 20q-40 0 -78.5 -21t-69.5 -58.5t-49.5 -88.5
t-18.5 -110q0 -63 21.5 -100.5t56.5 -54.5t76 -17q38 0 67.5 12.5t56.5 31.5l14 -18q-27 -21 -61.5 -36.5t-78.5 -15.5zM230 602q-12 0 -19 7t-7 19q0 17 10 27.5t22 10.5t19 -7t7 -21q0 -15 -10 -25.5t-22 -10.5zM396 602q-12 0 -19 7t-7 19q0 17 10 27.5t22 10.5t19 -7
t7 -21q0 -15 -10 -25.5t-22 -10.5z" />
    <glyph glyph-name="emacron" unicode="&#x113;" horiz-adv-x="468" 
d="M224 -12q-82 0 -131 50t-49 146q0 68 21 124t56.5 96.5t79 63t89.5 22.5q51 0 82.5 -21.5t45.5 -59.5t14 -87q0 -16 -1.5 -30.5t-4.5 -27t-6 -22.5h-352l6 26h324q3 15 4.5 29.5t1.5 30.5q0 34 -11 65t-36.5 51t-68.5 20q-40 0 -78.5 -21t-69.5 -58.5t-49.5 -88.5
t-18.5 -110q0 -63 21.5 -100.5t56.5 -54.5t76 -17q38 0 67.5 12.5t56.5 31.5l14 -18q-27 -21 -61.5 -36.5t-78.5 -15.5zM194 610l4 26h232l-4 -26h-232z" />
    <glyph glyph-name="ebreve" unicode="&#x115;" horiz-adv-x="468" 
d="M224 -12q-82 0 -131 50t-49 146q0 68 21 124t56.5 96.5t79 63t89.5 22.5q51 0 82.5 -21.5t45.5 -59.5t14 -87q0 -16 -1.5 -30.5t-4.5 -27t-6 -22.5h-352l6 26h324q3 15 4.5 29.5t1.5 30.5q0 34 -11 65t-36.5 51t-68.5 20q-40 0 -78.5 -21t-69.5 -58.5t-49.5 -88.5
t-18.5 -110q0 -63 21.5 -100.5t56.5 -54.5t76 -17q38 0 67.5 12.5t56.5 31.5l14 -18q-27 -21 -61.5 -36.5t-78.5 -15.5zM300 570q-49 0 -74.5 22.5t-34.5 56.5t-9 67l26 2q0 -30 8.5 -58t29.5 -46t60 -18q37 0 65.5 19t48 47.5t28.5 57.5l26 -4q-9 -31 -30.5 -65t-57 -57.5
t-86.5 -23.5z" />
    <glyph glyph-name="edotaccent" unicode="&#x117;" horiz-adv-x="468" 
d="M224 -12q-82 0 -131 50t-49 146q0 68 21 124t56.5 96.5t79 63t89.5 22.5q51 0 82.5 -21.5t45.5 -59.5t14 -87q0 -16 -1.5 -30.5t-4.5 -27t-6 -22.5h-352l6 26h324q3 15 4.5 29.5t1.5 30.5q0 34 -11 65t-36.5 51t-68.5 20q-40 0 -78.5 -21t-69.5 -58.5t-49.5 -88.5
t-18.5 -110q0 -63 21.5 -100.5t56.5 -54.5t76 -17q38 0 67.5 12.5t56.5 31.5l14 -18q-27 -21 -61.5 -36.5t-78.5 -15.5zM310 600q-12 0 -20 8t-8 20q0 18 11.5 29t24.5 11q12 0 20 -8t8 -22q0 -16 -11 -27t-25 -11z" />
    <glyph glyph-name="ecaron" unicode="&#x11b;" horiz-adv-x="468" 
d="M224 -12q-82 0 -131 50t-49 146q0 68 21 124t56.5 96.5t79 63t89.5 22.5q51 0 82.5 -21.5t45.5 -59.5t14 -87q0 -16 -1.5 -30.5t-4.5 -27t-6 -22.5h-352l6 26h324q3 15 4.5 29.5t1.5 30.5q0 34 -11 65t-36.5 51t-68.5 20q-40 0 -78.5 -21t-69.5 -58.5t-49.5 -88.5
t-18.5 -110q0 -63 21.5 -100.5t56.5 -54.5t76 -17q38 0 67.5 12.5t56.5 31.5l14 -18q-27 -21 -61.5 -36.5t-78.5 -15.5zM290 570l-100 154h26l86 -120h4l134 120h30l-160 -154h-20z" />
    <glyph glyph-name="uni0205" unicode="&#x205;" horiz-adv-x="468" 
d="M224 -12q-82 0 -131 50t-49 146q0 68 21 124t56.5 96.5t79 63t89.5 22.5q51 0 82.5 -21.5t45.5 -59.5t14 -87q0 -16 -1.5 -30.5t-4.5 -27t-6 -22.5h-352l6 26h324q3 15 4.5 29.5t1.5 30.5q0 34 -11 65t-36.5 51t-68.5 20q-40 0 -78.5 -21t-69.5 -58.5t-49.5 -88.5
t-18.5 -110q0 -63 21.5 -100.5t56.5 -54.5t76 -17q38 0 67.5 12.5t56.5 31.5l14 -18q-27 -21 -61.5 -36.5t-78.5 -15.5zM234 570l-84 146l2 4h32l76 -150h-26zM384 570l-84 146l2 4h32l76 -150h-26z" />
    <glyph glyph-name="eogonek" unicode="&#x119;" horiz-adv-x="468" 
d="M256 -212q-30 0 -50 17t-20 51q0 41 25.5 77.5t70.5 70.5l-2 -6q-13 -4 -28.5 -7t-27.5 -3q-82 0 -131 50t-49 146q0 68 21 124t56.5 96.5t79 63t89.5 22.5q51 0 82.5 -21.5t45.5 -59.5t14 -87q0 -16 -1.5 -30.5t-4.5 -27t-6 -22.5h-352l6 26h324q3 15 4.5 29.5t1.5 30.5
q0 34 -11 65t-36.5 51t-68.5 20q-40 0 -78.5 -21t-69.5 -58.5t-49.5 -88.5t-18.5 -110q0 -63 21.5 -100.5t56.5 -54.5t76 -17q38 0 67.5 12.5t56.5 31.5l14 -18q-79 -54 -113.5 -97t-34.5 -81q0 -22 12.5 -35t31.5 -13q15 0 27.5 5t28.5 17l12 -16q-18 -16 -35 -24t-37 -8z
" />
    <glyph glyph-name="eogonek.d" horiz-adv-x="468" 
d="M184 -212q-30 0 -50 17t-20 51q0 28 15.5 56.5t43.5 52t65 37.5l-14 -14q-82 0 -131 50t-49 146q0 68 21 124t56.5 96.5t79 63t89.5 22.5q51 0 82.5 -21.5t45.5 -59.5t14 -87q0 -16 -1.5 -30.5t-4.5 -27t-6 -22.5h-352l6 26h324q3 15 4.5 29.5t1.5 30.5q0 34 -11 65
t-36.5 51t-68.5 20q-40 0 -78.5 -21t-69.5 -58.5t-49.5 -88.5t-18.5 -110q0 -63 21.5 -100.5t56.5 -54.5t76 -17q38 0 67.5 12.5t56.5 31.5l14 -18q-25 -19 -44 -28t-46 -18q-73 -25 -101.5 -62t-28.5 -70q0 -22 12.5 -35t31.5 -13q15 0 27.5 5t28.5 17l12 -16
q-18 -16 -35 -24t-37 -8z" />
    <glyph glyph-name="uni1EB9" unicode="&#x1eb9;" horiz-adv-x="468" 
d="M224 -12q-82 0 -131 50t-49 146q0 68 21 124t56.5 96.5t79 63t89.5 22.5q51 0 82.5 -21.5t45.5 -59.5t14 -87q0 -16 -1.5 -30.5t-4.5 -27t-6 -22.5h-352l6 26h324q3 15 4.5 29.5t1.5 30.5q0 34 -11 65t-36.5 51t-68.5 20q-40 0 -78.5 -21t-69.5 -58.5t-49.5 -88.5
t-18.5 -110q0 -63 21.5 -100.5t56.5 -54.5t76 -17q38 0 67.5 12.5t56.5 31.5l14 -18q-27 -21 -61.5 -36.5t-78.5 -15.5zM182 -192q-12 0 -20 8t-8 20q0 18 11.5 29t24.5 11q12 0 20 -8t8 -22q0 -16 -11 -27t-25 -11z" />
    <glyph glyph-name="uni1EBB" unicode="&#x1ebb;" horiz-adv-x="468" 
d="M224 -12q-82 0 -131 50t-49 146q0 68 21 124t56.5 96.5t79 63t89.5 22.5q51 0 82.5 -21.5t45.5 -59.5t14 -87q0 -16 -1.5 -30.5t-4.5 -27t-6 -22.5h-352l6 26h324q3 15 4.5 29.5t1.5 30.5q0 34 -11 65t-36.5 51t-68.5 20q-40 0 -78.5 -21t-69.5 -58.5t-49.5 -88.5
t-18.5 -110q0 -63 21.5 -100.5t56.5 -54.5t76 -17q38 0 67.5 12.5t56.5 31.5l14 -18q-27 -21 -61.5 -36.5t-78.5 -15.5zM274 558l-6 22q41 12 59.5 33t18.5 45q0 27 -19.5 40t-52.5 14l6 24q38 -1 66 -17.5t28 -54.5q0 -36 -24.5 -64t-75.5 -42z" />
    <glyph glyph-name="uni1EBF" unicode="&#x1ebf;" horiz-adv-x="468" 
d="M224 -12q-82 0 -131 50t-49 146q0 68 21 124t56.5 96.5t79 63t89.5 22.5q51 0 82.5 -21.5t45.5 -59.5t14 -87q0 -16 -1.5 -30.5t-4.5 -27t-6 -22.5h-352l6 26h324q3 15 4.5 29.5t1.5 30.5q0 34 -11 65t-36.5 51t-68.5 20q-40 0 -78.5 -21t-69.5 -58.5t-49.5 -88.5
t-18.5 -110q0 -63 21.5 -100.5t56.5 -54.5t76 -17q38 0 67.5 12.5t56.5 31.5l14 -18q-27 -21 -61.5 -36.5t-78.5 -15.5zM160 570l150 114h20l110 -114h-26l-96 80h-4l-124 -80h-30zM400 650l112 100h36l2 -4l-120 -96h-30z" />
    <glyph glyph-name="uni1EC1" unicode="&#x1ec1;" horiz-adv-x="468" 
d="M224 -12q-82 0 -131 50t-49 146q0 68 21 124t56.5 96.5t79 63t89.5 22.5q51 0 82.5 -21.5t45.5 -59.5t14 -87q0 -16 -1.5 -30.5t-4.5 -27t-6 -22.5h-352l6 26h324q3 15 4.5 29.5t1.5 30.5q0 34 -11 65t-36.5 51t-68.5 20q-40 0 -78.5 -21t-69.5 -58.5t-49.5 -88.5
t-18.5 -110q0 -63 21.5 -100.5t56.5 -54.5t76 -17q38 0 67.5 12.5t56.5 31.5l14 -18q-27 -21 -61.5 -36.5t-78.5 -15.5zM160 570l150 114h20l110 -114h-26l-96 80h-4l-124 -80h-30zM216 650l-86 96l2 4h32l76 -100h-24z" />
    <glyph glyph-name="uni1EC3" unicode="&#x1ec3;" horiz-adv-x="468" 
d="M224 -12q-82 0 -131 50t-49 146q0 68 21 124t56.5 96.5t79 63t89.5 22.5q51 0 82.5 -21.5t45.5 -59.5t14 -87q0 -16 -1.5 -30.5t-4.5 -27t-6 -22.5h-352l6 26h324q3 15 4.5 29.5t1.5 30.5q0 34 -11 65t-36.5 51t-68.5 20q-40 0 -78.5 -21t-69.5 -58.5t-49.5 -88.5
t-18.5 -110q0 -63 21.5 -100.5t56.5 -54.5t76 -17q38 0 67.5 12.5t56.5 31.5l14 -18q-27 -21 -61.5 -36.5t-78.5 -15.5zM422 648l-6 22q30 9 45 22.5t15 35.5q0 18 -17.5 27.5t-50.5 10.5l6 24q35 -1 62.5 -14.5t27.5 -43.5t-21.5 -52.5t-60.5 -31.5zM160 570l150 114h20
l110 -114h-26l-96 80h-4l-124 -80h-30z" />
    <glyph glyph-name="uni1EC5" unicode="&#x1ec5;" horiz-adv-x="468" 
d="M224 -12q-82 0 -131 50t-49 146q0 68 21 124t56.5 96.5t79 63t89.5 22.5q51 0 82.5 -21.5t45.5 -59.5t14 -87q0 -16 -1.5 -30.5t-4.5 -27t-6 -22.5h-352l6 26h324q3 15 4.5 29.5t1.5 30.5q0 34 -11 65t-36.5 51t-68.5 20q-40 0 -78.5 -21t-69.5 -58.5t-49.5 -88.5
t-18.5 -110q0 -63 21.5 -100.5t56.5 -54.5t76 -17q38 0 67.5 12.5t56.5 31.5l14 -18q-27 -21 -61.5 -36.5t-78.5 -15.5zM398 706q-29 0 -50.5 10.5t-41 21t-42.5 10.5q-17 0 -26.5 -11.5t-15.5 -34.5l-24 2q5 24 22 47t50 23q29 0 50 -10.5t40 -21t42 -10.5q17 0 26.5 12
t15.5 34l24 -2q-4 -24 -20.5 -47t-49.5 -23zM160 570l150 114h20l110 -114h-26l-96 80h-4l-124 -80h-30z" />
    <glyph glyph-name="uni1EC7" unicode="&#x1ec7;" horiz-adv-x="468" 
d="M224 -12q-82 0 -131 50t-49 146q0 68 21 124t56.5 96.5t79 63t89.5 22.5q51 0 82.5 -21.5t45.5 -59.5t14 -87q0 -16 -1.5 -30.5t-4.5 -27t-6 -22.5h-352l6 26h324q3 15 4.5 29.5t1.5 30.5q0 34 -11 65t-36.5 51t-68.5 20q-40 0 -78.5 -21t-69.5 -58.5t-49.5 -88.5
t-18.5 -110q0 -63 21.5 -100.5t56.5 -54.5t76 -17q38 0 67.5 12.5t56.5 31.5l14 -18q-27 -21 -61.5 -36.5t-78.5 -15.5zM160 570l160 154h20l100 -154h-26l-86 120h-4l-134 -120h-30zM182 -192q-12 0 -20 8t-8 20q0 18 11.5 29t24.5 11q12 0 20 -8t8 -22q0 -16 -11 -27
t-25 -11z" />
    <glyph glyph-name="uni1E17" unicode="&#x1e17;" horiz-adv-x="468" 
d="M224 -12q-82 0 -131 50t-49 146q0 68 21 124t56.5 96.5t79 63t89.5 22.5q51 0 82.5 -21.5t45.5 -59.5t14 -87q0 -16 -1.5 -30.5t-4.5 -27t-6 -22.5h-352l6 26h324q3 15 4.5 29.5t1.5 30.5q0 34 -11 65t-36.5 51t-68.5 20q-40 0 -78.5 -21t-69.5 -58.5t-49.5 -88.5
t-18.5 -110q0 -63 21.5 -100.5t56.5 -54.5t76 -17q38 0 67.5 12.5t56.5 31.5l14 -18q-27 -21 -61.5 -36.5t-78.5 -15.5zM194 610l4 26h232l-4 -26h-232zM280 700l112 100h36l2 -4l-120 -96h-30z" />
    <glyph glyph-name="uni01DD" unicode="&#x1dd;" horiz-adv-x="468" 
d="M186 -12q-54 0 -87.5 21.5t-49 59.5t-15.5 87q0 19 2 36t5 31t7 25h352l-6 -26h-324q-4 -16 -6 -34t-2 -38q0 -34 12.5 -65t40 -51t73.5 -20q38 0 75 21t66.5 58.5t47 88.5t17.5 110q0 63 -18.5 101t-49 54.5t-66.5 16.5q-37 0 -67 -11t-57 -29l-14 18q27 20 62 34t78 14
q74 0 117 -50t43 -146q0 -67 -20 -123.5t-54 -97t-76 -63t-86 -22.5z" />
    <glyph glyph-name="uni1E1F" unicode="&#x1e1f;" horiz-adv-x="246" 
d="M48 0l90 452h-68l6 22l68 4l24 120q10 47 28.5 77t43 44.5t52.5 14.5q24 0 41 -6.5t29 -15.5l-12 -20q-12 8 -25.5 12t-34.5 4q-37 0 -61 -33t-33 -77l-24 -120h108l-6 -26h-108l-90 -452h-28zM298 774q-12 0 -20 8t-8 20q0 18 11.5 29t24.5 11q12 0 20 -8t8 -22
q0 -16 -11 -27t-25 -11z" />
    <glyph glyph-name="uni01F5" unicode="&#x1f5;" horiz-adv-x="518" 
d="M166 -234q-49 0 -90 18t-70 48l18 18q26 -25 64 -41.5t80 -16.5q74 0 116 49.5t58 128.5l24 116q-42 -40 -86.5 -65t-95.5 -25q-61 0 -99.5 44t-38.5 126q0 67 21.5 125.5t58 103t82 70t92.5 25.5q43 0 75 -22t51 -58h4l18 68h24l-106 -526q-18 -85 -68.5 -135.5
t-131.5 -50.5zM186 22q42 0 92.5 28t93.5 74l52 248q-29 50 -59.5 71t-66.5 21q-43 0 -83 -25t-72 -67.5t-50.5 -94.5t-18.5 -105q0 -75 30 -112.5t82 -37.5zM248 570l160 150h38l2 -4l-170 -146h-30z" />
    <glyph glyph-name="gcircumflex" unicode="&#x11d;" horiz-adv-x="518" 
d="M166 -234q-49 0 -90 18t-70 48l18 18q26 -25 64 -41.5t80 -16.5q74 0 116 49.5t58 128.5l24 116q-42 -40 -86.5 -65t-95.5 -25q-61 0 -99.5 44t-38.5 126q0 67 21.5 125.5t58 103t82 70t92.5 25.5q43 0 75 -22t51 -58h4l18 68h24l-106 -526q-18 -85 -68.5 -135.5
t-131.5 -50.5zM186 22q42 0 92.5 28t93.5 74l52 248q-29 50 -59.5 71t-66.5 21q-43 0 -83 -25t-72 -67.5t-50.5 -94.5t-18.5 -105q0 -75 30 -112.5t82 -37.5zM178 570l160 154h20l100 -154h-26l-86 120h-4l-134 -120h-30z" />
    <glyph glyph-name="uni1E21" unicode="&#x1e21;" horiz-adv-x="518" 
d="M166 -234q-49 0 -90 18t-70 48l18 18q26 -25 64 -41.5t80 -16.5q74 0 116 49.5t58 128.5l24 116q-42 -40 -86.5 -65t-95.5 -25q-61 0 -99.5 44t-38.5 126q0 67 21.5 125.5t58 103t82 70t92.5 25.5q43 0 75 -22t51 -58h4l18 68h24l-106 -526q-18 -85 -68.5 -135.5
t-131.5 -50.5zM186 22q42 0 92.5 28t93.5 74l52 248q-29 50 -59.5 71t-66.5 21q-43 0 -83 -25t-72 -67.5t-50.5 -94.5t-18.5 -105q0 -75 30 -112.5t82 -37.5zM212 610l4 26h232l-4 -26h-232z" />
    <glyph glyph-name="gbreve" unicode="&#x11f;" horiz-adv-x="518" 
d="M166 -234q-49 0 -90 18t-70 48l18 18q26 -25 64 -41.5t80 -16.5q74 0 116 49.5t58 128.5l24 116q-42 -40 -86.5 -65t-95.5 -25q-61 0 -99.5 44t-38.5 126q0 67 21.5 125.5t58 103t82 70t92.5 25.5q43 0 75 -22t51 -58h4l18 68h24l-106 -526q-18 -85 -68.5 -135.5
t-131.5 -50.5zM186 22q42 0 92.5 28t93.5 74l52 248q-29 50 -59.5 71t-66.5 21q-43 0 -83 -25t-72 -67.5t-50.5 -94.5t-18.5 -105q0 -75 30 -112.5t82 -37.5zM318 570q-49 0 -74.5 22.5t-34.5 56.5t-9 67l26 2q0 -30 8.5 -58t29.5 -46t60 -18q37 0 65.5 19t48 47.5
t28.5 57.5l26 -4q-9 -31 -30.5 -65t-57 -57.5t-86.5 -23.5z" />
    <glyph glyph-name="gdotaccent" unicode="&#x121;" horiz-adv-x="518" 
d="M166 -234q-49 0 -90 18t-70 48l18 18q26 -25 64 -41.5t80 -16.5q74 0 116 49.5t58 128.5l24 116q-42 -40 -86.5 -65t-95.5 -25q-61 0 -99.5 44t-38.5 126q0 67 21.5 125.5t58 103t82 70t92.5 25.5q43 0 75 -22t51 -58h4l18 68h24l-106 -526q-18 -85 -68.5 -135.5
t-131.5 -50.5zM186 22q42 0 92.5 28t93.5 74l52 248q-29 50 -59.5 71t-66.5 21q-43 0 -83 -25t-72 -67.5t-50.5 -94.5t-18.5 -105q0 -75 30 -112.5t82 -37.5zM328 600q-12 0 -20 8t-8 20q0 18 11.5 29t24.5 11q12 0 20 -8t8 -22q0 -16 -11 -27t-25 -11z" />
    <glyph glyph-name="gcaron" unicode="&#x1e7;" horiz-adv-x="518" 
d="M166 -234q-49 0 -90 18t-70 48l18 18q26 -25 64 -41.5t80 -16.5q74 0 116 49.5t58 128.5l24 116q-42 -40 -86.5 -65t-95.5 -25q-61 0 -99.5 44t-38.5 126q0 67 21.5 125.5t58 103t82 70t92.5 25.5q43 0 75 -22t51 -58h4l18 68h24l-106 -526q-18 -85 -68.5 -135.5
t-131.5 -50.5zM186 22q42 0 92.5 28t93.5 74l52 248q-29 50 -59.5 71t-66.5 21q-43 0 -83 -25t-72 -67.5t-50.5 -94.5t-18.5 -105q0 -75 30 -112.5t82 -37.5zM308 570l-100 154h26l86 -120h4l134 120h30l-160 -154h-20z" />
    <glyph glyph-name="uni0123" unicode="&#x123;" horiz-adv-x="518" 
d="M166 -234q-49 0 -90 18t-70 48l18 18q26 -25 64 -41.5t80 -16.5q74 0 116 49.5t58 128.5l24 116q-42 -40 -86.5 -65t-95.5 -25q-61 0 -99.5 44t-38.5 126q0 67 21.5 125.5t58 103t82 70t92.5 25.5q43 0 75 -22t51 -58h4l18 68h24l-106 -526q-18 -85 -68.5 -135.5
t-131.5 -50.5zM186 22q42 0 92.5 28t93.5 74l52 248q-29 50 -59.5 71t-66.5 21q-43 0 -83 -25t-72 -67.5t-50.5 -94.5t-18.5 -105q0 -75 30 -112.5t82 -37.5zM362 582q-36 5 -55 13t-26 20t-7 29q0 29 19.5 49t53.5 31t79 12l2 -24q-61 -1 -92.5 -18t-31.5 -42
q0 -22 17 -32.5t51 -13.5z" />
    <glyph glyph-name="uni01E5" unicode="&#x1e5;" horiz-adv-x="518" 
d="M264 242l6 20l132 4h120l-6 -24h-252zM166 -234q-49 0 -90 18t-70 48l18 18q26 -25 64 -41.5t80 -16.5q74 0 116 49.5t58 128.5l24 116q-42 -40 -86.5 -65t-95.5 -25q-61 0 -99.5 44t-38.5 126q0 67 21.5 125.5t58 103t82 70t92.5 25.5q43 0 75 -22t51 -58h4l18 68h24
l-106 -526q-18 -85 -68.5 -135.5t-131.5 -50.5zM186 22q42 0 92.5 28t93.5 74l52 248q-29 50 -59.5 71t-66.5 21q-43 0 -83 -25t-72 -67.5t-50.5 -94.5t-18.5 -105q0 -75 30 -112.5t82 -37.5z" />
    <glyph glyph-name="uni00670303" horiz-adv-x="518" 
d="M166 -234q-49 0 -90 18t-70 48l18 18q26 -25 64 -41.5t80 -16.5q74 0 116 49.5t58 128.5l24 116q-42 -40 -86.5 -65t-95.5 -25q-61 0 -99.5 44t-38.5 126q0 67 21.5 125.5t58 103t82 70t92.5 25.5q43 0 75 -22t51 -58h4l18 68h24l-106 -526q-18 -85 -68.5 -135.5
t-131.5 -50.5zM186 22q42 0 92.5 28t93.5 74l52 248q-29 50 -59.5 71t-66.5 21q-43 0 -83 -25t-72 -67.5t-50.5 -94.5t-18.5 -105q0 -75 30 -112.5t82 -37.5zM406 580q-27 0 -43 15.5t-27.5 35.5t-25.5 35.5t-36 15.5q-28 0 -45.5 -29.5t-26.5 -70.5l-26 2q7 29 19 57
t32.5 46.5t50.5 18.5q27 0 43 -15.5t27.5 -35.5t25.5 -35.5t36 -15.5q29 0 46 30t26 70l26 -2q-7 -28 -19 -56t-32 -47t-51 -19z" />
    <glyph glyph-name="uni0260" unicode="&#x260;" horiz-adv-x="518" 
d="M166 -234q-52 0 -91 20.5t-69 45.5l18 22q27 -25 63 -43.5t81 -18.5q74 0 116 49.5t58 128.5l24 116q-42 -40 -86.5 -65t-95.5 -25q-61 0 -99.5 44t-38.5 126q0 67 21.5 125.5t58 103t82 70t92.5 25.5q43 0 75 -22t51 -58h4l38 190q10 47 25.5 76.5t37 43.5t49.5 14
q11 0 23 -3.5t21 -8.5l-10 -24q-7 3 -17 5.5t-19 2.5q-34 0 -53.5 -28.5t-28.5 -75.5l-130 -650q-17 -85 -68 -135.5t-132 -50.5zM186 22q42 0 92.5 28t93.5 74l52 248q-29 50 -59.5 71t-66.5 21q-43 0 -83 -25t-72 -67.5t-50.5 -94.5t-18.5 -105q0 -75 30 -112.5t82 -37.5z
" />
    <glyph glyph-name="hcircumflex" unicode="&#x125;" horiz-adv-x="504" 
d="M44 0l144 722h28l-56 -278l-12 -46h4q48 41 90.5 66.5t85.5 25.5q62 0 88 -32.5t26 -83.5q0 -18 -1.5 -30.5t-6.5 -33.5l-62 -310h-28l62 306q5 23 6.5 36t1.5 28q0 47 -21 70.5t-69 23.5q-33 0 -78 -25t-102 -81l-72 -358h-28zM230 753l160 120h20l110 -120h-30l-90 90
h-4l-132 -90h-34z" />
    <glyph glyph-name="uni1E27" unicode="&#x1e27;" horiz-adv-x="504" 
d="M44 0l144 722h28l-56 -278l-12 -46h4q48 41 90.5 66.5t85.5 25.5q62 0 88 -32.5t26 -83.5q0 -18 -1.5 -30.5t-6.5 -33.5l-62 -310h-28l62 306q5 23 6.5 36t1.5 28q0 47 -21 70.5t-69 23.5q-33 0 -78 -25t-102 -81l-72 -358h-28zM294 767q-12 0 -19 7t-7 19q0 17 10 27.5
t22 10.5t19 -7t7 -21q0 -15 -10 -25.5t-22 -10.5zM476 767q-12 0 -19 7t-7 19q0 17 10 27.5t22 10.5t19 -7t7 -21q0 -15 -10 -25.5t-22 -10.5z" />
    <glyph glyph-name="uni1E23" unicode="&#x1e23;" horiz-adv-x="504" 
d="M44 0l144 722h28l-56 -278l-12 -46h4q48 41 90.5 66.5t85.5 25.5q62 0 88 -32.5t26 -83.5q0 -18 -1.5 -30.5t-6.5 -33.5l-62 -310h-28l62 306q5 23 6.5 36t1.5 28q0 47 -21 70.5t-69 23.5q-33 0 -78 -25t-102 -81l-72 -358h-28zM384 767q-12 0 -20 8t-8 20q0 18 11.5 29
t24.5 11q12 0 20 -8t8 -22q0 -16 -11 -27t-25 -11z" />
    <glyph glyph-name="uni021F" unicode="&#x21f;" horiz-adv-x="504" 
d="M44 0l144 722h28l-56 -278l-12 -46h4q48 41 90.5 66.5t85.5 25.5q62 0 88 -32.5t26 -83.5q0 -18 -1.5 -30.5t-6.5 -33.5l-62 -310h-28l62 306q5 23 6.5 36t1.5 28q0 47 -21 70.5t-69 23.5q-33 0 -78 -25t-102 -81l-72 -358h-28zM364 753l-104 120h30l86 -90h4l136 90h34
l-160 -120h-26z" />
    <glyph glyph-name="uni1E25" unicode="&#x1e25;" horiz-adv-x="504" 
d="M44 0l144 722h28l-56 -278l-12 -46h4q48 41 90.5 66.5t85.5 25.5q62 0 88 -32.5t26 -83.5q0 -18 -1.5 -30.5t-6.5 -33.5l-62 -310h-28l62 306q5 23 6.5 36t1.5 28q0 47 -21 70.5t-69 23.5q-33 0 -78 -25t-102 -81l-72 -358h-28zM190 -192q-12 0 -20 8t-8 20q0 18 11.5 29
t24.5 11q12 0 20 -8t8 -22q0 -16 -11 -27t-25 -11z" />
    <glyph glyph-name="uni1E29" unicode="&#x1e29;" horiz-adv-x="504" 
d="M44 0l144 722h28l-56 -278l-12 -46h4q48 41 90.5 66.5t85.5 25.5q62 0 88 -32.5t26 -83.5q0 -18 -1.5 -30.5t-6.5 -33.5l-62 -310h-28l62 306q5 23 6.5 36t1.5 28q0 47 -21 70.5t-69 23.5q-33 0 -78 -25t-102 -81l-72 -358h-28zM-66 -216l-2 24q62 2 93 18.5t31 41.5
q0 23 -17 33t-51 13l56 88h28l-42 -70q35 -9 45.5 -22t10.5 -34q0 -43 -42 -66.5t-110 -25.5z" />
    <glyph glyph-name="uni1E2B" unicode="&#x1e2b;" horiz-adv-x="504" 
d="M44 0l144 722h28l-56 -278l-12 -46h4q48 41 90.5 66.5t85.5 25.5q62 0 88 -32.5t26 -83.5q0 -18 -1.5 -30.5t-6.5 -33.5l-62 -310h-28l62 306q5 23 6.5 36t1.5 28q0 47 -21 70.5t-69 23.5q-33 0 -78 -25t-102 -81l-72 -358h-28zM178 -212q-49 0 -74.5 22.5t-34.5 56.5
t-9 67l26 2q0 -30 8.5 -58t29.5 -46t60 -18q37 0 65.5 19t48 47.5t28.5 57.5l26 -4q-9 -31 -30.5 -65t-57 -57.5t-86.5 -23.5z" />
    <glyph glyph-name="uni1E96" unicode="&#x1e96;" horiz-adv-x="504" 
d="M44 0l144 722h28l-56 -278l-12 -46h4q48 41 90.5 66.5t85.5 25.5q62 0 88 -32.5t26 -83.5q0 -18 -1.5 -30.5t-6.5 -33.5l-62 -310h-28l62 306q5 23 6.5 36t1.5 28q0 47 -21 70.5t-69 23.5q-33 0 -78 -25t-102 -81l-72 -358h-28zM80 -152l4 26h232l-4 -26h-232z" />
    <glyph glyph-name="hbar" unicode="&#x127;" horiz-adv-x="524" 
d="M64 0l144 722h28l-60 -298l-12 -46h4q48 41 90.5 66.5t85.5 25.5q62 0 88 -32.5t26 -83.5q0 -18 -1.5 -30.5t-6.5 -33.5l-58 -290h-28l58 286q5 23 6.5 36t1.5 28q0 47 -21 70.5t-69 23.5q-33 0 -78 -25t-102 -81l-68 -338h-28zM88 584l4 22l94 4h214l-6 -26h-306z" />
    <glyph glyph-name="igrave" unicode="&#xec;" horiz-adv-x="214" 
d="M44 0l96 478h28l-96 -478h-28zM224 570l-124 146l2 4h32l116 -150h-26z" />
    <glyph glyph-name="iacute" unicode="&#xed;" horiz-adv-x="214" 
d="M44 0l96 478h28l-96 -478h-28zM100 570l160 150h38l2 -4l-170 -146h-30z" />
    <glyph glyph-name="icircumflex" unicode="&#xee;" horiz-adv-x="214" 
d="M44 0l96 478h28l-96 -478h-28zM30 570l160 154h20l100 -154h-26l-86 120h-4l-134 -120h-30z" />
    <glyph glyph-name="itilde" unicode="&#x129;" horiz-adv-x="214" 
d="M44 0l96 478h28l-96 -478h-28zM258 580q-27 0 -43 15.5t-27.5 35.5t-25.5 35.5t-36 15.5q-28 0 -45.5 -29.5t-26.5 -70.5l-26 2q7 29 19 57t32.5 46.5t50.5 18.5q27 0 43 -15.5t27.5 -35.5t25.5 -35.5t36 -15.5q29 0 46 30t26 70l26 -2q-7 -28 -19 -56t-32 -47t-51 -19z
" />
    <glyph glyph-name="idieresis" unicode="&#xef;" horiz-adv-x="214" 
d="M44 0l96 478h28l-96 -478h-28zM100 602q-12 0 -19 7t-7 19q0 17 10 27.5t22 10.5t19 -7t7 -21q0 -15 -10 -25.5t-22 -10.5zM266 602q-12 0 -19 7t-7 19q0 17 10 27.5t22 10.5t19 -7t7 -21q0 -15 -10 -25.5t-22 -10.5z" />
    <glyph glyph-name="imacron" unicode="&#x12b;" horiz-adv-x="214" 
d="M44 0l96 478h28l-96 -478h-28zM64 610l4 26h232l-4 -26h-232z" />
    <glyph glyph-name="ibreve" unicode="&#x12d;" horiz-adv-x="214" 
d="M44 0l96 478h28l-96 -478h-28zM170 570q-49 0 -74.5 22.5t-34.5 56.5t-9 67l26 2q0 -30 8.5 -58t29.5 -46t60 -18q37 0 65.5 19t48 47.5t28.5 57.5l26 -4q-9 -31 -30.5 -65t-57 -57.5t-86.5 -23.5z" />
    <glyph glyph-name="uni1ECB" unicode="&#x1ecb;" horiz-adv-x="214" 
d="M44 0l96 478h28l-96 -478h-28zM180 600q-12 0 -20 8t-8 20q0 18 11.5 29t24.5 11q12 0 20 -8t8 -22q0 -16 -11 -27t-25 -11zM24 -192q-12 0 -20 8t-8 20q0 18 11.5 29t24.5 11q12 0 20 -8t8 -22q0 -16 -11 -27t-25 -11z" />
    <glyph glyph-name="uni01D0" unicode="&#x1d0;" horiz-adv-x="214" 
d="M44 0l96 478h28l-96 -478h-28zM160 570l-100 154h26l86 -120h4l134 120h30l-160 -154h-20z" />
    <glyph glyph-name="uni0209" unicode="&#x209;" horiz-adv-x="214" 
d="M44 0l96 478h28l-96 -478h-28zM104 570l-84 146l2 4h32l76 -150h-26zM254 570l-84 146l2 4h32l76 -150h-26z" />
    <glyph glyph-name="iogonek" unicode="&#x12f;" horiz-adv-x="214" 
d="M22 -212q-30 0 -50 17t-20 51q0 27 14.5 54.5t36 51t43.5 38.5h-2l96 478h28l-96 -478q-39 -34 -64.5 -68t-25.5 -70q0 -22 12.5 -35t31.5 -13q15 0 27.5 5t28.5 17l12 -16q-18 -16 -35 -24t-37 -8zM180 600q-12 0 -20 8t-8 20q0 18 11.5 29t24.5 11q12 0 20 -8t8 -22
q0 -16 -11 -27t-25 -11z" />
    <glyph glyph-name="uni1EC9" unicode="&#x1ec9;" horiz-adv-x="214" 
d="M44 0l96 478h28l-96 -478h-28zM144 558l-6 22q41 12 59.5 33t18.5 45q0 27 -19.5 40t-52.5 14l6 24q38 -1 66 -17.5t28 -54.5q0 -36 -24.5 -64t-75.5 -42z" />
    <glyph glyph-name="uni0268" unicode="&#x268;" horiz-adv-x="230" 
d="M20 242l6 20l92 4h120l-6 -24h-212zM64 0l96 478h28l-96 -478h-28zM200 646q-12 0 -20 8t-8 20q0 18 11.5 29t24.5 11q12 0 20 -8t8 -22q0 -16 -11 -27t-25 -11z" />
    <glyph glyph-name="dotlessi" unicode="&#x131;" horiz-adv-x="214" 
d="M44 0l96 478h28l-96 -478h-28z" />
    <glyph glyph-name="ij" unicode="&#x133;" horiz-adv-x="428" 
d="M44 0l96 478h28l-96 -478h-28zM180 600q-12 0 -20 8t-8 20q0 18 11.5 29t24.5 11q12 0 20 -8t8 -22q0 -16 -11 -27t-25 -11zM154 -234q-18 0 -32 3.5t-26 10.5l10 22q11 -6 23 -8t25 -2q32 0 52 29t30 75l118 582h28l-116 -578q-8 -41 -22.5 -71t-36.5 -46.5t-53 -16.5z
M394 600q-12 0 -20 8t-8 20q0 18 11.5 29t24.5 11q12 0 20 -8t8 -22q0 -16 -11 -27t-25 -11z" />
    <glyph glyph-name="jcircumflex" unicode="&#x135;" horiz-adv-x="214" 
d="M-60 -234q-18 0 -32 3.5t-26 10.5l10 22q11 -6 23 -8t25 -2q32 0 52 29t30 75l118 582h28l-116 -578q-8 -41 -22.5 -71t-36.5 -46.5t-53 -16.5zM30 570l160 154h20l100 -154h-26l-86 120h-4l-134 -120h-30z" />
    <glyph glyph-name="uni01F0" unicode="&#x1f0;" horiz-adv-x="214" 
d="M-60 -234q-18 0 -32 3.5t-26 10.5l10 22q11 -6 23 -8t25 -2q32 0 52 29t30 75l118 582h28l-116 -578q-8 -41 -22.5 -71t-36.5 -46.5t-53 -16.5zM160 570l-100 154h26l86 -120h4l134 120h30l-160 -154h-20z" />
    <glyph glyph-name="uni0249" unicode="&#x249;" horiz-adv-x="254" 
d="M20 242l4 22l94 4h120l-6 -26h-212zM-40 -234q-18 0 -32 3.5t-26 10.5l10 22q11 -6 23 -8t25 -2q32 0 52 29t30 75l118 582h28l-116 -578q-8 -41 -22.5 -71t-36.5 -46.5t-53 -16.5zM200 600q-12 0 -20 8t-8 20q0 18 11.5 29t24.5 11q12 0 20 -8t8 -22q0 -16 -11 -27
t-25 -11z" />
    <glyph glyph-name="uni0237" unicode="&#x237;" horiz-adv-x="214" 
d="M-60 -234q-18 0 -32 3.5t-26 10.5l10 22q11 -6 23 -8t25 -2q32 0 52 29t30 75l118 582h28l-116 -578q-8 -41 -22.5 -71t-36.5 -46.5t-53 -16.5z" />
    <glyph glyph-name="uni0137" unicode="&#x137;" horiz-adv-x="436" 
d="M44 0l144 722h28l-108 -546h2l298 302h36l-186 -192l116 -286h-30l-108 266l-138 -140l-26 -126h-28zM98 -216l-2 24q62 2 93 18.5t31 41.5q0 23 -17 33t-51 13l10 24q36 -5 55 -13t26 -19.5t7 -29.5q0 -28 -19 -48.5t-53.5 -31.5t-79.5 -12z" />
    <glyph glyph-name="uni1E33" unicode="&#x1e33;" horiz-adv-x="436" 
d="M44 0l144 722h28l-108 -546h2l298 302h36l-186 -192l116 -286h-30l-108 266l-138 -140l-26 -126h-28zM184 -200q-12 0 -20 8t-8 20q0 18 11.5 29t24.5 11q12 0 20 -8t8 -22q0 -16 -11 -27t-25 -11z" />
    <glyph glyph-name="uni1E35" unicode="&#x1e35;" horiz-adv-x="436" 
d="M44 0l144 722h28l-108 -546h2l298 302h36l-186 -192l116 -286h-30l-108 266l-138 -140l-26 -126h-28zM74 -160l4 26h232l-4 -26h-232z" />
    <glyph glyph-name="kgreenlandic" unicode="&#x138;" horiz-adv-x="436" 
d="M44 0l96 478h28l-60 -302h2l298 302h36l-186 -192l116 -286h-30l-108 266l-138 -140l-26 -126h-28z" />
    <glyph glyph-name="lacute" unicode="&#x13a;" horiz-adv-x="226" 
d="M86 -8q-15 0 -25.5 9t-10.5 27q0 5 1.5 12t2.5 14l134 668h28l-134 -670q-1 -7 -1.5 -12t-0.5 -8q0 -14 14 -14q3 0 5.5 0.5t8.5 1.5l6 -22q-7 -3 -13 -4.5t-15 -1.5zM140 760l160 120h48l2 -4l-176 -116h-34z" />
    <glyph glyph-name="lcaron" unicode="&#x13e;" horiz-adv-x="210" 
d="M86 -8q-15 0 -25.5 9t-10.5 27q0 5 1.5 12t2.5 14l134 668h28l-134 -670q-1 -7 -1.5 -12t-0.5 -8q0 -14 14 -14q3 0 5.5 0.5t8.5 1.5l6 -22q-7 -3 -13 -4.5t-15 -1.5zM238 548l40 204h28l-8 -48l-38 -156h-22z" />
    <glyph glyph-name="uni013C" unicode="&#x13c;" horiz-adv-x="226" 
d="M86 -8q-15 0 -25.5 9t-10.5 27q0 5 1.5 12t2.5 14l134 668h28l-134 -670q-1 -7 -1.5 -12t-0.5 -8q0 -14 14 -14q3 0 5.5 0.5t8.5 1.5l6 -22q-7 -3 -13 -4.5t-15 -1.5zM-42 -208l-2 24q62 2 93 18.5t31 41.5q0 23 -17 33t-51 13l10 24q36 -5 55 -13t26 -19.5t7 -29.5
q0 -28 -19 -48.5t-53.5 -31.5t-79.5 -12z" />
    <glyph glyph-name="uni1E37" unicode="&#x1e37;" horiz-adv-x="226" 
d="M86 -8q-15 0 -25.5 9t-10.5 27q0 5 1.5 12t2.5 14l134 668h28l-134 -670q-1 -7 -1.5 -12t-0.5 -8q0 -14 14 -14q3 0 5.5 0.5t8.5 1.5l6 -22q-7 -3 -13 -4.5t-15 -1.5zM44 -192q-12 0 -20 8t-8 20q0 18 11.5 29t24.5 11q12 0 20 -8t8 -22q0 -16 -11 -27t-25 -11z" />
    <glyph glyph-name="uni1E39" unicode="&#x1e39;" horiz-adv-x="226" 
d="M86 -8q-15 0 -25.5 9t-10.5 27q0 5 1.5 12t2.5 14l134 668h28l-134 -670q-1 -7 -1.5 -12t-0.5 -8q0 -14 14 -14q3 0 5.5 0.5t8.5 1.5l6 -22q-7 -3 -13 -4.5t-15 -1.5zM90 798l6 26h230l-6 -26h-230zM44 -200q-12 0 -20 8t-8 20q0 18 11.5 29t24.5 11q12 0 20 -8t8 -22
q0 -16 -11 -27t-25 -11z" />
    <glyph glyph-name="uni1E3B" unicode="&#x1e3b;" horiz-adv-x="226" 
d="M86 -8q-15 0 -25.5 9t-10.5 27q0 5 1.5 12t2.5 14l134 668h28l-134 -670q-1 -7 -1.5 -12t-0.5 -8q0 -14 14 -14q3 0 5.5 0.5t8.5 1.5l6 -22q-7 -3 -13 -4.5t-15 -1.5zM-66 -152l4 26h232l-4 -26h-232z" />
    <glyph glyph-name="lslash" unicode="&#x142;" horiz-adv-x="246" 
d="M34 354l-10 22l126 58l14 4l108 50l10 -22l-124 -58l-14 -4zM96 -8q-15 0 -25.5 9t-10.5 27q0 5 1.5 12t2.5 14l134 668h28l-134 -670q-1 -7 -1.5 -12t-0.5 -8q0 -14 14 -14q3 0 5.5 0.5t8.5 1.5l6 -22q-7 -3 -13 -4.5t-15 -1.5z" />
    <glyph glyph-name="uni019A" unicode="&#x19a;" horiz-adv-x="266" 
d="M40 388l6 20l102 4h130l-6 -24h-232zM106 -8q-15 0 -25.5 9t-10.5 27q0 5 1.5 12t2.5 14l134 668h28l-134 -670q-1 -7 -1.5 -12t-0.5 -8q0 -14 14 -14q3 0 5.5 0.5t8.5 1.5l6 -22q-7 -3 -13 -4.5t-15 -1.5z" />
    <glyph glyph-name="uni2C61" unicode="&#x2c61;" horiz-adv-x="266" 
d="M50 442l6 20l102 4h130l-6 -24h-232zM28 334l6 20l102 4h130l-6 -24h-232zM106 -8q-15 0 -25.5 9t-10.5 27q0 5 1.5 12t2.5 14l134 668h28l-134 -670q-1 -7 -1.5 -12t-0.5 -8q0 -14 14 -14q3 0 5.5 0.5t8.5 1.5l6 -22q-7 -3 -13 -4.5t-15 -1.5z" />
    <glyph glyph-name="uni026B" unicode="&#x26b;" horiz-adv-x="314" 
d="M140 -8q-15 0 -25.5 9t-10.5 27q0 5 1.5 12t2.5 14l134 668h28l-134 -670q-1 -7 -1.5 -12t-0.5 -8q0 -14 14 -14q3 0 5.5 0.5t8.5 1.5l6 -22q-7 -3 -13 -4.5t-15 -1.5zM254 336q-26 0 -42 15.5t-28.5 35.5t-26 35.5t-35.5 15.5q-28 0 -45.5 -29t-26.5 -71l-22 6
q6 29 17.5 56t31 44.5t49.5 17.5q26 0 42 -15.5t28.5 -35.5t26 -35.5t35.5 -15.5q29 0 46 30t26 70l22 -6q-6 -28 -17.5 -55t-31 -45t-49.5 -18z" />
    <glyph glyph-name="uni026C" unicode="&#x26c;" horiz-adv-x="260" 
d="M128 342q-54 0 -80 20.5t-26 51.5q0 27 17 45.5t45 18.5q34 0 50 -19.5t21 -45t5 -43.5l-20 8q0 28 -11 51t-43 23q-19 0 -28.5 -11t-9.5 -29q0 -21 19 -32.5t55 -11.5h150l-6 -26h-138zM64 0l144 722h28l-144 -722h-28z" />
    <glyph glyph-name="ldot" unicode="&#x140;" horiz-adv-x="258" 
d="M86 -8q-15 0 -25.5 9t-10.5 27q0 5 1.5 12t2.5 14l134 668h28l-134 -670q-1 -7 -1.5 -12t-0.5 -8q0 -14 14 -14q3 0 5.5 0.5t8.5 1.5l6 -22q-7 -3 -13 -4.5t-15 -1.5zM246 290q-13 0 -20.5 9t-7.5 21q0 11 6 21.5t15.5 17.5t20.5 7q14 0 20 -9t6 -23q0 -11 -5.5 -21
t-14.5 -16.5t-20 -6.5z" />
    <glyph glyph-name="uni1E3F" unicode="&#x1e3f;" horiz-adv-x="776" 
d="M44 0l96 478h24l-12 -78h4q41 39 83.5 64.5t76.5 25.5q60 0 84.5 -30.5t25.5 -71.5q51 50 96.5 76t79.5 26q60 0 86 -32.5t26 -83.5q0 -18 -1.5 -30.5t-6.5 -33.5l-62 -310h-28l62 306q5 23 6.5 36t1.5 28q0 47 -20.5 70.5t-67.5 23.5q-24 0 -69.5 -25t-98.5 -81
l-72 -358h-28l62 306q5 23 6.5 36t1.5 28q0 47 -20.5 70.5t-67.5 23.5q-24 0 -69.5 -25t-98.5 -81l-72 -358h-28zM396 570l160 150h38l2 -4l-170 -146h-30z" />
    <glyph glyph-name="uni1E41" unicode="&#x1e41;" horiz-adv-x="776" 
d="M44 0l96 478h24l-12 -78h4q41 39 83.5 64.5t76.5 25.5q60 0 84.5 -30.5t25.5 -71.5q51 50 96.5 76t79.5 26q60 0 86 -32.5t26 -83.5q0 -18 -1.5 -30.5t-6.5 -33.5l-62 -310h-28l62 306q5 23 6.5 36t1.5 28q0 47 -20.5 70.5t-67.5 23.5q-24 0 -69.5 -25t-98.5 -81
l-72 -358h-28l62 306q5 23 6.5 36t1.5 28q0 47 -20.5 70.5t-67.5 23.5q-24 0 -69.5 -25t-98.5 -81l-72 -358h-28zM476 600q-12 0 -20 8t-8 20q0 18 11.5 29t24.5 11q12 0 20 -8t8 -22q0 -16 -11 -27t-25 -11z" />
    <glyph glyph-name="uni1E43" unicode="&#x1e43;" horiz-adv-x="776" 
d="M44 0l96 478h24l-12 -78h4q41 39 83.5 64.5t76.5 25.5q60 0 84.5 -30.5t25.5 -71.5q51 50 96.5 76t79.5 26q60 0 86 -32.5t26 -83.5q0 -18 -1.5 -30.5t-6.5 -33.5l-62 -310h-28l62 306q5 23 6.5 36t1.5 28q0 47 -20.5 70.5t-67.5 23.5q-24 0 -69.5 -25t-98.5 -81
l-72 -358h-28l62 306q5 23 6.5 36t1.5 28q0 47 -20.5 70.5t-67.5 23.5q-24 0 -69.5 -25t-98.5 -81l-72 -358h-28zM322 -192q-12 0 -20 8t-8 20q0 18 11.5 29t24.5 11q12 0 20 -8t8 -22q0 -16 -11 -27t-25 -11z" />
    <glyph glyph-name="uni01F9" unicode="&#x1f9;" horiz-adv-x="504" 
d="M44 0l96 478h24l-12 -78h4q42 39 85.5 64.5t86.5 25.5q62 0 88 -32.5t26 -83.5q0 -18 -1.5 -30.5t-6.5 -33.5l-62 -310h-28l62 306q5 23 6.5 36t1.5 28q0 47 -21 70.5t-69 23.5q-33 0 -78 -25t-102 -81l-72 -358h-28zM380 570l-124 146l2 4h32l116 -150h-26z" />
    <glyph glyph-name="nacute" unicode="&#x144;" horiz-adv-x="504" 
d="M44 0l96 478h24l-12 -78h4q42 39 85.5 64.5t86.5 25.5q62 0 88 -32.5t26 -83.5q0 -18 -1.5 -30.5t-6.5 -33.5l-62 -310h-28l62 306q5 23 6.5 36t1.5 28q0 47 -21 70.5t-69 23.5q-33 0 -78 -25t-102 -81l-72 -358h-28zM256 570l160 150h38l2 -4l-170 -146h-30z" />
    <glyph glyph-name="ncaron" unicode="&#x148;" horiz-adv-x="504" 
d="M44 0l96 478h24l-12 -78h4q42 39 85.5 64.5t86.5 25.5q62 0 88 -32.5t26 -83.5q0 -18 -1.5 -30.5t-6.5 -33.5l-62 -310h-28l62 306q5 23 6.5 36t1.5 28q0 47 -21 70.5t-69 23.5q-33 0 -78 -25t-102 -81l-72 -358h-28zM316 570l-100 154h26l86 -120h4l134 120h30
l-160 -154h-20z" />
    <glyph glyph-name="ntilde" unicode="&#xf1;" horiz-adv-x="504" 
d="M44 0l96 478h24l-12 -78h4q42 39 85.5 64.5t86.5 25.5q62 0 88 -32.5t26 -83.5q0 -18 -1.5 -30.5t-6.5 -33.5l-62 -310h-28l62 306q5 23 6.5 36t1.5 28q0 47 -21 70.5t-69 23.5q-33 0 -78 -25t-102 -81l-72 -358h-28zM414 580q-27 0 -43 15.5t-27.5 35.5t-25.5 35.5
t-36 15.5q-28 0 -45.5 -29.5t-26.5 -70.5l-26 2q7 29 19 57t32.5 46.5t50.5 18.5q27 0 43 -15.5t27.5 -35.5t25.5 -35.5t36 -15.5q29 0 46 30t26 70l26 -2q-7 -28 -19 -56t-32 -47t-51 -19z" />
    <glyph glyph-name="uni1E45" unicode="&#x1e45;" horiz-adv-x="504" 
d="M44 0l96 478h24l-12 -78h4q42 39 85.5 64.5t86.5 25.5q62 0 88 -32.5t26 -83.5q0 -18 -1.5 -30.5t-6.5 -33.5l-62 -310h-28l62 306q5 23 6.5 36t1.5 28q0 47 -21 70.5t-69 23.5q-33 0 -78 -25t-102 -81l-72 -358h-28zM336 600q-12 0 -20 8t-8 20q0 18 11.5 29t24.5 11
q12 0 20 -8t8 -22q0 -16 -11 -27t-25 -11z" />
    <glyph glyph-name="uni0146" unicode="&#x146;" horiz-adv-x="504" 
d="M44 0l96 478h24l-12 -78h4q42 39 85.5 64.5t86.5 25.5q62 0 88 -32.5t26 -83.5q0 -18 -1.5 -30.5t-6.5 -33.5l-62 -310h-28l62 306q5 23 6.5 36t1.5 28q0 47 -21 70.5t-69 23.5q-33 0 -78 -25t-102 -81l-72 -358h-28zM102 -208l-2 24q62 2 93 18.5t31 41.5q0 23 -17 33
t-51 13l10 24q36 -5 55 -13t26 -19.5t7 -29.5q0 -28 -19 -48.5t-53.5 -31.5t-79.5 -12z" />
    <glyph glyph-name="uni1E47" unicode="&#x1e47;" horiz-adv-x="504" 
d="M44 0l96 478h24l-12 -78h4q42 39 85.5 64.5t86.5 25.5q62 0 88 -32.5t26 -83.5q0 -18 -1.5 -30.5t-6.5 -33.5l-62 -310h-28l62 306q5 23 6.5 36t1.5 28q0 47 -21 70.5t-69 23.5q-33 0 -78 -25t-102 -81l-72 -358h-28zM188 -192q-12 0 -20 8t-8 20q0 18 11.5 29t24.5 11
q12 0 20 -8t8 -22q0 -16 -11 -27t-25 -11z" />
    <glyph glyph-name="uni1E49" unicode="&#x1e49;" horiz-adv-x="504" 
d="M44 0l96 478h24l-12 -78h4q42 39 85.5 64.5t86.5 25.5q62 0 88 -32.5t26 -83.5q0 -18 -1.5 -30.5t-6.5 -33.5l-62 -310h-28l62 306q5 23 6.5 36t1.5 28q0 47 -21 70.5t-69 23.5q-33 0 -78 -25t-102 -81l-72 -358h-28zM78 -152l4 26h232l-4 -26h-232z" />
    <glyph glyph-name="napostrophe" unicode="&#x149;" horiz-adv-x="674" 
d="M105 488l-9 22q56 23 82 59.5t26 76.5q0 11 -3 19t-9 15h2q-4 -9 -12 -13.5t-18 -4.5q-13 0 -23.5 7t-10.5 25t13.5 29t32.5 11q23 0 42.5 -19t19.5 -57q0 -36 -15.5 -70t-45 -60t-72.5 -40zM214 0l96 478h24l-12 -78h4q42 39 85.5 64.5t86.5 25.5q62 0 88 -32.5
t26 -83.5q0 -18 -1.5 -30.5t-6.5 -33.5l-62 -310h-28l62 306q5 23 6.5 36t1.5 28q0 47 -21 70.5t-69 23.5q-33 0 -78 -25t-102 -81l-72 -358h-28z" />
    <glyph glyph-name="eng" unicode="&#x14b;" horiz-adv-x="504" 
d="M240 -234q-18 0 -32 3.5t-26 12.5l10 20q11 -6 23 -8t25 -2q32 0 52 27.5t30 76.5l84 410q5 23 6.5 36t1.5 28q0 47 -21 70.5t-69 23.5q-33 0 -78 -25t-102 -81l-72 -358h-28l96 478h24l-12 -78h4q45 39 87 64.5t85 25.5q62 0 88 -32.5t26 -83.5q0 -18 -1.5 -30.5
t-6.5 -33.5l-82 -410q-8 -41 -22.5 -71t-36.5 -46.5t-53 -16.5z" />
    <glyph glyph-name="uni019E" unicode="&#x19e;" horiz-adv-x="504" 
d="M300 -222l106 528q5 23 6.5 36t1.5 28q0 47 -21 70.5t-69 23.5q-33 0 -78 -25t-102 -81l-72 -358h-28l96 478h24l-12 -78h4q42 39 85.5 64.5t86.5 25.5q62 0 88 -32.5t26 -83.5q0 -18 -1.5 -30.5t-6.5 -33.5l-106 -532h-28z" />
    <glyph glyph-name="ograve" unicode="&#xf2;" horiz-adv-x="500" 
d="M204 -12q-49 0 -84.5 22t-54.5 64t-19 102q0 67 21 124t56.5 99.5t80.5 66.5t92 24q49 0 84.5 -22t54.5 -64t19 -102q0 -67 -21 -124t-56.5 -99.5t-80.5 -66.5t-92 -24zM206 14q41 0 80 22.5t70.5 61.5t50.5 90t19 108q0 83 -34.5 125.5t-97.5 42.5q-40 0 -79.5 -22.5
t-71 -61.5t-50.5 -90t-19 -108q0 -82 34.5 -125t97.5 -43zM374 570l-124 146l2 4h32l116 -150h-26z" />
    <glyph glyph-name="oacute" unicode="&#xf3;" horiz-adv-x="500" 
d="M204 -12q-49 0 -84.5 22t-54.5 64t-19 102q0 67 21 124t56.5 99.5t80.5 66.5t92 24q49 0 84.5 -22t54.5 -64t19 -102q0 -67 -21 -124t-56.5 -99.5t-80.5 -66.5t-92 -24zM206 14q41 0 80 22.5t70.5 61.5t50.5 90t19 108q0 83 -34.5 125.5t-97.5 42.5q-40 0 -79.5 -22.5
t-71 -61.5t-50.5 -90t-19 -108q0 -82 34.5 -125t97.5 -43zM250 570l160 150h38l2 -4l-170 -146h-30z" />
    <glyph glyph-name="ocircumflex" unicode="&#xf4;" horiz-adv-x="500" 
d="M204 -12q-49 0 -84.5 22t-54.5 64t-19 102q0 67 21 124t56.5 99.5t80.5 66.5t92 24q49 0 84.5 -22t54.5 -64t19 -102q0 -67 -21 -124t-56.5 -99.5t-80.5 -66.5t-92 -24zM206 14q41 0 80 22.5t70.5 61.5t50.5 90t19 108q0 83 -34.5 125.5t-97.5 42.5q-40 0 -79.5 -22.5
t-71 -61.5t-50.5 -90t-19 -108q0 -82 34.5 -125t97.5 -43zM180 570l160 154h20l100 -154h-26l-86 120h-4l-134 -120h-30z" />
    <glyph glyph-name="otilde" unicode="&#xf5;" horiz-adv-x="500" 
d="M204 -12q-49 0 -84.5 22t-54.5 64t-19 102q0 67 21 124t56.5 99.5t80.5 66.5t92 24q49 0 84.5 -22t54.5 -64t19 -102q0 -67 -21 -124t-56.5 -99.5t-80.5 -66.5t-92 -24zM206 14q41 0 80 22.5t70.5 61.5t50.5 90t19 108q0 83 -34.5 125.5t-97.5 42.5q-40 0 -79.5 -22.5
t-71 -61.5t-50.5 -90t-19 -108q0 -82 34.5 -125t97.5 -43zM408 580q-27 0 -43 15.5t-27.5 35.5t-25.5 35.5t-36 15.5q-28 0 -45.5 -29.5t-26.5 -70.5l-26 2q7 29 19 57t32.5 46.5t50.5 18.5q27 0 43 -15.5t27.5 -35.5t25.5 -35.5t36 -15.5q29 0 46 30t26 70l26 -2
q-7 -28 -19 -56t-32 -47t-51 -19z" />
    <glyph glyph-name="odieresis" unicode="&#xf6;" horiz-adv-x="500" 
d="M204 -12q-49 0 -84.5 22t-54.5 64t-19 102q0 67 21 124t56.5 99.5t80.5 66.5t92 24q49 0 84.5 -22t54.5 -64t19 -102q0 -67 -21 -124t-56.5 -99.5t-80.5 -66.5t-92 -24zM206 14q41 0 80 22.5t70.5 61.5t50.5 90t19 108q0 83 -34.5 125.5t-97.5 42.5q-40 0 -79.5 -22.5
t-71 -61.5t-50.5 -90t-19 -108q0 -82 34.5 -125t97.5 -43zM250 602q-12 0 -19 7t-7 19q0 17 10 27.5t22 10.5t19 -7t7 -21q0 -15 -10 -25.5t-22 -10.5zM416 602q-12 0 -19 7t-7 19q0 17 10 27.5t22 10.5t19 -7t7 -21q0 -15 -10 -25.5t-22 -10.5z" />
    <glyph glyph-name="omacron" unicode="&#x14d;" horiz-adv-x="500" 
d="M204 -12q-49 0 -84.5 22t-54.5 64t-19 102q0 67 21 124t56.5 99.5t80.5 66.5t92 24q49 0 84.5 -22t54.5 -64t19 -102q0 -67 -21 -124t-56.5 -99.5t-80.5 -66.5t-92 -24zM206 14q41 0 80 22.5t70.5 61.5t50.5 90t19 108q0 83 -34.5 125.5t-97.5 42.5q-40 0 -79.5 -22.5
t-71 -61.5t-50.5 -90t-19 -108q0 -82 34.5 -125t97.5 -43zM214 610l4 26h232l-4 -26h-232z" />
    <glyph glyph-name="obreve" unicode="&#x14f;" horiz-adv-x="500" 
d="M204 -12q-49 0 -84.5 22t-54.5 64t-19 102q0 67 21 124t56.5 99.5t80.5 66.5t92 24q49 0 84.5 -22t54.5 -64t19 -102q0 -67 -21 -124t-56.5 -99.5t-80.5 -66.5t-92 -24zM206 14q41 0 80 22.5t70.5 61.5t50.5 90t19 108q0 83 -34.5 125.5t-97.5 42.5q-40 0 -79.5 -22.5
t-71 -61.5t-50.5 -90t-19 -108q0 -82 34.5 -125t97.5 -43zM320 570q-49 0 -74.5 22.5t-34.5 56.5t-9 67l26 2q0 -30 8.5 -58t29.5 -46t60 -18q37 0 65.5 19t48 47.5t28.5 57.5l26 -4q-9 -31 -30.5 -65t-57 -57.5t-86.5 -23.5z" />
    <glyph glyph-name="ohungarumlaut" unicode="&#x151;" horiz-adv-x="500" 
d="M204 -12q-49 0 -84.5 22t-54.5 64t-19 102q0 67 21 124t56.5 99.5t80.5 66.5t92 24q49 0 84.5 -22t54.5 -64t19 -102q0 -67 -21 -124t-56.5 -99.5t-80.5 -66.5t-92 -24zM206 14q41 0 80 22.5t70.5 61.5t50.5 90t19 108q0 83 -34.5 125.5t-97.5 42.5q-40 0 -79.5 -22.5
t-71 -61.5t-50.5 -90t-19 -108q0 -82 34.5 -125t97.5 -43zM220 570l116 150h32l2 -4l-124 -146h-26zM370 570l116 150h32l2 -4l-124 -146h-26z" />
    <glyph glyph-name="uni01D2" unicode="&#x1d2;" horiz-adv-x="500" 
d="M204 -12q-49 0 -84.5 22t-54.5 64t-19 102q0 67 21 124t56.5 99.5t80.5 66.5t92 24q49 0 84.5 -22t54.5 -64t19 -102q0 -67 -21 -124t-56.5 -99.5t-80.5 -66.5t-92 -24zM206 14q41 0 80 22.5t70.5 61.5t50.5 90t19 108q0 83 -34.5 125.5t-97.5 42.5q-40 0 -79.5 -22.5
t-71 -61.5t-50.5 -90t-19 -108q0 -82 34.5 -125t97.5 -43zM310 570l-100 154h26l86 -120h4l134 120h30l-160 -154h-20z" />
    <glyph glyph-name="uni020D" unicode="&#x20d;" horiz-adv-x="500" 
d="M204 -12q-49 0 -84.5 22t-54.5 64t-19 102q0 67 21 124t56.5 99.5t80.5 66.5t92 24q49 0 84.5 -22t54.5 -64t19 -102q0 -67 -21 -124t-56.5 -99.5t-80.5 -66.5t-92 -24zM206 14q41 0 80 22.5t70.5 61.5t50.5 90t19 108q0 83 -34.5 125.5t-97.5 42.5q-40 0 -79.5 -22.5
t-71 -61.5t-50.5 -90t-19 -108q0 -82 34.5 -125t97.5 -43zM254 570l-84 146l2 4h32l76 -150h-26zM404 570l-84 146l2 4h32l76 -150h-26z" />
    <glyph glyph-name="uni01EB" unicode="&#x1eb;" horiz-adv-x="500" 
d="M164 -212q-30 0 -50 17t-20 51q0 28 15.5 56.5t43.5 52t65 37.5l-14 -14q-49 0 -84.5 22t-54.5 64t-19 102q0 67 21 124t56.5 99.5t80.5 66.5t92 24q46 0 81.5 -22t56 -64t20.5 -102q0 -71 -24.5 -133.5t-69 -108t-104.5 -66.5q-76 -27 -104 -63t-28 -69q0 -22 12.5 -35
t31.5 -13q15 0 27.5 5t28.5 17l12 -16q-18 -16 -35 -24t-37 -8zM206 14q41 0 80 22.5t70.5 61.5t50.5 90t19 108q0 83 -34.5 125.5t-97.5 42.5q-40 0 -79.5 -22.5t-71 -61.5t-50.5 -90t-19 -108q0 -82 34.5 -125t97.5 -43z" />
    <glyph glyph-name="uni1ECD" unicode="&#x1ecd;" horiz-adv-x="500" 
d="M204 -12q-49 0 -84.5 22t-54.5 64t-19 102q0 67 21 124t56.5 99.5t80.5 66.5t92 24q49 0 84.5 -22t54.5 -64t19 -102q0 -67 -21 -124t-56.5 -99.5t-80.5 -66.5t-92 -24zM206 14q41 0 80 22.5t70.5 61.5t50.5 90t19 108q0 83 -34.5 125.5t-97.5 42.5q-40 0 -79.5 -22.5
t-71 -61.5t-50.5 -90t-19 -108q0 -82 34.5 -125t97.5 -43zM154 -200q-12 0 -20 8t-8 20q0 18 11.5 29t24.5 11q12 0 20 -8t8 -22q0 -16 -11 -27t-25 -11z" />
    <glyph glyph-name="uni1ECF" unicode="&#x1ecf;" horiz-adv-x="500" 
d="M204 -12q-49 0 -84.5 22t-54.5 64t-19 102q0 67 21 124t56.5 99.5t80.5 66.5t92 24q49 0 84.5 -22t54.5 -64t19 -102q0 -67 -21 -124t-56.5 -99.5t-80.5 -66.5t-92 -24zM206 14q41 0 80 22.5t70.5 61.5t50.5 90t19 108q0 83 -34.5 125.5t-97.5 42.5q-40 0 -79.5 -22.5
t-71 -61.5t-50.5 -90t-19 -108q0 -82 34.5 -125t97.5 -43zM294 558l-6 22q41 12 59.5 33t18.5 45q0 27 -19.5 40t-52.5 14l6 24q38 -1 66 -17.5t28 -54.5q0 -36 -24.5 -64t-75.5 -42z" />
    <glyph glyph-name="uni1ED1" unicode="&#x1ed1;" horiz-adv-x="500" 
d="M204 -12q-49 0 -84.5 22t-54.5 64t-19 102q0 67 21 124t56.5 99.5t80.5 66.5t92 24q49 0 84.5 -22t54.5 -64t19 -102q0 -67 -21 -124t-56.5 -99.5t-80.5 -66.5t-92 -24zM206 14q41 0 80 22.5t70.5 61.5t50.5 90t19 108q0 83 -34.5 125.5t-97.5 42.5q-40 0 -79.5 -22.5
t-71 -61.5t-50.5 -90t-19 -108q0 -82 34.5 -125t97.5 -43zM180 570l150 114h20l110 -114h-26l-96 80h-4l-124 -80h-30zM420 650l112 100h36l2 -4l-120 -96h-30z" />
    <glyph glyph-name="uni1ED3" unicode="&#x1ed3;" horiz-adv-x="500" 
d="M204 -12q-49 0 -84.5 22t-54.5 64t-19 102q0 67 21 124t56.5 99.5t80.5 66.5t92 24q49 0 84.5 -22t54.5 -64t19 -102q0 -67 -21 -124t-56.5 -99.5t-80.5 -66.5t-92 -24zM206 14q41 0 80 22.5t70.5 61.5t50.5 90t19 108q0 83 -34.5 125.5t-97.5 42.5q-40 0 -79.5 -22.5
t-71 -61.5t-50.5 -90t-19 -108q0 -82 34.5 -125t97.5 -43zM180 570l150 114h20l110 -114h-26l-96 80h-4l-124 -80h-30zM236 650l-86 96l2 4h32l76 -100h-24z" />
    <glyph glyph-name="uni1ED5" unicode="&#x1ed5;" horiz-adv-x="500" 
d="M204 -12q-49 0 -84.5 22t-54.5 64t-19 102q0 67 21 124t56.5 99.5t80.5 66.5t92 24q49 0 84.5 -22t54.5 -64t19 -102q0 -67 -21 -124t-56.5 -99.5t-80.5 -66.5t-92 -24zM206 14q41 0 80 22.5t70.5 61.5t50.5 90t19 108q0 83 -34.5 125.5t-97.5 42.5q-40 0 -79.5 -22.5
t-71 -61.5t-50.5 -90t-19 -108q0 -82 34.5 -125t97.5 -43zM442 648l-6 22q30 9 45 22.5t15 35.5q0 18 -17.5 27.5t-50.5 10.5l6 24q35 -1 62.5 -14.5t27.5 -43.5t-21.5 -52.5t-60.5 -31.5zM180 570l150 114h20l110 -114h-26l-96 80h-4l-124 -80h-30z" />
    <glyph glyph-name="uni1ED7" unicode="&#x1ed7;" horiz-adv-x="500" 
d="M204 -12q-49 0 -84.5 22t-54.5 64t-19 102q0 67 21 124t56.5 99.5t80.5 66.5t92 24q49 0 84.5 -22t54.5 -64t19 -102q0 -67 -21 -124t-56.5 -99.5t-80.5 -66.5t-92 -24zM206 14q41 0 80 22.5t70.5 61.5t50.5 90t19 108q0 83 -34.5 125.5t-97.5 42.5q-40 0 -79.5 -22.5
t-71 -61.5t-50.5 -90t-19 -108q0 -82 34.5 -125t97.5 -43zM418 706q-29 0 -50.5 10.5t-41 21t-42.5 10.5q-17 0 -26.5 -11.5t-15.5 -34.5l-24 2q5 24 22 47t50 23q29 0 50 -10.5t40 -21t42 -10.5q17 0 26.5 12t15.5 34l24 -2q-4 -24 -20.5 -47t-49.5 -23zM180 570l150 114
h20l110 -114h-26l-96 80h-4l-124 -80h-30z" />
    <glyph glyph-name="uni1ED9" unicode="&#x1ed9;" horiz-adv-x="500" 
d="M204 -12q-49 0 -84.5 22t-54.5 64t-19 102q0 67 21 124t56.5 99.5t80.5 66.5t92 24q49 0 84.5 -22t54.5 -64t19 -102q0 -67 -21 -124t-56.5 -99.5t-80.5 -66.5t-92 -24zM206 14q41 0 80 22.5t70.5 61.5t50.5 90t19 108q0 83 -34.5 125.5t-97.5 42.5q-40 0 -79.5 -22.5
t-71 -61.5t-50.5 -90t-19 -108q0 -82 34.5 -125t97.5 -43zM180 570l160 154h20l100 -154h-26l-86 120h-4l-134 -120h-30zM154 -192q-12 0 -20 8t-8 20q0 18 11.5 29t24.5 11q12 0 20 -8t8 -22q0 -16 -11 -27t-25 -11z" />
    <glyph glyph-name="uni1E53" unicode="&#x1e53;" horiz-adv-x="500" 
d="M204 -12q-49 0 -84.5 22t-54.5 64t-19 102q0 67 21 124t56.5 99.5t80.5 66.5t92 24q49 0 84.5 -22t54.5 -64t19 -102q0 -67 -21 -124t-56.5 -99.5t-80.5 -66.5t-92 -24zM206 14q41 0 80 22.5t70.5 61.5t50.5 90t19 108q0 83 -34.5 125.5t-97.5 42.5q-40 0 -79.5 -22.5
t-71 -61.5t-50.5 -90t-19 -108q0 -82 34.5 -125t97.5 -43zM214 610l4 26h232l-4 -26h-232zM300 700l112 100h36l2 -4l-120 -96h-30z" />
    <glyph glyph-name="oslash" unicode="&#xf8;" horiz-adv-x="500" 
d="M204 -12q-49 0 -84.5 22t-54.5 64t-19 102q0 67 21 124t56.5 99.5t80.5 66.5t92 24q49 0 84.5 -22t54.5 -64t19 -102q0 -67 -21 -124t-56.5 -99.5t-80.5 -66.5t-92 -24zM206 14q41 0 80 22.5t70.5 61.5t50.5 90t19 108q0 83 -34.5 125.5t-97.5 42.5q-40 0 -79.5 -22.5
t-71 -61.5t-50.5 -90t-19 -108q0 -82 34.5 -125t97.5 -43zM18 -22l-18 18l488 502l18 -18z" />
    <glyph glyph-name="oslashacute" unicode="&#x1ff;" horiz-adv-x="500" 
d="M204 -12q-49 0 -84.5 22t-54.5 64t-19 102q0 67 21 124t56.5 99.5t80.5 66.5t92 24q49 0 84.5 -22t54.5 -64t19 -102q0 -67 -21 -124t-56.5 -99.5t-80.5 -66.5t-92 -24zM206 14q41 0 80 22.5t70.5 61.5t50.5 90t19 108q0 83 -34.5 125.5t-97.5 42.5q-40 0 -79.5 -22.5
t-71 -61.5t-50.5 -90t-19 -108q0 -82 34.5 -125t97.5 -43zM18 -22l-18 18l488 502l18 -18zM250 570l160 150h38l2 -4l-170 -146h-30z" />
    <glyph glyph-name="oe" unicode="&#x153;" horiz-adv-x="824" 
d="M204 -12q-48 0 -83.5 22t-55 64t-19.5 102q0 67 20.5 124t56 99.5t80 66.5t93.5 24q65 0 106 -39t50 -111q32 71 85.5 110.5t108.5 39.5q51 0 82.5 -21.5t45.5 -59.5t14 -87q0 -24 -3.5 -44.5t-8.5 -35.5h-324q-12 -80 3.5 -130.5t49.5 -74t77 -23.5q38 0 67.5 12.5
t56.5 31.5l14 -18q-27 -21 -61.5 -36.5t-78.5 -15.5q-66 0 -108.5 41t-51.5 119q-33 -73 -91.5 -116.5t-124.5 -43.5zM206 14q41 0 80 22.5t70.5 61.5t50.5 90t19 108q0 83 -34.5 125.5t-97.5 42.5q-40 0 -79.5 -22.5t-71 -61.5t-50.5 -90t-19 -108q0 -82 34.5 -125
t97.5 -43zM458 268h296q3 15 4.5 29.5t1.5 30.5q0 34 -11 65t-36.5 51t-68.5 20q-41 0 -79 -25.5t-66.5 -69.5t-40.5 -101z" />
    <glyph glyph-name="uni028C" unicode="&#x28c;" horiz-adv-x="408" 
d="M278 478l78 -478h-28l-50 312q-6 34 -11 70.5t-11 69.5h-4q-18 -35 -37.5 -70.5t-38.5 -69.5l-170 -312h-30l264 478h38z" />
    <glyph glyph-name="uni0254" unicode="&#x254;" horiz-adv-x="427" 
d="M116 -12q-47 0 -81 18.5t-55 45.5l18 18q21 -25 51 -40.5t69 -15.5q64 0 116 37t83 100t31 141q0 77 -35.5 124.5t-94.5 47.5q-42 0 -74 -14.5t-62 -40.5l-16 21q32 29 67.5 44.5t86.5 15.5q45 0 80.5 -22.5t55.5 -65.5t20 -104q0 -71 -21.5 -128.5t-58.5 -98t-83.5 -62
t-96.5 -21.5z" />
    <glyph glyph-name="uniA74F" unicode="&#xa74f;" horiz-adv-x="870" 
d="M204 -12q-48 0 -83.5 22t-55 64t-19.5 102q0 67 20.5 124t56 99.5t80 66.5t93.5 24q71 0 112 -48.5t44 -147.5h-14q41 99 99.5 147.5t128.5 48.5q48 0 83.5 -22t55 -64t19.5 -102q0 -67 -20.5 -124t-56 -99.5t-80 -66.5t-93.5 -24q-70 0 -111.5 48.5t-44.5 147.5h14
q-41 -99 -99 -147.5t-129 -48.5zM206 14q41 0 80 22.5t70.5 61.5t50.5 90t19 108q0 83 -34.5 125.5t-97.5 42.5q-40 0 -79.5 -22.5t-71 -61.5t-50.5 -90t-19 -108q0 -82 34.5 -125t97.5 -43zM576 14q41 0 80 22.5t70.5 61.5t50.5 90t19 108q0 83 -34.5 125.5t-97.5 42.5
q-40 0 -79.5 -22.5t-71 -61.5t-50.5 -90t-19 -108q0 -82 34.5 -125t97.5 -43z" />
    <glyph glyph-name="uni0223" unicode="&#x223;" horiz-adv-x="522" 
d="M230 14q63 0 108 28.5t68.5 70.5t23.5 83q0 72 -41.5 117.5t-124.5 84.5q-85 -33 -135.5 -97t-50.5 -139q0 -42 19.5 -75.5t53.5 -53t79 -19.5zM228 -12q-54 0 -94 22.5t-62 60.5t-22 85q0 67 28.5 117.5t72.5 85.5t91 55v4q-34 30 -57 64t-23 89q0 49 21 89.5t49 73.5
l20 -14q-28 -33 -45 -70t-17 -75q0 -37 13 -68t45 -59t90 -58q80 47 114 111.5t34 132.5q0 40 -16 78l24 12q11 -22 15.5 -43t4.5 -47q0 -51 -16 -98t-49.5 -87t-84.5 -71v-4q35 -27 64.5 -68.5t29.5 -107.5q0 -50 -27 -98.5t-78.5 -80t-124.5 -31.5z" />
    <glyph glyph-name="ohorn" unicode="&#x1a1;" horiz-adv-x="500" 
d="M397 442l-27 22q56 4 89.5 28t36.5 72q1 9 -0.5 20t-5.5 22l28 14q5 -13 6.5 -26.5t1.5 -25.5q0 -41 -21 -67t-51 -40t-57 -19zM204 -12q-49 0 -84.5 22t-54.5 64t-19 102q0 67 21 124t56.5 99.5t80.5 66.5t92 24q49 0 84.5 -22t54.5 -64t19 -102q0 -67 -21 -124
t-56.5 -99.5t-80.5 -66.5t-92 -24zM206 14q41 0 80 22.5t70.5 61.5t50.5 90t19 108q0 83 -34.5 125.5t-97.5 42.5q-40 0 -79.5 -22.5t-71 -61.5t-50.5 -90t-19 -108q0 -82 34.5 -125t97.5 -43z" />
    <glyph glyph-name="uni1EDB" unicode="&#x1edb;" horiz-adv-x="500" 
d="M397 442l-27 22q56 4 89.5 28t36.5 72q1 9 -0.5 20t-5.5 22l28 14q5 -13 6.5 -26.5t1.5 -25.5q0 -41 -21 -67t-51 -40t-57 -19zM204 -12q-49 0 -84.5 22t-54.5 64t-19 102q0 67 21 124t56.5 99.5t80.5 66.5t92 24q49 0 84.5 -22t54.5 -64t19 -102q0 -67 -21 -124
t-56.5 -99.5t-80.5 -66.5t-92 -24zM206 14q41 0 80 22.5t70.5 61.5t50.5 90t19 108q0 83 -34.5 125.5t-97.5 42.5q-40 0 -79.5 -22.5t-71 -61.5t-50.5 -90t-19 -108q0 -82 34.5 -125t97.5 -43zM250 570l160 150h38l2 -4l-170 -146h-30z" />
    <glyph glyph-name="uni1EDD" unicode="&#x1edd;" horiz-adv-x="500" 
d="M397 442l-27 22q56 4 89.5 28t36.5 72q1 9 -0.5 20t-5.5 22l28 14q5 -13 6.5 -26.5t1.5 -25.5q0 -41 -21 -67t-51 -40t-57 -19zM204 -12q-49 0 -84.5 22t-54.5 64t-19 102q0 67 21 124t56.5 99.5t80.5 66.5t92 24q49 0 84.5 -22t54.5 -64t19 -102q0 -67 -21 -124
t-56.5 -99.5t-80.5 -66.5t-92 -24zM206 14q41 0 80 22.5t70.5 61.5t50.5 90t19 108q0 83 -34.5 125.5t-97.5 42.5q-40 0 -79.5 -22.5t-71 -61.5t-50.5 -90t-19 -108q0 -82 34.5 -125t97.5 -43zM374 570l-124 146l2 4h32l116 -150h-26z" />
    <glyph glyph-name="uni1EDF" unicode="&#x1edf;" horiz-adv-x="500" 
d="M397 442l-27 22q56 4 89.5 28t36.5 72q1 9 -0.5 20t-5.5 22l28 14q5 -13 6.5 -26.5t1.5 -25.5q0 -41 -21 -67t-51 -40t-57 -19zM204 -12q-49 0 -84.5 22t-54.5 64t-19 102q0 67 21 124t56.5 99.5t80.5 66.5t92 24q49 0 84.5 -22t54.5 -64t19 -102q0 -67 -21 -124
t-56.5 -99.5t-80.5 -66.5t-92 -24zM206 14q41 0 80 22.5t70.5 61.5t50.5 90t19 108q0 83 -34.5 125.5t-97.5 42.5q-40 0 -79.5 -22.5t-71 -61.5t-50.5 -90t-19 -108q0 -82 34.5 -125t97.5 -43zM294 558l-6 22q41 12 59.5 33t18.5 45q0 27 -19.5 40t-52.5 14l6 24
q38 -1 66 -17.5t28 -54.5q0 -36 -24.5 -64t-75.5 -42z" />
    <glyph glyph-name="uni1EE1" unicode="&#x1ee1;" horiz-adv-x="500" 
d="M397 442l-27 22q56 4 89.5 28t36.5 72q1 9 -0.5 20t-5.5 22l28 14q5 -13 6.5 -26.5t1.5 -25.5q0 -41 -21 -67t-51 -40t-57 -19zM204 -12q-49 0 -84.5 22t-54.5 64t-19 102q0 67 21 124t56.5 99.5t80.5 66.5t92 24q49 0 84.5 -22t54.5 -64t19 -102q0 -67 -21 -124
t-56.5 -99.5t-80.5 -66.5t-92 -24zM206 14q41 0 80 22.5t70.5 61.5t50.5 90t19 108q0 83 -34.5 125.5t-97.5 42.5q-40 0 -79.5 -22.5t-71 -61.5t-50.5 -90t-19 -108q0 -82 34.5 -125t97.5 -43zM398 580q-27 0 -43 15.5t-27.5 35.5t-25.5 35.5t-36 15.5q-28 0 -45.5 -29.5
t-26.5 -70.5l-26 2q7 29 19 57t32.5 46.5t50.5 18.5q27 0 43 -15.5t27.5 -35.5t25.5 -35.5t36 -15.5q29 0 46 30t26 70l26 -2q-7 -28 -19 -56t-32 -47t-51 -19z" />
    <glyph glyph-name="uni1EE3" unicode="&#x1ee3;" horiz-adv-x="500" 
d="M397 442l-27 22q56 4 89.5 28t36.5 72q1 9 -0.5 20t-5.5 22l28 14q5 -13 6.5 -26.5t1.5 -25.5q0 -41 -21 -67t-51 -40t-57 -19zM204 -12q-49 0 -84.5 22t-54.5 64t-19 102q0 67 21 124t56.5 99.5t80.5 66.5t92 24q49 0 84.5 -22t54.5 -64t19 -102q0 -67 -21 -124
t-56.5 -99.5t-80.5 -66.5t-92 -24zM206 14q41 0 80 22.5t70.5 61.5t50.5 90t19 108q0 83 -34.5 125.5t-97.5 42.5q-40 0 -79.5 -22.5t-71 -61.5t-50.5 -90t-19 -108q0 -82 34.5 -125t97.5 -43zM154 -192q-12 0 -20 8t-8 20q0 18 11.5 29t24.5 11q12 0 20 -8t8 -22
q0 -16 -11 -27t-25 -11z" />
    <glyph glyph-name="uni1E57" unicode="&#x1e57;" horiz-adv-x="520" 
d="M0 -222l140 700h24l-12 -70h4q39 32 84 57t96 25q63 0 101.5 -44.5t38.5 -127.5q0 -69 -21.5 -129t-59 -105t-83.5 -70.5t-96 -25.5q-43 0 -76 23t-54 57h-2l-22 -110l-34 -180h-28zM218 14q45 0 86.5 25.5t73.5 68t51 96t19 108.5q0 76 -30.5 114t-83.5 38
q-42 0 -93 -26.5t-95 -67.5l-54 -268q29 -48 59.5 -68t66.5 -20zM346 600q-12 0 -20 8t-8 20q0 18 11.5 29t24.5 11q12 0 20 -8t8 -22q0 -16 -11 -27t-25 -11z" />
    <glyph glyph-name="racute" unicode="&#x155;" horiz-adv-x="308" 
d="M44 0l96 478h24l-16 -90h4q30 42 67 72t83 30q9 0 20.5 -1.5t21.5 -6.5l-12 -26q-6 3 -14 4.5t-22 1.5q-39 0 -83 -37t-77 -103l-64 -322h-28zM172 570l160 150h38l2 -4l-170 -146h-30z" />
    <glyph glyph-name="rcaron" unicode="&#x159;" horiz-adv-x="308" 
d="M44 0l96 478h24l-16 -90h4q30 42 67 72t83 30q9 0 20.5 -1.5t21.5 -6.5l-12 -26q-6 3 -14 4.5t-22 1.5q-39 0 -83 -37t-77 -103l-64 -322h-28zM232 570l-100 154h26l86 -120h4l134 120h30l-160 -154h-20z" />
    <glyph glyph-name="uni1E59" unicode="&#x1e59;" horiz-adv-x="308" 
d="M44 0l96 478h24l-16 -90h4q30 42 67 72t83 30q9 0 20.5 -1.5t21.5 -6.5l-12 -26q-6 3 -14 4.5t-22 1.5q-39 0 -83 -37t-77 -103l-64 -322h-28zM252 600q-12 0 -20 8t-8 20q0 18 11.5 29t24.5 11q12 0 20 -8t8 -22q0 -16 -11 -27t-25 -11z" />
    <glyph glyph-name="uni0157" unicode="&#x157;" horiz-adv-x="308" 
d="M44 0l96 478h24l-16 -90h4q30 42 67 72t83 30q9 0 20.5 -1.5t21.5 -6.5l-12 -26q-6 3 -14 4.5t-22 1.5q-39 0 -83 -37t-77 -103l-64 -322h-28zM-52 -208l-2 24q62 2 93 18.5t31 41.5q0 23 -17 33t-51 13l10 24q36 -5 55 -13t26 -19.5t7 -29.5q0 -28 -19 -48.5
t-53.5 -31.5t-79.5 -12z" />
    <glyph glyph-name="uni1E5B" unicode="&#x1e5b;" horiz-adv-x="308" 
d="M44 0l96 478h24l-16 -90h4q30 42 67 72t83 30q9 0 20.5 -1.5t21.5 -6.5l-12 -26q-6 3 -14 4.5t-22 1.5q-39 0 -83 -37t-77 -103l-64 -322h-28zM34 -192q-12 0 -20 8t-8 20q0 18 11.5 29t24.5 11q12 0 20 -8t8 -22q0 -16 -11 -27t-25 -11z" />
    <glyph glyph-name="uni1E5D" unicode="&#x1e5d;" horiz-adv-x="308" 
d="M44 0l96 478h24l-16 -90h4q30 42 67 72t83 30q9 0 20.5 -1.5t21.5 -6.5l-12 -26q-6 3 -14 4.5t-22 1.5q-39 0 -83 -37t-77 -103l-64 -322h-28zM136 610l4 26h232l-4 -26h-232zM34 -192q-12 0 -20 8t-8 20q0 18 11.5 29t24.5 11q12 0 20 -8t8 -22q0 -16 -11 -27t-25 -11z
" />
    <glyph glyph-name="uni1E5F" unicode="&#x1e5f;" horiz-adv-x="308" 
d="M44 0l96 478h24l-16 -90h4q30 42 67 72t83 30q9 0 20.5 -1.5t21.5 -6.5l-12 -26q-6 3 -14 4.5t-22 1.5q-39 0 -83 -37t-77 -103l-64 -322h-28zM-76 -152l4 26h232l-4 -26h-232z" />
    <glyph glyph-name="sacute" unicode="&#x15b;" horiz-adv-x="384" 
d="M158 -12q-35 0 -66 11.5t-55 31.5t-37 45l20 12q20 -31 56.5 -52.5t85.5 -21.5q35 0 64.5 14t47.5 38.5t18 55.5q0 21 -7.5 37.5t-30 34t-66.5 42.5q-51 29 -79.5 58t-28.5 68q0 38 19 67t50.5 45t68.5 16q41 0 75 -15t59 -45l-18 -16q-21 24 -50.5 37t-67.5 13
q-46 0 -77 -29t-31 -67q0 -33 24 -57t66 -47q51 -27 77 -48.5t35.5 -42.5t9.5 -45q0 -43 -21.5 -74.5t-58.5 -48.5t-82 -17zM184 570l160 150h38l2 -4l-170 -146h-30z" />
    <glyph glyph-name="scircumflex" unicode="&#x15d;" horiz-adv-x="384" 
d="M158 -12q-35 0 -66 11.5t-55 31.5t-37 45l20 12q20 -31 56.5 -52.5t85.5 -21.5q35 0 64.5 14t47.5 38.5t18 55.5q0 21 -7.5 37.5t-30 34t-66.5 42.5q-51 29 -79.5 58t-28.5 68q0 38 19 67t50.5 45t68.5 16q41 0 75 -15t59 -45l-18 -16q-21 24 -50.5 37t-67.5 13
q-46 0 -77 -29t-31 -67q0 -33 24 -57t66 -47q51 -27 77 -48.5t35.5 -42.5t9.5 -45q0 -43 -21.5 -74.5t-58.5 -48.5t-82 -17zM114 570l160 154h20l100 -154h-26l-86 120h-4l-134 -120h-30z" />
    <glyph glyph-name="uni1E61" unicode="&#x1e61;" horiz-adv-x="384" 
d="M158 -12q-35 0 -66 11.5t-55 31.5t-37 45l20 12q20 -31 56.5 -52.5t85.5 -21.5q35 0 64.5 14t47.5 38.5t18 55.5q0 21 -7.5 37.5t-30 34t-66.5 42.5q-51 29 -79.5 58t-28.5 68q0 38 19 67t50.5 45t68.5 16q41 0 75 -15t59 -45l-18 -16q-21 24 -50.5 37t-67.5 13
q-46 0 -77 -29t-31 -67q0 -33 24 -57t66 -47q51 -27 77 -48.5t35.5 -42.5t9.5 -45q0 -43 -21.5 -74.5t-58.5 -48.5t-82 -17zM264 600q-12 0 -20 8t-8 20q0 18 11.5 29t24.5 11q12 0 20 -8t8 -22q0 -16 -11 -27t-25 -11z" />
    <glyph glyph-name="scaron" unicode="&#x161;" horiz-adv-x="384" 
d="M158 -12q-35 0 -66 11.5t-55 31.5t-37 45l20 12q20 -31 56.5 -52.5t85.5 -21.5q35 0 64.5 14t47.5 38.5t18 55.5q0 21 -7.5 37.5t-30 34t-66.5 42.5q-51 29 -79.5 58t-28.5 68q0 38 19 67t50.5 45t68.5 16q41 0 75 -15t59 -45l-18 -16q-21 24 -50.5 37t-67.5 13
q-46 0 -77 -29t-31 -67q0 -33 24 -57t66 -47q51 -27 77 -48.5t35.5 -42.5t9.5 -45q0 -43 -21.5 -74.5t-58.5 -48.5t-82 -17zM244 570l-100 154h26l86 -120h4l134 120h30l-160 -154h-20z" />
    <glyph glyph-name="uni015F" unicode="&#x15f;" horiz-adv-x="384" 
d="M158 -12q-35 0 -66 11.5t-55 31.5t-37 45l20 12q20 -31 56.5 -52.5t85.5 -21.5q35 0 64.5 14t47.5 38.5t18 55.5q0 21 -7.5 37.5t-30 34t-66.5 42.5q-51 29 -79.5 58t-28.5 68q0 38 19 67t50.5 45t68.5 16q41 0 75 -15t59 -45l-18 -16q-21 24 -50.5 37t-67.5 13
q-46 0 -77 -29t-31 -67q0 -33 24 -57t66 -47q51 -27 77 -48.5t35.5 -42.5t9.5 -45q0 -43 -21.5 -74.5t-58.5 -48.5t-82 -17zM52 -216l-2 24q62 2 93 18.5t31 41.5q0 23 -17 33t-51 13l56 88h28l-42 -70q35 -9 45.5 -22t10.5 -34q0 -43 -42 -66.5t-110 -25.5z" />
    <glyph glyph-name="uni0219" unicode="&#x219;" horiz-adv-x="384" 
d="M158 -12q-35 0 -66 11.5t-55 31.5t-37 45l20 12q20 -31 56.5 -52.5t85.5 -21.5q35 0 64.5 14t47.5 38.5t18 55.5q0 21 -7.5 37.5t-30 34t-66.5 42.5q-51 29 -79.5 58t-28.5 68q0 38 19 67t50.5 45t68.5 16q41 0 75 -15t59 -45l-18 -16q-21 24 -50.5 37t-67.5 13
q-46 0 -77 -29t-31 -67q0 -33 24 -57t66 -47q51 -27 77 -48.5t35.5 -42.5t9.5 -45q0 -43 -21.5 -74.5t-58.5 -48.5t-82 -17zM50 -208l-2 24q62 2 93 18.5t31 41.5q0 23 -17 33t-51 13l10 24q36 -5 55 -13t26 -19.5t7 -29.5q0 -28 -19 -48.5t-53.5 -31.5t-79.5 -12z" />
    <glyph glyph-name="uni1E63" unicode="&#x1e63;" horiz-adv-x="384" 
d="M158 -12q-35 0 -66 11.5t-55 31.5t-37 45l20 12q20 -31 56.5 -52.5t85.5 -21.5q35 0 64.5 14t47.5 38.5t18 55.5q0 21 -7.5 37.5t-30 34t-66.5 42.5q-51 29 -79.5 58t-28.5 68q0 38 19 67t50.5 45t68.5 16q41 0 75 -15t59 -45l-18 -16q-21 24 -50.5 37t-67.5 13
q-46 0 -77 -29t-31 -67q0 -33 24 -57t66 -47q51 -27 77 -48.5t35.5 -42.5t9.5 -45q0 -43 -21.5 -74.5t-58.5 -48.5t-82 -17zM136 -192q-12 0 -20 8t-8 20q0 18 11.5 29t24.5 11q12 0 20 -8t8 -22q0 -16 -11 -27t-25 -11z" />
    <glyph glyph-name="uni1E67" unicode="&#x1e67;" horiz-adv-x="384" 
d="M158 -12q-35 0 -66 11.5t-55 31.5t-37 45l20 12q20 -31 56.5 -52.5t85.5 -21.5q35 0 64.5 14t47.5 38.5t18 55.5q0 21 -7.5 37.5t-30 34t-66.5 42.5q-51 29 -79.5 58t-28.5 68q0 38 19 67t50.5 45t68.5 16q41 0 75 -15t59 -45l-18 -16q-21 24 -50.5 37t-67.5 13
q-46 0 -77 -29t-31 -67q0 -33 24 -57t66 -47q51 -27 77 -48.5t35.5 -42.5t9.5 -45q0 -43 -21.5 -74.5t-58.5 -48.5t-82 -17zM244 570l-100 134h26l86 -100h4l124 100h30l-150 -134h-20zM282 720q-12 0 -20 8t-8 20q0 18 11.5 29t24.5 11q12 0 20 -8t8 -22q0 -16 -11 -27
t-25 -11z" />
    <glyph glyph-name="germandbls" unicode="&#xdf;" horiz-adv-x="512" 
d="M310 -12q-34 0 -69.5 13.5t-62.5 40.5l16 18q26 -22 55 -34t63 -12q32 0 59.5 14t44 39t16.5 57q0 35 -15.5 59.5t-38 43.5t-45 37t-38 39.5t-15.5 52.5q0 35 16 60.5t39.5 46.5t47 42.5t39.5 48t16 62.5q0 39 -22 65.5t-72 26.5q-41 0 -75 -24t-57.5 -64.5t-33.5 -89.5
l-106 -530h-28l108 540q11 52 37.5 96t66.5 71t90 27q37 0 64 -13.5t41.5 -40t14.5 -64.5q0 -40 -16 -69t-39.5 -51.5t-47 -42t-39.5 -41.5t-16 -50q0 -29 15.5 -49t38 -37.5t45 -36.5t38 -45t15.5 -64q0 -39 -19 -71t-53 -51.5t-78 -19.5z" />
    <glyph glyph-name="longs" unicode="&#x17f;" horiz-adv-x="246" 
d="M48 0l120 598q10 47 28.5 77t43 44.5t52.5 14.5q24 0 41 -6.5t29 -15.5l-12 -20q-12 8 -25.5 12t-34.5 4q-37 0 -61 -33t-33 -77l-120 -598h-28zM76 452l4 22l66 4h14l-6 -26h-78z" />
    <glyph glyph-name="tcaron" unicode="&#x165;" horiz-adv-x="290" 
d="M168 -8q-52 0 -73 27.5t-21 64.5q0 12 1 22t3 22l68 324h-76l6 22l76 4l36 158h24l-32 -158h132l-6 -26h-132l-68 -326q-1 -9 -2.5 -18t-1.5 -20q0 -34 14.5 -52t53.5 -18q17 0 32.5 4.5t27.5 11.5l12 -18q-13 -9 -31.5 -16.5t-42.5 -7.5zM300 548l40 204h28l-8 -48
l-38 -156h-22z" />
    <glyph glyph-name="uni1E6B" unicode="&#x1e6b;" horiz-adv-x="290" 
d="M168 -8q-52 0 -73 27.5t-21 64.5q0 12 1 22t3 22l68 324h-76l6 22l76 4l36 158h24l-32 -158h132l-6 -26h-132l-68 -326q-1 -9 -2.5 -18t-1.5 -20q0 -34 14.5 -52t53.5 -18q17 0 32.5 4.5t27.5 11.5l12 -18q-13 -9 -31.5 -16.5t-42.5 -7.5zM210 730q-12 0 -20 8t-8 20
q0 18 11.5 29t24.5 11q12 0 20 -8t8 -22q0 -16 -11 -27t-25 -11z" />
    <glyph glyph-name="uni0163" unicode="&#x163;" horiz-adv-x="290" 
d="M168 -8q-52 0 -73 27.5t-21 64.5q0 12 1 22t3 22l68 324h-76l6 22l76 4l36 158h24l-32 -158h132l-6 -26h-132l-68 -326q-1 -9 -2.5 -18t-1.5 -20q0 -34 14.5 -52t53.5 -18q17 0 32.5 4.5t27.5 11.5l12 -18q-13 -9 -31.5 -16.5t-42.5 -7.5zM44 -216l-2 24q62 2 93 18.5
t31 41.5q0 23 -17 33t-51 13l56 88h28l-42 -70q35 -9 45.5 -22t10.5 -34q0 -43 -42 -66.5t-110 -25.5z" />
    <glyph glyph-name="uni021B" unicode="&#x21b;" horiz-adv-x="290" 
d="M168 -8q-52 0 -73 27.5t-21 64.5q0 12 1 22t3 22l68 324h-76l6 22l76 4l36 158h24l-32 -158h132l-6 -26h-132l-68 -326q-1 -9 -2.5 -18t-1.5 -20q0 -34 14.5 -52t53.5 -18q17 0 32.5 4.5t27.5 11.5l12 -18q-13 -9 -31.5 -16.5t-42.5 -7.5zM32 -208l-2 24q62 2 93 18.5
t31 41.5q0 23 -17 33t-51 13l10 24q36 -5 55 -13t26 -19.5t7 -29.5q0 -28 -19 -48.5t-53.5 -31.5t-79.5 -12z" />
    <glyph glyph-name="uni1E6D" unicode="&#x1e6d;" horiz-adv-x="290" 
d="M168 -8q-52 0 -73 27.5t-21 64.5q0 12 1 22t3 22l68 324h-76l6 22l76 4l36 158h24l-32 -158h132l-6 -26h-132l-68 -326q-1 -9 -2.5 -18t-1.5 -20q0 -34 14.5 -52t53.5 -18q17 0 32.5 4.5t27.5 11.5l12 -18q-13 -9 -31.5 -16.5t-42.5 -7.5zM118 -192q-12 0 -20 8t-8 20
q0 18 11.5 29t24.5 11q12 0 20 -8t8 -22q0 -16 -11 -27t-25 -11z" />
    <glyph glyph-name="uni1E6F" unicode="&#x1e6f;" horiz-adv-x="290" 
d="M168 -8q-52 0 -73 27.5t-21 64.5q0 12 1 22t3 22l68 324h-76l6 22l76 4l36 158h24l-32 -158h132l-6 -26h-132l-68 -326q-1 -9 -2.5 -18t-1.5 -20q0 -34 14.5 -52t53.5 -18q17 0 32.5 4.5t27.5 11.5l12 -18q-13 -9 -31.5 -16.5t-42.5 -7.5zM8 -152l4 26h232l-4 -26h-232z
" />
    <glyph glyph-name="uni1E97" unicode="&#x1e97;" horiz-adv-x="290" 
d="M168 -8q-52 0 -73 27.5t-21 64.5q0 12 1 22t3 22l68 324h-76l6 22l76 4l36 158h24l-32 -158h132l-6 -26h-132l-68 -326q-1 -9 -2.5 -18t-1.5 -20q0 -34 14.5 -52t53.5 -18q17 0 32.5 4.5t27.5 11.5l12 -18q-13 -9 -31.5 -16.5t-42.5 -7.5zM130 732q-12 0 -19 7t-7 19
q0 17 10 27.5t22 10.5t19 -7t7 -21q0 -15 -10 -25.5t-22 -10.5zM296 732q-12 0 -19 7t-7 19q0 17 10 27.5t22 10.5t19 -7t7 -21q0 -15 -10 -25.5t-22 -10.5z" />
    <glyph glyph-name="tbar" unicode="&#x167;" horiz-adv-x="290" 
d="M26 240l4 22l78 4h160l-6 -26h-236zM168 -8q-52 0 -73 27.5t-21 64.5q0 12 1 22t3 22l68 324h-76l6 22l76 4l36 158h24l-32 -158h132l-6 -26h-132l-68 -326q-1 -9 -2.5 -18t-1.5 -20q0 -34 14.5 -52t53.5 -18q17 0 32.5 4.5t27.5 11.5l12 -18q-13 -9 -31.5 -16.5
t-42.5 -7.5z" />
    <glyph glyph-name="uni2C66" unicode="&#x2c66;" horiz-adv-x="290" 
d="M-18 -24l-22 12l350 524l20 -12zM168 -8q-52 0 -73 27.5t-21 64.5q0 12 1 22t3 22l68 324h-76l6 22l76 4l36 158h24l-32 -158h132l-6 -26h-132l-68 -326q-1 -9 -2.5 -18t-1.5 -20q0 -34 14.5 -52t53.5 -18q17 0 32.5 4.5t27.5 11.5l12 -18q-13 -9 -31.5 -16.5t-42.5 -7.5
z" />
    <glyph glyph-name="ugrave" unicode="&#xf9;" horiz-adv-x="504" 
d="M178 -12q-61 0 -87.5 32.5t-26.5 83.5q0 18 2 30.5t6 33.5l62 310h28l-62 -306q-4 -22 -6 -35.5t-2 -28.5q0 -46 21 -70t69 -24q33 0 78 25.5t102 80.5l72 358h28l-96 -478h-24l12 80h-4q-42 -39 -85 -65.5t-87 -26.5zM374 570l-124 146l2 4h32l116 -150h-26z" />
    <glyph glyph-name="uacute" unicode="&#xfa;" horiz-adv-x="504" 
d="M178 -12q-61 0 -87.5 32.5t-26.5 83.5q0 18 2 30.5t6 33.5l62 310h28l-62 -306q-4 -22 -6 -35.5t-2 -28.5q0 -46 21 -70t69 -24q33 0 78 25.5t102 80.5l72 358h28l-96 -478h-24l12 80h-4q-42 -39 -85 -65.5t-87 -26.5zM250 570l160 150h38l2 -4l-170 -146h-30z" />
    </font>
</defs>
</svg>
