<?xml version="1.0" standalone="no"?>
<!DOCTYPE svg PUBLIC "-//W3C//DTD SVG 1.1//EN" "http://www.w3.org/Graphics/SVG/1.1/DTD/svg11.dtd" >
<svg xmlns="http://www.w3.org/2000/svg" xmlns:xlink="http://www.w3.org/1999/xlink" version="1.1">
<metadata>
Created by FontForge 20201107 at Tue Sep 19 10:25:55 2023
 By Unknown
(c) 2023 Adobe (http://www.adobe.com/), with Reserved Font Name `Source'
</metadata>
<defs>
<font id="SourceSans3-BlackItalic" horiz-adv-x="0" >
  <font-face 
    font-family="Source Sans 3 Black"
    font-weight="900"
    font-style="italic"
    font-stretch="normal"
    units-per-em="1000"
    panose-1="2 11 3 3 3 4 3 9 2 4"
    ascent="800"
    descent="-200"
    x-height="500"
    cap-height="650"
    bbox="-682 -322 2078 1000"
    underline-thickness="50"
    underline-position="-75"
    slope="-11"
    unicode-range="U+0021-1F916"
  />
<missing-glyph horiz-adv-x="676" 
d="M26 0l130 660h524l-130 -660h-524zM370 418h4l58 96l28 48h-122l12 -48zM242 98h130l-14 66l-16 96h-4l-54 -96zM162 162l118 178l-46 176zM478 162l72 354l-118 -176z" />
    <glyph glyph-name="f_f" unicode="ff" horiz-adv-x="654" 
d="M34 0l102 504q11 52 35 96t66 71t105 27q30 0 59.5 -7t54.5 -21l-50 -110q-7 5 -21.5 8.5t-26.5 3.5q-24 0 -39 -10.5t-23 -51.5l-102 -510h-160zM346 0l104 514q11 52 35 96t66 71t105 27q30 0 59.5 -7t54.5 -21l-50 -110q-7 5 -21.5 8.5t-26.5 3.5q-24 0 -39 -10.5
t-23 -51.5l-104 -520h-160zM42 376l24 118l74 6h548l-24 -124h-622z" />
    <glyph glyph-name="f_t" unicode="ft" horiz-adv-x="684" 
d="M34 0l104 514q11 52 35 96t66 71t105 27q30 0 59.5 -7t54.5 -21l-50 -110q-7 5 -21.5 8.5t-26.5 3.5q-24 0 -39 -10.5t-23 -51.5l-104 -520h-160zM510 -12q-79 0 -114.5 39.5t-35.5 100.5q0 17 2.5 33.5t5.5 32.5l38 182h-364l24 118l74 6h298l48 150h134l-28 -150h108
l-24 -124h-112l-38 -188q-1 -9 -1.5 -16.5t-0.5 -15.5q0 -22 12.5 -33t31.5 -11q11 0 21 2.5t19 5.5l28 -108q-21 -9 -54 -16.5t-72 -7.5z" />
    <glyph glyph-name="f_f_t" unicode="fft" horiz-adv-x="996" 
d="M34 0l102 504q11 52 35 96t66 71t105 27q30 0 59.5 -7t54.5 -21l-50 -110q-7 5 -21.5 8.5t-26.5 3.5q-24 0 -39 -10.5t-23 -51.5l-102 -510h-160zM346 0l104 514q11 52 35 96t66 71t105 27q30 0 59.5 -7t54.5 -21l-50 -110q-7 5 -21.5 8.5t-26.5 3.5q-24 0 -39 -10.5
t-23 -51.5l-104 -520h-160zM822 -12q-79 0 -114.5 39.5t-35.5 100.5q0 17 2.5 33.5t5.5 32.5l38 182h-676l24 118l74 6h610l48 150h134l-28 -150h108l-24 -124h-112l-38 -188q-1 -9 -1.5 -16.5t-0.5 -15.5q0 -22 12.5 -33t31.5 -11q11 0 21 2.5t19 5.5l28 -108
q-21 -9 -54 -16.5t-72 -7.5z" />
    <glyph glyph-name=".notdef" horiz-adv-x="676" 
d="M26 0l130 660h524l-130 -660h-524zM370 418h4l58 96l28 48h-122l12 -48zM242 98h130l-14 66l-16 96h-4l-54 -96zM162 162l118 178l-46 176zM478 162l72 354l-118 -176z" />
    <glyph glyph-name="space" unicode="&#xa0;" horiz-adv-x="200" 
 />
    <glyph glyph-name="space" unicode=" " horiz-adv-x="200" 
 />
    <glyph glyph-name="A" unicode="A" horiz-adv-x="562" 
d="M-66 0l340 650h192l62 -650h-168l-10 344q-1 47 -2.5 92t-1.5 94h-4q-19 -48 -37 -93.5t-39 -92.5l-156 -344h-176zM110 148l28 120h302l-28 -120h-302z" />
    <glyph glyph-name="B" unicode="B" horiz-adv-x="602" 
d="M26 0l130 650h208q99 0 160.5 -35t61.5 -115q0 -35 -16.5 -67t-48 -56.5t-77.5 -38.5v-4q37 -9 61.5 -25.5t36.5 -39.5t12 -53q0 -78 -39 -125.5t-103 -69t-140 -21.5h-246zM264 390h54q59 0 83.5 22.5t24.5 59.5q0 27 -21.5 41.5t-66.5 14.5h-46zM210 122h74
q40 0 66.5 11t40 30.5t13.5 46.5q0 36 -21.5 54t-66.5 18h-74z" />
    <glyph glyph-name="C" unicode="C" horiz-adv-x="574" 
d="M306 -12q-74 0 -130.5 32.5t-88 94t-31.5 149.5q0 70 17.5 130.5t50 109.5t75.5 84.5t95 54.5t108 19q57 0 103 -23.5t73 -70.5l-86 -91q-21 26 -46 36.5t-54 10.5q-26 0 -51.5 -12.5t-47 -35t-38 -54t-26 -69t-9.5 -79.5q0 -47 12.5 -80t38 -50.5t65.5 -17.5
q32 0 59 12.5t49 31.5l66 -100q-33 -31 -81.5 -56.5t-122.5 -25.5z" />
    <glyph glyph-name="D" unicode="D" horiz-adv-x="632" 
d="M26 0l130 650h158q86 0 152 -27.5t103 -86t37 -150.5q0 -94 -28.5 -166.5t-78.5 -121t-115 -73.5t-138 -25h-220zM212 128h30q37 0 72.5 14t64.5 44t46 77t17 113q0 55 -19 87t-49.5 45.5t-63.5 13.5h-20z" />
    <glyph glyph-name="E" unicode="E" horiz-adv-x="534" 
d="M26 0l130 650h396l-26 -134h-238l-22 -114h202l-26 -134h-202l-28 -134h246l-26 -134h-406z" />
    <glyph glyph-name="F" unicode="F" horiz-adv-x="516" 
d="M26 0l130 650h396l-26 -134h-238l-26 -134h202l-26 -134h-202l-50 -248h-160z" />
    <glyph glyph-name="G" unicode="G" horiz-adv-x="620" 
d="M320 -12q-81 0 -140 32.5t-91.5 94t-32.5 149.5q0 87 27.5 160t76.5 126t113.5 82.5t138.5 29.5q60 0 109 -23.5t77 -70.5l-88 -96q-21 29 -48.5 40.5t-57.5 11.5t-57.5 -12.5t-50.5 -35t-40 -54t-26.5 -69t-9.5 -79.5q0 -47 13 -80.5t41 -51.5t74 -18q14 0 29.5 4.5
t26.5 11.5l24 108h-96l24 130h236l-62 -322q-37 -28 -92 -48t-118 -20z" />
    <glyph glyph-name="H" unicode="H" horiz-adv-x="664" 
d="M26 0l130 650h160l-50 -244h194l48 244h160l-130 -650h-160l54 266h-194l-52 -266h-160z" />
    <glyph glyph-name="I" unicode="I" horiz-adv-x="312" 
d="M26 0l130 650h160l-130 -650h-160z" />
    <glyph glyph-name="J" unicode="J" horiz-adv-x="504" 
d="M182 -12q-58 0 -108.5 26.5t-79.5 81.5l92 82q15 -22 39 -37t55 -15q36 0 58 27t34 87l82 410h160l-88 -438q-12 -60 -41 -111t-79 -82t-124 -31z" />
    <glyph glyph-name="K" unicode="K" horiz-adv-x="612" 
d="M26 0l130 650h160l-49 -246h4l213 246h174l-234 -274l144 -376h-166l-96 276l-84 -96l-36 -180h-160z" />
    <glyph glyph-name="L" unicode="L" horiz-adv-x="514" 
d="M26 0l130 650h160l-104 -516h236l-26 -134h-396z" />
    <glyph glyph-name="M" unicode="M" horiz-adv-x="754" 
d="M26 0l130 650h166l42 -280q5 -28 8 -54t7 -56h4q14 30 27 56t28 54l152 280h168l-130 -650h-150l46 216q7 34 18 75.5t23.5 83t24.5 75.5h-4l-82 -158l-136 -236h-60l-42 236l-20 158h-4q-1 -34 -4 -75.5t-8 -83t-12 -75.5l-44 -216h-148z" />
    <glyph glyph-name="N" unicode="N" horiz-adv-x="652" 
d="M26 0l130 650h158l86 -312q6 -22 11 -44.5t9.5 -46.5t9.5 -51h4q3 56 9.5 121t18.5 123l42 210h152l-130 -650h-158l-86 312q-9 33 -15.5 67.5t-14.5 74.5h-4q-3 -55 -9.5 -120t-18.5 -124l-42 -210h-152z" />
    <glyph glyph-name="O" unicode="O" horiz-adv-x="670" 
d="M308 -12q-75 0 -131.5 32.5t-88.5 94t-32 149.5q0 73 18 134.5t50.5 110t75 83t91.5 52.5t101 18q75 0 132 -32.5t88.5 -94t31.5 -149.5q0 -73 -18 -134.5t-50.5 -110t-75 -83t-91.5 -52.5t-101 -18zM316 126q22 0 45 11.5t44.5 33t38 52.5t26.5 69.5t10 83.5
q0 47 -11.5 80t-33 50.5t-51.5 17.5q-22 0 -45 -11.5t-44.5 -33t-38 -52.5t-26.5 -69.5t-10 -83.5q0 -47 11.5 -80t33 -50.5t51.5 -17.5z" />
    <glyph glyph-name="P" unicode="P" horiz-adv-x="596" 
d="M26 0l130 650h214q65 0 117 -17.5t82.5 -56.5t30.5 -104q0 -71 -24.5 -121t-67.5 -80.5t-98 -44.5t-116 -14h-66l-42 -212h-160zM254 338h59q62 0 95.5 28t33.5 82q0 39 -25 57.5t-69 18.5h-58z" />
    <glyph glyph-name="Q" unicode="Q" horiz-adv-x="670" 
d="M308 -12q-75 0 -131.5 32.5t-88.5 94t-32 149.5q0 73 18 134.5t50.5 110t75 83t91.5 52.5t101 18q75 0 132 -32.5t88.5 -94t31.5 -149.5q0 -73 -18 -134.5t-50.5 -110t-75 -83t-91.5 -52.5t-101 -18zM316 120q22 0 45 11.5t44.5 33t38 53t26.5 71.5t10 87t-11.5 80
t-33 50.5t-51.5 17.5q-22 0 -45 -11.5t-44.5 -33t-38 -52.5t-26.5 -69.5t-10 -83.5q0 -51 11.5 -85t33 -51.5t51.5 -17.5zM484 -188q-67 0 -123.5 24t-99 72.5t-67.5 123.5h162q9 -33 33.5 -53t55 -29.5t57.5 -9.5q18 0 31.5 3t28.5 7l26 -118q-40 -20 -104 -20z" />
    <glyph glyph-name="R" unicode="R" horiz-adv-x="612" 
d="M26 0l130 650h214q65 0 117 -16.5t82.5 -54.5t30.5 -101q0 -67 -25 -115.5t-67.5 -79t-96 -45t-111.5 -14.5h-70l-44 -224h-160zM256 350h58q65 0 96.5 29t31.5 75q0 36 -24.5 53t-69.5 17h-58zM372 0l-88 262l114 104l142 -366h-168z" />
    <glyph glyph-name="S" unicode="S" horiz-adv-x="538" 
d="M240 -12q-58 0 -120 29t-110 95l94 90q27 -34 68 -55t84 -21q21 0 37.5 6t25.5 17t9 27q0 26 -19 41t-55 37l-52 32q-46 29 -73 67.5t-27 98.5q0 58 32 105.5t85.5 76t116.5 28.5q57 0 110 -27t90 -75l-90 -92q-25 26 -52.5 41t-59.5 15q-23 0 -38 -7t-22.5 -19.5
t-7.5 -27.5q0 -22 20 -36t60 -40l58 -36q48 -30 69 -63.5t21 -90.5q0 -59 -31 -108t-88 -78.5t-135 -29.5z" />
    <glyph glyph-name="T" unicode="T" horiz-adv-x="540" 
d="M142 0l102 516h-164l26 134h488l-26 -134h-164l-102 -516h-160z" />
    <glyph glyph-name="U" unicode="U" horiz-adv-x="654" 
d="M316 -12q-121 0 -181.5 57t-60.5 177q0 23 5 54t9 56l64 318h160l-70 -350q-3 -19 -5.5 -37.5t-2.5 -36.5q0 -49 18.5 -74.5t67.5 -25.5q29 0 49.5 13.5t35.5 47.5t27 95l74 368h156l-74 -364q-21 -106 -56.5 -172t-88.5 -96t-127 -30z" />
    <glyph glyph-name="V" unicode="V" horiz-adv-x="576" 
d="M132 0l-54 650h168l12 -304q2 -51 3 -102.5t1 -103.5h4q22 52 43 103t43 103l132 304h176l-334 -650h-194z" />
    <glyph glyph-name="W" unicode="W" horiz-adv-x="808" 
d="M74 0l24 650h164l-26 -294q-5 -51 -10.5 -103.5t-13.5 -104.5h4q20 52 41.5 105t40.5 103l123 294h133v-294q-1 -49 -4 -102l-6 -106h4q17 53 35 105.5t33 102.5l98 294h152l-244 -650h-198l8 278q2 35 5 77.5t7 84.5h-4q-13 -40 -28.5 -83.5t-29.5 -78.5l-110 -278h-198
z" />
    <glyph glyph-name="X" unicode="X" horiz-adv-x="566" 
d="M-36 0l238 334l-98 316h178l24 -114q5 -22 10 -48.5t12 -57.5h4q17 31 32 57.5t28 48.5l64 114h170l-226 -322l106 -328h-178l-28 126q-6 26 -12 51.5t-12 54.5h-4q-16 -29 -31.5 -54.5t-30.5 -51.5l-76 -126h-170z" />
    <glyph glyph-name="Y" unicode="Y" horiz-adv-x="528" 
d="M137 0l45 228l-103 422h166l21 -144q6 -37 11 -71t11 -73h4q20 39 37.5 74t38.5 72l78 142h172l-276 -422l-46 -228h-159z" />
    <glyph glyph-name="Z" unicode="Z" horiz-adv-x="530" 
d="M-6 0l20 96l330 420h-240l26 134h432l-20 -96l-326 -420h264l-28 -134h-458z" />
    <glyph glyph-name="a" unicode="a" horiz-adv-x="558" 
d="M168 -12q-66 0 -103 48t-37 136q0 71 22 133t59.5 108.5t85 72.5t99.5 26q32 0 61.5 -16.5t42.5 -45.5h2l22 50h128l-100 -500h-130v62h-2q-33 -34 -73.5 -54t-76.5 -20zM240 118q20 0 44.5 13t43.5 53l32 160q-9 20 -24.5 29t-29.5 9q-22 0 -42 -14t-36 -39t-25 -60
t-9 -77q0 -39 12.5 -56.5t33.5 -17.5z" />
    <glyph glyph-name="b" unicode="b" horiz-adv-x="560" 
d="M264 -12q-31 0 -58.5 17t-41.5 45h-2l-22 -50h-132l140 696h160l-30 -146l-26 -92h2q32 26 67 40t69 14q66 0 103 -47.5t37 -136.5q0 -71 -22 -133t-59.5 -108.5t-85 -72.5t-99.5 -26zM252 118q22 0 42 14t36 39t25 60t9 77q0 39 -12.5 56.5t-33.5 17.5
q-19 0 -42.5 -11.5t-41.5 -44.5l-34 -170q8 -19 22.5 -28.5t29.5 -9.5z" />
    <glyph glyph-name="c" unicode="c" horiz-adv-x="446" 
d="M226 -12q-56 0 -101.5 24.5t-72 71t-26.5 112.5q0 63 22.5 120t63 101t94.5 69.5t118 25.5q50 0 85 -19.5t53 -42.5l-86 -92q-13 12 -26.5 19t-33.5 7q-26 0 -49 -15t-40.5 -40.5t-27 -59t-9.5 -71.5q0 -37 19 -59.5t53 -22.5q23 0 39 9t29 19l66 -90q-31 -30 -71 -48
t-99 -18z" />
    <glyph glyph-name="d" unicode="d" horiz-adv-x="550" 
d="M168 -12q-66 0 -103 48t-37 136q0 71 22 133t59.5 108.5t85 72.5t99.5 26q32 0 57.5 -15t38.5 -41h2l10 94l28 146h160l-140 -696h-130v62h-2q-33 -34 -73.5 -54t-76.5 -20zM240 118q20 0 43.5 13t44.5 53l32 160q-9 20 -24.5 29t-29.5 9q-22 0 -42 -14t-36 -39t-25 -60
t-9 -77q0 -39 12.5 -56.5t33.5 -17.5z" />
    <glyph glyph-name="e" unicode="e" horiz-adv-x="502" 
d="M246 -12q-100 0 -160 58t-60 158q0 69 25 125.5t66 97.5t91 63t100 22q61 0 97.5 -26t52.5 -69t16 -95q0 -25 -5 -50t-11 -44t-10 -26h-302l12 104h182q2 5 3 11t1 13q0 17 -5 30.5t-17.5 21.5t-33.5 8q-16 0 -35.5 -8t-37.5 -27.5t-29.5 -53t-11.5 -85.5q0 -41 14.5 -64
t38.5 -32.5t53 -9.5q21 0 46.5 8t41.5 20l52 -94q-31 -25 -76 -40.5t-98 -15.5z" />
    <glyph glyph-name="f" unicode="f" horiz-adv-x="344" 
d="M34 0l76 376h-68l24 118l70 6l2 14q10 52 34.5 96t66.5 71t105 27q30 0 59.5 -7t54.5 -21l-50 -110q-7 5 -21.5 8.5t-26.5 3.5q-24 0 -39 -10.5t-23 -51.5l-4 -20h82l-24 -124h-84l-74 -376h-160z" />
    <glyph glyph-name="g" unicode="g" horiz-adv-x="552" 
d="M180 -196q-42 0 -91.5 15t-94.5 55l66 100q29 -19 60 -31.5t64 -12.5q41 0 69.5 19.5t40.5 56.5l26 82q-31 -33 -69 -50.5t-77 -17.5q-63 0 -104.5 43t-41.5 131q0 67 21 124.5t57.5 101t83 68t98.5 24.5q32 0 60.5 -16.5t41.5 -45.5h2l22 50h130l-96 -480
q-22 -112 -91.5 -164t-176.5 -52zM238 150q21 0 45 11t43 45l26 138q-9 20 -23.5 29t-28.5 9q-22 0 -41 -12t-33.5 -34.5t-23 -53t-8.5 -68.5q0 -33 12.5 -48.5t31.5 -15.5z" />
    <glyph glyph-name="h" unicode="h" horiz-adv-x="556" 
d="M8 0l140 696h160l-34 -162l-24 -88h4q30 27 68.5 46.5t83.5 19.5q62 0 90 -32.5t28 -97.5q0 -16 -1.5 -35t-6.5 -37l-62 -310h-160l58 290q3 14 5.5 24.5t2.5 19.5q0 21 -11 31.5t-31 10.5q-21 0 -41 -13.5t-47 -42.5l-62 -320h-160z" />
    <glyph glyph-name="i" unicode="i" horiz-adv-x="276" 
d="M8 0l100 500h160l-100 -500h-160zM210 564q-31 0 -57.5 18.5t-26.5 55.5q0 36 28 63t68 27q32 0 58 -19t26 -55q0 -39 -27.5 -64.5t-68.5 -25.5z" />
    <glyph glyph-name="j" unicode="j" horiz-adv-x="278" 
d="M-30 -188q-26 0 -51.5 5.5t-48.5 18.5l42 112q11 -4 21.5 -7t22.5 -3q24 0 35.5 16.5t20.5 55.5l98 490h160l-100 -498q-11 -52 -34.5 -95t-64 -69t-101.5 -26zM210 564q-31 0 -57.5 18.5t-26.5 55.5q0 36 28 63t68 27q32 0 58 -19t26 -55q0 -39 -27.5 -64.5t-68.5 -25.5
z" />
    <glyph glyph-name="k" unicode="k" horiz-adv-x="544" 
d="M8 0l140 696h160l-76 -376h4l164 180h176l-206 -222l118 -278h-160l-68 186l-68 -68l-24 -118h-160z" />
    <glyph glyph-name="l" unicode="l" horiz-adv-x="286" 
d="M158 -12q-69 0 -96.5 29.5t-27.5 80.5q0 15 2 31t6 37l106 530h160l-108 -536l-1.5 -13.5t-0.5 -10.5q0 -20 18 -20q3 0 6.5 0.5t9.5 1.5l6 -114q-16 -6 -36.5 -11t-43.5 -5z" />
    <glyph glyph-name="m" unicode="m" horiz-adv-x="838" 
d="M8 0l100 500h130v-64h4q35 30 75 53t83 23q54 0 79 -22.5t37 -61.5q39 36 81 60t85 24q62 0 90 -32.5t28 -97.5q0 -16 -2 -35t-6 -37l-62 -310h-160l58 290q3 14 5.5 24.5t2.5 19.5q0 21 -11 31.5t-31 10.5q-15 0 -35 -13.5t-47 -42.5l-64 -320h-160l58 290
q3 14 5.5 24.5t2.5 19.5q0 21 -11 31.5t-29 10.5q-16 0 -36.5 -13.5t-47.5 -42.5l-62 -320h-160z" />
    <glyph glyph-name="n" unicode="n" horiz-adv-x="562" 
d="M8 0l100 500h130v-64h4q35 30 75.5 53t88.5 23q62 0 90 -32.5t28 -97.5q0 -16 -2 -35t-6 -37l-62 -310h-160l58 290q3 14 5.5 24.5t2.5 19.5q0 21 -11 31.5t-31 10.5q-21 0 -41 -13.5t-47 -42.5l-62 -320h-160z" />
    <glyph glyph-name="o" unicode="o" horiz-adv-x="538" 
d="M226 -12q-60 0 -105 26t-70 73t-25 109q0 73 24.5 131t65.5 99.5t91.5 63.5t102.5 22q60 0 105 -26t70 -73t25 -109q0 -73 -24.5 -131t-65.5 -99.5t-91.5 -63.5t-102.5 -22zM244 116q22 0 41 14t33 39t22 59t8 74q0 38 -13.5 60t-42.5 22q-22 0 -41 -13.5t-33 -38.5
t-22 -59t-8 -75q0 -37 14 -59.5t42 -22.5z" />
    <glyph glyph-name="p" unicode="p" horiz-adv-x="560" 
d="M-28 -176l136 676h130l4 -54h4q33 30 70.5 48t73.5 18q66 0 103 -47.5t37 -136.5q0 -71 -22 -133t-59.5 -108.5t-85 -72.5t-99.5 -26q-28 0 -53.5 14.5t-40.5 39.5h-2l-12 -94l-24 -124h-160zM252 118q22 0 42 14t36 39t25 60t9 77q0 39 -12.5 56.5t-33.5 17.5
q-19 0 -42.5 -11.5t-41.5 -44.5l-34 -170q8 -19 22.5 -28.5t29.5 -9.5z" />
    <glyph glyph-name="q" unicode="q" horiz-adv-x="558" 
d="M254 -176l26 124l40 114h-2q-33 -34 -73.5 -54t-76.5 -20q-66 0 -103 48t-37 136q0 71 22 133t59.5 108.5t85 72.5t99.5 26q32 0 61.5 -16.5t42.5 -45.5h2l22 50h128l-136 -676h-160zM240 118q20 0 43.5 13t44.5 53l32 160q-9 20 -24.5 29t-29.5 9q-22 0 -42 -14t-36 -39
t-25 -60t-9 -77q0 -39 12.5 -56.5t33.5 -17.5z" />
    <glyph glyph-name="r" unicode="r" horiz-adv-x="400" 
d="M8 0l100 500h130l-4 -98h4q29 48 68.5 79t81.5 31q21 0 34 -2.5t20 -7.5l-52 -138q-10 6 -25 7t-27 1q-31 0 -59 -21t-57 -71l-54 -280h-160z" />
    <glyph glyph-name="s" unicode="s" horiz-adv-x="432" 
d="M172 -12q-28 0 -61.5 10.5t-64 32t-52.5 53.5l80 76q29 -32 57.5 -44t50.5 -12q15 0 28 4.5t20.5 12t7.5 17.5q0 13 -10 22t-29 19t-45 25q-37 21 -66.5 56t-29.5 84q0 48 27 86t73 60t102 22q53 0 95 -22.5t73 -57.5l-80 -82q-19 18 -42 31t-46 13q-24 0 -38 -10.5
t-14 -25.5q0 -21 26 -33t54 -29q24 -13 47 -31.5t38 -45t15 -63.5q0 -50 -27.5 -88t-76.5 -59t-112 -21z" />
    <glyph glyph-name="t" unicode="t" horiz-adv-x="384" 
d="M210 -12q-79 0 -114.5 39.5t-35.5 100.5q0 17 2.5 33.5t5.5 32.5l38 182h-64l24 118l72 6l48 150h134l-28 -150h108l-24 -124h-112l-38 -188q-1 -9 -1.5 -16.5t-0.5 -15.5q0 -22 12.5 -33t31.5 -11q11 0 21 2.5t19 5.5l28 -108q-21 -9 -54 -16.5t-72 -7.5z" />
    <glyph glyph-name="u" unicode="u" horiz-adv-x="552" 
d="M150 -12q-61 0 -89.5 33t-28.5 97q0 17 2 35.5t6 36.5l62 310h160l-58 -290q-3 -13 -5.5 -24t-2.5 -20q0 -21 11.5 -31.5t30.5 -10.5q20 0 39 14t43 42l62 320h160l-98 -500h-130v64h-4q-31 -30 -73 -53t-87 -23z" />
    <glyph glyph-name="v" unicode="v" horiz-adv-x="518" 
d="M120 0l-60 500h160l10 -228q2 -37 2 -75.5v-78.5h4q17 39 32.5 77t31.5 77l98 228h156l-250 -500h-184z" />
    <glyph glyph-name="w" unicode="w" horiz-adv-x="764" 
d="M94 0l-21 500h155l-2 -222q0 -37 -3.5 -75t-6.5 -77h4q14 39 26.5 77t27.5 75l88 222h138l8 -222q0 -37 -1 -74t-1 -78h4q14 39 26.5 77t25.5 75l78 222h148l-208 -500h-182v186q0 38 2 75.5t4 80.5h-4q-13 -43 -25 -80t-27 -76l-72 -186h-182z" />
    <glyph glyph-name="x" unicode="x" horiz-adv-x="514" 
d="M-38 0l206 268l-84 232h162l25 -78q5 -21 11 -42t11 -42h4q11 21 24 42t23 42l38 78h170l-192 -268l90 -232h-164l-26 76q-7 21 -13 43t-13 43h-4q-12 -21 -25 -42.5t-26 -43.5l-46 -76h-171z" />
    <glyph glyph-name="y" unicode="y" horiz-adv-x="518" 
d="M64 -188q-27 0 -50 6t-38 16l46 116q17 -8 40 -8t46.5 12t36.5 37l7 13l-90 496h164l20 -204q3 -30 4.5 -69t1.5 -71h4q14 32 29.5 70.5t28.5 69.5l88 204h162l-246 -482q-39 -76 -77.5 -121t-81 -65t-95.5 -20z" />
    <glyph glyph-name="z" unicode="z" horiz-adv-x="456" 
d="M-10 0l18 90l240 286h-164l24 124h364l-18 -92l-240 -284h190l-24 -124h-390z" />
    <glyph glyph-name="Agrave" unicode="&#xc0;" horiz-adv-x="562" 
d="M-66 0l340 650h192l62 -650h-168l-10 344q-1 47 -2.5 92t-1.5 94h-4q-19 -48 -37 -93.5t-39 -92.5l-156 -344h-176zM110 148l28 120h302l-28 -120h-302zM320 700l-150 142l10 18h180l90 -160h-130z" />
    <glyph glyph-name="Aacute" unicode="&#xc1;" horiz-adv-x="562" 
d="M-66 0l340 650h192l62 -650h-168l-10 344q-1 47 -2.5 92t-1.5 94h-4q-19 -48 -37 -93.5t-39 -92.5l-156 -344h-176zM110 148l28 120h302l-28 -120h-302zM270 700l140 160h190l10 -18l-210 -142h-130z" />
    <glyph glyph-name="Acircumflex" unicode="&#xc2;" horiz-adv-x="562" 
d="M-66 0l340 650h192l62 -650h-168l-10 344q-1 47 -2.5 92t-1.5 94h-4q-19 -48 -37 -93.5t-39 -92.5l-156 -344h-176zM110 148l28 120h302l-28 -120h-302zM180 700l150 160h150l100 -160h-130l-54 58h-4l-82 -58h-130z" />
    <glyph glyph-name="Atilde" unicode="&#xc3;" horiz-adv-x="562" 
d="M-66 0l340 650h192l62 -650h-168l-10 344q-1 47 -2.5 92t-1.5 94h-4q-19 -48 -37 -93.5t-39 -92.5l-156 -344h-176zM110 148l28 120h302l-28 -120h-302zM446 686q-26 0 -45.5 8t-33.5 18t-25 18t-22 8q-12 0 -22 -8t-18 -34l-108 8q20 83 63.5 117.5t98.5 34.5
q26 0 45.5 -8t33.5 -18t25.5 -18t21.5 -8q12 0 22.5 8.5t17.5 33.5l108 -8q-19 -82 -63 -117t-99 -35z" />
    <glyph glyph-name="Adieresis" unicode="&#xc4;" horiz-adv-x="562" 
d="M-66 0l340 650h192l62 -650h-168l-10 344q-1 47 -2.5 92t-1.5 94h-4q-19 -48 -37 -93.5t-39 -92.5l-156 -344h-176zM110 148l28 120h302l-28 -120h-302zM266 696q-28 0 -47 17t-19 49t24 57t60 25q28 0 47 -17.5t19 -48.5q0 -34 -24 -58t-60 -24zM490 696q-28 0 -47 17
t-19 49t24 57t60 25q28 0 47 -17.5t19 -48.5q0 -34 -24 -58t-60 -24z" />
    <glyph glyph-name="Aring" unicode="&#xc5;" horiz-adv-x="562" 
d="M-66 0l340 650h192l62 -650h-168l-10 344q-1 47 -2.5 92t-1.5 94h-4q-19 -48 -37 -93.5t-39 -92.5l-156 -344h-176zM110 148l28 120h302l-28 -120h-302zM386 696q-57 0 -93.5 21.5t-36.5 70.5q0 45 41 77.5t105 32.5q57 0 93.5 -21t36.5 -71q0 -45 -40.5 -77.5
t-105.5 -32.5zM388 754q18 0 31 15.5t13 34.5q0 17 -8.5 26.5t-23.5 9.5q-18 0 -31 -15t-13 -35q0 -16 8.5 -26t23.5 -10z" />
    <glyph glyph-name="Amacron" unicode="&#x100;" horiz-adv-x="562" 
d="M-66 0l340 650h192l62 -650h-168l-10 344q-1 47 -2.5 92t-1.5 94h-4q-19 -48 -37 -93.5t-39 -92.5l-156 -344h-176zM110 148l28 120h302l-28 -120h-302zM230 716l20 102h300l-20 -102h-300z" />
    <glyph glyph-name="Abreve" unicode="&#x102;" horiz-adv-x="562" 
d="M-66 0l340 650h192l62 -650h-168l-10 344q-1 47 -2.5 92t-1.5 94h-4q-19 -48 -37 -93.5t-39 -92.5l-156 -344h-176zM110 148l28 120h302l-28 -120h-302zM376 694q-54 0 -86 18.5t-46 50t-14 71.5l94 16q3 -31 21 -44.5t49 -13.5q30 0 53 14t35 44l88 -16q-13 -48 -39 -79
t-65 -46t-90 -15z" />
    <glyph glyph-name="uni0226" unicode="&#x226;" horiz-adv-x="562" 
d="M-66 0l340 650h192l62 -650h-168l-10 344q-1 47 -2.5 92t-1.5 94h-4q-19 -48 -37 -93.5t-39 -92.5l-156 -344h-176zM110 148l28 120h302l-28 -120h-302zM386 698q-31 0 -57.5 18.5t-26.5 55.5q0 36 28 63t68 27q32 0 58 -19t26 -55q0 -39 -27.5 -64.5t-68.5 -25.5z" />
    <glyph glyph-name="uni01CD" unicode="&#x1cd;" horiz-adv-x="562" 
d="M-66 0l340 650h192l62 -650h-168l-10 344q-1 47 -2.5 92t-1.5 94h-4q-19 -48 -37 -93.5t-39 -92.5l-156 -344h-176zM110 148l28 120h302l-28 -120h-302zM300 700l-100 160h130l54 -58h4l82 58h130l-150 -160h-150z" />
    <glyph glyph-name="uni0200" unicode="&#x200;" horiz-adv-x="562" 
d="M-66 0l340 650h192l62 -650h-168l-10 344q-1 47 -2.5 92t-1.5 94h-4q-19 -48 -37 -93.5t-39 -92.5l-156 -344h-176zM110 148l28 120h302l-28 -120h-302zM210 700l-100 142l10 18h140l50 -160h-100zM410 700l-100 142l10 18h140l50 -160h-100z" />
    <glyph glyph-name="Aogonek" unicode="&#x104;" horiz-adv-x="562" 
d="M394 -228q-46 0 -77 23t-31 63q0 27 16 53.5t40.5 49.5t51.5 39h-34l-10 344q-1 47 -2.5 92t-1.5 94h-4q-19 -48 -37 -93.5t-39 -92.5l-156 -344h-176l340 650h192l62 -650q-55 -15 -76.5 -39.5t-21.5 -44.5q0 -15 10.5 -22.5t23.5 -7.5q16 0 28 6l30 -84
q-24 -16 -58.5 -26t-69.5 -10zM110 148l28 120h302l-28 -120h-302z" />
    <glyph glyph-name="Aogonek.d" horiz-adv-x="562" 
d="M222 -228q-46 0 -77 23t-31 63q0 26 16.5 55t46 57t69.5 52l44 -48q-15 -13 -23.5 -28.5t-8.5 -29.5q0 -15 10.5 -22.5t23.5 -7.5q16 0 28 6l30 -84q-24 -16 -58.5 -26t-69.5 -10zM-66 0l340 650h192l62 -650h-168l-10 344q-1 47 -2.5 92t-1.5 94h-4q-19 -48 -37 -93.5
t-39 -92.5l-156 -344h-176zM110 148l28 120h302l-28 -120h-302z" />
    <glyph glyph-name="uni1EA0" unicode="&#x1ea0;" horiz-adv-x="562" 
d="M-66 0l340 650h192l62 -650h-168l-10 344q-1 47 -2.5 92t-1.5 94h-4q-19 -48 -37 -93.5t-39 -92.5l-156 -344h-176zM110 148l28 120h302l-28 -120h-302zM190 -246q-31 0 -57.5 18.5t-26.5 55.5q0 36 28 63t68 27q32 0 58 -19t26 -55q0 -39 -27.5 -64.5t-68.5 -25.5z" />
    <glyph glyph-name="uni1EA2" unicode="&#x1ea2;" horiz-adv-x="562" 
d="M-66 0l340 650h192l62 -650h-168l-10 344q-1 47 -2.5 92t-1.5 94h-4q-19 -48 -37 -93.5t-39 -92.5l-156 -344h-176zM110 148l28 120h302l-28 -120h-302zM322 694l-4 66q46 6 46 30q0 11 -15 19.5t-53 8.5l26 90q63 0 100.5 -13t53.5 -33t16 -42q0 -54 -45 -87.5
t-125 -38.5z" />
    <glyph glyph-name="uni1EA4" unicode="&#x1ea4;" horiz-adv-x="562" 
d="M-66 0l340 650h192l62 -650h-168l-10 344q-1 47 -2.5 92t-1.5 94h-4q-19 -48 -37 -93.5t-39 -92.5l-156 -344h-176zM110 148l28 120h302l-28 -120h-302zM200 700l133 140h135l92 -140h-117l-47 60h-4l-75 -60h-117zM510 790l80 130h120l10 -18l-130 -112h-80z" />
    <glyph glyph-name="uni1EA6" unicode="&#x1ea6;" horiz-adv-x="562" 
d="M-66 0l340 650h192l62 -650h-168l-10 344q-1 47 -2.5 92t-1.5 94h-4q-19 -48 -37 -93.5t-39 -92.5l-156 -344h-176zM110 148l28 120h302l-28 -120h-302zM200 700l133 140h135l92 -140h-117l-47 60h-4l-75 -60h-117zM180 790l-80 112l10 18h120l30 -130h-80z" />
    <glyph glyph-name="uni1EA8" unicode="&#x1ea8;" horiz-adv-x="562" 
d="M-66 0l340 650h192l62 -650h-168l-10 344q-1 47 -2.5 92t-1.5 94h-4q-19 -48 -37 -93.5t-39 -92.5l-156 -344h-176zM110 148l28 120h302l-28 -120h-302zM200 700l133 140h135l92 -140h-117l-47 60h-3l-76 -60h-117zM542 768l-2 52q30 3 30 26q0 11 -11.5 17t-44.5 9
l18 68q77 0 111.5 -16.5t34.5 -49.5q0 -45 -38 -72.5t-98 -33.5z" />
    <glyph glyph-name="uni1EAA" unicode="&#x1eaa;" horiz-adv-x="562" 
d="M-66 0l340 650h192l62 -650h-168l-10 344q-1 47 -2.5 92t-1.5 94h-4q-19 -48 -37 -93.5t-39 -92.5l-156 -344h-176zM110 148l28 120h302l-28 -120h-302zM317 700h-117l131 130h135l94 -130h-117l-49 50h-4zM468 848q-30 0 -49.5 10.5t-32.5 21t-24 10.5q-12 0 -21 -8
t-15 -28l-80 10q10 43 27 68.5t38.5 37.5t44.5 12q30 0 49.5 -10.5t32.5 -21t24 -10.5q12 0 21 8.5t15 27.5l78 -10q-9 -42 -25.5 -68t-38 -38t-44.5 -12z" />
    <glyph glyph-name="uni1EAC" unicode="&#x1eac;" horiz-adv-x="562" 
d="M-66 0l340 650h192l62 -650h-168l-10 344q-1 47 -2.5 92t-1.5 94h-4q-19 -48 -37 -93.5t-39 -92.5l-156 -344h-176zM110 148l28 120h302l-28 -120h-302zM180 700l150 160h150l100 -160h-130l-54 58h-4l-82 -58h-130zM190 -246q-31 0 -57.5 18.5t-26.5 55.5q0 36 28 63
t68 27q32 0 58 -19t26 -55q0 -39 -27.5 -64.5t-68.5 -25.5z" />
    <glyph glyph-name="uni1EAE" unicode="&#x1eae;" horiz-adv-x="562" 
d="M-66 0l340 650h192l62 -650h-168l-10 344q-1 47 -2.5 92t-1.5 94h-4q-19 -48 -37 -93.5t-39 -92.5l-156 -344h-176zM110 148l28 120h302l-28 -120h-302zM374 694q-46 0 -77.5 14t-48 45t-16.5 81l82 16q3 -34 21.5 -51t54.5 -17q34 0 59.5 17t40.5 51l78 -16
q-13 -48 -38 -79t-63.5 -46t-92.5 -15zM350 850l80 130h120l10 -18l-130 -112h-80z" />
    <glyph glyph-name="uni1EB0" unicode="&#x1eb0;" horiz-adv-x="562" 
d="M-66 0l340 650h192l62 -650h-168l-10 344q-1 47 -2.5 92t-1.5 94h-4q-19 -48 -37 -93.5t-39 -92.5l-156 -344h-176zM110 148l28 120h302l-28 -120h-302zM374 694q-46 0 -77.5 14t-48 45t-16.5 81l82 16q3 -34 21.5 -51t54.5 -17q34 0 59.5 17t40.5 51l78 -16
q-13 -48 -38 -79t-63.5 -46t-92.5 -15zM370 850l-80 112l10 18h120l30 -130h-80z" />
    <glyph glyph-name="uni1EB2" unicode="&#x1eb2;" horiz-adv-x="562" 
d="M-66 0l340 650h192l62 -650h-168l-10 344q-1 47 -2.5 92t-1.5 94h-4q-19 -48 -37 -93.5t-39 -92.5l-156 -344h-176zM110 148l28 120h302l-28 -120h-302zM374 694q-46 0 -77.5 14t-48 45t-16.5 81l82 16q3 -34 21.5 -51t54.5 -17q34 0 59.5 17t40.5 51l78 -16
q-13 -48 -38 -79t-63.5 -46t-92.5 -15zM360 824l-2 52q30 3 30 26q0 11 -11.5 17t-44.5 9l18 68q77 0 111.5 -16.5t34.5 -49.5q0 -45 -38 -72.5t-98 -33.5z" />
    <glyph glyph-name="uni1EB4" unicode="&#x1eb4;" horiz-adv-x="562" 
d="M-66 0l340 650h192l62 -650h-168l-10 344q-1 47 -2.5 92t-1.5 94h-4q-19 -48 -37 -93.5t-39 -92.5l-156 -344h-176zM110 148l28 120h302l-28 -120h-302zM376 694q-48 0 -80 15t-48 42t-16 63l82 14q4 -19 19.5 -33.5t54.5 -14.5t59.5 14.5t30.5 33.5l78 -14
q-11 -36 -33.5 -63t-58.5 -42t-88 -15zM468 848q-30 0 -49.5 10.5t-32.5 21t-24 10.5q-12 0 -21 -8t-15 -28l-80 10q10 43 27 68.5t38.5 37.5t44.5 12q30 0 49.5 -10.5t32.5 -21t24 -10.5q12 0 21 8.5t15 27.5l78 -10q-9 -42 -25.5 -68t-38 -38t-44.5 -12z" />
    <glyph glyph-name="uni1EB6" unicode="&#x1eb6;" horiz-adv-x="562" 
d="M-66 0l340 650h192l62 -650h-168l-10 344q-1 47 -2.5 92t-1.5 94h-4q-19 -48 -37 -93.5t-39 -92.5l-156 -344h-176zM110 148l28 120h302l-28 -120h-302zM376 694q-54 0 -86 18.5t-46 50t-14 71.5l94 16q3 -31 21 -44.5t49 -13.5q30 0 53 14t35 44l88 -16q-13 -48 -39 -79
t-65 -46t-90 -15zM190 -246q-31 0 -57.5 18.5t-26.5 55.5q0 36 28 63t68 27q32 0 58 -19t26 -55q0 -39 -27.5 -64.5t-68.5 -25.5z" />
    <glyph glyph-name="Aringacute" unicode="&#x1fa;" horiz-adv-x="562" 
d="M-66 0l340 650h192l62 -650h-168l-10 344q-1 47 -2.5 92t-1.5 94h-4q-19 -48 -37 -93.5t-39 -92.5l-156 -344h-176zM110 148l28 120h302l-28 -120h-302zM386 696q-57 0 -93.5 21.5t-36.5 70.5q0 27 14 49t36 41l144 122h150l10 -18l-170 -110v16q44 -1 68 -24t24 -58
q0 -46 -40.5 -78t-105.5 -32zM388 754q18 0 31 15.5t13 34.5q0 17 -8.5 26.5t-23.5 9.5q-18 0 -31 -15t-13 -35q0 -16 8.5 -26t23.5 -10z" />
    <glyph glyph-name="AE" unicode="&#xc6;" horiz-adv-x="852" 
d="M-36 0l408 650h496l-26 -134h-230l-22 -114h194l-26 -134h-194l-28 -134h238l-26 -134h-398l107 536h-3q-27 -46 -52.5 -88.5t-51.5 -87.5l-206 -360h-180zM138 140l26 124h320l-24 -124h-322z" />
    <glyph glyph-name="AEacute" unicode="&#x1fc;" horiz-adv-x="852" 
d="M-36 0l408 650h496l-26 -134h-230l-22 -114h194l-26 -134h-194l-28 -134h238l-26 -134h-398l107 536h-3q-27 -46 -52.5 -88.5t-51.5 -87.5l-206 -360h-180zM138 140l26 124h320l-24 -124h-322zM520 700l140 160h190l10 -18l-210 -142h-130z" />
    <glyph glyph-name="uni01E2" unicode="&#x1e2;" horiz-adv-x="852" 
d="M-36 0l408 650h496l-26 -134h-230l-22 -114h194l-26 -134h-194l-28 -134h238l-26 -134h-398l107 536h-3q-27 -46 -52.5 -88.5t-51.5 -87.5l-206 -360h-180zM138 140l26 124h320l-24 -124h-322zM480 716l20 102h300l-20 -102h-300z" />
    <glyph glyph-name="uni023A" unicode="&#x23a;" horiz-adv-x="562" 
d="M160 -66l-40 10l334 772l40 -10zM-66 0l340 650h192l62 -650h-168l-10 344q-1 47 -2.5 92t-1.5 94h-4q-19 -48 -37 -93.5t-39 -92.5l-156 -344h-176zM110 148l28 120h302l-28 -120h-302z" />
    <glyph glyph-name="uni0243" unicode="&#x243;" horiz-adv-x="620" 
d="M44 0l130 650h208q66 0 117 -14.5t80 -45t29 -80.5q0 -33 -16.5 -63t-48 -53t-77.5 -36v-4q37 -10 61.5 -27.5t36.5 -42.5t12 -58q0 -81 -40 -131t-105 -72.5t-141 -22.5h-246zM-10 166l18 90l92 6h272l-18 -96h-364zM226 112h74q38 0 65.5 14.5t42 41t14.5 62.5
q0 37 -21 56.5t-63 19.5h-74zM286 406h50q56 0 82 20t26 56q0 27 -22 40.5t-66 13.5h-44z" />
    <glyph glyph-name="uni0181" unicode="&#x181;" horiz-adv-x="770" 
d="M210 0l114 570h160l-36 -180h38q59 0 83.5 22.5t24.5 59.5q0 18 -12 31.5t-34 21t-52 7.5h-122q-52 0 -88 -13t-58.5 -34.5t-33 -47t-10.5 -51.5q0 -22 10 -38t28 -28l-86 -110q-43 26 -68.5 66.5t-25.5 85.5q0 63 22.5 117.5t72 95.5t129 64t194.5 23q108 0 173.5 -19
t95 -55.5t29.5 -87.5q0 -35 -16.5 -67t-48 -56.5t-77.5 -38.5v-4q37 -9 61.5 -25.5t36.5 -39.5t12 -53q0 -78 -40 -125.5t-105 -69t-141 -21.5h-230zM394 122h58q40 0 66.5 11t40 30.5t13.5 46.5q0 36 -21.5 54t-66.5 18h-58z" />
    <glyph glyph-name="uni1E02" unicode="&#x1e02;" horiz-adv-x="602" 
d="M26 0l130 650h208q99 0 160.5 -35t61.5 -115q0 -35 -16.5 -67t-48 -56.5t-77.5 -38.5v-4q37 -9 61.5 -25.5t36.5 -39.5t12 -53q0 -78 -39 -125.5t-103 -69t-140 -21.5h-246zM264 390h54q59 0 83.5 22.5t24.5 59.5q0 27 -21.5 41.5t-66.5 14.5h-46zM210 122h74
q40 0 66.5 11t40 30.5t13.5 46.5q0 36 -21.5 54t-66.5 18h-74zM396 698q-31 0 -57.5 18.5t-26.5 55.5q0 36 28 63t68 27q32 0 58 -19t26 -55q0 -39 -27.5 -64.5t-68.5 -25.5z" />
    <glyph glyph-name="uni1E06" unicode="&#x1e06;" horiz-adv-x="602" 
d="M26 0l130 650h208q99 0 160.5 -35t61.5 -115q0 -35 -16.5 -67t-48 -56.5t-77.5 -38.5v-4q37 -9 61.5 -25.5t36.5 -39.5t12 -53q0 -78 -39 -125.5t-103 -69t-140 -21.5h-246zM264 390h54q59 0 83.5 22.5t24.5 59.5q0 27 -21.5 41.5t-66.5 14.5h-46zM210 122h74
q40 0 66.5 11t40 30.5t13.5 46.5q0 36 -21.5 54t-66.5 18h-74zM88 -170l20 100h294l-20 -100h-294z" />
    <glyph glyph-name="Ccedilla" unicode="&#xc7;" horiz-adv-x="574" 
d="M306 -12q-74 0 -130.5 32.5t-88 94t-31.5 149.5q0 70 17.5 130.5t50 109.5t75.5 84.5t95 54.5t108 19q57 0 103 -23.5t73 -70.5l-86 -91q-21 26 -46 36.5t-54 10.5q-26 0 -51.5 -12.5t-47 -35t-38 -54t-26 -69t-9.5 -79.5q0 -47 12.5 -80t38 -50.5t65.5 -17.5
q32 0 59 12.5t49 31.5l66 -100q-33 -31 -81.5 -56.5t-122.5 -25.5zM130 -244v66q57 3 80.5 12t27.5 30q2 14 -11.5 24t-58.5 16l68 100h98l-40 -64q38 -9 54.5 -26.5t11.5 -49.5q-10 -54 -69.5 -79.5t-160.5 -28.5z" />
    <glyph glyph-name="Cacute" unicode="&#x106;" horiz-adv-x="574" 
d="M306 -12q-74 0 -130.5 32.5t-88 94t-31.5 149.5q0 70 17.5 130.5t50 109.5t75.5 84.5t95 54.5t108 19q57 0 103 -23.5t73 -70.5l-86 -91q-21 26 -46 36.5t-54 10.5q-26 0 -51.5 -12.5t-47 -35t-38 -54t-26 -69t-9.5 -79.5q0 -47 12.5 -80t38 -50.5t65.5 -17.5
q32 0 59 12.5t49 31.5l66 -100q-33 -31 -81.5 -56.5t-122.5 -25.5zM310 700l140 160h190l10 -18l-210 -142h-130z" />
    <glyph glyph-name="Ccircumflex" unicode="&#x108;" horiz-adv-x="574" 
d="M306 -12q-74 0 -130.5 32.5t-88 94t-31.5 149.5q0 70 17.5 130.5t50 109.5t75.5 84.5t95 54.5t108 19q57 0 103 -23.5t73 -70.5l-86 -91q-21 26 -46 36.5t-54 10.5q-26 0 -51.5 -12.5t-47 -35t-38 -54t-26 -69t-9.5 -79.5q0 -47 12.5 -80t38 -50.5t65.5 -17.5
q32 0 59 12.5t49 31.5l66 -100q-33 -31 -81.5 -56.5t-122.5 -25.5zM220 700l150 160h150l100 -160h-130l-54 58h-4l-82 -58h-130z" />
    <glyph glyph-name="Cdotaccent" unicode="&#x10a;" horiz-adv-x="574" 
d="M306 -12q-74 0 -130.5 32.5t-88 94t-31.5 149.5q0 70 17.5 130.5t50 109.5t75.5 84.5t95 54.5t108 19q57 0 103 -23.5t73 -70.5l-86 -91q-21 26 -46 36.5t-54 10.5q-26 0 -51.5 -12.5t-47 -35t-38 -54t-26 -69t-9.5 -79.5q0 -47 12.5 -80t38 -50.5t65.5 -17.5
q32 0 59 12.5t49 31.5l66 -100q-33 -31 -81.5 -56.5t-122.5 -25.5zM426 698q-31 0 -57.5 18.5t-26.5 55.5q0 36 28 63t68 27q32 0 58 -19t26 -55q0 -39 -27.5 -64.5t-68.5 -25.5z" />
    <glyph glyph-name="Ccaron" unicode="&#x10c;" horiz-adv-x="574" 
d="M306 -12q-74 0 -130.5 32.5t-88 94t-31.5 149.5q0 70 17.5 130.5t50 109.5t75.5 84.5t95 54.5t108 19q57 0 103 -23.5t73 -70.5l-86 -91q-21 26 -46 36.5t-54 10.5q-26 0 -51.5 -12.5t-47 -35t-38 -54t-26 -69t-9.5 -79.5q0 -47 12.5 -80t38 -50.5t65.5 -17.5
q32 0 59 12.5t49 31.5l66 -100q-33 -31 -81.5 -56.5t-122.5 -25.5zM340 700l-100 160h130l54 -58h4l82 58h130l-150 -160h-150z" />
    <glyph glyph-name="uni023B" unicode="&#x23b;" horiz-adv-x="574" 
d="M206 -66l-40 10l314 772l40 -10zM306 -12q-74 0 -130.5 32.5t-88 94t-31.5 149.5q0 70 17.5 130.5t50 109.5t75.5 84.5t95 54.5t108 19q57 0 103 -23.5t73 -70.5l-86 -91q-21 26 -46 36.5t-54 10.5q-26 0 -51.5 -12.5t-47 -35t-38 -54t-26 -69t-9.5 -79.5q0 -47 12.5 -80
t38 -50.5t65.5 -17.5q32 0 59 12.5t49 31.5l66 -100q-33 -31 -81.5 -56.5t-122.5 -25.5z" />
    <glyph glyph-name="uni1E0A" unicode="&#x1e0a;" horiz-adv-x="632" 
d="M26 0l130 650h158q86 0 152 -27.5t103 -86t37 -150.5q0 -94 -28.5 -166.5t-78.5 -121t-115 -73.5t-138 -25h-220zM212 128h30q37 0 72.5 14t64.5 44t46 77t17 113q0 55 -19 87t-49.5 45.5t-63.5 13.5h-20zM406 698q-31 0 -57.5 18.5t-26.5 55.5q0 36 28 63t68 27
q32 0 58 -19t26 -55q0 -39 -27.5 -64.5t-68.5 -25.5z" />
    <glyph glyph-name="Dcaron" unicode="&#x10e;" horiz-adv-x="632" 
d="M26 0l130 650h158q86 0 152 -27.5t103 -86t37 -150.5q0 -94 -28.5 -166.5t-78.5 -121t-115 -73.5t-138 -25h-220zM212 128h30q37 0 72.5 14t64.5 44t46 77t17 113q0 55 -19 87t-49.5 45.5t-63.5 13.5h-20zM320 700l-100 160h130l54 -58h4l82 58h130l-150 -160h-150z" />
    <glyph glyph-name="uni1E0C" unicode="&#x1e0c;" horiz-adv-x="632" 
d="M26 0l130 650h158q86 0 152 -27.5t103 -86t37 -150.5q0 -94 -28.5 -166.5t-78.5 -121t-115 -73.5t-138 -25h-220zM212 128h30q37 0 72.5 14t64.5 44t46 77t17 113q0 55 -19 87t-49.5 45.5t-63.5 13.5h-20zM230 -246q-31 0 -57.5 18.5t-26.5 55.5q0 36 28 63t68 27
q32 0 58 -19t26 -55q0 -39 -27.5 -64.5t-68.5 -25.5z" />
    <glyph glyph-name="uni1E0E" unicode="&#x1e0e;" horiz-adv-x="632" 
d="M26 0l130 650h158q86 0 152 -27.5t103 -86t37 -150.5q0 -94 -28.5 -166.5t-78.5 -121t-115 -73.5t-138 -25h-220zM212 128h30q37 0 72.5 14t64.5 44t46 77t17 113q0 55 -19 87t-49.5 45.5t-63.5 13.5h-20zM88 -170l20 100h294l-20 -100h-294z" />
    <glyph glyph-name="uni1E10" unicode="&#x1e10;" horiz-adv-x="632" 
d="M26 0l130 650h158q86 0 152 -27.5t103 -86t37 -150.5q0 -94 -28.5 -166.5t-78.5 -121t-115 -73.5t-138 -25h-220zM212 128h30q37 0 72.5 14t64.5 44t46 77t17 113q0 55 -19 87t-49.5 45.5t-63.5 13.5h-20zM100 -244v66q57 3 80.5 12t27.5 30q2 14 -11.5 24t-58.5 16
l68 100h98l-40 -64q38 -9 54.5 -26.5t11.5 -49.5q-10 -54 -69.5 -79.5t-160.5 -28.5z" />
    <glyph glyph-name="Dcroat" unicode="&#x110;" horiz-adv-x="652" 
d="M30 286l18 90l76 6h280l-18 -96h-356zM46 0l130 650h158q86 0 152 -27.5t103 -86t37 -150.5q0 -94 -28.5 -166.5t-78.5 -121t-115 -73.5t-138 -25h-220zM232 128h30q37 0 72.5 14t64.5 44t46 77t17 113q0 55 -19 87t-49.5 45.5t-63.5 13.5h-20z" />
    <glyph glyph-name="uni018A" unicode="&#x18a;" horiz-adv-x="800" 
d="M210 0l114 570h160l-88 -442h14q35 0 70 13.5t64.5 43t47.5 77t18 114.5q0 63 -22 97t-56 46.5t-70 12.5h-88q-52 0 -88 -13t-58.5 -34.5t-33 -47t-10.5 -51.5q0 -22 10 -38t28 -28l-86 -110q-43 26 -68.5 66.5t-25.5 85.5q0 63 22.5 117.5t72 95.5t129 64t194.5 23
q95 0 165.5 -30.5t109.5 -92t39 -153.5q0 -96 -29.5 -168.5t-80.5 -120.5t-115.5 -72.5t-134.5 -24.5h-204z" />
    <glyph glyph-name="Egrave" unicode="&#xc8;" horiz-adv-x="534" 
d="M26 0l130 650h396l-26 -134h-238l-22 -114h202l-26 -134h-202l-28 -134h246l-26 -134h-406zM310 700l-150 142l10 18h180l90 -160h-130z" />
    <glyph glyph-name="Eacute" unicode="&#xc9;" horiz-adv-x="534" 
d="M26 0l130 650h396l-26 -134h-238l-22 -114h202l-26 -134h-202l-28 -134h246l-26 -134h-406zM260 700l140 160h190l10 -18l-210 -142h-130z" />
    <glyph glyph-name="Ecircumflex" unicode="&#xca;" horiz-adv-x="534" 
d="M26 0l130 650h396l-26 -134h-238l-22 -114h202l-26 -134h-202l-28 -134h246l-26 -134h-406zM170 700l150 160h150l100 -160h-130l-54 58h-4l-82 -58h-130z" />
    <glyph glyph-name="uni1EBC" unicode="&#x1ebc;" horiz-adv-x="534" 
d="M26 0l130 650h396l-26 -134h-238l-22 -114h202l-26 -134h-202l-28 -134h246l-26 -134h-406zM436 686q-26 0 -45.5 8t-33.5 18t-25 18t-22 8q-12 0 -22 -8t-18 -34l-108 8q20 83 63.5 117.5t98.5 34.5q26 0 45.5 -8t33.5 -18t25.5 -18t21.5 -8q12 0 22.5 8.5t17.5 33.5
l108 -8q-19 -82 -63 -117t-99 -35z" />
    <glyph glyph-name="Edieresis" unicode="&#xcb;" horiz-adv-x="534" 
d="M26 0l130 650h396l-26 -134h-238l-22 -114h202l-26 -134h-202l-28 -134h246l-26 -134h-406zM256 696q-28 0 -47 17t-19 49t24 57t60 25q28 0 47 -17.5t19 -48.5q0 -34 -24 -58t-60 -24zM480 696q-28 0 -47 17t-19 49t24 57t60 25q28 0 47 -17.5t19 -48.5q0 -34 -24 -58
t-60 -24z" />
    <glyph glyph-name="Emacron" unicode="&#x112;" horiz-adv-x="534" 
d="M26 0l130 650h396l-26 -134h-238l-22 -114h202l-26 -134h-202l-28 -134h246l-26 -134h-406zM220 716l20 102h300l-20 -102h-300z" />
    <glyph glyph-name="Ebreve" unicode="&#x114;" horiz-adv-x="534" 
d="M26 0l130 650h396l-26 -134h-238l-22 -114h202l-26 -134h-202l-28 -134h246l-26 -134h-406zM366 694q-54 0 -86 18.5t-46 50t-14 71.5l94 16q3 -31 21 -44.5t49 -13.5q30 0 53 14t35 44l88 -16q-13 -48 -39 -79t-65 -46t-90 -15z" />
    <glyph glyph-name="Edotaccent" unicode="&#x116;" horiz-adv-x="534" 
d="M26 0l130 650h396l-26 -134h-238l-22 -114h202l-26 -134h-202l-28 -134h246l-26 -134h-406zM376 698q-31 0 -57.5 18.5t-26.5 55.5q0 36 28 63t68 27q32 0 58 -19t26 -55q0 -39 -27.5 -64.5t-68.5 -25.5z" />
    <glyph glyph-name="Ecaron" unicode="&#x11a;" horiz-adv-x="534" 
d="M26 0l130 650h396l-26 -134h-238l-22 -114h202l-26 -134h-202l-28 -134h246l-26 -134h-406zM290 700l-100 160h130l54 -58h4l82 58h130l-150 -160h-150z" />
    <glyph glyph-name="uni0204" unicode="&#x204;" horiz-adv-x="534" 
d="M26 0l130 650h396l-26 -134h-238l-22 -114h202l-26 -134h-202l-28 -134h246l-26 -134h-406zM200 700l-100 142l10 18h140l50 -160h-100zM400 700l-100 142l10 18h140l50 -160h-100z" />
    <glyph glyph-name="Eogonek" unicode="&#x118;" horiz-adv-x="534" 
d="M310 -228q-46 0 -77 23t-31 63q0 27 16 53.5t40.5 49.5t51.5 39h-284l130 650h396l-26 -134h-238l-22 -114h202l-26 -134h-202l-28 -134h246l-26 -134q-19 -4 -34.5 -13.5t-27 -22t-18 -25t-6.5 -23.5q0 -15 10.5 -22.5t23.5 -7.5q16 0 28 6l30 -84q-24 -16 -58.5 -26
t-69.5 -10z" />
    <glyph glyph-name="Eogonek.d" horiz-adv-x="534" 
d="M212 -228q-46 0 -77 22t-31 64q0 27 16 53.5t40.5 49.5t51.5 39h-186l130 650h396l-26 -134h-238l-22 -114h202l-26 -134h-202l-28 -134h246l-26 -134h-82q-22 0 -40.5 -8.5t-32.5 -21.5t-21.5 -27.5t-7.5 -26.5q0 -15 10.5 -22.5t23.5 -7.5q16 0 28 6l30 -84
q-24 -16 -59.5 -26t-68.5 -10z" />
    <glyph glyph-name="uni1EB8" unicode="&#x1eb8;" horiz-adv-x="534" 
d="M26 0l130 650h396l-26 -134h-238l-22 -114h202l-26 -134h-202l-28 -134h246l-26 -134h-406zM210 -246q-31 0 -57.5 18.5t-26.5 55.5q0 36 28 63t68 27q32 0 58 -19t26 -55q0 -39 -27.5 -64.5t-68.5 -25.5z" />
    <glyph glyph-name="uni1EBA" unicode="&#x1eba;" horiz-adv-x="534" 
d="M26 0l130 650h396l-26 -134h-238l-22 -114h202l-26 -134h-202l-28 -134h246l-26 -134h-406zM312 694l-4 66q46 6 46 30q0 11 -15 19.5t-53 8.5l26 90q63 0 100.5 -13t53.5 -33t16 -42q0 -54 -45 -87.5t-125 -38.5z" />
    <glyph glyph-name="uni1EBE" unicode="&#x1ebe;" horiz-adv-x="534" 
d="M26 0l130 650h396l-26 -134h-238l-22 -114h202l-26 -134h-202l-28 -134h246l-26 -134h-406zM190 700l133 140h135l92 -140h-117l-47 60h-4l-75 -60h-117zM500 790l80 130h120l10 -18l-130 -112h-80z" />
    <glyph glyph-name="uni1EC0" unicode="&#x1ec0;" horiz-adv-x="534" 
d="M26 0l130 650h396l-26 -134h-238l-22 -114h202l-26 -134h-202l-28 -134h246l-26 -134h-406zM190 700l133 140h135l92 -140h-117l-47 60h-4l-75 -60h-117zM170 790l-80 112l10 18h120l30 -130h-80z" />
    <glyph glyph-name="uni1EC2" unicode="&#x1ec2;" horiz-adv-x="534" 
d="M26 0l130 650h396l-26 -134h-238l-22 -114h202l-26 -134h-202l-28 -134h246l-26 -134h-406zM190 700l133 140h135l92 -140h-117l-47 60h-3l-76 -60h-117zM532 768l-2 52q30 3 30 26q0 11 -11.5 17t-44.5 9l18 68q77 0 111.5 -16.5t34.5 -49.5q0 -45 -38 -72.5t-98 -33.5z
" />
    <glyph glyph-name="uni1EC4" unicode="&#x1ec4;" horiz-adv-x="534" 
d="M26 0l130 650h396l-26 -134h-238l-22 -114h202l-26 -134h-202l-28 -134h246l-26 -134h-406zM307 700h-117l131 130h135l94 -130h-117l-49 50h-4zM458 848q-30 0 -49.5 10.5t-32.5 21t-24 10.5q-12 0 -21 -8t-15 -28l-80 10q10 43 27 68.5t38.5 37.5t44.5 12
q30 0 49.5 -10.5t32.5 -21t24 -10.5q12 0 21 8.5t15 27.5l78 -10q-9 -42 -25.5 -68t-38 -38t-44.5 -12z" />
    <glyph glyph-name="uni1EC6" unicode="&#x1ec6;" horiz-adv-x="534" 
d="M26 0l130 650h396l-26 -134h-238l-22 -114h202l-26 -134h-202l-28 -134h246l-26 -134h-406zM170 700l150 160h150l100 -160h-130l-54 58h-4l-82 -58h-130zM210 -246q-31 0 -57.5 18.5t-26.5 55.5q0 36 28 63t68 27q32 0 58 -19t26 -55q0 -39 -27.5 -64.5t-68.5 -25.5z
" />
    <glyph glyph-name="uni1E16" unicode="&#x1e16;" horiz-adv-x="534" 
d="M26 0l130 650h396l-26 -134h-238l-22 -114h202l-26 -134h-202l-28 -134h246l-26 -134h-406zM218 720l20 102h300l-20 -102h-300zM330 860l100 140h140l10 -18l-150 -122h-100z" />
    <glyph glyph-name="uni018E" unicode="&#x18e;" horiz-adv-x="534" 
d="M2 0l28 134h246l26 134h-202l26 134h202l24 114h-238l28 134h396l-130 -650h-406z" />
    <glyph glyph-name="uni0190" unicode="&#x190;" horiz-adv-x="544" 
d="M268 -12q-111 0 -173.5 45.5t-62.5 121.5q0 33 12.5 62.5t34.5 53.5t52 41.5t65 25.5v4q-25 13 -42 31.5t-25.5 42t-8.5 49.5q0 53 31.5 97.5t88.5 72t134 27.5q59 0 112.5 -24.5t83.5 -69.5l-84 -90q-24 26 -51.5 37t-60.5 11q-26 0 -48.5 -9t-36 -26t-13.5 -41
q0 -25 17.5 -41.5t61.5 -16.5h67l-22 -114h-86q-35 0 -59.5 -11.5t-36.5 -30.5t-12 -42q0 -33 23 -51.5t65 -18.5q41 0 75 12.5t61 33.5l66 -100q-36 -34 -90.5 -58t-137.5 -24z" />
    <glyph glyph-name="uni1E1E" unicode="&#x1e1e;" horiz-adv-x="516" 
d="M26 0l130 650h396l-26 -134h-238l-26 -134h202l-26 -134h-202l-50 -248h-160zM376 698q-31 0 -57.5 18.5t-26.5 55.5q0 36 28 63t68 27q32 0 58 -19t26 -55q0 -39 -27.5 -64.5t-68.5 -25.5z" />
    <glyph glyph-name="uni01F4" unicode="&#x1f4;" horiz-adv-x="620" 
d="M320 -12q-81 0 -140 32.5t-91.5 94t-32.5 149.5q0 87 27.5 160t76.5 126t113.5 82.5t138.5 29.5q60 0 109 -23.5t77 -70.5l-88 -96q-21 29 -48.5 40.5t-57.5 11.5t-57.5 -12.5t-50.5 -35t-40 -54t-26.5 -69t-9.5 -79.5q0 -47 13 -80.5t41 -51.5t74 -18q14 0 29.5 4.5
t26.5 11.5l24 108h-96l24 130h236l-62 -322q-37 -28 -92 -48t-118 -20zM310 700l140 160h190l10 -18l-210 -142h-130z" />
    <glyph glyph-name="Gcircumflex" unicode="&#x11c;" horiz-adv-x="620" 
d="M320 -12q-81 0 -140 32.5t-91.5 94t-32.5 149.5q0 87 27.5 160t76.5 126t113.5 82.5t138.5 29.5q60 0 109 -23.5t77 -70.5l-88 -96q-21 29 -48.5 40.5t-57.5 11.5t-57.5 -12.5t-50.5 -35t-40 -54t-26.5 -69t-9.5 -79.5q0 -47 13 -80.5t41 -51.5t74 -18q14 0 29.5 4.5
t26.5 11.5l24 108h-96l24 130h236l-62 -322q-37 -28 -92 -48t-118 -20zM220 700l150 160h150l100 -160h-130l-54 58h-4l-82 -58h-130z" />
    <glyph glyph-name="uni1E20" unicode="&#x1e20;" horiz-adv-x="620" 
d="M320 -12q-81 0 -140 32.5t-91.5 94t-32.5 149.5q0 87 27.5 160t76.5 126t113.5 82.5t138.5 29.5q60 0 109 -23.5t77 -70.5l-88 -96q-21 29 -48.5 40.5t-57.5 11.5t-57.5 -12.5t-50.5 -35t-40 -54t-26.5 -69t-9.5 -79.5q0 -47 13 -80.5t41 -51.5t74 -18q14 0 29.5 4.5
t26.5 11.5l24 108h-96l24 130h236l-62 -322q-37 -28 -92 -48t-118 -20zM270 716l20 102h300l-20 -102h-300z" />
    <glyph glyph-name="Gbreve" unicode="&#x11e;" horiz-adv-x="620" 
d="M320 -12q-81 0 -140 32.5t-91.5 94t-32.5 149.5q0 87 27.5 160t76.5 126t113.5 82.5t138.5 29.5q60 0 109 -23.5t77 -70.5l-88 -96q-21 29 -48.5 40.5t-57.5 11.5t-57.5 -12.5t-50.5 -35t-40 -54t-26.5 -69t-9.5 -79.5q0 -47 13 -80.5t41 -51.5t74 -18q14 0 29.5 4.5
t26.5 11.5l24 108h-96l24 130h236l-62 -322q-37 -28 -92 -48t-118 -20zM416 694q-54 0 -86 18.5t-46 50t-14 71.5l94 16q3 -31 21 -44.5t49 -13.5q30 0 53 14t35 44l88 -16q-13 -48 -39 -79t-65 -46t-90 -15z" />
    <glyph glyph-name="Gdotaccent" unicode="&#x120;" horiz-adv-x="620" 
d="M320 -12q-81 0 -140 32.5t-91.5 94t-32.5 149.5q0 87 27.5 160t76.5 126t113.5 82.5t138.5 29.5q60 0 109 -23.5t77 -70.5l-88 -96q-21 29 -48.5 40.5t-57.5 11.5t-57.5 -12.5t-50.5 -35t-40 -54t-26.5 -69t-9.5 -79.5q0 -47 13 -80.5t41 -51.5t74 -18q14 0 29.5 4.5
t26.5 11.5l24 108h-96l24 130h236l-62 -322q-37 -28 -92 -48t-118 -20zM426 698q-31 0 -57.5 18.5t-26.5 55.5q0 36 28 63t68 27q32 0 58 -19t26 -55q0 -39 -27.5 -64.5t-68.5 -25.5z" />
    <glyph glyph-name="Gcaron" unicode="&#x1e6;" horiz-adv-x="620" 
d="M320 -12q-81 0 -140 32.5t-91.5 94t-32.5 149.5q0 87 27.5 160t76.5 126t113.5 82.5t138.5 29.5q60 0 109 -23.5t77 -70.5l-88 -96q-21 29 -48.5 40.5t-57.5 11.5t-57.5 -12.5t-50.5 -35t-40 -54t-26.5 -69t-9.5 -79.5q0 -47 13 -80.5t41 -51.5t74 -18q14 0 29.5 4.5
t26.5 11.5l24 108h-96l24 130h236l-62 -322q-37 -28 -92 -48t-118 -20zM340 700l-100 160h130l54 -58h4l82 58h130l-150 -160h-150z" />
    <glyph glyph-name="uni0122" unicode="&#x122;" horiz-adv-x="620" 
d="M320 -12q-81 0 -140 32.5t-91.5 94t-32.5 149.5q0 87 27.5 160t76.5 126t113.5 82.5t138.5 29.5q60 0 109 -23.5t77 -70.5l-88 -96q-21 29 -48.5 40.5t-57.5 11.5t-57.5 -12.5t-50.5 -35t-40 -54t-26.5 -69t-9.5 -79.5q0 -47 13 -80.5t41 -51.5t74 -18q14 0 29.5 4.5
t26.5 11.5l24 108h-96l24 130h236l-62 -322q-37 -28 -92 -48t-118 -20zM156 -244v66q58 3 81.5 13.5t23.5 26.5q0 9 -11 18.5t-43 9.5l44 60q56 -2 85 -12t39.5 -26t10.5 -36q0 -41 -30 -66.5t-82 -38.5t-118 -15z" />
    <glyph glyph-name="uni01E4" unicode="&#x1e4;" horiz-adv-x="660" 
d="M320 -12q-81 0 -140 32.5t-91.5 94t-32.5 149.5q0 87 27.5 160t76.5 126t113.5 82.5t138.5 29.5q60 0 109 -23.5t77 -70.5l-88 -96q-21 29 -48.5 40.5t-57.5 11.5t-57.5 -12.5t-50.5 -35t-40 -54t-26.5 -69t-9.5 -79.5q0 -47 13 -80.5t41 -51.5t74 -18q14 0 29.5 4.5
t26.5 11.5l50 238h138l-62 -322q-37 -28 -92 -48t-118 -20zM326 210l20 96l96 6h208l-20 -102h-304z" />
    <glyph glyph-name="uni00470303" horiz-adv-x="620" 
d="M320 -12q-81 0 -140 32.5t-91.5 94t-32.5 149.5q0 87 27.5 160t76.5 126t113.5 82.5t138.5 29.5q60 0 109 -23.5t77 -70.5l-88 -96q-21 29 -48.5 40.5t-57.5 11.5t-57.5 -12.5t-50.5 -35t-40 -54t-26.5 -69t-9.5 -79.5q0 -47 13 -80.5t41 -51.5t74 -18q14 0 29.5 4.5
t26.5 11.5l24 108h-96l24 130h236l-62 -322q-37 -28 -92 -48t-118 -20zM486 686q-26 0 -45.5 8t-33.5 18t-25 18t-22 8q-12 0 -22 -8t-18 -34l-108 8q20 83 63.5 117.5t98.5 34.5q26 0 45.5 -8t33.5 -18t25.5 -18t21.5 -8q12 0 22.5 8.5t17.5 33.5l108 -8q-19 -82 -63 -117
t-99 -35z" />
    <glyph glyph-name="uni0193" unicode="&#x193;" horiz-adv-x="620" 
d="M320 -12q-81 0 -140 32.5t-91.5 94t-32.5 149.5q0 87 27.5 160t76.5 126t113.5 82.5t138.5 29.5q21 0 38.5 -2.5t33.5 -7.5l-18 -22q-3 14 -4.5 26t-1.5 28q0 33 19 64.5t53.5 51.5t81.5 20q30 0 56.5 -7t45.5 -18l-50 -109q-9 6 -16 8t-16 2q-25 0 -38.5 -16.5
t-13.5 -51.5q0 -15 5 -30t11 -30l-88 -96q-21 29 -48.5 40.5t-57.5 11.5t-57.5 -12.5t-50.5 -35t-40 -54t-26.5 -69t-9.5 -79.5q0 -47 13 -80.5t41 -51.5t74 -18q14 0 29.5 4.5t26.5 11.5l24 108h-96l24 130h236l-62 -322q-37 -28 -92 -48t-118 -20z" />
    <glyph glyph-name="Hcircumflex" unicode="&#x124;" horiz-adv-x="664" 
d="M26 0l130 650h160l-50 -244h194l48 244h160l-130 -650h-160l54 266h-194l-52 -266h-160zM220 700l150 160h150l100 -160h-130l-54 58h-4l-82 -58h-130z" />
    <glyph glyph-name="uni1E26" unicode="&#x1e26;" horiz-adv-x="664" 
d="M26 0l130 650h160l-50 -244h194l48 244h160l-130 -650h-160l54 266h-194l-52 -266h-160zM306 696q-28 0 -47 17t-19 49t24 57t60 25q28 0 47 -17.5t19 -48.5q0 -34 -24 -58t-60 -24zM530 696q-28 0 -47 17t-19 49t24 57t60 25q28 0 47 -17.5t19 -48.5q0 -34 -24 -58
t-60 -24z" />
    <glyph glyph-name="uni1E22" unicode="&#x1e22;" horiz-adv-x="664" 
d="M26 0l130 650h160l-50 -244h194l48 244h160l-130 -650h-160l54 266h-194l-52 -266h-160zM426 698q-31 0 -57.5 18.5t-26.5 55.5q0 36 28 63t68 27q32 0 58 -19t26 -55q0 -39 -27.5 -64.5t-68.5 -25.5z" />
    <glyph glyph-name="uni021E" unicode="&#x21e;" horiz-adv-x="664" 
d="M26 0l130 650h160l-50 -244h194l48 244h160l-130 -650h-160l54 266h-194l-52 -266h-160zM340 700l-100 160h130l54 -58h4l82 58h130l-150 -160h-150z" />
    <glyph glyph-name="uni1E24" unicode="&#x1e24;" horiz-adv-x="664" 
d="M26 0l130 650h160l-50 -244h194l48 244h160l-130 -650h-160l54 266h-194l-52 -266h-160zM250 -246q-31 0 -57.5 18.5t-26.5 55.5q0 36 28 63t68 27q32 0 58 -19t26 -55q0 -39 -27.5 -64.5t-68.5 -25.5z" />
    <glyph glyph-name="uni1E28" unicode="&#x1e28;" horiz-adv-x="664" 
d="M26 0l130 650h160l-50 -244h194l48 244h160l-130 -650h-160l54 266h-194l-52 -266h-160zM-40 -244v66q57 3 80.5 12t27.5 30q2 14 -11.5 24t-58.5 16l68 100h98l-40 -64q38 -9 54.5 -26.5t11.5 -49.5q-10 -54 -69.5 -79.5t-160.5 -28.5z" />
    <glyph glyph-name="uni1E2A" unicode="&#x1e2a;" horiz-adv-x="664" 
d="M26 0l130 650h160l-50 -244h194l48 244h160l-130 -650h-160l54 266h-194l-52 -266h-160zM242 -248q-45 0 -78 16.5t-51.5 52t-18.5 91.5l100 16q0 -23 8 -38.5t23 -23.5t37 -8q24 0 41.5 9t29.5 25t19 36l92 -16q-9 -47 -33.5 -83t-66 -56.5t-102.5 -20.5z" />
    <glyph glyph-name="uni1E96.c" horiz-adv-x="664" 
d="M26 0l130 650h160l-50 -244h194l48 244h160l-130 -650h-160l54 266h-194l-52 -266h-160zM108 -170l20 100h294l-20 -100h-294z" />
    <glyph glyph-name="Hbar" unicode="&#x126;" horiz-adv-x="704" 
d="M66 474l20 96l76 6h582l-20 -102h-658zM46 0l130 650h160l-50 -244h194l48 244h160l-130 -650h-160l54 266h-194l-52 -266h-160z" />
    <glyph glyph-name="Igrave" unicode="&#xcc;" horiz-adv-x="312" 
d="M26 0l130 650h160l-130 -650h-160zM190 700l-150 142l10 18h180l90 -160h-130z" />
    <glyph glyph-name="Iacute" unicode="&#xcd;" horiz-adv-x="312" 
d="M26 0l130 650h160l-130 -650h-160zM140 700l140 160h190l10 -18l-210 -142h-130z" />
    <glyph glyph-name="Icircumflex" unicode="&#xce;" horiz-adv-x="312" 
d="M26 0l130 650h160l-130 -650h-160zM50 700l150 160h150l100 -160h-130l-54 58h-4l-82 -58h-130z" />
    <glyph glyph-name="Itilde" unicode="&#x128;" horiz-adv-x="312" 
d="M26 0l130 650h160l-130 -650h-160zM316 686q-26 0 -45.5 8t-33.5 18t-25 18t-22 8q-12 0 -22 -8t-18 -34l-108 8q20 83 63.5 117.5t98.5 34.5q26 0 45.5 -8t33.5 -18t25.5 -18t21.5 -8q12 0 22.5 8.5t17.5 33.5l108 -8q-19 -82 -63 -117t-99 -35z" />
    <glyph glyph-name="Idieresis" unicode="&#xcf;" horiz-adv-x="312" 
d="M26 0l130 650h160l-130 -650h-160zM136 696q-28 0 -47 17t-19 49t24 57t60 25q28 0 47 -17.5t19 -48.5q0 -34 -24 -58t-60 -24zM360 696q-28 0 -47 17t-19 49t24 57t60 25q28 0 47 -17.5t19 -48.5q0 -34 -24 -58t-60 -24z" />
    <glyph glyph-name="Imacron" unicode="&#x12a;" horiz-adv-x="312" 
d="M26 0l130 650h160l-130 -650h-160zM100 716l20 102h300l-20 -102h-300z" />
    <glyph glyph-name="Ibreve" unicode="&#x12c;" horiz-adv-x="312" 
d="M26 0l130 650h160l-130 -650h-160zM246 694q-54 0 -86 18.5t-46 50t-14 71.5l94 16q3 -31 21 -44.5t49 -13.5q30 0 53 14t35 44l88 -16q-13 -48 -39 -79t-65 -46t-90 -15z" />
    <glyph glyph-name="Idotaccent" unicode="&#x130;" horiz-adv-x="312" 
d="M26 0l130 650h160l-130 -650h-160zM256 698q-31 0 -57.5 18.5t-26.5 55.5q0 36 28 63t68 27q32 0 58 -19t26 -55q0 -39 -27.5 -64.5t-68.5 -25.5z" />
    <glyph glyph-name="uni01CF" unicode="&#x1cf;" horiz-adv-x="312" 
d="M26 0l130 650h160l-130 -650h-160zM170 700l-100 160h130l54 -58h4l82 58h130l-150 -160h-150z" />
    <glyph glyph-name="uni0208" unicode="&#x208;" horiz-adv-x="312" 
d="M26 0l130 650h160l-130 -650h-160zM80 700l-100 142l10 18h140l50 -160h-100zM280 700l-100 142l10 18h140l50 -160h-100z" />
    <glyph glyph-name="Iogonek" unicode="&#x12e;" horiz-adv-x="312" 
d="M64 -228q-46 0 -77 23t-31 63q0 27 16 53.5t40.5 49.5t51.5 39h-38l130 650h160l-130 -650q-46 -15 -66 -39.5t-20 -44.5q0 -15 10.5 -22.5t23.5 -7.5q16 0 28 6l30 -84q-24 -16 -58.5 -26t-69.5 -10z" />
    <glyph glyph-name="uni1EC8" unicode="&#x1ec8;" horiz-adv-x="312" 
d="M26 0l130 650h160l-130 -650h-160zM192 694l-4 66q46 6 46 30q0 11 -15 19.5t-53 8.5l26 90q63 0 100.5 -13t53.5 -33t16 -42q0 -54 -45 -87.5t-125 -38.5z" />
    <glyph glyph-name="uni1ECA" unicode="&#x1eca;" horiz-adv-x="312" 
d="M26 0l130 650h160l-130 -650h-160zM70 -246q-31 0 -57.5 18.5t-26.5 55.5q0 36 28 63t68 27q32 0 58 -19t26 -55q0 -39 -27.5 -64.5t-68.5 -25.5z" />
    <glyph glyph-name="uni0197" unicode="&#x197;" horiz-adv-x="354" 
d="M30 282l20 98l76 6h224l-20 -104h-300zM46 0l130 650h160l-130 -650h-160z" />
    <glyph glyph-name="IJ" unicode="&#x132;" horiz-adv-x="624" 
d="M298 -188q-27 0 -52 5.5t-52 18.5l48 114q11 -6 21.5 -9t20.5 -3q24 0 36.5 16.5t19.5 55.5l128 640h160l-130 -648q-10 -52 -33.5 -95t-64 -69t-102.5 -26zM26 0l130 650h160l-130 -650h-160z" />
    <glyph glyph-name="Jcircumflex" unicode="&#x134;" horiz-adv-x="504" 
d="M182 -12q-58 0 -108.5 26.5t-79.5 81.5l92 82q15 -22 39 -37t55 -15q36 0 58 27t34 87l82 410h160l-88 -438q-12 -60 -41 -111t-79 -82t-124 -31zM250 700l150 160h150l100 -160h-130l-54 58h-4l-82 -58h-130z" />
    <glyph glyph-name="uni004A030C" horiz-adv-x="504" 
d="M182 -12q-58 0 -108.5 26.5t-79.5 81.5l92 82q15 -22 39 -37t55 -15q36 0 58 27t34 87l82 410h160l-88 -438q-12 -60 -41 -111t-79 -82t-124 -31zM370 700l-100 160h130l54 -58h4l82 58h130l-150 -160h-150z" />
    <glyph glyph-name="uni0248" unicode="&#x248;" horiz-adv-x="524" 
d="M180 314l20 96l92 6h246l-20 -102h-338zM182 -12q-58 0 -108.5 26.5t-79.5 81.5l92 82q15 -22 39 -37t55 -15q36 0 58 27t34 87l82 410h160l-88 -438q-12 -60 -41 -111t-79 -82t-124 -31z" />
    <glyph glyph-name="uni0136" unicode="&#x136;" horiz-adv-x="612" 
d="M26 0l130 650h160l-49 -246h4l213 246h174l-234 -274l144 -376h-166l-96 276l-84 -96l-36 -180h-160zM156 -244v66q58 3 81.5 13.5t23.5 26.5q0 9 -11 18.5t-43 9.5l44 60q56 -2 85 -12t39.5 -26t10.5 -36q0 -41 -30 -66.5t-82 -38.5t-118 -15z" />
    <glyph glyph-name="uni1E32" unicode="&#x1e32;" horiz-adv-x="612" 
d="M26 0l130 650h160l-49 -246h4l213 246h174l-234 -274l144 -376h-166l-96 276l-84 -96l-36 -180h-160zM260 -246q-31 0 -57.5 18.5t-26.5 55.5q0 36 28 63t68 27q32 0 58 -19t26 -55q0 -39 -27.5 -64.5t-68.5 -25.5z" />
    <glyph glyph-name="uni1E34" unicode="&#x1e34;" horiz-adv-x="612" 
d="M26 0l130 650h160l-49 -246h4l213 246h174l-234 -274l144 -376h-166l-96 276l-84 -96l-36 -180h-160zM118 -170l20 100h294l-20 -100h-294z" />
    <glyph glyph-name="Lacute" unicode="&#x139;" horiz-adv-x="514" 
d="M26 0l130 650h160l-104 -516h236l-26 -134h-396zM150 700l140 160h190l10 -18l-210 -142h-130z" />
    <glyph glyph-name="Lcaron" unicode="&#x13d;" horiz-adv-x="514" 
d="M26 0l130 650h160l-104 -516h236l-26 -134h-396zM398 506l40 226h100l-16 -74l-56 -152h-68z" />
    <glyph glyph-name="uni013B" unicode="&#x13b;" horiz-adv-x="514" 
d="M26 0l130 650h160l-104 -516h236l-26 -134h-396zM76 -244v66q58 3 81.5 13.5t23.5 26.5q0 9 -11 18.5t-43 9.5l44 60q56 -2 85 -12t39.5 -26t10.5 -36q0 -41 -30 -66.5t-82 -38.5t-118 -15z" />
    <glyph glyph-name="uni1E36" unicode="&#x1e36;" horiz-adv-x="514" 
d="M26 0l130 650h160l-104 -516h236l-26 -134h-396zM180 -246q-31 0 -57.5 18.5t-26.5 55.5q0 36 28 63t68 27q32 0 58 -19t26 -55q0 -39 -27.5 -64.5t-68.5 -25.5z" />
    <glyph glyph-name="uni1E38" unicode="&#x1e38;" horiz-adv-x="514" 
d="M26 0l130 650h160l-104 -516h236l-26 -134h-396zM110 716l20 102h300l-20 -102h-300zM180 -246q-31 0 -57.5 18.5t-26.5 55.5q0 36 28 63t68 27q32 0 58 -19t26 -55q0 -39 -27.5 -64.5t-68.5 -25.5z" />
    <glyph glyph-name="uni1E3A" unicode="&#x1e3a;" horiz-adv-x="514" 
d="M26 0l130 650h160l-104 -516h236l-26 -134h-396zM38 -170l20 100h294l-20 -100h-294z" />
    <glyph glyph-name="Lslash" unicode="&#x141;" horiz-adv-x="544" 
d="M26 184l-38 102l154 64l118 52l180 74l38 -102l-244 -102l-118 -52zM56 0l130 650h160l-104 -516h236l-26 -134h-396z" />
    <glyph glyph-name="uni023D" unicode="&#x23d;" horiz-adv-x="534" 
d="M36 316l18 90l76 6h296l-18 -96h-372zM46 0l130 650h160l-104 -516h236l-26 -134h-396z" />
    <glyph glyph-name="uni2C60" unicode="&#x2c60;" horiz-adv-x="534" 
d="M24 260l16 74l74 6h296l-16 -80h-370zM50 388l16 74l74 6h296l-16 -80h-370zM46 0l130 650h160l-104 -516h236l-26 -134h-396z" />
    <glyph glyph-name="uni2C62" unicode="&#x2c62;" horiz-adv-x="544" 
d="M348 274q-34 0 -67 8.5t-64.5 19.5t-59 19.5t-49.5 8.5q-13 0 -22.5 -9t-17.5 -33l-84 22q10 41 27.5 67t41.5 38.5t53 12.5q34 0 67 -8.5t64.5 -19.5t59 -19.5t49.5 -8.5q14 0 23.5 9t16.5 33l84 -22q-10 -41 -27.5 -67t-41.5 -38.5t-53 -12.5zM56 0l130 650h160
l-104 -516h236l-26 -134h-396z" />
    <glyph glyph-name="uniA7AD" unicode="&#xa7ad;" horiz-adv-x="574" 
d="M139 278q-61 0 -95 35t-34 89q0 24 13 49t37.5 42t57.5 17q37 0 58.5 -16t31.5 -40t10 -48l-54 -18q0 14 -7 29t-28 15q-16 0 -24.5 -8t-8.5 -20t10.5 -21t32.5 -9h331l-16 -96h-315zM86 0l130 650h160l-104 -516h236l-26 -134h-396z" />
    <glyph glyph-name="Ldot" unicode="&#x13f;" horiz-adv-x="514" 
d="M26 0l130 650h160l-104 -516h236l-26 -134h-396zM414 228q-36 0 -58 23.5t-22 60.5q0 27 14 53t38.5 42.5t57.5 16.5q36 0 58 -24t22 -60q0 -28 -13.5 -53.5t-38.5 -42t-58 -16.5z" />
    <glyph glyph-name="uni1E3E" unicode="&#x1e3e;" horiz-adv-x="754" 
d="M26 0l130 650h166l42 -280q5 -28 8 -54t7 -56h4q14 30 27 56t28 54l152 280h168l-130 -650h-150l46 216q7 34 18 75.5t23.5 83t24.5 75.5h-4l-82 -158l-136 -236h-60l-42 236l-20 158h-4q-1 -34 -4 -75.5t-8 -83t-12 -75.5l-44 -216h-148zM350 700l140 160h190l10 -18
l-210 -142h-130z" />
    <glyph glyph-name="uni1E40" unicode="&#x1e40;" horiz-adv-x="754" 
d="M26 0l130 650h166l42 -280q5 -28 8 -54t7 -56h4q14 30 27 56t28 54l152 280h168l-130 -650h-150l46 216q7 34 18 75.5t23.5 83t24.5 75.5h-4l-82 -158l-136 -236h-60l-42 236l-20 158h-4q-1 -34 -4 -75.5t-8 -83t-12 -75.5l-44 -216h-148zM466 698q-31 0 -57.5 18.5
t-26.5 55.5q0 36 28 63t68 27q32 0 58 -19t26 -55q0 -39 -27.5 -64.5t-68.5 -25.5z" />
    <glyph glyph-name="uni1E42" unicode="&#x1e42;" horiz-adv-x="754" 
d="M26 0l130 650h166l42 -280q5 -28 8 -54t7 -56h4q14 30 27 56t28 54l152 280h168l-130 -650h-150l46 216q7 34 18 75.5t23.5 83t24.5 75.5h-4l-82 -158l-136 -236h-60l-42 236l-20 158h-4q-1 -34 -4 -75.5t-8 -83t-12 -75.5l-44 -216h-148zM280 -246q-31 0 -57.5 18.5
t-26.5 55.5q0 36 28 63t68 27q32 0 58 -19t26 -55q0 -39 -27.5 -64.5t-68.5 -25.5z" />
    <glyph glyph-name="uni01F8" unicode="&#x1f8;" horiz-adv-x="652" 
d="M26 0l130 650h158l86 -312q6 -22 11 -44.5t9.5 -46.5t9.5 -51h4q3 56 9.5 121t18.5 123l42 210h152l-130 -650h-158l-86 312q-9 33 -15.5 67.5t-14.5 74.5h-4q-3 -55 -9.5 -120t-18.5 -124l-42 -210h-152zM360 700l-150 142l10 18h180l90 -160h-130z" />
    <glyph glyph-name="Nacute" unicode="&#x143;" horiz-adv-x="652" 
d="M26 0l130 650h158l86 -312q6 -22 11 -44.5t9.5 -46.5t9.5 -51h4q3 56 9.5 121t18.5 123l42 210h152l-130 -650h-158l-86 312q-9 33 -15.5 67.5t-14.5 74.5h-4q-3 -55 -9.5 -120t-18.5 -124l-42 -210h-152zM310 700l140 160h190l10 -18l-210 -142h-130z" />
    <glyph glyph-name="Ncaron" unicode="&#x147;" horiz-adv-x="652" 
d="M26 0l130 650h158l86 -312q6 -22 11 -44.5t9.5 -46.5t9.5 -51h4q3 56 9.5 121t18.5 123l42 210h152l-130 -650h-158l-86 312q-9 33 -15.5 67.5t-14.5 74.5h-4q-3 -55 -9.5 -120t-18.5 -124l-42 -210h-152zM340 700l-100 160h130l54 -58h4l82 58h130l-150 -160h-150z" />
    <glyph glyph-name="Ntilde" unicode="&#xd1;" horiz-adv-x="652" 
d="M26 0l130 650h158l86 -312q6 -22 11 -44.5t9.5 -46.5t9.5 -51h4q3 56 9.5 121t18.5 123l42 210h152l-130 -650h-158l-86 312q-9 33 -15.5 67.5t-14.5 74.5h-4q-3 -55 -9.5 -120t-18.5 -124l-42 -210h-152zM486 686q-26 0 -45.5 8t-33.5 18t-25 18t-22 8q-12 0 -22 -8
t-18 -34l-108 8q20 83 63.5 117.5t98.5 34.5q26 0 45.5 -8t33.5 -18t25.5 -18t21.5 -8q12 0 22.5 8.5t17.5 33.5l108 -8q-19 -82 -63 -117t-99 -35z" />
    <glyph glyph-name="uni1E44" unicode="&#x1e44;" horiz-adv-x="652" 
d="M26 0l130 650h158l86 -312q6 -22 11 -44.5t9.5 -46.5t9.5 -51h4q3 56 9.5 121t18.5 123l42 210h152l-130 -650h-158l-86 312q-9 33 -15.5 67.5t-14.5 74.5h-4q-3 -55 -9.5 -120t-18.5 -124l-42 -210h-152zM426 698q-31 0 -57.5 18.5t-26.5 55.5q0 36 28 63t68 27
q32 0 58 -19t26 -55q0 -39 -27.5 -64.5t-68.5 -25.5z" />
    <glyph glyph-name="uni0145" unicode="&#x145;" horiz-adv-x="652" 
d="M26 0l130 650h158l86 -312q6 -22 11 -44.5t9.5 -46.5t9.5 -51h4q3 56 9.5 121t18.5 123l42 210h152l-130 -650h-158l-86 312q-9 33 -15.5 67.5t-14.5 74.5h-4q-3 -55 -9.5 -120t-18.5 -124l-42 -210h-152zM136 -244v66q58 3 81.5 13.5t23.5 26.5q0 9 -11 18.5t-43 9.5
l44 60q56 -2 85 -12t39.5 -26t10.5 -36q0 -41 -30 -66.5t-82 -38.5t-118 -15z" />
    <glyph glyph-name="uni1E46" unicode="&#x1e46;" horiz-adv-x="652" 
d="M26 0l130 650h158l86 -312q6 -22 11 -44.5t9.5 -46.5t9.5 -51h4q3 56 9.5 121t18.5 123l42 210h152l-130 -650h-158l-86 312q-9 33 -15.5 67.5t-14.5 74.5h-4q-3 -55 -9.5 -120t-18.5 -124l-42 -210h-152zM240 -246q-31 0 -57.5 18.5t-26.5 55.5q0 36 28 63t68 27
q32 0 58 -19t26 -55q0 -39 -27.5 -64.5t-68.5 -25.5z" />
    <glyph glyph-name="uni1E48" unicode="&#x1e48;" horiz-adv-x="652" 
d="M26 0l130 650h158l86 -312q6 -22 11 -44.5t9.5 -46.5t9.5 -51h4q3 56 9.5 121t18.5 123l42 210h152l-130 -650h-158l-86 312q-9 33 -15.5 67.5t-14.5 74.5h-4q-3 -55 -9.5 -120t-18.5 -124l-42 -210h-152zM98 -170l20 100h294l-20 -100h-294z" />
    <glyph glyph-name="Eng" unicode="&#x14a;" horiz-adv-x="660" 
d="M370 -12q-26 0 -53.5 6t-42.5 16l46 122q6 -3 13.5 -4.5t16.5 -1.5q23 0 45 23.5t40.5 64t29.5 90.5t11 102q0 42 -8.5 68t-25 38t-39.5 12q-28 0 -60.5 -19.5t-70.5 -66.5l-86 -438h-160l130 650h152l-16 -72q31 31 58 49.5t53 26.5t55 8q54 0 95 -24.5t64 -78.5
t23 -143q0 -86 -19.5 -163.5t-55 -137t-85 -93.5t-110.5 -34z" />
    <glyph glyph-name="uni0220" unicode="&#x220;" horiz-adv-x="676" 
d="M356 -176l104 516q5 24 9.5 48.5t4.5 49.5q0 44 -18 65t-50 21q-30 0 -64.5 -21t-67.5 -65l-88 -438h-160l130 650h150l-10 -66q45 41 91.5 59.5t93.5 18.5q74 0 115.5 -43.5t41.5 -134.5q0 -28 -2 -58t-10 -66l-110 -536h-160z" />
    <glyph glyph-name="Ograve" unicode="&#xd2;" horiz-adv-x="670" 
d="M308 -12q-75 0 -131.5 32.5t-88.5 94t-32 149.5q0 73 18 134.5t50.5 110t75 83t91.5 52.5t101 18q75 0 132 -32.5t88.5 -94t31.5 -149.5q0 -73 -18 -134.5t-50.5 -110t-75 -83t-91.5 -52.5t-101 -18zM316 126q22 0 45 11.5t44.5 33t38 52.5t26.5 69.5t10 83.5
q0 47 -11.5 80t-33 50.5t-51.5 17.5q-22 0 -45 -11.5t-44.5 -33t-38 -52.5t-26.5 -69.5t-10 -83.5q0 -47 11.5 -80t33 -50.5t51.5 -17.5zM360 700l-150 142l10 18h180l90 -160h-130z" />
    <glyph glyph-name="Oacute" unicode="&#xd3;" horiz-adv-x="670" 
d="M308 -12q-75 0 -131.5 32.5t-88.5 94t-32 149.5q0 73 18 134.5t50.5 110t75 83t91.5 52.5t101 18q75 0 132 -32.5t88.5 -94t31.5 -149.5q0 -73 -18 -134.5t-50.5 -110t-75 -83t-91.5 -52.5t-101 -18zM316 126q22 0 45 11.5t44.5 33t38 52.5t26.5 69.5t10 83.5
q0 47 -11.5 80t-33 50.5t-51.5 17.5q-22 0 -45 -11.5t-44.5 -33t-38 -52.5t-26.5 -69.5t-10 -83.5q0 -47 11.5 -80t33 -50.5t51.5 -17.5zM310 700l140 160h190l10 -18l-210 -142h-130z" />
    <glyph glyph-name="Ocircumflex" unicode="&#xd4;" horiz-adv-x="670" 
d="M308 -12q-75 0 -131.5 32.5t-88.5 94t-32 149.5q0 73 18 134.5t50.5 110t75 83t91.5 52.5t101 18q75 0 132 -32.5t88.5 -94t31.5 -149.5q0 -73 -18 -134.5t-50.5 -110t-75 -83t-91.5 -52.5t-101 -18zM316 126q22 0 45 11.5t44.5 33t38 52.5t26.5 69.5t10 83.5
q0 47 -11.5 80t-33 50.5t-51.5 17.5q-22 0 -45 -11.5t-44.5 -33t-38 -52.5t-26.5 -69.5t-10 -83.5q0 -47 11.5 -80t33 -50.5t51.5 -17.5zM220 700l150 160h150l100 -160h-130l-54 58h-4l-82 -58h-130z" />
    <glyph glyph-name="Otilde" unicode="&#xd5;" horiz-adv-x="670" 
d="M308 -12q-75 0 -131.5 32.5t-88.5 94t-32 149.5q0 73 18 134.5t50.5 110t75 83t91.5 52.5t101 18q75 0 132 -32.5t88.5 -94t31.5 -149.5q0 -73 -18 -134.5t-50.5 -110t-75 -83t-91.5 -52.5t-101 -18zM316 126q22 0 45 11.5t44.5 33t38 52.5t26.5 69.5t10 83.5
q0 47 -11.5 80t-33 50.5t-51.5 17.5q-22 0 -45 -11.5t-44.5 -33t-38 -52.5t-26.5 -69.5t-10 -83.5q0 -47 11.5 -80t33 -50.5t51.5 -17.5zM486 686q-26 0 -45.5 8t-33.5 18t-25 18t-22 8q-12 0 -22 -8t-18 -34l-108 8q20 83 63.5 117.5t98.5 34.5q26 0 45.5 -8t33.5 -18
t25.5 -18t21.5 -8q12 0 22.5 8.5t17.5 33.5l108 -8q-19 -82 -63 -117t-99 -35z" />
    <glyph glyph-name="Odieresis" unicode="&#xd6;" horiz-adv-x="670" 
d="M308 -12q-75 0 -131.5 32.5t-88.5 94t-32 149.5q0 73 18 134.5t50.5 110t75 83t91.5 52.5t101 18q75 0 132 -32.5t88.5 -94t31.5 -149.5q0 -73 -18 -134.5t-50.5 -110t-75 -83t-91.5 -52.5t-101 -18zM316 126q22 0 45 11.5t44.5 33t38 52.5t26.5 69.5t10 83.5
q0 47 -11.5 80t-33 50.5t-51.5 17.5q-22 0 -45 -11.5t-44.5 -33t-38 -52.5t-26.5 -69.5t-10 -83.5q0 -47 11.5 -80t33 -50.5t51.5 -17.5zM306 696q-28 0 -47 17t-19 49t24 57t60 25q28 0 47 -17.5t19 -48.5q0 -34 -24 -58t-60 -24zM530 696q-28 0 -47 17t-19 49t24 57t60 25
q28 0 47 -17.5t19 -48.5q0 -34 -24 -58t-60 -24z" />
    <glyph glyph-name="Omacron" unicode="&#x14c;" horiz-adv-x="670" 
d="M308 -12q-75 0 -131.5 32.5t-88.5 94t-32 149.5q0 73 18 134.5t50.5 110t75 83t91.5 52.5t101 18q75 0 132 -32.5t88.5 -94t31.5 -149.5q0 -73 -18 -134.5t-50.5 -110t-75 -83t-91.5 -52.5t-101 -18zM316 126q22 0 45 11.5t44.5 33t38 52.5t26.5 69.5t10 83.5
q0 47 -11.5 80t-33 50.5t-51.5 17.5q-22 0 -45 -11.5t-44.5 -33t-38 -52.5t-26.5 -69.5t-10 -83.5q0 -47 11.5 -80t33 -50.5t51.5 -17.5zM270 716l20 102h300l-20 -102h-300z" />
    <glyph glyph-name="Obreve" unicode="&#x14e;" horiz-adv-x="670" 
d="M308 -12q-75 0 -131.5 32.5t-88.5 94t-32 149.5q0 73 18 134.5t50.5 110t75 83t91.5 52.5t101 18q75 0 132 -32.5t88.5 -94t31.5 -149.5q0 -73 -18 -134.5t-50.5 -110t-75 -83t-91.5 -52.5t-101 -18zM316 126q22 0 45 11.5t44.5 33t38 52.5t26.5 69.5t10 83.5
q0 47 -11.5 80t-33 50.5t-51.5 17.5q-22 0 -45 -11.5t-44.5 -33t-38 -52.5t-26.5 -69.5t-10 -83.5q0 -47 11.5 -80t33 -50.5t51.5 -17.5zM416 694q-54 0 -86 18.5t-46 50t-14 71.5l94 16q3 -31 21 -44.5t49 -13.5q30 0 53 14t35 44l88 -16q-13 -48 -39 -79t-65 -46t-90 -15z
" />
    <glyph glyph-name="Ohungarumlaut" unicode="&#x150;" horiz-adv-x="670" 
d="M308 -12q-75 0 -131.5 32.5t-88.5 94t-32 149.5q0 73 18 134.5t50.5 110t75 83t91.5 52.5t101 18q75 0 132 -32.5t88.5 -94t31.5 -149.5q0 -73 -18 -134.5t-50.5 -110t-75 -83t-91.5 -52.5t-101 -18zM316 126q22 0 45 11.5t44.5 33t38 52.5t26.5 69.5t10 83.5
q0 47 -11.5 80t-33 50.5t-51.5 17.5q-22 0 -45 -11.5t-44.5 -33t-38 -52.5t-26.5 -69.5t-10 -83.5q0 -47 11.5 -80t33 -50.5t51.5 -17.5zM260 700l110 160h140l10 -18l-160 -142h-100zM460 700l110 160h140l10 -18l-160 -142h-100z" />
    <glyph glyph-name="uni01D1" unicode="&#x1d1;" horiz-adv-x="670" 
d="M308 -12q-75 0 -131.5 32.5t-88.5 94t-32 149.5q0 73 18 134.5t50.5 110t75 83t91.5 52.5t101 18q75 0 132 -32.5t88.5 -94t31.5 -149.5q0 -73 -18 -134.5t-50.5 -110t-75 -83t-91.5 -52.5t-101 -18zM316 126q22 0 45 11.5t44.5 33t38 52.5t26.5 69.5t10 83.5
q0 47 -11.5 80t-33 50.5t-51.5 17.5q-22 0 -45 -11.5t-44.5 -33t-38 -52.5t-26.5 -69.5t-10 -83.5q0 -47 11.5 -80t33 -50.5t51.5 -17.5zM340 700l-100 160h130l54 -58h4l82 58h130l-150 -160h-150z" />
    <glyph glyph-name="uni020C" unicode="&#x20c;" horiz-adv-x="670" 
d="M308 -12q-75 0 -131.5 32.5t-88.5 94t-32 149.5q0 73 18 134.5t50.5 110t75 83t91.5 52.5t101 18q75 0 132 -32.5t88.5 -94t31.5 -149.5q0 -73 -18 -134.5t-50.5 -110t-75 -83t-91.5 -52.5t-101 -18zM316 126q22 0 45 11.5t44.5 33t38 52.5t26.5 69.5t10 83.5
q0 47 -11.5 80t-33 50.5t-51.5 17.5q-22 0 -45 -11.5t-44.5 -33t-38 -52.5t-26.5 -69.5t-10 -83.5q0 -47 11.5 -80t33 -50.5t51.5 -17.5zM250 700l-100 142l10 18h140l50 -160h-100zM450 700l-100 142l10 18h140l50 -160h-100z" />
    <glyph glyph-name="uni01EA" unicode="&#x1ea;" horiz-adv-x="670" 
d="M246 -228q-46 0 -77 22.5t-31 63.5q0 33 19.5 62t44 50.5t40.5 31.5l66 -14q-75 0 -131.5 32.5t-88.5 94t-32 149.5q0 73 18 134.5t50.5 110t75 83t91.5 52.5t101 18q75 0 132 -32.5t88.5 -94t31.5 -149.5q0 -72 -19.5 -137t-56.5 -117.5t-89 -88t-117 -49.5
q-30 -6 -47.5 -20t-25 -29.5t-7.5 -28.5q0 -15 10.5 -22.5t23.5 -7.5q16 0 28 6l30 -84q-24 -16 -58.5 -26t-69.5 -10zM316 126q22 0 45 11.5t44.5 33t38 52.5t26.5 69.5t10 83.5q0 47 -11.5 80t-33 50.5t-51.5 17.5q-22 0 -45 -11.5t-44.5 -33t-38 -52.5t-26.5 -69.5
t-10 -83.5q0 -47 11.5 -80t33 -50.5t51.5 -17.5z" />
    <glyph glyph-name="uni1ECC" unicode="&#x1ecc;" horiz-adv-x="670" 
d="M308 -12q-75 0 -131.5 32.5t-88.5 94t-32 149.5q0 73 18 134.5t50.5 110t75 83t91.5 52.5t101 18q75 0 132 -32.5t88.5 -94t31.5 -149.5q0 -73 -18 -134.5t-50.5 -110t-75 -83t-91.5 -52.5t-101 -18zM316 126q22 0 45 11.5t44.5 33t38 52.5t26.5 69.5t10 83.5
q0 47 -11.5 80t-33 50.5t-51.5 17.5q-22 0 -45 -11.5t-44.5 -33t-38 -52.5t-26.5 -69.5t-10 -83.5q0 -47 11.5 -80t33 -50.5t51.5 -17.5zM250 -246q-31 0 -57.5 18.5t-26.5 55.5q0 36 28 63t68 27q32 0 58 -19t26 -55q0 -39 -27.5 -64.5t-68.5 -25.5z" />
    <glyph glyph-name="uni1ECE" unicode="&#x1ece;" horiz-adv-x="670" 
d="M308 -12q-75 0 -131.5 32.5t-88.5 94t-32 149.5q0 73 18 134.5t50.5 110t75 83t91.5 52.5t101 18q75 0 132 -32.5t88.5 -94t31.5 -149.5q0 -73 -18 -134.5t-50.5 -110t-75 -83t-91.5 -52.5t-101 -18zM316 126q22 0 45 11.5t44.5 33t38 52.5t26.5 69.5t10 83.5
q0 47 -11.5 80t-33 50.5t-51.5 17.5q-22 0 -45 -11.5t-44.5 -33t-38 -52.5t-26.5 -69.5t-10 -83.5q0 -47 11.5 -80t33 -50.5t51.5 -17.5zM362 694l-4 66q46 6 46 30q0 11 -15 19.5t-53 8.5l26 90q63 0 100.5 -13t53.5 -33t16 -42q0 -54 -45 -87.5t-125 -38.5z" />
    <glyph glyph-name="uni1ED0" unicode="&#x1ed0;" horiz-adv-x="670" 
d="M308 -12q-75 0 -131.5 32.5t-88.5 94t-32 149.5q0 73 18 134.5t50.5 110t75 83t91.5 52.5t101 18q75 0 132 -32.5t88.5 -94t31.5 -149.5q0 -73 -18 -134.5t-50.5 -110t-75 -83t-91.5 -52.5t-101 -18zM316 126q22 0 45 11.5t44.5 33t38 52.5t26.5 69.5t10 83.5
q0 47 -11.5 80t-33 50.5t-51.5 17.5q-22 0 -45 -11.5t-44.5 -33t-38 -52.5t-26.5 -69.5t-10 -83.5q0 -47 11.5 -80t33 -50.5t51.5 -17.5zM240 700l133 140h135l92 -140h-117l-47 60h-4l-75 -60h-117zM550 790l80 130h120l10 -18l-130 -112h-80z" />
    <glyph glyph-name="uni1ED2" unicode="&#x1ed2;" horiz-adv-x="670" 
d="M308 -12q-75 0 -131.5 32.5t-88.5 94t-32 149.5q0 73 18 134.5t50.5 110t75 83t91.5 52.5t101 18q75 0 132 -32.5t88.5 -94t31.5 -149.5q0 -73 -18 -134.5t-50.5 -110t-75 -83t-91.5 -52.5t-101 -18zM316 126q22 0 45 11.5t44.5 33t38 52.5t26.5 69.5t10 83.5
q0 47 -11.5 80t-33 50.5t-51.5 17.5q-22 0 -45 -11.5t-44.5 -33t-38 -52.5t-26.5 -69.5t-10 -83.5q0 -47 11.5 -80t33 -50.5t51.5 -17.5zM240 700l133 140h135l92 -140h-117l-47 60h-4l-75 -60h-117zM220 790l-80 112l10 18h120l30 -130h-80z" />
    <glyph glyph-name="uni1ED4" unicode="&#x1ed4;" horiz-adv-x="670" 
d="M308 -12q-75 0 -131.5 32.5t-88.5 94t-32 149.5q0 73 18 134.5t50.5 110t75 83t91.5 52.5t101 18q75 0 132 -32.5t88.5 -94t31.5 -149.5q0 -73 -18 -134.5t-50.5 -110t-75 -83t-91.5 -52.5t-101 -18zM316 126q22 0 45 11.5t44.5 33t38 52.5t26.5 69.5t10 83.5
q0 47 -11.5 80t-33 50.5t-51.5 17.5q-22 0 -45 -11.5t-44.5 -33t-38 -52.5t-26.5 -69.5t-10 -83.5q0 -47 11.5 -80t33 -50.5t51.5 -17.5zM240 700l133 140h135l92 -140h-117l-47 60h-3l-76 -60h-117zM582 768l-2 52q30 3 30 26q0 11 -11.5 17t-44.5 9l18 68
q77 0 111.5 -16.5t34.5 -49.5q0 -45 -38 -72.5t-98 -33.5z" />
    <glyph glyph-name="uni1ED6" unicode="&#x1ed6;" horiz-adv-x="670" 
d="M308 -12q-75 0 -131.5 32.5t-88.5 94t-32 149.5q0 73 18 134.5t50.5 110t75 83t91.5 52.5t101 18q75 0 132 -32.5t88.5 -94t31.5 -149.5q0 -73 -18 -134.5t-50.5 -110t-75 -83t-91.5 -52.5t-101 -18zM316 126q22 0 45 11.5t44.5 33t38 52.5t26.5 69.5t10 83.5
q0 47 -11.5 80t-33 50.5t-51.5 17.5q-22 0 -45 -11.5t-44.5 -33t-38 -52.5t-26.5 -69.5t-10 -83.5q0 -47 11.5 -80t33 -50.5t51.5 -17.5zM357 700h-117l131 130h135l94 -130h-117l-49 50h-4zM508 848q-30 0 -49.5 10.5t-32.5 21t-24 10.5q-12 0 -21 -8t-15 -28l-80 10
q10 43 27 68.5t38.5 37.5t44.5 12q30 0 49.5 -10.5t32.5 -21t24 -10.5q12 0 21 8.5t15 27.5l78 -10q-9 -42 -25.5 -68t-38 -38t-44.5 -12z" />
    <glyph glyph-name="uni1ED8" unicode="&#x1ed8;" horiz-adv-x="670" 
d="M308 -12q-75 0 -131.5 32.5t-88.5 94t-32 149.5q0 73 18 134.5t50.5 110t75 83t91.5 52.5t101 18q75 0 132 -32.5t88.5 -94t31.5 -149.5q0 -73 -18 -134.5t-50.5 -110t-75 -83t-91.5 -52.5t-101 -18zM316 126q22 0 45 11.5t44.5 33t38 52.5t26.5 69.5t10 83.5
q0 47 -11.5 80t-33 50.5t-51.5 17.5q-22 0 -45 -11.5t-44.5 -33t-38 -52.5t-26.5 -69.5t-10 -83.5q0 -47 11.5 -80t33 -50.5t51.5 -17.5zM220 700l150 160h150l100 -160h-130l-54 58h-4l-82 -58h-130zM250 -246q-31 0 -57.5 18.5t-26.5 55.5q0 36 28 63t68 27q32 0 58 -19
t26 -55q0 -39 -27.5 -64.5t-68.5 -25.5z" />
    <glyph glyph-name="uni1E52" unicode="&#x1e52;" horiz-adv-x="670" 
d="M308 -12q-75 0 -131.5 32.5t-88.5 94t-32 149.5q0 73 18 134.5t50.5 110t75 83t91.5 52.5t101 18q75 0 132 -32.5t88.5 -94t31.5 -149.5q0 -73 -18 -134.5t-50.5 -110t-75 -83t-91.5 -52.5t-101 -18zM316 126q22 0 45 11.5t44.5 33t38 52.5t26.5 69.5t10 83.5
q0 47 -11.5 80t-33 50.5t-51.5 17.5q-22 0 -45 -11.5t-44.5 -33t-38 -52.5t-26.5 -69.5t-10 -83.5q0 -47 11.5 -80t33 -50.5t51.5 -17.5zM268 720l20 102h300l-20 -102h-300zM380 860l100 140h140l10 -18l-150 -122h-100z" />
    <glyph glyph-name="Oslash" unicode="&#xd8;" horiz-adv-x="670" 
d="M58 -44l-70 64l668 682l70 -64zM308 -12q-75 0 -131.5 32.5t-88.5 94t-32 149.5q0 73 18 134.5t50.5 110t75 83t91.5 52.5t101 18q75 0 132 -32.5t88.5 -94t31.5 -149.5q0 -73 -18 -134.5t-50.5 -110t-75 -83t-91.5 -52.5t-101 -18zM316 126q22 0 45 11.5t44.5 33
t38 52.5t26.5 69.5t10 83.5q0 47 -11.5 80t-33 50.5t-51.5 17.5q-22 0 -45 -11.5t-44.5 -33t-38 -52.5t-26.5 -69.5t-10 -83.5q0 -47 11.5 -80t33 -50.5t51.5 -17.5z" />
    <glyph glyph-name="Oslashacute" unicode="&#x1fe;" horiz-adv-x="670" 
d="M58 -44l-70 64l668 682l70 -64zM308 -12q-75 0 -131.5 32.5t-88.5 94t-32 149.5q0 73 18 134.5t50.5 110t75 83t91.5 52.5t101 18q75 0 132 -32.5t88.5 -94t31.5 -149.5q0 -73 -18 -134.5t-50.5 -110t-75 -83t-91.5 -52.5t-101 -18zM316 126q22 0 45 11.5t44.5 33
t38 52.5t26.5 69.5t10 83.5q0 47 -11.5 80t-33 50.5t-51.5 17.5q-22 0 -45 -11.5t-44.5 -33t-38 -52.5t-26.5 -69.5t-10 -83.5q0 -47 11.5 -80t33 -50.5t51.5 -17.5zM310 700l140 160h190l10 -18l-210 -142h-130z" />
    <glyph glyph-name="OE" unicode="&#x152;" horiz-adv-x="840" 
d="M348 0q-91 0 -156.5 27.5t-100.5 84t-35 144.5q0 99 27.5 173t76 123t114.5 73.5t142 24.5h440l-26 -134h-228l-22 -114h192l-26 -134h-192l-28 -134h236l-26 -134h-388zM352 128h14l78 394h-24q-40 0 -76.5 -13.5t-64 -44t-43.5 -79t-16 -119.5q0 -51 17 -81t47 -43.5
t68 -13.5z" />
    <glyph glyph-name="uni0245" unicode="&#x245;" horiz-adv-x="550" 
d="M-66 0l334 650h194l54 -650h-168l-12 304q-1 51 -2.5 102.5t-1.5 103.5h-4q-22 -52 -43 -103t-43 -103l-132 -304h-176z" />
    <glyph glyph-name="uni0186" unicode="&#x186;" horiz-adv-x="561" 
d="M208 -12q-55 0 -109.5 21.5t-86.5 64.5l76 100q24 -22 56 -36t72 -14q36 0 66.5 19t53.5 53.5t35.5 82t12.5 103.5q0 68 -25.5 106t-78.5 38q-31 0 -61 -9.5t-65 -32.5l-50 110q35 32 89 50t109 18q69 0 125 -32t88.5 -93.5t32.5 -150.5q0 -91 -25.5 -164t-71.5 -125.5
t-108 -80.5t-135 -28z" />
    <glyph glyph-name="uniA74E" unicode="&#xa74e;" horiz-adv-x="1010" 
d="M250 -12q-85 0 -139.5 60.5t-54.5 169.5q0 105 30 187.5t79 139.5t107.5 87t115.5 30q39 0 76.5 -14t66 -51t41.5 -105h-34q41 68 82.5 105t83.5 51t86 14q86 0 140 -60t54 -170q0 -105 -30 -187.5t-79 -139.5t-107.5 -87t-115.5 -30q-39 0 -76.5 14t-66 51t-41.5 105h34
q-41 -68 -82 -105t-83.5 -51t-86.5 -14zM298 126q26 0 54 21.5t52 59.5t39 89.5t15 111.5q0 57 -21 86.5t-57 29.5q-26 0 -54 -21.5t-52 -59.5t-39 -89.5t-15 -111.5q0 -57 21 -86.5t57 -29.5zM660 126q26 0 54 21.5t52 59.5t39 89.5t15 111.5q0 57 -21 86.5t-57 29.5
q-26 0 -54 -21.5t-52 -59.5t-39 -89.5t-15 -111.5q0 -57 21 -86.5t57 -29.5z" />
    <glyph glyph-name="uni0222" unicode="&#x222;" horiz-adv-x="660" 
d="M308 -12q-77 0 -135.5 24t-91.5 70t-33 112q0 40 16 74t44 61t65 45.5t79 27.5l-6 -34q-64 23 -87 64.5t-23 93.5q0 20 1.5 47t8.5 49l8 28h160l-12 -56q-4 -16 -5 -31.5t-1 -32.5q0 -43 18.5 -66.5t67.5 -23.5q29 0 49 12t35 42t26 82l16 74h156l-18 -74
q-15 -61 -36 -102.5t-51.5 -67t-72.5 -38.5l6 34q63 -24 95.5 -67t32.5 -97q0 -70 -35 -126.5t-104 -90t-173 -33.5zM326 126q39 0 68 15t45.5 39t16.5 52q0 27 -13.5 48t-39 32.5t-61.5 11.5q-40 0 -69 -15.5t-45 -40t-16 -52.5q0 -25 13.5 -45.5t39 -32.5t61.5 -12z" />
    <glyph glyph-name="Ohorn" unicode="&#x1a0;" horiz-adv-x="670" 
d="M579 579l-68 54q42 5 60.5 31.5t18.5 57.5q0 12 -3.5 24.5t-8.5 25.5l118 36q18 -40 18 -78q0 -37 -15 -68.5t-45 -52.5t-75 -30zM308 -12q-75 0 -131.5 32.5t-88.5 94t-32 149.5q0 73 18 134.5t50.5 110t75 83t91.5 52.5t101 18q75 0 132 -32.5t88.5 -94t31.5 -149.5
q0 -73 -18 -134.5t-50.5 -110t-75 -83t-91.5 -52.5t-101 -18zM316 126q22 0 45 11.5t44.5 33t38 52.5t26.5 69.5t10 83.5q0 47 -11.5 80t-33 50.5t-51.5 17.5q-22 0 -45 -11.5t-44.5 -33t-38 -52.5t-26.5 -69.5t-10 -83.5q0 -47 11.5 -80t33 -50.5t51.5 -17.5z" />
    <glyph glyph-name="uni1EDA" unicode="&#x1eda;" horiz-adv-x="670" 
d="M579 579l-68 54q42 5 60.5 31.5t18.5 57.5q0 12 -3.5 24.5t-8.5 25.5l118 36q18 -40 18 -78q0 -37 -15 -68.5t-45 -52.5t-75 -30zM308 -12q-75 0 -131.5 32.5t-88.5 94t-32 149.5q0 73 18 134.5t50.5 110t75 83t91.5 52.5t101 18q75 0 132 -32.5t88.5 -94t31.5 -149.5
q0 -73 -18 -134.5t-50.5 -110t-75 -83t-91.5 -52.5t-101 -18zM316 126q22 0 45 11.5t44.5 33t38 52.5t26.5 69.5t10 83.5q0 47 -11.5 80t-33 50.5t-51.5 17.5q-22 0 -45 -11.5t-44.5 -33t-38 -52.5t-26.5 -69.5t-10 -83.5q0 -47 11.5 -80t33 -50.5t51.5 -17.5zM310 700
l140 160h190l10 -18l-210 -142h-130z" />
    <glyph glyph-name="uni1EDC" unicode="&#x1edc;" horiz-adv-x="670" 
d="M579 579l-68 54q42 5 60.5 31.5t18.5 57.5q0 12 -3.5 24.5t-8.5 25.5l118 36q18 -40 18 -78q0 -37 -15 -68.5t-45 -52.5t-75 -30zM308 -12q-75 0 -131.5 32.5t-88.5 94t-32 149.5q0 73 18 134.5t50.5 110t75 83t91.5 52.5t101 18q75 0 132 -32.5t88.5 -94t31.5 -149.5
q0 -73 -18 -134.5t-50.5 -110t-75 -83t-91.5 -52.5t-101 -18zM316 126q22 0 45 11.5t44.5 33t38 52.5t26.5 69.5t10 83.5q0 47 -11.5 80t-33 50.5t-51.5 17.5q-22 0 -45 -11.5t-44.5 -33t-38 -52.5t-26.5 -69.5t-10 -83.5q0 -47 11.5 -80t33 -50.5t51.5 -17.5zM360 700
l-150 142l10 18h180l90 -160h-130z" />
    <glyph glyph-name="uni1EDE" unicode="&#x1ede;" horiz-adv-x="670" 
d="M579 579l-68 54q42 5 60.5 31.5t18.5 57.5q0 12 -3.5 24.5t-8.5 25.5l118 36q18 -40 18 -78q0 -37 -15 -68.5t-45 -52.5t-75 -30zM308 -12q-75 0 -131.5 32.5t-88.5 94t-32 149.5q0 73 18 134.5t50.5 110t75 83t91.5 52.5t101 18q75 0 132 -32.5t88.5 -94t31.5 -149.5
q0 -73 -18 -134.5t-50.5 -110t-75 -83t-91.5 -52.5t-101 -18zM316 126q22 0 45 11.5t44.5 33t38 52.5t26.5 69.5t10 83.5q0 47 -11.5 80t-33 50.5t-51.5 17.5q-22 0 -45 -11.5t-44.5 -33t-38 -52.5t-26.5 -69.5t-10 -83.5q0 -47 11.5 -80t33 -50.5t51.5 -17.5zM362 694
l-4 66q46 6 46 30q0 11 -15 19.5t-53 8.5l26 90q63 0 100.5 -13t53.5 -33t16 -42q0 -54 -45 -87.5t-125 -38.5z" />
    <glyph glyph-name="uni1EE0" unicode="&#x1ee0;" horiz-adv-x="670" 
d="M579 579l-68 54q42 5 60.5 31.5t18.5 57.5q0 12 -3.5 24.5t-8.5 25.5l118 36q18 -40 18 -78q0 -37 -15 -68.5t-45 -52.5t-75 -30zM308 -12q-75 0 -131.5 32.5t-88.5 94t-32 149.5q0 73 18 134.5t50.5 110t75 83t91.5 52.5t101 18q75 0 132 -32.5t88.5 -94t31.5 -149.5
q0 -73 -18 -134.5t-50.5 -110t-75 -83t-91.5 -52.5t-101 -18zM316 126q22 0 45 11.5t44.5 33t38 52.5t26.5 69.5t10 83.5q0 47 -11.5 80t-33 50.5t-51.5 17.5q-22 0 -45 -11.5t-44.5 -33t-38 -52.5t-26.5 -69.5t-10 -83.5q0 -47 11.5 -80t33 -50.5t51.5 -17.5zM432 686
q-26 0 -45.5 8t-33.5 18t-25 18t-22 8q-12 0 -22 -8t-18 -34l-108 8q20 83 63.5 117.5t98.5 34.5q26 0 45.5 -8t33.5 -18t25.5 -18t21.5 -8q12 0 22.5 8.5t17.5 33.5l108 -8q-19 -82 -63 -117t-99 -35z" />
    <glyph glyph-name="uni1EE2" unicode="&#x1ee2;" horiz-adv-x="670" 
d="M579 579l-68 54q42 5 60.5 31.5t18.5 57.5q0 12 -3.5 24.5t-8.5 25.5l118 36q18 -40 18 -78q0 -37 -15 -68.5t-45 -52.5t-75 -30zM308 -12q-75 0 -131.5 32.5t-88.5 94t-32 149.5q0 73 18 134.5t50.5 110t75 83t91.5 52.5t101 18q75 0 132 -32.5t88.5 -94t31.5 -149.5
q0 -73 -18 -134.5t-50.5 -110t-75 -83t-91.5 -52.5t-101 -18zM316 126q22 0 45 11.5t44.5 33t38 52.5t26.5 69.5t10 83.5q0 47 -11.5 80t-33 50.5t-51.5 17.5q-22 0 -45 -11.5t-44.5 -33t-38 -52.5t-26.5 -69.5t-10 -83.5q0 -47 11.5 -80t33 -50.5t51.5 -17.5zM250 -246
q-31 0 -57.5 18.5t-26.5 55.5q0 36 28 63t68 27q32 0 58 -19t26 -55q0 -39 -27.5 -64.5t-68.5 -25.5z" />
    <glyph glyph-name="uni1E56" unicode="&#x1e56;" horiz-adv-x="596" 
d="M26 0l130 650h214q65 0 117 -17.5t82.5 -56.5t30.5 -104q0 -71 -24.5 -121t-67.5 -80.5t-98 -44.5t-116 -14h-66l-42 -212h-160zM254 338h59q62 0 95.5 28t33.5 82q0 39 -25 57.5t-69 18.5h-58zM406 698q-31 0 -57.5 18.5t-26.5 55.5q0 36 28 63t68 27q32 0 58 -19
t26 -55q0 -39 -27.5 -64.5t-68.5 -25.5z" />
    <glyph glyph-name="Racute" unicode="&#x154;" horiz-adv-x="612" 
d="M26 0l130 650h214q65 0 117 -16.5t82.5 -54.5t30.5 -101q0 -67 -25 -115.5t-67.5 -79t-96 -45t-111.5 -14.5h-70l-44 -224h-160zM256 350h58q65 0 96.5 29t31.5 75q0 36 -24.5 53t-69.5 17h-58zM372 0l-88 262l114 104l142 -366h-168zM290 700l140 160h190l10 -18
l-210 -142h-130z" />
    <glyph glyph-name="Rcaron" unicode="&#x158;" horiz-adv-x="612" 
d="M26 0l130 650h214q65 0 117 -16.5t82.5 -54.5t30.5 -101q0 -67 -25 -115.5t-67.5 -79t-96 -45t-111.5 -14.5h-70l-44 -224h-160zM256 350h58q65 0 96.5 29t31.5 75q0 36 -24.5 53t-69.5 17h-58zM372 0l-88 262l114 104l142 -366h-168zM320 700l-100 160h130l54 -58h4
l82 58h130l-150 -160h-150z" />
    <glyph glyph-name="uni1E58" unicode="&#x1e58;" horiz-adv-x="612" 
d="M26 0l130 650h214q65 0 117 -16.5t82.5 -54.5t30.5 -101q0 -67 -25 -115.5t-67.5 -79t-96 -45t-111.5 -14.5h-70l-44 -224h-160zM256 350h58q65 0 96.5 29t31.5 75q0 36 -24.5 53t-69.5 17h-58zM372 0l-88 262l114 104l142 -366h-168zM406 698q-31 0 -57.5 18.5
t-26.5 55.5q0 36 28 63t68 27q32 0 58 -19t26 -55q0 -39 -27.5 -64.5t-68.5 -25.5z" />
    <glyph glyph-name="uni0156" unicode="&#x156;" horiz-adv-x="612" 
d="M26 0l130 650h214q65 0 117 -16.5t82.5 -54.5t30.5 -101q0 -67 -25 -115.5t-67.5 -79t-96 -45t-111.5 -14.5h-70l-44 -224h-160zM256 350h58q65 0 96.5 29t31.5 75q0 36 -24.5 53t-69.5 17h-58zM372 0l-88 262l114 104l142 -366h-168zM146 -244v66q58 3 81.5 13.5
t23.5 26.5q0 9 -11 18.5t-43 9.5l44 60q56 -2 85 -12t39.5 -26t10.5 -36q0 -41 -30 -66.5t-82 -38.5t-118 -15z" />
    <glyph glyph-name="uni1E5A" unicode="&#x1e5a;" horiz-adv-x="612" 
d="M26 0l130 650h214q65 0 117 -16.5t82.5 -54.5t30.5 -101q0 -67 -25 -115.5t-67.5 -79t-96 -45t-111.5 -14.5h-70l-44 -224h-160zM256 350h58q65 0 96.5 29t31.5 75q0 36 -24.5 53t-69.5 17h-58zM372 0l-88 262l114 104l142 -366h-168zM250 -246q-31 0 -57.5 18.5
t-26.5 55.5q0 36 28 63t68 27q32 0 58 -19t26 -55q0 -39 -27.5 -64.5t-68.5 -25.5z" />
    <glyph glyph-name="uni1E5C" unicode="&#x1e5c;" horiz-adv-x="612" 
d="M26 0l130 650h214q65 0 117 -16.5t82.5 -54.5t30.5 -101q0 -67 -25 -115.5t-67.5 -79t-96 -45t-111.5 -14.5h-70l-44 -224h-160zM256 350h58q65 0 96.5 29t31.5 75q0 36 -24.5 53t-69.5 17h-58zM372 0l-88 262l114 104l142 -366h-168zM250 716l20 102h300l-20 -102h-300z
M250 -246q-31 0 -57.5 18.5t-26.5 55.5q0 36 28 63t68 27q32 0 58 -19t26 -55q0 -39 -27.5 -64.5t-68.5 -25.5z" />
    <glyph glyph-name="uni1E5E" unicode="&#x1e5e;" horiz-adv-x="612" 
d="M26 0l130 650h214q65 0 117 -16.5t82.5 -54.5t30.5 -101q0 -67 -25 -115.5t-67.5 -79t-96 -45t-111.5 -14.5h-70l-44 -224h-160zM256 350h58q65 0 96.5 29t31.5 75q0 36 -24.5 53t-69.5 17h-58zM372 0l-88 262l114 104l142 -366h-168zM108 -170l20 100h294l-20 -100h-294
z" />
    <glyph glyph-name="Sacute" unicode="&#x15a;" horiz-adv-x="538" 
d="M240 -12q-58 0 -120 29t-110 95l94 90q27 -34 68 -55t84 -21q21 0 37.5 6t25.5 17t9 27q0 26 -19 41t-55 37l-52 32q-46 29 -73 67.5t-27 98.5q0 58 32 105.5t85.5 76t116.5 28.5q57 0 110 -27t90 -75l-90 -92q-25 26 -52.5 41t-59.5 15q-23 0 -38 -7t-22.5 -19.5
t-7.5 -27.5q0 -22 20 -36t60 -40l58 -36q48 -30 69 -63.5t21 -90.5q0 -59 -31 -108t-88 -78.5t-135 -29.5zM250 700l140 160h190l10 -18l-210 -142h-130z" />
    <glyph glyph-name="Scircumflex" unicode="&#x15c;" horiz-adv-x="538" 
d="M240 -12q-58 0 -120 29t-110 95l94 90q27 -34 68 -55t84 -21q21 0 37.5 6t25.5 17t9 27q0 26 -19 41t-55 37l-52 32q-46 29 -73 67.5t-27 98.5q0 58 32 105.5t85.5 76t116.5 28.5q57 0 110 -27t90 -75l-90 -92q-25 26 -52.5 41t-59.5 15q-23 0 -38 -7t-22.5 -19.5
t-7.5 -27.5q0 -22 20 -36t60 -40l58 -36q48 -30 69 -63.5t21 -90.5q0 -59 -31 -108t-88 -78.5t-135 -29.5zM160 700l150 160h150l100 -160h-130l-54 58h-4l-82 -58h-130z" />
    <glyph glyph-name="uni1E60" unicode="&#x1e60;" horiz-adv-x="538" 
d="M240 -12q-58 0 -120 29t-110 95l94 90q27 -34 68 -55t84 -21q21 0 37.5 6t25.5 17t9 27q0 26 -19 41t-55 37l-52 32q-46 29 -73 67.5t-27 98.5q0 58 32 105.5t85.5 76t116.5 28.5q57 0 110 -27t90 -75l-90 -92q-25 26 -52.5 41t-59.5 15q-23 0 -38 -7t-22.5 -19.5
t-7.5 -27.5q0 -22 20 -36t60 -40l58 -36q48 -30 69 -63.5t21 -90.5q0 -59 -31 -108t-88 -78.5t-135 -29.5zM366 698q-31 0 -57.5 18.5t-26.5 55.5q0 36 28 63t68 27q32 0 58 -19t26 -55q0 -39 -27.5 -64.5t-68.5 -25.5z" />
    <glyph glyph-name="Scaron" unicode="&#x160;" horiz-adv-x="538" 
d="M240 -12q-58 0 -120 29t-110 95l94 90q27 -34 68 -55t84 -21q21 0 37.5 6t25.5 17t9 27q0 26 -19 41t-55 37l-52 32q-46 29 -73 67.5t-27 98.5q0 58 32 105.5t85.5 76t116.5 28.5q57 0 110 -27t90 -75l-90 -92q-25 26 -52.5 41t-59.5 15q-23 0 -38 -7t-22.5 -19.5
t-7.5 -27.5q0 -22 20 -36t60 -40l58 -36q48 -30 69 -63.5t21 -90.5q0 -59 -31 -108t-88 -78.5t-135 -29.5zM280 700l-100 160h130l54 -58h4l82 58h130l-150 -160h-150z" />
    <glyph glyph-name="uni015E" unicode="&#x15e;" horiz-adv-x="538" 
d="M240 -12q-58 0 -120 29t-110 95l94 90q27 -34 68 -55t84 -21q21 0 37.5 6t25.5 17t9 27q0 26 -19 41t-55 37l-52 32q-46 29 -73 67.5t-27 98.5q0 58 32 105.5t85.5 76t116.5 28.5q57 0 110 -27t90 -75l-90 -92q-25 26 -52.5 41t-59.5 15q-23 0 -38 -7t-22.5 -19.5
t-7.5 -27.5q0 -22 20 -36t60 -40l58 -36q48 -30 69 -63.5t21 -90.5q0 -59 -31 -108t-88 -78.5t-135 -29.5zM90 -244v66q57 3 80.5 12t27.5 30q2 14 -11.5 24t-58.5 16l68 100h98l-40 -64q38 -9 54.5 -26.5t11.5 -49.5q-10 -54 -69.5 -79.5t-160.5 -28.5z" />
    <glyph glyph-name="uni0218" unicode="&#x218;" horiz-adv-x="538" 
d="M240 -12q-58 0 -120 29t-110 95l94 90q27 -34 68 -55t84 -21q21 0 37.5 6t25.5 17t9 27q0 26 -19 41t-55 37l-52 32q-46 29 -73 67.5t-27 98.5q0 58 32 105.5t85.5 76t116.5 28.5q57 0 110 -27t90 -75l-90 -92q-25 26 -52.5 41t-59.5 15q-23 0 -38 -7t-22.5 -19.5
t-7.5 -27.5q0 -22 20 -36t60 -40l58 -36q48 -30 69 -63.5t21 -90.5q0 -59 -31 -108t-88 -78.5t-135 -29.5zM86 -244v66q58 3 81.5 13.5t23.5 26.5q0 9 -11 18.5t-43 9.5l44 60q56 -2 85 -12t39.5 -26t10.5 -36q0 -41 -30 -66.5t-82 -38.5t-118 -15z" />
    <glyph glyph-name="uni1E62" unicode="&#x1e62;" horiz-adv-x="538" 
d="M240 -12q-58 0 -120 29t-110 95l94 90q27 -34 68 -55t84 -21q21 0 37.5 6t25.5 17t9 27q0 26 -19 41t-55 37l-52 32q-46 29 -73 67.5t-27 98.5q0 58 32 105.5t85.5 76t116.5 28.5q57 0 110 -27t90 -75l-90 -92q-25 26 -52.5 41t-59.5 15q-23 0 -38 -7t-22.5 -19.5
t-7.5 -27.5q0 -22 20 -36t60 -40l58 -36q48 -30 69 -63.5t21 -90.5q0 -59 -31 -108t-88 -78.5t-135 -29.5zM190 -246q-31 0 -57.5 18.5t-26.5 55.5q0 36 28 63t68 27q32 0 58 -19t26 -55q0 -39 -27.5 -64.5t-68.5 -25.5z" />
    <glyph glyph-name="uni1E66" unicode="&#x1e66;" horiz-adv-x="538" 
d="M240 -12q-58 0 -120 29t-110 95l94 90q27 -34 68 -55t84 -21q21 0 37.5 6t25.5 17t9 27q0 26 -19 41t-55 37l-52 32q-46 29 -73 67.5t-27 98.5q0 58 32 105.5t85.5 76t116.5 28.5q57 0 110 -27t90 -75l-90 -92q-25 26 -52.5 41t-59.5 15q-23 0 -38 -7t-22.5 -19.5
t-7.5 -27.5q0 -22 20 -36t60 -40l58 -36q48 -30 69 -63.5t21 -90.5q0 -59 -31 -108t-88 -78.5t-135 -29.5zM384 848q-28 0 -51 16.5t-23 49.5t25 57.5t61 24.5q29 0 51.5 -17t22.5 -49q0 -36 -25 -59t-61 -23zM280 700l-88 140h108l60 -68h4l90 68h106l-130 -140h-150z" />
    <glyph glyph-name="uni1E9E" unicode="&#x1e9e;" horiz-adv-x="686" 
d="M434 -12q-46 0 -92 15.5t-84 58.5l76 92q14 -15 36.5 -26.5t47.5 -11.5q16 0 30 7.5t23 21t9 31.5q0 19 -13 37.5t-39 34t-66 26.5l8 92l120 114q-10 32 -36.5 48t-61.5 16q-48 0 -81 -39t-47 -107l-78 -398h-160l86 428q13 67 47.5 122t94 88.5t148.5 33.5
q63 0 117.5 -22.5t89 -68.5t37.5 -119l-122 -110q50 -25 85 -64.5t35 -99.5q0 -56 -26.5 -101.5t-74 -72t-109.5 -26.5z" />
    <glyph glyph-name="Tcaron" unicode="&#x164;" horiz-adv-x="540" 
d="M142 0l102 516h-164l26 134h488l-26 -134h-164l-102 -516h-160zM280 700l-100 160h130l54 -58h4l82 58h130l-150 -160h-150z" />
    <glyph glyph-name="uni1E6A" unicode="&#x1e6a;" horiz-adv-x="540" 
d="M142 0l102 516h-164l26 134h488l-26 -134h-164l-102 -516h-160zM366 698q-31 0 -57.5 18.5t-26.5 55.5q0 36 28 63t68 27q32 0 58 -19t26 -55q0 -39 -27.5 -64.5t-68.5 -25.5z" />
    <glyph glyph-name="uni0162" unicode="&#x162;" horiz-adv-x="540" 
d="M142 0l102 516h-164l26 134h488l-26 -134h-164l-102 -516h-160zM76 -244v66q57 3 80.5 12t27.5 30q2 14 -11.5 24t-58.5 16l68 100h98l-40 -64q38 -9 54.5 -26.5t11.5 -49.5q-10 -54 -69.5 -79.5t-160.5 -28.5z" />
    <glyph glyph-name="uni021A" unicode="&#x21a;" horiz-adv-x="540" 
d="M142 0l102 516h-164l26 134h488l-26 -134h-164l-102 -516h-160zM76 -244v66q58 3 81.5 13.5t23.5 26.5q0 9 -11 18.5t-43 9.5l44 60q56 -2 85 -12t39.5 -26t10.5 -36q0 -41 -30 -66.5t-82 -38.5t-118 -15z" />
    <glyph glyph-name="uni1E6C" unicode="&#x1e6c;" horiz-adv-x="540" 
d="M142 0l102 516h-164l26 134h488l-26 -134h-164l-102 -516h-160zM180 -246q-31 0 -57.5 18.5t-26.5 55.5q0 36 28 63t68 27q32 0 58 -19t26 -55q0 -39 -27.5 -64.5t-68.5 -25.5z" />
    <glyph glyph-name="uni1E6E" unicode="&#x1e6e;" horiz-adv-x="540" 
d="M142 0l102 516h-164l26 134h488l-26 -134h-164l-102 -516h-160zM38 -170l20 100h294l-20 -100h-294z" />
    <glyph glyph-name="uni1E97.c" horiz-adv-x="540" 
d="M142 0l102 516h-164l26 134h488l-26 -134h-164l-102 -516h-160zM246 696q-28 0 -47 17t-19 49t24 57t60 25q28 0 47 -17.5t19 -48.5q0 -34 -24 -58t-60 -24zM470 696q-28 0 -47 17t-19 49t24 57t60 25q28 0 47 -17.5t19 -48.5q0 -34 -24 -58t-60 -24z" />
    <glyph glyph-name="Tbar" unicode="&#x166;" horiz-adv-x="540" 
d="M72 252l20 102l92 6h308l-20 -108h-400zM142 0l102 516h-164l26 134h488l-26 -134h-164l-102 -516h-160z" />
    <glyph glyph-name="uni023E" unicode="&#x23e;" horiz-adv-x="540" 
d="M14 -50l-30 26l660 732l30 -26zM142 0l102 516h-164l26 134h488l-26 -134h-164l-102 -516h-160z" />
    <glyph glyph-name="Ugrave" unicode="&#xd9;" horiz-adv-x="654" 
d="M316 -12q-121 0 -181.5 57t-60.5 177q0 23 5 54t9 56l64 318h160l-70 -350q-3 -19 -5.5 -37.5t-2.5 -36.5q0 -49 18.5 -74.5t67.5 -25.5q29 0 49.5 13.5t35.5 47.5t27 95l74 368h156l-74 -364q-21 -106 -56.5 -172t-88.5 -96t-127 -30zM360 700l-150 142l10 18h180
l90 -160h-130z" />
    <glyph glyph-name="Uacute" unicode="&#xda;" horiz-adv-x="654" 
d="M316 -12q-121 0 -181.5 57t-60.5 177q0 23 5 54t9 56l64 318h160l-70 -350q-3 -19 -5.5 -37.5t-2.5 -36.5q0 -49 18.5 -74.5t67.5 -25.5q29 0 49.5 13.5t35.5 47.5t27 95l74 368h156l-74 -364q-21 -106 -56.5 -172t-88.5 -96t-127 -30zM310 700l140 160h190l10 -18
l-210 -142h-130z" />
    <glyph glyph-name="Ucircumflex" unicode="&#xdb;" horiz-adv-x="654" 
d="M316 -12q-121 0 -181.5 57t-60.5 177q0 23 5 54t9 56l64 318h160l-70 -350q-3 -19 -5.5 -37.5t-2.5 -36.5q0 -49 18.5 -74.5t67.5 -25.5q29 0 49.5 13.5t35.5 47.5t27 95l74 368h156l-74 -364q-21 -106 -56.5 -172t-88.5 -96t-127 -30zM220 700l150 160h150l100 -160
h-130l-54 58h-4l-82 -58h-130z" />
    <glyph glyph-name="Utilde" unicode="&#x168;" horiz-adv-x="654" 
d="M316 -12q-121 0 -181.5 57t-60.5 177q0 23 5 54t9 56l64 318h160l-70 -350q-3 -19 -5.5 -37.5t-2.5 -36.5q0 -49 18.5 -74.5t67.5 -25.5q29 0 49.5 13.5t35.5 47.5t27 95l74 368h156l-74 -364q-21 -106 -56.5 -172t-88.5 -96t-127 -30zM486 686q-26 0 -45.5 8t-33.5 18
t-25 18t-22 8q-12 0 -22 -8t-18 -34l-108 8q20 83 63.5 117.5t98.5 34.5q26 0 45.5 -8t33.5 -18t25.5 -18t21.5 -8q12 0 22.5 8.5t17.5 33.5l108 -8q-19 -82 -63 -117t-99 -35z" />
    <glyph glyph-name="Udieresis" unicode="&#xdc;" horiz-adv-x="654" 
d="M316 -12q-121 0 -181.5 57t-60.5 177q0 23 5 54t9 56l64 318h160l-70 -350q-3 -19 -5.5 -37.5t-2.5 -36.5q0 -49 18.5 -74.5t67.5 -25.5q29 0 49.5 13.5t35.5 47.5t27 95l74 368h156l-74 -364q-21 -106 -56.5 -172t-88.5 -96t-127 -30zM306 696q-28 0 -47 17t-19 49
t24 57t60 25q28 0 47 -17.5t19 -48.5q0 -34 -24 -58t-60 -24zM530 696q-28 0 -47 17t-19 49t24 57t60 25q28 0 47 -17.5t19 -48.5q0 -34 -24 -58t-60 -24z" />
    <glyph glyph-name="Umacron" unicode="&#x16a;" horiz-adv-x="654" 
d="M316 -12q-121 0 -181.5 57t-60.5 177q0 23 5 54t9 56l64 318h160l-70 -350q-3 -19 -5.5 -37.5t-2.5 -36.5q0 -49 18.5 -74.5t67.5 -25.5q29 0 49.5 13.5t35.5 47.5t27 95l74 368h156l-74 -364q-21 -106 -56.5 -172t-88.5 -96t-127 -30zM270 716l20 102h300l-20 -102h-300
z" />
    <glyph glyph-name="Ubreve" unicode="&#x16c;" horiz-adv-x="654" 
d="M316 -12q-121 0 -181.5 57t-60.5 177q0 23 5 54t9 56l64 318h160l-70 -350q-3 -19 -5.5 -37.5t-2.5 -36.5q0 -49 18.5 -74.5t67.5 -25.5q29 0 49.5 13.5t35.5 47.5t27 95l74 368h156l-74 -364q-21 -106 -56.5 -172t-88.5 -96t-127 -30zM416 694q-54 0 -86 18.5t-46 50
t-14 71.5l94 16q3 -31 21 -44.5t49 -13.5q30 0 53 14t35 44l88 -16q-13 -48 -39 -79t-65 -46t-90 -15z" />
    <glyph glyph-name="Uring" unicode="&#x16e;" horiz-adv-x="654" 
d="M316 -12q-121 0 -181.5 57t-60.5 177q0 23 5 54t9 56l64 318h160l-70 -350q-3 -19 -5.5 -37.5t-2.5 -36.5q0 -49 18.5 -74.5t67.5 -25.5q29 0 49.5 13.5t35.5 47.5t27 95l74 368h156l-74 -364q-21 -106 -56.5 -172t-88.5 -96t-127 -30zM426 696q-57 0 -93.5 21.5
t-36.5 70.5q0 45 41 77.5t105 32.5q57 0 93.5 -21t36.5 -71q0 -45 -40.5 -77.5t-105.5 -32.5zM428 754q18 0 31 15.5t13 34.5q0 17 -8.5 26.5t-23.5 9.5q-18 0 -31 -15t-13 -35q0 -16 8.5 -26t23.5 -10z" />
    <glyph glyph-name="Uhungarumlaut" unicode="&#x170;" horiz-adv-x="654" 
d="M316 -12q-121 0 -181.5 57t-60.5 177q0 23 5 54t9 56l64 318h160l-70 -350q-3 -19 -5.5 -37.5t-2.5 -36.5q0 -49 18.5 -74.5t67.5 -25.5q29 0 49.5 13.5t35.5 47.5t27 95l74 368h156l-74 -364q-21 -106 -56.5 -172t-88.5 -96t-127 -30zM260 700l110 160h140l10 -18
l-160 -142h-100zM460 700l110 160h140l10 -18l-160 -142h-100z" />
    <glyph glyph-name="uni01D3" unicode="&#x1d3;" horiz-adv-x="654" 
d="M316 -12q-121 0 -181.5 57t-60.5 177q0 23 5 54t9 56l64 318h160l-70 -350q-3 -19 -5.5 -37.5t-2.5 -36.5q0 -49 18.5 -74.5t67.5 -25.5q29 0 49.5 13.5t35.5 47.5t27 95l74 368h156l-74 -364q-21 -106 -56.5 -172t-88.5 -96t-127 -30zM340 700l-100 160h130l54 -58h4
l82 58h130l-150 -160h-150z" />
    <glyph glyph-name="Uogonek" unicode="&#x172;" horiz-adv-x="654" 
d="M240 -228q-46 0 -77 23t-31 63q0 27 16 53.5t40.5 49.5t51.5 39l76 -12q-121 0 -181.5 57t-60.5 177q0 23 5 54t9 56l64 318h160l-70 -350q-3 -19 -5.5 -37.5t-2.5 -36.5q0 -49 18.5 -74.5t67.5 -25.5q29 0 49.5 13.5t35.5 47.5t27 95l74 368h156l-74 -364
q-27 -133 -76 -203.5t-142 -90.5q-33 -7 -53.5 -20t-30.5 -28t-10 -28q0 -15 10.5 -22.5t23.5 -7.5q6 0 13 1t15 5l30 -84q-24 -16 -58.5 -26t-69.5 -10z" />
    <glyph glyph-name="uni01D5" unicode="&#x1d5;" horiz-adv-x="654" 
d="M316 -12q-121 0 -181.5 57t-60.5 177q0 23 5 54t9 56l64 318h160l-70 -350q-3 -19 -5.5 -37.5t-2.5 -36.5q0 -49 18.5 -74.5t67.5 -25.5q29 0 49.5 13.5t35.5 47.5t27 95l74 368h156l-74 -364q-21 -106 -56.5 -172t-88.5 -96t-127 -30zM302 696q-25 0 -42.5 15.5
t-17.5 42.5q0 30 21.5 55t54.5 25q26 0 43 -16.5t17 -43.5q0 -28 -21.5 -53t-54.5 -25zM536 696q-25 0 -42.5 15.5t-17.5 42.5q0 30 21.5 55t54.5 25q26 0 43 -16.5t17 -43.5q0 -28 -21.5 -53t-54.5 -25zM304 882l14 74h302l-16 -74h-300z" />
    <glyph glyph-name="uni01D7" unicode="&#x1d7;" horiz-adv-x="654" 
d="M316 -12q-121 0 -181.5 57t-60.5 177q0 23 5 54t9 56l64 318h160l-70 -350q-3 -19 -5.5 -37.5t-2.5 -36.5q0 -49 18.5 -74.5t67.5 -25.5q29 0 49.5 13.5t35.5 47.5t27 95l74 368h156l-74 -364q-21 -106 -56.5 -172t-88.5 -96t-127 -30zM302 696q-25 0 -42.5 15.5
t-17.5 42.5q0 30 21.5 55t54.5 25q26 0 43 -16.5t17 -43.5q0 -28 -21.5 -53t-54.5 -25zM536 696q-25 0 -42.5 15.5t-17.5 42.5q0 30 21.5 55t54.5 25q26 0 43 -16.5t17 -43.5q0 -28 -21.5 -53t-54.5 -25zM380 860l100 140h140l10 -18l-150 -122h-100z" />
    <glyph glyph-name="uni01D9" unicode="&#x1d9;" horiz-adv-x="654" 
d="M316 -12q-121 0 -181.5 57t-60.5 177q0 23 5 54t9 56l64 318h160l-70 -350q-3 -19 -5.5 -37.5t-2.5 -36.5q0 -49 18.5 -74.5t67.5 -25.5q29 0 49.5 13.5t35.5 47.5t27 95l74 368h156l-74 -364q-21 -106 -56.5 -172t-88.5 -96t-127 -30zM304 696q-25 0 -42.5 15.5
t-17.5 42.5q0 30 21.5 55t54.5 25q26 0 43 -16.5t17 -43.5q0 -28 -21.5 -53t-54.5 -25zM538 696q-25 0 -42.5 15.5t-17.5 42.5q0 30 21.5 55t54.5 25q26 0 43 -16.5t17 -43.5q0 -28 -21.5 -53t-54.5 -25zM374 856l-94 124h117l49 -44h4l73 44h117l-131 -124h-135z" />
    <glyph glyph-name="uni01DB" unicode="&#x1db;" horiz-adv-x="654" 
d="M316 -12q-121 0 -181.5 57t-60.5 177q0 23 5 54t9 56l64 318h160l-70 -350q-3 -19 -5.5 -37.5t-2.5 -36.5q0 -49 18.5 -74.5t67.5 -25.5q29 0 49.5 13.5t35.5 47.5t27 95l74 368h156l-74 -364q-21 -106 -56.5 -172t-88.5 -96t-127 -30zM302 696q-25 0 -42.5 15.5
t-17.5 42.5q0 30 21.5 55t54.5 25q26 0 43 -16.5t17 -43.5q0 -28 -21.5 -53t-54.5 -25zM536 696q-25 0 -42.5 15.5t-17.5 42.5q0 30 21.5 55t54.5 25q26 0 43 -16.5t17 -43.5q0 -28 -21.5 -53t-54.5 -25zM420 860l-110 122l10 18h140l60 -140h-100z" />
    <glyph glyph-name="uni1E72" unicode="&#x1e72;" horiz-adv-x="654" 
d="M316 -12q-121 0 -181.5 57t-60.5 177q0 23 5 54t9 56l64 318h160l-70 -350q-3 -19 -5.5 -37.5t-2.5 -36.5q0 -49 18.5 -74.5t67.5 -25.5q29 0 49.5 13.5t35.5 47.5t27 95l74 368h156l-74 -364q-21 -106 -56.5 -172t-88.5 -96t-127 -30zM140 -230q-28 0 -47 17t-19 49
t24 57t60 25q28 0 47 -17.5t19 -48.5q0 -34 -24 -58t-60 -24zM360 -230q-28 0 -47 17t-19 49t24 57t60 25q28 0 47 -17.5t19 -48.5q0 -34 -24 -58t-60 -24z" />
    <glyph glyph-name="uni1EE4" unicode="&#x1ee4;" horiz-adv-x="654" 
d="M316 -12q-121 0 -181.5 57t-60.5 177q0 23 5 54t9 56l64 318h160l-70 -350q-3 -19 -5.5 -37.5t-2.5 -36.5q0 -49 18.5 -74.5t67.5 -25.5q29 0 49.5 13.5t35.5 47.5t27 95l74 368h156l-74 -364q-21 -106 -56.5 -172t-88.5 -96t-127 -30zM250 -246q-31 0 -57.5 18.5
t-26.5 55.5q0 36 28 63t68 27q32 0 58 -19t26 -55q0 -39 -27.5 -64.5t-68.5 -25.5z" />
    <glyph glyph-name="uni0244" unicode="&#x244;" horiz-adv-x="694" 
d="M32 314l20 96l92 6h566l-20 -102h-658zM336 -12q-121 0 -181.5 57t-60.5 177q0 23 5 54t9 56l64 318h160l-70 -350q-3 -19 -5.5 -37.5t-2.5 -36.5q0 -49 18.5 -74.5t67.5 -25.5q29 0 49.5 13.5t35.5 47.5t27 95l74 368h156l-74 -364q-21 -106 -56.5 -172t-88.5 -96
t-127 -30z" />
    <glyph glyph-name="uni1EE6" unicode="&#x1ee6;" horiz-adv-x="654" 
d="M316 -12q-121 0 -181.5 57t-60.5 177q0 23 5 54t9 56l64 318h160l-70 -350q-3 -19 -5.5 -37.5t-2.5 -36.5q0 -49 18.5 -74.5t67.5 -25.5q29 0 49.5 13.5t35.5 47.5t27 95l74 368h156l-74 -364q-21 -106 -56.5 -172t-88.5 -96t-127 -30zM362 694l-4 66q46 6 46 30
q0 11 -15 19.5t-53 8.5l26 90q63 0 100.5 -13t53.5 -33t16 -42q0 -54 -45 -87.5t-125 -38.5z" />
    <glyph glyph-name="Uhorn" unicode="&#x1af;" horiz-adv-x="680" 
d="M642 592l-51 57q42 5 62.5 23.5t20.5 49.5q0 12 -3.5 24.5t-8.5 25.5l118 36q18 -40 18 -78q0 -37 -17 -65t-51.5 -46t-87.5 -27zM316 -12q-121 0 -181.5 57t-60.5 177q0 23 5 54t9 56l64 318h160l-70 -350q-3 -19 -5.5 -37.5t-2.5 -36.5q0 -49 18.5 -74.5t67.5 -25.5
q29 0 49.5 13.5t35.5 47.5t27 95l74 368h156l-74 -364q-21 -106 -56.5 -172t-88.5 -96t-127 -30z" />
    <glyph glyph-name="uni1EE8" unicode="&#x1ee8;" horiz-adv-x="680" 
d="M642 592l-51 57q42 5 62.5 23.5t20.5 49.5q0 12 -3.5 24.5t-8.5 25.5l118 36q18 -40 18 -78q0 -37 -17 -65t-51.5 -46t-87.5 -27zM316 -12q-121 0 -181.5 57t-60.5 177q0 23 5 54t9 56l64 318h160l-70 -350q-3 -19 -5.5 -37.5t-2.5 -36.5q0 -49 18.5 -74.5t67.5 -25.5
q29 0 49.5 13.5t35.5 47.5t27 95l74 368h156l-74 -364q-21 -106 -56.5 -172t-88.5 -96t-127 -30zM310 700l140 160h190l10 -18l-210 -142h-130z" />
    <glyph glyph-name="uni1EEA" unicode="&#x1eea;" horiz-adv-x="680" 
d="M642 592l-51 57q42 5 62.5 23.5t20.5 49.5q0 12 -3.5 24.5t-8.5 25.5l118 36q18 -40 18 -78q0 -37 -17 -65t-51.5 -46t-87.5 -27zM316 -12q-121 0 -181.5 57t-60.5 177q0 23 5 54t9 56l64 318h160l-70 -350q-3 -19 -5.5 -37.5t-2.5 -36.5q0 -49 18.5 -74.5t67.5 -25.5
q29 0 49.5 13.5t35.5 47.5t27 95l74 368h156l-74 -364q-21 -106 -56.5 -172t-88.5 -96t-127 -30zM360 700l-150 142l10 18h180l90 -160h-130z" />
    <glyph glyph-name="uni1EEC" unicode="&#x1eec;" horiz-adv-x="680" 
d="M642 592l-51 57q42 5 62.5 23.5t20.5 49.5q0 12 -3.5 24.5t-8.5 25.5l118 36q18 -40 18 -78q0 -37 -17 -65t-51.5 -46t-87.5 -27zM316 -12q-121 0 -181.5 57t-60.5 177q0 23 5 54t9 56l64 318h160l-70 -350q-3 -19 -5.5 -37.5t-2.5 -36.5q0 -49 18.5 -74.5t67.5 -25.5
q29 0 49.5 13.5t35.5 47.5t27 95l74 368h156l-74 -364q-21 -106 -56.5 -172t-88.5 -96t-127 -30zM362 694l-4 66q46 6 46 30q0 11 -15 19.5t-53 8.5l26 90q63 0 100.5 -13t53.5 -33t16 -42q0 -54 -45 -87.5t-125 -38.5z" />
    <glyph glyph-name="uni1EEE" unicode="&#x1eee;" horiz-adv-x="680" 
d="M642 592l-51 57q42 5 62.5 23.5t20.5 49.5q0 12 -3.5 24.5t-8.5 25.5l118 36q18 -40 18 -78q0 -37 -17 -65t-51.5 -46t-87.5 -27zM316 -12q-121 0 -181.5 57t-60.5 177q0 23 5 54t9 56l64 318h160l-70 -350q-3 -19 -5.5 -37.5t-2.5 -36.5q0 -49 18.5 -74.5t67.5 -25.5
q29 0 49.5 13.5t35.5 47.5t27 95l74 368h156l-74 -364q-21 -106 -56.5 -172t-88.5 -96t-127 -30zM486 686q-26 0 -45.5 8t-33.5 18t-25 18t-22 8q-12 0 -22 -8t-18 -34l-108 8q20 83 63.5 117.5t98.5 34.5q26 0 45.5 -8t33.5 -18t25.5 -18t21.5 -8q12 0 22.5 8.5t17.5 33.5
l108 -8q-19 -82 -63 -117t-99 -35z" />
    <glyph glyph-name="uni1EF0" unicode="&#x1ef0;" horiz-adv-x="680" 
d="M642 592l-51 57q42 5 62.5 23.5t20.5 49.5q0 12 -3.5 24.5t-8.5 25.5l118 36q18 -40 18 -78q0 -37 -17 -65t-51.5 -46t-87.5 -27zM316 -12q-121 0 -181.5 57t-60.5 177q0 23 5 54t9 56l64 318h160l-70 -350q-3 -19 -5.5 -37.5t-2.5 -36.5q0 -49 18.5 -74.5t67.5 -25.5
q29 0 49.5 13.5t35.5 47.5t27 95l74 368h156l-74 -364q-21 -106 -56.5 -172t-88.5 -96t-127 -30zM250 -246q-31 0 -57.5 18.5t-26.5 55.5q0 36 28 63t68 27q32 0 58 -19t26 -55q0 -39 -27.5 -64.5t-68.5 -25.5z" />
    <glyph glyph-name="uni1E7E" unicode="&#x1e7e;" horiz-adv-x="576" 
d="M132 0l-54 650h168l12 -304q2 -51 3 -102.5t1 -103.5h4q22 52 43 103t43 103l132 304h176l-334 -650h-194zM180 -246q-31 0 -57.5 18.5t-26.5 55.5q0 36 28 63t68 27q32 0 58 -19t26 -55q0 -39 -27.5 -64.5t-68.5 -25.5z" />
    <glyph glyph-name="Wgrave" unicode="&#x1e80;" horiz-adv-x="808" 
d="M74 0l24 650h164l-26 -294q-5 -51 -10.5 -103.5t-13.5 -104.5h4q20 52 41.5 105t40.5 103l123 294h133v-294q-1 -49 -4 -102l-6 -106h4q17 53 35 105.5t33 102.5l98 294h152l-244 -650h-198l8 278q2 35 5 77.5t7 84.5h-4q-13 -40 -28.5 -83.5t-29.5 -78.5l-110 -278h-198
zM440 700l-150 142l10 18h180l90 -160h-130z" />
    <glyph glyph-name="Wacute" unicode="&#x1e82;" horiz-adv-x="808" 
d="M74 0l24 650h164l-26 -294q-5 -51 -10.5 -103.5t-13.5 -104.5h4q20 52 41.5 105t40.5 103l123 294h133v-294q-1 -49 -4 -102l-6 -106h4q17 53 35 105.5t33 102.5l98 294h152l-244 -650h-198l8 278q2 35 5 77.5t7 84.5h-4q-13 -40 -28.5 -83.5t-29.5 -78.5l-110 -278h-198
zM390 700l140 160h190l10 -18l-210 -142h-130z" />
    <glyph glyph-name="Wcircumflex" unicode="&#x174;" horiz-adv-x="808" 
d="M74 0l24 650h164l-26 -294q-5 -51 -10.5 -103.5t-13.5 -104.5h4q20 52 41.5 105t40.5 103l123 294h133v-294q-1 -49 -4 -102l-6 -106h4q17 53 35 105.5t33 102.5l98 294h152l-244 -650h-198l8 278q2 35 5 77.5t7 84.5h-4q-13 -40 -28.5 -83.5t-29.5 -78.5l-110 -278h-198
zM300 700l150 160h150l100 -160h-130l-54 58h-4l-82 -58h-130z" />
    <glyph glyph-name="Wdieresis" unicode="&#x1e84;" horiz-adv-x="808" 
d="M74 0l24 650h164l-26 -294q-5 -51 -10.5 -103.5t-13.5 -104.5h4q20 52 41.5 105t40.5 103l123 294h133v-294q-1 -49 -4 -102l-6 -106h4q17 53 35 105.5t33 102.5l98 294h152l-244 -650h-198l8 278q2 35 5 77.5t7 84.5h-4q-13 -40 -28.5 -83.5t-29.5 -78.5l-110 -278h-198
zM386 696q-28 0 -47 17t-19 49t24 57t60 25q28 0 47 -17.5t19 -48.5q0 -34 -24 -58t-60 -24zM610 696q-28 0 -47 17t-19 49t24 57t60 25q28 0 47 -17.5t19 -48.5q0 -34 -24 -58t-60 -24z" />
    <glyph glyph-name="Ygrave" unicode="&#x1ef2;" horiz-adv-x="528" 
d="M137 0l45 228l-103 422h166l21 -144q6 -37 11 -71t11 -73h4q20 39 37.5 74t38.5 72l78 142h172l-276 -422l-46 -228h-159zM300 700l-150 142l10 18h180l90 -160h-130z" />
    <glyph glyph-name="Yacute" unicode="&#xdd;" horiz-adv-x="528" 
d="M137 0l45 228l-103 422h166l21 -144q6 -37 11 -71t11 -73h4q20 39 37.5 74t38.5 72l78 142h172l-276 -422l-46 -228h-159zM250 700l140 160h190l10 -18l-210 -142h-130z" />
    <glyph glyph-name="Ycircumflex" unicode="&#x176;" horiz-adv-x="528" 
d="M137 0l45 228l-103 422h166l21 -144q6 -37 11 -71t11 -73h4q20 39 37.5 74t38.5 72l78 142h172l-276 -422l-46 -228h-159zM160 700l150 160h150l100 -160h-130l-54 58h-4l-82 -58h-130z" />
    <glyph glyph-name="uni1EF8" unicode="&#x1ef8;" horiz-adv-x="528" 
d="M137 0l45 228l-103 422h166l21 -144q6 -37 11 -71t11 -73h4q20 39 37.5 74t38.5 72l78 142h172l-276 -422l-46 -228h-159zM426 686q-26 0 -45.5 8t-33.5 18t-25 18t-22 8q-12 0 -22 -8t-18 -34l-108 8q20 83 63.5 117.5t98.5 34.5q26 0 45.5 -8t33.5 -18t25.5 -18
t21.5 -8q12 0 22.5 8.5t17.5 33.5l108 -8q-19 -82 -63 -117t-99 -35z" />
    <glyph glyph-name="Ydieresis" unicode="&#x178;" horiz-adv-x="528" 
d="M137 0l45 228l-103 422h166l21 -144q6 -37 11 -71t11 -73h4q20 39 37.5 74t38.5 72l78 142h172l-276 -422l-46 -228h-159zM246 696q-28 0 -47 17t-19 49t24 57t60 25q28 0 47 -17.5t19 -48.5q0 -34 -24 -58t-60 -24zM470 696q-28 0 -47 17t-19 49t24 57t60 25
q28 0 47 -17.5t19 -48.5q0 -34 -24 -58t-60 -24z" />
    <glyph glyph-name="uni1E8E" unicode="&#x1e8e;" horiz-adv-x="528" 
d="M137 0l45 228l-103 422h166l21 -144q6 -37 11 -71t11 -73h4q20 39 37.5 74t38.5 72l78 142h172l-276 -422l-46 -228h-159zM366 698q-31 0 -57.5 18.5t-26.5 55.5q0 36 28 63t68 27q32 0 58 -19t26 -55q0 -39 -27.5 -64.5t-68.5 -25.5z" />
    <glyph glyph-name="uni1EF4" unicode="&#x1ef4;" horiz-adv-x="528" 
d="M137 0l45 228l-103 422h166l21 -144q6 -37 11 -71t11 -73h4q20 39 37.5 74t38.5 72l78 142h172l-276 -422l-46 -228h-159zM180 -246q-31 0 -57.5 18.5t-26.5 55.5q0 36 28 63t68 27q32 0 58 -19t26 -55q0 -39 -27.5 -64.5t-68.5 -25.5z" />
    <glyph glyph-name="uni1EF6" unicode="&#x1ef6;" horiz-adv-x="528" 
d="M137 0l45 228l-103 422h166l21 -144q6 -37 11 -71t11 -73h4q20 39 37.5 74t38.5 72l78 142h172l-276 -422l-46 -228h-159zM302 694l-4 66q46 6 46 30q0 11 -15 19.5t-53 8.5l26 90q63 0 100.5 -13t53.5 -33t16 -42q0 -54 -45 -87.5t-125 -38.5z" />
    <glyph glyph-name="Zacute" unicode="&#x179;" horiz-adv-x="530" 
d="M-6 0l20 96l330 420h-240l26 134h432l-20 -96l-326 -420h264l-28 -134h-458zM250 700l140 160h190l10 -18l-210 -142h-130z" />
    <glyph glyph-name="uni1E90" unicode="&#x1e90;" horiz-adv-x="530" 
d="M-6 0l20 96l330 420h-240l26 134h432l-20 -96l-326 -420h264l-28 -134h-458zM160 700l150 160h150l100 -160h-130l-54 58h-4l-82 -58h-130z" />
    <glyph glyph-name="Zdotaccent" unicode="&#x17b;" horiz-adv-x="530" 
d="M-6 0l20 96l330 420h-240l26 134h432l-20 -96l-326 -420h264l-28 -134h-458zM366 698q-31 0 -57.5 18.5t-26.5 55.5q0 36 28 63t68 27q32 0 58 -19t26 -55q0 -39 -27.5 -64.5t-68.5 -25.5z" />
    <glyph glyph-name="Zcaron" unicode="&#x17d;" horiz-adv-x="530" 
d="M-6 0l20 96l330 420h-240l26 134h432l-20 -96l-326 -420h264l-28 -134h-458zM280 700l-100 160h130l54 -58h4l82 58h130l-150 -160h-150z" />
    <glyph glyph-name="uni1E92" unicode="&#x1e92;" horiz-adv-x="530" 
d="M-6 0l20 96l330 420h-240l26 134h432l-20 -96l-326 -420h264l-28 -134h-458zM190 -246q-31 0 -57.5 18.5t-26.5 55.5q0 36 28 63t68 27q32 0 58 -19t26 -55q0 -39 -27.5 -64.5t-68.5 -25.5z" />
    <glyph glyph-name="uni1E94" unicode="&#x1e94;" horiz-adv-x="530" 
d="M-6 0l20 96l330 420h-240l26 134h432l-20 -96l-326 -420h264l-28 -134h-458zM48 -170l20 100h294l-20 -100h-294z" />
    <glyph glyph-name="Eth" unicode="&#xd0;" horiz-adv-x="652" 
d="M30 286l18 90l76 6h280l-18 -96h-356zM46 0l130 650h158q86 0 152 -27.5t103 -86t37 -150.5q0 -94 -28.5 -166.5t-78.5 -121t-115 -73.5t-138 -25h-220zM232 128h30q37 0 72.5 14t64.5 44t46 77t17 113q0 55 -19 87t-49.5 45.5t-63.5 13.5h-20z" />
    <glyph glyph-name="Thorn" unicode="&#xde;" horiz-adv-x="608" 
d="M26 0l130 660h160l-22 -106h78q59 0 107 -17.5t76.5 -56.5t28.5 -104q0 -71 -25 -121t-68 -80.5t-98.5 -44.5t-116.5 -14h-70l-22 -116h-158zM232 242h62q63 0 97.5 28t34.5 82q0 39 -22.5 57.5t-63.5 18.5h-72z" />
    <glyph glyph-name="uni01F7" unicode="&#x1f7;" horiz-adv-x="596" 
d="M-8 -176l164 826h150l-10 -66q44 39 85.5 58.5t86.5 19.5q65 0 98.5 -38t33.5 -121q0 -66 -23 -136.5t-72.5 -138.5t-128 -127t-190.5 -103l-36 -174h-158zM214 146q78 40 128.5 93.5t75 109t24.5 101.5q0 39 -11.5 56.5t-32.5 17.5q-19 0 -39 -9t-41 -28t-44 -49z" />
    <glyph glyph-name="uni021C" unicode="&#x21c;" horiz-adv-x="498" 
d="M20 -188l-38 112q92 35 152.5 66.5t95 61.5t48.5 57.5t14 52.5q0 24 -13.5 38t-34.5 14q-22 0 -42 -7t-58 -25l-44 94q71 36 115 63.5t67 49t31.5 41t8.5 40.5q0 20 -12 37t-32 17q-31 0 -61 -12.5t-73 -43.5l-64 90q50 39 91 61.5t81 32.5t86 10q71 0 107.5 -38.5
t36.5 -91.5q0 -61 -35.5 -122.5t-106.5 -105.5q54 -3 83 -36t29 -84q0 -88 -45 -153.5t-140.5 -118t-246.5 -100.5z" />
    <glyph glyph-name="uni01B7" unicode="&#x1b7;" horiz-adv-x="544" 
d="M226 -12q-58 0 -116 20.5t-94 65.5l72 104q29 -25 66 -39.5t80 -14.5q34 0 59.5 11t40 31.5t14.5 47.5q0 37 -21.5 53.5t-48.5 16.5q-24 0 -37.5 -2t-34.5 -8l-44 86l178 156h-226l26 134h432l-20 -96l-164 -164q42 -12 69.5 -33.5t41 -52t13.5 -70.5q0 -76 -34.5 -131
t-98.5 -85t-153 -30z" />
    <glyph glyph-name="uni01EE" unicode="&#x1ee;" horiz-adv-x="544" 
d="M226 -12q-58 0 -116 20.5t-94 65.5l72 104q29 -25 66 -39.5t80 -14.5q34 0 59.5 11t40 31.5t14.5 47.5q0 37 -21.5 53.5t-48.5 16.5q-24 0 -37.5 -2t-34.5 -8l-44 86l178 156h-226l26 134h432l-20 -96l-164 -164q42 -12 69.5 -33.5t41 -52t13.5 -70.5q0 -76 -34.5 -131
t-98.5 -85t-153 -30zM270 700l-100 160h130l54 -58h4l82 58h130l-150 -160h-150z" />
    <glyph glyph-name="uni018F" unicode="&#x18f;" horiz-adv-x="680" 
d="M308 -12q-73 0 -127.5 30.5t-84.5 87.5t-30 134q0 39 5.5 69.5t18.5 66.5h446l-24 -116h-296q-9 -66 21.5 -103t82.5 -37q40 0 73 18.5t57 53t37 81t13 103.5q0 49 -12 83.5t-39 52.5t-71 18q-46 0 -85.5 -18.5t-68.5 -41.5l-70 104q48 39 106.5 63.5t137.5 24.5
q77 0 135.5 -32t91.5 -93.5t33 -150.5q0 -86 -25 -159t-72 -126.5t-111 -83t-142 -29.5z" />
    <glyph glyph-name="uniA779" unicode="&#xa779;" horiz-adv-x="664" 
d="M308 -12q-71 0 -125 29.5t-84.5 86t-30.5 138.5q0 57 22.5 112t57.5 98.5t71 65.5v4h-137l24 128h232q155 0 230.5 -65.5t75.5 -208.5q0 -76 -18 -137.5t-50 -108t-74.5 -78.5t-92 -48t-101.5 -16zM326 126q21 0 42.5 9.5t41.5 29t36 48t25 67t9 86.5q0 69 -21 110.5
t-59 41.5q-31 0 -60.5 -22t-53 -58t-37 -80.5t-13.5 -89.5q0 -69 24 -105.5t66 -36.5z" />
    <glyph glyph-name="uniA77B" unicode="&#xa77b;" horiz-adv-x="596" 
d="M-8 -176l164 826h150l-10 -66q29 26 57 43.5t56 26t56 8.5q64 0 100.5 -37.5t36.5 -118.5q0 -21 -2 -44t-8 -52l-12 -60l-164 -20l12 60q5 26 7.5 40t2.5 28q0 35 -13.5 50.5t-38.5 15.5q-15 0 -33 -10t-37.5 -29.5t-41.5 -46.5l-62 -304h218l-26 -134h-218l-34 -176
h-160z" />
    <glyph glyph-name="uniA77D" unicode="&#xa77d;" horiz-adv-x="622" 
d="M236 -188q-64 0 -116 17t-83 54.5t-31 98.5q0 41 22 77.5t61 66.5t91 50v4q-37 24 -59.5 59.5t-22.5 90.5q0 36 17 73t45 67.5t61 47.5l1 4h-120l26 128h518l-26 -134h-166q-47 0 -83 -12t-60 -33t-36.5 -48t-12.5 -57q0 -48 30 -72.5t96 -51.5q84 -34 122 -74.5
t38 -105.5q0 -49 -20 -93.5t-59 -80t-97.5 -56t-135.5 -20.5zM260 -60q40 0 67.5 13t42 32.5t14.5 40.5q0 17 -10.5 29.5t-28.5 23t-40.5 21t-46.5 22.5q-38 -18 -60.5 -35t-32 -35t-9.5 -40q0 -37 27.5 -54.5t76.5 -17.5z" />
    <glyph glyph-name="uniA77E" unicode="&#xa77e;" horiz-adv-x="622" 
d="M390 662q64 0 116 -17t83 -54.5t31 -98.5q0 -41 -22 -77.5t-61 -66.5t-91 -50v-4q37 -24 59.5 -59.5t22.5 -90.5q0 -36 -17 -73t-45 -67.5t-61 -47.5l-1 -4h120l-26 -128h-518l26 134h166q47 0 83 12t60 33t36.5 48t12.5 57q0 48 -30 72.5t-96 51.5q-84 34 -122 74.5
t-38 105.5q0 49 20 93.5t59 80t97.5 56t135.5 20.5zM366 534q-40 0 -67.5 -13t-42 -32.5t-14.5 -40.5q0 -17 10.5 -29.5t28.5 -23t40.5 -21t46.5 -22.5q38 18 60.5 35t32 35t9.5 40q0 37 -27.5 54.5t-76.5 17.5z" />
    <glyph glyph-name="uniA780" unicode="&#xa780;" horiz-adv-x="514" 
d="M518 650l-130 -650h-160l104 516h-236l26 134h396z" />
    <glyph glyph-name="uniA782" unicode="&#xa782;" horiz-adv-x="612" 
d="M-8 -176l164 826h150l-10 -66q44 41 89.5 59.5t92.5 18.5q66 0 104 -35t38 -107q0 -71 -29.5 -131t-89 -115.5t-149.5 -113.5q15 -27 41.5 -35.5t54.5 -8.5q15 0 31.5 3.5t26.5 6.5l26 -118q-16 -9 -42 -14.5t-58 -5.5q-102 0 -163.5 54t-64.5 168q91 50 148 96.5
t83.5 88t26.5 75.5q0 29 -14 41.5t-40 12.5q-28 0 -64.5 -22t-69.5 -64l-122 -614h-160z" />
    <glyph glyph-name="uniA75A" unicode="&#xa75a;" horiz-adv-x="492" 
d="M302 -12q-108 0 -175 54t-73 168q99 50 162.5 94.5t94.5 84t31 71.5q0 34 -17 49t-47 15q-31 0 -60 -13.5t-53 -34.5l-69 83q54 52 110.5 77.5t117.5 25.5q81 0 128.5 -37.5t47.5 -114.5q0 -69 -34.5 -127t-100.5 -111.5t-163 -111.5q24 -28 53 -36t63 -8q17 0 36.5 3
t31.5 7l26 -118q-18 -10 -46.5 -15t-63.5 -5z" />
    <glyph glyph-name="uniA784" unicode="&#xa784;" horiz-adv-x="596" 
d="M-8 -176l164 826h150l-10 -66q29 26 57 43.5t56 26t56 8.5q64 0 100.5 -37.5t36.5 -118.5q0 -21 -2 -44t-8 -52l-12 -60l-164 -20l12 60q5 26 7.5 40t2.5 28q0 35 -13.5 50.5t-38.5 15.5q-15 0 -33 -10t-37.5 -29.5t-41.5 -46.5l-122 -614h-160z" />
    <glyph glyph-name="uniA786" unicode="&#xa786;" horiz-adv-x="540" 
d="M296 -12q-71 0 -125 27.5t-84.5 80.5t-30.5 128q0 46 15 88.5t41 80.5t59 69.5t69 55.5v4h-160l26 128h488l-26 -134h-98q-38 0 -74.5 -16.5t-68 -45t-56 -65t-38 -76.5t-13.5 -79q0 -52 25.5 -80t80.5 -28q32 0 59 12.5t49 31.5l66 -100q-33 -31 -81.5 -56.5
t-122.5 -25.5z" />
    <glyph glyph-name="uni0194" unicode="&#x194;" horiz-adv-x="576" 
d="M186 -206q-64 0 -100 33.5t-36 90.5q0 53 29 101.5t89 112.5l-12 -60l-78 578h168l16 -284q3 -51 3.5 -97.5t0.5 -98.5h4q21 53 42 99t44 97l128 284h176l-314 -578v60q22 -56 28 -87.5t6 -58.5q0 -52 -24.5 -95.5t-68 -70t-101.5 -26.5zM207 -100q19 0 32 15t13 48
q0 30 -10 71h-4q-28 -30 -44 -57t-16 -46q0 -15 8 -23t21 -8z" />
    <glyph glyph-name="uni0196" unicode="&#x196;" horiz-adv-x="312" 
d="M176 -12q-69 0 -96.5 29.5t-27.5 80.5q0 15 2 31t6 37l96 484h160l-96 -480l-1.5 -13.5t-0.5 -10.5q0 -20 18 -20q3 0 6.5 0.5t9.5 1.5l6 -124q-16 -6 -37.5 -11t-44.5 -5z" />
    <glyph glyph-name="uni039B.l" horiz-adv-x="528" 
d="M430 650l-45 -228l103 -422h-166l-21 144q-6 37 -11 71t-11 73h-4q-20 -39 -37.5 -74t-38.5 -72l-78 -142h-172l276 422l46 228h159z" />
    <glyph glyph-name="uni01B1" unicode="&#x1b1;" horiz-adv-x="712" 
d="M758 650l-24 -128h-104v-4q11 -16 22.5 -44.5t19.5 -63t8 -68.5q0 -79 -27 -144t-75.5 -112t-114 -72.5t-141.5 -25.5q-78 0 -135 28.5t-88 82.5t-31 129q0 71 23.5 127t56 97t60.5 66v4h-104l24 128h278l-20 -104q-38 -31 -66.5 -65.5t-47 -71.5t-27.5 -76t-9 -79
q0 -39 13.5 -67.5t38.5 -44.5t60 -16q37 0 69 17t55.5 49t36.5 76.5t13 99.5q0 30 -7 62.5t-20.5 62.5t-32.5 53l20 104h276z" />
    <glyph glyph-name="uniA7B3" unicode="&#xa7b3;" horiz-adv-x="546" 
d="M-82 -176l256 426l-82 400h174l18 -136q5 -31 9.5 -66.5t9.5 -79.5h4q22 44 39 79.5t32 66.5l66 136h170l-244 -414l90 -412h-174l-22 148q-5 36 -10 71t-10 77h-4q-19 -42 -37.5 -77.5t-36.5 -70.5l-78 -148h-170z" />
    <glyph glyph-name="uni0241" unicode="&#x241;" horiz-adv-x="528" 
d="M114 0l54 266q104 36 151 80.5t47 93.5q0 42 -22.5 63t-53.5 21q-37 0 -77.5 -19.5t-78.5 -48.5l-64 106q54 45 119.5 72.5t134.5 27.5q56 0 103 -22t75 -65t28 -107q0 -59 -31 -113.5t-81 -97t-106 -65.5l-38 -192h-160z" />
    <glyph glyph-name="uniA722" unicode="&#xa722;" horiz-adv-x="346" 
d="M38 -12l8 88q54 8 79.5 24.5t34.5 41.5q2 6 4 14h38q-15 -10 -37 -19t-43 -9q-33 0 -54.5 20t-21.5 57q0 23 16 47.5t46 42t72 17.5q56 0 87 -31t31 -85q0 -53 -28.5 -100t-86 -77t-145.5 -31zM108 338l8 88q54 8 79.5 24.5t34.5 41.5q2 6 4 14h38q-15 -10 -37 -19
t-43 -9q-33 0 -54.5 20t-21.5 57q0 23 16 47.5t46 42t72 17.5q56 0 87 -31t31 -85q0 -53 -28.5 -100t-86 -77t-145.5 -31z" />
    <glyph glyph-name="uniA724" unicode="&#xa724;" horiz-adv-x="346" 
d="M276 334q-86 3 -133 43t-47 107q0 48 23 88.5t61 65t84 24.5q48 0 75 -23t27 -63t-30 -71t-80 -31q-22 0 -41 9t-30 19h39q-3 -8 -4.5 -14t-1.5 -10q0 -25 27 -37.5t69 -18.5z" />
    <glyph glyph-name="uni004C00B7004C" horiz-adv-x="1028" 
d="M26 0l130 650h160l-104 -516h236l-26 -134h-396zM414 228q-36 0 -58 23.5t-22 60.5q0 27 14 53t38.5 42.5t57.5 16.5q36 0 58 -24t22 -60q0 -28 -13.5 -53.5t-38.5 -42t-58 -16.5zM540 0l130 650h160l-104 -516h236l-26 -134h-396z" />
    <glyph glyph-name="uni01320301" horiz-adv-x="624" 
d="M298 -188q-27 0 -52 5.5t-52 18.5l48 114q11 -6 21.5 -9t20.5 -3q24 0 36.5 16.5t19.5 55.5l128 640h160l-130 -648q-10 -52 -33.5 -95t-64 -69t-102.5 -26zM26 0l130 650h160l-130 -650h-160zM140 700l140 160h190l10 -18l-210 -142h-130zM452 700l140 160h190l10 -18
l-210 -142h-130z" />
    <glyph glyph-name="uni01040301" horiz-adv-x="562" 
d="M222 -228q-46 0 -77 23t-31 63q0 26 16.5 55t46 57t69.5 52l44 -48q-15 -13 -23.5 -28.5t-8.5 -29.5q0 -15 10.5 -22.5t23.5 -7.5q16 0 28 6l30 -84q-24 -16 -58.5 -26t-69.5 -10zM-66 0l340 650h192l62 -650h-168l-10 344q-1 47 -2.5 92t-1.5 94h-4q-19 -48 -37 -93.5
t-39 -92.5l-156 -344h-176zM110 148l28 120h302l-28 -120h-302zM270 700l140 160h190l10 -18l-210 -142h-130z" />
    <glyph glyph-name="uni01180301" horiz-adv-x="534" 
d="M212 -228q-46 0 -77 22t-31 64q0 27 16 53.5t40.5 49.5t51.5 39h-186l130 650h396l-26 -134h-238l-22 -114h202l-26 -134h-202l-28 -134h246l-26 -134h-82q-22 0 -40.5 -8.5t-32.5 -21.5t-21.5 -27.5t-7.5 -26.5q0 -15 10.5 -22.5t23.5 -7.5q16 0 28 6l30 -84
q-24 -16 -59.5 -26t-68.5 -10zM260 700l140 160h190l10 -18l-210 -142h-130z" />
    <glyph glyph-name="uni012E0301" horiz-adv-x="312" 
d="M64 -228q-46 0 -77 23t-31 63q0 27 16 53.5t40.5 49.5t51.5 39h-38l130 650h160l-130 -650q-46 -15 -66 -39.5t-20 -44.5q0 -15 10.5 -22.5t23.5 -7.5q16 0 28 6l30 -84q-24 -16 -58.5 -26t-69.5 -10zM140 700l140 160h190l10 -18l-210 -142h-130z" />
    <glyph glyph-name="uni01EA0301" horiz-adv-x="670" 
d="M246 -228q-46 0 -77 22.5t-31 63.5q0 33 19.5 62t44 50.5t40.5 31.5l66 -14q-75 0 -131.5 32.5t-88.5 94t-32 149.5q0 73 18 134.5t50.5 110t75 83t91.5 52.5t101 18q75 0 132 -32.5t88.5 -94t31.5 -149.5q0 -72 -19.5 -137t-56.5 -117.5t-89 -88t-117 -49.5
q-30 -6 -47.5 -20t-25 -29.5t-7.5 -28.5q0 -15 10.5 -22.5t23.5 -7.5q16 0 28 6l30 -84q-24 -16 -58.5 -26t-69.5 -10zM316 126q22 0 45 11.5t44.5 33t38 52.5t26.5 69.5t10 83.5q0 47 -11.5 80t-33 50.5t-51.5 17.5q-22 0 -45 -11.5t-44.5 -33t-38 -52.5t-26.5 -69.5
t-10 -83.5q0 -47 11.5 -80t33 -50.5t51.5 -17.5zM310 700l140 160h190l10 -18l-210 -142h-130z" />
    <glyph glyph-name="uni01720301" horiz-adv-x="654" 
d="M240 -228q-46 0 -77 23t-31 63q0 27 16 53.5t40.5 49.5t51.5 39l76 -12q-121 0 -181.5 57t-60.5 177q0 23 5 54t9 56l64 318h160l-70 -350q-3 -19 -5.5 -37.5t-2.5 -36.5q0 -49 18.5 -74.5t67.5 -25.5q29 0 49.5 13.5t35.5 47.5t27 95l74 368h156l-74 -364
q-27 -133 -76 -203.5t-142 -90.5q-33 -7 -53.5 -20t-30.5 -28t-10 -28q0 -15 10.5 -22.5t23.5 -7.5q6 0 13 1t15 5l30 -84q-24 -16 -58.5 -26t-69.5 -10zM310 700l140 160h190l10 -18l-210 -142h-130z" />
    <glyph glyph-name="uni01900328" horiz-adv-x="544" 
d="M222 -228q-46 0 -77 22.5t-31 63.5q0 33 19.5 62t44 50.5t40.5 31.5l50 -14q-111 0 -173.5 45.5t-62.5 121.5q0 33 12.5 62.5t34.5 53.5t52 41.5t65 25.5v4q-25 13 -42 31.5t-25.5 42t-8.5 49.5q0 53 31.5 97.5t88.5 72t134 27.5q59 0 112.5 -24.5t83.5 -69.5l-84 -90
q-24 26 -51.5 37t-60.5 11q-26 0 -48.5 -9t-36 -26t-13.5 -41q0 -25 17.5 -41.5t61.5 -16.5h67l-22 -114h-86q-35 0 -59.5 -11.5t-36.5 -30.5t-12 -42q0 -33 23 -51.5t65 -18.5q41 0 75 12.5t61 33.5l66 -100q-22 -19 -42.5 -32.5t-47.5 -24t-68 -19.5q-32 -7 -49.5 -20.5
t-24 -29t-6.5 -28.5q0 -15 10.5 -22.5t23.5 -7.5q16 0 28 6l30 -84q-24 -16 -58.5 -26t-69.5 -10z" />
    <glyph glyph-name="uni019B.c" horiz-adv-x="528" 
d="M70 472l18 90l96 6h398l-18 -96h-494zM430 650l-45 -228l103 -422h-166l-21 144q-6 38 -11 71.5t-11 72.5h-4q-19 -39 -37 -73.5t-39 -72.5l-78 -142h-172l276 422l46 228h159z" />
    <glyph glyph-name="agrave" unicode="&#xe0;" horiz-adv-x="558" 
d="M168 -12q-66 0 -103 48t-37 136q0 71 22 133t59.5 108.5t85 72.5t99.5 26q32 0 61.5 -16.5t42.5 -45.5h2l22 50h128l-100 -500h-130v62h-2q-33 -34 -73.5 -54t-76.5 -20zM240 118q20 0 44.5 13t43.5 53l32 160q-9 20 -24.5 29t-29.5 9q-22 0 -42 -14t-36 -39t-25 -60
t-9 -77q0 -39 12.5 -56.5t33.5 -17.5zM290 570l-130 172l10 18h170l70 -190h-120z" />
    <glyph glyph-name="aacute" unicode="&#xe1;" horiz-adv-x="558" 
d="M168 -12q-66 0 -103 48t-37 136q0 71 22 133t59.5 108.5t85 72.5t99.5 26q32 0 61.5 -16.5t42.5 -45.5h2l22 50h128l-100 -500h-130v62h-2q-33 -34 -73.5 -54t-76.5 -20zM240 118q20 0 44.5 13t43.5 53l32 160q-9 20 -24.5 29t-29.5 9q-22 0 -42 -14t-36 -39t-25 -60
t-9 -77q0 -39 12.5 -56.5t33.5 -17.5zM230 570l150 190h180l10 -18l-210 -172h-130z" />
    <glyph glyph-name="acircumflex" unicode="&#xe2;" horiz-adv-x="558" 
d="M168 -12q-66 0 -103 48t-37 136q0 71 22 133t59.5 108.5t85 72.5t99.5 26q32 0 61.5 -16.5t42.5 -45.5h2l22 50h128l-100 -500h-130v62h-2q-33 -34 -73.5 -54t-76.5 -20zM240 118q20 0 44.5 13t43.5 53l32 160q-9 20 -24.5 29t-29.5 9q-22 0 -42 -14t-36 -39t-25 -60
t-9 -77q0 -39 12.5 -56.5t33.5 -17.5zM130 570l160 200h160l80 -200h-120l-52 88h-4l-94 -88h-130z" />
    <glyph glyph-name="atilde" unicode="&#xe3;" horiz-adv-x="558" 
d="M168 -12q-66 0 -103 48t-37 136q0 71 22 133t59.5 108.5t85 72.5t99.5 26q32 0 61.5 -16.5t42.5 -45.5h2l22 50h128l-100 -500h-130v62h-2q-33 -34 -73.5 -54t-76.5 -20zM240 118q20 0 44.5 13t43.5 53l32 160q-9 20 -24.5 29t-29.5 9q-22 0 -42 -14t-36 -39t-25 -60
t-9 -77q0 -39 12.5 -56.5t33.5 -17.5zM416 572q-27 0 -46 8.5t-33.5 19.5t-27.5 19.5t-27 8.5q-12 0 -22.5 -9.5t-15.5 -36.5l-104 6q9 56 29 91t48.5 51t62.5 16q27 0 46 -8.5t33.5 -19.5t27.5 -19.5t27 -8.5q12 0 23 9.5t15 36.5l104 -6q-9 -56 -29 -91t-48 -51t-63 -16z
" />
    <glyph glyph-name="adieresis" unicode="&#xe4;" horiz-adv-x="558" 
d="M168 -12q-66 0 -103 48t-37 136q0 71 22 133t59.5 108.5t85 72.5t99.5 26q32 0 61.5 -16.5t42.5 -45.5h2l22 50h128l-100 -500h-130v62h-2q-33 -34 -73.5 -54t-76.5 -20zM240 118q20 0 44.5 13t43.5 53l32 160q-9 20 -24.5 29t-29.5 9q-22 0 -42 -14t-36 -39t-25 -60
t-9 -77q0 -39 12.5 -56.5t33.5 -17.5zM226 566q-28 0 -47 17t-19 49t24 57t60 25q28 0 47 -17.5t19 -48.5q0 -34 -24 -58t-60 -24zM446 566q-28 0 -47 17t-19 49t24 57t60 25q28 0 47 -17.5t19 -48.5q0 -34 -24 -58t-60 -24z" />
    <glyph glyph-name="aring" unicode="&#xe5;" horiz-adv-x="558" 
d="M168 -12q-66 0 -103 48t-37 136q0 71 22 133t59.5 108.5t85 72.5t99.5 26q32 0 61.5 -16.5t42.5 -45.5h2l22 50h128l-100 -500h-130v62h-2q-33 -34 -73.5 -54t-76.5 -20zM240 118q20 0 44.5 13t43.5 53l32 160q-9 20 -24.5 29t-29.5 9q-22 0 -42 -14t-36 -39t-25 -60
t-9 -77q0 -39 12.5 -56.5t33.5 -17.5zM336 570q-53 0 -87.5 24.5t-34.5 67.5q0 50 43.5 83t110.5 33q54 0 88 -24t34 -68q0 -49 -43.5 -82.5t-110.5 -33.5zM346 630q18 0 31 15.5t13 36.5q0 14 -7.5 25t-24.5 11q-18 0 -31 -15.5t-13 -36.5q0 -15 8 -25.5t24 -10.5z" />
    <glyph glyph-name="amacron" unicode="&#x101;" horiz-adv-x="558" 
d="M168 -12q-66 0 -103 48t-37 136q0 71 22 133t59.5 108.5t85 72.5t99.5 26q32 0 61.5 -16.5t42.5 -45.5h2l22 50h128l-100 -500h-130v62h-2q-33 -34 -73.5 -54t-76.5 -20zM240 118q20 0 44.5 13t43.5 53l32 160q-9 20 -24.5 29t-29.5 9q-22 0 -42 -14t-36 -39t-25 -60
t-9 -77q0 -39 12.5 -56.5t33.5 -17.5zM188 590l20 100h294l-20 -100h-294z" />
    <glyph glyph-name="abreve" unicode="&#x103;" horiz-adv-x="558" 
d="M168 -12q-66 0 -103 48t-37 136q0 71 22 133t59.5 108.5t85 72.5t99.5 26q32 0 61.5 -16.5t42.5 -45.5h2l22 50h128l-100 -500h-130v62h-2q-33 -34 -73.5 -54t-76.5 -20zM240 118q20 0 44.5 13t43.5 53l32 160q-9 20 -24.5 29t-29.5 9q-22 0 -42 -14t-36 -39t-25 -60
t-9 -77q0 -39 12.5 -56.5t33.5 -17.5zM332 572q-45 0 -78 16.5t-51.5 52t-18.5 91.5l100 16q0 -23 8 -38.5t23 -23.5t37 -8q24 0 41.5 9t29.5 25t19 36l92 -16q-9 -47 -33.5 -83t-66 -56.5t-102.5 -20.5z" />
    <glyph glyph-name="uni0227" unicode="&#x227;" horiz-adv-x="558" 
d="M168 -12q-66 0 -103 48t-37 136q0 71 22 133t59.5 108.5t85 72.5t99.5 26q32 0 61.5 -16.5t42.5 -45.5h2l22 50h128l-100 -500h-130v62h-2q-33 -34 -73.5 -54t-76.5 -20zM240 118q20 0 44.5 13t43.5 53l32 160q-9 20 -24.5 29t-29.5 9q-22 0 -42 -14t-36 -39t-25 -60
t-9 -77q0 -39 12.5 -56.5t33.5 -17.5zM340 564q-31 0 -57.5 18.5t-26.5 55.5q0 36 28 63t68 27q32 0 58 -19t26 -55q0 -39 -27.5 -64.5t-68.5 -25.5z" />
    <glyph glyph-name="uni01CE" unicode="&#x1ce;" horiz-adv-x="558" 
d="M168 -12q-66 0 -103 48t-37 136q0 71 22 133t59.5 108.5t85 72.5t99.5 26q32 0 61.5 -16.5t42.5 -45.5h2l22 50h128l-100 -500h-130v62h-2q-33 -34 -73.5 -54t-76.5 -20zM240 118q20 0 44.5 13t43.5 53l32 160q-9 20 -24.5 29t-29.5 9q-22 0 -42 -14t-36 -39t-25 -60
t-9 -77q0 -39 12.5 -56.5t33.5 -17.5zM260 570l-80 200h120l52 -88h4l94 88h130l-160 -200h-160z" />
    <glyph glyph-name="uni0201" unicode="&#x201;" horiz-adv-x="558" 
d="M168 -12q-66 0 -103 48t-37 136q0 71 22 133t59.5 108.5t85 72.5t99.5 26q32 0 61.5 -16.5t42.5 -45.5h2l22 50h128l-100 -500h-130v62h-2q-33 -34 -73.5 -54t-76.5 -20zM240 118q20 0 44.5 13t43.5 53l32 160q-9 20 -24.5 29t-29.5 9q-22 0 -42 -14t-36 -39t-25 -60
t-9 -77q0 -39 12.5 -56.5t33.5 -17.5zM180 570l-90 172l10 18h130l40 -190h-90zM360 570l-90 172l10 18h130l40 -190h-90z" />
    <glyph glyph-name="aogonek" unicode="&#x105;" horiz-adv-x="558" 
d="M332 -220q-42 0 -69 22t-27 62q0 28 12.5 54.5t32 47.5t39.5 34v62h-2q-33 -34 -73.5 -54t-76.5 -20q-66 0 -103 48t-37 136q0 71 22 133t59.5 108.5t85 72.5t99.5 26q32 0 61.5 -16.5t42.5 -45.5h2l22 50h128l-100 -500q-40 -9 -63 -34.5t-23 -55.5q0 -13 9.5 -20.5
t22.5 -7.5q11 0 17.5 2.5t12.5 5.5l30 -72q-24 -16 -55 -27t-69 -11zM240 118q20 0 44.5 13t43.5 53l32 160q-9 20 -24.5 29t-29.5 9q-22 0 -42 -14t-36 -39t-25 -60t-9 -77q0 -39 12.5 -56.5t33.5 -17.5z" />
    <glyph glyph-name="aogonek.d" horiz-adv-x="558" 
d="M186 -220q-42 0 -69 22t-27 62q0 28 14.5 54t37 47t46.5 35l22 -6q-6 -1 -18.5 -3.5t-23.5 -2.5q-66 0 -103 48t-37 136q0 71 22 133t59.5 108.5t85 72.5t99.5 26q32 0 61.5 -16.5t42.5 -45.5h2l22 50h128l-100 -500h-130v62h-2q-21 -19 -37.5 -36t-30.5 -34
q-16 -19 -24 -38t-8 -38q0 -16 9.5 -25t22.5 -9q17 0 30 8l30 -72q-24 -16 -56 -27t-68 -11zM240 118q20 0 44.5 13t43.5 53l32 160q-9 20 -24.5 29t-29.5 9q-22 0 -42 -14t-36 -39t-25 -60t-9 -77q0 -39 12.5 -56.5t33.5 -17.5z" />
    <glyph glyph-name="uni1EA1" unicode="&#x1ea1;" horiz-adv-x="558" 
d="M168 -12q-66 0 -103 48t-37 136q0 71 22 133t59.5 108.5t85 72.5t99.5 26q32 0 61.5 -16.5t42.5 -45.5h2l22 50h128l-100 -500h-130v62h-2q-33 -34 -73.5 -54t-76.5 -20zM240 118q20 0 44.5 13t43.5 53l32 160q-9 20 -24.5 29t-29.5 9q-22 0 -42 -14t-36 -39t-25 -60
t-9 -77q0 -39 12.5 -56.5t33.5 -17.5zM200 -246q-31 0 -57.5 18.5t-26.5 55.5q0 36 28 63t68 27q32 0 58 -19t26 -55q0 -39 -27.5 -64.5t-68.5 -25.5z" />
    <glyph glyph-name="uni1EA3" unicode="&#x1ea3;" horiz-adv-x="558" 
d="M168 -12q-66 0 -103 48t-37 136q0 71 22 133t59.5 108.5t85 72.5t99.5 26q32 0 61.5 -16.5t42.5 -45.5h2l22 50h128l-100 -500h-130v62h-2q-33 -34 -73.5 -54t-76.5 -20zM240 118q20 0 44.5 13t43.5 53l32 160q-9 20 -24.5 29t-29.5 9q-22 0 -42 -14t-36 -39t-25 -60
t-9 -77q0 -39 12.5 -56.5t33.5 -17.5zM272 566l-4 66q23 3 35.5 11.5t12.5 25.5q0 14 -16 22t-54 11l28 94q95 -1 133.5 -25t38.5 -69q0 -58 -46.5 -95.5t-127.5 -40.5z" />
    <glyph glyph-name="uni1EA5" unicode="&#x1ea5;" horiz-adv-x="558" 
d="M168 -12q-66 0 -103 48t-37 136q0 71 22 133t59.5 108.5t85 72.5t99.5 26q32 0 61.5 -16.5t42.5 -45.5h2l22 50h128l-100 -500h-130v62h-2q-33 -34 -73.5 -54t-76.5 -20zM240 118q20 0 44.5 13t43.5 53l32 160q-9 20 -24.5 29t-29.5 9q-22 0 -42 -14t-36 -39t-25 -60
t-9 -77q0 -39 12.5 -56.5t33.5 -17.5zM150 570l144 170h144l72 -170h-108l-47 76h-3l-85 -76h-117zM470 680l70 140h120l10 -18l-120 -122h-80z" />
    <glyph glyph-name="uni1EA7" unicode="&#x1ea7;" horiz-adv-x="558" 
d="M168 -12q-66 0 -103 48t-37 136q0 71 22 133t59.5 108.5t85 72.5t99.5 26q32 0 61.5 -16.5t42.5 -45.5h2l22 50h128l-100 -500h-130v62h-2q-33 -34 -73.5 -54t-76.5 -20zM240 118q20 0 44.5 13t43.5 53l32 160q-9 20 -24.5 29t-29.5 9q-22 0 -42 -14t-36 -39t-25 -60
t-9 -77q0 -39 12.5 -56.5t33.5 -17.5zM150 570l144 170h144l72 -170h-108l-47 76h-3l-85 -76h-117zM160 680l-70 122l10 18h110l20 -140h-70z" />
    <glyph glyph-name="uni1EA9" unicode="&#x1ea9;" horiz-adv-x="558" 
d="M168 -12q-66 0 -103 48t-37 136q0 71 22 133t59.5 108.5t85 72.5t99.5 26q32 0 61.5 -16.5t42.5 -45.5h2l22 50h128l-100 -500h-130v62h-2q-33 -34 -73.5 -54t-76.5 -20zM240 118q20 0 44.5 13t43.5 53l32 160q-9 20 -24.5 29t-29.5 9q-22 0 -42 -14t-36 -39t-25 -60
t-9 -77q0 -39 12.5 -56.5t33.5 -17.5zM492 650l-2 56q14 2 22 9t8 17q0 11 -11.5 17t-44.5 9l22 92q77 0 111.5 -22.5t34.5 -63.5q0 -46 -40 -77t-100 -37zM150 570l144 170h144l72 -170h-108l-47 76h-3l-85 -76h-117z" />
    <glyph glyph-name="uni1EAB" unicode="&#x1eab;" horiz-adv-x="558" 
d="M168 -12q-66 0 -103 48t-37 136q0 71 22 133t59.5 108.5t85 72.5t99.5 26q32 0 61.5 -16.5t42.5 -45.5h2l22 50h128l-100 -500h-130v62h-2q-33 -34 -73.5 -54t-76.5 -20zM240 118q20 0 44.5 13t43.5 53l32 160q-9 20 -24.5 29t-29.5 9q-22 0 -42 -14t-36 -39t-25 -60
t-9 -77q0 -39 12.5 -56.5t33.5 -17.5zM436 748q-30 0 -49 10.5t-33.5 21t-31.5 10.5q-16 0 -26 -8t-18 -28l-74 8q15 65 44.5 92.5t65.5 27.5q30 0 49 -10.5t33.5 -21t31.5 -10.5t27 8.5t17 27.5l74 -8q-15 -64 -44.5 -92t-65.5 -28zM150 572l142 148h144l74 -148h-108
l-49 54h-3l-83 -54h-117z" />
    <glyph glyph-name="uni1EAD" unicode="&#x1ead;" horiz-adv-x="558" 
d="M168 -12q-66 0 -103 48t-37 136q0 71 22 133t59.5 108.5t85 72.5t99.5 26q32 0 61.5 -16.5t42.5 -45.5h2l22 50h128l-100 -500h-130v62h-2q-33 -34 -73.5 -54t-76.5 -20zM240 118q20 0 44.5 13t43.5 53l32 160q-9 20 -24.5 29t-29.5 9q-22 0 -42 -14t-36 -39t-25 -60
t-9 -77q0 -39 12.5 -56.5t33.5 -17.5zM130 570l160 200h160l80 -200h-120l-52 88h-4l-94 -88h-130zM200 -246q-31 0 -57.5 18.5t-26.5 55.5q0 36 28 63t68 27q32 0 58 -19t26 -55q0 -39 -27.5 -64.5t-68.5 -25.5z" />
    <glyph glyph-name="uni1EAF" unicode="&#x1eaf;" horiz-adv-x="558" 
d="M168 -12q-66 0 -103 48t-37 136q0 71 22 133t59.5 108.5t85 72.5t99.5 26q32 0 61.5 -16.5t42.5 -45.5h2l22 50h128l-100 -500h-130v62h-2q-33 -34 -73.5 -54t-76.5 -20zM240 118q20 0 44.5 13t43.5 53l32 160q-9 20 -24.5 29t-29.5 9q-22 0 -42 -14t-36 -39t-25 -60
t-9 -77q0 -39 12.5 -56.5t33.5 -17.5zM332 572q-45 0 -78 17.5t-51.5 53t-18.5 89.5l90 16q0 -27 8.5 -44.5t25.5 -26.5t42 -9q27 0 47 10.5t33.5 28.5t21.5 41l82 -16q-9 -47 -33.5 -83t-66 -56.5t-102.5 -20.5zM310 740l70 140h120l10 -18l-120 -122h-80z" />
    <glyph glyph-name="uni1EB1" unicode="&#x1eb1;" horiz-adv-x="558" 
d="M168 -12q-66 0 -103 48t-37 136q0 71 22 133t59.5 108.5t85 72.5t99.5 26q32 0 61.5 -16.5t42.5 -45.5h2l22 50h128l-100 -500h-130v62h-2q-33 -34 -73.5 -54t-76.5 -20zM240 118q20 0 44.5 13t43.5 53l32 160q-9 20 -24.5 29t-29.5 9q-22 0 -42 -14t-36 -39t-25 -60
t-9 -77q0 -39 12.5 -56.5t33.5 -17.5zM332 572q-45 0 -78 17.5t-51.5 53t-18.5 89.5l90 16q0 -27 8.5 -44.5t25.5 -26.5t42 -9q27 0 47 10.5t33.5 28.5t21.5 41l82 -16q-9 -47 -33.5 -83t-66 -56.5t-102.5 -20.5zM340 740l-70 122l10 18h110l20 -140h-70z" />
    <glyph glyph-name="uni1EB3" unicode="&#x1eb3;" horiz-adv-x="558" 
d="M168 -12q-66 0 -103 48t-37 136q0 71 22 133t59.5 108.5t85 72.5t99.5 26q32 0 61.5 -16.5t42.5 -45.5h2l22 50h128l-100 -500h-130v62h-2q-33 -34 -73.5 -54t-76.5 -20zM240 118q20 0 44.5 13t43.5 53l32 160q-9 20 -24.5 29t-29.5 9q-22 0 -42 -14t-36 -39t-25 -60
t-9 -77q0 -39 12.5 -56.5t33.5 -17.5zM332 572q-45 0 -78 17.5t-51.5 53t-18.5 89.5l90 16q0 -27 8.5 -44.5t25.5 -26.5t42 -9q27 0 47 10.5t33.5 28.5t21.5 41l82 -16q-9 -47 -33.5 -83t-66 -56.5t-102.5 -20.5zM322 714l-2 56q14 2 22 8t8 18q0 11 -11.5 17t-44.5 9l22 92
q77 0 111.5 -22.5t34.5 -63.5q0 -46 -40 -77t-100 -37z" />
    <glyph glyph-name="uni1EB5" unicode="&#x1eb5;" horiz-adv-x="558" 
d="M168 -12q-66 0 -103 48t-37 136q0 71 22 133t59.5 108.5t85 72.5t99.5 26q32 0 61.5 -16.5t42.5 -45.5h2l22 50h128l-100 -500h-130v62h-2q-33 -34 -73.5 -54t-76.5 -20zM240 118q20 0 44.5 13t43.5 53l32 160q-9 20 -24.5 29t-29.5 9q-22 0 -42 -14t-36 -39t-25 -60
t-9 -77q0 -39 12.5 -56.5t33.5 -17.5zM332 572q-44 0 -75.5 17t-48 45.5t-16.5 63.5l84 14q3 -19 18 -32.5t52 -13.5q39 0 60 14t28 32l80 -14q-9 -34 -31.5 -63t-59.5 -46t-91 -17zM436 748q-22 0 -38 6.5t-28.5 14.5t-23.5 14.5t-24 6.5q-30 0 -44 -36l-74 8
q15 65 44.5 92.5t65.5 27.5q23 0 38.5 -6.5t28 -14.5t23.5 -14.5t24 -6.5q30 0 44 36l74 -8q-15 -64 -44.5 -92t-65.5 -28z" />
    <glyph glyph-name="uni1EB7" unicode="&#x1eb7;" horiz-adv-x="558" 
d="M168 -12q-66 0 -103 48t-37 136q0 71 22 133t59.5 108.5t85 72.5t99.5 26q32 0 61.5 -16.5t42.5 -45.5h2l22 50h128l-100 -500h-130v62h-2q-33 -34 -73.5 -54t-76.5 -20zM240 118q20 0 44.5 13t43.5 53l32 160q-9 20 -24.5 29t-29.5 9q-22 0 -42 -14t-36 -39t-25 -60
t-9 -77q0 -39 12.5 -56.5t33.5 -17.5zM332 572q-45 0 -78 16.5t-51.5 52t-18.5 91.5l100 16q0 -23 8 -38.5t23 -23.5t37 -8q24 0 41.5 9t29.5 25t19 36l92 -16q-9 -47 -33.5 -83t-66 -56.5t-102.5 -20.5zM200 -246q-31 0 -57.5 18.5t-26.5 55.5q0 36 28 63t68 27
q32 0 58 -19t26 -55q0 -39 -27.5 -64.5t-68.5 -25.5z" />
    <glyph glyph-name="aringacute" unicode="&#x1fb;" horiz-adv-x="558" 
d="M168 -12q-66 0 -103 48t-37 136q0 71 22 133t59.5 108.5t85 72.5t99.5 26q32 0 61.5 -16.5t42.5 -45.5h2l22 50h128l-100 -500h-130v62h-2q-33 -34 -73.5 -54t-76.5 -20zM240 118q20 0 44.5 13t43.5 53l32 160q-9 20 -24.5 29t-29.5 9q-22 0 -42 -14t-36 -39t-25 -60
t-9 -77q0 -39 12.5 -56.5t33.5 -17.5zM336 570q-53 0 -87.5 24.5t-34.5 67.5q0 20 7 36t19 30.5t28 29.5l142 132h140l10 -18l-173 -116l-19 12q54 0 88 -21.5t34 -60.5q0 -49 -43.5 -82.5t-110.5 -33.5zM346 630q18 0 31 15.5t13 36.5q0 14 -7.5 25t-24.5 11
q-18 0 -31 -15.5t-13 -36.5q0 -15 8 -25.5t24 -10.5z" />
    <glyph glyph-name="ae" unicode="&#xe6;" horiz-adv-x="752" 
d="M154 -12q-58 0 -97 34.5t-39 91.5q0 74 40.5 117t108.5 62t149 21q1 2 1.5 5.5t0.5 6.5q0 33 -16.5 47.5t-45.5 14.5q-24 0 -51.5 -9t-62.5 -27l-48 110q42 21 92.5 35.5t89.5 14.5q49 0 86 -13t56 -43q32 27 68 41.5t72 14.5q61 0 97.5 -26t52.5 -69t16 -95
q0 -25 -5 -50t-11 -44t-10 -26h-262q-1 -34 11.5 -54.5t34 -29t48.5 -8.5q21 0 46.5 8t41.5 20l52 -94q-31 -25 -76 -40.5t-98 -15.5q-52 0 -94.5 22t-64.5 53q-43 -35 -86 -55t-97 -20zM220 110q18 0 38.5 12t39.5 36l-2 28t0 32q-44 -1 -71 -11t-39 -26t-12 -35
q0 -16 12.5 -26t33.5 -10zM448 306h142q2 7 3 12t1 12q0 17 -5.5 30.5t-17.5 21.5t-33 8q-17 0 -33.5 -9t-31 -27.5t-25.5 -47.5z" />
    <glyph glyph-name="aeacute" unicode="&#x1fd;" horiz-adv-x="752" 
d="M154 -12q-58 0 -97 34.5t-39 91.5q0 74 40.5 117t108.5 62t149 21q1 2 1.5 5.5t0.5 6.5q0 33 -16.5 47.5t-45.5 14.5q-24 0 -51.5 -9t-62.5 -27l-48 110q42 21 92.5 35.5t89.5 14.5q49 0 86 -13t56 -43q32 27 68 41.5t72 14.5q61 0 97.5 -26t52.5 -69t16 -95
q0 -25 -5 -50t-11 -44t-10 -26h-262q-1 -34 11.5 -54.5t34 -29t48.5 -8.5q21 0 46.5 8t41.5 20l52 -94q-31 -25 -76 -40.5t-98 -15.5q-52 0 -94.5 22t-64.5 53q-43 -35 -86 -55t-97 -20zM220 110q18 0 38.5 12t39.5 36l-2 28t0 32q-44 -1 -71 -11t-39 -26t-12 -35
q0 -16 12.5 -26t33.5 -10zM448 306h142q2 7 3 12t1 12q0 17 -5.5 30.5t-17.5 21.5t-33 8q-17 0 -33.5 -9t-31 -27.5t-25.5 -47.5zM350 570l150 190h180l10 -18l-210 -172h-130z" />
    <glyph glyph-name="uni01E3" unicode="&#x1e3;" horiz-adv-x="752" 
d="M154 -12q-58 0 -97 34.5t-39 91.5q0 74 40.5 117t108.5 62t149 21q1 2 1.5 5.5t0.5 6.5q0 33 -16.5 47.5t-45.5 14.5q-24 0 -51.5 -9t-62.5 -27l-48 110q42 21 92.5 35.5t89.5 14.5q49 0 86 -13t56 -43q32 27 68 41.5t72 14.5q61 0 97.5 -26t52.5 -69t16 -95
q0 -25 -5 -50t-11 -44t-10 -26h-262q-1 -34 11.5 -54.5t34 -29t48.5 -8.5q21 0 46.5 8t41.5 20l52 -94q-31 -25 -76 -40.5t-98 -15.5q-52 0 -94.5 22t-64.5 53q-43 -35 -86 -55t-97 -20zM220 110q18 0 38.5 12t39.5 36l-2 28t0 32q-44 -1 -71 -11t-39 -26t-12 -35
q0 -16 12.5 -26t33.5 -10zM448 306h142q2 7 3 12t1 12q0 17 -5.5 30.5t-17.5 21.5t-33 8q-17 0 -33.5 -9t-31 -27.5t-25.5 -47.5zM308 590l20 100h294l-20 -100h-294z" />
    <glyph glyph-name="uni2C65" unicode="&#x2c65;" horiz-adv-x="558" 
d="M170 -68l-44 14l258 634l44 -14zM168 -12q-66 0 -103 48t-37 136q0 71 22 133t59.5 108.5t85 72.5t99.5 26q32 0 61.5 -16.5t42.5 -45.5h2l22 50h128l-100 -500h-130v62h-2q-33 -34 -73.5 -54t-76.5 -20zM240 118q20 0 44.5 13t43.5 53l32 160q-9 20 -24.5 29t-29.5 9
q-22 0 -42 -14t-36 -39t-25 -60t-9 -77q0 -39 12.5 -56.5t33.5 -17.5z" />
    <glyph glyph-name="uni0180" unicode="&#x180;" horiz-adv-x="556" 
d="M272 -12q-34 0 -64 17t-44 45h-2l-22 -50h-132l140 696h160l-38 -198l-26 -92h2q32 26 67 40t69 14q66 0 103 -47.5t37 -136.5q0 -60 -20.5 -112t-56 -91.5t-80 -62t-93.5 -22.5zM260 118q19 0 36 10t30.5 29t21.5 44t8 55q0 39 -12.5 56.5t-33.5 17.5q-19 0 -42.5 -11.5
t-41.5 -44.5l-26 -118q8 -19 25 -28.5t35 -9.5zM44 522l22 98l74 6h314l-24 -104h-386z" />
    <glyph glyph-name="uni0253" unicode="&#x253;" horiz-adv-x="560" 
d="M264 -12q-31 0 -58.5 17t-41.5 45h-2l-22 -50h-132l104 514q11 54 35 98t67.5 70t113.5 26q35 0 66.5 -6.5t59.5 -21.5l-50 -110q-13 6 -28 9t-32 3q-28 0 -44.5 -11t-25.5 -41v0l-26 -92h2q32 26 67 40t69 14q66 0 103 -45t37 -129q0 -69 -21 -129t-58 -105t-84 -70.5
t-99 -25.5zM252 118q22 0 41.5 13t34.5 37t23.5 57t8.5 73q0 34 -12.5 49t-33.5 15q-19 0 -42.5 -11.5t-41.5 -44.5l-30 -150q8 -19 22.5 -28.5t29.5 -9.5z" />
    <glyph glyph-name="uni1E03" unicode="&#x1e03;" horiz-adv-x="560" 
d="M264 -12q-31 0 -58.5 17t-41.5 45h-2l-22 -50h-132l140 696h160l-30 -146l-26 -92h2q32 26 67 40t69 14q66 0 103 -47.5t37 -136.5q0 -71 -22 -133t-59.5 -108.5t-85 -72.5t-99.5 -26zM252 118q22 0 42 14t36 39t25 60t9 77q0 39 -12.5 56.5t-33.5 17.5
q-19 0 -42.5 -11.5t-41.5 -44.5l-34 -170q8 -19 22.5 -28.5t29.5 -9.5zM430 564q-31 0 -57.5 18.5t-26.5 55.5q0 36 28 63t68 27q32 0 58 -19t26 -55q0 -39 -27.5 -64.5t-68.5 -25.5z" />
    <glyph glyph-name="uni1E07" unicode="&#x1e07;" horiz-adv-x="560" 
d="M264 -12q-31 0 -58.5 17t-41.5 45h-2l-22 -50h-132l140 696h160l-30 -146l-26 -92h2q32 26 67 40t69 14q66 0 103 -47.5t37 -136.5q0 -71 -22 -133t-59.5 -108.5t-85 -72.5t-99.5 -26zM252 118q22 0 42 14t36 39t25 60t9 77q0 39 -12.5 56.5t-33.5 17.5
q-19 0 -42.5 -11.5t-41.5 -44.5l-34 -170q8 -19 22.5 -28.5t29.5 -9.5zM48 -170l20 100h294l-20 -100h-294z" />
    <glyph glyph-name="ccedilla" unicode="&#xe7;" horiz-adv-x="446" 
d="M226 -12q-56 0 -101.5 24.5t-72 71t-26.5 112.5q0 63 22.5 120t63 101t94.5 69.5t118 25.5q50 0 85 -19.5t53 -42.5l-86 -92q-13 12 -26.5 19t-33.5 7q-26 0 -49 -15t-40.5 -40.5t-27 -59t-9.5 -71.5q0 -37 19 -59.5t53 -22.5q23 0 39 9t29 19l66 -90q-31 -30 -71 -48
t-99 -18zM60 -244v66q57 3 80.5 12t27.5 30q2 14 -11.5 24t-58.5 16l68 100h98l-40 -64q38 -9 54.5 -26.5t11.5 -49.5q-10 -54 -69.5 -79.5t-160.5 -28.5z" />
    <glyph glyph-name="cacute" unicode="&#x107;" horiz-adv-x="446" 
d="M226 -12q-56 0 -101.5 24.5t-72 71t-26.5 112.5q0 63 22.5 120t63 101t94.5 69.5t118 25.5q50 0 85 -19.5t53 -42.5l-86 -92q-13 12 -26.5 19t-33.5 7q-26 0 -49 -15t-40.5 -40.5t-27 -59t-9.5 -71.5q0 -37 19 -59.5t53 -22.5q23 0 39 9t29 19l66 -90q-31 -30 -71 -48
t-99 -18zM210 570l150 190h180l10 -18l-210 -172h-130z" />
    <glyph glyph-name="ccircumflex" unicode="&#x109;" horiz-adv-x="446" 
d="M226 -12q-56 0 -101.5 24.5t-72 71t-26.5 112.5q0 63 22.5 120t63 101t94.5 69.5t118 25.5q50 0 85 -19.5t53 -42.5l-86 -92q-13 12 -26.5 19t-33.5 7q-26 0 -49 -15t-40.5 -40.5t-27 -59t-9.5 -71.5q0 -37 19 -59.5t53 -22.5q23 0 39 9t29 19l66 -90q-31 -30 -71 -48
t-99 -18zM110 570l160 200h160l80 -200h-120l-52 88h-4l-94 -88h-130z" />
    <glyph glyph-name="cdotaccent" unicode="&#x10b;" horiz-adv-x="446" 
d="M226 -12q-56 0 -101.5 24.5t-72 71t-26.5 112.5q0 63 22.5 120t63 101t94.5 69.5t118 25.5q50 0 85 -19.5t53 -42.5l-86 -92q-13 12 -26.5 19t-33.5 7q-26 0 -49 -15t-40.5 -40.5t-27 -59t-9.5 -71.5q0 -37 19 -59.5t53 -22.5q23 0 39 9t29 19l66 -90q-31 -30 -71 -48
t-99 -18zM320 564q-31 0 -57.5 18.5t-26.5 55.5q0 36 28 63t68 27q32 0 58 -19t26 -55q0 -39 -27.5 -64.5t-68.5 -25.5z" />
    <glyph glyph-name="ccaron" unicode="&#x10d;" horiz-adv-x="446" 
d="M226 -12q-56 0 -101.5 24.5t-72 71t-26.5 112.5q0 63 22.5 120t63 101t94.5 69.5t118 25.5q50 0 85 -19.5t53 -42.5l-86 -92q-13 12 -26.5 19t-33.5 7q-26 0 -49 -15t-40.5 -40.5t-27 -59t-9.5 -71.5q0 -37 19 -59.5t53 -22.5q23 0 39 9t29 19l66 -90q-31 -30 -71 -48
t-99 -18zM240 570l-80 200h120l52 -88h4l94 88h130l-160 -200h-160z" />
    <glyph glyph-name="uni023C" unicode="&#x23c;" horiz-adv-x="446" 
d="M172 -68l-44 14l258 634l44 -14zM226 -12q-56 0 -101.5 24.5t-72 71t-26.5 112.5q0 63 22.5 120t63 101t94.5 69.5t118 25.5q50 0 85 -19.5t53 -42.5l-86 -92q-13 12 -26.5 19t-33.5 7q-26 0 -49 -15t-40.5 -40.5t-27 -59t-9.5 -71.5q0 -37 19 -59.5t53 -22.5q23 0 39 9
t29 19l66 -90q-31 -30 -71 -48t-99 -18z" />
    <glyph glyph-name="uni1E0B" unicode="&#x1e0b;" horiz-adv-x="550" 
d="M168 -12q-66 0 -103 48t-37 136q0 71 22 133t59.5 108.5t85 72.5t99.5 26q32 0 57.5 -15t38.5 -41h2l10 94l28 146h160l-140 -696h-130v62h-2q-33 -34 -73.5 -54t-76.5 -20zM240 118q20 0 43.5 13t44.5 53l32 160q-9 20 -24.5 29t-29.5 9q-22 0 -42 -14t-36 -39t-25 -60
t-9 -77q0 -39 12.5 -56.5t33.5 -17.5zM280 564q-31 0 -57.5 18.5t-26.5 55.5q0 36 28 63t68 27q32 0 58 -19t26 -55q0 -39 -27.5 -64.5t-68.5 -25.5z" />
    <glyph glyph-name="dcaron" unicode="&#x10f;" horiz-adv-x="580" 
d="M168 -12q-66 0 -103 48t-37 136q0 71 22 133t59.5 108.5t85 72.5t99.5 26q32 0 57.5 -15t38.5 -41h2l10 94l28 146h160l-140 -696h-130v62h-2q-33 -34 -73.5 -54t-76.5 -20zM240 118q20 0 43.5 13t44.5 53l32 160q-9 20 -24.5 29t-29.5 9q-22 0 -42 -14t-36 -39t-25 -60
t-9 -77q0 -39 12.5 -56.5t33.5 -17.5zM596 548l40 226h100l-16 -74l-56 -152h-68z" />
    <glyph glyph-name="uni1E0D" unicode="&#x1e0d;" horiz-adv-x="550" 
d="M168 -12q-66 0 -103 48t-37 136q0 71 22 133t59.5 108.5t85 72.5t99.5 26q32 0 57.5 -15t38.5 -41h2l10 94l28 146h160l-140 -696h-130v62h-2q-33 -34 -73.5 -54t-76.5 -20zM240 118q20 0 43.5 13t44.5 53l32 160q-9 20 -24.5 29t-29.5 9q-22 0 -42 -14t-36 -39t-25 -60
t-9 -77q0 -39 12.5 -56.5t33.5 -17.5zM190 -246q-31 0 -57.5 18.5t-26.5 55.5q0 36 28 63t68 27q32 0 58 -19t26 -55q0 -39 -27.5 -64.5t-68.5 -25.5z" />
    <glyph glyph-name="uni1E0F" unicode="&#x1e0f;" horiz-adv-x="550" 
d="M168 -12q-66 0 -103 48t-37 136q0 71 22 133t59.5 108.5t85 72.5t99.5 26q32 0 57.5 -15t38.5 -41h2l10 94l28 146h160l-140 -696h-130v62h-2q-33 -34 -73.5 -54t-76.5 -20zM240 118q20 0 43.5 13t44.5 53l32 160q-9 20 -24.5 29t-29.5 9q-22 0 -42 -14t-36 -39t-25 -60
t-9 -77q0 -39 12.5 -56.5t33.5 -17.5zM48 -170l20 100h294l-20 -100h-294z" />
    <glyph glyph-name="uni1E11" unicode="&#x1e11;" horiz-adv-x="550" 
d="M168 -12q-66 0 -103 48t-37 136q0 71 22 133t59.5 108.5t85 72.5t99.5 26q32 0 57.5 -15t38.5 -41h2l10 94l28 146h160l-140 -696h-130v62h-2q-33 -34 -73.5 -54t-76.5 -20zM240 118q20 0 43.5 13t44.5 53l32 160q-9 20 -24.5 29t-29.5 9q-22 0 -42 -14t-36 -39t-25 -60
t-9 -77q0 -39 12.5 -56.5t33.5 -17.5zM20 -244v66q57 3 80.5 12t27.5 30q2 14 -11.5 24t-58.5 16l68 100h98l-40 -64q38 -9 54.5 -26.5t11.5 -49.5q-10 -54 -69.5 -79.5t-160.5 -28.5z" />
    <glyph glyph-name="dcroat" unicode="&#x111;" horiz-adv-x="560" 
d="M168 -12q-66 0 -103 48t-37 136q0 60 20.5 112.5t56 92t80 61.5t91.5 22q35 0 63 -15t41 -41h2l10 94l38 198h160l-140 -696h-130v62h-2q-33 -34 -73.5 -54t-76.5 -20zM240 118q20 0 43.5 13t44.5 53l22 108q-7 18 -24 28t-38 10q-17 0 -34 -10t-30.5 -29t-21.5 -44
t-8 -55q0 -39 12.5 -56.5t33.5 -17.5zM238 522l24 104h386l-22 -98l-74 -6h-314z" />
    <glyph glyph-name="egrave" unicode="&#xe8;" horiz-adv-x="502" 
d="M246 -12q-100 0 -160 58t-60 158q0 69 25 125.5t66 97.5t91 63t100 22q61 0 97.5 -26t52.5 -69t16 -95q0 -25 -5 -50t-11 -44t-10 -26h-302l12 104h182q2 5 3 11t1 13q0 17 -5 30.5t-17.5 21.5t-33.5 8q-16 0 -35.5 -8t-37.5 -27.5t-29.5 -53t-11.5 -85.5q0 -41 14.5 -64
t38.5 -32.5t53 -9.5q21 0 46.5 8t41.5 20l52 -94q-31 -25 -76 -40.5t-98 -15.5zM290 570l-130 172l10 18h170l70 -190h-120z" />
    <glyph glyph-name="eacute" unicode="&#xe9;" horiz-adv-x="502" 
d="M246 -12q-100 0 -160 58t-60 158q0 69 25 125.5t66 97.5t91 63t100 22q61 0 97.5 -26t52.5 -69t16 -95q0 -25 -5 -50t-11 -44t-10 -26h-302l12 104h182q2 5 3 11t1 13q0 17 -5 30.5t-17.5 21.5t-33.5 8q-16 0 -35.5 -8t-37.5 -27.5t-29.5 -53t-11.5 -85.5q0 -41 14.5 -64
t38.5 -32.5t53 -9.5q21 0 46.5 8t41.5 20l52 -94q-31 -25 -76 -40.5t-98 -15.5zM230 570l150 190h180l10 -18l-210 -172h-130z" />
    <glyph glyph-name="ecircumflex" unicode="&#xea;" horiz-adv-x="502" 
d="M246 -12q-100 0 -160 58t-60 158q0 69 25 125.5t66 97.5t91 63t100 22q61 0 97.5 -26t52.5 -69t16 -95q0 -25 -5 -50t-11 -44t-10 -26h-302l12 104h182q2 5 3 11t1 13q0 17 -5 30.5t-17.5 21.5t-33.5 8q-16 0 -35.5 -8t-37.5 -27.5t-29.5 -53t-11.5 -85.5q0 -41 14.5 -64
t38.5 -32.5t53 -9.5q21 0 46.5 8t41.5 20l52 -94q-31 -25 -76 -40.5t-98 -15.5zM130 570l160 200h160l80 -200h-120l-52 88h-4l-94 -88h-130z" />
    <glyph glyph-name="uni1EBD" unicode="&#x1ebd;" horiz-adv-x="502" 
d="M246 -12q-100 0 -160 58t-60 158q0 69 25 125.5t66 97.5t91 63t100 22q61 0 97.5 -26t52.5 -69t16 -95q0 -25 -5 -50t-11 -44t-10 -26h-302l12 104h182q2 5 3 11t1 13q0 17 -5 30.5t-17.5 21.5t-33.5 8q-16 0 -35.5 -8t-37.5 -27.5t-29.5 -53t-11.5 -85.5q0 -41 14.5 -64
t38.5 -32.5t53 -9.5q21 0 46.5 8t41.5 20l52 -94q-31 -25 -76 -40.5t-98 -15.5zM416 572q-27 0 -46 8.5t-33.5 19.5t-27.5 19.5t-27 8.5q-12 0 -22.5 -9.5t-15.5 -36.5l-104 6q9 56 29 91t48.5 51t62.5 16q27 0 46 -8.5t33.5 -19.5t27.5 -19.5t27 -8.5q12 0 23 9.5t15 36.5
l104 -6q-9 -56 -29 -91t-48 -51t-63 -16z" />
    <glyph glyph-name="edieresis" unicode="&#xeb;" horiz-adv-x="502" 
d="M246 -12q-100 0 -160 58t-60 158q0 69 25 125.5t66 97.5t91 63t100 22q61 0 97.5 -26t52.5 -69t16 -95q0 -25 -5 -50t-11 -44t-10 -26h-302l12 104h182q2 5 3 11t1 13q0 17 -5 30.5t-17.5 21.5t-33.5 8q-16 0 -35.5 -8t-37.5 -27.5t-29.5 -53t-11.5 -85.5q0 -41 14.5 -64
t38.5 -32.5t53 -9.5q21 0 46.5 8t41.5 20l52 -94q-31 -25 -76 -40.5t-98 -15.5zM226 566q-28 0 -47 17t-19 49t24 57t60 25q28 0 47 -17.5t19 -48.5q0 -34 -24 -58t-60 -24zM446 566q-28 0 -47 17t-19 49t24 57t60 25q28 0 47 -17.5t19 -48.5q0 -34 -24 -58t-60 -24z" />
    <glyph glyph-name="emacron" unicode="&#x113;" horiz-adv-x="502" 
d="M246 -12q-100 0 -160 58t-60 158q0 69 25 125.5t66 97.5t91 63t100 22q61 0 97.5 -26t52.5 -69t16 -95q0 -25 -5 -50t-11 -44t-10 -26h-302l12 104h182q2 5 3 11t1 13q0 17 -5 30.5t-17.5 21.5t-33.5 8q-16 0 -35.5 -8t-37.5 -27.5t-29.5 -53t-11.5 -85.5q0 -41 14.5 -64
t38.5 -32.5t53 -9.5q21 0 46.5 8t41.5 20l52 -94q-31 -25 -76 -40.5t-98 -15.5zM188 590l20 100h294l-20 -100h-294z" />
    <glyph glyph-name="ebreve" unicode="&#x115;" horiz-adv-x="502" 
d="M246 -12q-100 0 -160 58t-60 158q0 69 25 125.5t66 97.5t91 63t100 22q61 0 97.5 -26t52.5 -69t16 -95q0 -25 -5 -50t-11 -44t-10 -26h-302l12 104h182q2 5 3 11t1 13q0 17 -5 30.5t-17.5 21.5t-33.5 8q-16 0 -35.5 -8t-37.5 -27.5t-29.5 -53t-11.5 -85.5q0 -41 14.5 -64
t38.5 -32.5t53 -9.5q21 0 46.5 8t41.5 20l52 -94q-31 -25 -76 -40.5t-98 -15.5zM332 572q-45 0 -78 16.5t-51.5 52t-18.5 91.5l100 16q0 -23 8 -38.5t23 -23.5t37 -8q24 0 41.5 9t29.5 25t19 36l92 -16q-9 -47 -33.5 -83t-66 -56.5t-102.5 -20.5z" />
    <glyph glyph-name="edotaccent" unicode="&#x117;" horiz-adv-x="502" 
d="M246 -12q-100 0 -160 58t-60 158q0 69 25 125.5t66 97.5t91 63t100 22q61 0 97.5 -26t52.5 -69t16 -95q0 -25 -5 -50t-11 -44t-10 -26h-302l12 104h182q2 5 3 11t1 13q0 17 -5 30.5t-17.5 21.5t-33.5 8q-16 0 -35.5 -8t-37.5 -27.5t-29.5 -53t-11.5 -85.5q0 -41 14.5 -64
t38.5 -32.5t53 -9.5q21 0 46.5 8t41.5 20l52 -94q-31 -25 -76 -40.5t-98 -15.5zM340 564q-31 0 -57.5 18.5t-26.5 55.5q0 36 28 63t68 27q32 0 58 -19t26 -55q0 -39 -27.5 -64.5t-68.5 -25.5z" />
    <glyph glyph-name="ecaron" unicode="&#x11b;" horiz-adv-x="502" 
d="M246 -12q-100 0 -160 58t-60 158q0 69 25 125.5t66 97.5t91 63t100 22q61 0 97.5 -26t52.5 -69t16 -95q0 -25 -5 -50t-11 -44t-10 -26h-302l12 104h182q2 5 3 11t1 13q0 17 -5 30.5t-17.5 21.5t-33.5 8q-16 0 -35.5 -8t-37.5 -27.5t-29.5 -53t-11.5 -85.5q0 -41 14.5 -64
t38.5 -32.5t53 -9.5q21 0 46.5 8t41.5 20l52 -94q-31 -25 -76 -40.5t-98 -15.5zM260 570l-80 200h120l52 -88h4l94 88h130l-160 -200h-160z" />
    <glyph glyph-name="uni0205" unicode="&#x205;" horiz-adv-x="502" 
d="M246 -12q-100 0 -160 58t-60 158q0 69 25 125.5t66 97.5t91 63t100 22q61 0 97.5 -26t52.5 -69t16 -95q0 -25 -5 -50t-11 -44t-10 -26h-302l12 104h182q2 5 3 11t1 13q0 17 -5 30.5t-17.5 21.5t-33.5 8q-16 0 -35.5 -8t-37.5 -27.5t-29.5 -53t-11.5 -85.5q0 -41 14.5 -64
t38.5 -32.5t53 -9.5q21 0 46.5 8t41.5 20l52 -94q-31 -25 -76 -40.5t-98 -15.5zM180 570l-90 172l10 18h130l40 -190h-90zM360 570l-90 172l10 18h130l40 -190h-90z" />
    <glyph glyph-name="eogonek" unicode="&#x119;" horiz-adv-x="502" 
d="M256 -220q-42 0 -69 22t-27 62q0 39 27.5 74t66.5 62l16 -10l-12 -1.5t-12 -0.5q-100 0 -160 58t-60 158q0 69 25 125.5t66 97.5t91 63t100 22q61 0 97.5 -26t52.5 -69t16 -95q0 -25 -5 -50t-11 -44t-10 -26h-302l12 104h182q2 5 3 11t1 13q0 17 -5 30.5t-17.5 21.5
t-33.5 8q-16 0 -35.5 -8t-37.5 -27.5t-29.5 -53t-11.5 -85.5q0 -41 14.5 -64t38.5 -32.5t53 -9.5q21 0 46.5 8t41.5 20l52 -94q-76 -41 -104 -72.5t-28 -61.5q0 -13 9.5 -20.5t22.5 -7.5q11 0 17.5 2.5t12.5 5.5l30 -72q-24 -16 -55 -27t-69 -11z" />
    <glyph glyph-name="eogonek.d" horiz-adv-x="502" 
d="M196 -220q-42 0 -69 22t-27 62q0 28 14.5 54t37 47t46.5 35l48 -12q-100 0 -160 58t-60 158q0 69 25 125.5t66 97.5t91 63t100 22q61 0 97.5 -26t52.5 -69t16 -95q0 -25 -5 -50t-11 -44t-10 -26h-302l12 104h182q2 5 3 11t1 13q0 17 -5 30.5t-17.5 21.5t-33.5 8
q-16 0 -35.5 -8t-37.5 -27.5t-29.5 -53t-11.5 -85.5q0 -41 14.5 -64t38.5 -32.5t53 -9.5q21 0 46.5 8t41.5 20l52 -94q-26 -19 -49 -30t-55 -20q-46 -13 -67 -34t-21 -50q0 -13 9.5 -20.5t22.5 -7.5q11 0 17.5 2.5t12.5 5.5l30 -72q-24 -16 -55 -27t-69 -11z" />
    <glyph glyph-name="uni1EB9" unicode="&#x1eb9;" horiz-adv-x="502" 
d="M246 -12q-100 0 -160 58t-60 158q0 69 25 125.5t66 97.5t91 63t100 22q61 0 97.5 -26t52.5 -69t16 -95q0 -25 -5 -50t-11 -44t-10 -26h-302l12 104h182q2 5 3 11t1 13q0 17 -5 30.5t-17.5 21.5t-33.5 8q-16 0 -35.5 -8t-37.5 -27.5t-29.5 -53t-11.5 -85.5q0 -41 14.5 -64
t38.5 -32.5t53 -9.5q21 0 46.5 8t41.5 20l52 -94q-31 -25 -76 -40.5t-98 -15.5zM180 -246q-31 0 -57.5 18.5t-26.5 55.5q0 36 28 63t68 27q32 0 58 -19t26 -55q0 -39 -27.5 -64.5t-68.5 -25.5z" />
    <glyph glyph-name="uni1EBB" unicode="&#x1ebb;" horiz-adv-x="502" 
d="M246 -12q-100 0 -160 58t-60 158q0 69 25 125.5t66 97.5t91 63t100 22q61 0 97.5 -26t52.5 -69t16 -95q0 -25 -5 -50t-11 -44t-10 -26h-302l12 104h182q2 5 3 11t1 13q0 17 -5 30.5t-17.5 21.5t-33.5 8q-16 0 -35.5 -8t-37.5 -27.5t-29.5 -53t-11.5 -85.5q0 -41 14.5 -64
t38.5 -32.5t53 -9.5q21 0 46.5 8t41.5 20l52 -94q-31 -25 -76 -40.5t-98 -15.5zM272 566l-4 66q23 3 35.5 11.5t12.5 25.5q0 14 -16 22t-54 11l28 94q95 -1 133.5 -25t38.5 -69q0 -58 -46.5 -95.5t-127.5 -40.5z" />
    <glyph glyph-name="uni1EBF" unicode="&#x1ebf;" horiz-adv-x="502" 
d="M246 -12q-100 0 -160 58t-60 158q0 69 25 125.5t66 97.5t91 63t100 22q61 0 97.5 -26t52.5 -69t16 -95q0 -25 -5 -50t-11 -44t-10 -26h-302l12 104h182q2 5 3 11t1 13q0 17 -5 30.5t-17.5 21.5t-33.5 8q-16 0 -35.5 -8t-37.5 -27.5t-29.5 -53t-11.5 -85.5q0 -41 14.5 -64
t38.5 -32.5t53 -9.5q21 0 46.5 8t41.5 20l52 -94q-31 -25 -76 -40.5t-98 -15.5zM150 570l144 170h144l72 -170h-108l-47 76h-3l-85 -76h-117zM470 680l70 140h120l10 -18l-120 -122h-80z" />
    <glyph glyph-name="uni1EC1" unicode="&#x1ec1;" horiz-adv-x="502" 
d="M246 -12q-100 0 -160 58t-60 158q0 69 25 125.5t66 97.5t91 63t100 22q61 0 97.5 -26t52.5 -69t16 -95q0 -25 -5 -50t-11 -44t-10 -26h-302l12 104h182q2 5 3 11t1 13q0 17 -5 30.5t-17.5 21.5t-33.5 8q-16 0 -35.5 -8t-37.5 -27.5t-29.5 -53t-11.5 -85.5q0 -41 14.5 -64
t38.5 -32.5t53 -9.5q21 0 46.5 8t41.5 20l52 -94q-31 -25 -76 -40.5t-98 -15.5zM150 570l144 170h144l72 -170h-108l-47 76h-3l-85 -76h-117zM160 680l-70 122l10 18h110l20 -140h-70z" />
    <glyph glyph-name="uni1EC3" unicode="&#x1ec3;" horiz-adv-x="502" 
d="M246 -12q-100 0 -160 58t-60 158q0 69 25 125.5t66 97.5t91 63t100 22q61 0 97.5 -26t52.5 -69t16 -95q0 -25 -5 -50t-11 -44t-10 -26h-302l12 104h182q2 5 3 11t1 13q0 17 -5 30.5t-17.5 21.5t-33.5 8q-16 0 -35.5 -8t-37.5 -27.5t-29.5 -53t-11.5 -85.5q0 -41 14.5 -64
t38.5 -32.5t53 -9.5q21 0 46.5 8t41.5 20l52 -94q-31 -25 -76 -40.5t-98 -15.5zM492 650l-2 56q14 2 22 9t8 17q0 11 -11.5 17t-44.5 9l22 92q77 0 111.5 -22.5t34.5 -63.5q0 -46 -40 -77t-100 -37zM150 570l144 170h144l72 -170h-108l-47 76h-3l-85 -76h-117z" />
    <glyph glyph-name="uni1EC5" unicode="&#x1ec5;" horiz-adv-x="502" 
d="M246 -12q-100 0 -160 58t-60 158q0 69 25 125.5t66 97.5t91 63t100 22q61 0 97.5 -26t52.5 -69t16 -95q0 -25 -5 -50t-11 -44t-10 -26h-302l12 104h182q2 5 3 11t1 13q0 17 -5 30.5t-17.5 21.5t-33.5 8q-16 0 -35.5 -8t-37.5 -27.5t-29.5 -53t-11.5 -85.5q0 -41 14.5 -64
t38.5 -32.5t53 -9.5q21 0 46.5 8t41.5 20l52 -94q-31 -25 -76 -40.5t-98 -15.5zM436 748q-30 0 -49 10.5t-33.5 21t-31.5 10.5q-16 0 -26 -8t-18 -28l-74 8q15 65 44.5 92.5t65.5 27.5q30 0 49 -10.5t33.5 -21t31.5 -10.5t27 8.5t17 27.5l74 -8q-15 -64 -44.5 -92t-65.5 -28
zM150 572l142 148h144l74 -148h-108l-49 54h-3l-83 -54h-117z" />
    <glyph glyph-name="uni1EC7" unicode="&#x1ec7;" horiz-adv-x="502" 
d="M246 -12q-100 0 -160 58t-60 158q0 69 25 125.5t66 97.5t91 63t100 22q61 0 97.5 -26t52.5 -69t16 -95q0 -25 -5 -50t-11 -44t-10 -26h-302l12 104h182q2 5 3 11t1 13q0 17 -5 30.5t-17.5 21.5t-33.5 8q-16 0 -35.5 -8t-37.5 -27.5t-29.5 -53t-11.5 -85.5q0 -41 14.5 -64
t38.5 -32.5t53 -9.5q21 0 46.5 8t41.5 20l52 -94q-31 -25 -76 -40.5t-98 -15.5zM130 570l160 200h160l80 -200h-120l-52 88h-4l-94 -88h-130zM180 -246q-31 0 -57.5 18.5t-26.5 55.5q0 36 28 63t68 27q32 0 58 -19t26 -55q0 -39 -27.5 -64.5t-68.5 -25.5z" />
    <glyph glyph-name="uni1E17" unicode="&#x1e17;" horiz-adv-x="502" 
d="M246 -12q-100 0 -160 58t-60 158q0 69 25 125.5t66 97.5t91 63t100 22q61 0 97.5 -26t52.5 -69t16 -95q0 -25 -5 -50t-11 -44t-10 -26h-302l12 104h182q2 5 3 11t1 13q0 17 -5 30.5t-17.5 21.5t-33.5 8q-16 0 -35.5 -8t-37.5 -27.5t-29.5 -53t-11.5 -85.5q0 -41 14.5 -64
t38.5 -32.5t53 -9.5q21 0 46.5 8t41.5 20l52 -94q-31 -25 -76 -40.5t-98 -15.5zM188 594l20 100h294l-20 -100h-294zM290 740l110 140h140l10 -18l-160 -122h-100z" />
    <glyph glyph-name="uni01DD" unicode="&#x1dd;" horiz-adv-x="502" 
d="M200 -12q-64 0 -102.5 26t-56 69t-17.5 95q0 25 5 50t11 44t10 26h302l-12 -104h-182q-1 -5 -2.5 -11t-1.5 -13q0 -17 6.5 -30.5t21 -21.5t38.5 -8q14 0 32 8t34.5 27.5t27 53t10.5 85.5q0 41 -12.5 64t-32.5 32.5t-45 9.5q-21 0 -46 -8t-42 -20l-52 94q32 26 77 41
t97 15q93 0 148.5 -57.5t55.5 -158.5q0 -69 -24 -125.5t-63.5 -97.5t-87.5 -63t-97 -22z" />
    <glyph glyph-name="uni1E1F" unicode="&#x1e1f;" horiz-adv-x="344" 
d="M34 0l76 376h-68l24 118l70 6l2 14q10 52 34.5 96t66.5 71t105 27q30 0 59.5 -7t54.5 -21l-50 -110q-7 5 -21.5 8.5t-26.5 3.5q-24 0 -39 -10.5t-23 -51.5l-4 -20h82l-24 -124h-84l-74 -376h-160zM346 736q-31 0 -57.5 18.5t-26.5 55.5q0 36 28 63t68 27q32 0 58 -19
t26 -55q0 -39 -27.5 -64.5t-68.5 -25.5z" />
    <glyph glyph-name="uni01F5" unicode="&#x1f5;" horiz-adv-x="552" 
d="M180 -196q-42 0 -91.5 15t-94.5 55l66 100q29 -19 60 -31.5t64 -12.5q41 0 69.5 19.5t40.5 56.5l26 82q-31 -33 -69 -50.5t-77 -17.5q-63 0 -104.5 43t-41.5 131q0 67 21 124.5t57.5 101t83 68t98.5 24.5q32 0 60.5 -16.5t41.5 -45.5h2l22 50h130l-96 -480
q-22 -112 -91.5 -164t-176.5 -52zM238 150q21 0 45 11t43 45l26 138q-9 20 -23.5 29t-28.5 9q-22 0 -41 -12t-33.5 -34.5t-23 -53t-8.5 -68.5q0 -33 12.5 -48.5t31.5 -15.5zM220 570l150 190h180l10 -18l-210 -172h-130z" />
    <glyph glyph-name="gcircumflex" unicode="&#x11d;" horiz-adv-x="552" 
d="M180 -196q-42 0 -91.5 15t-94.5 55l66 100q29 -19 60 -31.5t64 -12.5q41 0 69.5 19.5t40.5 56.5l26 82q-31 -33 -69 -50.5t-77 -17.5q-63 0 -104.5 43t-41.5 131q0 67 21 124.5t57.5 101t83 68t98.5 24.5q32 0 60.5 -16.5t41.5 -45.5h2l22 50h130l-96 -480
q-22 -112 -91.5 -164t-176.5 -52zM238 150q21 0 45 11t43 45l26 138q-9 20 -23.5 29t-28.5 9q-22 0 -41 -12t-33.5 -34.5t-23 -53t-8.5 -68.5q0 -33 12.5 -48.5t31.5 -15.5zM120 570l160 200h160l80 -200h-120l-52 88h-4l-94 -88h-130z" />
    <glyph glyph-name="uni1E21" unicode="&#x1e21;" horiz-adv-x="552" 
d="M180 -196q-42 0 -91.5 15t-94.5 55l66 100q29 -19 60 -31.5t64 -12.5q41 0 69.5 19.5t40.5 56.5l26 82q-31 -33 -69 -50.5t-77 -17.5q-63 0 -104.5 43t-41.5 131q0 67 21 124.5t57.5 101t83 68t98.5 24.5q32 0 60.5 -16.5t41.5 -45.5h2l22 50h130l-96 -480
q-22 -112 -91.5 -164t-176.5 -52zM238 150q21 0 45 11t43 45l26 138q-9 20 -23.5 29t-28.5 9q-22 0 -41 -12t-33.5 -34.5t-23 -53t-8.5 -68.5q0 -33 12.5 -48.5t31.5 -15.5zM178 590l20 100h294l-20 -100h-294z" />
    <glyph glyph-name="gbreve" unicode="&#x11f;" horiz-adv-x="552" 
d="M180 -196q-42 0 -91.5 15t-94.5 55l66 100q29 -19 60 -31.5t64 -12.5q41 0 69.5 19.5t40.5 56.5l26 82q-31 -33 -69 -50.5t-77 -17.5q-63 0 -104.5 43t-41.5 131q0 67 21 124.5t57.5 101t83 68t98.5 24.5q32 0 60.5 -16.5t41.5 -45.5h2l22 50h130l-96 -480
q-22 -112 -91.5 -164t-176.5 -52zM238 150q21 0 45 11t43 45l26 138q-9 20 -23.5 29t-28.5 9q-22 0 -41 -12t-33.5 -34.5t-23 -53t-8.5 -68.5q0 -33 12.5 -48.5t31.5 -15.5zM322 572q-45 0 -78 16.5t-51.5 52t-18.5 91.5l100 16q0 -23 8 -38.5t23 -23.5t37 -8q24 0 41.5 9
t29.5 25t19 36l92 -16q-9 -47 -33.5 -83t-66 -56.5t-102.5 -20.5z" />
    <glyph glyph-name="gdotaccent" unicode="&#x121;" horiz-adv-x="552" 
d="M180 -196q-42 0 -91.5 15t-94.5 55l66 100q29 -19 60 -31.5t64 -12.5q41 0 69.5 19.5t40.5 56.5l26 82q-31 -33 -69 -50.5t-77 -17.5q-63 0 -104.5 43t-41.5 131q0 67 21 124.5t57.5 101t83 68t98.5 24.5q32 0 60.5 -16.5t41.5 -45.5h2l22 50h130l-96 -480
q-22 -112 -91.5 -164t-176.5 -52zM238 150q21 0 45 11t43 45l26 138q-9 20 -23.5 29t-28.5 9q-22 0 -41 -12t-33.5 -34.5t-23 -53t-8.5 -68.5q0 -33 12.5 -48.5t31.5 -15.5zM330 564q-31 0 -57.5 18.5t-26.5 55.5q0 36 28 63t68 27q32 0 58 -19t26 -55q0 -39 -27.5 -64.5
t-68.5 -25.5z" />
    <glyph glyph-name="gcaron" unicode="&#x1e7;" horiz-adv-x="552" 
d="M180 -196q-42 0 -91.5 15t-94.5 55l66 100q29 -19 60 -31.5t64 -12.5q41 0 69.5 19.5t40.5 56.5l26 82q-31 -33 -69 -50.5t-77 -17.5q-63 0 -104.5 43t-41.5 131q0 67 21 124.5t57.5 101t83 68t98.5 24.5q32 0 60.5 -16.5t41.5 -45.5h2l22 50h130l-96 -480
q-22 -112 -91.5 -164t-176.5 -52zM238 150q21 0 45 11t43 45l26 138q-9 20 -23.5 29t-28.5 9q-22 0 -41 -12t-33.5 -34.5t-23 -53t-8.5 -68.5q0 -33 12.5 -48.5t31.5 -15.5zM250 570l-80 200h120l52 -88h4l94 88h130l-160 -200h-160z" />
    <glyph glyph-name="uni0123" unicode="&#x123;" horiz-adv-x="552" 
d="M180 -196q-42 0 -91.5 15t-94.5 55l66 100q29 -19 60 -31.5t64 -12.5q41 0 69.5 19.5t40.5 56.5l26 82q-31 -33 -69 -50.5t-77 -17.5q-63 0 -104.5 43t-41.5 131q0 67 21 124.5t57.5 101t83 68t98.5 24.5q32 0 60.5 -16.5t41.5 -45.5h2l22 50h130l-96 -480
q-22 -112 -91.5 -164t-176.5 -52zM238 150q21 0 45 11t43 45l26 138q-9 20 -23.5 29t-28.5 9q-22 0 -41 -12t-33.5 -34.5t-23 -53t-8.5 -68.5q0 -33 12.5 -48.5t31.5 -15.5zM363 566q-55 2 -84.5 12t-40 26.5t-10.5 35.5q0 41 30.5 67t83.5 38.5t119 14.5l-3 -66
q-58 -3 -81.5 -13t-23.5 -27q0 -9 11 -18.5t43 -9.5z" />
    <glyph glyph-name="uni01E5" unicode="&#x1e5;" horiz-adv-x="590" 
d="M240 218l20 98l96 6h234l-20 -104h-330zM180 -196q-42 0 -91.5 15t-94.5 55l66 100q29 -19 60 -31.5t64 -12.5q41 0 69.5 19.5t40.5 56.5l26 82q-31 -33 -69 -50.5t-77 -17.5q-63 0 -104.5 43t-41.5 131q0 67 21 124.5t57.5 101t83 68t98.5 24.5q32 0 60.5 -16.5
t41.5 -45.5h2l22 50h130l-96 -480q-22 -112 -91.5 -164t-176.5 -52zM238 150q21 0 45 11t43 45l26 138q-9 20 -23.5 29t-28.5 9q-22 0 -41 -12t-33.5 -34.5t-23 -53t-8.5 -68.5q0 -33 12.5 -48.5t31.5 -15.5z" />
    <glyph glyph-name="uni00670303" horiz-adv-x="552" 
d="M180 -196q-42 0 -91.5 15t-94.5 55l66 100q29 -19 60 -31.5t64 -12.5q41 0 69.5 19.5t40.5 56.5l26 82q-31 -33 -69 -50.5t-77 -17.5q-63 0 -104.5 43t-41.5 131q0 67 21 124.5t57.5 101t83 68t98.5 24.5q32 0 60.5 -16.5t41.5 -45.5h2l22 50h130l-96 -480
q-22 -112 -91.5 -164t-176.5 -52zM238 150q21 0 45 11t43 45l26 138q-9 20 -23.5 29t-28.5 9q-22 0 -41 -12t-33.5 -34.5t-23 -53t-8.5 -68.5q0 -33 12.5 -48.5t31.5 -15.5zM406 572q-27 0 -46 8.5t-33.5 19.5t-27.5 19.5t-27 8.5q-12 0 -22.5 -9.5t-15.5 -36.5l-104 6
q9 56 29 91t48.5 51t62.5 16q27 0 46 -8.5t33.5 -19.5t27.5 -19.5t27 -8.5q12 0 23 9.5t15 36.5l104 -6q-9 -56 -29 -91t-48 -51t-63 -16z" />
    <glyph glyph-name="uni0260" unicode="&#x260;" horiz-adv-x="568" 
d="M180 -196q-42 0 -91.5 15t-94.5 55l66 100q29 -19 60 -31.5t64 -12.5q41 0 69.5 19.5t40.5 56.5l26 82q-31 -33 -69 -50.5t-77 -17.5q-63 0 -104.5 43t-41.5 131q0 67 21 124.5t57.5 101t83 68t98.5 24.5q32 0 57.5 -15t38.5 -41h2l18 84q9 44 34 82.5t68.5 62
t109.5 23.5q18 0 35 -3.5t27 -8.5l-46 -118q-3 2 -9 3t-11 1q-22 0 -38 -14t-24 -50l-102 -498q-23 -112 -92 -164t-176 -52zM238 150q21 0 45 11t43 45l26 138q-9 20 -23.5 29t-28.5 9q-22 0 -41 -12t-33.5 -34.5t-23 -53t-8.5 -68.5q0 -33 12.5 -48.5t31.5 -15.5z" />
    <glyph glyph-name="hcircumflex" unicode="&#x125;" horiz-adv-x="556" 
d="M8 0l140 696h160l-34 -162l-24 -88h4q30 27 68.5 46.5t83.5 19.5q62 0 90 -32.5t28 -97.5q0 -16 -1.5 -35t-6.5 -37l-62 -310h-160l58 290q3 14 5.5 24.5t2.5 19.5q0 21 -11 31.5t-31 10.5q-21 0 -41 -13.5t-47 -42.5l-62 -320h-160zM240 738l150 160h150l100 -160h-130
l-54 58h-4l-82 -58h-130z" />
    <glyph glyph-name="uni1E27" unicode="&#x1e27;" horiz-adv-x="556" 
d="M8 0l140 696h160l-34 -162l-24 -88h4q30 27 68.5 46.5t83.5 19.5q62 0 90 -32.5t28 -97.5q0 -16 -1.5 -35t-6.5 -37l-62 -310h-160l58 290q3 14 5.5 24.5t2.5 19.5q0 21 -11 31.5t-31 10.5q-21 0 -41 -13.5t-47 -42.5l-62 -320h-160zM326 734q-28 0 -47 17t-19 49t24 57
t60 25q28 0 47 -17.5t19 -48.5q0 -34 -24 -58t-60 -24zM550 734q-28 0 -47 17t-19 49t24 57t60 25q28 0 47 -17.5t19 -48.5q0 -34 -24 -58t-60 -24z" />
    <glyph glyph-name="uni1E23" unicode="&#x1e23;" horiz-adv-x="556" 
d="M8 0l140 696h160l-34 -162l-24 -88h4q30 27 68.5 46.5t83.5 19.5q62 0 90 -32.5t28 -97.5q0 -16 -1.5 -35t-6.5 -37l-62 -310h-160l58 290q3 14 5.5 24.5t2.5 19.5q0 21 -11 31.5t-31 10.5q-21 0 -41 -13.5t-47 -42.5l-62 -320h-160zM446 736q-31 0 -57.5 18.5
t-26.5 55.5q0 36 28 63t68 27q32 0 58 -19t26 -55q0 -39 -27.5 -64.5t-68.5 -25.5z" />
    <glyph glyph-name="uni021F" unicode="&#x21f;" horiz-adv-x="556" 
d="M8 0l140 696h160l-34 -162l-24 -88h4q30 27 68.5 46.5t83.5 19.5q62 0 90 -32.5t28 -97.5q0 -16 -1.5 -35t-6.5 -37l-62 -310h-160l58 290q3 14 5.5 24.5t2.5 19.5q0 21 -11 31.5t-31 10.5q-21 0 -41 -13.5t-47 -42.5l-62 -320h-160zM360 738l-100 160h130l54 -58h4
l82 58h130l-150 -160h-150z" />
    <glyph glyph-name="uni1E25" unicode="&#x1e25;" horiz-adv-x="556" 
d="M8 0l140 696h160l-34 -162l-24 -88h4q30 27 68.5 46.5t83.5 19.5q62 0 90 -32.5t28 -97.5q0 -16 -1.5 -35t-6.5 -37l-62 -310h-160l58 290q3 14 5.5 24.5t2.5 19.5q0 21 -11 31.5t-31 10.5q-21 0 -41 -13.5t-47 -42.5l-62 -320h-160zM190 -246q-31 0 -57.5 18.5
t-26.5 55.5q0 36 28 63t68 27q32 0 58 -19t26 -55q0 -39 -27.5 -64.5t-68.5 -25.5z" />
    <glyph glyph-name="uni1E29" unicode="&#x1e29;" horiz-adv-x="556" 
d="M8 0l140 696h160l-34 -162l-24 -88h4q30 27 68.5 46.5t83.5 19.5q62 0 90 -32.5t28 -97.5q0 -16 -1.5 -35t-6.5 -37l-62 -310h-160l58 290q3 14 5.5 24.5t2.5 19.5q0 21 -11 31.5t-31 10.5q-21 0 -41 -13.5t-47 -42.5l-62 -320h-160zM-60 -244v66q57 3 80.5 12t27.5 30
q2 14 -11.5 24t-58.5 16l68 100h98l-40 -64q38 -9 54.5 -26.5t11.5 -49.5q-10 -54 -69.5 -79.5t-160.5 -28.5z" />
    <glyph glyph-name="uni1E2B" unicode="&#x1e2b;" horiz-adv-x="556" 
d="M8 0l140 696h160l-34 -162l-24 -88h4q30 27 68.5 46.5t83.5 19.5q62 0 90 -32.5t28 -97.5q0 -16 -1.5 -35t-6.5 -37l-62 -310h-160l58 290q3 14 5.5 24.5t2.5 19.5q0 21 -11 31.5t-31 10.5q-21 0 -41 -13.5t-47 -42.5l-62 -320h-160zM182 -248q-45 0 -78 16.5t-51.5 52
t-18.5 91.5l100 16q0 -23 8 -38.5t23 -23.5t37 -8q24 0 41.5 9t29.5 25t19 36l92 -16q-9 -47 -33.5 -83t-66 -56.5t-102.5 -20.5z" />
    <glyph glyph-name="uni1E96" unicode="&#x1e96;" horiz-adv-x="556" 
d="M8 0l140 696h160l-34 -162l-24 -88h4q30 27 68.5 46.5t83.5 19.5q62 0 90 -32.5t28 -97.5q0 -16 -1.5 -35t-6.5 -37l-62 -310h-160l58 290q3 14 5.5 24.5t2.5 19.5q0 21 -11 31.5t-31 10.5q-21 0 -41 -13.5t-47 -42.5l-62 -320h-160zM48 -170l20 100h294l-20 -100h-294z
" />
    <glyph glyph-name="hbar" unicode="&#x127;" horiz-adv-x="556" 
d="M8 0l140 696h160l-44 -214l-24 -88h4q30 27 68.5 46.5t83.5 19.5q62 0 90 -32.5t28 -97.5q0 -16 -2 -35t-6 -37l-52 -258h-160l48 238q3 14 5.5 24.5t2.5 19.5q0 21 -11 31.5t-31 10.5q-21 0 -41 -13.5t-47 -42.5l-52 -268h-160zM44 522l22 98l74 6h314l-24 -104h-386z
" />
    <glyph glyph-name="igrave" unicode="&#xec;" horiz-adv-x="276" 
d="M8 0l100 500h160l-100 -500h-160zM160 570l-130 172l10 18h170l70 -190h-120z" />
    <glyph glyph-name="iacute" unicode="&#xed;" horiz-adv-x="276" 
d="M8 0l100 500h160l-100 -500h-160zM100 570l150 190h180l10 -18l-210 -172h-130z" />
    <glyph glyph-name="icircumflex" unicode="&#xee;" horiz-adv-x="276" 
d="M8 0l100 500h160l-100 -500h-160zM0 570l160 200h160l80 -200h-120l-52 88h-4l-94 -88h-130z" />
    <glyph glyph-name="itilde" unicode="&#x129;" horiz-adv-x="276" 
d="M8 0l100 500h160l-100 -500h-160zM286 572q-27 0 -46 8.5t-33.5 19.5t-27.5 19.5t-27 8.5q-12 0 -22.5 -9.5t-15.5 -36.5l-104 6q9 56 29 91t48.5 51t62.5 16q27 0 46 -8.5t33.5 -19.5t27.5 -19.5t27 -8.5q12 0 23 9.5t15 36.5l104 -6q-9 -56 -29 -91t-48 -51t-63 -16z
" />
    <glyph glyph-name="idieresis" unicode="&#xef;" horiz-adv-x="276" 
d="M8 0l100 500h160l-100 -500h-160zM96 566q-28 0 -47 17t-19 49t24 57t60 25q28 0 47 -17.5t19 -48.5q0 -34 -24 -58t-60 -24zM316 566q-28 0 -47 17t-19 49t24 57t60 25q28 0 47 -17.5t19 -48.5q0 -34 -24 -58t-60 -24z" />
    <glyph glyph-name="imacron" unicode="&#x12b;" horiz-adv-x="276" 
d="M8 0l100 500h160l-100 -500h-160zM58 590l20 100h294l-20 -100h-294z" />
    <glyph glyph-name="ibreve" unicode="&#x12d;" horiz-adv-x="276" 
d="M8 0l100 500h160l-100 -500h-160zM202 572q-45 0 -78 16.5t-51.5 52t-18.5 91.5l100 16q0 -23 8 -38.5t23 -23.5t37 -8q24 0 41.5 9t29.5 25t19 36l92 -16q-9 -47 -33.5 -83t-66 -56.5t-102.5 -20.5z" />
    <glyph glyph-name="uni1ECB" unicode="&#x1ecb;" horiz-adv-x="276" 
d="M8 0l100 500h160l-100 -500h-160zM210 564q-31 0 -57.5 18.5t-26.5 55.5q0 36 28 63t68 27q32 0 58 -19t26 -55q0 -39 -27.5 -64.5t-68.5 -25.5zM50 -246q-31 0 -57.5 18.5t-26.5 55.5q0 36 28 63t68 27q32 0 58 -19t26 -55q0 -39 -27.5 -64.5t-68.5 -25.5z" />
    <glyph glyph-name="uni01D0" unicode="&#x1d0;" horiz-adv-x="276" 
d="M8 0l100 500h160l-100 -500h-160zM130 570l-80 200h120l52 -88h4l94 88h130l-160 -200h-160z" />
    <glyph glyph-name="uni0209" unicode="&#x209;" horiz-adv-x="276" 
d="M8 0l100 500h160l-100 -500h-160zM50 570l-90 172l10 18h130l40 -190h-90zM230 570l-90 172l10 18h130l40 -190h-90z" />
    <glyph glyph-name="iogonek" unicode="&#x12f;" horiz-adv-x="276" 
d="M52 -220q-42 0 -69 22t-27 62q0 26 12.5 50t34.5 46t51 40h-46l100 500h160l-100 -500q-45 -15 -64.5 -39.5t-19.5 -50.5q0 -13 9.5 -20.5t22.5 -7.5q11 0 17.5 2.5t12.5 5.5l30 -72q-24 -16 -55 -27t-69 -11zM210 564q-31 0 -57.5 18.5t-26.5 55.5q0 36 28 63t68 27
q32 0 58 -19t26 -55q0 -39 -27.5 -64.5t-68.5 -25.5z" />
    <glyph glyph-name="uni1EC9" unicode="&#x1ec9;" horiz-adv-x="276" 
d="M8 0l100 500h160l-100 -500h-160zM142 566l-4 66q23 3 35.5 11.5t12.5 25.5q0 14 -16 22t-54 11l28 94q95 -1 133.5 -25t38.5 -69q0 -58 -46.5 -95.5t-127.5 -40.5z" />
    <glyph glyph-name="uni0268" unicode="&#x268;" horiz-adv-x="356" 
d="M6 202l20 98l84 6h240l-20 -104h-324zM48 0l100 500h160l-100 -500h-160zM250 564q-31 0 -57.5 18.5t-26.5 55.5q0 36 28 63t68 27q32 0 58 -19t26 -55q0 -39 -27.5 -64.5t-68.5 -25.5z" />
    <glyph glyph-name="dotlessi" unicode="&#x131;" horiz-adv-x="276" 
d="M8 0l100 500h160l-100 -500h-160z" />
    <glyph glyph-name="ij" unicode="&#x133;" horiz-adv-x="554" 
d="M8 0l100 500h160l-100 -500h-160zM210 564q-31 0 -57.5 18.5t-26.5 55.5q0 36 28 63t68 27q32 0 58 -19t26 -55q0 -39 -27.5 -64.5t-68.5 -25.5zM246 -188q-26 0 -51.5 5.5t-48.5 18.5l42 112q11 -4 21.5 -7t22.5 -3q24 0 35.5 16.5t20.5 55.5l98 490h160l-100 -498
q-11 -52 -34.5 -95t-64 -69t-101.5 -26zM486 564q-31 0 -57.5 18.5t-26.5 55.5q0 36 28 63t68 27q32 0 58 -19t26 -55q0 -39 -27.5 -64.5t-68.5 -25.5z" />
    <glyph glyph-name="jcircumflex" unicode="&#x135;" horiz-adv-x="278" 
d="M-30 -188q-26 0 -51.5 5.5t-48.5 18.5l42 112q11 -4 21.5 -7t22.5 -3q24 0 35.5 16.5t20.5 55.5l98 490h160l-100 -498q-11 -52 -34.5 -95t-64 -69t-101.5 -26zM0 570l160 200h160l80 -200h-120l-52 88h-4l-94 -88h-130z" />
    <glyph glyph-name="uni01F0" unicode="&#x1f0;" horiz-adv-x="278" 
d="M-30 -188q-26 0 -51.5 5.5t-48.5 18.5l42 112q11 -4 21.5 -7t22.5 -3q24 0 35.5 16.5t20.5 55.5l98 490h160l-100 -498q-11 -52 -34.5 -95t-64 -69t-101.5 -26zM130 570l-80 200h120l52 -88h4l94 88h130l-160 -200h-160z" />
    <glyph glyph-name="uni0249" unicode="&#x249;" horiz-adv-x="358" 
d="M16 202l20 98l88 6h238l-20 -104h-326zM20 -188q-26 0 -51.5 5.5t-48.5 18.5l42 112q11 -4 21.5 -7t22.5 -3q24 0 35.5 16.5t20.5 55.5l98 490h160l-100 -498q-11 -52 -34.5 -95t-64 -69t-101.5 -26zM250 564q-31 0 -57.5 18.5t-26.5 55.5q0 36 28 63t68 27q32 0 58 -19
t26 -55q0 -39 -27.5 -64.5t-68.5 -25.5z" />
    <glyph glyph-name="uni0237" unicode="&#x237;" horiz-adv-x="278" 
d="M-30 -188q-26 0 -51.5 5.5t-48.5 18.5l42 112q11 -4 21.5 -7t22.5 -3q24 0 35.5 16.5t20.5 55.5l98 490h160l-100 -498q-11 -52 -34.5 -95t-64 -69t-101.5 -26z" />
    <glyph glyph-name="uni0137" unicode="&#x137;" horiz-adv-x="544" 
d="M8 0l140 696h160l-76 -376h4l164 180h176l-206 -222l118 -278h-160l-68 186l-68 -68l-24 -118h-160zM96 -244v66q58 3 81.5 13.5t23.5 26.5q0 9 -11 18.5t-43 9.5l44 60q56 -2 85 -12t39.5 -26t10.5 -36q0 -41 -30 -66.5t-82 -38.5t-118 -15z" />
    <glyph glyph-name="uni1E33" unicode="&#x1e33;" horiz-adv-x="544" 
d="M8 0l140 696h160l-76 -376h4l164 180h176l-206 -222l118 -278h-160l-68 186l-68 -68l-24 -118h-160zM200 -246q-31 0 -57.5 18.5t-26.5 55.5q0 36 28 63t68 27q32 0 58 -19t26 -55q0 -39 -27.5 -64.5t-68.5 -25.5z" />
    <glyph glyph-name="uni1E35" unicode="&#x1e35;" horiz-adv-x="544" 
d="M8 0l140 696h160l-76 -376h4l164 180h176l-206 -222l118 -278h-160l-68 186l-68 -68l-24 -118h-160zM58 -170l20 100h294l-20 -100h-294z" />
    <glyph glyph-name="kgreenlandic" unicode="&#x138;" horiz-adv-x="544" 
d="M8 0l98 500h160l-34 -180h4l164 180h176l-206 -222l118 -278h-160l-68 186l-68 -68l-24 -118h-160z" />
    <glyph glyph-name="lacute" unicode="&#x13a;" horiz-adv-x="286" 
d="M158 -12q-69 0 -96.5 29.5t-27.5 80.5q0 15 2 31t6 37l106 530h160l-108 -536l-1.5 -13.5t-0.5 -10.5q0 -20 18 -20q3 0 6.5 0.5t9.5 1.5l6 -114q-16 -6 -36.5 -11t-43.5 -5zM130 750l140 160h190l10 -18l-210 -142h-130z" />
    <glyph glyph-name="lcaron" unicode="&#x13e;" horiz-adv-x="300" 
d="M158 -12q-69 0 -96.5 29.5t-27.5 80.5q0 15 2 31t6 37l106 530h160l-108 -536l-1.5 -13.5t-0.5 -10.5q0 -20 18 -20q3 0 6.5 0.5t9.5 1.5l6 -114q-16 -6 -36.5 -11t-43.5 -5zM316 548l40 226h100l-16 -74l-56 -152h-68z" />
    <glyph glyph-name="uni013C" unicode="&#x13c;" horiz-adv-x="286" 
d="M158 -12q-69 0 -96.5 29.5t-27.5 80.5q0 15 2 31t6 37l106 530h160l-108 -536l-1.5 -13.5t-0.5 -10.5q0 -20 18 -20q3 0 6.5 0.5t9.5 1.5l6 -114q-16 -6 -36.5 -11t-43.5 -5zM-24 -244v66q58 3 81.5 13.5t23.5 26.5q0 9 -11 18.5t-43 9.5l44 60q56 -2 85 -12t39.5 -26
t10.5 -36q0 -41 -30 -66.5t-82 -38.5t-118 -15z" />
    <glyph glyph-name="uni1E37" unicode="&#x1e37;" horiz-adv-x="286" 
d="M158 -12q-69 0 -96.5 29.5t-27.5 80.5q0 15 2 31t6 37l106 530h160l-108 -536l-1.5 -13.5t-0.5 -10.5q0 -20 18 -20q3 0 6.5 0.5t9.5 1.5l6 -114q-16 -6 -36.5 -11t-43.5 -5zM84 -246q-31 0 -57.5 18.5t-26.5 55.5q0 36 28 63t68 27q32 0 58 -19t26 -55
q0 -39 -27.5 -64.5t-68.5 -25.5z" />
    <glyph glyph-name="uni1E39" unicode="&#x1e39;" horiz-adv-x="286" 
d="M158 -12q-69 0 -96.5 29.5t-27.5 80.5q0 15 2 31t6 37l106 530h160l-108 -536l-1.5 -13.5t-0.5 -10.5q0 -20 18 -20q3 0 6.5 0.5t9.5 1.5l6 -114q-16 -6 -36.5 -11t-43.5 -5zM90 766l20 102h300l-20 -102h-300zM84 -246q-31 0 -57.5 18.5t-26.5 55.5q0 36 28 63t68 27
q32 0 58 -19t26 -55q0 -39 -27.5 -64.5t-68.5 -25.5z" />
    <glyph glyph-name="uni1E3B" unicode="&#x1e3b;" horiz-adv-x="286" 
d="M158 -12q-69 0 -96.5 29.5t-27.5 80.5q0 15 2 31t6 37l106 530h160l-108 -536l-1.5 -13.5t-0.5 -10.5q0 -20 18 -20q3 0 6.5 0.5t9.5 1.5l6 -114q-16 -6 -36.5 -11t-43.5 -5zM-58 -170l20 100h294l-20 -100h-294z" />
    <glyph glyph-name="lslash" unicode="&#x142;" horiz-adv-x="366" 
d="M30 254l-36 96l146 58l156 68l100 40l36 -96l-160 -64l-156 -68zM198 -12q-69 0 -96.5 29.5t-27.5 80.5q0 15 2 31t6 37l106 530h160l-108 -536l-1.5 -13.5t-0.5 -10.5q0 -20 18 -20q3 0 6.5 0.5t9.5 1.5l6 -114q-16 -6 -36.5 -11t-43.5 -5z" />
    <glyph glyph-name="uni019A" unicode="&#x19a;" horiz-adv-x="366" 
d="M26 318l20 98l92 6h238l-20 -104h-330zM198 -12q-69 0 -96.5 29.5t-27.5 80.5q0 15 2 31t6 37l106 530h160l-108 -536l-1.5 -13.5t-0.5 -10.5q0 -20 18 -20q3 0 6.5 0.5t9.5 1.5l6 -114q-16 -6 -36.5 -11t-43.5 -5z" />
    <glyph glyph-name="uni2C61" unicode="&#x2c61;" horiz-adv-x="366" 
d="M42 394l16 74l88 6h242l-16 -80h-330zM16 266l16 74l88 6h242l-16 -80h-330zM198 -12q-69 0 -96.5 29.5t-27.5 80.5q0 15 2 31t6 37l106 530h160l-108 -536l-1.5 -13.5t-0.5 -10.5q0 -20 18 -20q3 0 6.5 0.5t9.5 1.5l6 -114q-16 -6 -36.5 -11t-43.5 -5z" />
    <glyph glyph-name="uni026B" unicode="&#x26b;" horiz-adv-x="416" 
d="M222 -12q-69 0 -96.5 29.5t-27.5 80.5q0 15 2 31t6 37l106 530h160l-108 -536l-1.5 -13.5t-0.5 -10.5q0 -20 18 -20q3 0 6.5 0.5t9.5 1.5l6 -114q-16 -6 -36.5 -11t-43.5 -5zM326 284q-28 0 -55 8.5t-52.5 19.5t-48 19.5t-40.5 8.5q-13 0 -22.5 -9t-17.5 -33l-84 22
q10 41 27.5 67t39.5 38.5t45 12.5q28 0 55 -8.5t52.5 -19.5t48 -19.5t40.5 -8.5q14 0 23.5 9t16.5 33l84 -22q-10 -41 -27.5 -67t-39.5 -38.5t-45 -12.5z" />
    <glyph glyph-name="uni026C" unicode="&#x26c;" horiz-adv-x="426" 
d="M146 278q-61 0 -97.5 36.5t-36.5 91.5q0 47 28.5 75.5t67.5 28.5t61.5 -16t31.5 -40t9 -48l-48 -34q0 20 -6.5 40t-29.5 20q-12 0 -20 -8t-8 -20t12 -21t34 -9h288l-16 -96h-270zM88 0l140 696h160l-140 -696h-160z" />
    <glyph glyph-name="ldot" unicode="&#x140;" horiz-adv-x="456" 
d="M158 -12q-69 0 -96.5 29.5t-27.5 80.5q0 15 2 31t6 37l106 530h160l-108 -536l-1.5 -13.5t-0.5 -10.5q0 -20 18 -20q3 0 6.5 0.5t9.5 1.5l6 -114q-16 -6 -36.5 -11t-43.5 -5zM368 238q-36 0 -58 23.5t-22 60.5q0 27 14 53t38.5 42.5t57.5 16.5q36 0 58 -24t22 -60
q0 -28 -13.5 -53.5t-38.5 -42t-58 -16.5z" />
    <glyph glyph-name="uni1E3F" unicode="&#x1e3f;" horiz-adv-x="838" 
d="M8 0l100 500h130v-64h4q35 30 75 53t83 23q54 0 79 -22.5t37 -61.5q39 36 81 60t85 24q62 0 90 -32.5t28 -97.5q0 -16 -2 -35t-6 -37l-62 -310h-160l58 290q3 14 5.5 24.5t2.5 19.5q0 21 -11 31.5t-31 10.5q-15 0 -35 -13.5t-47 -42.5l-64 -320h-160l58 290
q3 14 5.5 24.5t2.5 19.5q0 21 -11 31.5t-29 10.5q-16 0 -36.5 -13.5t-47.5 -42.5l-62 -320h-160zM400 570l150 190h180l10 -18l-210 -172h-130z" />
    <glyph glyph-name="uni1E41" unicode="&#x1e41;" horiz-adv-x="838" 
d="M8 0l100 500h130v-64h4q35 30 75 53t83 23q54 0 79 -22.5t37 -61.5q39 36 81 60t85 24q62 0 90 -32.5t28 -97.5q0 -16 -2 -35t-6 -37l-62 -310h-160l58 290q3 14 5.5 24.5t2.5 19.5q0 21 -11 31.5t-31 10.5q-15 0 -35 -13.5t-47 -42.5l-64 -320h-160l58 290
q3 14 5.5 24.5t2.5 19.5q0 21 -11 31.5t-29 10.5q-16 0 -36.5 -13.5t-47.5 -42.5l-62 -320h-160zM510 564q-31 0 -57.5 18.5t-26.5 55.5q0 36 28 63t68 27q32 0 58 -19t26 -55q0 -39 -27.5 -64.5t-68.5 -25.5z" />
    <glyph glyph-name="uni1E43" unicode="&#x1e43;" horiz-adv-x="838" 
d="M8 0l100 500h130v-64h4q35 30 75 53t83 23q54 0 79 -22.5t37 -61.5q39 36 81 60t85 24q62 0 90 -32.5t28 -97.5q0 -16 -2 -35t-6 -37l-62 -310h-160l58 290q3 14 5.5 24.5t2.5 19.5q0 21 -11 31.5t-31 10.5q-15 0 -35 -13.5t-47 -42.5l-64 -320h-160l58 290
q3 14 5.5 24.5t2.5 19.5q0 21 -11 31.5t-29 10.5q-16 0 -36.5 -13.5t-47.5 -42.5l-62 -320h-160zM334 -246q-31 0 -57.5 18.5t-26.5 55.5q0 36 28 63t68 27q32 0 58 -19t26 -55q0 -39 -27.5 -64.5t-68.5 -25.5z" />
    <glyph glyph-name="uni01F9" unicode="&#x1f9;" horiz-adv-x="562" 
d="M8 0l100 500h130v-64h4q35 30 75.5 53t88.5 23q62 0 90 -32.5t28 -97.5q0 -16 -2 -35t-6 -37l-62 -310h-160l58 290q3 14 5.5 24.5t2.5 19.5q0 21 -11 31.5t-31 10.5q-21 0 -41 -13.5t-47 -42.5l-62 -320h-160zM310 570l-130 172l10 18h170l70 -190h-120z" />
    <glyph glyph-name="nacute" unicode="&#x144;" horiz-adv-x="562" 
d="M8 0l100 500h130v-64h4q35 30 75.5 53t88.5 23q62 0 90 -32.5t28 -97.5q0 -16 -2 -35t-6 -37l-62 -310h-160l58 290q3 14 5.5 24.5t2.5 19.5q0 21 -11 31.5t-31 10.5q-21 0 -41 -13.5t-47 -42.5l-62 -320h-160zM250 570l150 190h180l10 -18l-210 -172h-130z" />
    <glyph glyph-name="ncaron" unicode="&#x148;" horiz-adv-x="562" 
d="M8 0l100 500h130v-64h4q35 30 75.5 53t88.5 23q62 0 90 -32.5t28 -97.5q0 -16 -2 -35t-6 -37l-62 -310h-160l58 290q3 14 5.5 24.5t2.5 19.5q0 21 -11 31.5t-31 10.5q-21 0 -41 -13.5t-47 -42.5l-62 -320h-160zM280 570l-80 200h120l52 -88h4l94 88h130l-160 -200h-160z
" />
    <glyph glyph-name="ntilde" unicode="&#xf1;" horiz-adv-x="562" 
d="M8 0l100 500h130v-64h4q35 30 75.5 53t88.5 23q62 0 90 -32.5t28 -97.5q0 -16 -2 -35t-6 -37l-62 -310h-160l58 290q3 14 5.5 24.5t2.5 19.5q0 21 -11 31.5t-31 10.5q-21 0 -41 -13.5t-47 -42.5l-62 -320h-160zM436 572q-27 0 -46 8.5t-33.5 19.5t-27.5 19.5t-27 8.5
q-12 0 -22.5 -9.5t-15.5 -36.5l-104 6q9 56 29 91t48.5 51t62.5 16q27 0 46 -8.5t33.5 -19.5t27.5 -19.5t27 -8.5q12 0 23 9.5t15 36.5l104 -6q-9 -56 -29 -91t-48 -51t-63 -16z" />
    <glyph glyph-name="uni1E45" unicode="&#x1e45;" horiz-adv-x="562" 
d="M8 0l100 500h130v-64h4q35 30 75.5 53t88.5 23q62 0 90 -32.5t28 -97.5q0 -16 -2 -35t-6 -37l-62 -310h-160l58 290q3 14 5.5 24.5t2.5 19.5q0 21 -11 31.5t-31 10.5q-21 0 -41 -13.5t-47 -42.5l-62 -320h-160zM360 564q-31 0 -57.5 18.5t-26.5 55.5q0 36 28 63t68 27
q32 0 58 -19t26 -55q0 -39 -27.5 -64.5t-68.5 -25.5z" />
    <glyph glyph-name="uni0146" unicode="&#x146;" horiz-adv-x="562" 
d="M8 0l100 500h130v-64h4q35 30 75.5 53t88.5 23q62 0 90 -32.5t28 -97.5q0 -16 -2 -35t-6 -37l-62 -310h-160l58 290q3 14 5.5 24.5t2.5 19.5q0 21 -11 31.5t-31 10.5q-21 0 -41 -13.5t-47 -42.5l-62 -320h-160zM86 -244v66q58 3 81.5 13.5t23.5 26.5q0 9 -11 18.5
t-43 9.5l44 60q56 -2 85 -12t39.5 -26t10.5 -36q0 -41 -30 -66.5t-82 -38.5t-118 -15z" />
    <glyph glyph-name="uni1E47" unicode="&#x1e47;" horiz-adv-x="562" 
d="M8 0l100 500h130v-64h4q35 30 75.5 53t88.5 23q62 0 90 -32.5t28 -97.5q0 -16 -2 -35t-6 -37l-62 -310h-160l58 290q3 14 5.5 24.5t2.5 19.5q0 21 -11 31.5t-31 10.5q-21 0 -41 -13.5t-47 -42.5l-62 -320h-160zM194 -246q-31 0 -57.5 18.5t-26.5 55.5q0 36 28 63t68 27
q32 0 58 -19t26 -55q0 -39 -27.5 -64.5t-68.5 -25.5z" />
    <glyph glyph-name="uni1E49" unicode="&#x1e49;" horiz-adv-x="562" 
d="M8 0l100 500h130v-64h4q35 30 75.5 53t88.5 23q62 0 90 -32.5t28 -97.5q0 -16 -2 -35t-6 -37l-62 -310h-160l58 290q3 14 5.5 24.5t2.5 19.5q0 21 -11 31.5t-31 10.5q-21 0 -41 -13.5t-47 -42.5l-62 -320h-160zM52 -170l20 100h294l-20 -100h-294z" />
    <glyph glyph-name="napostrophe" unicode="&#x149;" horiz-adv-x="858" 
d="M122 344l-28 76q63 23 92 54t42 82q2 6 2 10v10l22 -20q-11 -10 -25.5 -18t-34.5 -8q-33 0 -58.5 20t-25.5 54q0 42 32 73t88 31q41 0 74.5 -28.5t33.5 -81.5q0 -69 -29 -120.5t-77.5 -84.5t-107.5 -49zM304 0l100 500h130v-64h4q35 30 75.5 53t88.5 23q62 0 90 -32.5
t28 -97.5q0 -16 -2 -35t-6 -37l-62 -310h-160l58 290q3 14 5.5 24.5t2.5 19.5q0 21 -11 31.5t-31 10.5q-21 0 -41 -13.5t-47 -42.5l-62 -320h-160z" />
    <glyph glyph-name="eng" unicode="&#x14b;" horiz-adv-x="562" 
d="M254 -188q-25 0 -51 5.5t-49 18.5l42 112q11 -4 21.5 -7t22.5 -3q24 0 35.5 16.5t20.5 55.5l56 280q3 14 5.5 24.5t2.5 19.5q0 21 -11 31.5t-31 10.5q-21 0 -41 -13.5t-47 -42.5l-62 -320h-160l100 500h130v-64h4q35 30 75.5 53t88.5 23q62 0 90 -32.5t28 -97.5
q0 -16 -2 -35t-6 -37l-62 -308q-11 -52 -34 -95t-63.5 -69t-102.5 -26z" />
    <glyph glyph-name="uni019E" unicode="&#x19e;" horiz-adv-x="562" 
d="M258 -176l94 466q3 14 5.5 24.5t2.5 19.5q0 21 -11 31.5t-31 10.5q-21 0 -41 -13.5t-47 -42.5l-62 -320h-160l100 500h130v-64h4q35 30 75.5 53t88.5 23q62 0 90 -32.5t28 -97.5q0 -16 -2 -35t-6 -37l-98 -486h-160z" />
    <glyph glyph-name="ograve" unicode="&#xf2;" horiz-adv-x="538" 
d="M226 -12q-60 0 -105 26t-70 73t-25 109q0 73 24.5 131t65.5 99.5t91.5 63.5t102.5 22q60 0 105 -26t70 -73t25 -109q0 -73 -24.5 -131t-65.5 -99.5t-91.5 -63.5t-102.5 -22zM244 116q22 0 41 14t33 39t22 59t8 74q0 38 -13.5 60t-42.5 22q-22 0 -41 -13.5t-33 -38.5
t-22 -59t-8 -75q0 -37 14 -59.5t42 -22.5zM290 570l-130 172l10 18h170l70 -190h-120z" />
    <glyph glyph-name="oacute" unicode="&#xf3;" horiz-adv-x="538" 
d="M226 -12q-60 0 -105 26t-70 73t-25 109q0 73 24.5 131t65.5 99.5t91.5 63.5t102.5 22q60 0 105 -26t70 -73t25 -109q0 -73 -24.5 -131t-65.5 -99.5t-91.5 -63.5t-102.5 -22zM244 116q22 0 41 14t33 39t22 59t8 74q0 38 -13.5 60t-42.5 22q-22 0 -41 -13.5t-33 -38.5
t-22 -59t-8 -75q0 -37 14 -59.5t42 -22.5zM230 570l150 190h180l10 -18l-210 -172h-130z" />
    <glyph glyph-name="ocircumflex" unicode="&#xf4;" horiz-adv-x="538" 
d="M226 -12q-60 0 -105 26t-70 73t-25 109q0 73 24.5 131t65.5 99.5t91.5 63.5t102.5 22q60 0 105 -26t70 -73t25 -109q0 -73 -24.5 -131t-65.5 -99.5t-91.5 -63.5t-102.5 -22zM244 116q22 0 41 14t33 39t22 59t8 74q0 38 -13.5 60t-42.5 22q-22 0 -41 -13.5t-33 -38.5
t-22 -59t-8 -75q0 -37 14 -59.5t42 -22.5zM130 570l160 200h160l80 -200h-120l-52 88h-4l-94 -88h-130z" />
    <glyph glyph-name="otilde" unicode="&#xf5;" horiz-adv-x="538" 
d="M226 -12q-60 0 -105 26t-70 73t-25 109q0 73 24.5 131t65.5 99.5t91.5 63.5t102.5 22q60 0 105 -26t70 -73t25 -109q0 -73 -24.5 -131t-65.5 -99.5t-91.5 -63.5t-102.5 -22zM244 116q22 0 41 14t33 39t22 59t8 74q0 38 -13.5 60t-42.5 22q-22 0 -41 -13.5t-33 -38.5
t-22 -59t-8 -75q0 -37 14 -59.5t42 -22.5zM416 572q-27 0 -46 8.5t-33.5 19.5t-27.5 19.5t-27 8.5q-12 0 -22.5 -9.5t-15.5 -36.5l-104 6q9 56 29 91t48.5 51t62.5 16q27 0 46 -8.5t33.5 -19.5t27.5 -19.5t27 -8.5q12 0 23 9.5t15 36.5l104 -6q-9 -56 -29 -91t-48 -51
t-63 -16z" />
    <glyph glyph-name="odieresis" unicode="&#xf6;" horiz-adv-x="538" 
d="M226 -12q-60 0 -105 26t-70 73t-25 109q0 73 24.5 131t65.5 99.5t91.5 63.5t102.5 22q60 0 105 -26t70 -73t25 -109q0 -73 -24.5 -131t-65.5 -99.5t-91.5 -63.5t-102.5 -22zM244 116q22 0 41 14t33 39t22 59t8 74q0 38 -13.5 60t-42.5 22q-22 0 -41 -13.5t-33 -38.5
t-22 -59t-8 -75q0 -37 14 -59.5t42 -22.5zM226 566q-28 0 -47 17t-19 49t24 57t60 25q28 0 47 -17.5t19 -48.5q0 -34 -24 -58t-60 -24zM446 566q-28 0 -47 17t-19 49t24 57t60 25q28 0 47 -17.5t19 -48.5q0 -34 -24 -58t-60 -24z" />
    <glyph glyph-name="omacron" unicode="&#x14d;" horiz-adv-x="538" 
d="M226 -12q-60 0 -105 26t-70 73t-25 109q0 73 24.5 131t65.5 99.5t91.5 63.5t102.5 22q60 0 105 -26t70 -73t25 -109q0 -73 -24.5 -131t-65.5 -99.5t-91.5 -63.5t-102.5 -22zM244 116q22 0 41 14t33 39t22 59t8 74q0 38 -13.5 60t-42.5 22q-22 0 -41 -13.5t-33 -38.5
t-22 -59t-8 -75q0 -37 14 -59.5t42 -22.5zM188 590l20 100h294l-20 -100h-294z" />
    <glyph glyph-name="obreve" unicode="&#x14f;" horiz-adv-x="538" 
d="M226 -12q-60 0 -105 26t-70 73t-25 109q0 73 24.5 131t65.5 99.5t91.5 63.5t102.5 22q60 0 105 -26t70 -73t25 -109q0 -73 -24.5 -131t-65.5 -99.5t-91.5 -63.5t-102.5 -22zM244 116q22 0 41 14t33 39t22 59t8 74q0 38 -13.5 60t-42.5 22q-22 0 -41 -13.5t-33 -38.5
t-22 -59t-8 -75q0 -37 14 -59.5t42 -22.5zM332 572q-45 0 -78 16.5t-51.5 52t-18.5 91.5l100 16q0 -23 8 -38.5t23 -23.5t37 -8q24 0 41.5 9t29.5 25t19 36l92 -16q-9 -47 -33.5 -83t-66 -56.5t-102.5 -20.5z" />
    <glyph glyph-name="ohungarumlaut" unicode="&#x151;" horiz-adv-x="538" 
d="M226 -12q-60 0 -105 26t-70 73t-25 109q0 73 24.5 131t65.5 99.5t91.5 63.5t102.5 22q60 0 105 -26t70 -73t25 -109q0 -73 -24.5 -131t-65.5 -99.5t-91.5 -63.5t-102.5 -22zM244 116q22 0 41 14t33 39t22 59t8 74q0 38 -13.5 60t-42.5 22q-22 0 -41 -13.5t-33 -38.5
t-22 -59t-8 -75q0 -37 14 -59.5t42 -22.5zM200 570l110 190h130l10 -18l-160 -172h-90zM380 570l110 190h130l10 -18l-160 -172h-90z" />
    <glyph glyph-name="uni01D2" unicode="&#x1d2;" horiz-adv-x="538" 
d="M226 -12q-60 0 -105 26t-70 73t-25 109q0 73 24.5 131t65.5 99.5t91.5 63.5t102.5 22q60 0 105 -26t70 -73t25 -109q0 -73 -24.5 -131t-65.5 -99.5t-91.5 -63.5t-102.5 -22zM244 116q22 0 41 14t33 39t22 59t8 74q0 38 -13.5 60t-42.5 22q-22 0 -41 -13.5t-33 -38.5
t-22 -59t-8 -75q0 -37 14 -59.5t42 -22.5zM260 570l-80 200h120l52 -88h4l94 88h130l-160 -200h-160z" />
    <glyph glyph-name="uni020D" unicode="&#x20d;" horiz-adv-x="538" 
d="M226 -12q-60 0 -105 26t-70 73t-25 109q0 73 24.5 131t65.5 99.5t91.5 63.5t102.5 22q60 0 105 -26t70 -73t25 -109q0 -73 -24.5 -131t-65.5 -99.5t-91.5 -63.5t-102.5 -22zM244 116q22 0 41 14t33 39t22 59t8 74q0 38 -13.5 60t-42.5 22q-22 0 -41 -13.5t-33 -38.5
t-22 -59t-8 -75q0 -37 14 -59.5t42 -22.5zM180 570l-90 172l10 18h130l40 -190h-90zM360 570l-90 172l10 18h130l40 -190h-90z" />
    <glyph glyph-name="uni01EB" unicode="&#x1eb;" horiz-adv-x="538" 
d="M182 -220q-42 0 -69 22t-27 62q0 29 15.5 55t39 47t47.5 34l38 -12q-60 0 -105 26t-70 73t-25 109q0 73 24.5 131t65.5 99.5t91.5 63.5t102.5 22q56 0 101.5 -24.5t72 -71t26.5 -112.5q0 -74 -27 -137t-78 -108t-123 -65q-34 -9 -51 -35t-17 -49q0 -13 9.5 -20.5
t22.5 -7.5q11 0 17.5 2.5t12.5 5.5l30 -72q-24 -16 -55 -27t-69 -11zM244 116q22 0 41 14t33 39t22 59t8 74q0 38 -13.5 60t-42.5 22q-22 0 -41 -13.5t-33 -38.5t-22 -59t-8 -75q0 -37 14 -59.5t42 -22.5z" />
    <glyph glyph-name="uni1ECD" unicode="&#x1ecd;" horiz-adv-x="538" 
d="M226 -12q-60 0 -105 26t-70 73t-25 109q0 73 24.5 131t65.5 99.5t91.5 63.5t102.5 22q60 0 105 -26t70 -73t25 -109q0 -73 -24.5 -131t-65.5 -99.5t-91.5 -63.5t-102.5 -22zM244 116q22 0 41 14t33 39t22 59t8 74q0 38 -13.5 60t-42.5 22q-22 0 -41 -13.5t-33 -38.5
t-22 -59t-8 -75q0 -37 14 -59.5t42 -22.5zM164 -246q-31 0 -57.5 18.5t-26.5 55.5q0 36 28 63t68 27q32 0 58 -19t26 -55q0 -39 -27.5 -64.5t-68.5 -25.5z" />
    <glyph glyph-name="uni1ECF" unicode="&#x1ecf;" horiz-adv-x="538" 
d="M226 -12q-60 0 -105 26t-70 73t-25 109q0 73 24.5 131t65.5 99.5t91.5 63.5t102.5 22q60 0 105 -26t70 -73t25 -109q0 -73 -24.5 -131t-65.5 -99.5t-91.5 -63.5t-102.5 -22zM244 116q22 0 41 14t33 39t22 59t8 74q0 38 -13.5 60t-42.5 22q-22 0 -41 -13.5t-33 -38.5
t-22 -59t-8 -75q0 -37 14 -59.5t42 -22.5zM272 566l-4 66q23 3 35.5 11.5t12.5 25.5q0 14 -16 22t-54 11l28 94q95 -1 133.5 -25t38.5 -69q0 -58 -46.5 -95.5t-127.5 -40.5z" />
    <glyph glyph-name="uni1ED1" unicode="&#x1ed1;" horiz-adv-x="538" 
d="M226 -12q-60 0 -105 26t-70 73t-25 109q0 73 24.5 131t65.5 99.5t91.5 63.5t102.5 22q60 0 105 -26t70 -73t25 -109q0 -73 -24.5 -131t-65.5 -99.5t-91.5 -63.5t-102.5 -22zM244 116q22 0 41 14t33 39t22 59t8 74q0 38 -13.5 60t-42.5 22q-22 0 -41 -13.5t-33 -38.5
t-22 -59t-8 -75q0 -37 14 -59.5t42 -22.5zM150 570l144 170h144l72 -170h-108l-47 76h-3l-85 -76h-117zM470 680l70 140h120l10 -18l-120 -122h-80z" />
    <glyph glyph-name="uni1ED3" unicode="&#x1ed3;" horiz-adv-x="538" 
d="M226 -12q-60 0 -105 26t-70 73t-25 109q0 73 24.5 131t65.5 99.5t91.5 63.5t102.5 22q60 0 105 -26t70 -73t25 -109q0 -73 -24.5 -131t-65.5 -99.5t-91.5 -63.5t-102.5 -22zM244 116q22 0 41 14t33 39t22 59t8 74q0 38 -13.5 60t-42.5 22q-22 0 -41 -13.5t-33 -38.5
t-22 -59t-8 -75q0 -37 14 -59.5t42 -22.5zM150 570l144 170h144l72 -170h-108l-47 76h-3l-85 -76h-117zM160 680l-70 122l10 18h110l20 -140h-70z" />
    <glyph glyph-name="uni1ED5" unicode="&#x1ed5;" horiz-adv-x="538" 
d="M226 -12q-60 0 -105 26t-70 73t-25 109q0 73 24.5 131t65.5 99.5t91.5 63.5t102.5 22q60 0 105 -26t70 -73t25 -109q0 -73 -24.5 -131t-65.5 -99.5t-91.5 -63.5t-102.5 -22zM244 116q22 0 41 14t33 39t22 59t8 74q0 38 -13.5 60t-42.5 22q-22 0 -41 -13.5t-33 -38.5
t-22 -59t-8 -75q0 -37 14 -59.5t42 -22.5zM492 650l-2 56q14 2 22 9t8 17q0 11 -11.5 17t-44.5 9l22 92q77 0 111.5 -22.5t34.5 -63.5q0 -46 -40 -77t-100 -37zM150 570l144 170h144l72 -170h-108l-47 76h-3l-85 -76h-117z" />
    <glyph glyph-name="uni1ED7" unicode="&#x1ed7;" horiz-adv-x="538" 
d="M226 -12q-60 0 -105 26t-70 73t-25 109q0 73 24.5 131t65.5 99.5t91.5 63.5t102.5 22q60 0 105 -26t70 -73t25 -109q0 -73 -24.5 -131t-65.5 -99.5t-91.5 -63.5t-102.5 -22zM244 116q22 0 41 14t33 39t22 59t8 74q0 38 -13.5 60t-42.5 22q-22 0 -41 -13.5t-33 -38.5
t-22 -59t-8 -75q0 -37 14 -59.5t42 -22.5zM436 748q-30 0 -49 10.5t-33.5 21t-31.5 10.5q-16 0 -26 -8t-18 -28l-74 8q15 65 44.5 92.5t65.5 27.5q30 0 49 -10.5t33.5 -21t31.5 -10.5t27 8.5t17 27.5l74 -8q-15 -64 -44.5 -92t-65.5 -28zM150 572l142 148h144l74 -148h-108
l-49 54h-3l-83 -54h-117z" />
    <glyph glyph-name="uni1ED9" unicode="&#x1ed9;" horiz-adv-x="538" 
d="M226 -12q-60 0 -105 26t-70 73t-25 109q0 73 24.5 131t65.5 99.5t91.5 63.5t102.5 22q60 0 105 -26t70 -73t25 -109q0 -73 -24.5 -131t-65.5 -99.5t-91.5 -63.5t-102.5 -22zM244 116q22 0 41 14t33 39t22 59t8 74q0 38 -13.5 60t-42.5 22q-22 0 -41 -13.5t-33 -38.5
t-22 -59t-8 -75q0 -37 14 -59.5t42 -22.5zM130 570l160 200h160l80 -200h-120l-52 88h-4l-94 -88h-130zM164 -246q-31 0 -57.5 18.5t-26.5 55.5q0 36 28 63t68 27q32 0 58 -19t26 -55q0 -39 -27.5 -64.5t-68.5 -25.5z" />
    <glyph glyph-name="uni1E53" unicode="&#x1e53;" horiz-adv-x="538" 
d="M226 -12q-60 0 -105 26t-70 73t-25 109q0 73 24.5 131t65.5 99.5t91.5 63.5t102.5 22q60 0 105 -26t70 -73t25 -109q0 -73 -24.5 -131t-65.5 -99.5t-91.5 -63.5t-102.5 -22zM244 116q22 0 41 14t33 39t22 59t8 74q0 38 -13.5 60t-42.5 22q-22 0 -41 -13.5t-33 -38.5
t-22 -59t-8 -75q0 -37 14 -59.5t42 -22.5zM188 594l20 100h294l-20 -100h-294zM290 740l110 140h140l10 -18l-160 -122h-100z" />
    <glyph glyph-name="oslash" unicode="&#xf8;" horiz-adv-x="538" 
d="M226 -12q-56 0 -101.5 24.5t-72 71t-26.5 112.5q0 73 24.5 131t65.5 99.5t91.5 63.5t102.5 22q56 0 101.5 -24.5t72 -71t26.5 -112.5q0 -73 -24.5 -131.5t-65.5 -100t-91.5 -63t-102.5 -21.5zM238 112q33 0 56 17.5t38 45.5t21.5 61t6.5 64q0 38 -16 63t-46 25
q-32 0 -55 -18t-38 -46.5t-22 -61.5t-7 -64q0 -36 14.5 -61t47.5 -25zM48 -26l-48 46l490 504l50 -44z" />
    <glyph glyph-name="oslashacute" unicode="&#x1ff;" horiz-adv-x="538" 
d="M226 -12q-56 0 -101.5 24.5t-72 71t-26.5 112.5q0 73 24.5 131t65.5 99.5t91.5 63.5t102.5 22q56 0 101.5 -24.5t72 -71t26.5 -112.5q0 -73 -24.5 -131.5t-65.5 -100t-91.5 -63t-102.5 -21.5zM238 112q33 0 56 17.5t38 45.5t21.5 61t6.5 64q0 38 -16 63t-46 25
q-32 0 -55 -18t-38 -46.5t-22 -61.5t-7 -64q0 -36 14.5 -61t47.5 -25zM48 -26l-48 46l490 504l50 -44zM230 570l150 190h180l10 -18l-210 -172h-130z" />
    <glyph glyph-name="oe" unicode="&#x153;" horiz-adv-x="792" 
d="M216 -12q-57 0 -99.5 26t-66.5 73t-24 109q0 73 24 131t64 99.5t88.5 63.5t97.5 22q53 0 84.5 -21.5t53.5 -62.5q35 41 77.5 62.5t82.5 21.5q61 0 97.5 -26t52.5 -69t16 -95q0 -36 -10 -70t-16 -46h-262q1 -37 13.5 -58.5t33.5 -30.5t47 -9q21 0 44.5 10t39.5 22l56 -100
q-28 -19 -70 -35.5t-96 -16.5q-51 0 -93 21.5t-65 64.5q-36 -42 -80.5 -64t-89.5 -22zM244 116q20 0 37 14t29.5 39t20 59t7.5 74q0 38 -13.5 60t-42.5 22q-18 0 -35 -13.5t-30 -38.5t-21 -59t-8 -75q0 -37 14 -59.5t42 -22.5zM488 302h142q2 6 3 13.5t1 14.5
q0 17 -5.5 30.5t-17.5 21.5t-33 8q-17 0 -34 -9t-31.5 -28.5t-24.5 -50.5z" />
    <glyph glyph-name="uni028C" unicode="&#x28c;" horiz-adv-x="518" 
d="M402 500l60 -500h-160l-10 228q-2 37 -2 75.5v78.5h-4q-17 -39 -32.5 -77t-31.5 -77l-98 -228h-156l250 500h184z" />
    <glyph glyph-name="uni0254" unicode="&#x254;" horiz-adv-x="459" 
d="M140 -12q-48 0 -88.5 17t-63.5 45l82 102q16 -15 35 -25.5t41 -10.5q35 0 64.5 20t47.5 58.5t18 93.5q0 50 -19 73t-49 23q-18 0 -34.5 -6.5t-39.5 -23.5l-63 96q33 26 79 44t99 18q55 0 98 -24.5t68 -71t25 -112.5q0 -73 -24.5 -131t-67 -99.5t-96 -63.5t-112.5 -22z
" />
    <glyph glyph-name="uniA74F" unicode="&#xa74f;" horiz-adv-x="798" 
d="M200 -12q-46 0 -85.5 25t-64 71.5t-24.5 111.5q0 69 21 127t56.5 100t81.5 65.5t95 23.5q57 0 99.5 -29t58.5 -103h-40q36 74 86.5 103t111.5 29q46 0 85.5 -25t64 -71.5t24.5 -111.5q0 -69 -21 -127t-56.5 -100t-81 -65.5t-95.5 -23.5q-57 0 -99 29.5t-59 102.5h40
q-36 -73 -86 -102.5t-112 -29.5zM244 116q20 0 37 14t29.5 39t20 59t7.5 74q0 38 -13.5 60t-42.5 22q-18 0 -35 -13.5t-30 -38.5t-21 -59t-8 -75q0 -37 14 -59.5t42 -22.5zM514 116q18 0 35 14t30 39t21 59t8 74q0 38 -13.5 60t-42.5 22q-19 0 -36.5 -13.5t-30 -38.5
t-20 -59t-7.5 -75q0 -37 14 -59.5t42 -22.5z" />
    <glyph glyph-name="uni0223" unicode="&#x223;" horiz-adv-x="538" 
d="M226 126q22 0 41.5 11.5t32 33t12.5 52.5q0 34 -18.5 64t-62.5 49q-30 -27 -50 -65.5t-20 -70.5q0 -27 9 -43t23.5 -23.5t32.5 -7.5zM203 -12q-61 0 -107.5 21.5t-72.5 61.5t-26 95q0 51 21.5 92.5t57.5 73t79 52.5l1 4q-32 29 -50.5 67t-18.5 84q0 50 15.5 92.5
t40.5 76.5l138 -38q-17 -28 -24.5 -51.5t-7.5 -50.5q0 -21 7.5 -38.5t23 -31t39.5 -24.5q35 32 54.5 77t19.5 80q0 17 -3 29l143 40q4 -16 5.5 -28.5t1.5 -23.5q0 -36 -19 -80.5t-50.5 -82t-70.5 -55.5l-1 -4q40 -24 63.5 -65t23.5 -100q0 -77 -37 -139t-101 -98t-145 -36z
" />
    <glyph glyph-name="ohorn" unicode="&#x1a1;" horiz-adv-x="546" 
d="M466 435l-62 55q33 6 52.5 38.5t19.5 71.5q0 9 -3 24t-7 24l118 36q8 -16 12 -37.5t4 -38.5q0 -40 -14 -75.5t-43.5 -61t-76.5 -36.5zM226 -12q-60 0 -105 26t-70 73t-25 109q0 73 24.5 131t65.5 99.5t91.5 63.5t102.5 22q60 0 105 -26t70 -73t25 -109q0 -73 -24.5 -131
t-65.5 -99.5t-91.5 -63.5t-102.5 -22zM244 116q22 0 41 14t33 39t22 59t8 74q0 38 -13.5 60t-42.5 22q-22 0 -41 -13.5t-33 -38.5t-22 -59t-8 -75q0 -37 14 -59.5t42 -22.5z" />
    <glyph glyph-name="uni1EDB" unicode="&#x1edb;" horiz-adv-x="546" 
d="M466 435l-62 55q33 6 52.5 38.5t19.5 71.5q0 9 -3 24t-7 24l118 36q8 -16 12 -37.5t4 -38.5q0 -40 -14 -75.5t-43.5 -61t-76.5 -36.5zM226 -12q-60 0 -105 26t-70 73t-25 109q0 73 24.5 131t65.5 99.5t91.5 63.5t102.5 22q60 0 105 -26t70 -73t25 -109q0 -73 -24.5 -131
t-65.5 -99.5t-91.5 -63.5t-102.5 -22zM244 116q22 0 41 14t33 39t22 59t8 74q0 38 -13.5 60t-42.5 22q-22 0 -41 -13.5t-33 -38.5t-22 -59t-8 -75q0 -37 14 -59.5t42 -22.5zM220 570l150 190h180l10 -18l-210 -172h-130z" />
    <glyph glyph-name="uni1EDD" unicode="&#x1edd;" horiz-adv-x="546" 
d="M466 435l-62 55q33 6 52.5 38.5t19.5 71.5q0 9 -3 24t-7 24l118 36q8 -16 12 -37.5t4 -38.5q0 -40 -14 -75.5t-43.5 -61t-76.5 -36.5zM226 -12q-60 0 -105 26t-70 73t-25 109q0 73 24.5 131t65.5 99.5t91.5 63.5t102.5 22q60 0 105 -26t70 -73t25 -109q0 -73 -24.5 -131
t-65.5 -99.5t-91.5 -63.5t-102.5 -22zM244 116q22 0 41 14t33 39t22 59t8 74q0 38 -13.5 60t-42.5 22q-22 0 -41 -13.5t-33 -38.5t-22 -59t-8 -75q0 -37 14 -59.5t42 -22.5zM280 570l-130 172l10 18h170l70 -190h-120z" />
    <glyph glyph-name="uni1EDF" unicode="&#x1edf;" horiz-adv-x="546" 
d="M466 435l-62 55q33 6 52.5 38.5t19.5 71.5q0 9 -3 24t-7 24l118 36q8 -16 12 -37.5t4 -38.5q0 -40 -14 -75.5t-43.5 -61t-76.5 -36.5zM226 -12q-60 0 -105 26t-70 73t-25 109q0 73 24.5 131t65.5 99.5t91.5 63.5t102.5 22q60 0 105 -26t70 -73t25 -109q0 -73 -24.5 -131
t-65.5 -99.5t-91.5 -63.5t-102.5 -22zM244 116q22 0 41 14t33 39t22 59t8 74q0 38 -13.5 60t-42.5 22q-22 0 -41 -13.5t-33 -38.5t-22 -59t-8 -75q0 -37 14 -59.5t42 -22.5zM262 566l-4 66q23 3 35.5 11.5t12.5 25.5q0 14 -16 22t-54 11l28 94q95 -1 133.5 -25t38.5 -69
q0 -58 -46.5 -95.5t-127.5 -40.5z" />
    <glyph glyph-name="uni1EE1" unicode="&#x1ee1;" horiz-adv-x="546" 
d="M466 435l-62 55q33 6 52.5 38.5t19.5 71.5q0 9 -3 24t-7 24l118 36q8 -16 12 -37.5t4 -38.5q0 -40 -14 -75.5t-43.5 -61t-76.5 -36.5zM226 -12q-60 0 -105 26t-70 73t-25 109q0 73 24.5 131t65.5 99.5t91.5 63.5t102.5 22q60 0 105 -26t70 -73t25 -109q0 -73 -24.5 -131
t-65.5 -99.5t-91.5 -63.5t-102.5 -22zM244 116q22 0 41 14t33 39t22 59t8 74q0 38 -13.5 60t-42.5 22q-22 0 -41 -13.5t-33 -38.5t-22 -59t-8 -75q0 -37 14 -59.5t42 -22.5zM346 572q-27 0 -46 8.5t-33.5 19.5t-27.5 19.5t-27 8.5q-12 0 -22.5 -9.5t-15.5 -36.5l-104 6
q9 56 29 91t48.5 51t62.5 16q27 0 46 -8.5t33.5 -19.5t27.5 -19.5t27 -8.5q12 0 23 9.5t15 36.5l104 -6q-9 -56 -29 -91t-48 -51t-63 -16z" />
    <glyph glyph-name="uni1EE3" unicode="&#x1ee3;" horiz-adv-x="546" 
d="M466 435l-62 55q33 6 52.5 38.5t19.5 71.5q0 9 -3 24t-7 24l118 36q8 -16 12 -37.5t4 -38.5q0 -40 -14 -75.5t-43.5 -61t-76.5 -36.5zM226 -12q-60 0 -105 26t-70 73t-25 109q0 73 24.5 131t65.5 99.5t91.5 63.5t102.5 22q60 0 105 -26t70 -73t25 -109q0 -73 -24.5 -131
t-65.5 -99.5t-91.5 -63.5t-102.5 -22zM244 116q22 0 41 14t33 39t22 59t8 74q0 38 -13.5 60t-42.5 22q-22 0 -41 -13.5t-33 -38.5t-22 -59t-8 -75q0 -37 14 -59.5t42 -22.5zM164 -246q-31 0 -57.5 18.5t-26.5 55.5q0 36 28 63t68 27q32 0 58 -19t26 -55q0 -39 -27.5 -64.5
t-68.5 -25.5z" />
    <glyph glyph-name="uni1E57" unicode="&#x1e57;" horiz-adv-x="560" 
d="M-28 -176l136 676h130l4 -54h4q33 30 70.5 48t73.5 18q66 0 103 -47.5t37 -136.5q0 -71 -22 -133t-59.5 -108.5t-85 -72.5t-99.5 -26q-28 0 -53.5 14.5t-40.5 39.5h-2l-12 -94l-24 -124h-160zM252 118q22 0 42 14t36 39t25 60t9 77q0 39 -12.5 56.5t-33.5 17.5
q-19 0 -42.5 -11.5t-41.5 -44.5l-34 -170q8 -19 22.5 -28.5t29.5 -9.5zM360 564q-31 0 -57.5 18.5t-26.5 55.5q0 36 28 63t68 27q32 0 58 -19t26 -55q0 -39 -27.5 -64.5t-68.5 -25.5z" />
    <glyph glyph-name="racute" unicode="&#x155;" horiz-adv-x="400" 
d="M8 0l100 500h130l-4 -98h4q29 48 68.5 79t81.5 31q21 0 34 -2.5t20 -7.5l-52 -138q-10 6 -25 7t-27 1q-31 0 -59 -21t-57 -71l-54 -280h-160zM200 570l150 190h180l10 -18l-210 -172h-130z" />
    <glyph glyph-name="rcaron" unicode="&#x159;" horiz-adv-x="400" 
d="M8 0l100 500h130l-4 -98h4q29 48 68.5 79t81.5 31q21 0 34 -2.5t20 -7.5l-52 -138q-10 6 -25 7t-27 1q-31 0 -59 -21t-57 -71l-54 -280h-160zM230 570l-80 200h120l52 -88h4l94 88h130l-160 -200h-160z" />
    <glyph glyph-name="uni1E59" unicode="&#x1e59;" horiz-adv-x="400" 
d="M8 0l100 500h130l-4 -98h4q29 48 68.5 79t81.5 31q21 0 34 -2.5t20 -7.5l-52 -138q-10 6 -25 7t-27 1q-31 0 -59 -21t-57 -71l-54 -280h-160zM310 564q-31 0 -57.5 18.5t-26.5 55.5q0 36 28 63t68 27q32 0 58 -19t26 -55q0 -39 -27.5 -64.5t-68.5 -25.5z" />
    <glyph glyph-name="uni0157" unicode="&#x157;" horiz-adv-x="400" 
d="M8 0l100 500h130l-4 -98h4q29 48 68.5 79t81.5 31q21 0 34 -2.5t20 -7.5l-52 -138q-10 6 -25 7t-27 1q-31 0 -59 -21t-57 -71l-54 -280h-160zM-64 -244v66q58 3 81.5 13.5t23.5 26.5q0 9 -11 18.5t-43 9.5l44 60q56 -2 85 -12t39.5 -26t10.5 -36q0 -41 -30 -66.5
t-82 -38.5t-118 -15z" />
    <glyph glyph-name="uni1E5B" unicode="&#x1e5b;" horiz-adv-x="400" 
d="M8 0l100 500h130l-4 -98h4q29 48 68.5 79t81.5 31q21 0 34 -2.5t20 -7.5l-52 -138q-10 6 -25 7t-27 1q-31 0 -59 -21t-57 -71l-54 -280h-160zM44 -246q-31 0 -57.5 18.5t-26.5 55.5q0 36 28 63t68 27q32 0 58 -19t26 -55q0 -39 -27.5 -64.5t-68.5 -25.5z" />
    <glyph glyph-name="uni1E5D" unicode="&#x1e5d;" horiz-adv-x="400" 
d="M8 0l100 500h130l-4 -98h4q29 48 68.5 79t81.5 31q21 0 34 -2.5t20 -7.5l-52 -138q-10 6 -25 7t-27 1q-31 0 -59 -21t-57 -71l-54 -280h-160zM158 590l20 100h294l-20 -100h-294zM44 -246q-31 0 -57.5 18.5t-26.5 55.5q0 36 28 63t68 27q32 0 58 -19t26 -55
q0 -39 -27.5 -64.5t-68.5 -25.5z" />
    <glyph glyph-name="uni1E5F" unicode="&#x1e5f;" horiz-adv-x="400" 
d="M8 0l100 500h130l-4 -98h4q29 48 68.5 79t81.5 31q21 0 34 -2.5t20 -7.5l-52 -138q-10 6 -25 7t-27 1q-31 0 -59 -21t-57 -71l-54 -280h-160zM-98 -170l20 100h294l-20 -100h-294z" />
    <glyph glyph-name="sacute" unicode="&#x15b;" horiz-adv-x="432" 
d="M172 -12q-28 0 -61.5 10.5t-64 32t-52.5 53.5l80 76q29 -32 57.5 -44t50.5 -12q15 0 28 4.5t20.5 12t7.5 17.5q0 13 -10 22t-29 19t-45 25q-37 21 -66.5 56t-29.5 84q0 48 27 86t73 60t102 22q53 0 95 -22.5t73 -57.5l-80 -82q-19 18 -42 31t-46 13q-24 0 -38 -10.5
t-14 -25.5q0 -21 26 -33t54 -29q24 -13 47 -31.5t38 -45t15 -63.5q0 -50 -27.5 -88t-76.5 -59t-112 -21zM180 570l150 190h180l10 -18l-210 -172h-130z" />
    <glyph glyph-name="scircumflex" unicode="&#x15d;" horiz-adv-x="432" 
d="M172 -12q-28 0 -61.5 10.5t-64 32t-52.5 53.5l80 76q29 -32 57.5 -44t50.5 -12q15 0 28 4.5t20.5 12t7.5 17.5q0 13 -10 22t-29 19t-45 25q-37 21 -66.5 56t-29.5 84q0 48 27 86t73 60t102 22q53 0 95 -22.5t73 -57.5l-80 -82q-19 18 -42 31t-46 13q-24 0 -38 -10.5
t-14 -25.5q0 -21 26 -33t54 -29q24 -13 47 -31.5t38 -45t15 -63.5q0 -50 -27.5 -88t-76.5 -59t-112 -21zM80 570l160 200h160l80 -200h-120l-52 88h-4l-94 -88h-130z" />
    <glyph glyph-name="uni1E61" unicode="&#x1e61;" horiz-adv-x="432" 
d="M172 -12q-28 0 -61.5 10.5t-64 32t-52.5 53.5l80 76q29 -32 57.5 -44t50.5 -12q15 0 28 4.5t20.5 12t7.5 17.5q0 13 -10 22t-29 19t-45 25q-37 21 -66.5 56t-29.5 84q0 48 27 86t73 60t102 22q53 0 95 -22.5t73 -57.5l-80 -82q-19 18 -42 31t-46 13q-24 0 -38 -10.5
t-14 -25.5q0 -21 26 -33t54 -29q24 -13 47 -31.5t38 -45t15 -63.5q0 -50 -27.5 -88t-76.5 -59t-112 -21zM290 564q-31 0 -57.5 18.5t-26.5 55.5q0 36 28 63t68 27q32 0 58 -19t26 -55q0 -39 -27.5 -64.5t-68.5 -25.5z" />
    <glyph glyph-name="scaron" unicode="&#x161;" horiz-adv-x="432" 
d="M172 -12q-28 0 -61.5 10.5t-64 32t-52.5 53.5l80 76q29 -32 57.5 -44t50.5 -12q15 0 28 4.5t20.5 12t7.5 17.5q0 13 -10 22t-29 19t-45 25q-37 21 -66.5 56t-29.5 84q0 48 27 86t73 60t102 22q53 0 95 -22.5t73 -57.5l-80 -82q-19 18 -42 31t-46 13q-24 0 -38 -10.5
t-14 -25.5q0 -21 26 -33t54 -29q24 -13 47 -31.5t38 -45t15 -63.5q0 -50 -27.5 -88t-76.5 -59t-112 -21zM210 570l-80 200h120l52 -88h4l94 88h130l-160 -200h-160z" />
    <glyph glyph-name="uni015F" unicode="&#x15f;" horiz-adv-x="432" 
d="M172 -12q-28 0 -61.5 10.5t-64 32t-52.5 53.5l80 76q29 -32 57.5 -44t50.5 -12q15 0 28 4.5t20.5 12t7.5 17.5q0 13 -10 22t-29 19t-45 25q-37 21 -66.5 56t-29.5 84q0 48 27 86t73 60t102 22q53 0 95 -22.5t73 -57.5l-80 -82q-19 18 -42 31t-46 13q-24 0 -38 -10.5
t-14 -25.5q0 -21 26 -33t54 -29q24 -13 47 -31.5t38 -45t15 -63.5q0 -50 -27.5 -88t-76.5 -59t-112 -21zM20 -244v66q57 3 80.5 12t27.5 30q2 14 -11.5 24t-58.5 16l68 100h98l-40 -64q38 -9 54.5 -26.5t11.5 -49.5q-10 -54 -69.5 -79.5t-160.5 -28.5z" />
    <glyph glyph-name="uni0219" unicode="&#x219;" horiz-adv-x="432" 
d="M172 -12q-28 0 -61.5 10.5t-64 32t-52.5 53.5l80 76q29 -32 57.5 -44t50.5 -12q15 0 28 4.5t20.5 12t7.5 17.5q0 13 -10 22t-29 19t-45 25q-37 21 -66.5 56t-29.5 84q0 48 27 86t73 60t102 22q53 0 95 -22.5t73 -57.5l-80 -82q-19 18 -42 31t-46 13q-24 0 -38 -10.5
t-14 -25.5q0 -21 26 -33t54 -29q24 -13 47 -31.5t38 -45t15 -63.5q0 -50 -27.5 -88t-76.5 -59t-112 -21zM16 -244v66q58 3 81.5 13.5t23.5 26.5q0 9 -11 18.5t-43 9.5l44 60q56 -2 85 -12t39.5 -26t10.5 -36q0 -41 -30 -66.5t-82 -38.5t-118 -15z" />
    <glyph glyph-name="uni1E63" unicode="&#x1e63;" horiz-adv-x="432" 
d="M172 -12q-28 0 -61.5 10.5t-64 32t-52.5 53.5l80 76q29 -32 57.5 -44t50.5 -12q15 0 28 4.5t20.5 12t7.5 17.5q0 13 -10 22t-29 19t-45 25q-37 21 -66.5 56t-29.5 84q0 48 27 86t73 60t102 22q53 0 95 -22.5t73 -57.5l-80 -82q-19 18 -42 31t-46 13q-24 0 -38 -10.5
t-14 -25.5q0 -21 26 -33t54 -29q24 -13 47 -31.5t38 -45t15 -63.5q0 -50 -27.5 -88t-76.5 -59t-112 -21zM124 -246q-31 0 -57.5 18.5t-26.5 55.5q0 36 28 63t68 27q32 0 58 -19t26 -55q0 -39 -27.5 -64.5t-68.5 -25.5z" />
    <glyph glyph-name="uni1E67" unicode="&#x1e67;" horiz-adv-x="432" 
d="M172 -12q-28 0 -61.5 10.5t-64 32t-52.5 53.5l80 76q29 -32 57.5 -44t50.5 -12q15 0 28 4.5t20.5 12t7.5 17.5q0 13 -10 22t-29 19t-45 25q-37 21 -66.5 56t-29.5 84q0 48 27 86t73 60t102 22q53 0 95 -22.5t73 -57.5l-80 -82q-19 18 -42 31t-46 13q-24 0 -38 -10.5
t-14 -25.5q0 -21 26 -33t54 -29q24 -13 47 -31.5t38 -45t15 -63.5q0 -50 -27.5 -88t-76.5 -59t-112 -21zM214 570l-74 150h108l49 -56h3l83 56h117l-142 -150h-144zM318 724q-25 0 -45.5 15.5t-20.5 46.5q0 35 26 59.5t60 24.5q26 0 46 -15t20 -47q0 -34 -25.5 -59
t-60.5 -25z" />
    <glyph glyph-name="germandbls" unicode="&#xdf;" horiz-adv-x="630" 
d="M388 -12q-37 0 -73.5 9.5t-68.5 34.5l54 100q18 -12 39.5 -19t46.5 -7q15 0 26 6t16.5 17t5.5 25q0 17 -12 31t-30 28.5t-36 31.5t-30 39.5t-12 53.5q0 26 12 45.5t29.5 35.5l35 32t29.5 34.5t12 42.5q0 26 -14.5 40t-49.5 14q-27 0 -48.5 -15t-36 -41t-21.5 -58
l-94 -468h-160l100 498q12 60 46.5 107.5t89.5 75t130 27.5q53 0 101.5 -16t79.5 -50.5t31 -89.5q0 -33 -11.5 -57.5t-29 -43.5t-35 -34t-29 -29t-11.5 -28q0 -13 11.5 -26t28 -27.5t33 -33t28 -44t11.5 -59.5q0 -51 -26 -92t-70 -65.5t-98 -24.5z" />
    <glyph glyph-name="longs" unicode="&#x17f;" horiz-adv-x="344" 
d="M34 0l104 514q11 54 35.5 98t66.5 70t104 26q30 0 59.5 -7t54.5 -21l-50 -112q-7 5 -20.5 9.5t-25.5 4.5q-25 0 -40.5 -10.5t-23.5 -51.5l-104 -520h-160zM46 376l24 118l66 6h80l-24 -124h-146z" />
    <glyph glyph-name="tcaron" unicode="&#x165;" horiz-adv-x="384" 
d="M210 -12q-79 0 -114.5 39.5t-35.5 100.5q0 17 2.5 33.5t5.5 32.5l38 182h-64l24 118l72 6l48 150h134l-28 -150h108l-24 -124h-112l-38 -188q-1 -9 -1.5 -16.5t-0.5 -15.5q0 -22 12.5 -33t31.5 -11q11 0 21 2.5t19 5.5l28 -108q-21 -9 -54 -16.5t-72 -7.5zM337 548
l40 226h100l-16 -74l-56 -152h-68z" />
    <glyph glyph-name="uni1E6B" unicode="&#x1e6b;" horiz-adv-x="384" 
d="M210 -12q-79 0 -114.5 39.5t-35.5 100.5q0 17 2.5 33.5t5.5 32.5l38 182h-64l24 118l72 6l48 150h134l-28 -150h108l-24 -124h-112l-38 -188q-1 -9 -1.5 -16.5t-0.5 -15.5q0 -22 12.5 -33t31.5 -11q11 0 21 2.5t19 5.5l28 -108q-21 -9 -54 -16.5t-72 -7.5zM280 704
q-31 0 -57.5 18.5t-26.5 55.5q0 36 28 63t68 27q32 0 58 -19t26 -55q0 -39 -27.5 -64.5t-68.5 -25.5z" />
    <glyph glyph-name="uni0163" unicode="&#x163;" horiz-adv-x="384" 
d="M210 -12q-79 0 -114.5 39.5t-35.5 100.5q0 17 2.5 33.5t5.5 32.5l38 182h-64l24 118l72 6l48 150h134l-28 -150h108l-24 -124h-112l-38 -188q-1 -9 -1.5 -16.5t-0.5 -15.5q0 -22 12.5 -33t31.5 -11q11 0 21 2.5t19 5.5l28 -108q-21 -9 -54 -16.5t-72 -7.5zM40 -244v66
q57 3 80.5 12t27.5 30q2 14 -11.5 24t-58.5 16l68 100h98l-40 -64q38 -9 54.5 -26.5t11.5 -49.5q-10 -54 -69.5 -79.5t-160.5 -28.5z" />
    <glyph glyph-name="uni021B" unicode="&#x21b;" horiz-adv-x="384" 
d="M210 -12q-79 0 -114.5 39.5t-35.5 100.5q0 17 2.5 33.5t5.5 32.5l38 182h-64l24 118l72 6l48 150h134l-28 -150h108l-24 -124h-112l-38 -188q-1 -9 -1.5 -16.5t-0.5 -15.5q0 -22 12.5 -33t31.5 -11q11 0 21 2.5t19 5.5l28 -108q-21 -9 -54 -16.5t-72 -7.5zM36 -244v66
q58 3 81.5 13.5t23.5 26.5q0 9 -11 18.5t-43 9.5l44 60q56 -2 85 -12t39.5 -26t10.5 -36q0 -41 -30 -66.5t-82 -38.5t-118 -15z" />
    <glyph glyph-name="uni1E6D" unicode="&#x1e6d;" horiz-adv-x="384" 
d="M210 -12q-79 0 -114.5 39.5t-35.5 100.5q0 17 2.5 33.5t5.5 32.5l38 182h-64l24 118l72 6l48 150h134l-28 -150h108l-24 -124h-112l-38 -188q-1 -9 -1.5 -16.5t-0.5 -15.5q0 -22 12.5 -33t31.5 -11q11 0 21 2.5t19 5.5l28 -108q-21 -9 -54 -16.5t-72 -7.5zM144 -246
q-31 0 -57.5 18.5t-26.5 55.5q0 36 28 63t68 27q32 0 58 -19t26 -55q0 -39 -27.5 -64.5t-68.5 -25.5z" />
    </font>
</defs>
</svg>
