<?xml version="1.0" standalone="no"?>
<!DOCTYPE svg PUBLIC "-//W3C//DTD SVG 1.1//EN" "http://www.w3.org/Graphics/SVG/1.1/DTD/svg11.dtd" >
<svg xmlns="http://www.w3.org/2000/svg" xmlns:xlink="http://www.w3.org/1999/xlink" version="1.1">
<metadata>
Created by FontForge 20201107 at Tue Sep 19 10:25:55 2023
 By Unknown
(c) 2023 Adobe (http://www.adobe.com/), with Reserved Font Name `Source'
</metadata>
<defs>
<font id="SourceSans3-SemiBoldItalic" horiz-adv-x="0" >
  <font-face 
    font-family="Source Sans 3 SemiBold"
    font-weight="600"
    font-style="italic"
    font-stretch="normal"
    units-per-em="1000"
    panose-1="2 11 3 3 3 4 3 9 2 4"
    ascent="800"
    descent="-200"
    x-height="491"
    cap-height="654"
    bbox="-653 -304 2077 971"
    underline-thickness="50"
    underline-position="-75"
    slope="-11"
    unicode-range="U+0021-1F916"
  />
<missing-glyph horiz-adv-x="646" 
d="M32 0l130 660h481l-130 -660h-481zM350 396h4l64 95l67 97h-190l29 -97zM184 72h205l-33 110l-25 99h-4l-65 -99zM136 126l150 214l-65 214zM460 126l88 428l-152 -214z" />
    <glyph glyph-name="f_f" unicode="ff" horiz-adv-x="588" 
d="M40 0l108 538q11 50 33 88t58 60t86 22q29 0 54 -6.5t45 -18.5l-35 -74q-9 6 -24 9.5t-31 3.5q-31 0 -50.5 -19.5t-28.5 -61.5l-108 -541h-107zM324 0l110 548q11 50 32.5 88t56.5 60t84 22q28 0 52.5 -6.5t44.5 -18.5l-35 -74q-9 6 -23 9.5t-30 3.5q-29 0 -47.5 -19.5
t-27.5 -61.5l-110 -551h-107zM53 406l17 80l72 5h480l-17 -85h-552z" />
    <glyph glyph-name="f_t" unicode="ft" horiz-adv-x="606" 
d="M40 0l110 548q11 50 32.5 88t56.5 60t84 22q28 0 52.5 -6.5t44.5 -18.5l-35 -74q-9 6 -23 9.5t-30 3.5q-29 0 -47.5 -19.5t-27.5 -61.5l-110 -551h-107zM454 -12q-69 0 -98.5 34.5t-29.5 85.5q0 16 1.5 30t4.5 28l50 240h-329l17 80l72 5h262l43 153h90l-30 -153h118
l-17 -85h-120l-50 -244q-1 -9 -2 -17.5t-1 -17.5q0 -27 13.5 -40.5t41.5 -13.5q13 0 25 4t23 8l20 -74q-17 -8 -44.5 -15.5t-59.5 -7.5z" />
    <glyph glyph-name="f_f_t" unicode="fft" horiz-adv-x="890" 
d="M40 0l108 538q11 50 33 88t58 60t86 22q29 0 54 -6.5t45 -18.5l-35 -74q-9 6 -24 9.5t-31 3.5q-31 0 -50.5 -19.5t-28.5 -61.5l-108 -541h-107zM324 0l110 548q11 50 32.5 88t56.5 60t84 22q28 0 52.5 -6.5t44.5 -18.5l-35 -74q-9 6 -23 9.5t-30 3.5q-29 0 -47.5 -19.5
t-27.5 -61.5l-110 -551h-107zM738 -12q-69 0 -98.5 34.5t-29.5 85.5q0 16 1.5 30t4.5 28l50 240h-613l17 80l72 5h546l43 153h90l-30 -153h118l-17 -85h-120l-50 -244q-1 -9 -2 -17.5t-1 -17.5q0 -27 13.5 -40.5t41.5 -13.5q13 0 25 4t23 8l20 -74q-17 -8 -44.5 -15.5
t-59.5 -7.5z" />
    <glyph glyph-name=".notdef" horiz-adv-x="646" 
d="M32 0l130 660h481l-130 -660h-481zM350 396h4l64 95l67 97h-190l29 -97zM184 72h205l-33 110l-25 99h-4l-65 -99zM136 126l150 214l-65 214zM460 126l88 428l-152 -214z" />
    <glyph glyph-name="space" unicode="&#xa0;" horiz-adv-x="200" 
 />
    <glyph glyph-name="space" unicode=" " horiz-adv-x="200" 
 />
    <glyph glyph-name="A" unicode="A" horiz-adv-x="529" 
d="M-56 0l348 654h128l70 -654h-112l-26 365q-3 50 -6.5 100t-5.5 103h-4q-24 -53 -46.5 -102.5t-48.5 -100.5l-180 -365h-117zM108 184l20 82h293l-19 -82h-294z" />
    <glyph glyph-name="B" unicode="B" horiz-adv-x="581" 
d="M32 0l130 654h188q96 0 152.5 -36t56.5 -111q0 -41 -20 -74.5t-52.5 -56t-72.5 -32.5v-4q35 -9 61 -25.5t40.5 -42t14.5 -60.5q0 -75 -36.5 -121.5t-99 -68.5t-139.5 -22h-223zM215 380h80q81 0 118.5 30.5t37.5 79.5q0 38 -30 59t-93 21h-74zM156 84h99q54 0 93 13.5
t59.5 40.5t20.5 69q0 47 -32.5 72t-94.5 25h-101z" />
    <glyph glyph-name="C" unicode="C" horiz-adv-x="559" 
d="M295 -12q-74 0 -127.5 33t-82 93.5t-28.5 142.5q0 65 16.5 125.5t46.5 112t72 90t94 60t111 21.5q56 0 100 -25.5t67 -69.5l-61 -58q-19 31 -47.5 45.5t-65.5 14.5q-39 0 -73 -17.5t-61.5 -47.5t-47.5 -69.5t-30.5 -84t-10.5 -89.5q0 -55 15.5 -96.5t48 -64.5t83.5 -23
q38 0 70.5 14.5t59.5 37.5l45 -66q-36 -34 -82.5 -56.5t-111.5 -22.5z" />
    <glyph glyph-name="D" unicode="D" horiz-adv-x="608" 
d="M32 0l130 654h137q88 0 151.5 -29.5t97.5 -87.5t34 -144q0 -90 -26 -162.5t-74 -124t-113.5 -79t-143.5 -27.5h-193zM157 87h67q53 0 98 20.5t79 59.5t52.5 94.5t18.5 124.5q0 61 -22 101t-61.5 60t-92.5 20h-44z" />
    <glyph glyph-name="E" unicode="E" horiz-adv-x="514" 
d="M32 0l130 654h375l-18 -91h-268l-35 -176h227l-18 -91h-226l-42 -205h276l-18 -91h-383z" />
    <glyph glyph-name="F" unicode="F" horiz-adv-x="489" 
d="M32 0l130 654h375l-18 -91h-268l-38 -193h227l-18 -91h-226l-56 -279h-108z" />
    <glyph glyph-name="G" unicode="G" horiz-adv-x="600" 
d="M307 -12q-80 0 -135.5 33t-85 93t-29.5 143q0 81 25 155t72 131t110.5 90t141.5 33q59 0 104 -25.5t70 -68.5l-62 -63q-20 32 -50 48t-68 16q-42 0 -77.5 -17t-64 -47.5t-49 -69.5t-31.5 -83.5t-11 -90.5q0 -54 16 -95.5t50.5 -65.5t91.5 -24q27 0 51 9t40 22l32 154
h-121l17 88h217l-59 -298q-36 -29 -86 -48t-109 -19z" />
    <glyph glyph-name="H" unicode="H" horiz-adv-x="638" 
d="M32 0l130 654h108l-54 -265h259l53 265h108l-131 -654h-108l60 295h-259l-58 -295h-108z" />
    <glyph glyph-name="I" unicode="I" horiz-adv-x="272" 
d="M32 0l130 654h108l-130 -654h-108z" />
    <glyph glyph-name="J" unicode="J" horiz-adv-x="474" 
d="M168 -12q-59 0 -103.5 27t-67.5 79l64 53q16 -31 42 -48.5t64 -17.5q45 0 73 33.5t41 97.5l88 442h108l-92 -460q-11 -58 -38 -104.5t-71.5 -74t-107.5 -27.5z" />
    <glyph glyph-name="K" unicode="K" horiz-adv-x="576" 
d="M32 0l130 654h108l-59 -296h4l286 296h119l-241 -260l147 -394h-112l-115 326l-118 -120l-41 -206h-108z" />
    <glyph glyph-name="L" unicode="L" horiz-adv-x="481" 
d="M32 0l130 654h108l-112 -563h261l-18 -91h-369z" />
    <glyph glyph-name="M" unicode="M" horiz-adv-x="723" 
d="M32 0l130 654h128l46 -328q5 -31 8 -62t7 -64h4q14 33 28 64t31 62l176 328h130l-130 -654h-102l65 314q7 32 16.5 70t20 76t20.5 70h-4l-78 -162l-162 -304h-76l-48 304l-18 162h-4q-2 -32 -5.5 -70.5t-8 -76.5t-10.5 -69l-62 -314h-102z" />
    <glyph glyph-name="N" unicode="N" horiz-adv-x="631" 
d="M32 0l130 654h112l126 -380q4 -12 10.5 -36.5t13 -52.5t10.5 -51h4q5 53 12 110.5t17 111.5l59 298h104l-131 -654h-111l-124 378q-6 18 -17 60t-19 84h-4q-4 -52 -11.5 -110t-18.5 -112l-59 -300h-103z" />
    <glyph glyph-name="O" unicode="O" horiz-adv-x="647" 
d="M294 -12q-73 0 -126 33.5t-81.5 95.5t-28.5 146q0 65 16.5 124.5t46 110.5t70 88.5t89.5 58.5t104 21q74 0 127 -33.5t81 -95t28 -146.5q0 -65 -16 -124.5t-46 -110.5t-70.5 -88.5t-89.5 -58.5t-104 -21zM300 81q35 0 66.5 16.5t57.5 46t45.5 67.5t30 82t10.5 90
q0 58 -14.5 100.5t-44 66t-73.5 23.5q-35 0 -66.5 -16.5t-57.5 -46t-45 -67.5t-29.5 -82t-10.5 -90q0 -58 14.5 -100.5t43.5 -66t73 -23.5z" />
    <glyph glyph-name="P" unicode="P" horiz-adv-x="567" 
d="M32 0l130 654h196q63 0 111.5 -17t76 -53.5t27.5 -96.5q0 -64 -22.5 -110t-62.5 -75.5t-93.5 -43t-115.5 -13.5h-91l-48 -245h-108zM206 331h82q87 0 132.5 35.5t45.5 105.5q0 51 -33 73.5t-95 22.5h-86z" />
    <glyph glyph-name="Q" unicode="Q" horiz-adv-x="647" 
d="M294 -12q-73 0 -126 33.5t-81.5 95t-28.5 146.5q0 65 16 125t46 110.5t70.5 88t89.5 58.5t104 21q74 0 127 -33.5t81 -95t28 -146.5q0 -65 -16 -125t-46 -110.5t-70.5 -88t-89.5 -58.5t-104 -21zM300 78q35 0 66.5 16.5t57.5 45.5t45 68t30 83.5t11 91.5
q0 58 -14.5 100.5t-44 66t-73.5 23.5q-34 0 -65.5 -16.5t-58 -45.5t-45.5 -68t-29.5 -82.5t-10.5 -89.5q0 -60 14.5 -103.5t43.5 -66.5t73 -23zM466 -173q-59 0 -110 21t-88 64t-55 110l109 -3q9 -36 33 -59t56.5 -34t66.5 -11q16 0 28.5 2.5t25.5 6.5l18 -82
q-34 -15 -84 -15z" />
    <glyph glyph-name="R" unicode="R" horiz-adv-x="576" 
d="M32 0l130 654h193q62 0 110.5 -15.5t76 -51t27.5 -93.5q0 -59 -22.5 -103.5t-61.5 -74t-89 -44t-106 -14.5h-99l-51 -258h-108zM209 344h83q84 0 127 37t43 98q0 47 -32.5 68t-95.5 21h-82zM383 0l-104 282l80 67l139 -349h-115z" />
    <glyph glyph-name="S" unicode="S" horiz-adv-x="518" 
d="M234 -12q-62 0 -120.5 29t-100.5 89l66 61q29 -40 72 -63t95 -23q32 0 58 11.5t41 33t15 50.5q0 34 -21 55.5t-58 43.5l-66 40q-44 27 -73 64.5t-29 94.5q0 52 28.5 95.5t77 70t108.5 26.5q58 0 108 -26.5t83 -69.5l-63 -63q-25 29 -58 47.5t-73 18.5q-32 0 -54.5 -12.5
t-34 -32.5t-11.5 -42q0 -32 22.5 -52t60.5 -44l69 -42q48 -28 72 -63t24 -91q0 -58 -30 -104.5t-83.5 -74t-124.5 -27.5z" />
    <glyph glyph-name="T" unicode="T" horiz-adv-x="521" 
d="M157 0l112 562h-181l18 92h470l-18 -92h-181l-112 -562h-108z" />
    <glyph glyph-name="U" unicode="U" horiz-adv-x="630" 
d="M297 -12q-108 0 -164 54t-56 163q0 22 4 48t8 51l70 350h108l-73 -366q-4 -21 -6.5 -40t-2.5 -37q0 -63 27.5 -96.5t88.5 -33.5q35 0 63 16t49 56t35 111l78 390h106l-79 -390q-20 -102 -55.5 -162.5t-85.5 -87t-115 -26.5z" />
    <glyph glyph-name="V" unicode="V" horiz-adv-x="526" 
d="M138 0l-58 654h112l22 -342q4 -53 7 -106t4 -107h4q24 53 48.5 107t48.5 106l164 342h117l-339 -654h-130z" />
    <glyph glyph-name="W" unicode="W" horiz-adv-x="775" 
d="M88 0l14 654h112l-14 -336q-2 -52 -7.5 -105.5t-10.5 -106.5h4q22 53 43 107t43 105l144 336h106l4 -336q1 -52 -1.5 -105.5t-4.5 -106.5h4q19 53 38 106.5t38 105.5l124 336h108l-260 -654h-138l-2 356q0 34 2 74.5t4 78.5h-4q-13 -37 -25.5 -76t-28.5 -77l-150 -356
h-142z" />
    <glyph glyph-name="X" unicode="X" horiz-adv-x="518" 
d="M-36 0l247 338l-105 316h120l43 -152q6 -22 12 -46l13 -52h4q17 29 33 53.5t30 46.5l99 150h116l-234 -322l114 -332h-120l-47 163q-7 25 -14.5 50.5t-14.5 52.5h-3q-18 -28 -35 -54l-34 -52l-108 -160h-116z" />
    <glyph glyph-name="Y" unicode="Y" horiz-adv-x="486" 
d="M138 0l49 246l-105 408h111l37 -172q8 -37 14.5 -71.5t13.5 -72.5h4q21 38 42 73t43 72l107 171h116l-275 -408l-49 -246h-108z" />
    <glyph glyph-name="Z" unicode="Z" horiz-adv-x="519" 
d="M-3 0l14 65l390 498h-278l18 91h407l-13 -65l-387 -498h306l-19 -91h-438z" />
    <glyph glyph-name="a" unicode="a" horiz-adv-x="544" 
d="M175 -12q-64 0 -102 46.5t-38 132.5q0 71 22 132t59 106.5t84.5 71.5t98.5 26q36 0 66.5 -18.5t46.5 -50.5h2l21 57h86l-98 -491h-88l5 68h-3q-34 -36 -77 -58t-85 -22zM219 76q32 0 65.5 19.5t63.5 63.5l40 196q-16 32 -38 46t-45 14q-31 0 -59.5 -18.5t-51 -51
t-35.5 -74.5t-13 -89q0 -54 19.5 -80t53.5 -26z" />
    <glyph glyph-name="b" unicode="b" horiz-adv-x="545" 
d="M245 -12q-36 0 -65 19t-46 50h-2l-21 -57h-89l142 706h107l-35 -174l-24 -94h2q35 28 74.5 46.5t79.5 18.5q65 0 102.5 -46t37.5 -133q0 -70 -21.5 -131.5t-59 -107t-84.5 -71.5t-98 -26zM238 76q32 0 60.5 19t51 51t35.5 74t13 90q0 53 -20 79t-54 26q-28 0 -62.5 -17.5
t-62.5 -53.5l-42 -208q16 -31 37 -45.5t44 -14.5z" />
    <glyph glyph-name="c" unicode="c" horiz-adv-x="439" 
d="M220 -12q-54 0 -96 23.5t-66.5 68t-24.5 108.5q0 66 22.5 123t61 100.5t89.5 67.5t108 24q47 0 79.5 -18t50.5 -42l-58 -61q-16 17 -34 25.5t-44 8.5q-33 0 -62.5 -18t-52.5 -49t-36.5 -71.5t-13.5 -85.5q0 -55 25 -86t74 -31q27 0 51.5 11.5t42.5 25.5l45 -61
q-28 -26 -68 -44.5t-93 -18.5z" />
    <glyph glyph-name="d" unicode="d" horiz-adv-x="540" 
d="M175 -12q-65 0 -102.5 46.5t-37.5 132.5q0 70 22 131.5t59.5 107.5t84.5 71.5t98 25.5q37 0 64.5 -17.5t43.5 -47.5h3l14 94l34 174h107l-142 -706h-88l5 68h-3q-34 -36 -77 -58t-85 -22zM219 76q32 0 65 19.5t64 63.5l40 196q-17 32 -38.5 46t-44.5 14
q-31 0 -59.5 -18.5t-51 -50.5t-35.5 -74.5t-13 -89.5q0 -54 20 -80t53 -26z" />
    <glyph glyph-name="e" unicode="e" horiz-adv-x="488" 
d="M236 -12q-93 0 -148 54.5t-55 153.5q0 69 23.5 125t62 97t86 63t95.5 22q58 0 92.5 -24t50 -65t15.5 -92q0 -22 -3 -41.5t-7.5 -36.5t-9.5 -30h-327l9 80h244q3 11 3.5 17.5t0.5 16.5q0 24 -7.5 44.5t-25 33t-47.5 12.5q-22 0 -48 -13t-48.5 -38.5t-37 -64t-14.5 -88.5
q0 -56 14.5 -86.5t41 -42t62.5 -11.5q29 0 55 9.5t47 24.5l38 -66q-30 -24 -71 -39t-91 -15z" />
    <glyph glyph-name="f" unicode="f" horiz-adv-x="305" 
d="M40 0l81 406h-68l17 80l69 5l11 57q10 50 32 88t57 60t84 22q28 0 52.5 -6.5t44.5 -18.5l-35 -74q-9 6 -23 9.5t-30 3.5q-29 0 -47.5 -19.5t-27.5 -61.5l-12 -60h93l-17 -85h-94l-80 -406h-107z" />
    <glyph glyph-name="g" unicode="g" horiz-adv-x="538" 
d="M174 -211q-45 0 -91 16t-84 52l47 67q27 -22 61 -35.5t71 -13.5q53 0 87.5 31t47.5 86l25 95q-35 -36 -75.5 -56.5t-84.5 -20.5q-62 0 -102.5 43.5t-40.5 129.5q0 67 21.5 125t58 102t82.5 68.5t96 24.5q36 0 65.5 -18.5t45.5 -50.5h3l21 57h87l-100 -498
q-20 -102 -82 -153t-159 -51zM217 99q29 0 64 17.5t63 56.5l37 182q-17 32 -38 46t-44 14q-30 0 -57.5 -17.5t-49 -47.5t-34 -69.5t-12.5 -83.5q0 -49 19.5 -73.5t51.5 -24.5z" />
    <glyph glyph-name="h" unicode="h" horiz-adv-x="535" 
d="M22 0l142 706h107l-43 -208l-19 -71h4q37 32 77.5 54t84.5 22q62 0 89 -32.5t27 -91.5q0 -17 -1.5 -33.5t-6.5 -35.5l-62 -310h-107l60 296q3 18 5.5 29.5t2.5 22.5q0 32 -15 47.5t-47 15.5q-25 0 -55 -18t-69 -58l-66 -335h-108z" />
    <glyph glyph-name="i" unicode="i" horiz-adv-x="251" 
d="M22 0l99 491h107l-98 -491h-108zM198 578q-23 0 -42.5 14.5t-19.5 41.5q0 29 21.5 49.5t50.5 20.5q24 0 43 -14.5t19 -41.5q0 -30 -21 -50t-51 -20z" />
    <glyph glyph-name="j" unicode="j" horiz-adv-x="252" 
d="M-42 -206q-23 0 -44 4.5t-39 15.5l29 76q11 -5 22 -7.5t24 -2.5q27 0 41.5 21t24.5 63l106 527h107l-106 -530q-10 -47 -30 -85t-53 -60t-82 -22zM198 578q-23 0 -42.5 14.5t-19.5 41.5q0 29 21.5 49.5t50.5 20.5q24 0 43 -14.5t19 -41.5q0 -30 -21 -50t-51 -20z" />
    <glyph glyph-name="k" unicode="k" horiz-adv-x="501" 
d="M22 0l142 706h107l-89 -444h4l217 229h120l-198 -210l117 -281h-108l-84 218l-96 -97l-24 -121h-108z" />
    <glyph glyph-name="l" unicode="l" horiz-adv-x="262" 
d="M129 -10q-47 0 -68 21.5t-21 58.5q0 11 1.5 23t5.5 28l117 585h107l-118 -589q-1 -8 -1.5 -13t-0.5 -10q0 -17 16 -17q3 0 6 0.5l9 1.5l6 -77q-13 -5 -27.5 -8.5t-31.5 -3.5z" />
    <glyph glyph-name="m" unicode="m" horiz-adv-x="813" 
d="M22 0l99 491h87l-4 -69h4q37 33 78 57t80 24q57 0 81.5 -25.5t32.5 -65.5q44 42 87.5 66.5t82.5 24.5q61 0 88.5 -32.5t27.5 -91.5q0 -17 -2 -33.5t-6 -35.5l-62 -310h-108l60 296q4 18 6 29.5t2 22.5q0 32 -15 47.5t-45 15.5q-19 0 -49 -18t-68 -58l-67 -335h-107
l59 296q4 18 6 29.5t2 22.5q0 32 -14.5 47.5t-44.5 15.5q-19 0 -49.5 -18t-67.5 -58l-66 -335h-108z" />
    <glyph glyph-name="n" unicode="n" horiz-adv-x="539" 
d="M22 0l99 491h87l-4 -69h4q37 33 79 57t88 24q62 0 89 -32.5t27 -91.5q0 -17 -1.5 -33.5t-6.5 -35.5l-62 -310h-107l60 296q3 18 5.5 29.5t2.5 22.5q0 32 -15 47.5t-47 15.5q-25 0 -55 -18t-69 -58l-66 -335h-108z" />
    <glyph glyph-name="o" unicode="o" horiz-adv-x="523" 
d="M217 -12q-55 0 -96.5 24.5t-64 69.5t-22.5 106q0 71 23 128.5t62 99.5t87 64.5t98 22.5q56 0 97 -24.5t64 -69.5t23 -106q0 -70 -23.5 -128t-62 -99.5t-87 -64.5t-98.5 -23zM229 75q29 0 56 17.5t48 48t33.5 71.5t12.5 88q0 56 -22 86t-64 30q-29 0 -56.5 -17
t-48.5 -47.5t-33.5 -71.5t-12.5 -88q0 -55 22.5 -86t64.5 -31z" />
    <glyph glyph-name="p" unicode="p" horiz-adv-x="544" 
d="M-17 -194l138 685h87l-2 -60h4q35 31 75.5 51.5t82.5 20.5q65 0 102.5 -46t37.5 -133q0 -70 -21.5 -131.5t-59 -107t-84.5 -71.5t-98 -26q-34 0 -62.5 18t-46.5 46h-2l-16 -100l-28 -146h-107zM238 76q32 0 60.5 19t51 51t35.5 74t13 90q0 53 -20 79t-54 26
q-28 0 -62.5 -17.5t-62.5 -53.5l-42 -210q16 -30 37 -44t44 -14z" />
    <glyph glyph-name="q" unicode="q" horiz-adv-x="543" 
d="M276 -194l30 146l34 117h-2q-35 -36 -78 -58.5t-85 -22.5q-65 0 -102.5 46.5t-37.5 132.5q0 70 22 131.5t59.5 107.5t84.5 71.5t98 25.5q37 0 67 -18.5t46 -50.5h2l21 57h86l-137 -685h-108zM219 76q32 0 65 19.5t64 63.5l40 196q-17 32 -38.5 46t-44.5 14
q-31 0 -59.5 -18.5t-51 -50.5t-35.5 -74.5t-13 -89.5q0 -54 20 -80t53 -26z" />
    <glyph glyph-name="r" unicode="r" horiz-adv-x="363" 
d="M22 0l99 491h87l-8 -95h4q29 46 67.5 76.5t82.5 30.5q16 0 28.5 -2t20.5 -7l-36 -93q-9 5 -21 6t-25 1q-34 0 -68.5 -27.5t-64.5 -83.5l-58 -297h-108z" />
    <glyph glyph-name="s" unicode="s" horiz-adv-x="413" 
d="M166 -12q-30 0 -62.5 11t-60.5 32t-47 50l56 50q26 -31 57.5 -47t64.5 -16q23 0 42.5 8.5t31.5 22.5t12 33q0 16 -9 28t-29.5 25t-53.5 32q-43 24 -72 56.5t-29 77.5q0 44 23.5 78.5t64 54t88.5 19.5t87 -19.5t68 -52.5l-56 -55q-19 20 -45 33t-55 13q-32 0 -53 -18
t-21 -42q0 -26 25 -42.5t59 -36.5q35 -18 59 -38t37 -44t13 -56q0 -47 -25 -82.5t-69.5 -55t-100.5 -19.5z" />
    <glyph glyph-name="t" unicode="t" horiz-adv-x="346" 
d="M192 -10q-67 0 -96.5 34.5t-29.5 86.5q0 14 1.5 28t4.5 29l50 238h-70l18 80l74 5l44 153h90l-30 -153h118l-18 -85h-120l-50 -242q-1 -9 -2 -17t-1 -18q0 -26 13 -39.5t40 -13.5q14 0 26 3t22 7l22 -72q-18 -9 -45.5 -16.5t-60.5 -7.5z" />
    <glyph glyph-name="u" unicode="u" horiz-adv-x="533" 
d="M161 -12q-61 0 -88.5 33t-27.5 91q0 17 2 33.5t6 35.5l62 310h107l-60 -296q-3 -17 -5.5 -29t-2.5 -23q0 -31 15.5 -47t46.5 -16q25 0 54.5 18.5t66.5 57.5l66 335h107l-97 -491h-88l5 70h-4q-36 -33 -78.5 -57.5t-86.5 -24.5z" />
    <glyph glyph-name="v" unicode="v" horiz-adv-x="474" 
d="M126 0l-67 491h107l26 -261q4 -36 6 -74t4 -75h4q18 38 35 75l34 74l127 261h106l-256 -491h-126z" />
    <glyph glyph-name="w" unicode="w" horiz-adv-x="728" 
d="M100 0l-30 492h108l7 -264q1 -31 0 -68.5t-1 -73.5h4q12 36 25.5 73.5t26.5 68.5l110 264h112l10 -264v-68.5v-73.5h4q14 36 25.5 73.5t24.5 68.5l108 264h106l-218 -492h-134l-4 232q0 38 1.5 75t3.5 85h-4q-14 -48 -25.5 -85t-27.5 -75l-96 -232h-136z" />
    <glyph glyph-name="x" unicode="x" horiz-adv-x="460" 
d="M-42 0l214 262l-89 229h109l36 -97q7 -21 13.5 -41t12.5 -41h4q14 20 29 40.5t28 41.5l68 97h115l-197 -253l95 -238h-110l-37 100q-8 22 -15.5 44.5t-16.5 43.5h-4q-14 -21 -29.5 -42.5t-32.5 -44.5l-77 -101h-116z" />
    <glyph glyph-name="y" unicode="y" horiz-adv-x="474" 
d="M22 -202q-20 0 -38.5 4.5t-31.5 13.5l32 78q16 -7 38 -7q32 0 61.5 22.5t49.5 63.5l13 25l-86 493h110l32 -247q4 -32 7 -70t5 -70h4q16 33 33 70.5t33 69.5l120 247h110l-268 -507q-33 -64 -66.5 -105t-72 -61t-85.5 -20z" />
    <glyph glyph-name="z" unicode="z" horiz-adv-x="427" 
d="M-10 0l12 61l292 345h-200l17 85h335l-12 -62l-293 -344h231l-17 -85h-365z" />
    <glyph glyph-name="Agrave" unicode="&#xc0;" horiz-adv-x="529" 
d="M-56 0l348 654h128l70 -654h-112l-26 365q-3 50 -6.5 100t-5.5 103h-4q-24 -53 -46.5 -102.5t-48.5 -100.5l-180 -365h-117zM108 184l20 82h293l-19 -82h-294zM344 704l-146 132l7 12h125l104 -144h-90z" />
    <glyph glyph-name="Aacute" unicode="&#xc1;" horiz-adv-x="529" 
d="M-56 0l348 654h128l70 -654h-112l-26 365q-3 50 -6.5 100t-5.5 103h-4q-24 -53 -46.5 -102.5t-48.5 -100.5l-180 -365h-117zM108 184l20 82h293l-19 -82h-294zM266 704l148 144h133l7 -12l-196 -132h-92z" />
    <glyph glyph-name="Acircumflex" unicode="&#xc2;" horiz-adv-x="529" 
d="M-56 0l348 654h128l70 -654h-112l-26 365q-3 50 -6.5 100t-5.5 103h-4q-24 -53 -46.5 -102.5t-48.5 -100.5l-180 -365h-117zM108 184l20 82h293l-19 -82h-294zM184 705l154 144h98l104 -144h-90l-68 71h-4l-102 -71h-92z" />
    <glyph glyph-name="Atilde" unicode="&#xc3;" horiz-adv-x="529" 
d="M-56 0l348 654h128l70 -654h-112l-26 365q-3 50 -6.5 100t-5.5 103h-4q-24 -53 -46.5 -102.5t-48.5 -100.5l-180 -365h-117zM108 184l20 82h293l-19 -82h-294zM434 700q-26 0 -44.5 10t-32 23t-26 22.5t-26.5 9.5q-17 0 -30.5 -13.5t-22.5 -44.5l-74 6q16 68 52.5 100.5
t85.5 32.5q26 0 44 -9.5t31.5 -22.5t26 -22.5t27.5 -9.5q16 0 30 14t23 44l73 -6q-14 -67 -51 -100.5t-86 -33.5z" />
    <glyph glyph-name="Adieresis" unicode="&#xc4;" horiz-adv-x="529" 
d="M-56 0l348 654h128l70 -654h-112l-26 365q-3 50 -6.5 100t-5.5 103h-4q-24 -53 -46.5 -102.5t-48.5 -100.5l-180 -365h-117zM108 184l20 82h293l-19 -82h-294zM261 708q-21 0 -35.5 13t-14.5 37q0 26 18.5 45t44.5 19q22 0 36 -13t14 -37q0 -27 -18 -45.5t-45 -18.5z
M468 708q-21 0 -35.5 13t-14.5 37q0 26 18.5 45t45.5 19q21 0 35.5 -13t14.5 -37q0 -27 -18.5 -45.5t-45.5 -18.5z" />
    <glyph glyph-name="Aring" unicode="&#xc5;" horiz-adv-x="529" 
d="M-56 0l348 654h128l70 -654h-112l-26 365q-3 50 -6.5 100t-5.5 103h-4q-24 -53 -46.5 -102.5t-48.5 -100.5l-180 -365h-117zM108 184l20 82h293l-19 -82h-294zM368 698q-46 0 -77.5 20.5t-31.5 63.5t37 73t91 30q46 0 77.5 -19.5t31.5 -64.5q0 -42 -36.5 -72.5
t-91.5 -30.5zM370 742q23 0 39.5 17.5t16.5 39.5q0 21 -11.5 32t-29.5 11q-22 0 -38.5 -17t-16.5 -41q0 -19 11 -30.5t29 -11.5z" />
    <glyph glyph-name="Amacron" unicode="&#x100;" horiz-adv-x="529" 
d="M-56 0l348 654h128l70 -654h-112l-26 365q-3 50 -6.5 100t-5.5 103h-4q-24 -53 -46.5 -102.5t-48.5 -100.5l-180 -365h-117zM108 184l20 82h293l-19 -82h-294zM230 729l14 71h272l-14 -71h-272z" />
    <glyph glyph-name="Abreve" unicode="&#x102;" horiz-adv-x="529" 
d="M-56 0l348 654h128l70 -654h-112l-26 365q-3 50 -6.5 100t-5.5 103h-4q-24 -53 -46.5 -102.5t-48.5 -100.5l-180 -365h-117zM108 184l20 82h293l-19 -82h-294zM361 701q-50 0 -78.5 19t-40.5 49t-12 65l67 11q2 -35 20 -55t57 -20q37 0 63 21t39 54l64 -11
q-11 -40 -35 -69.5t-60 -46.5t-84 -17z" />
    <glyph glyph-name="uni0226" unicode="&#x226;" horiz-adv-x="529" 
d="M-56 0l348 654h128l70 -654h-112l-26 365q-3 50 -6.5 100t-5.5 103h-4q-24 -53 -46.5 -102.5t-48.5 -100.5l-180 -365h-117zM108 184l20 82h293l-19 -82h-294zM369 709q-23 0 -42 14.5t-19 41.5q0 29 21 49.5t51 20.5q24 0 42.5 -14.5t18.5 -42.5q0 -29 -21 -49t-51 -20z
" />
    <glyph glyph-name="uni01CD" unicode="&#x1cd;" horiz-adv-x="529" 
d="M-56 0l348 654h128l70 -654h-112l-26 365q-3 50 -6.5 100t-5.5 103h-4q-24 -53 -46.5 -102.5t-48.5 -100.5l-180 -365h-117zM108 184l20 82h293l-19 -82h-294zM310 705l-102 144h90l67 -71h4l103 71h92l-154 -144h-100z" />
    <glyph glyph-name="uni0200" unicode="&#x200;" horiz-adv-x="529" 
d="M-56 0l348 654h128l70 -654h-112l-26 365q-3 50 -6.5 100t-5.5 103h-4q-24 -53 -46.5 -102.5t-48.5 -100.5l-180 -365h-117zM108 184l20 82h293l-19 -82h-294zM224 704l-106 132l7 12h102l71 -144h-74zM416 704l-106 132l7 12h102l71 -144h-74z" />
    <glyph glyph-name="Aogonek" unicode="&#x104;" horiz-adv-x="529" 
d="M391 -222q-40 0 -67.5 20t-27.5 58q0 27 16 54.5t39.5 50.5t47.5 39h-21l-26 365q-3 50 -6.5 100t-5.5 103h-4q-24 -53 -46.5 -102t-48.5 -101l-180 -365h-119l350 654h128l70 -654q-46 -21 -70.5 -50.5t-24.5 -56.5q0 -18 11.5 -27.5t27.5 -9.5q20 0 40 13l22 -57
q-21 -16 -48.5 -25t-56.5 -9zM108 184l20 82h293l-19 -82h-294z" />
    <glyph glyph-name="Aogonek.d" horiz-adv-x="529" 
d="M206 -222q-40 0 -67 20t-27 58q0 26 16 55t43.5 56.5t63.5 48.5l31 -35q-26 -19 -41 -43t-15 -45q0 -18 11.5 -27.5t28.5 -9.5q20 0 39 13l23 -57q-22 -16 -49.5 -25t-56.5 -9zM-56 0l348 654h128l70 -654h-112l-26 365q-3 50 -6.5 100t-5.5 103h-4q-24 -53 -46.5 -102
t-48.5 -101l-180 -365h-117zM108 184l20 82h293l-19 -82h-294z" />
    <glyph glyph-name="uni1EA0" unicode="&#x1ea0;" horiz-adv-x="529" 
d="M-56 0l348 654h128l70 -654h-112l-26 365q-3 50 -6.5 100t-5.5 103h-4q-24 -53 -46.5 -102.5t-48.5 -100.5l-180 -365h-117zM108 184l20 82h293l-19 -82h-294zM184 -225q-23 0 -42.5 14.5t-19.5 41.5q0 29 21.5 49.5t50.5 20.5q24 0 43 -14.5t19 -41.5q0 -30 -21 -50
t-51 -20z" />
    <glyph glyph-name="uni1EA2" unicode="&#x1ea2;" horiz-adv-x="529" 
d="M-56 0l348 654h128l70 -654h-112l-26 365q-3 50 -6.5 100t-5.5 103h-4q-24 -53 -46.5 -102.5t-48.5 -100.5l-180 -365h-117zM108 184l20 82h293l-19 -82h-294zM313 700l-4 48q59 12 59 45q0 16 -17.5 25t-54.5 10l18 63q49 0 80.5 -10.5t46.5 -27.5t15 -39
q0 -46 -37.5 -76t-105.5 -38z" />
    <glyph glyph-name="uni1EA4" unicode="&#x1ea4;" horiz-adv-x="529" 
d="M-56 0l348 654h128l70 -654h-112l-26 365q-3 50 -6.5 100t-5.5 103h-4q-24 -53 -46.5 -102.5t-48.5 -100.5l-180 -365h-117zM108 184l20 82h293l-19 -82h-294zM204 704l136 124h89l95 -124h-82l-60 64h-4l-90 -64h-84zM474 786l92 118h87l7 -12l-128 -106h-58z" />
    <glyph glyph-name="uni1EA6" unicode="&#x1ea6;" horiz-adv-x="529" 
d="M-56 0l348 654h128l70 -654h-112l-26 365q-3 50 -6.5 100t-5.5 103h-4q-24 -53 -46.5 -102.5t-48.5 -100.5l-180 -365h-117zM108 184l20 82h293l-19 -82h-294zM204 704l136 124h89l95 -124h-82l-60 64h-4l-90 -64h-84zM215 786l-83 106l7 12h85l48 -118h-57z" />
    <glyph glyph-name="uni1EA8" unicode="&#x1ea8;" horiz-adv-x="529" 
d="M-56 0l348 654h128l70 -654h-112l-26 365q-3 50 -6.5 100t-5.5 103h-4q-24 -53 -46.5 -102.5t-48.5 -100.5l-180 -365h-117zM108 184l20 82h293l-19 -82h-294zM204 704l136 124h89l95 -124h-82l-60 64h-4l-90 -64h-84zM505 773l-4 40q43 8 43 37q0 15 -14.5 21.5
t-45.5 8.5l12 50q61 0 92.5 -14.5t31.5 -46.5q0 -39 -31 -63.5t-84 -32.5z" />
    <glyph glyph-name="uni1EAA" unicode="&#x1eaa;" horiz-adv-x="529" 
d="M-56 0l348 654h128l70 -654h-112l-26 365q-3 50 -6.5 100t-5.5 103h-4q-24 -53 -46.5 -102.5t-48.5 -100.5l-180 -365h-117zM108 184l20 82h293l-19 -82h-294zM274 704l-14 40l87 78l121 -40l44 -78l-102 28l-31 30l-47 -28zM455 845q-29 0 -48.5 11.5t-35 23.5t-32.5 12
q-16 0 -26 -11t-17 -32l-56 8q7 32 20.5 54t33 34t44.5 12q29 0 48.5 -11.5t35 -23.5t32.5 -12q16 0 26 11t16 32l57 -8q-7 -31 -20.5 -53.5t-33 -34.5t-44.5 -12z" />
    <glyph glyph-name="uni1EAC" unicode="&#x1eac;" horiz-adv-x="529" 
d="M-56 0l348 654h128l70 -654h-112l-26 365q-3 50 -6.5 100t-5.5 103h-4q-24 -53 -46.5 -102.5t-48.5 -100.5l-180 -365h-117zM108 184l20 82h293l-19 -82h-294zM184 705l154 144h98l104 -144h-90l-68 71h-4l-102 -71h-92zM184 -225q-23 0 -42.5 14.5t-19.5 41.5
q0 29 21.5 49.5t50.5 20.5q24 0 43 -14.5t19 -41.5q0 -30 -21 -50t-51 -20z" />
    <glyph glyph-name="uni1EAE" unicode="&#x1eae;" horiz-adv-x="529" 
d="M-56 0l348 654h128l70 -654h-112l-26 365q-3 50 -6.5 100t-5.5 103h-4q-24 -53 -46.5 -102.5t-48.5 -100.5l-180 -365h-117zM108 184l20 82h293l-19 -82h-294zM360 701q-45 0 -73.5 16t-42 46t-13.5 71l60 11q1 -36 20 -58.5t61 -22.5q40 0 67.5 22.5t41.5 58.5l57 -11
q-11 -40 -34 -70t-58.5 -46.5t-85.5 -16.5zM334 838l92 118h87l7 -12l-128 -106h-58z" />
    <glyph glyph-name="uni1EB0" unicode="&#x1eb0;" horiz-adv-x="529" 
d="M-56 0l348 654h128l70 -654h-112l-26 365q-3 50 -6.5 100t-5.5 103h-4q-24 -53 -46.5 -102.5t-48.5 -100.5l-180 -365h-117zM108 184l20 82h293l-19 -82h-294zM360 701q-45 0 -73.5 16t-42 46t-13.5 71l60 11q1 -36 20 -58.5t61 -22.5q40 0 67.5 22.5t41.5 58.5l57 -11
q-11 -40 -34 -70t-58.5 -46.5t-85.5 -16.5zM369 838l-83 106l7 12h85l48 -118h-57z" />
    <glyph glyph-name="uni1EB2" unicode="&#x1eb2;" horiz-adv-x="529" 
d="M-56 0l348 654h128l70 -654h-112l-26 365q-3 50 -6.5 100t-5.5 103h-4q-24 -53 -46.5 -102.5t-48.5 -100.5l-180 -365h-117zM108 184l20 82h293l-19 -82h-294zM360 701q-46 0 -74 16t-41.5 46t-13.5 71l60 11q2 -37 20.5 -59t60.5 -22q39 0 66.5 22.5t42.5 58.5l57 -11
q-11 -40 -34 -69.5t-58.5 -46.5t-85.5 -17zM351 814l-3 40q44 7 44 37q0 14 -13.5 21t-45.5 9l13 50q60 0 91 -15t31 -46q0 -40 -32.5 -65t-84.5 -31z" />
    <glyph glyph-name="uni1EB4" unicode="&#x1eb4;" horiz-adv-x="529" 
d="M-56 0l348 654h128l70 -654h-112l-26 365q-3 50 -6.5 100t-5.5 103h-4q-24 -53 -46.5 -102.5t-48.5 -100.5l-180 -365h-117zM108 184l20 82h293l-19 -82h-294zM362 701q-46 0 -75.5 15.5t-43 41t-13.5 56.5l60 10q2 -24 19.5 -42.5t61.5 -18.5q43 0 67.5 18.5t34.5 42.5
l57 -10q-9 -31 -30.5 -56.5t-55.5 -41t-82 -15.5zM455 845q-29 0 -48.5 11.5t-35 23.5t-32.5 12q-16 0 -26 -11t-17 -32l-56 8q7 32 20.5 54t33 34t44.5 12q29 0 48.5 -11.5t35 -23.5t32.5 -12q16 0 26 11t16 32l57 -8q-7 -31 -20.5 -53.5t-33 -34.5t-44.5 -12z" />
    <glyph glyph-name="uni1EB6" unicode="&#x1eb6;" horiz-adv-x="529" 
d="M-56 0l348 654h128l70 -654h-112l-26 365q-3 50 -6.5 100t-5.5 103h-4q-24 -53 -46.5 -102.5t-48.5 -100.5l-180 -365h-117zM108 184l20 82h293l-19 -82h-294zM361 701q-50 0 -78.5 19t-40.5 49t-12 65l67 11q2 -35 20 -55t57 -20q37 0 63 21t39 54l64 -11
q-11 -40 -35 -69.5t-60 -46.5t-84 -17zM184 -225q-23 0 -42.5 14.5t-19.5 41.5q0 29 21.5 49.5t50.5 20.5q24 0 43 -14.5t19 -41.5q0 -30 -21 -50t-51 -20z" />
    <glyph glyph-name="Aringacute" unicode="&#x1fa;" horiz-adv-x="529" 
d="M-56 0l348 654h128l70 -654h-112l-26 365q-3 50 -6.5 100t-5.5 103h-4q-24 -53 -46.5 -102.5t-48.5 -100.5l-180 -365h-117zM108 184l20 82h293l-19 -82h-294zM368 698q-46 0 -77.5 20t-31.5 63q0 28 15.5 48.5t38.5 38.5l125 100h105l7 -12l-145 -96l5 15q38 0 62 -21
t24 -56q0 -42 -36.5 -71t-91.5 -29zM370 742q23 0 39.5 16.5t16.5 37.5q0 20 -11.5 31t-29.5 11q-22 0 -38.5 -16t-16.5 -39q0 -19 11 -30t29 -11z" />
    <glyph glyph-name="AE" unicode="&#xc6;" horiz-adv-x="821" 
d="M-34 0l440 654h436l-18 -91h-257l-35 -176h217l-18 -91h-216l-42 -205h266l-18 -91h-373l114 574h-3q-34 -51 -66.5 -100.5t-65.5 -100.5l-239 -373h-122zM144 174l18 85h296l-18 -85h-296z" />
    <glyph glyph-name="AEacute" unicode="&#x1fc;" horiz-adv-x="821" 
d="M-34 0l440 654h436l-18 -91h-257l-35 -176h217l-18 -91h-216l-42 -205h266l-18 -91h-373l114 574h-3q-34 -51 -66.5 -100.5t-65.5 -100.5l-239 -373h-122zM144 174l18 85h296l-18 -85h-296zM532 704l148 144h133l7 -12l-196 -132h-92z" />
    <glyph glyph-name="uni01E2" unicode="&#x1e2;" horiz-adv-x="821" 
d="M-34 0l440 654h436l-18 -91h-257l-35 -176h217l-18 -91h-216l-42 -205h266l-18 -91h-373l114 574h-3q-34 -51 -66.5 -100.5t-65.5 -100.5l-239 -373h-122zM144 174l18 85h296l-18 -85h-296zM496 729l14 71h272l-14 -71h-272z" />
    <glyph glyph-name="uni023A" unicode="&#x23a;" horiz-adv-x="529" 
d="M134 -56l-40 16l346 750l40 -16zM-56 0l348 654h128l70 -654h-112l-26 365q-3 50 -6.5 100t-5.5 103h-4q-24 -53 -46.5 -102.5t-48.5 -100.5l-180 -365h-117zM108 184l20 82h293l-19 -82h-294z" />
    <glyph glyph-name="uni0243" unicode="&#x243;" horiz-adv-x="602" 
d="M50 0l130 654h188q64 0 111.5 -15.5t73.5 -46.5t26 -79q0 -39 -20 -72t-53 -56t-72 -33v-4q36 -8 62 -24.5t40 -42.5t14 -63q0 -77 -37 -125t-99.5 -70.5t-140.5 -22.5h-223zM0 160l18 83l84 5h242l-18 -88h-326zM174 86h100q53 0 91.5 13.5t59.5 42.5t21 76
q0 45 -32.5 68.5t-93.5 23.5h-100zM236 388h76q80 0 118 30t38 78q0 38 -30.5 55t-93.5 17h-72z" />
    <glyph glyph-name="uni0181" unicode="&#x181;" horiz-adv-x="728" 
d="M200 0l121 606h108l-46 -226h58q81 0 118.5 30.5t37.5 79.5q0 27 -14.5 46.5t-45.5 30.5t-80 11h-75q-62 0 -106 -18t-72.5 -46.5t-42 -61t-13.5 -61.5t12 -48.5t35 -33.5l-57 -75q-40 22 -63.5 58.5t-23.5 83.5q0 54 21.5 105.5t67.5 93t119 66.5t176 25q98 0 158 -19
t87.5 -54.5t27.5 -85.5q0 -41 -20 -74.5t-53 -56t-73 -32.5v-4q35 -9 61.5 -25.5t41 -42t14.5 -60.5q0 -75 -37.5 -121.5t-100 -68.5t-139.5 -22h-202zM324 84h78q54 0 92.5 13.5t59 40.5t20.5 69q0 47 -32 72t-95 25h-79z" />
    <glyph glyph-name="uni1E02" unicode="&#x1e02;" horiz-adv-x="581" 
d="M32 0l130 654h188q96 0 152.5 -36t56.5 -111q0 -41 -20 -74.5t-52.5 -56t-72.5 -32.5v-4q35 -9 61 -25.5t40.5 -42t14.5 -60.5q0 -75 -36.5 -121.5t-99 -68.5t-139.5 -22h-223zM215 380h80q81 0 118.5 30.5t37.5 79.5q0 38 -30 59t-93 21h-74zM156 84h99q54 0 93 13.5
t59.5 40.5t20.5 69q0 47 -32.5 72t-94.5 25h-101zM371 709q-23 0 -42 14.5t-19 41.5q0 29 21 49.5t51 20.5q24 0 42.5 -14.5t18.5 -42.5q0 -29 -21 -49t-51 -20z" />
    <glyph glyph-name="uni1E06" unicode="&#x1e06;" horiz-adv-x="581" 
d="M32 0l130 654h188q96 0 152.5 -36t56.5 -111q0 -41 -20 -74.5t-52.5 -56t-72.5 -32.5v-4q35 -9 61 -25.5t40.5 -42t14.5 -60.5q0 -75 -36.5 -121.5t-99 -68.5t-139.5 -22h-223zM215 380h80q81 0 118.5 30.5t37.5 79.5q0 38 -30 59t-93 21h-74zM156 84h99q54 0 93 13.5
t59.5 40.5t20.5 69q0 47 -32.5 72t-94.5 25h-101zM92 -163l14 70h269l-13 -70h-270z" />
    <glyph glyph-name="Ccedilla" unicode="&#xc7;" horiz-adv-x="559" 
d="M295 -12q-74 0 -127.5 33t-82 93.5t-28.5 142.5q0 65 16.5 125.5t46.5 112t72 90t94 60t111 21.5q56 0 100 -25.5t67 -69.5l-61 -58q-19 31 -47.5 45.5t-65.5 14.5q-39 0 -73 -17.5t-61.5 -47.5t-47.5 -69.5t-30.5 -84t-10.5 -89.5q0 -55 15.5 -96.5t48 -64.5t83.5 -23
q38 0 70.5 14.5t59.5 37.5l45 -66q-36 -34 -82.5 -56.5t-111.5 -22.5zM139 -233l-1 49q59 3 85.5 15t29.5 35q1 17 -14 27t-55 15l63 95h70l-41 -66q37 -9 51 -25t11 -43q-6 -50 -58.5 -74.5t-140.5 -27.5z" />
    <glyph glyph-name="Cacute" unicode="&#x106;" horiz-adv-x="559" 
d="M295 -12q-74 0 -127.5 33t-82 93.5t-28.5 142.5q0 65 16.5 125.5t46.5 112t72 90t94 60t111 21.5q56 0 100 -25.5t67 -69.5l-61 -58q-19 31 -47.5 45.5t-65.5 14.5q-39 0 -73 -17.5t-61.5 -47.5t-47.5 -69.5t-30.5 -84t-10.5 -89.5q0 -55 15.5 -96.5t48 -64.5t83.5 -23
q38 0 70.5 14.5t59.5 37.5l45 -66q-36 -34 -82.5 -56.5t-111.5 -22.5zM318 704l148 144h133l7 -12l-196 -132h-92z" />
    <glyph glyph-name="Ccircumflex" unicode="&#x108;" horiz-adv-x="559" 
d="M295 -12q-74 0 -127.5 33t-82 93.5t-28.5 142.5q0 65 16.5 125.5t46.5 112t72 90t94 60t111 21.5q56 0 100 -25.5t67 -69.5l-61 -58q-19 31 -47.5 45.5t-65.5 14.5q-39 0 -73 -17.5t-61.5 -47.5t-47.5 -69.5t-30.5 -84t-10.5 -89.5q0 -55 15.5 -96.5t48 -64.5t83.5 -23
q38 0 70.5 14.5t59.5 37.5l45 -66q-36 -34 -82.5 -56.5t-111.5 -22.5zM236 705l154 144h98l104 -144h-90l-68 71h-4l-102 -71h-92z" />
    <glyph glyph-name="Cdotaccent" unicode="&#x10a;" horiz-adv-x="559" 
d="M295 -12q-74 0 -127.5 33t-82 93.5t-28.5 142.5q0 65 16.5 125.5t46.5 112t72 90t94 60t111 21.5q56 0 100 -25.5t67 -69.5l-61 -58q-19 31 -47.5 45.5t-65.5 14.5q-39 0 -73 -17.5t-61.5 -47.5t-47.5 -69.5t-30.5 -84t-10.5 -89.5q0 -55 15.5 -96.5t48 -64.5t83.5 -23
q38 0 70.5 14.5t59.5 37.5l45 -66q-36 -34 -82.5 -56.5t-111.5 -22.5zM421 709q-23 0 -42 14.5t-19 41.5q0 29 21 49.5t51 20.5q24 0 42.5 -14.5t18.5 -42.5q0 -29 -21 -49t-51 -20z" />
    <glyph glyph-name="Ccaron" unicode="&#x10c;" horiz-adv-x="559" 
d="M295 -12q-74 0 -127.5 33t-82 93.5t-28.5 142.5q0 65 16.5 125.5t46.5 112t72 90t94 60t111 21.5q56 0 100 -25.5t67 -69.5l-61 -58q-19 31 -47.5 45.5t-65.5 14.5q-39 0 -73 -17.5t-61.5 -47.5t-47.5 -69.5t-30.5 -84t-10.5 -89.5q0 -55 15.5 -96.5t48 -64.5t83.5 -23
q38 0 70.5 14.5t59.5 37.5l45 -66q-36 -34 -82.5 -56.5t-111.5 -22.5zM362 705l-102 144h90l67 -71h4l103 71h92l-154 -144h-100z" />
    <glyph glyph-name="uni023B" unicode="&#x23b;" horiz-adv-x="559" 
d="M170 -56l-40 16l348 750l40 -16zM295 -12q-74 0 -127.5 33t-82 93.5t-28.5 142.5q0 65 16.5 125.5t46.5 112t72 90t94 60t111 21.5q56 0 100 -25.5t67 -69.5l-61 -58q-19 31 -47.5 45.5t-65.5 14.5q-39 0 -73 -17.5t-61.5 -47.5t-47.5 -69.5t-30.5 -84t-10.5 -89.5
q0 -55 15.5 -96.5t48 -64.5t83.5 -23q38 0 70.5 14.5t59.5 37.5l45 -66q-36 -34 -82.5 -56.5t-111.5 -22.5z" />
    <glyph glyph-name="uni1E0A" unicode="&#x1e0a;" horiz-adv-x="608" 
d="M32 0l130 654h137q88 0 151.5 -29.5t97.5 -87.5t34 -144q0 -90 -26 -162.5t-74 -124t-113.5 -79t-143.5 -27.5h-193zM157 87h67q53 0 98 20.5t79 59.5t52.5 94.5t18.5 124.5q0 61 -22 101t-61.5 60t-92.5 20h-44zM395 709q-23 0 -42 14.5t-19 41.5q0 29 21 49.5t51 20.5
q24 0 42.5 -14.5t18.5 -42.5q0 -29 -21 -49t-51 -20z" />
    <glyph glyph-name="Dcaron" unicode="&#x10e;" horiz-adv-x="608" 
d="M32 0l130 654h137q88 0 151.5 -29.5t97.5 -87.5t34 -144q0 -90 -26 -162.5t-74 -124t-113.5 -79t-143.5 -27.5h-193zM157 87h67q53 0 98 20.5t79 59.5t52.5 94.5t18.5 124.5q0 61 -22 101t-61.5 60t-92.5 20h-44zM336 705l-102 144h90l67 -71h4l103 71h92l-154 -144h-100
z" />
    <glyph glyph-name="uni1E0C" unicode="&#x1e0c;" horiz-adv-x="608" 
d="M32 0l130 654h137q88 0 151.5 -29.5t97.5 -87.5t34 -144q0 -90 -26 -162.5t-74 -124t-113.5 -79t-143.5 -27.5h-193zM157 87h67q53 0 98 20.5t79 59.5t52.5 94.5t18.5 124.5q0 61 -22 101t-61.5 60t-92.5 20h-44zM223 -225q-23 0 -42.5 14.5t-19.5 41.5q0 29 21.5 49.5
t50.5 20.5q24 0 43 -14.5t19 -41.5q0 -30 -21 -50t-51 -20z" />
    <glyph glyph-name="uni1E0E" unicode="&#x1e0e;" horiz-adv-x="608" 
d="M32 0l130 654h137q88 0 151.5 -29.5t97.5 -87.5t34 -144q0 -90 -26 -162.5t-74 -124t-113.5 -79t-143.5 -27.5h-193zM157 87h67q53 0 98 20.5t79 59.5t52.5 94.5t18.5 124.5q0 61 -22 101t-61.5 60t-92.5 20h-44zM93 -163l14 70h269l-13 -70h-270z" />
    <glyph glyph-name="uni1E10" unicode="&#x1e10;" horiz-adv-x="608" 
d="M32 0l130 654h137q88 0 151.5 -29.5t97.5 -87.5t34 -144q0 -90 -26 -162.5t-74 -124t-113.5 -79t-143.5 -27.5h-193zM157 87h67q53 0 98 20.5t79 59.5t52.5 94.5t18.5 124.5q0 61 -22 101t-61.5 60t-92.5 20h-44zM99 -233l-1 49q59 3 85.5 15t29.5 35q1 17 -14 27t-55 15
l63 95h70l-41 -66q37 -9 51 -25t11 -43q-6 -50 -58.5 -74.5t-140.5 -27.5z" />
    <glyph glyph-name="Dcroat" unicode="&#x110;" horiz-adv-x="628" 
d="M38 300l18 78l72 4h248l-16 -82h-322zM52 0l130 654h137q88 0 151.5 -29.5t97.5 -87.5t34 -144q0 -90 -26 -162.5t-74 -124t-113.5 -79t-143.5 -27.5h-193zM177 87h67q53 0 98 20.5t79 59.5t52.5 94.5t18.5 124.5q0 61 -22 101t-61.5 60t-92.5 20h-44z" />
    <glyph glyph-name="uni018A" unicode="&#x18a;" horiz-adv-x="754" 
d="M200 0l121 606h108l-104 -519h44q53 0 98 20.5t79 59.5t53 95.5t19 127.5q0 65 -22.5 107t-63.5 61.5t-96 19.5h-54q-62 0 -106 -18t-72.5 -46.5t-42 -61t-13.5 -61.5t12 -48.5t35 -33.5l-57 -75q-40 22 -63.5 58.5t-23.5 83.5q0 54 21.5 105.5t67.5 93t119 66.5t176 25
q94 0 159.5 -31.5t99.5 -91.5t34 -146q0 -93 -26.5 -166.5t-74.5 -124.5t-113 -78.5t-142 -27.5h-172z" />
    <glyph glyph-name="Egrave" unicode="&#xc8;" horiz-adv-x="514" 
d="M32 0l130 654h375l-18 -91h-268l-35 -176h227l-18 -91h-226l-42 -205h276l-18 -91h-383zM346 704l-146 132l7 12h125l104 -144h-90z" />
    <glyph glyph-name="Eacute" unicode="&#xc9;" horiz-adv-x="514" 
d="M32 0l130 654h375l-18 -91h-268l-35 -176h227l-18 -91h-226l-42 -205h276l-18 -91h-383zM268 704l148 144h133l7 -12l-196 -132h-92z" />
    <glyph glyph-name="Ecircumflex" unicode="&#xca;" horiz-adv-x="514" 
d="M32 0l130 654h375l-18 -91h-268l-35 -176h227l-18 -91h-226l-42 -205h276l-18 -91h-383zM186 705l154 144h98l104 -144h-90l-68 71h-4l-102 -71h-92z" />
    <glyph glyph-name="uni1EBC" unicode="&#x1ebc;" horiz-adv-x="514" 
d="M32 0l130 654h375l-18 -91h-268l-35 -176h227l-18 -91h-226l-42 -205h276l-18 -91h-383zM438 700q-26 0 -44.5 10t-32 23t-26 22.5t-26.5 9.5q-17 0 -30.5 -13.5t-22.5 -44.5l-74 6q16 68 52.5 100.5t85.5 32.5q26 0 44 -9.5t31.5 -22.5t26 -22.5t27.5 -9.5q16 0 30 14
t23 44l73 -6q-14 -67 -51 -100.5t-86 -33.5z" />
    <glyph glyph-name="Edieresis" unicode="&#xcb;" horiz-adv-x="514" 
d="M32 0l130 654h375l-18 -91h-268l-35 -176h227l-18 -91h-226l-42 -205h276l-18 -91h-383zM263 708q-21 0 -35.5 13t-14.5 37q0 26 18.5 45t44.5 19q22 0 36 -13t14 -37q0 -27 -18 -45.5t-45 -18.5zM470 708q-21 0 -35.5 13t-14.5 37q0 26 18.5 45t45.5 19q21 0 35.5 -13
t14.5 -37q0 -27 -18.5 -45.5t-45.5 -18.5z" />
    <glyph glyph-name="Emacron" unicode="&#x112;" horiz-adv-x="514" 
d="M32 0l130 654h375l-18 -91h-268l-35 -176h227l-18 -91h-226l-42 -205h276l-18 -91h-383zM232 729l14 71h272l-14 -71h-272z" />
    <glyph glyph-name="Ebreve" unicode="&#x114;" horiz-adv-x="514" 
d="M32 0l130 654h375l-18 -91h-268l-35 -176h227l-18 -91h-226l-42 -205h276l-18 -91h-383zM363 701q-50 0 -78.5 19t-40.5 49t-12 65l67 11q2 -35 20 -55t57 -20q37 0 63 21t39 54l64 -11q-11 -40 -35 -69.5t-60 -46.5t-84 -17z" />
    <glyph glyph-name="Edotaccent" unicode="&#x116;" horiz-adv-x="514" 
d="M32 0l130 654h375l-18 -91h-268l-35 -176h227l-18 -91h-226l-42 -205h276l-18 -91h-383zM371 709q-23 0 -42 14.5t-19 41.5q0 29 21 49.5t51 20.5q24 0 42.5 -14.5t18.5 -42.5q0 -29 -21 -49t-51 -20z" />
    <glyph glyph-name="Ecaron" unicode="&#x11a;" horiz-adv-x="514" 
d="M32 0l130 654h375l-18 -91h-268l-35 -176h227l-18 -91h-226l-42 -205h276l-18 -91h-383zM312 705l-102 144h90l67 -71h4l103 71h92l-154 -144h-100z" />
    <glyph glyph-name="uni0204" unicode="&#x204;" horiz-adv-x="514" 
d="M32 0l130 654h375l-18 -91h-268l-35 -176h227l-18 -91h-226l-42 -205h276l-18 -91h-383zM226 704l-106 132l7 12h102l71 -144h-74zM418 704l-106 132l7 12h102l71 -144h-74z" />
    <glyph glyph-name="Eogonek" unicode="&#x118;" horiz-adv-x="514" 
d="M310 -222q-40 0 -67 20t-27 58q0 27 15.5 54.5t39 50.5t47.5 39h-286l130 654h375l-18 -91h-268l-35 -176h227l-18 -91h-226l-42 -205h276l-18 -91q-19 -2 -37 -13.5t-32.5 -27.5t-23 -33t-8.5 -33q0 -18 11.5 -27.5t28.5 -9.5q20 0 39 13l23 -57q-22 -16 -49.5 -25
t-56.5 -9z" />
    <glyph glyph-name="Eogonek.d" horiz-adv-x="514" 
d="M210 -222q-40 0 -67.5 19.5t-27.5 58.5q0 27 15.5 54.5t39 50.5t48.5 39h-186l130 654h375l-18 -91h-268l-35 -176h227l-18 -91h-226l-42 -205h276l-18 -91h-95q-18 0 -37 -10.5t-34.5 -27t-25 -35t-9.5 -34.5q0 -18 11.5 -27.5t27.5 -9.5q20 0 39 13l23 -57
q-21 -16 -49.5 -25t-55.5 -9z" />
    <glyph glyph-name="uni1EB8" unicode="&#x1eb8;" horiz-adv-x="514" 
d="M32 0l130 654h375l-18 -91h-268l-35 -176h227l-18 -91h-226l-42 -205h276l-18 -91h-383zM208 -225q-23 0 -42.5 14.5t-19.5 41.5q0 29 21.5 49.5t50.5 20.5q24 0 43 -14.5t19 -41.5q0 -30 -21 -50t-51 -20z" />
    <glyph glyph-name="uni1EBA" unicode="&#x1eba;" horiz-adv-x="514" 
d="M32 0l130 654h375l-18 -91h-268l-35 -176h227l-18 -91h-226l-42 -205h276l-18 -91h-383zM317 700l-4 48q59 12 59 45q0 16 -17.5 25t-54.5 10l18 63q49 0 80.5 -10.5t46.5 -27.5t15 -39q0 -46 -37.5 -76t-105.5 -38z" />
    <glyph glyph-name="uni1EBE" unicode="&#x1ebe;" horiz-adv-x="514" 
d="M32 0l130 654h375l-18 -91h-268l-35 -176h227l-18 -91h-226l-42 -205h276l-18 -91h-383zM208 704l136 124h89l95 -124h-82l-60 64h-4l-90 -64h-84zM478 786l92 118h87l7 -12l-128 -106h-58z" />
    <glyph glyph-name="uni1EC0" unicode="&#x1ec0;" horiz-adv-x="514" 
d="M32 0l130 654h375l-18 -91h-268l-35 -176h227l-18 -91h-226l-42 -205h276l-18 -91h-383zM208 704l136 124h89l95 -124h-82l-60 64h-4l-90 -64h-84zM219 786l-83 106l7 12h85l48 -118h-57z" />
    <glyph glyph-name="uni1EC2" unicode="&#x1ec2;" horiz-adv-x="514" 
d="M32 0l130 654h375l-18 -91h-268l-35 -176h227l-18 -91h-226l-42 -205h276l-18 -91h-383zM208 704l136 124h89l95 -124h-82l-60 64h-4l-90 -64h-84zM509 773l-4 40q43 8 43 37q0 15 -14.5 21.5t-45.5 8.5l12 50q61 0 92.5 -14.5t31.5 -46.5q0 -39 -31 -63.5t-84 -32.5z
" />
    <glyph glyph-name="uni1EC4" unicode="&#x1ec4;" horiz-adv-x="514" 
d="M32 0l130 654h375l-18 -91h-268l-35 -176h227l-18 -91h-226l-42 -205h276l-18 -91h-383zM278 704l-14 40l87 78l121 -40l44 -78l-102 28l-31 30l-47 -28zM459 845q-29 0 -48.5 11.5t-35 23.5t-32.5 12q-16 0 -26 -11t-17 -32l-56 8q7 32 20.5 54t33 34t44.5 12
q29 0 48.5 -11.5t35 -23.5t32.5 -12q16 0 26 11t16 32l57 -8q-7 -31 -20.5 -53.5t-33 -34.5t-44.5 -12z" />
    <glyph glyph-name="uni1EC6" unicode="&#x1ec6;" horiz-adv-x="514" 
d="M32 0l130 654h375l-18 -91h-268l-35 -176h227l-18 -91h-226l-42 -205h276l-18 -91h-383zM188 705l154 144h98l104 -144h-90l-68 71h-4l-102 -71h-92zM208 -225q-23 0 -42.5 14.5t-19.5 41.5q0 29 21.5 49.5t50.5 20.5q24 0 43 -14.5t19 -41.5q0 -30 -21 -50t-51 -20z" />
    <glyph glyph-name="uni1E16" unicode="&#x1e16;" horiz-adv-x="514" 
d="M32 0l130 654h375l-18 -91h-268l-35 -176h227l-18 -91h-226l-42 -205h276l-18 -91h-383zM233 731l14 72h272l-14 -72h-272zM332 844l104 124h99l7 -12l-140 -112h-70z" />
    <glyph glyph-name="uni018E" unicode="&#x18e;" horiz-adv-x="514" 
d="M-2 0l18 91h277l40 205h-226l17 91h227l36 176h-267l18 91h374l-130 -654h-384z" />
    <glyph glyph-name="uni0190" unicode="&#x190;" horiz-adv-x="536" 
d="M245 -12q-102 0 -159.5 43.5t-57.5 117.5q0 38 15 70t40.5 57t58 42.5t67.5 25.5v4q-24 10 -43.5 28.5t-30.5 43.5t-11 55q0 53 30.5 96t84 69t122.5 26q60 0 109.5 -25.5t74.5 -69.5l-59 -58q-22 31 -53.5 46t-72.5 15q-35 0 -65 -13t-47.5 -37.5t-17.5 -56.5
q0 -36 26.5 -61t90.5 -25h57l-15 -79h-75q-49 0 -87.5 -17.5t-60.5 -46.5t-22 -63q0 -45 31.5 -70t85.5 -25q51 0 93.5 17.5t77.5 46.5l46 -67q-44 -40 -99.5 -64.5t-133.5 -24.5z" />
    <glyph glyph-name="uni1E1E" unicode="&#x1e1e;" horiz-adv-x="489" 
d="M32 0l130 654h375l-18 -91h-268l-38 -193h227l-18 -91h-226l-56 -279h-108zM375 709q-23 0 -42 14.5t-19 41.5q0 29 21 49.5t51 20.5q24 0 42.5 -14.5t18.5 -42.5q0 -29 -21 -49t-51 -20z" />
    <glyph glyph-name="uni01F4" unicode="&#x1f4;" horiz-adv-x="600" 
d="M307 -12q-80 0 -135.5 33t-85 93t-29.5 143q0 81 25 155t72 131t110.5 90t141.5 33q59 0 104 -25.5t70 -68.5l-62 -63q-20 32 -50 48t-68 16q-42 0 -77.5 -17t-64 -47.5t-49 -69.5t-31.5 -83.5t-11 -90.5q0 -54 16 -95.5t50.5 -65.5t91.5 -24q27 0 51 9t40 22l32 154
h-121l17 88h217l-59 -298q-36 -29 -86 -48t-109 -19zM318 704l148 144h133l7 -12l-196 -132h-92z" />
    <glyph glyph-name="Gcircumflex" unicode="&#x11c;" horiz-adv-x="600" 
d="M307 -12q-80 0 -135.5 33t-85 93t-29.5 143q0 81 25 155t72 131t110.5 90t141.5 33q59 0 104 -25.5t70 -68.5l-62 -63q-20 32 -50 48t-68 16q-42 0 -77.5 -17t-64 -47.5t-49 -69.5t-31.5 -83.5t-11 -90.5q0 -54 16 -95.5t50.5 -65.5t91.5 -24q27 0 51 9t40 22l32 154
h-121l17 88h217l-59 -298q-36 -29 -86 -48t-109 -19zM236 705l154 144h98l104 -144h-90l-68 71h-4l-102 -71h-92z" />
    <glyph glyph-name="uni1E20" unicode="&#x1e20;" horiz-adv-x="600" 
d="M307 -12q-80 0 -135.5 33t-85 93t-29.5 143q0 81 25 155t72 131t110.5 90t141.5 33q59 0 104 -25.5t70 -68.5l-62 -63q-20 32 -50 48t-68 16q-42 0 -77.5 -17t-64 -47.5t-49 -69.5t-31.5 -83.5t-11 -90.5q0 -54 16 -95.5t50.5 -65.5t91.5 -24q27 0 51 9t40 22l32 154
h-121l17 88h217l-59 -298q-36 -29 -86 -48t-109 -19zM282 729l14 71h272l-14 -71h-272z" />
    <glyph glyph-name="Gbreve" unicode="&#x11e;" horiz-adv-x="600" 
d="M307 -12q-80 0 -135.5 33t-85 93t-29.5 143q0 81 25 155t72 131t110.5 90t141.5 33q59 0 104 -25.5t70 -68.5l-62 -63q-20 32 -50 48t-68 16q-42 0 -77.5 -17t-64 -47.5t-49 -69.5t-31.5 -83.5t-11 -90.5q0 -54 16 -95.5t50.5 -65.5t91.5 -24q27 0 51 9t40 22l32 154
h-121l17 88h217l-59 -298q-36 -29 -86 -48t-109 -19zM413 701q-50 0 -78.5 19t-40.5 49t-12 65l67 11q2 -35 20 -55t57 -20q37 0 63 21t39 54l64 -11q-11 -40 -35 -69.5t-60 -46.5t-84 -17z" />
    <glyph glyph-name="Gdotaccent" unicode="&#x120;" horiz-adv-x="600" 
d="M307 -12q-80 0 -135.5 33t-85 93t-29.5 143q0 81 25 155t72 131t110.5 90t141.5 33q59 0 104 -25.5t70 -68.5l-62 -63q-20 32 -50 48t-68 16q-42 0 -77.5 -17t-64 -47.5t-49 -69.5t-31.5 -83.5t-11 -90.5q0 -54 16 -95.5t50.5 -65.5t91.5 -24q27 0 51 9t40 22l32 154
h-121l17 88h217l-59 -298q-36 -29 -86 -48t-109 -19zM421 709q-23 0 -42 14.5t-19 41.5q0 29 21 49.5t51 20.5q24 0 42.5 -14.5t18.5 -42.5q0 -29 -21 -49t-51 -20z" />
    <glyph glyph-name="Gcaron" unicode="&#x1e6;" horiz-adv-x="600" 
d="M307 -12q-80 0 -135.5 33t-85 93t-29.5 143q0 81 25 155t72 131t110.5 90t141.5 33q59 0 104 -25.5t70 -68.5l-62 -63q-20 32 -50 48t-68 16q-42 0 -77.5 -17t-64 -47.5t-49 -69.5t-31.5 -83.5t-11 -90.5q0 -54 16 -95.5t50.5 -65.5t91.5 -24q27 0 51 9t40 22l32 154
h-121l17 88h217l-59 -298q-36 -29 -86 -48t-109 -19zM362 705l-102 144h90l67 -71h4l103 71h92l-154 -144h-100z" />
    <glyph glyph-name="uni0122" unicode="&#x122;" horiz-adv-x="600" 
d="M307 -12q-80 0 -135.5 33t-85 93t-29.5 143q0 81 25 155t72 131t110.5 90t141.5 33q59 0 104 -25.5t70 -68.5l-62 -63q-20 32 -50 48t-68 16q-42 0 -77.5 -17t-64 -47.5t-49 -69.5t-31.5 -83.5t-11 -90.5q0 -54 16 -95.5t50.5 -65.5t91.5 -24q27 0 51 9t40 22l32 154
h-121l17 88h217l-59 -298q-36 -29 -86 -48t-109 -19zM161 -230v49q59 3 85.5 16t26.5 32q0 15 -13.5 24.5t-45.5 11.5l30 45q48 -3 73 -12t34 -23.5t9 -33.5q0 -36 -25.5 -59.5t-70.5 -35.5t-103 -14z" />
    <glyph glyph-name="uni01E4" unicode="&#x1e4;" horiz-adv-x="640" 
d="M307 -12q-79 0 -135 32.5t-85.5 93t-29.5 143.5q0 81 25.5 155t72 131t110.5 90t141 33q59 0 104 -25.5t70 -68.5l-62 -63q-20 32 -50 48t-68 16q-41 0 -77 -17t-64.5 -47.5t-49 -69.5t-31.5 -83.5t-11 -90.5q0 -54 15.5 -95.5t50.5 -65.5t92 -24q28 0 51.5 9t39.5 22
l50 242h95l-59 -298q-36 -29 -86 -48t-109 -19zM316 198l16 76l122 6h164l-16 -82h-286z" />
    <glyph glyph-name="uni00470303" horiz-adv-x="600" 
d="M307 -12q-80 0 -135.5 33t-85 93t-29.5 143q0 81 25 155t72 131t110.5 90t141.5 33q59 0 104 -25.5t70 -68.5l-62 -63q-20 32 -50 48t-68 16q-42 0 -77.5 -17t-64 -47.5t-49 -69.5t-31.5 -83.5t-11 -90.5q0 -54 16 -95.5t50.5 -65.5t91.5 -24q27 0 51 9t40 22l32 154
h-121l17 88h217l-59 -298q-36 -29 -86 -48t-109 -19zM486 700q-26 0 -44.5 10t-32 23t-26 22.5t-26.5 9.5q-17 0 -30.5 -13.5t-22.5 -44.5l-74 6q16 68 52.5 100.5t85.5 32.5q26 0 44 -9.5t31.5 -22.5t26 -22.5t27.5 -9.5q16 0 30 14t23 44l73 -6q-14 -67 -51 -100.5
t-86 -33.5z" />
    <glyph glyph-name="uni0193" unicode="&#x193;" horiz-adv-x="600" 
d="M307 -12q-80 0 -135.5 33t-85 93t-29.5 143q0 81 25 155t72 131t110.5 90t141.5 33q30 0 54 -8.5t45 -23.5l-17 -17q-5 24 -7 38.5t-2 31.5q0 31 15.5 59t44 45t68.5 17q23 0 44.5 -6t36.5 -16l-35 -74q-9 6 -16.5 8.5t-18.5 2.5q-26 0 -40.5 -18.5t-14.5 -53.5
q0 -18 4 -37.5t13 -41.5l-62 -63q-20 32 -50 48t-68 16q-42 0 -77.5 -17t-64 -47.5t-49 -69.5t-31.5 -83.5t-11 -90.5q0 -54 16 -95.5t50.5 -65.5t91.5 -24q27 0 51 9t40 22l32 154h-121l17 88h217l-59 -298q-36 -29 -86 -48t-109 -19z" />
    <glyph glyph-name="Hcircumflex" unicode="&#x124;" horiz-adv-x="638" 
d="M32 0l130 654h108l-54 -265h259l53 265h108l-131 -654h-108l60 295h-259l-58 -295h-108zM229 705l154 144h98l104 -144h-90l-68 71h-4l-102 -71h-92z" />
    <glyph glyph-name="uni1E26" unicode="&#x1e26;" horiz-adv-x="638" 
d="M32 0l130 654h108l-54 -265h259l53 265h108l-131 -654h-108l60 295h-259l-58 -295h-108zM306 708q-21 0 -35.5 13t-14.5 37q0 26 18.5 45t44.5 19q22 0 36 -13t14 -37q0 -27 -18 -45.5t-45 -18.5zM513 708q-21 0 -35.5 13t-14.5 37q0 26 18.5 45t45.5 19q21 0 35.5 -13
t14.5 -37q0 -27 -18.5 -45.5t-45.5 -18.5z" />
    <glyph glyph-name="uni1E22" unicode="&#x1e22;" horiz-adv-x="638" 
d="M32 0l130 654h108l-54 -265h259l53 265h108l-131 -654h-108l60 295h-259l-58 -295h-108zM414 709q-23 0 -42 14.5t-19 41.5q0 29 21 49.5t51 20.5q24 0 42.5 -14.5t18.5 -42.5q0 -29 -21 -49t-51 -20z" />
    <glyph glyph-name="uni021E" unicode="&#x21e;" horiz-adv-x="638" 
d="M32 0l130 654h108l-54 -265h259l53 265h108l-131 -654h-108l60 295h-259l-58 -295h-108zM355 705l-102 144h90l67 -71h4l103 71h92l-154 -144h-100z" />
    <glyph glyph-name="uni1E24" unicode="&#x1e24;" horiz-adv-x="638" 
d="M32 0l130 654h108l-54 -265h259l53 265h108l-131 -654h-108l60 295h-259l-58 -295h-108zM245 -225q-23 0 -42.5 14.5t-19.5 41.5q0 29 21.5 49.5t50.5 20.5q24 0 43 -14.5t19 -41.5q0 -30 -21 -50t-51 -20z" />
    <glyph glyph-name="uni1E28" unicode="&#x1e28;" horiz-adv-x="638" 
d="M32 0l130 654h108l-54 -265h259l53 265h108l-131 -654h-108l60 295h-259l-58 -295h-108zM-51 -233l-1 49q59 3 85.5 15t29.5 35q1 17 -14 27t-55 15l63 95h70l-41 -66q37 -9 51 -25t11 -43q-6 -50 -58.5 -74.5t-140.5 -27.5z" />
    <glyph glyph-name="uni1E2A" unicode="&#x1e2a;" horiz-adv-x="638" 
d="M32 0l130 654h108l-54 -265h259l53 265h108l-131 -654h-108l60 295h-259l-58 -295h-108zM235 -234q-46 0 -76 19t-45 54t-15 82l71 10q0 -26 8 -46.5t25.5 -32.5t46.5 -12t51 13t37 34t22 45l66 -11q-9 -41 -32.5 -76t-62.5 -57t-96 -22z" />
    <glyph glyph-name="uni1E96.c" horiz-adv-x="638" 
d="M32 0l130 654h108l-54 -265h259l53 265h108l-131 -654h-108l60 295h-259l-58 -295h-108zM115 -163l14 70h269l-13 -70h-270z" />
    <glyph glyph-name="Hbar" unicode="&#x126;" horiz-adv-x="678" 
d="M72 478l16 78l76 4h548l-16 -82h-624zM52 0l130 654h108l-54 -265h259l53 265h108l-131 -654h-108l60 295h-259l-58 -295h-108z" />
    <glyph glyph-name="Igrave" unicode="&#xcc;" horiz-adv-x="272" 
d="M32 0l130 654h108l-130 -654h-108zM210 704l-146 132l7 12h125l104 -144h-90z" />
    <glyph glyph-name="Iacute" unicode="&#xcd;" horiz-adv-x="272" 
d="M32 0l130 654h108l-130 -654h-108zM132 704l148 144h133l7 -12l-196 -132h-92z" />
    <glyph glyph-name="Icircumflex" unicode="&#xce;" horiz-adv-x="272" 
d="M32 0l130 654h108l-130 -654h-108zM50 705l154 144h98l104 -144h-90l-68 71h-4l-102 -71h-92z" />
    <glyph glyph-name="Itilde" unicode="&#x128;" horiz-adv-x="272" 
d="M32 0l130 654h108l-130 -654h-108zM300 700q-26 0 -44.5 10t-32 23t-26 22.5t-26.5 9.5q-17 0 -30.5 -13.5t-22.5 -44.5l-74 6q16 68 52.5 100.5t85.5 32.5q26 0 44 -9.5t31.5 -22.5t26 -22.5t27.5 -9.5q16 0 30 14t23 44l73 -6q-14 -67 -51 -100.5t-86 -33.5z" />
    <glyph glyph-name="Idieresis" unicode="&#xcf;" horiz-adv-x="272" 
d="M32 0l130 654h108l-130 -654h-108zM127 708q-21 0 -35.5 13t-14.5 37q0 26 18.5 45t44.5 19q22 0 36 -13t14 -37q0 -27 -18 -45.5t-45 -18.5zM334 708q-21 0 -35.5 13t-14.5 37q0 26 18.5 45t45.5 19q21 0 35.5 -13t14.5 -37q0 -27 -18.5 -45.5t-45.5 -18.5z" />
    <glyph glyph-name="Imacron" unicode="&#x12a;" horiz-adv-x="272" 
d="M32 0l130 654h108l-130 -654h-108zM96 729l14 71h272l-14 -71h-272z" />
    <glyph glyph-name="Ibreve" unicode="&#x12c;" horiz-adv-x="272" 
d="M32 0l130 654h108l-130 -654h-108zM227 701q-50 0 -78.5 19t-40.5 49t-12 65l67 11q2 -35 20 -55t57 -20q37 0 63 21t39 54l64 -11q-11 -40 -35 -69.5t-60 -46.5t-84 -17z" />
    <glyph glyph-name="Idotaccent" unicode="&#x130;" horiz-adv-x="272" 
d="M32 0l130 654h108l-130 -654h-108zM235 709q-23 0 -42 14.5t-19 41.5q0 29 21 49.5t51 20.5q24 0 42.5 -14.5t18.5 -42.5q0 -29 -21 -49t-51 -20z" />
    <glyph glyph-name="uni01CF" unicode="&#x1cf;" horiz-adv-x="272" 
d="M32 0l130 654h108l-130 -654h-108zM176 705l-102 144h90l67 -71h4l103 71h92l-154 -144h-100z" />
    <glyph glyph-name="uni0208" unicode="&#x208;" horiz-adv-x="272" 
d="M32 0l130 654h108l-130 -654h-108zM90 704l-106 132l7 12h102l71 -144h-74zM282 704l-106 132l7 12h102l71 -144h-74z" />
    <glyph glyph-name="Iogonek" unicode="&#x12e;" horiz-adv-x="272" 
d="M47 -222q-40 0 -67 20t-27 58q0 27 15.5 54.5t39 50.5t47.5 39h-23l130 654h108l-130 -654q-41 -21 -65 -50.5t-24 -56.5q0 -18 12 -27.5t28 -9.5q20 0 39 13l23 -57q-22 -16 -49.5 -25t-56.5 -9z" />
    <glyph glyph-name="uni1EC8" unicode="&#x1ec8;" horiz-adv-x="272" 
d="M32 0l130 654h108l-130 -654h-108zM179 700l-4 48q59 12 59 45q0 16 -17.5 25t-54.5 10l18 63q49 0 80.5 -10.5t46.5 -27.5t15 -39q0 -46 -37.5 -76t-105.5 -38z" />
    <glyph glyph-name="uni1ECA" unicode="&#x1eca;" horiz-adv-x="272" 
d="M32 0l130 654h108l-130 -654h-108zM48 -228q-23 0 -42.5 14.5t-19.5 41.5q0 29 21.5 49.5t50.5 20.5q24 0 43 -14.5t19 -41.5q0 -30 -21 -50t-51 -20z" />
    <glyph glyph-name="uni0197" unicode="&#x197;" horiz-adv-x="313" 
d="M36 300l16 76l76 6h180l-16 -82h-256zM52 0l130 654h108l-130 -654h-108z" />
    <glyph glyph-name="IJ" unicode="&#x132;" horiz-adv-x="544" 
d="M245 -173q-22 0 -42.5 5t-42.5 16l33 78q12 -6 22.5 -9t22.5 -3q26 0 41.5 21t23.5 63l131 656h108l-131 -658q-10 -48 -30 -86.5t-53 -60.5t-83 -22zM32 0l130 654h108l-130 -654h-108z" />
    <glyph glyph-name="Jcircumflex" unicode="&#x134;" horiz-adv-x="474" 
d="M168 -12q-59 0 -103.5 27t-67.5 79l64 53q16 -31 42 -48.5t64 -17.5q45 0 73 33.5t41 97.5l88 442h108l-92 -460q-11 -58 -38 -104.5t-71.5 -74t-107.5 -27.5zM260 705l154 144h98l104 -144h-90l-68 71h-4l-102 -71h-92z" />
    <glyph glyph-name="uni004A030C" horiz-adv-x="474" 
d="M168 -12q-59 0 -103.5 27t-67.5 79l64 53q16 -31 42 -48.5t64 -17.5q45 0 73 33.5t41 97.5l88 442h108l-92 -460q-11 -58 -38 -104.5t-71.5 -74t-107.5 -27.5zM386 705l-102 144h90l67 -71h4l103 71h92l-154 -144h-100z" />
    <glyph glyph-name="uni0248" unicode="&#x248;" horiz-adv-x="494" 
d="M184 318l16 76l110 6h188l-16 -82h-298zM168 -12q-59 0 -103.5 27t-67.5 79l64 53q16 -31 42 -48.5t64 -17.5q45 0 73 33.5t41 97.5l88 442h108l-92 -460q-11 -58 -38 -104.5t-71.5 -74t-107.5 -27.5z" />
    <glyph glyph-name="uni0136" unicode="&#x136;" horiz-adv-x="576" 
d="M32 0l130 654h108l-59 -296h4l286 296h119l-241 -260l147 -394h-112l-115 326l-118 -120l-41 -206h-108zM152 -230v49q59 3 85.5 16t26.5 32q0 15 -13.5 24.5t-45.5 11.5l30 45q48 -3 73 -12t34 -23.5t9 -33.5q0 -36 -25.5 -59.5t-70.5 -35.5t-103 -14z" />
    <glyph glyph-name="uni1E32" unicode="&#x1e32;" horiz-adv-x="576" 
d="M32 0l130 654h108l-59 -296h4l286 296h119l-241 -260l147 -394h-112l-115 326l-118 -120l-41 -206h-108zM249 -225q-23 0 -42.5 14.5t-19.5 41.5q0 29 21.5 49.5t50.5 20.5q24 0 43 -14.5t19 -41.5q0 -30 -21 -50t-51 -20z" />
    <glyph glyph-name="uni1E34" unicode="&#x1e34;" horiz-adv-x="576" 
d="M32 0l130 654h108l-59 -296h4l286 296h119l-241 -260l147 -394h-112l-115 326l-118 -120l-41 -206h-108zM119 -163l14 70h269l-13 -70h-270z" />
    <glyph glyph-name="Lacute" unicode="&#x139;" horiz-adv-x="481" 
d="M32 0l130 654h108l-112 -563h261l-18 -91h-369zM140 704l148 144h133l7 -12l-196 -132h-92z" />
    <glyph glyph-name="Lcaron" unicode="&#x13d;" horiz-adv-x="481" 
d="M32 0l130 654h108l-112 -563h261l-18 -91h-369zM380 510l40 217h71l-13 -63l-49 -154h-49z" />
    <glyph glyph-name="uni013B" unicode="&#x13b;" horiz-adv-x="481" 
d="M32 0l130 654h108l-112 -563h261l-18 -91h-369zM86 -230v49q59 3 85.5 16t26.5 32q0 15 -13.5 24.5t-45.5 11.5l30 45q48 -3 73 -12t34 -23.5t9 -33.5q0 -36 -25.5 -59.5t-70.5 -35.5t-103 -14z" />
    <glyph glyph-name="uni1E36" unicode="&#x1e36;" horiz-adv-x="481" 
d="M32 0l130 654h108l-112 -563h261l-18 -91h-369zM184 -225q-23 0 -42.5 14.5t-19.5 41.5q0 29 21.5 49.5t50.5 20.5q24 0 43 -14.5t19 -41.5q0 -30 -21 -50t-51 -20z" />
    <glyph glyph-name="uni1E38" unicode="&#x1e38;" horiz-adv-x="481" 
d="M32 0l130 654h108l-112 -563h261l-18 -91h-369zM104 729l14 71h272l-14 -71h-272zM184 -225q-23 0 -42.5 14.5t-19.5 41.5q0 29 21.5 49.5t50.5 20.5q24 0 43 -14.5t19 -41.5q0 -30 -21 -50t-51 -20z" />
    <glyph glyph-name="uni1E3A" unicode="&#x1e3a;" horiz-adv-x="481" 
d="M32 0l130 654h108l-112 -563h261l-18 -91h-369zM54 -163l14 70h269l-13 -70h-270z" />
    <glyph glyph-name="Lslash" unicode="&#x141;" horiz-adv-x="503" 
d="M20 200l-30 76l138 58l102 44l174 70l28 -76l-220 -88l-102 -44zM54 0l130 654h108l-112 -563h261l-18 -91h-369z" />
    <glyph glyph-name="uni023D" unicode="&#x23d;" horiz-adv-x="501" 
d="M40 318l16 76l78 6h264l-16 -82h-342zM52 0l130 654h108l-112 -563h261l-18 -91h-369z" />
    <glyph glyph-name="uni2C60" unicode="&#x2c60;" horiz-adv-x="501" 
d="M30 262l12 58l78 6h264l-14 -64h-340zM54 390l12 58l78 6h266l-14 -64h-342zM52 0l130 654h108l-112 -563h261l-18 -91h-369z" />
    <glyph glyph-name="uni2C62" unicode="&#x2c62;" horiz-adv-x="523" 
d="M340 283q-36 0 -65.5 11t-56.5 26t-52.5 26t-52.5 11q-19 0 -32 -17t-21 -48l-59 16q8 36 23 62.5t37.5 41t51.5 14.5q36 0 65.5 -11.5t56.5 -26t53 -26t52 -11.5q20 0 32.5 17.5t20.5 47.5l59 -15q-8 -36 -23 -62.5t-37.5 -41t-51.5 -14.5zM74 0l130 654h108l-112 -563
h261l-18 -91h-369z" />
    <glyph glyph-name="uniA7AD" unicode="&#xa7ad;" horiz-adv-x="529" 
d="M130 270q-58 0 -89 29t-31 75q0 24 11 46.5t31.5 37t48.5 14.5q36 0 55.5 -18t27 -42.5t7.5 -46.5l-40 -7q0 20 -8.5 38t-34.5 18q-15 0 -23.5 -8t-8.5 -22q0 -15 13 -23.5t40 -8.5h281l-16 -82h-264zM80 0l130 654h108l-112 -563h261l-18 -91h-369z" />
    <glyph glyph-name="Ldot" unicode="&#x13f;" horiz-adv-x="481" 
d="M32 0l130 654h108l-112 -563h261l-18 -91h-369zM383 254q-26 0 -42.5 17.5t-16.5 44.5q0 21 11 41t29.5 32.5t42.5 12.5q27 0 42.5 -18t15.5 -45q0 -21 -10 -40.5t-28.5 -32t-43.5 -12.5z" />
    <glyph glyph-name="uni1E3E" unicode="&#x1e3e;" horiz-adv-x="723" 
d="M32 0l130 654h128l46 -328q5 -31 8 -62t7 -64h4q14 33 28 64t31 62l176 328h130l-130 -654h-102l65 314q7 32 16.5 70t20 76t20.5 70h-4l-78 -162l-162 -304h-76l-48 304l-18 162h-4q-2 -32 -5.5 -70.5t-8 -76.5t-10.5 -69l-62 -314h-102zM348 704l148 144h133l7 -12
l-196 -132h-92z" />
    <glyph glyph-name="uni1E40" unicode="&#x1e40;" horiz-adv-x="723" 
d="M32 0l130 654h128l46 -328q5 -31 8 -62t7 -64h4q14 33 28 64t31 62l176 328h130l-130 -654h-102l65 314q7 32 16.5 70t20 76t20.5 70h-4l-78 -162l-162 -304h-76l-48 304l-18 162h-4q-2 -32 -5.5 -70.5t-8 -76.5t-10.5 -69l-62 -314h-102zM451 709q-23 0 -42 14.5
t-19 41.5q0 29 21 49.5t51 20.5q24 0 42.5 -14.5t18.5 -42.5q0 -29 -21 -49t-51 -20z" />
    <glyph glyph-name="uni1E42" unicode="&#x1e42;" horiz-adv-x="723" 
d="M32 0l130 654h128l46 -328q5 -31 8 -62t7 -64h4q14 33 28 64t31 62l176 328h130l-130 -654h-102l65 314q7 32 16.5 70t20 76t20.5 70h-4l-78 -162l-162 -304h-76l-48 304l-18 162h-4q-2 -32 -5.5 -70.5t-8 -76.5t-10.5 -69l-62 -314h-102zM276 -228q-23 0 -42.5 14.5
t-19.5 41.5q0 29 21.5 49.5t50.5 20.5q24 0 43 -14.5t19 -41.5q0 -30 -21 -50t-51 -20z" />
    <glyph glyph-name="uni01F8" unicode="&#x1f8;" horiz-adv-x="631" 
d="M32 0l130 654h112l126 -380q4 -12 10.5 -36.5t13 -52.5t10.5 -51h4q5 53 12 110.5t17 111.5l59 298h104l-131 -654h-111l-124 378q-6 18 -17 60t-19 84h-4q-4 -52 -11.5 -110t-18.5 -112l-59 -300h-103zM392 704l-146 132l7 12h125l104 -144h-90z" />
    <glyph glyph-name="Nacute" unicode="&#x143;" horiz-adv-x="631" 
d="M32 0l130 654h112l126 -380q4 -12 10.5 -36.5t13 -52.5t10.5 -51h4q5 53 12 110.5t17 111.5l59 298h104l-131 -654h-111l-124 378q-6 18 -17 60t-19 84h-4q-4 -52 -11.5 -110t-18.5 -112l-59 -300h-103zM314 704l148 144h133l7 -12l-196 -132h-92z" />
    <glyph glyph-name="Ncaron" unicode="&#x147;" horiz-adv-x="631" 
d="M32 0l130 654h112l126 -380q4 -12 10.5 -36.5t13 -52.5t10.5 -51h4q5 53 12 110.5t17 111.5l59 298h104l-131 -654h-111l-124 378q-6 18 -17 60t-19 84h-4q-4 -52 -11.5 -110t-18.5 -112l-59 -300h-103zM358 705l-102 144h90l67 -71h4l103 71h92l-154 -144h-100z" />
    <glyph glyph-name="Ntilde" unicode="&#xd1;" horiz-adv-x="631" 
d="M32 0l130 654h112l126 -380q4 -12 10.5 -36.5t13 -52.5t10.5 -51h4q5 53 12 110.5t17 111.5l59 298h104l-131 -654h-111l-124 378q-6 18 -17 60t-19 84h-4q-4 -52 -11.5 -110t-18.5 -112l-59 -300h-103zM482 700q-26 0 -44.5 10t-32 23t-26 22.5t-26.5 9.5
q-17 0 -30.5 -13.5t-22.5 -44.5l-74 6q16 68 52.5 100.5t85.5 32.5q26 0 44 -9.5t31.5 -22.5t26 -22.5t27.5 -9.5q16 0 30 14t23 44l73 -6q-14 -67 -51 -100.5t-86 -33.5z" />
    <glyph glyph-name="uni1E44" unicode="&#x1e44;" horiz-adv-x="631" 
d="M32 0l130 654h112l126 -380q4 -12 10.5 -36.5t13 -52.5t10.5 -51h4q5 53 12 110.5t17 111.5l59 298h104l-131 -654h-111l-124 378q-6 18 -17 60t-19 84h-4q-4 -52 -11.5 -110t-18.5 -112l-59 -300h-103zM417 709q-23 0 -42 14.5t-19 41.5q0 29 21 49.5t51 20.5
q24 0 42.5 -14.5t18.5 -42.5q0 -29 -21 -49t-51 -20z" />
    <glyph glyph-name="uni0145" unicode="&#x145;" horiz-adv-x="631" 
d="M32 0l130 654h112l126 -380q4 -12 10.5 -36.5t13 -52.5t10.5 -51h4q5 53 12 110.5t17 111.5l59 298h104l-131 -654h-111l-124 378q-6 18 -17 60t-19 84h-4q-4 -52 -11.5 -110t-18.5 -112l-59 -300h-103zM137 -233v49q59 3 85.5 16t26.5 32q0 15 -13.5 24.5t-45.5 11.5
l30 45q48 -3 73 -12t34 -23.5t9 -33.5q0 -36 -25.5 -59.5t-70.5 -35.5t-103 -14z" />
    <glyph glyph-name="uni1E46" unicode="&#x1e46;" horiz-adv-x="631" 
d="M32 0l130 654h112l126 -380q4 -12 10.5 -36.5t13 -52.5t10.5 -51h4q5 53 12 110.5t17 111.5l59 298h104l-131 -654h-111l-124 378q-6 18 -17 60t-19 84h-4q-4 -52 -11.5 -110t-18.5 -112l-59 -300h-103zM235 -228q-23 0 -42.5 14.5t-19.5 41.5q0 29 21.5 49.5t50.5 20.5
q24 0 43 -14.5t19 -41.5q0 -30 -21 -50t-51 -20z" />
    <glyph glyph-name="uni1E48" unicode="&#x1e48;" horiz-adv-x="631" 
d="M32 0l130 654h112l126 -380q4 -12 10.5 -36.5t13 -52.5t10.5 -51h4q5 53 12 110.5t17 111.5l59 298h104l-131 -654h-111l-124 378q-6 18 -17 60t-19 84h-4q-4 -52 -11.5 -110t-18.5 -112l-59 -300h-103zM105 -166l14 70h269l-13 -70h-270z" />
    <glyph glyph-name="Eng" unicode="&#x14a;" horiz-adv-x="630" 
d="M354 -12q-23 0 -47 5.5t-39 14.5l33 82q9 -4 19.5 -6.5t22.5 -2.5q30 0 57 29.5t49 79.5t35 111t13 123q0 54 -12.5 87t-35.5 47.5t-53 14.5q-34 0 -76 -24t-86 -73l-94 -476h-108l130 654h103l-16 -78q29 29 59.5 49.5t60.5 30.5t61 10q52 0 92 -23.5t62.5 -75
t22.5 -135.5q0 -86 -18.5 -166t-52 -142.5t-79.5 -99t-103 -36.5z" />
    <glyph glyph-name="uni0220" unicode="&#x220;" horiz-adv-x="643" 
d="M369 -181l109 540q5 27 9.5 53.5t4.5 51.5q0 58 -26.5 83.5t-70.5 25.5q-33 0 -76 -23t-84 -74l-95 -476h-108l130 654h102l-13 -75q44 44 94 65.5t96 21.5q75 0 118 -42t43 -131q0 -27 -3 -57t-10 -65l-112 -552h-108z" />
    <glyph glyph-name="Ograve" unicode="&#xd2;" horiz-adv-x="647" 
d="M294 -12q-73 0 -126 33.5t-81.5 95.5t-28.5 146q0 65 16.5 124.5t46 110.5t70 88.5t89.5 58.5t104 21q74 0 127 -33.5t81 -95t28 -146.5q0 -65 -16 -124.5t-46 -110.5t-70.5 -88.5t-89.5 -58.5t-104 -21zM300 81q35 0 66.5 16.5t57.5 46t45.5 67.5t30 82t10.5 90
q0 58 -14.5 100.5t-44 66t-73.5 23.5q-35 0 -66.5 -16.5t-57.5 -46t-45 -67.5t-29.5 -82t-10.5 -90q0 -58 14.5 -100.5t43.5 -66t73 -23.5zM396 704l-146 132l7 12h125l104 -144h-90z" />
    <glyph glyph-name="Oacute" unicode="&#xd3;" horiz-adv-x="647" 
d="M294 -12q-73 0 -126 33.5t-81.5 95.5t-28.5 146q0 65 16.5 124.5t46 110.5t70 88.5t89.5 58.5t104 21q74 0 127 -33.5t81 -95t28 -146.5q0 -65 -16 -124.5t-46 -110.5t-70.5 -88.5t-89.5 -58.5t-104 -21zM300 81q35 0 66.5 16.5t57.5 46t45.5 67.5t30 82t10.5 90
q0 58 -14.5 100.5t-44 66t-73.5 23.5q-35 0 -66.5 -16.5t-57.5 -46t-45 -67.5t-29.5 -82t-10.5 -90q0 -58 14.5 -100.5t43.5 -66t73 -23.5zM318 704l148 144h133l7 -12l-196 -132h-92z" />
    <glyph glyph-name="Ocircumflex" unicode="&#xd4;" horiz-adv-x="647" 
d="M294 -12q-73 0 -126 33.5t-81.5 95.5t-28.5 146q0 65 16.5 124.5t46 110.5t70 88.5t89.5 58.5t104 21q74 0 127 -33.5t81 -95t28 -146.5q0 -65 -16 -124.5t-46 -110.5t-70.5 -88.5t-89.5 -58.5t-104 -21zM300 81q35 0 66.5 16.5t57.5 46t45.5 67.5t30 82t10.5 90
q0 58 -14.5 100.5t-44 66t-73.5 23.5q-35 0 -66.5 -16.5t-57.5 -46t-45 -67.5t-29.5 -82t-10.5 -90q0 -58 14.5 -100.5t43.5 -66t73 -23.5zM236 705l154 144h98l104 -144h-90l-68 71h-4l-102 -71h-92z" />
    <glyph glyph-name="Otilde" unicode="&#xd5;" horiz-adv-x="647" 
d="M294 -12q-73 0 -126 33.5t-81.5 95.5t-28.5 146q0 65 16.5 124.5t46 110.5t70 88.5t89.5 58.5t104 21q74 0 127 -33.5t81 -95t28 -146.5q0 -65 -16 -124.5t-46 -110.5t-70.5 -88.5t-89.5 -58.5t-104 -21zM300 81q35 0 66.5 16.5t57.5 46t45.5 67.5t30 82t10.5 90
q0 58 -14.5 100.5t-44 66t-73.5 23.5q-35 0 -66.5 -16.5t-57.5 -46t-45 -67.5t-29.5 -82t-10.5 -90q0 -58 14.5 -100.5t43.5 -66t73 -23.5zM486 700q-26 0 -44.5 10t-32 23t-26 22.5t-26.5 9.5q-17 0 -30.5 -13.5t-22.5 -44.5l-74 6q16 68 52.5 100.5t85.5 32.5
q26 0 44 -9.5t31.5 -22.5t26 -22.5t27.5 -9.5q16 0 30 14t23 44l73 -6q-14 -67 -51 -100.5t-86 -33.5z" />
    <glyph glyph-name="Odieresis" unicode="&#xd6;" horiz-adv-x="647" 
d="M294 -12q-73 0 -126 33.5t-81.5 95.5t-28.5 146q0 65 16.5 124.5t46 110.5t70 88.5t89.5 58.5t104 21q74 0 127 -33.5t81 -95t28 -146.5q0 -65 -16 -124.5t-46 -110.5t-70.5 -88.5t-89.5 -58.5t-104 -21zM300 81q35 0 66.5 16.5t57.5 46t45.5 67.5t30 82t10.5 90
q0 58 -14.5 100.5t-44 66t-73.5 23.5q-35 0 -66.5 -16.5t-57.5 -46t-45 -67.5t-29.5 -82t-10.5 -90q0 -58 14.5 -100.5t43.5 -66t73 -23.5zM313 708q-21 0 -35.5 13t-14.5 37q0 26 18.5 45t44.5 19q22 0 36 -13t14 -37q0 -27 -18 -45.5t-45 -18.5zM520 708q-21 0 -35.5 13
t-14.5 37q0 26 18.5 45t45.5 19q21 0 35.5 -13t14.5 -37q0 -27 -18.5 -45.5t-45.5 -18.5z" />
    <glyph glyph-name="Omacron" unicode="&#x14c;" horiz-adv-x="647" 
d="M294 -12q-73 0 -126 33.5t-81.5 95.5t-28.5 146q0 65 16.5 124.5t46 110.5t70 88.5t89.5 58.5t104 21q74 0 127 -33.5t81 -95t28 -146.5q0 -65 -16 -124.5t-46 -110.5t-70.5 -88.5t-89.5 -58.5t-104 -21zM300 81q35 0 66.5 16.5t57.5 46t45.5 67.5t30 82t10.5 90
q0 58 -14.5 100.5t-44 66t-73.5 23.5q-35 0 -66.5 -16.5t-57.5 -46t-45 -67.5t-29.5 -82t-10.5 -90q0 -58 14.5 -100.5t43.5 -66t73 -23.5zM282 729l14 71h272l-14 -71h-272z" />
    <glyph glyph-name="Obreve" unicode="&#x14e;" horiz-adv-x="647" 
d="M294 -12q-73 0 -126 33.5t-81.5 95.5t-28.5 146q0 65 16.5 124.5t46 110.5t70 88.5t89.5 58.5t104 21q74 0 127 -33.5t81 -95t28 -146.5q0 -65 -16 -124.5t-46 -110.5t-70.5 -88.5t-89.5 -58.5t-104 -21zM300 81q35 0 66.5 16.5t57.5 46t45.5 67.5t30 82t10.5 90
q0 58 -14.5 100.5t-44 66t-73.5 23.5q-35 0 -66.5 -16.5t-57.5 -46t-45 -67.5t-29.5 -82t-10.5 -90q0 -58 14.5 -100.5t43.5 -66t73 -23.5zM413 701q-50 0 -78.5 19t-40.5 49t-12 65l67 11q2 -35 20 -55t57 -20q37 0 63 21t39 54l64 -11q-11 -40 -35 -69.5t-60 -46.5
t-84 -17z" />
    <glyph glyph-name="Ohungarumlaut" unicode="&#x150;" horiz-adv-x="647" 
d="M294 -12q-73 0 -126 33.5t-81.5 95.5t-28.5 146q0 65 16.5 124.5t46 110.5t70 88.5t89.5 58.5t104 21q74 0 127 -33.5t81 -95t28 -146.5q0 -65 -16 -124.5t-46 -110.5t-70.5 -88.5t-89.5 -58.5t-104 -21zM300 81q35 0 66.5 16.5t57.5 46t45.5 67.5t30 82t10.5 90
q0 58 -14.5 100.5t-44 66t-73.5 23.5q-35 0 -66.5 -16.5t-57.5 -46t-45 -67.5t-29.5 -82t-10.5 -90q0 -58 14.5 -100.5t43.5 -66t73 -23.5zM272 704l123 144h102l7 -12l-158 -132h-74zM464 704l123 144h102l7 -12l-158 -132h-74z" />
    <glyph glyph-name="uni01D1" unicode="&#x1d1;" horiz-adv-x="647" 
d="M294 -12q-73 0 -126 33.5t-81.5 95.5t-28.5 146q0 65 16.5 124.5t46 110.5t70 88.5t89.5 58.5t104 21q74 0 127 -33.5t81 -95t28 -146.5q0 -65 -16 -124.5t-46 -110.5t-70.5 -88.5t-89.5 -58.5t-104 -21zM300 81q35 0 66.5 16.5t57.5 46t45.5 67.5t30 82t10.5 90
q0 58 -14.5 100.5t-44 66t-73.5 23.5q-35 0 -66.5 -16.5t-57.5 -46t-45 -67.5t-29.5 -82t-10.5 -90q0 -58 14.5 -100.5t43.5 -66t73 -23.5zM362 705l-102 144h90l67 -71h4l103 71h92l-154 -144h-100z" />
    <glyph glyph-name="uni020C" unicode="&#x20c;" horiz-adv-x="647" 
d="M294 -12q-73 0 -126 33.5t-81.5 95.5t-28.5 146q0 65 16.5 124.5t46 110.5t70 88.5t89.5 58.5t104 21q74 0 127 -33.5t81 -95t28 -146.5q0 -65 -16 -124.5t-46 -110.5t-70.5 -88.5t-89.5 -58.5t-104 -21zM300 81q35 0 66.5 16.5t57.5 46t45.5 67.5t30 82t10.5 90
q0 58 -14.5 100.5t-44 66t-73.5 23.5q-35 0 -66.5 -16.5t-57.5 -46t-45 -67.5t-29.5 -82t-10.5 -90q0 -58 14.5 -100.5t43.5 -66t73 -23.5zM276 704l-106 132l7 12h102l71 -144h-74zM468 704l-106 132l7 12h102l71 -144h-74z" />
    <glyph glyph-name="uni01EA" unicode="&#x1ea;" horiz-adv-x="647" 
d="M236 -222q-40 0 -67 20t-27 58q0 30 17 58.5t41.5 51t47.5 35.5l46 -13q-73 0 -126 33.5t-81.5 95t-28.5 146.5q0 65 16 125t46 110.5t70.5 88t89.5 58.5t104 21q74 0 127 -33.5t81 -95t28 -146.5q0 -67 -18.5 -133t-55 -121.5t-88.5 -93.5t-118 -51q-35 -6 -57 -23.5
t-32.5 -38.5t-10.5 -37q0 -18 12 -27.5t28 -9.5q20 0 39 13l23 -57q-22 -16 -49.5 -25t-56.5 -9zM300 81q35 0 66.5 16.5t57.5 45.5t45 68t30 82.5t11 89.5q0 58 -14.5 100.5t-44 66t-73.5 23.5q-34 0 -65.5 -16.5t-58 -45.5t-45.5 -68t-29.5 -82.5t-10.5 -89.5
q0 -58 14.5 -100.5t43.5 -66t73 -23.5z" />
    <glyph glyph-name="uni1ECC" unicode="&#x1ecc;" horiz-adv-x="647" 
d="M294 -12q-73 0 -126 33.5t-81.5 95.5t-28.5 146q0 65 16.5 124.5t46 110.5t70 88.5t89.5 58.5t104 21q74 0 127 -33.5t81 -95t28 -146.5q0 -65 -16 -124.5t-46 -110.5t-70.5 -88.5t-89.5 -58.5t-104 -21zM300 81q35 0 66.5 16.5t57.5 46t45.5 67.5t30 82t10.5 90
q0 58 -14.5 100.5t-44 66t-73.5 23.5q-35 0 -66.5 -16.5t-57.5 -46t-45 -67.5t-29.5 -82t-10.5 -90q0 -58 14.5 -100.5t43.5 -66t73 -23.5zM246 -225q-23 0 -42.5 14.5t-19.5 41.5q0 29 21.5 49.5t50.5 20.5q24 0 43 -14.5t19 -41.5q0 -30 -21 -50t-51 -20z" />
    <glyph glyph-name="uni1ECE" unicode="&#x1ece;" horiz-adv-x="647" 
d="M294 -12q-73 0 -126 33.5t-81.5 95.5t-28.5 146q0 65 16.5 124.5t46 110.5t70 88.5t89.5 58.5t104 21q74 0 127 -33.5t81 -95t28 -146.5q0 -65 -16 -124.5t-46 -110.5t-70.5 -88.5t-89.5 -58.5t-104 -21zM300 81q35 0 66.5 16.5t57.5 46t45.5 67.5t30 82t10.5 90
q0 58 -14.5 100.5t-44 66t-73.5 23.5q-35 0 -66.5 -16.5t-57.5 -46t-45 -67.5t-29.5 -82t-10.5 -90q0 -58 14.5 -100.5t43.5 -66t73 -23.5zM365 700l-4 48q59 12 59 45q0 16 -17.5 25t-54.5 10l18 63q49 0 80.5 -10.5t46.5 -27.5t15 -39q0 -46 -37.5 -76t-105.5 -38z" />
    <glyph glyph-name="uni1ED0" unicode="&#x1ed0;" horiz-adv-x="647" 
d="M294 -12q-73 0 -126 33.5t-81.5 95.5t-28.5 146q0 65 16.5 124.5t46 110.5t70 88.5t89.5 58.5t104 21q74 0 127 -33.5t81 -95t28 -146.5q0 -65 -16 -124.5t-46 -110.5t-70.5 -88.5t-89.5 -58.5t-104 -21zM300 81q35 0 66.5 16.5t57.5 46t45.5 67.5t30 82t10.5 90
q0 58 -14.5 100.5t-44 66t-73.5 23.5q-35 0 -66.5 -16.5t-57.5 -46t-45 -67.5t-29.5 -82t-10.5 -90q0 -58 14.5 -100.5t43.5 -66t73 -23.5zM256 704l136 124h89l95 -124h-82l-60 64h-4l-90 -64h-84zM526 786l92 118h87l7 -12l-128 -106h-58z" />
    <glyph glyph-name="uni1ED2" unicode="&#x1ed2;" horiz-adv-x="647" 
d="M294 -12q-73 0 -126 33.5t-81.5 95.5t-28.5 146q0 65 16.5 124.5t46 110.5t70 88.5t89.5 58.5t104 21q74 0 127 -33.5t81 -95t28 -146.5q0 -65 -16 -124.5t-46 -110.5t-70.5 -88.5t-89.5 -58.5t-104 -21zM300 81q35 0 66.5 16.5t57.5 46t45.5 67.5t30 82t10.5 90
q0 58 -14.5 100.5t-44 66t-73.5 23.5q-35 0 -66.5 -16.5t-57.5 -46t-45 -67.5t-29.5 -82t-10.5 -90q0 -58 14.5 -100.5t43.5 -66t73 -23.5zM256 704l136 124h89l95 -124h-82l-60 64h-4l-90 -64h-84zM267 786l-83 106l7 12h85l48 -118h-57z" />
    <glyph glyph-name="uni1ED4" unicode="&#x1ed4;" horiz-adv-x="647" 
d="M294 -12q-73 0 -126 33.5t-81.5 95.5t-28.5 146q0 65 16.5 124.5t46 110.5t70 88.5t89.5 58.5t104 21q74 0 127 -33.5t81 -95t28 -146.5q0 -65 -16 -124.5t-46 -110.5t-70.5 -88.5t-89.5 -58.5t-104 -21zM300 81q35 0 66.5 16.5t57.5 46t45.5 67.5t30 82t10.5 90
q0 58 -14.5 100.5t-44 66t-73.5 23.5q-35 0 -66.5 -16.5t-57.5 -46t-45 -67.5t-29.5 -82t-10.5 -90q0 -58 14.5 -100.5t43.5 -66t73 -23.5zM256 704l136 124h89l95 -124h-82l-60 64h-4l-90 -64h-84zM557 773l-4 40q43 8 43 37q0 15 -14.5 21.5t-45.5 8.5l12 50
q61 0 92.5 -14.5t31.5 -46.5q0 -39 -31 -63.5t-84 -32.5z" />
    <glyph glyph-name="uni1ED6" unicode="&#x1ed6;" horiz-adv-x="647" 
d="M294 -12q-73 0 -126 33.5t-81.5 95.5t-28.5 146q0 65 16.5 124.5t46 110.5t70 88.5t89.5 58.5t104 21q74 0 127 -33.5t81 -95t28 -146.5q0 -65 -16 -124.5t-46 -110.5t-70.5 -88.5t-89.5 -58.5t-104 -21zM300 81q35 0 66.5 16.5t57.5 46t45.5 67.5t30 82t10.5 90
q0 58 -14.5 100.5t-44 66t-73.5 23.5q-35 0 -66.5 -16.5t-57.5 -46t-45 -67.5t-29.5 -82t-10.5 -90q0 -58 14.5 -100.5t43.5 -66t73 -23.5zM326 704l-14 40l87 78l121 -40l44 -78l-102 28l-31 30l-47 -28zM507 845q-29 0 -48.5 11.5t-35 23.5t-32.5 12q-16 0 -26 -11
t-17 -32l-56 8q7 32 20.5 54t33 34t44.5 12q29 0 48.5 -11.5t35 -23.5t32.5 -12q16 0 26 11t16 32l57 -8q-7 -31 -20.5 -53.5t-33 -34.5t-44.5 -12z" />
    <glyph glyph-name="uni1ED8" unicode="&#x1ed8;" horiz-adv-x="647" 
d="M294 -12q-73 0 -126 33.5t-81.5 95.5t-28.5 146q0 65 16.5 124.5t46 110.5t70 88.5t89.5 58.5t104 21q74 0 127 -33.5t81 -95t28 -146.5q0 -65 -16 -124.5t-46 -110.5t-70.5 -88.5t-89.5 -58.5t-104 -21zM300 81q35 0 66.5 16.5t57.5 46t45.5 67.5t30 82t10.5 90
q0 58 -14.5 100.5t-44 66t-73.5 23.5q-35 0 -66.5 -16.5t-57.5 -46t-45 -67.5t-29.5 -82t-10.5 -90q0 -58 14.5 -100.5t43.5 -66t73 -23.5zM236 705l154 144h98l104 -144h-90l-68 71h-4l-102 -71h-92zM246 -225q-23 0 -42.5 14.5t-19.5 41.5q0 29 21.5 49.5t50.5 20.5
q24 0 43 -14.5t19 -41.5q0 -30 -21 -50t-51 -20z" />
    <glyph glyph-name="uni1E52" unicode="&#x1e52;" horiz-adv-x="647" 
d="M294 -12q-73 0 -126 33.5t-81.5 95.5t-28.5 146q0 65 16.5 124.5t46 110.5t70 88.5t89.5 58.5t104 21q74 0 127 -33.5t81 -95t28 -146.5q0 -65 -16 -124.5t-46 -110.5t-70.5 -88.5t-89.5 -58.5t-104 -21zM300 81q35 0 66.5 16.5t57.5 46t45.5 67.5t30 82t10.5 90
q0 58 -14.5 100.5t-44 66t-73.5 23.5q-35 0 -66.5 -16.5t-57.5 -46t-45 -67.5t-29.5 -82t-10.5 -90q0 -58 14.5 -100.5t43.5 -66t73 -23.5zM281 731l14 72h272l-14 -72h-272zM380 844l104 124h99l7 -12l-140 -112h-70z" />
    <glyph glyph-name="Oslash" unicode="&#xd8;" horiz-adv-x="648" 
d="M50 -40l-60 56l648 682l60 -56zM294 -12q-73 0 -126 33.5t-81.5 95.5t-28.5 146q0 65 16.5 124.5t46 110.5t70 88.5t89.5 58.5t104 21q74 0 127 -33.5t81 -95t28 -146.5q0 -65 -16 -124.5t-46 -110.5t-70.5 -88.5t-89.5 -58.5t-104 -21zM300 81q35 0 66.5 16.5t57.5 46
t45.5 67.5t30 82t10.5 90q0 58 -14.5 100.5t-44 66t-73.5 23.5q-35 0 -66.5 -16.5t-57.5 -46t-45 -67.5t-29.5 -82t-10.5 -90q0 -58 14.5 -100.5t43.5 -66t73 -23.5z" />
    <glyph glyph-name="Oslashacute" unicode="&#x1fe;" horiz-adv-x="647" 
d="M50 -40l-60 56l648 682l60 -56zM294 -12q-73 0 -126 33.5t-81.5 95.5t-28.5 146q0 65 16.5 124.5t46 110.5t70 88.5t89.5 58.5t104 21q74 0 127 -33.5t81 -95t28 -146.5q0 -65 -16 -124.5t-46 -110.5t-70.5 -88.5t-89.5 -58.5t-104 -21zM300 81q35 0 66.5 16.5t57.5 46
t45.5 67.5t30 82t10.5 90q0 58 -14.5 100.5t-44 66t-73.5 23.5q-35 0 -66.5 -16.5t-57.5 -46t-45 -67.5t-29.5 -82t-10.5 -90q0 -58 14.5 -100.5t43.5 -66t73 -23.5zM318 704l148 144h133l7 -12l-196 -132h-92z" />
    <glyph glyph-name="OE" unicode="&#x152;" horiz-adv-x="825" 
d="M342 0q-91 0 -154.5 29.5t-96.5 86.5t-33 140q0 93 25.5 167t72.5 125t113 78.5t146 27.5h431l-18 -91h-252l-34 -176h211l-18 -91h-211l-42 -205h261l-18 -91h-383zM345 87h30l95 480h-53q-55 0 -100.5 -20t-78.5 -59.5t-51 -96t-18 -128.5q0 -58 20.5 -97t60 -59
t95.5 -20z" />
    <glyph glyph-name="uni0245" unicode="&#x245;" horiz-adv-x="508" 
d="M-58 0l340 654h130l57 -654h-112l-22 342q-3 53 -6 106.5t-5 106.5h-4q-24 -53 -48 -106.5t-49 -106.5l-163 -342h-118z" />
    <glyph glyph-name="uni0186" unicode="&#x186;" horiz-adv-x="551" 
d="M202 -12q-58 0 -108 22.5t-80 66.5l53 67q26 -30 60.5 -47t80.5 -17t84.5 23.5t67.5 65.5t45.5 98t16.5 120q0 88 -33 137.5t-99 49.5q-36 0 -71.5 -13.5t-70.5 -40.5l-37 74q34 32 86 52t107 20q67 0 118.5 -32t80.5 -93.5t29 -149.5t-24.5 -161.5t-69 -128t-105 -84
t-131.5 -29.5z" />
    <glyph glyph-name="uniA74E" unicode="&#xa74e;" horiz-adv-x="1016" 
d="M249 -12q-85 0 -138 62t-53 173q0 101 28 183t75 140t104 89t116 31q45 0 84 -18.5t65.5 -62t34.5 -118.5h-26q39 75 81.5 118.5t87 62t91.5 18.5q86 0 138.5 -61.5t52.5 -173.5q0 -101 -28 -183t-75 -140t-104 -89t-116 -31q-45 0 -84 18.5t-65.5 62t-34.5 118.5h26
q-39 -75 -81 -118.5t-87 -62t-92 -18.5zM279 81q36 0 72.5 26t66.5 72t48.5 107.5t18.5 133.5t-28.5 112.5t-81.5 40.5q-36 0 -72.5 -25.5t-67 -71t-48.5 -106.5t-18 -132q0 -74 28.5 -115.5t81.5 -41.5zM673 81q36 0 72.5 25.5t67 71t48.5 106.5t18 132q0 74 -28.5 115.5
t-81.5 41.5q-36 0 -72.5 -26t-66.5 -72t-48.5 -107.5t-18.5 -133.5t28.5 -112.5t81.5 -40.5z" />
    <glyph glyph-name="uni0222" unicode="&#x222;" horiz-adv-x="654" 
d="M295 -12q-72 0 -128 22t-87.5 65t-31.5 105q0 47 19 84.5t52 65t74 45.5t85 25l-5 -28q-64 19 -91.5 60t-27.5 98q0 20 1 43.5t8 46.5l9 34h108l-11 -47q-5 -20 -6 -37t-1 -34q0 -57 28 -84.5t90 -27.5q35 0 62 13t47.5 48t33.5 98l15 71h106l-17 -74q-15 -64 -37 -106
t-54 -66.5t-77 -36.5l4 28q69 -21 107.5 -64t38.5 -108q0 -68 -36.5 -122t-106.5 -85.5t-171 -31.5zM307 81q56 0 99 19t67.5 51t24.5 71t-18.5 66t-51.5 41t-76 14q-58 0 -101.5 -20t-68 -53.5t-24.5 -75.5q0 -34 19 -59.5t52.5 -39.5t77.5 -14z" />
    <glyph glyph-name="Ohorn" unicode="&#x1a0;" horiz-adv-x="647" 
d="M548 595l-52 42q47 4 71.5 30.5t24.5 62.5q0 10 -2.5 21.5t-7.5 23.5l83 27q14 -34 14 -65q0 -38 -16.5 -67.5t-45.5 -48t-69 -26.5zM294 -12q-73 0 -126 33.5t-81.5 95t-28.5 146.5q0 65 16 125t46 110.5t70.5 88t89.5 58.5t104 21q74 0 127 -33.5t81 -95t28 -146.5
q0 -65 -16 -125t-46 -110.5t-70.5 -88t-89.5 -58.5t-104 -21zM300 81q35 0 66.5 16.5t57.5 45.5t45 68t30 82.5t11 89.5q0 58 -14.5 100.5t-44 66t-73.5 23.5q-34 0 -65.5 -16.5t-58 -45.5t-45.5 -68t-29.5 -82.5t-10.5 -89.5q0 -58 14.5 -100.5t43.5 -66t73 -23.5z" />
    <glyph glyph-name="uni1EDA" unicode="&#x1eda;" horiz-adv-x="647" 
d="M548 595l-52 42q47 4 71.5 30.5t24.5 62.5q0 10 -2.5 21.5t-7.5 23.5l83 27q14 -34 14 -65q0 -38 -16.5 -67.5t-45.5 -48t-69 -26.5zM294 -12q-73 0 -126 33.5t-81.5 95t-28.5 146.5q0 65 16 125t46 110.5t70.5 88t89.5 58.5t104 21q74 0 127 -33.5t81 -95t28 -146.5
q0 -65 -16 -125t-46 -110.5t-70.5 -88t-89.5 -58.5t-104 -21zM300 81q35 0 66.5 16.5t57.5 45.5t45 68t30 82.5t11 89.5q0 58 -14.5 100.5t-44 66t-73.5 23.5q-34 0 -65.5 -16.5t-58 -45.5t-45.5 -68t-29.5 -82.5t-10.5 -89.5q0 -58 14.5 -100.5t43.5 -66t73 -23.5zM317 704
l148 144h133l7 -12l-196 -132h-92z" />
    <glyph glyph-name="uni1EDC" unicode="&#x1edc;" horiz-adv-x="647" 
d="M548 595l-52 42q47 4 71.5 30.5t24.5 62.5q0 10 -2.5 21.5t-7.5 23.5l83 27q14 -34 14 -65q0 -38 -16.5 -67.5t-45.5 -48t-69 -26.5zM294 -12q-73 0 -126 33.5t-81.5 95t-28.5 146.5q0 65 16 125t46 110.5t70.5 88t89.5 58.5t104 21q74 0 127 -33.5t81 -95t28 -146.5
q0 -65 -16 -125t-46 -110.5t-70.5 -88t-89.5 -58.5t-104 -21zM300 81q35 0 66.5 16.5t57.5 45.5t45 68t30 82.5t11 89.5q0 58 -14.5 100.5t-44 66t-73.5 23.5q-34 0 -65.5 -16.5t-58 -45.5t-45.5 -68t-29.5 -82.5t-10.5 -89.5q0 -58 14.5 -100.5t43.5 -66t73 -23.5zM395 704
l-146 132l7 12h125l104 -144h-90z" />
    <glyph glyph-name="uni1EDE" unicode="&#x1ede;" horiz-adv-x="647" 
d="M548 595l-52 42q47 4 71.5 30.5t24.5 62.5q0 10 -2.5 21.5t-7.5 23.5l83 27q14 -34 14 -65q0 -38 -16.5 -67.5t-45.5 -48t-69 -26.5zM294 -12q-73 0 -126 33.5t-81.5 95t-28.5 146.5q0 65 16 125t46 110.5t70.5 88t89.5 58.5t104 21q74 0 127 -33.5t81 -95t28 -146.5
q0 -65 -16 -125t-46 -110.5t-70.5 -88t-89.5 -58.5t-104 -21zM300 81q35 0 66.5 16.5t57.5 45.5t45 68t30 82.5t11 89.5q0 58 -14.5 100.5t-44 66t-73.5 23.5q-34 0 -65.5 -16.5t-58 -45.5t-45.5 -68t-29.5 -82.5t-10.5 -89.5q0 -58 14.5 -100.5t43.5 -66t73 -23.5zM364 700
l-4 48q59 12 59 45q0 16 -17.5 25t-54.5 10l18 63q49 0 80.5 -10.5t46.5 -27.5t15 -39q0 -46 -37.5 -76t-105.5 -38z" />
    <glyph glyph-name="uni1EE0" unicode="&#x1ee0;" horiz-adv-x="647" 
d="M548 595l-52 42q47 4 71.5 30.5t24.5 62.5q0 10 -2.5 21.5t-7.5 23.5l83 27q14 -34 14 -65q0 -38 -16.5 -67.5t-45.5 -48t-69 -26.5zM294 -12q-73 0 -126 33.5t-81.5 95t-28.5 146.5q0 65 16 125t46 110.5t70.5 88t89.5 58.5t104 21q74 0 127 -33.5t81 -95t28 -146.5
q0 -65 -16 -125t-46 -110.5t-70.5 -88t-89.5 -58.5t-104 -21zM300 81q35 0 66.5 16.5t57.5 45.5t45 68t30 82.5t11 89.5q0 58 -14.5 100.5t-44 66t-73.5 23.5q-34 0 -65.5 -16.5t-58 -45.5t-45.5 -68t-29.5 -82.5t-10.5 -89.5q0 -58 14.5 -100.5t43.5 -66t73 -23.5zM445 700
q-26 0 -44.5 10t-32 23t-26 22.5t-26.5 9.5q-17 0 -30.5 -13.5t-22.5 -44.5l-74 6q16 68 52.5 100.5t85.5 32.5q26 0 44 -9.5t31.5 -22.5t26 -22.5t27.5 -9.5q16 0 30 14t23 44l73 -6q-14 -67 -51 -100.5t-86 -33.5z" />
    <glyph glyph-name="uni1EE2" unicode="&#x1ee2;" horiz-adv-x="647" 
d="M548 595l-52 42q47 4 71.5 30.5t24.5 62.5q0 10 -2.5 21.5t-7.5 23.5l83 27q14 -34 14 -65q0 -38 -16.5 -67.5t-45.5 -48t-69 -26.5zM294 -12q-73 0 -126 33.5t-81.5 95t-28.5 146.5q0 65 16 125t46 110.5t70.5 88t89.5 58.5t104 21q74 0 127 -33.5t81 -95t28 -146.5
q0 -65 -16 -125t-46 -110.5t-70.5 -88t-89.5 -58.5t-104 -21zM300 81q35 0 66.5 16.5t57.5 45.5t45 68t30 82.5t11 89.5q0 58 -14.5 100.5t-44 66t-73.5 23.5q-34 0 -65.5 -16.5t-58 -45.5t-45.5 -68t-29.5 -82.5t-10.5 -89.5q0 -58 14.5 -100.5t43.5 -66t73 -23.5z
M245 -225q-23 0 -42.5 14.5t-19.5 41.5q0 29 21.5 49.5t50.5 20.5q24 0 43 -14.5t19 -41.5q0 -30 -21 -50t-51 -20z" />
    <glyph glyph-name="uni1E56" unicode="&#x1e56;" horiz-adv-x="567" 
d="M32 0l130 654h196q63 0 111.5 -17t76 -53.5t27.5 -96.5q0 -64 -22.5 -110t-62.5 -75.5t-93.5 -43t-115.5 -13.5h-91l-48 -245h-108zM206 331h82q87 0 132.5 35.5t45.5 105.5q0 51 -33 73.5t-95 22.5h-86zM396 709q-23 0 -42 14.5t-19 41.5q0 29 21 49.5t51 20.5
q24 0 42.5 -14.5t18.5 -42.5q0 -29 -21 -49t-51 -20z" />
    <glyph glyph-name="Racute" unicode="&#x154;" horiz-adv-x="576" 
d="M32 0l130 654h193q62 0 110.5 -15.5t76 -51t27.5 -93.5q0 -59 -22.5 -103.5t-61.5 -74t-89 -44t-106 -14.5h-99l-51 -258h-108zM209 344h83q84 0 127 37t43 98q0 47 -32.5 68t-95.5 21h-82zM383 0l-104 282l80 67l139 -349h-115zM288 704l148 144h133l7 -12l-196 -132
h-92z" />
    <glyph glyph-name="Rcaron" unicode="&#x158;" horiz-adv-x="576" 
d="M32 0l130 654h193q62 0 110.5 -15.5t76 -51t27.5 -93.5q0 -59 -22.5 -103.5t-61.5 -74t-89 -44t-106 -14.5h-99l-51 -258h-108zM209 344h83q84 0 127 37t43 98q0 47 -32.5 68t-95.5 21h-82zM383 0l-104 282l80 67l139 -349h-115zM332 705l-102 144h90l67 -71h4l103 71h92
l-154 -144h-100z" />
    <glyph glyph-name="uni1E58" unicode="&#x1e58;" horiz-adv-x="576" 
d="M32 0l130 654h193q62 0 110.5 -15.5t76 -51t27.5 -93.5q0 -59 -22.5 -103.5t-61.5 -74t-89 -44t-106 -14.5h-99l-51 -258h-108zM209 344h83q84 0 127 37t43 98q0 47 -32.5 68t-95.5 21h-82zM383 0l-104 282l80 67l139 -349h-115zM392 709q-23 0 -42 14.5t-19 41.5
q0 29 21 49.5t51 20.5q24 0 42.5 -14.5t18.5 -42.5q0 -29 -21 -49t-51 -20z" />
    <glyph glyph-name="uni0156" unicode="&#x156;" horiz-adv-x="576" 
d="M32 0l130 654h193q62 0 110.5 -15.5t76 -51t27.5 -93.5q0 -59 -22.5 -103.5t-61.5 -74t-89 -44t-106 -14.5h-99l-51 -258h-108zM209 344h83q84 0 127 37t43 98q0 47 -32.5 68t-95.5 21h-82zM383 0l-104 282l80 67l139 -349h-115zM137 -233v49q59 3 85.5 16t26.5 32
q0 15 -13.5 24.5t-45.5 11.5l30 45q48 -3 73 -12t34 -23.5t9 -33.5q0 -36 -25.5 -59.5t-70.5 -35.5t-103 -14z" />
    <glyph glyph-name="uni1E5A" unicode="&#x1e5a;" horiz-adv-x="576" 
d="M32 0l130 654h193q62 0 110.5 -15.5t76 -51t27.5 -93.5q0 -59 -22.5 -103.5t-61.5 -74t-89 -44t-106 -14.5h-99l-51 -258h-108zM209 344h83q84 0 127 37t43 98q0 47 -32.5 68t-95.5 21h-82zM383 0l-104 282l80 67l139 -349h-115zM234 -228q-23 0 -42.5 14.5t-19.5 41.5
q0 29 21.5 49.5t50.5 20.5q24 0 43 -14.5t19 -41.5q0 -30 -21 -50t-51 -20z" />
    <glyph glyph-name="uni1E5C" unicode="&#x1e5c;" horiz-adv-x="576" 
d="M32 0l130 654h193q62 0 110.5 -15.5t76 -51t27.5 -93.5q0 -59 -22.5 -103.5t-61.5 -74t-89 -44t-106 -14.5h-99l-51 -258h-108zM209 344h83q84 0 127 37t43 98q0 47 -32.5 68t-95.5 21h-82zM383 0l-104 282l80 67l139 -349h-115zM252 729l14 71h272l-14 -71h-272z
M234 -228q-23 0 -42.5 14.5t-19.5 41.5q0 29 21.5 49.5t50.5 20.5q24 0 43 -14.5t19 -41.5q0 -30 -21 -50t-51 -20z" />
    <glyph glyph-name="uni1E5E" unicode="&#x1e5e;" horiz-adv-x="576" 
d="M32 0l130 654h193q62 0 110.5 -15.5t76 -51t27.5 -93.5q0 -59 -22.5 -103.5t-61.5 -74t-89 -44t-106 -14.5h-99l-51 -258h-108zM209 344h83q84 0 127 37t43 98q0 47 -32.5 68t-95.5 21h-82zM383 0l-104 282l80 67l139 -349h-115zM104 -166l14 70h269l-13 -70h-270z" />
    <glyph glyph-name="Sacute" unicode="&#x15a;" horiz-adv-x="518" 
d="M234 -12q-62 0 -120.5 29t-100.5 89l66 61q29 -40 72 -63t95 -23q32 0 58 11.5t41 33t15 50.5q0 34 -21 55.5t-58 43.5l-66 40q-44 27 -73 64.5t-29 94.5q0 52 28.5 95.5t77 70t108.5 26.5q58 0 108 -26.5t83 -69.5l-63 -63q-25 29 -58 47.5t-73 18.5q-32 0 -54.5 -12.5
t-34 -32.5t-11.5 -42q0 -32 22.5 -52t60.5 -44l69 -42q48 -28 72 -63t24 -91q0 -58 -30 -104.5t-83.5 -74t-124.5 -27.5zM260 703l148 144h133l7 -12l-196 -132h-92z" />
    <glyph glyph-name="Scircumflex" unicode="&#x15c;" horiz-adv-x="518" 
d="M234 -12q-62 0 -120.5 29t-100.5 89l66 61q29 -40 72 -63t95 -23q32 0 58 11.5t41 33t15 50.5q0 34 -21 55.5t-58 43.5l-66 40q-44 27 -73 64.5t-29 94.5q0 52 28.5 95.5t77 70t108.5 26.5q58 0 108 -26.5t83 -69.5l-63 -63q-25 29 -58 47.5t-73 18.5q-32 0 -54.5 -12.5
t-34 -32.5t-11.5 -42q0 -32 22.5 -52t60.5 -44l69 -42q48 -28 72 -63t24 -91q0 -58 -30 -104.5t-83.5 -74t-124.5 -27.5zM178 704l154 144h98l104 -144h-90l-68 71h-4l-102 -71h-92z" />
    <glyph glyph-name="uni1E60" unicode="&#x1e60;" horiz-adv-x="518" 
d="M234 -12q-62 0 -120.5 29t-100.5 89l66 61q29 -40 72 -63t95 -23q32 0 58 11.5t41 33t15 50.5q0 34 -21 55.5t-58 43.5l-66 40q-44 27 -73 64.5t-29 94.5q0 52 28.5 95.5t77 70t108.5 26.5q58 0 108 -26.5t83 -69.5l-63 -63q-25 29 -58 47.5t-73 18.5q-32 0 -54.5 -12.5
t-34 -32.5t-11.5 -42q0 -32 22.5 -52t60.5 -44l69 -42q48 -28 72 -63t24 -91q0 -58 -30 -104.5t-83.5 -74t-124.5 -27.5zM363 708q-23 0 -42 14.5t-19 41.5q0 29 21 49.5t51 20.5q24 0 42.5 -14.5t18.5 -42.5q0 -29 -21 -49t-51 -20z" />
    <glyph glyph-name="Scaron" unicode="&#x160;" horiz-adv-x="518" 
d="M234 -12q-62 0 -120.5 29t-100.5 89l66 61q29 -40 72 -63t95 -23q32 0 58 11.5t41 33t15 50.5q0 34 -21 55.5t-58 43.5l-66 40q-44 27 -73 64.5t-29 94.5q0 52 28.5 95.5t77 70t108.5 26.5q58 0 108 -26.5t83 -69.5l-63 -63q-25 29 -58 47.5t-73 18.5q-32 0 -54.5 -12.5
t-34 -32.5t-11.5 -42q0 -32 22.5 -52t60.5 -44l69 -42q48 -28 72 -63t24 -91q0 -58 -30 -104.5t-83.5 -74t-124.5 -27.5zM304 704l-102 144h90l67 -71h4l103 71h92l-154 -144h-100z" />
    <glyph glyph-name="uni015E" unicode="&#x15e;" horiz-adv-x="518" 
d="M234 -12q-62 0 -120.5 29t-100.5 89l66 61q29 -40 72 -63t95 -23q32 0 58 11.5t41 33t15 50.5q0 34 -21 55.5t-58 43.5l-66 40q-44 27 -73 64.5t-29 94.5q0 52 28.5 95.5t77 70t108.5 26.5q58 0 108 -26.5t83 -69.5l-63 -63q-25 29 -58 47.5t-73 18.5q-32 0 -54.5 -12.5
t-34 -32.5t-11.5 -42q0 -32 22.5 -52t60.5 -44l69 -42q48 -28 72 -63t24 -91q0 -58 -30 -104.5t-83.5 -74t-124.5 -27.5zM91 -233l-1 49q59 3 85.5 15t29.5 35q1 17 -14 27t-55 15l63 95h70l-41 -66q37 -9 51 -25t11 -43q-6 -50 -58.5 -74.5t-140.5 -27.5z" />
    <glyph glyph-name="uni0218" unicode="&#x218;" horiz-adv-x="518" 
d="M234 -12q-62 0 -120.5 29t-100.5 89l66 61q29 -40 72 -63t95 -23q32 0 58 11.5t41 33t15 50.5q0 34 -21 55.5t-58 43.5l-66 40q-44 27 -73 64.5t-29 94.5q0 52 28.5 95.5t77 70t108.5 26.5q58 0 108 -26.5t83 -69.5l-63 -63q-25 29 -58 47.5t-73 18.5q-32 0 -54.5 -12.5
t-34 -32.5t-11.5 -42q0 -32 22.5 -52t60.5 -44l69 -42q48 -28 72 -63t24 -91q0 -58 -30 -104.5t-83.5 -74t-124.5 -27.5zM89 -233v49q59 3 85.5 16t26.5 32q0 15 -13.5 24.5t-45.5 11.5l30 45q48 -3 73 -12t34 -23.5t9 -33.5q0 -36 -25.5 -59.5t-70.5 -35.5t-103 -14z" />
    <glyph glyph-name="uni1E62" unicode="&#x1e62;" horiz-adv-x="518" 
d="M234 -12q-62 0 -120.5 29t-100.5 89l66 61q29 -40 72 -63t95 -23q32 0 58 11.5t41 33t15 50.5q0 34 -21 55.5t-58 43.5l-66 40q-44 27 -73 64.5t-29 94.5q0 52 28.5 95.5t77 70t108.5 26.5q58 0 108 -26.5t83 -69.5l-63 -63q-25 29 -58 47.5t-73 18.5q-32 0 -54.5 -12.5
t-34 -32.5t-11.5 -42q0 -32 22.5 -52t60.5 -44l69 -42q48 -28 72 -63t24 -91q0 -58 -30 -104.5t-83.5 -74t-124.5 -27.5zM186 -228q-23 0 -42.5 14.5t-19.5 41.5q0 29 21.5 49.5t50.5 20.5q24 0 43 -14.5t19 -41.5q0 -30 -21 -50t-51 -20z" />
    <glyph glyph-name="uni1E66" unicode="&#x1e66;" horiz-adv-x="518" 
d="M234 -12q-62 0 -120.5 29t-100.5 89l66 61q29 -40 72 -63t95 -23q32 0 58 11.5t41 33t15 50.5q0 34 -21 55.5t-58 43.5l-66 40q-44 27 -73 64.5t-29 94.5q0 52 28.5 95.5t77 70t108.5 26.5q58 0 108 -26.5t83 -69.5l-63 -63q-25 29 -58 47.5t-73 18.5q-32 0 -54.5 -12.5
t-34 -32.5t-11.5 -42q0 -32 22.5 -52t60.5 -44l69 -42q48 -28 72 -63t24 -91q0 -58 -30 -104.5t-83.5 -74t-124.5 -27.5zM380 838q-22 0 -39 13t-17 38q0 27 19.5 46t46.5 19q22 0 39 -13.5t17 -37.5q0 -28 -19.5 -46.5t-46.5 -18.5zM304 704l-95 124h77l70 -69h4l109 69h77
l-142 -124h-100z" />
    <glyph glyph-name="uni1E9E" unicode="&#x1e9e;" horiz-adv-x="652" 
d="M408 -12q-51 0 -96.5 19.5t-79.5 63.5l55 61q19 -27 47 -42t65 -15q27 0 49.5 13.5t36 36.5t13.5 51q0 24 -14.5 48t-47 44t-85.5 34l6 65l149 134q-14 43 -45.5 63.5t-76.5 20.5q-60 0 -103 -45t-61 -132l-80 -408h-108l86 433q14 68 48 121.5t89.5 85.5t135.5 32
q58 0 105 -19.5t77.5 -60t38.5 -105.5l-149 -131q68 -25 107 -69t39 -101q0 -56 -25.5 -100.5t-71 -71t-104.5 -26.5z" />
    <glyph glyph-name="Tcaron" unicode="&#x164;" horiz-adv-x="521" 
d="M157 0l112 562h-181l18 92h470l-18 -92h-181l-112 -562h-108zM298 705l-102 144h90l67 -71h4l103 71h92l-154 -144h-100z" />
    <glyph glyph-name="uni1E6A" unicode="&#x1e6a;" horiz-adv-x="521" 
d="M157 0l112 562h-181l18 92h470l-18 -92h-181l-112 -562h-108zM358 709q-23 0 -42 14.5t-19 41.5q0 29 21 49.5t51 20.5q24 0 42.5 -14.5t18.5 -42.5q0 -29 -21 -49t-51 -20z" />
    <glyph glyph-name="uni0162" unicode="&#x162;" horiz-adv-x="521" 
d="M157 0l112 562h-181l18 92h470l-18 -92h-181l-112 -562h-108zM74 -233l-1 49q59 3 85.5 15t29.5 35q1 17 -14 27t-55 15l63 95h70l-41 -66q37 -9 51 -25t11 -43q-6 -50 -58.5 -74.5t-140.5 -27.5z" />
    <glyph glyph-name="uni021A" unicode="&#x21a;" horiz-adv-x="521" 
d="M157 0l112 562h-181l18 92h470l-18 -92h-181l-112 -562h-108zM79 -230v49q59 3 85.5 16t26.5 32q0 15 -13.5 24.5t-45.5 11.5l30 45q48 -3 73 -12t34 -23.5t9 -33.5q0 -36 -25.5 -59.5t-70.5 -35.5t-103 -14z" />
    <glyph glyph-name="uni1E6C" unicode="&#x1e6c;" horiz-adv-x="521" 
d="M157 0l112 562h-181l18 92h470l-18 -92h-181l-112 -562h-108zM176 -225q-23 0 -42.5 14.5t-19.5 41.5q0 29 21.5 49.5t50.5 20.5q24 0 43 -14.5t19 -41.5q0 -30 -21 -50t-51 -20z" />
    <glyph glyph-name="uni1E6E" unicode="&#x1e6e;" horiz-adv-x="521" 
d="M157 0l112 562h-181l18 92h470l-18 -92h-181l-112 -562h-108zM46 -163l14 70h269l-13 -70h-270z" />
    <glyph glyph-name="uni1E97.c" horiz-adv-x="521" 
d="M157 0l112 562h-181l18 92h470l-18 -92h-181l-112 -562h-108zM249 708q-21 0 -35.5 13t-14.5 37q0 26 18.5 45t44.5 19q22 0 36 -13t14 -37q0 -27 -18 -45.5t-45 -18.5zM456 708q-21 0 -35.5 13t-14.5 37q0 26 18.5 45t45.5 19q21 0 35.5 -13t14.5 -37q0 -27 -18.5 -45.5
t-45.5 -18.5z" />
    <glyph glyph-name="Tbar" unicode="&#x166;" horiz-adv-x="521" 
d="M92 282l16 76l92 6h258l-16 -82h-350zM157 0l112 562h-181l18 92h470l-18 -92h-181l-112 -562h-108z" />
    <glyph glyph-name="uni023E" unicode="&#x23e;" horiz-adv-x="521" 
d="M8 -38l-30 26l624 714l30 -26zM157 0l112 562h-181l18 92h470l-18 -92h-181l-112 -562h-108z" />
    <glyph glyph-name="Ugrave" unicode="&#xd9;" horiz-adv-x="630" 
d="M297 -12q-108 0 -164 54t-56 163q0 22 4 48t8 51l70 350h108l-73 -366q-4 -21 -6.5 -40t-2.5 -37q0 -63 27.5 -96.5t88.5 -33.5q35 0 63 16t49 56t35 111l78 390h106l-79 -390q-20 -102 -55.5 -162.5t-85.5 -87t-115 -26.5zM388 704l-146 132l7 12h125l104 -144h-90z" />
    <glyph glyph-name="Uacute" unicode="&#xda;" horiz-adv-x="630" 
d="M297 -12q-108 0 -164 54t-56 163q0 22 4 48t8 51l70 350h108l-73 -366q-4 -21 -6.5 -40t-2.5 -37q0 -63 27.5 -96.5t88.5 -33.5q35 0 63 16t49 56t35 111l78 390h106l-79 -390q-20 -102 -55.5 -162.5t-85.5 -87t-115 -26.5zM310 704l148 144h133l7 -12l-196 -132h-92z
" />
    <glyph glyph-name="Ucircumflex" unicode="&#xdb;" horiz-adv-x="630" 
d="M297 -12q-108 0 -164 54t-56 163q0 22 4 48t8 51l70 350h108l-73 -366q-4 -21 -6.5 -40t-2.5 -37q0 -63 27.5 -96.5t88.5 -33.5q35 0 63 16t49 56t35 111l78 390h106l-79 -390q-20 -102 -55.5 -162.5t-85.5 -87t-115 -26.5zM228 705l154 144h98l104 -144h-90l-68 71h-4
l-102 -71h-92z" />
    <glyph glyph-name="Utilde" unicode="&#x168;" horiz-adv-x="630" 
d="M297 -12q-108 0 -164 54t-56 163q0 22 4 48t8 51l70 350h108l-73 -366q-4 -21 -6.5 -40t-2.5 -37q0 -63 27.5 -96.5t88.5 -33.5q35 0 63 16t49 56t35 111l78 390h106l-79 -390q-20 -102 -55.5 -162.5t-85.5 -87t-115 -26.5zM478 700q-26 0 -44.5 10t-32 23t-26 22.5
t-26.5 9.5q-17 0 -30.5 -13.5t-22.5 -44.5l-74 6q16 68 52.5 100.5t85.5 32.5q26 0 44 -9.5t31.5 -22.5t26 -22.5t27.5 -9.5q16 0 30 14t23 44l73 -6q-14 -67 -51 -100.5t-86 -33.5z" />
    <glyph glyph-name="Udieresis" unicode="&#xdc;" horiz-adv-x="630" 
d="M297 -12q-108 0 -164 54t-56 163q0 22 4 48t8 51l70 350h108l-73 -366q-4 -21 -6.5 -40t-2.5 -37q0 -63 27.5 -96.5t88.5 -33.5q35 0 63 16t49 56t35 111l78 390h106l-79 -390q-20 -102 -55.5 -162.5t-85.5 -87t-115 -26.5zM305 708q-21 0 -35.5 13t-14.5 37
q0 26 18.5 45t44.5 19q22 0 36 -13t14 -37q0 -27 -18 -45.5t-45 -18.5zM512 708q-21 0 -35.5 13t-14.5 37q0 26 18.5 45t45.5 19q21 0 35.5 -13t14.5 -37q0 -27 -18.5 -45.5t-45.5 -18.5z" />
    <glyph glyph-name="Umacron" unicode="&#x16a;" horiz-adv-x="630" 
d="M297 -12q-108 0 -164 54t-56 163q0 22 4 48t8 51l70 350h108l-73 -366q-4 -21 -6.5 -40t-2.5 -37q0 -63 27.5 -96.5t88.5 -33.5q35 0 63 16t49 56t35 111l78 390h106l-79 -390q-20 -102 -55.5 -162.5t-85.5 -87t-115 -26.5zM274 729l14 71h272l-14 -71h-272z" />
    <glyph glyph-name="Ubreve" unicode="&#x16c;" horiz-adv-x="630" 
d="M297 -12q-108 0 -164 54t-56 163q0 22 4 48t8 51l70 350h108l-73 -366q-4 -21 -6.5 -40t-2.5 -37q0 -63 27.5 -96.5t88.5 -33.5q35 0 63 16t49 56t35 111l78 390h106l-79 -390q-20 -102 -55.5 -162.5t-85.5 -87t-115 -26.5zM405 701q-50 0 -78.5 19t-40.5 49t-12 65
l67 11q2 -35 20 -55t57 -20q37 0 63 21t39 54l64 -11q-11 -40 -35 -69.5t-60 -46.5t-84 -17z" />
    <glyph glyph-name="Uring" unicode="&#x16e;" horiz-adv-x="630" 
d="M297 -12q-108 0 -164 54t-56 163q0 22 4 48t8 51l70 350h108l-73 -366q-4 -21 -6.5 -40t-2.5 -37q0 -63 27.5 -96.5t88.5 -33.5q35 0 63 16t49 56t35 111l78 390h106l-79 -390q-20 -102 -55.5 -162.5t-85.5 -87t-115 -26.5zM412 698q-46 0 -77.5 20.5t-31.5 63.5t37 73
t91 30q46 0 77.5 -19.5t31.5 -64.5q0 -42 -36.5 -72.5t-91.5 -30.5zM414 742q23 0 39.5 17.5t16.5 39.5q0 21 -11.5 32t-29.5 11q-22 0 -38.5 -17t-16.5 -41q0 -19 11 -30.5t29 -11.5z" />
    <glyph glyph-name="Uhungarumlaut" unicode="&#x170;" horiz-adv-x="630" 
d="M297 -12q-108 0 -164 54t-56 163q0 22 4 48t8 51l70 350h108l-73 -366q-4 -21 -6.5 -40t-2.5 -37q0 -63 27.5 -96.5t88.5 -33.5q35 0 63 16t49 56t35 111l78 390h106l-79 -390q-20 -102 -55.5 -162.5t-85.5 -87t-115 -26.5zM264 704l123 144h102l7 -12l-158 -132h-74z
M456 704l123 144h102l7 -12l-158 -132h-74z" />
    <glyph glyph-name="uni01D3" unicode="&#x1d3;" horiz-adv-x="630" 
d="M297 -12q-108 0 -164 54t-56 163q0 22 4 48t8 51l70 350h108l-73 -366q-4 -21 -6.5 -40t-2.5 -37q0 -63 27.5 -96.5t88.5 -33.5q35 0 63 16t49 56t35 111l78 390h106l-79 -390q-20 -102 -55.5 -162.5t-85.5 -87t-115 -26.5zM354 705l-102 144h90l67 -71h4l103 71h92
l-154 -144h-100z" />
    <glyph glyph-name="Uogonek" unicode="&#x172;" horiz-adv-x="630" 
d="M229 -222q-40 0 -67.5 20t-27.5 58q0 29 17 56.5t43 50.5t54 37l49 -12q-108 0 -164 54.5t-56 162.5q0 22 4 48t8 51l70 350h108l-73 -366q-4 -21 -6.5 -40t-2.5 -37q0 -62 27.5 -96t88.5 -34q35 0 63 16t49 56t35 111l78 390h106l-79 -390q-26 -126 -74 -190t-133 -83
q-39 -8 -64 -25t-37 -36.5t-12 -36.5q0 -18 11.5 -27.5t27.5 -9.5q10 0 19 3t21 10l22 -57q-21 -16 -48.5 -25t-56.5 -9z" />
    <glyph glyph-name="uni01D5" unicode="&#x1d5;" horiz-adv-x="630" 
d="M297 -12q-108 0 -164 54t-56 163q0 22 4 48t8 51l70 350h108l-73 -366q-4 -21 -6.5 -40t-2.5 -37q0 -63 27.5 -96.5t88.5 -33.5q35 0 63 16t49 56t35 111l78 390h106l-79 -390q-20 -102 -55.5 -162.5t-85.5 -87t-115 -26.5zM303 708q-20 0 -33.5 12t-13.5 33q0 25 17 44
t42 19q20 0 33 -12.5t13 -34.5q0 -23 -17 -42t-41 -19zM516 708q-20 0 -33 12t-13 33q0 25 16.5 44t41.5 19q20 0 33 -12.5t13 -34.5q0 -23 -16.5 -42t-41.5 -19zM302 871l11 55h273l-12 -55h-272z" />
    <glyph glyph-name="uni01D7" unicode="&#x1d7;" horiz-adv-x="630" 
d="M297 -12q-108 0 -164 54t-56 163q0 22 4 48t8 51l70 350h108l-73 -366q-4 -21 -6.5 -40t-2.5 -37q0 -63 27.5 -96.5t88.5 -33.5q35 0 63 16t49 56t35 111l78 390h106l-79 -390q-20 -102 -55.5 -162.5t-85.5 -87t-115 -26.5zM303 708q-20 0 -33.5 12t-13.5 33q0 25 17 44
t42 19q20 0 33 -12.5t13 -34.5q0 -23 -17 -42t-41 -19zM516 708q-20 0 -33 12t-13 33q0 25 16.5 44t41.5 19q20 0 33 -12.5t13 -34.5q0 -23 -16.5 -42t-41.5 -19zM372 844l104 124h99l7 -12l-140 -112h-70z" />
    <glyph glyph-name="uni01D9" unicode="&#x1d9;" horiz-adv-x="630" 
d="M297 -12q-108 0 -164 54t-56 163q0 22 4 48t8 51l70 350h108l-73 -366q-4 -21 -6.5 -40t-2.5 -37q0 -63 27.5 -96.5t88.5 -33.5q35 0 63 16t49 56t35 111l78 390h106l-79 -390q-20 -102 -55.5 -162.5t-85.5 -87t-115 -26.5zM304 708q-20 0 -33 12t-13 33q0 25 16.5 44
t41.5 19q20 0 33 -12.5t13 -34.5q0 -23 -16.5 -42t-41.5 -19zM517 708q-20 0 -33 12t-13 33q0 25 17 44t41 19q21 0 34 -12.5t13 -34.5q0 -23 -17 -42t-42 -19zM386 846l-96 110h82l61 -50h4l89 50h84l-135 -110h-89z" />
    <glyph glyph-name="uni01DB" unicode="&#x1db;" horiz-adv-x="630" 
d="M297 -12q-108 0 -164 54t-56 163q0 22 4 48t8 51l70 350h108l-73 -366q-4 -21 -6.5 -40t-2.5 -37q0 -63 27.5 -96.5t88.5 -33.5q35 0 63 16t49 56t35 111l78 390h106l-79 -390q-20 -102 -55.5 -162.5t-85.5 -87t-115 -26.5zM303 708q-20 0 -33.5 12t-13.5 33q0 25 17 44
t42 19q20 0 33 -12.5t13 -34.5q0 -23 -17 -42t-41 -19zM516 708q-20 0 -33 12t-13 33q0 25 16.5 44t41.5 19q20 0 33 -12.5t13 -34.5q0 -23 -16.5 -42t-41.5 -19zM419 844l-101 112l7 12h97l66 -124h-69z" />
    <glyph glyph-name="uni1E72" unicode="&#x1e72;" horiz-adv-x="630" 
d="M297 -12q-108 0 -164 54t-56 163q0 22 4 48t8 51l70 350h108l-73 -366q-4 -21 -6.5 -40t-2.5 -37q0 -63 27.5 -96.5t88.5 -33.5q35 0 63 16t49 56t35 111l78 390h106l-79 -390q-20 -102 -55.5 -162.5t-85.5 -87t-115 -26.5zM134 -211q-22 0 -36 13t-14 37q0 26 18 45.5
t45 19.5q21 0 35.5 -13.5t14.5 -37.5q0 -26 -18.5 -45t-44.5 -19zM332 -211q-22 0 -36 13t-14 37q0 26 18.5 45.5t44.5 19.5q22 0 36 -13.5t14 -37.5q0 -26 -18.5 -45t-44.5 -19z" />
    <glyph glyph-name="uni1EE4" unicode="&#x1ee4;" horiz-adv-x="630" 
d="M297 -12q-108 0 -164 54t-56 163q0 22 4 48t8 51l70 350h108l-73 -366q-4 -21 -6.5 -40t-2.5 -37q0 -63 27.5 -96.5t88.5 -33.5q35 0 63 16t49 56t35 111l78 390h106l-79 -390q-20 -102 -55.5 -162.5t-85.5 -87t-115 -26.5zM232 -228q-23 0 -42.5 14.5t-19.5 41.5
q0 29 21.5 49.5t50.5 20.5q24 0 43 -14.5t19 -41.5q0 -30 -21 -50t-51 -20z" />
    <glyph glyph-name="uni0244" unicode="&#x244;" horiz-adv-x="670" 
d="M36 318l16 76l86 6h538l-14 -82h-626zM317 -12q-108 0 -164 54t-56 163q0 22 4 48t8 51l70 350h108l-73 -366q-4 -21 -6.5 -40t-2.5 -37q0 -63 27.5 -96.5t88.5 -33.5q35 0 63 16t49 56t35 111l78 390h106l-79 -390q-20 -102 -55.5 -162.5t-85.5 -87t-115 -26.5z" />
    <glyph glyph-name="uni1EE6" unicode="&#x1ee6;" horiz-adv-x="630" 
d="M297 -12q-108 0 -164 54t-56 163q0 22 4 48t8 51l70 350h108l-73 -366q-4 -21 -6.5 -40t-2.5 -37q0 -63 27.5 -96.5t88.5 -33.5q35 0 63 16t49 56t35 111l78 390h106l-79 -390q-20 -102 -55.5 -162.5t-85.5 -87t-115 -26.5zM357 700l-4 48q59 12 59 45q0 16 -17.5 25
t-54.5 10l18 63q49 0 80.5 -10.5t46.5 -27.5t15 -39q0 -46 -37.5 -76t-105.5 -38z" />
    <glyph glyph-name="Uhorn" unicode="&#x1af;" horiz-adv-x="648" 
d="M617 610l-40 43q47 4 72 25.5t25 57.5q0 11 -2.5 22t-7.5 23l83 27q14 -33 14 -64q0 -38 -17.5 -65.5t-49.5 -44.5t-77 -24zM297 -12q-108 0 -164 54.5t-56 162.5q0 22 4 48t8 51l70 350h108l-73 -366q-4 -21 -6.5 -40t-2.5 -37q0 -62 27.5 -96t88.5 -34q35 0 63 16
t49 56t35 111l78 390h106l-79 -390q-20 -102 -55.5 -162.5t-85.5 -87t-115 -26.5z" />
    <glyph glyph-name="uni1EE8" unicode="&#x1ee8;" horiz-adv-x="648" 
d="M617 610l-40 43q47 4 72 25.5t25 57.5q0 11 -2.5 22t-7.5 23l83 27q14 -33 14 -64q0 -38 -17.5 -65.5t-49.5 -44.5t-77 -24zM297 -12q-108 0 -164 54.5t-56 162.5q0 22 4 48t8 51l70 350h108l-73 -366q-4 -21 -6.5 -40t-2.5 -37q0 -62 27.5 -96t88.5 -34q35 0 63 16
t49 56t35 111l78 390h106l-79 -390q-20 -102 -55.5 -162.5t-85.5 -87t-115 -26.5zM310 704l148 144h133l7 -12l-196 -132h-92z" />
    <glyph glyph-name="uni1EEA" unicode="&#x1eea;" horiz-adv-x="648" 
d="M617 610l-40 43q47 4 72 25.5t25 57.5q0 11 -2.5 22t-7.5 23l83 27q14 -33 14 -64q0 -38 -17.5 -65.5t-49.5 -44.5t-77 -24zM297 -12q-108 0 -164 54.5t-56 162.5q0 22 4 48t8 51l70 350h108l-73 -366q-4 -21 -6.5 -40t-2.5 -37q0 -62 27.5 -96t88.5 -34q35 0 63 16
t49 56t35 111l78 390h106l-79 -390q-20 -102 -55.5 -162.5t-85.5 -87t-115 -26.5zM388 704l-146 132l7 12h125l104 -144h-90z" />
    <glyph glyph-name="uni1EEC" unicode="&#x1eec;" horiz-adv-x="648" 
d="M617 610l-40 43q47 4 72 25.5t25 57.5q0 11 -2.5 22t-7.5 23l83 27q14 -33 14 -64q0 -38 -17.5 -65.5t-49.5 -44.5t-77 -24zM297 -12q-108 0 -164 54.5t-56 162.5q0 22 4 48t8 51l70 350h108l-73 -366q-4 -21 -6.5 -40t-2.5 -37q0 -62 27.5 -96t88.5 -34q35 0 63 16
t49 56t35 111l78 390h106l-79 -390q-20 -102 -55.5 -162.5t-85.5 -87t-115 -26.5zM357 700l-4 48q59 12 59 45q0 16 -17.5 25t-54.5 10l18 63q49 0 80.5 -10.5t46.5 -27.5t15 -39q0 -46 -37.5 -76t-105.5 -38z" />
    <glyph glyph-name="uni1EEE" unicode="&#x1eee;" horiz-adv-x="648" 
d="M617 610l-40 43q47 4 72 25.5t25 57.5q0 11 -2.5 22t-7.5 23l83 27q14 -33 14 -64q0 -38 -17.5 -65.5t-49.5 -44.5t-77 -24zM297 -12q-108 0 -164 54.5t-56 162.5q0 22 4 48t8 51l70 350h108l-73 -366q-4 -21 -6.5 -40t-2.5 -37q0 -62 27.5 -96t88.5 -34q35 0 63 16
t49 56t35 111l78 390h106l-79 -390q-20 -102 -55.5 -162.5t-85.5 -87t-115 -26.5zM478 700q-26 0 -44.5 10t-32 23t-26 22.5t-26.5 9.5q-17 0 -30.5 -13.5t-22.5 -44.5l-74 6q16 68 52.5 100.5t85.5 32.5q26 0 44 -9.5t31.5 -22.5t26 -22.5t27.5 -9.5q16 0 30 14t23 44
l73 -6q-14 -67 -51 -100.5t-86 -33.5z" />
    <glyph glyph-name="uni1EF0" unicode="&#x1ef0;" horiz-adv-x="648" 
d="M617 610l-40 43q47 4 72 25.5t25 57.5q0 11 -2.5 22t-7.5 23l83 27q14 -33 14 -64q0 -38 -17.5 -65.5t-49.5 -44.5t-77 -24zM297 -12q-108 0 -164 54.5t-56 162.5q0 22 4 48t8 51l70 350h108l-73 -366q-4 -21 -6.5 -40t-2.5 -37q0 -62 27.5 -96t88.5 -34q35 0 63 16
t49 56t35 111l78 390h106l-79 -390q-20 -102 -55.5 -162.5t-85.5 -87t-115 -26.5zM232 -225q-23 0 -42.5 14.5t-19.5 41.5q0 29 21.5 49.5t50.5 20.5q24 0 43 -14.5t19 -41.5q0 -30 -21 -50t-51 -20z" />
    <glyph glyph-name="uni1E7E" unicode="&#x1e7e;" horiz-adv-x="526" 
d="M138 0l-58 654h112l22 -342q4 -53 7 -106t4 -107h4q24 53 48.5 107t48.5 106l164 342h117l-339 -654h-130zM158 -228q-23 0 -42.5 14.5t-19.5 41.5q0 29 21.5 49.5t50.5 20.5q24 0 43 -14.5t19 -41.5q0 -30 -21 -50t-51 -20z" />
    <glyph glyph-name="Wgrave" unicode="&#x1e80;" horiz-adv-x="775" 
d="M88 0l14 654h112l-14 -336q-2 -52 -7.5 -105.5t-10.5 -106.5h4q22 53 43 107t43 105l144 336h106l4 -336q1 -52 -1.5 -105.5t-4.5 -106.5h4q19 53 38 106.5t38 105.5l124 336h108l-260 -654h-138l-2 356q0 34 2 74.5t4 78.5h-4q-13 -37 -25.5 -76t-28.5 -77l-150 -356
h-142zM464 704l-146 132l7 12h125l104 -144h-90z" />
    <glyph glyph-name="Wacute" unicode="&#x1e82;" horiz-adv-x="775" 
d="M88 0l14 654h112l-14 -336q-2 -52 -7.5 -105.5t-10.5 -106.5h4q22 53 43 107t43 105l144 336h106l4 -336q1 -52 -1.5 -105.5t-4.5 -106.5h4q19 53 38 106.5t38 105.5l124 336h108l-260 -654h-138l-2 356q0 34 2 74.5t4 78.5h-4q-13 -37 -25.5 -76t-28.5 -77l-150 -356
h-142zM386 704l148 144h133l7 -12l-196 -132h-92z" />
    <glyph glyph-name="Wcircumflex" unicode="&#x174;" horiz-adv-x="775" 
d="M88 0l14 654h112l-14 -336q-2 -52 -7.5 -105.5t-10.5 -106.5h4q22 53 43 107t43 105l144 336h106l4 -336q1 -52 -1.5 -105.5t-4.5 -106.5h4q19 53 38 106.5t38 105.5l124 336h108l-260 -654h-138l-2 356q0 34 2 74.5t4 78.5h-4q-13 -37 -25.5 -76t-28.5 -77l-150 -356
h-142zM304 705l154 144h98l104 -144h-90l-68 71h-4l-102 -71h-92z" />
    <glyph glyph-name="Wdieresis" unicode="&#x1e84;" horiz-adv-x="775" 
d="M88 0l14 654h112l-14 -336q-2 -52 -7.5 -105.5t-10.5 -106.5h4q22 53 43 107t43 105l144 336h106l4 -336q1 -52 -1.5 -105.5t-4.5 -106.5h4q19 53 38 106.5t38 105.5l124 336h108l-260 -654h-138l-2 356q0 34 2 74.5t4 78.5h-4q-13 -37 -25.5 -76t-28.5 -77l-150 -356
h-142zM381 708q-21 0 -35.5 13t-14.5 37q0 26 18.5 45t44.5 19q22 0 36 -13t14 -37q0 -27 -18 -45.5t-45 -18.5zM588 708q-21 0 -35.5 13t-14.5 37q0 26 18.5 45t45.5 19q21 0 35.5 -13t14.5 -37q0 -27 -18.5 -45.5t-45.5 -18.5z" />
    <glyph glyph-name="Ygrave" unicode="&#x1ef2;" horiz-adv-x="486" 
d="M138 0l49 246l-105 408h111l37 -172q8 -37 14.5 -71.5t13.5 -72.5h4q21 38 42 73t43 72l107 171h116l-275 -408l-49 -246h-108zM318 704l-146 132l7 12h125l104 -144h-90z" />
    <glyph glyph-name="Yacute" unicode="&#xdd;" horiz-adv-x="486" 
d="M138 0l49 246l-105 408h111l37 -172q8 -37 14.5 -71.5t13.5 -72.5h4q21 38 42 73t43 72l107 171h116l-275 -408l-49 -246h-108zM240 704l148 144h133l7 -12l-196 -132h-92z" />
    <glyph glyph-name="Ycircumflex" unicode="&#x176;" horiz-adv-x="486" 
d="M138 0l49 246l-105 408h111l37 -172q8 -37 14.5 -71.5t13.5 -72.5h4q21 38 42 73t43 72l107 171h116l-275 -408l-49 -246h-108zM158 705l154 144h98l104 -144h-90l-68 71h-4l-102 -71h-92z" />
    <glyph glyph-name="uni1EF8" unicode="&#x1ef8;" horiz-adv-x="486" 
d="M138 0l49 246l-105 408h111l37 -172q8 -37 14.5 -71.5t13.5 -72.5h4q21 38 42 73t43 72l107 171h116l-275 -408l-49 -246h-108zM408 700q-26 0 -44.5 10t-32 23t-26 22.5t-26.5 9.5q-17 0 -30.5 -13.5t-22.5 -44.5l-74 6q16 68 52.5 100.5t85.5 32.5q26 0 44 -9.5
t31.5 -22.5t26 -22.5t27.5 -9.5q16 0 30 14t23 44l73 -6q-14 -67 -51 -100.5t-86 -33.5z" />
    <glyph glyph-name="Ydieresis" unicode="&#x178;" horiz-adv-x="486" 
d="M138 0l49 246l-105 408h111l37 -172q8 -37 14.5 -71.5t13.5 -72.5h4q21 38 42 73t43 72l107 171h116l-275 -408l-49 -246h-108zM233 708q-21 0 -35.5 13t-14.5 37q0 26 18.5 45t44.5 19q22 0 36 -13t14 -37q0 -27 -18 -45.5t-45 -18.5zM440 708q-21 0 -35.5 13t-14.5 37
q0 26 18.5 45t45.5 19q21 0 35.5 -13t14.5 -37q0 -27 -18.5 -45.5t-45.5 -18.5z" />
    <glyph glyph-name="uni1E8E" unicode="&#x1e8e;" horiz-adv-x="486" 
d="M138 0l49 246l-105 408h111l37 -172q8 -37 14.5 -71.5t13.5 -72.5h4q21 38 42 73t43 72l107 171h116l-275 -408l-49 -246h-108zM343 709q-23 0 -42 14.5t-19 41.5q0 29 21 49.5t51 20.5q24 0 42.5 -14.5t18.5 -42.5q0 -29 -21 -49t-51 -20z" />
    <glyph glyph-name="uni1EF4" unicode="&#x1ef4;" horiz-adv-x="486" 
d="M138 0l49 246l-105 408h111l37 -172q8 -37 14.5 -71.5t13.5 -72.5h4q21 38 42 73t43 72l107 171h116l-275 -408l-49 -246h-108zM163 -228q-23 0 -42.5 14.5t-19.5 41.5q0 29 21.5 49.5t50.5 20.5q24 0 43 -14.5t19 -41.5q0 -30 -21 -50t-51 -20z" />
    <glyph glyph-name="uni1EF6" unicode="&#x1ef6;" horiz-adv-x="486" 
d="M138 0l49 246l-105 408h111l37 -172q8 -37 14.5 -71.5t13.5 -72.5h4q21 38 42 73t43 72l107 171h116l-275 -408l-49 -246h-108zM287 700l-4 48q59 12 59 45q0 16 -17.5 25t-54.5 10l18 63q49 0 80.5 -10.5t46.5 -27.5t15 -39q0 -46 -37.5 -76t-105.5 -38z" />
    <glyph glyph-name="Zacute" unicode="&#x179;" horiz-adv-x="519" 
d="M-3 0l14 65l390 498h-278l18 91h407l-13 -65l-387 -498h306l-19 -91h-438zM260 704l148 144h133l7 -12l-196 -132h-92z" />
    <glyph glyph-name="uni1E90" unicode="&#x1e90;" horiz-adv-x="519" 
d="M-3 0l14 65l390 498h-278l18 91h407l-13 -65l-387 -498h306l-19 -91h-438zM178 705l154 144h98l104 -144h-90l-68 71h-4l-102 -71h-92z" />
    <glyph glyph-name="Zdotaccent" unicode="&#x17b;" horiz-adv-x="519" 
d="M-3 0l14 65l390 498h-278l18 91h407l-13 -65l-387 -498h306l-19 -91h-438zM363 709q-23 0 -42 14.5t-19 41.5q0 29 21 49.5t51 20.5q24 0 42.5 -14.5t18.5 -42.5q0 -29 -21 -49t-51 -20z" />
    <glyph glyph-name="Zcaron" unicode="&#x17d;" horiz-adv-x="519" 
d="M-3 0l14 65l390 498h-278l18 91h407l-13 -65l-387 -498h306l-19 -91h-438zM304 705l-102 144h90l67 -71h4l103 71h92l-154 -144h-100z" />
    <glyph glyph-name="uni1E92" unicode="&#x1e92;" horiz-adv-x="519" 
d="M-3 0l14 65l390 498h-278l18 91h407l-13 -65l-387 -498h306l-19 -91h-438zM185 -228q-23 0 -42.5 14.5t-19.5 41.5q0 29 21.5 49.5t50.5 20.5q24 0 43 -14.5t19 -41.5q0 -30 -21 -50t-51 -20z" />
    <glyph glyph-name="uni1E94" unicode="&#x1e94;" horiz-adv-x="519" 
d="M-3 0l14 65l390 498h-278l18 91h407l-13 -65l-387 -498h306l-19 -91h-438zM56 -166l14 70h269l-13 -70h-270z" />
    <glyph glyph-name="Eth" unicode="&#xd0;" horiz-adv-x="628" 
d="M38 300l18 78l72 4h248l-16 -82h-322zM52 0l130 654h137q88 0 151.5 -29.5t97.5 -87.5t34 -144q0 -90 -26 -162.5t-74 -124t-113.5 -79t-143.5 -27.5h-193zM177 87h67q53 0 98 20.5t79 59.5t52.5 94.5t18.5 124.5q0 61 -22 101t-61.5 60t-92.5 20h-44z" />
    <glyph glyph-name="Thorn" unicode="&#xde;" horiz-adv-x="579" 
d="M32 0l130 660h108l-22 -113h101q59 0 105 -17t72.5 -53.5t26.5 -96.5q0 -64 -22.5 -110.5t-63 -75.5t-94 -42.5t-115.5 -13.5h-93l-27 -138h-106zM183 224h83q88 0 134 35.5t46 105.5q0 50 -31.5 73t-92.5 23h-92z" />
    <glyph glyph-name="uni01F7" unicode="&#x1f7;" horiz-adv-x="567" 
d="M0 -162l162 816h102l-13 -75q45 39 91.5 63t96.5 24q63 0 98.5 -35t35.5 -114q0 -63 -23.5 -131.5t-75 -137t-134 -132t-200.5 -118.5l-33 -160h-107zM159 100q111 60 178.5 128t98 134t30.5 121q0 48 -19.5 69t-50.5 21q-21 0 -47.5 -11t-55.5 -32.5t-58 -53.5z" />
    <glyph glyph-name="uni021C" unicode="&#x21c;" horiz-adv-x="485" 
d="M18 -173l-27 77q97 36 162 72.5t102.5 72.5t53 69t15.5 62q0 34 -20 52.5t-54 18.5q-25 0 -48.5 -7.5t-60.5 -26.5l-31 65q78 41 126.5 72t74 56t35 48t9.5 46q0 30 -17.5 49.5t-45.5 19.5q-43 0 -80.5 -18t-86.5 -57l-46 62q46 37 85 60.5t78.5 34.5t85.5 11
q65 0 100 -34.5t35 -86.5q0 -65 -41 -123.5t-122 -107.5q62 2 97 -30.5t35 -87.5q0 -76 -42 -141.5t-133.5 -122t-238.5 -105.5z" />
    <glyph glyph-name="uni01B7" unicode="&#x1b7;" horiz-adv-x="536" 
d="M224 -12q-59 0 -116 21.5t-95 70.5l52 69q34 -36 76.5 -52t88.5 -16q43 0 77.5 15t54.5 43t20 65q0 51 -27.5 76t-70.5 25q-27 0 -42.5 -2.5t-36.5 -10.5l-32 62l223 209h-267l18 91h407l-13 -65l-213 -212q53 -1 90 -20.5t56 -54.5t19 -83q0 -71 -34 -122.5t-94 -80
t-141 -28.5z" />
    <glyph glyph-name="uni01EE" unicode="&#x1ee;" horiz-adv-x="536" 
d="M224 -12q-59 0 -116 21.5t-95 70.5l52 69q34 -36 76.5 -52t88.5 -16q43 0 77.5 15t54.5 43t20 65q0 51 -27.5 76t-70.5 25q-27 0 -42.5 -2.5t-36.5 -10.5l-32 62l223 209h-267l18 91h407l-13 -65l-213 -212q53 -1 90 -20.5t56 -54.5t19 -83q0 -71 -34 -122.5t-94 -80
t-141 -28.5zM296 705l-102 144h90l67 -71h4l103 71h92l-154 -144h-100z" />
    <glyph glyph-name="uni018F" unicode="&#x18f;" horiz-adv-x="652" 
d="M290 -12q-69 0 -120 30.5t-78.5 86.5t-27.5 129q0 35 4.5 62t14.5 58h462l-17 -80h-361q-12 -92 25.5 -144t105.5 -52q49 0 89.5 22.5t71 63.5t47 96.5t16.5 121.5q0 60 -14 103.5t-46 67t-84 23.5q-48 0 -91 -20t-76 -48l-49 70q45 39 101.5 63.5t127.5 24.5
q74 0 127.5 -33t81.5 -94.5t28 -147.5q0 -87 -24.5 -161t-70.5 -128t-107.5 -84t-135.5 -30z" />
    <glyph glyph-name="uniA779" unicode="&#xa779;" horiz-adv-x="648" 
d="M298 -12q-70 0 -122.5 30.5t-81 89t-28.5 142.5q0 70 24.5 132.5t64 110t80.5 70.5v4h-146l17 87h237q136 0 206.5 -66.5t70.5 -202.5q0 -67 -16 -126.5t-45 -109t-68.5 -85.5t-88.5 -56t-104 -20zM310 81q34 0 64 15.5t55 43.5t43 65t28 81t10 91q0 88 -33.5 137.5
t-94.5 49.5q-40 0 -77 -27t-65.5 -70t-45 -95.5t-16.5 -104.5q0 -89 34.5 -137.5t97.5 -48.5z" />
    <glyph glyph-name="uniA77B" unicode="&#xa77b;" horiz-adv-x="566" 
d="M0 -162l162 816h102l-13 -75q28 26 59 46t63.5 30.5t62.5 10.5q64 0 101 -35t37 -112q0 -20 -2 -42.5t-8 -49.5l-12 -60l-110 -14l12 60q5 25 7.5 42t2.5 32q0 47 -21 66.5t-57 19.5q-21 0 -47.5 -12.5t-53 -35t-50.5 -49.5l-78 -385h250l-18 -91h-249l-32 -162h-108z
" />
    <glyph glyph-name="uniA77D" unicode="&#xa77d;" horiz-adv-x="600" 
d="M226 -173q-62 0 -112 16.5t-79 52t-29 91.5q0 45 25.5 85t68 72t95.5 54v4q-38 26 -62 62.5t-24 91.5q0 45 19.5 85.5t51.5 72t72 48.5v4h-151l18 88h510l-18 -92h-163q-58 0 -101 -15.5t-71 -42t-42 -58.5t-14 -66q0 -54 34 -87t111 -65q83 -33 122.5 -70t39.5 -98
q0 -43 -19 -84t-56.5 -74.5t-94 -53.5t-131.5 -21zM242 -86q54 0 93.5 19t60.5 47t21 56q0 24 -13.5 40t-36.5 29t-52.5 26t-62.5 28q-46 -21 -78.5 -44.5t-49 -50.5t-16.5 -58q0 -45 36 -68.5t98 -23.5z" />
    <glyph glyph-name="uniA77E" unicode="&#xa77e;" horiz-adv-x="600" 
d="M381 665q62 0 112 -16.5t79 -52t29 -91.5q0 -45 -25.5 -85t-68 -72t-95.5 -54v-4q38 -26 62 -62.5t24 -91.5q0 -45 -19.5 -85.5t-51.5 -72t-72 -48.5v-4h151l-18 -88h-510l18 92h163q58 0 101 15.5t71 42t42 58.5t14 66q0 54 -34 87t-111 65q-83 33 -122.5 70t-39.5 98
q0 43 19 84t56.5 74.5t94 53.5t131.5 21zM365 578q-54 0 -93.5 -19t-60.5 -47t-21 -56q0 -24 13.5 -40t36.5 -29t52.5 -26t62.5 -28q46 21 78.5 44.5t49 50.5t16.5 58q0 45 -36 68.5t-98 23.5z" />
    <glyph glyph-name="uniA780" unicode="&#xa780;" horiz-adv-x="481" 
d="M479 654l-130 -654h-108l112 563h-261l18 91h369z" />
    <glyph glyph-name="uniA782" unicode="&#xa782;" horiz-adv-x="572" 
d="M0 -162l162 816h102l-13 -76q45 46 91.5 67t95.5 21q63 0 99 -33t36 -99q0 -70 -33.5 -133t-102.5 -123.5t-176 -122.5q15 -41 55 -60t98 -19q19 0 36 3.5t28 6.5l18 -80q-15 -7 -39 -12.5t-53 -5.5q-109 0 -173 49.5t-71 153.5q111 59 178.5 113.5t97.5 104t30 92.5
q0 37 -18.5 54.5t-52.5 17.5t-76.5 -23.5t-83.5 -73.5l-127 -638h-108z" />
    <glyph glyph-name="uniA75A" unicode="&#xa75a;" horiz-adv-x="484" 
d="M310 -12q-113 0 -180.5 49.5t-75.5 153.5q116 59 187 112t104 101.5t33 90.5q0 40 -20.5 59t-56.5 19q-35 0 -69.5 -17t-68.5 -48l-47 57q51 50 103.5 75.5t110.5 25.5q72 0 113.5 -34.5t41.5 -103.5t-36.5 -131t-109.5 -121t-184 -121q20 -42 61.5 -60.5t103.5 -18.5
q20 0 39 3t31 7l18 -80q-16 -8 -41.5 -13t-56.5 -5z" />
    <glyph glyph-name="uniA784" unicode="&#xa784;" horiz-adv-x="566" 
d="M0 -162l162 816h102l-13 -75q28 26 59 46t63.5 30.5t62.5 10.5q64 0 101 -35t37 -112q0 -20 -2 -42.5t-8 -49.5l-12 -60l-110 -14l12 60q5 25 7.5 42t2.5 32q0 47 -21 66.5t-57 19.5q-21 0 -47.5 -12.5t-53 -35t-50.5 -49.5l-127 -638h-108z" />
    <glyph glyph-name="uniA786" unicode="&#xa786;" horiz-adv-x="521" 
d="M273 -12q-66 0 -114.5 27.5t-75 78.5t-26.5 120q0 59 20 112.5t53 99.5t72 80.5t77 55.5v4h-191l18 88h470l-18 -92h-92q-49 0 -93.5 -21t-81.5 -56.5t-65 -80t-43.5 -91.5t-15.5 -90q0 -65 30 -103.5t95 -38.5q37 0 68 15t57 37l45 -66q-35 -33 -79.5 -56t-109.5 -23z
" />
    <glyph glyph-name="uni0194" unicode="&#x194;" horiz-adv-x="509" 
d="M159 -217q-49 0 -77.5 27t-28.5 73q0 48 29.5 98.5t83.5 115.5l-11 -51l-75 608h112l26 -327q4 -52 7 -102.5t4 -104.5h4q24 54 48 104.5t49 102.5l160 327h117l-327 -608l2 50q19 -58 24.5 -90.5t5.5 -58.5q0 -45 -18.5 -82.5t-53 -59.5t-81.5 -22zM173 -143q25 0 38 21
t13 57q0 40 -11 87h-4q-29 -36 -48.5 -70t-19.5 -60q0 -16 9 -25.5t23 -9.5z" />
    <glyph glyph-name="uni0196" unicode="&#x196;" horiz-adv-x="272" 
d="M139 -10q-47 0 -68 21t-21 59q0 11 1.5 23.5t4.5 27.5l106 533h108l-106 -531q-1 -8 -1.5 -13t-0.5 -10q0 -17 16 -17q3 0 6.5 0.5t9.5 1.5l6 -83q-13 -5 -28 -8.5t-33 -3.5z" />
    <glyph glyph-name="uni039B.l" horiz-adv-x="486" 
d="M380 654l-49 -246l105 -408h-111l-37 172q-8 37 -14.5 71.5t-13.5 72.5h-4q-21 -38 -42 -73t-43 -72l-107 -171h-116l275 408l49 246h108z" />
    <glyph glyph-name="uni01B1" unicode="&#x1b1;" horiz-adv-x="677" 
d="M719 654l-16 -87h-121v-4q14 -19 29 -51t24.5 -70.5t9.5 -77.5q0 -83 -26 -151.5t-72.5 -119t-109.5 -78t-135 -27.5q-74 0 -127 29.5t-81 84.5t-28 128q0 80 25.5 143.5t63.5 111t75 78.5v4h-121l16 87h250l-14 -70q-39 -29 -72.5 -65.5t-58 -79t-38 -91t-13.5 -101.5
q0 -50 16 -87t47.5 -58t76.5 -21q46 0 86.5 22t70.5 61.5t46 94t16 119.5q0 39 -10 78t-27 72t-39 56l13 70h244z" />
    <glyph glyph-name="uniA7B3" unicode="&#xa7b3;" horiz-adv-x="508" 
d="M-76 -181l266 433l-88 402h118l34 -186q5 -30 10 -61.5t12 -71.5h4q22 40 38.5 71t32.5 62l105 186h116l-252 -413l96 -422h-118l-36 199l-12 68t-13 74h-4q-21 -40 -40 -74.5t-38 -67.5l-115 -199h-116z" />
    <glyph glyph-name="uni0241" unicode="&#x241;" horiz-adv-x="502" 
d="M128 0l54 271q114 38 164 89t50 109q0 51 -27.5 77.5t-72.5 26.5q-47 0 -92 -22t-82 -51l-45 72q47 39 109 66.5t131 27.5q53 0 96 -20t68.5 -59.5t25.5 -98.5t-30.5 -111.5t-82 -93.5t-115.5 -65l-43 -218h-108z" />
    <glyph glyph-name="uniA722" unicode="&#xa722;" horiz-adv-x="303" 
d="M31 -12l5 62q56 9 83.5 33.5t33.5 56.5q1 20 -10 26h25q-10 -14 -28.5 -24t-37.5 -10q-25 0 -41.5 15.5t-16.5 43.5q0 20 13 40t37 34t57 14q46 0 72 -27.5t26 -74.5t-24 -89t-72.5 -69.5t-121.5 -30.5zM108 374l6 62q55 9 83 33.5t33 56.5q1 20 -10 26h26
q-11 -14 -29 -24t-38 -10q-25 0 -41 15.5t-16 43.5q0 20 12.5 40t36.5 34t57 14q46 0 72 -27.5t26 -74.5t-24 -89t-72.5 -69.5t-121.5 -30.5z" />
    <glyph glyph-name="uniA724" unicode="&#xa724;" horiz-adv-x="303" 
d="M250 372q-72 4 -110 41t-38 94q0 44 19.5 80t52 57t72.5 21q38 0 59 -18.5t21 -49.5q0 -33 -23 -57t-60 -24q-19 0 -34.5 9t-22.5 24h27q-11 -5 -18 -16t-7 -28q0 -28 24 -46.5t64 -24.5z" />
    <glyph glyph-name="uni004C00B7004C" horiz-adv-x="962" 
d="M32 0l130 654h108l-112 -563h261l-18 -91h-369zM383 254q-26 0 -42.5 17.5t-16.5 44.5q0 21 11 41t29.5 32.5t42.5 12.5q27 0 42.5 -18t15.5 -45q0 -21 -10 -40.5t-28.5 -32t-43.5 -12.5zM513 0l130 654h108l-112 -563h261l-18 -91h-369z" />
    <glyph glyph-name="uni01320301" horiz-adv-x="544" 
d="M245 -173q-22 0 -42.5 5t-42.5 16l33 78q12 -6 22.5 -9t22.5 -3q26 0 41.5 21t23.5 63l131 656h108l-131 -658q-10 -48 -30 -86.5t-53 -60.5t-83 -22zM32 0l130 654h108l-130 -654h-108zM134 704l148 144h133l7 -12l-196 -132h-92zM406 704l148 144h133l7 -12l-196 -132
h-92z" />
    <glyph glyph-name="uni01040301" horiz-adv-x="529" 
d="M206 -222q-40 0 -67 20t-27 58q0 26 16 55t43.5 56.5t63.5 48.5l31 -35q-26 -19 -41 -43t-15 -45q0 -18 11.5 -27.5t28.5 -9.5q20 0 39 13l23 -57q-22 -16 -49.5 -25t-56.5 -9zM-56 0l348 654h128l70 -654h-112l-26 365q-3 50 -6.5 100t-5.5 103h-4q-24 -53 -46.5 -102
t-48.5 -101l-180 -365h-117zM108 184l20 82h293l-19 -82h-294zM266 704l148 144h133l7 -12l-196 -132h-92z" />
    <glyph glyph-name="uni01180301" horiz-adv-x="514" 
d="M210 -222q-40 0 -67.5 19.5t-27.5 58.5q0 27 15.5 54.5t39 50.5t48.5 39h-186l130 654h375l-18 -91h-268l-35 -176h227l-18 -91h-226l-42 -205h276l-18 -91h-95q-18 0 -37 -10.5t-34.5 -27t-25 -35t-9.5 -34.5q0 -18 11.5 -27.5t27.5 -9.5q20 0 39 13l23 -57
q-21 -16 -49.5 -25t-55.5 -9zM262 704l148 144h133l7 -12l-196 -132h-92z" />
    <glyph glyph-name="uni012E0301" horiz-adv-x="272" 
d="M47 -222q-40 0 -67 20t-27 58q0 27 15.5 54.5t39 50.5t47.5 39h-23l130 654h108l-130 -654q-41 -21 -65 -50.5t-24 -56.5q0 -18 12 -27.5t28 -9.5q20 0 39 13l23 -57q-22 -16 -49.5 -25t-56.5 -9zM134 704l148 144h133l7 -12l-196 -132h-92z" />
    <glyph glyph-name="uni01EA0301" horiz-adv-x="647" 
d="M236 -222q-40 0 -67 20t-27 58q0 30 17 58.5t41.5 51t47.5 35.5l46 -13q-73 0 -126 33.5t-81.5 95t-28.5 146.5q0 65 16 125t46 110.5t70.5 88t89.5 58.5t104 21q74 0 127 -33.5t81 -95t28 -146.5q0 -67 -18.5 -133t-55 -121.5t-88.5 -93.5t-118 -51q-35 -6 -57 -23.5
t-32.5 -38.5t-10.5 -37q0 -18 12 -27.5t28 -9.5q20 0 39 13l23 -57q-22 -16 -49.5 -25t-56.5 -9zM300 81q35 0 66.5 16.5t57.5 45.5t45 68t30 82.5t11 89.5q0 58 -14.5 100.5t-44 66t-73.5 23.5q-34 0 -65.5 -16.5t-58 -45.5t-45.5 -68t-29.5 -82.5t-10.5 -89.5
q0 -58 14.5 -100.5t43.5 -66t73 -23.5zM310 704l148 144h133l7 -12l-196 -132h-92z" />
    <glyph glyph-name="uni01720301" horiz-adv-x="630" 
d="M229 -222q-40 0 -67.5 20t-27.5 58q0 29 17 56.5t43 50.5t54 37l49 -12q-108 0 -164 54.5t-56 162.5q0 22 4 48t8 51l70 350h108l-73 -366q-4 -21 -6.5 -40t-2.5 -37q0 -62 27.5 -96t88.5 -34q35 0 63 16t49 56t35 111l78 390h106l-79 -390q-26 -126 -74 -190t-133 -83
q-39 -8 -64 -25t-37 -36.5t-12 -36.5q0 -18 11.5 -27.5t27.5 -9.5q10 0 19 3t21 10l22 -57q-21 -16 -48.5 -25t-56.5 -9zM314 704l148 144h133l7 -12l-196 -132h-92z" />
    <glyph glyph-name="uni01900328" horiz-adv-x="536" 
d="M204 -222q-40 0 -67.5 20t-27.5 58q0 32 17.5 60.5t42.5 50.5t48 34l28 -13q-102 0 -159.5 43.5t-57.5 117.5q0 38 15 70t40.5 57t58 42.5t67.5 25.5v4q-24 10 -43.5 28.5t-30.5 43.5t-11 55q0 53 30.5 96t84 69t122.5 26q60 0 109.5 -25.5t74.5 -69.5l-59 -58
q-22 31 -53.5 46t-72.5 15q-35 0 -65 -13t-47.5 -37.5t-17.5 -56.5q0 -36 26.5 -61t90.5 -25h57l-15 -79h-75q-49 0 -87.5 -17.5t-60.5 -46.5t-22 -63q0 -45 31.5 -70t85.5 -25q51 0 93.5 17.5t77.5 46.5l46 -67q-25 -21 -48.5 -36.5t-52 -27t-69.5 -20.5
q-36 -8 -58.5 -25.5t-32 -38t-9.5 -36.5q0 -18 11.5 -27.5t27.5 -9.5q20 0 39 13l23 -57q-21 -16 -48.5 -25t-56.5 -9z" />
    <glyph glyph-name="uni019B.c" horiz-adv-x="486" 
d="M72 482l16 76l90 6h352l-16 -82h-442zM380 654l-49 -246l105 -408h-111l-37 172q-7 38 -13.5 72t-14.5 72h-4q-21 -37 -41.5 -72.5t-43.5 -72.5l-107 -171h-116l275 408l49 246h108z" />
    <glyph glyph-name="agrave" unicode="&#xe0;" horiz-adv-x="544" 
d="M175 -12q-64 0 -102 46.5t-38 132.5q0 71 22 132t59 106.5t84.5 71.5t98.5 26q36 0 66.5 -18.5t46.5 -50.5h2l21 57h86l-98 -491h-88l5 68h-3q-34 -36 -77 -58t-85 -22zM219 76q32 0 65.5 19.5t63.5 63.5l40 196q-16 32 -38 46t-45 14q-31 0 -59.5 -18.5t-51 -51
t-35.5 -74.5t-13 -89q0 -54 19.5 -80t53.5 -26zM324 570l-128 162l7 12h115l88 -174h-82z" />
    <glyph glyph-name="aacute" unicode="&#xe1;" horiz-adv-x="544" 
d="M175 -12q-64 0 -102 46.5t-38 132.5q0 71 22 132t59 106.5t84.5 71.5t98.5 26q36 0 66.5 -18.5t46.5 -50.5h2l21 57h86l-98 -491h-88l5 68h-3q-34 -36 -77 -58t-85 -22zM219 76q32 0 65.5 19.5t63.5 63.5l40 196q-16 32 -38 46t-45 14q-31 0 -59.5 -18.5t-51 -51
t-35.5 -74.5t-13 -89q0 -54 19.5 -80t53.5 -26zM238 570l154 174h123l7 -12l-194 -162h-90z" />
    <glyph glyph-name="acircumflex" unicode="&#xe2;" horiz-adv-x="544" 
d="M175 -12q-64 0 -102 46.5t-38 132.5q0 71 22 132t59 106.5t84.5 71.5t98.5 26q36 0 66.5 -18.5t46.5 -50.5h2l21 57h86l-98 -491h-88l5 68h-3q-34 -36 -77 -58t-85 -22zM219 76q32 0 65.5 19.5t63.5 63.5l40 196q-16 32 -38 46t-45 14q-31 0 -59.5 -18.5t-51 -51
t-35.5 -74.5t-13 -89q0 -54 19.5 -80t53.5 -26zM150 570l160 182h104l88 -182h-82l-66 101h-4l-110 -101h-90z" />
    <glyph glyph-name="atilde" unicode="&#xe3;" horiz-adv-x="544" 
d="M175 -12q-64 0 -102 46.5t-38 132.5q0 71 22 132t59 106.5t84.5 71.5t98.5 26q36 0 66.5 -18.5t46.5 -50.5h2l21 57h86l-98 -491h-88l5 68h-3q-34 -36 -77 -58t-85 -22zM219 76q32 0 65.5 19.5t63.5 63.5l40 196q-16 32 -38 46t-45 14q-31 0 -59.5 -18.5t-51 -51
t-35.5 -74.5t-13 -89q0 -54 19.5 -80t53.5 -26zM413 575q-27 0 -45 11.5t-31 26t-26.5 26t-30.5 11.5q-19 0 -32 -17.5t-20 -50.5l-73 4q8 46 25 78t42.5 49t57.5 17q27 0 45 -11.5t31 -26t26.5 -25.5t30.5 -11q19 0 32.5 17.5t19.5 49.5l73 -4q-9 -45 -25.5 -77
t-41.5 -49.5t-58 -17.5z" />
    <glyph glyph-name="adieresis" unicode="&#xe4;" horiz-adv-x="544" 
d="M175 -12q-64 0 -102 46.5t-38 132.5q0 71 22 132t59 106.5t84.5 71.5t98.5 26q36 0 66.5 -18.5t46.5 -50.5h2l21 57h86l-98 -491h-88l5 68h-3q-34 -36 -77 -58t-85 -22zM219 76q32 0 65.5 19.5t63.5 63.5l40 196q-16 32 -38 46t-45 14q-31 0 -59.5 -18.5t-51 -51
t-35.5 -74.5t-13 -89q0 -54 19.5 -80t53.5 -26zM236 580q-22 0 -36 13t-14 37q0 26 18 45.5t45 19.5q21 0 35.5 -13.5t14.5 -37.5q0 -26 -18.5 -45t-44.5 -19zM434 580q-22 0 -36 13t-14 37q0 26 18.5 45.5t44.5 19.5q22 0 36 -13.5t14 -37.5q0 -26 -18.5 -45t-44.5 -19z
" />
    <glyph glyph-name="aring" unicode="&#xe5;" horiz-adv-x="544" 
d="M175 -12q-64 0 -102 46.5t-38 132.5q0 71 22 132t59 106.5t84.5 71.5t98.5 26q36 0 66.5 -18.5t46.5 -50.5h2l21 57h86l-98 -491h-88l5 68h-3q-34 -36 -77 -58t-85 -22zM219 76q32 0 65.5 19.5t63.5 63.5l40 196q-16 32 -38 46t-45 14q-31 0 -59.5 -18.5t-51 -51
t-35.5 -74.5t-13 -89q0 -54 19.5 -80t53.5 -26zM332 561q-44 0 -74.5 23t-30.5 64q0 47 37.5 79.5t95.5 32.5q45 0 75 -23t30 -65q0 -46 -37.5 -78.5t-95.5 -32.5zM339 606q23 0 39.5 18.5t16.5 44.5q0 19 -11 32.5t-31 13.5q-23 0 -39.5 -19t-16.5 -44q0 -20 11.5 -33
t30.5 -13z" />
    <glyph glyph-name="amacron" unicode="&#x101;" horiz-adv-x="544" 
d="M175 -12q-64 0 -102 46.5t-38 132.5q0 71 22 132t59 106.5t84.5 71.5t98.5 26q36 0 66.5 -18.5t46.5 -50.5h2l21 57h86l-98 -491h-88l5 68h-3q-34 -36 -77 -58t-85 -22zM219 76q32 0 65.5 19.5t63.5 63.5l40 196q-16 32 -38 46t-45 14q-31 0 -59.5 -18.5t-51 -51
t-35.5 -74.5t-13 -89q0 -54 19.5 -80t53.5 -26zM198 598l14 70h269l-13 -70h-270z" />
    <glyph glyph-name="abreve" unicode="&#x103;" horiz-adv-x="544" 
d="M175 -12q-64 0 -102 46.5t-38 132.5q0 71 22 132t59 106.5t84.5 71.5t98.5 26q36 0 66.5 -18.5t46.5 -50.5h2l21 57h86l-98 -491h-88l5 68h-3q-34 -36 -77 -58t-85 -22zM219 76q32 0 65.5 19.5t63.5 63.5l40 196q-16 32 -38 46t-45 14q-31 0 -59.5 -18.5t-51 -51
t-35.5 -74.5t-13 -89q0 -54 19.5 -80t53.5 -26zM327 571q-46 0 -76 19t-45 54t-15 82l71 10q0 -26 8 -46.5t25.5 -32.5t46.5 -12t51 13t37 34t22 45l66 -11q-9 -41 -32.5 -76t-62.5 -57t-96 -22z" />
    <glyph glyph-name="uni0227" unicode="&#x227;" horiz-adv-x="544" 
d="M175 -12q-64 0 -102 46.5t-38 132.5q0 71 22 132t59 106.5t84.5 71.5t98.5 26q36 0 66.5 -18.5t46.5 -50.5h2l21 57h86l-98 -491h-88l5 68h-3q-34 -36 -77 -58t-85 -22zM219 76q32 0 65.5 19.5t63.5 63.5l40 196q-16 32 -38 46t-45 14q-31 0 -59.5 -18.5t-51 -51
t-35.5 -74.5t-13 -89q0 -54 19.5 -80t53.5 -26zM336 578q-23 0 -42.5 14.5t-19.5 41.5q0 29 21.5 49.5t50.5 20.5q24 0 43 -14.5t19 -41.5q0 -30 -21 -50t-51 -20z" />
    <glyph glyph-name="uni01CE" unicode="&#x1ce;" horiz-adv-x="544" 
d="M175 -12q-64 0 -102 46.5t-38 132.5q0 71 22 132t59 106.5t84.5 71.5t98.5 26q36 0 66.5 -18.5t46.5 -50.5h2l21 57h86l-98 -491h-88l5 68h-3q-34 -36 -77 -58t-85 -22zM219 76q32 0 65.5 19.5t63.5 63.5l40 196q-16 32 -38 46t-45 14q-31 0 -59.5 -18.5t-51 -51
t-35.5 -74.5t-13 -89q0 -54 19.5 -80t53.5 -26zM280 570l-88 182h82l66 -101h4l110 101h90l-160 -182h-104z" />
    <glyph glyph-name="uni0201" unicode="&#x201;" horiz-adv-x="544" 
d="M175 -12q-64 0 -102 46.5t-38 132.5q0 71 22 132t59 106.5t84.5 71.5t98.5 26q36 0 66.5 -18.5t46.5 -50.5h2l21 57h86l-98 -491h-88l5 68h-3q-34 -36 -77 -58t-85 -22zM219 76q32 0 65.5 19.5t63.5 63.5l40 196q-16 32 -38 46t-45 14q-31 0 -59.5 -18.5t-51 -51
t-35.5 -74.5t-13 -89q0 -54 19.5 -80t53.5 -26zM210 570l-88 162l7 12h91l54 -174h-64zM378 570l-88 162l7 12h91l54 -174h-64z" />
    <glyph glyph-name="aogonek" unicode="&#x105;" horiz-adv-x="544" 
d="M330 -217q-37 0 -61 20t-24 58q0 29 13.5 56.5t34.5 50t43 36.5l4 64h-3q-34 -36 -77 -58t-85 -22q-65 0 -102.5 46.5t-37.5 132.5q0 70 22 131.5t59.5 107.5t84.5 71.5t98 25.5q37 0 67 -18.5t46 -50.5h2l21 57h86l-98 -491q-40 -16 -64.5 -46t-24.5 -63
q0 -17 10.5 -26.5t25.5 -9.5q13 0 22 3.5t19 9.5l23 -49q-22 -16 -47.5 -26t-56.5 -10zM219 76q32 0 66 19.5t63 63.5l40 196q-17 32 -38.5 46t-44.5 14q-31 0 -59.5 -18.5t-51 -50.5t-35.5 -74.5t-13 -89.5q0 -54 20 -80t53 -26z" />
    <glyph glyph-name="aogonek.d" horiz-adv-x="544" 
d="M188 -217q-37 0 -61 20t-24 58q0 27 14 54t37 49t48 38l17 -8q-9 -2 -20.5 -4t-23.5 -2q-65 0 -102.5 46.5t-37.5 132.5q0 70 22 131.5t59.5 107.5t84.5 71.5t98 25.5q37 0 67 -18.5t46 -50.5h2l21 57h86l-98 -491h-88l5 68h-3q-22 -22 -43.5 -39.5t-42.5 -34.5
q-28 -21 -43.5 -47.5t-15.5 -52.5q0 -18 10.5 -28.5t25.5 -10.5q21 0 41 13l23 -49q-22 -16 -48 -26t-56 -10zM219 76q32 0 66 19.5t63 63.5l40 196q-17 32 -38.5 46t-44.5 14q-31 0 -59.5 -18.5t-51 -50.5t-35.5 -74.5t-13 -89.5q0 -54 20 -80t53 -26z" />
    <glyph glyph-name="uni1EA1" unicode="&#x1ea1;" horiz-adv-x="544" 
d="M175 -12q-64 0 -102 46.5t-38 132.5q0 71 22 132t59 106.5t84.5 71.5t98.5 26q36 0 66.5 -18.5t46.5 -50.5h2l21 57h86l-98 -491h-88l5 68h-3q-34 -36 -77 -58t-85 -22zM219 76q32 0 65.5 19.5t63.5 63.5l40 196q-16 32 -38 46t-45 14q-31 0 -59.5 -18.5t-51 -51
t-35.5 -74.5t-13 -89q0 -54 19.5 -80t53.5 -26zM198 -225q-23 0 -42.5 14.5t-19.5 41.5q0 29 21.5 49.5t50.5 20.5q24 0 43 -14.5t19 -41.5q0 -30 -21 -50t-51 -20z" />
    <glyph glyph-name="uni1EA3" unicode="&#x1ea3;" horiz-adv-x="544" 
d="M175 -12q-64 0 -102 46.5t-38 132.5q0 71 22 132t59 106.5t84.5 71.5t98.5 26q36 0 66.5 -18.5t46.5 -50.5h2l21 57h86l-98 -491h-88l5 68h-3q-34 -36 -77 -58t-85 -22zM219 76q32 0 65.5 19.5t63.5 63.5l40 196q-16 32 -38 46t-45 14q-31 0 -59.5 -18.5t-51 -51
t-35.5 -74.5t-13 -89q0 -54 19.5 -80t53.5 -26zM281 563l-5 48q30 7 45 20.5t15 33.5q0 19 -17.5 29t-53.5 12l19 66q73 -1 107 -22t34 -63q0 -49 -37.5 -83t-106.5 -41z" />
    <glyph glyph-name="uni1EA5" unicode="&#x1ea5;" horiz-adv-x="544" 
d="M175 -12q-64 0 -102 46.5t-38 132.5q0 71 22 132t59 106.5t84.5 71.5t98.5 26q36 0 66.5 -18.5t46.5 -50.5h2l21 57h86l-98 -491h-88l5 68h-3q-34 -36 -77 -58t-85 -22zM219 76q32 0 65.5 19.5t63.5 63.5l40 196q-16 32 -38 46t-45 14q-31 0 -59.5 -18.5t-51 -51
t-35.5 -74.5t-13 -89q0 -54 19.5 -80t53.5 -26zM162 570l146 148h95l87 -148h-75l-67 78h-3l-101 -78h-82zM450 668l87 124h86l7 -12l-120 -112h-60z" />
    <glyph glyph-name="uni1EA7" unicode="&#x1ea7;" horiz-adv-x="544" 
d="M175 -12q-64 0 -102 46.5t-38 132.5q0 71 22 132t59 106.5t84.5 71.5t98.5 26q36 0 66.5 -18.5t46.5 -50.5h2l21 57h86l-98 -491h-88l5 68h-3q-34 -36 -77 -58t-85 -22zM219 76q32 0 65.5 19.5t63.5 63.5l40 196q-16 32 -38 46t-45 14q-31 0 -59.5 -18.5t-51 -51
t-35.5 -74.5t-13 -89q0 -54 19.5 -80t53.5 -26zM162 570l146 148h95l87 -148h-75l-67 78h-3l-101 -78h-82zM190 668l-76 112l7 12h79l42 -124h-52z" />
    <glyph glyph-name="uni1EA9" unicode="&#x1ea9;" horiz-adv-x="544" 
d="M175 -12q-64 0 -102 46.5t-38 132.5q0 71 22 132t59 106.5t84.5 71.5t98.5 26q36 0 66.5 -18.5t46.5 -50.5h2l21 57h86l-98 -491h-88l5 68h-3q-34 -36 -77 -58t-85 -22zM219 76q32 0 65.5 19.5t63.5 63.5l40 196q-16 32 -38 46t-45 14q-31 0 -59.5 -18.5t-51 -51
t-35.5 -74.5t-13 -89q0 -54 19.5 -80t53.5 -26zM472 649l-4 43q21 4 31.5 14t10.5 24t-13.5 21.5t-46.5 9.5l15 65q60 0 92 -19t32 -56q0 -39 -32.5 -67t-84.5 -35zM162 570l146 148h95l87 -148h-75l-67 78h-3l-101 -78h-82z" />
    <glyph glyph-name="uni1EAB" unicode="&#x1eab;" horiz-adv-x="544" 
d="M175 -12q-64 0 -102 46.5t-38 132.5q0 71 22 132t59 106.5t84.5 71.5t98.5 26q36 0 66.5 -18.5t46.5 -50.5h2l21 57h86l-98 -491h-88l5 68h-3q-34 -36 -77 -58t-85 -22zM219 76q32 0 65.5 19.5t63.5 63.5l40 196q-16 32 -38 46t-45 14q-31 0 -59.5 -18.5t-51 -51
t-35.5 -74.5t-13 -89q0 -54 19.5 -80t53.5 -26zM429 731q-30 0 -50 10.5t-36.5 21t-35.5 10.5q-17 0 -26.5 -9.5t-16.5 -30.5l-54 6q11 48 35.5 74t58.5 26q30 0 50 -10.5t36 -21t36 -10.5q17 0 26.5 10t16.5 30l54 -6q-11 -48 -35 -74t-59 -26zM162 571l145 135h95l88 -135
h-75l-68 65h-3l-100 -65h-82z" />
    <glyph glyph-name="uni1EAD" unicode="&#x1ead;" horiz-adv-x="544" 
d="M175 -12q-64 0 -102 46.5t-38 132.5q0 71 22 132t59 106.5t84.5 71.5t98.5 26q36 0 66.5 -18.5t46.5 -50.5h2l21 57h86l-98 -491h-88l5 68h-3q-34 -36 -77 -58t-85 -22zM219 76q32 0 65.5 19.5t63.5 63.5l40 196q-16 32 -38 46t-45 14q-31 0 -59.5 -18.5t-51 -51
t-35.5 -74.5t-13 -89q0 -54 19.5 -80t53.5 -26zM150 570l160 182h104l88 -182h-82l-66 101h-4l-110 -101h-90zM198 -225q-23 0 -42.5 14.5t-19.5 41.5q0 29 21.5 49.5t50.5 20.5q24 0 43 -14.5t19 -41.5q0 -30 -21 -50t-51 -20z" />
    <glyph glyph-name="uni1EAF" unicode="&#x1eaf;" horiz-adv-x="544" 
d="M175 -12q-64 0 -102 46.5t-38 132.5q0 71 22 132t59 106.5t84.5 71.5t98.5 26q36 0 66.5 -18.5t46.5 -50.5h2l21 57h86l-98 -491h-88l5 68h-3q-34 -36 -77 -58t-85 -22zM219 76q32 0 65.5 19.5t63.5 63.5l40 196q-16 32 -38 46t-45 14q-31 0 -59.5 -18.5t-51 -51
t-35.5 -74.5t-13 -89q0 -54 19.5 -80t53.5 -26zM344 571q-46 0 -76 19.5t-45 54.5t-15 81l65 10q0 -28 8.5 -50t27 -34.5t48.5 -12.5q31 0 54.5 14t39.5 36t24 48l60 -11q-9 -41 -32.5 -76t-62.5 -57t-96 -22zM323 724l87 124h86l7 -12l-120 -112h-60z" />
    <glyph glyph-name="uni1EB1" unicode="&#x1eb1;" horiz-adv-x="544" 
d="M175 -12q-64 0 -102 46.5t-38 132.5q0 71 22 132t59 106.5t84.5 71.5t98.5 26q36 0 66.5 -18.5t46.5 -50.5h2l21 57h86l-98 -491h-88l5 68h-3q-34 -36 -77 -58t-85 -22zM219 76q32 0 65.5 19.5t63.5 63.5l40 196q-16 32 -38 46t-45 14q-31 0 -59.5 -18.5t-51 -51
t-35.5 -74.5t-13 -89q0 -54 19.5 -80t53.5 -26zM344 571q-46 0 -76 19.5t-45 54.5t-15 81l65 10q0 -28 8.5 -50t27 -34.5t48.5 -12.5q31 0 54.5 14t39.5 36t24 48l60 -11q-9 -41 -32.5 -76t-62.5 -57t-96 -22zM367 724l-76 112l7 12h79l42 -124h-52z" />
    <glyph glyph-name="uni1EB3" unicode="&#x1eb3;" horiz-adv-x="544" 
d="M175 -12q-64 0 -102 46.5t-38 132.5q0 71 22 132t59 106.5t84.5 71.5t98.5 26q36 0 66.5 -18.5t46.5 -50.5h2l21 57h86l-98 -491h-88l5 68h-3q-34 -36 -77 -58t-85 -22zM219 76q32 0 65.5 19.5t63.5 63.5l40 196q-16 32 -38 46t-45 14q-31 0 -59.5 -18.5t-51 -51
t-35.5 -74.5t-13 -89q0 -54 19.5 -80t53.5 -26zM344 571q-46 0 -76 19.5t-45 54.5t-15 81l65 10q0 -28 8.5 -50t27 -34.5t48.5 -12.5q31 0 54.5 14t39.5 36t24 48l60 -11q-9 -41 -32.5 -76t-62.5 -57t-96 -22zM338 696l-3 43q22 4 35 14t13 25t-14.5 22.5t-49.5 9.5l16 65
q61 -1 93.5 -19.5t32.5 -55.5q0 -41 -35 -68.5t-88 -35.5z" />
    <glyph glyph-name="uni1EB5" unicode="&#x1eb5;" horiz-adv-x="544" 
d="M175 -12q-64 0 -102 46.5t-38 132.5q0 71 22 132t59 106.5t84.5 71.5t98.5 26q36 0 66.5 -18.5t46.5 -50.5h2l21 57h86l-98 -491h-88l5 68h-3q-34 -36 -77 -58t-85 -22zM219 76q32 0 65.5 19.5t63.5 63.5l40 196q-16 32 -38 46t-45 14q-31 0 -59.5 -18.5t-51 -51
t-35.5 -74.5t-13 -89q0 -54 19.5 -80t53.5 -26zM344 571q-45 0 -74 17t-43 43.5t-13 56.5l61 10q1 -23 19 -41.5t61 -18.5q44 0 69.5 19t32.5 41l59 -10q-8 -30 -29.5 -56.5t-56.5 -43.5t-86 -17zM446 729q-23 0 -39 7t-29 16t-25.5 16.5t-27.5 7.5q-35 0 -48 -43l-54 6
q11 50 36.5 76t61.5 26q23 0 39 -7t29 -16t25 -16.5t28 -7.5q35 0 48 43l54 -6q-12 -49 -37 -75.5t-61 -26.5z" />
    <glyph glyph-name="uni1EB7" unicode="&#x1eb7;" horiz-adv-x="544" 
d="M175 -12q-64 0 -102 46.5t-38 132.5q0 71 22 132t59 106.5t84.5 71.5t98.5 26q36 0 66.5 -18.5t46.5 -50.5h2l21 57h86l-98 -491h-88l5 68h-3q-34 -36 -77 -58t-85 -22zM219 76q32 0 65.5 19.5t63.5 63.5l40 196q-16 32 -38 46t-45 14q-31 0 -59.5 -18.5t-51 -51
t-35.5 -74.5t-13 -89q0 -54 19.5 -80t53.5 -26zM327 571q-46 0 -76 19t-45 54t-15 82l71 10q0 -26 8 -46.5t25.5 -32.5t46.5 -12t51 13t37 34t22 45l66 -11q-9 -41 -32.5 -76t-62.5 -57t-96 -22zM198 -225q-23 0 -42.5 14.5t-19.5 41.5q0 29 21.5 49.5t50.5 20.5
q24 0 43 -14.5t19 -41.5q0 -30 -21 -50t-51 -20z" />
    <glyph glyph-name="aringacute" unicode="&#x1fb;" horiz-adv-x="544" 
d="M175 -12q-64 0 -102 46.5t-38 132.5q0 71 22 132t59 106.5t84.5 71.5t98.5 26q36 0 66.5 -18.5t46.5 -50.5h2l21 57h86l-98 -491h-88l5 68h-3q-34 -36 -77 -58t-85 -22zM219 76q32 0 65.5 19.5t63.5 63.5l40 196q-16 32 -38 46t-45 14q-31 0 -59.5 -18.5t-51 -51
t-35.5 -74.5t-13 -89q0 -54 19.5 -80t53.5 -26zM332 561q-44 0 -74.5 22.5t-30.5 62.5q0 22 7.5 39t22.5 32t37 33l121 104h98l7 -12l-150 -101l-10 9q45 0 75 -20.5t30 -59.5q0 -45 -37.5 -77t-95.5 -32zM339 606q23 0 39.5 18t16.5 43q0 19 -11 31.5t-31 12.5
q-23 0 -39.5 -18t-16.5 -44q0 -18 11 -30.5t31 -12.5z" />
    <glyph glyph-name="ae" unicode="&#xe6;" horiz-adv-x="758" 
d="M156 -12q-54 0 -92 31.5t-38 89.5q0 71 41 113.5t111.5 62.5t159.5 23q2 9 3 16t1 14q0 41 -18.5 60.5t-57.5 19.5q-27 0 -59.5 -10.5t-66.5 -29.5l-34 75q38 20 85.5 35t86.5 15q51 0 86.5 -19.5t48.5 -61.5q33 38 74 59.5t83 21.5q57 0 91.5 -24t49.5 -65t15 -92
q0 -22 -3 -42t-7.5 -37t-9.5 -29h-288q-6 -47 7.5 -78t40.5 -46.5t62 -15.5q28 0 54.5 9.5t47.5 24.5l37 -66q-30 -23 -70.5 -38.5t-90.5 -15.5q-52 0 -94 25.5t-62 62.5q-45 -42 -92.5 -65t-101.5 -23zM198 74q26 0 59 16.5t67 53.5q-4 25 -4 44t4 46q-62 -2 -104.5 -14.5
t-64 -34.5t-21.5 -53q0 -29 17.5 -43.5t46.5 -14.5zM430 294h204q2 8 3 17.5t1 17.5q0 24 -7.5 44t-25 32.5t-47.5 12.5q-25 0 -50 -14.5t-45.5 -42t-32.5 -67.5z" />
    <glyph glyph-name="aeacute" unicode="&#x1fd;" horiz-adv-x="758" 
d="M156 -12q-54 0 -92 31.5t-38 89.5q0 71 41 113.5t111.5 62.5t159.5 23q2 9 3 16t1 14q0 41 -18.5 60.5t-57.5 19.5q-27 0 -59.5 -10.5t-66.5 -29.5l-34 75q38 20 85.5 35t86.5 15q51 0 86.5 -19.5t48.5 -61.5q33 38 74 59.5t83 21.5q57 0 91.5 -24t49.5 -65t15 -92
q0 -22 -3 -42t-7.5 -37t-9.5 -29h-288q-6 -47 7.5 -78t40.5 -46.5t62 -15.5q28 0 54.5 9.5t47.5 24.5l37 -66q-30 -23 -70.5 -38.5t-90.5 -15.5q-52 0 -94 25.5t-62 62.5q-45 -42 -92.5 -65t-101.5 -23zM198 74q26 0 59 16.5t67 53.5q-4 25 -4 44t4 46q-62 -2 -104.5 -14.5
t-64 -34.5t-21.5 -53q0 -29 17.5 -43.5t46.5 -14.5zM430 294h204q2 8 3 17.5t1 17.5q0 24 -7.5 44t-25 32.5t-47.5 12.5q-25 0 -50 -14.5t-45.5 -42t-32.5 -67.5zM360 578l154 174h123l7 -12l-194 -162h-90z" />
    <glyph glyph-name="uni01E3" unicode="&#x1e3;" horiz-adv-x="758" 
d="M156 -12q-54 0 -92 31.5t-38 89.5q0 71 41 113.5t111.5 62.5t159.5 23q2 9 3 16t1 14q0 41 -18.5 60.5t-57.5 19.5q-27 0 -59.5 -10.5t-66.5 -29.5l-34 75q38 20 85.5 35t86.5 15q51 0 86.5 -19.5t48.5 -61.5q33 38 74 59.5t83 21.5q57 0 91.5 -24t49.5 -65t15 -92
q0 -22 -3 -42t-7.5 -37t-9.5 -29h-288q-6 -47 7.5 -78t40.5 -46.5t62 -15.5q28 0 54.5 9.5t47.5 24.5l37 -66q-30 -23 -70.5 -38.5t-90.5 -15.5q-52 0 -94 25.5t-62 62.5q-45 -42 -92.5 -65t-101.5 -23zM198 74q26 0 59 16.5t67 53.5q-4 25 -4 44t4 46q-62 -2 -104.5 -14.5
t-64 -34.5t-21.5 -53q0 -29 17.5 -43.5t46.5 -14.5zM430 294h204q2 8 3 17.5t1 17.5q0 24 -7.5 44t-25 32.5t-47.5 12.5q-25 0 -50 -14.5t-45.5 -42t-32.5 -67.5zM320 606l14 70h269l-13 -70h-270z" />
    <glyph glyph-name="uni2C65" unicode="&#x2c65;" horiz-adv-x="544" 
d="M142 -58l-38 16l288 598l38 -16zM175 -12q-64 0 -102 46.5t-38 132.5q0 71 22 132t59 106.5t84.5 71.5t98.5 26q36 0 66.5 -18.5t46.5 -50.5h2l21 57h86l-98 -491h-88l5 68h-3q-34 -36 -77 -58t-85 -22zM219 76q32 0 65.5 19.5t63.5 63.5l40 196q-16 32 -38 46t-45 14
q-31 0 -59.5 -18.5t-51 -51t-35.5 -74.5t-13 -89q0 -54 19.5 -80t53.5 -26z" />
    <glyph glyph-name="uni0180" unicode="&#x180;" horiz-adv-x="550" 
d="M258 -12q-38 0 -68.5 19t-47.5 50h-2l-21 -57h-89l142 706h107l-42 -213l-23 -94h2q35 28 74 46.5t80 18.5q65 0 102.5 -45t37.5 -130q0 -63 -21 -117.5t-56.5 -95.5t-80.5 -64.5t-94 -23.5zM251 76q29 0 55.5 16t47.5 43.5t33 63.5t12 75q0 52 -19.5 77t-53.5 25
q-28 0 -62.5 -18t-63.5 -53l-35 -169q16 -31 38.5 -45.5t47.5 -14.5zM62 542l14 74l80 6h276l-16 -80h-354z" />
    <glyph glyph-name="uni0253" unicode="&#x253;" horiz-adv-x="545" 
d="M245 -12q-36 0 -65 19t-46 50h-2l-21 -57h-89l110 546q11 52 33.5 91t59.5 60t91 21q32 0 58 -6.5t50 -20.5l-36 -74q-13 7 -28.5 11t-34.5 4q-34 0 -54.5 -19t-30.5 -57l-7 -36l-23 -94h2q34 28 73.5 46.5t80.5 18.5q65 0 102.5 -44.5t37.5 -128.5q0 -69 -21 -129
t-58.5 -105t-84 -70.5t-97.5 -25.5zM238 76q32 0 60 18t50 49.5t34.5 73t12.5 87.5q0 50 -19.5 74.5t-53.5 24.5q-28 0 -62.5 -17.5t-63.5 -53.5l-39 -196q16 -31 37 -45.5t44 -14.5z" />
    <glyph glyph-name="uni1E03" unicode="&#x1e03;" horiz-adv-x="545" 
d="M245 -12q-36 0 -65 19t-46 50h-2l-21 -57h-89l142 706h107l-35 -174l-24 -94h2q35 28 74.5 46.5t79.5 18.5q65 0 102.5 -46t37.5 -133q0 -70 -21.5 -131.5t-59 -107t-84.5 -71.5t-98 -26zM238 76q32 0 60.5 19t51 51t35.5 74t13 90q0 53 -20 79t-54 26q-28 0 -62.5 -17.5
t-62.5 -53.5l-42 -208q16 -31 37 -45.5t44 -14.5zM402 578q-23 0 -42.5 14.5t-19.5 41.5q0 29 21.5 49.5t50.5 20.5q24 0 43 -14.5t19 -41.5q0 -30 -21 -50t-51 -20z" />
    <glyph glyph-name="uni1E07" unicode="&#x1e07;" horiz-adv-x="545" 
d="M245 -12q-36 0 -65 19t-46 50h-2l-21 -57h-89l142 706h107l-35 -174l-24 -94h2q35 28 74.5 46.5t79.5 18.5q65 0 102.5 -46t37.5 -133q0 -70 -21.5 -131.5t-59 -107t-84.5 -71.5t-98 -26zM238 76q32 0 60.5 19t51 51t35.5 74t13 90q0 53 -20 79t-54 26q-28 0 -62.5 -17.5
t-62.5 -53.5l-42 -208q16 -31 37 -45.5t44 -14.5zM62 -163l14 70h269l-13 -70h-270z" />
    <glyph glyph-name="ccedilla" unicode="&#xe7;" horiz-adv-x="439" 
d="M220 -12q-54 0 -96 23.5t-66.5 68t-24.5 108.5q0 66 22.5 123t61 100.5t89.5 67.5t108 24q47 0 79.5 -18t50.5 -42l-58 -61q-16 17 -34 25.5t-44 8.5q-33 0 -62.5 -18t-52.5 -49t-36.5 -71.5t-13.5 -85.5q0 -55 25 -86t74 -31q27 0 51.5 11.5t42.5 25.5l45 -61
q-28 -26 -68 -44.5t-93 -18.5zM69 -233l-1 49q59 3 85.5 15t29.5 35q1 17 -14 27t-55 15l63 95h70l-41 -66q37 -9 51 -25t11 -43q-6 -50 -58.5 -74.5t-140.5 -27.5z" />
    <glyph glyph-name="cacute" unicode="&#x107;" horiz-adv-x="439" 
d="M220 -12q-54 0 -96 23.5t-66.5 68t-24.5 108.5q0 66 22.5 123t61 100.5t89.5 67.5t108 24q47 0 79.5 -18t50.5 -42l-58 -61q-16 17 -34 25.5t-44 8.5q-33 0 -62.5 -18t-52.5 -49t-36.5 -71.5t-13.5 -85.5q0 -55 25 -86t74 -31q27 0 51.5 11.5t42.5 25.5l45 -61
q-28 -26 -68 -44.5t-93 -18.5zM221 570l154 174h123l7 -12l-194 -162h-90z" />
    <glyph glyph-name="ccircumflex" unicode="&#x109;" horiz-adv-x="439" 
d="M220 -12q-54 0 -96 23.5t-66.5 68t-24.5 108.5q0 66 22.5 123t61 100.5t89.5 67.5t108 24q47 0 79.5 -18t50.5 -42l-58 -61q-16 17 -34 25.5t-44 8.5q-33 0 -62.5 -18t-52.5 -49t-36.5 -71.5t-13.5 -85.5q0 -55 25 -86t74 -31q27 0 51.5 11.5t42.5 25.5l45 -61
q-28 -26 -68 -44.5t-93 -18.5zM133 570l160 182h104l88 -182h-82l-66 101h-4l-110 -101h-90z" />
    <glyph glyph-name="cdotaccent" unicode="&#x10b;" horiz-adv-x="439" 
d="M220 -12q-54 0 -96 23.5t-66.5 68t-24.5 108.5q0 66 22.5 123t61 100.5t89.5 67.5t108 24q47 0 79.5 -18t50.5 -42l-58 -61q-16 17 -34 25.5t-44 8.5q-33 0 -62.5 -18t-52.5 -49t-36.5 -71.5t-13.5 -85.5q0 -55 25 -86t74 -31q27 0 51.5 11.5t42.5 25.5l45 -61
q-28 -26 -68 -44.5t-93 -18.5zM319 578q-23 0 -42.5 14.5t-19.5 41.5q0 29 21.5 49.5t50.5 20.5q24 0 43 -14.5t19 -41.5q0 -30 -21 -50t-51 -20z" />
    <glyph glyph-name="ccaron" unicode="&#x10d;" horiz-adv-x="439" 
d="M220 -12q-54 0 -96 23.5t-66.5 68t-24.5 108.5q0 66 22.5 123t61 100.5t89.5 67.5t108 24q47 0 79.5 -18t50.5 -42l-58 -61q-16 17 -34 25.5t-44 8.5q-33 0 -62.5 -18t-52.5 -49t-36.5 -71.5t-13.5 -85.5q0 -55 25 -86t74 -31q27 0 51.5 11.5t42.5 25.5l45 -61
q-28 -26 -68 -44.5t-93 -18.5zM263 570l-88 182h82l66 -101h4l110 101h90l-160 -182h-104z" />
    <glyph glyph-name="uni023C" unicode="&#x23c;" horiz-adv-x="439" 
d="M150 -58l-38 16l272 598l38 -16zM220 -12q-54 0 -96 23.5t-66.5 68t-24.5 108.5q0 66 22.5 123t61 100.5t89.5 67.5t108 24q47 0 79.5 -18t50.5 -42l-58 -61q-16 17 -34 25.5t-44 8.5q-33 0 -62.5 -18t-52.5 -49t-36.5 -71.5t-13.5 -85.5q0 -55 25 -86t74 -31
q27 0 51.5 11.5t42.5 25.5l45 -61q-28 -26 -68 -44.5t-93 -18.5z" />
    <glyph glyph-name="uni1E0B" unicode="&#x1e0b;" horiz-adv-x="540" 
d="M175 -12q-65 0 -102.5 46.5t-37.5 132.5q0 70 22 131.5t59.5 107.5t84.5 71.5t98 25.5q37 0 64.5 -17.5t43.5 -47.5h3l14 94l34 174h107l-142 -706h-88l5 68h-3q-34 -36 -77 -58t-85 -22zM219 76q32 0 65 19.5t64 63.5l40 196q-17 32 -38.5 46t-44.5 14
q-31 0 -59.5 -18.5t-51 -50.5t-35.5 -74.5t-13 -89.5q0 -54 20 -80t53 -26zM288 578q-23 0 -42.5 14.5t-19.5 41.5q0 29 21.5 49.5t50.5 20.5q24 0 43 -14.5t19 -41.5q0 -30 -21 -50t-51 -20z" />
    <glyph glyph-name="dcaron" unicode="&#x10f;" horiz-adv-x="556" 
d="M175 -12q-65 0 -102.5 46.5t-37.5 132.5q0 70 22 131.5t59.5 107.5t84.5 71.5t98 25.5q37 0 64.5 -17.5t43.5 -47.5h3l14 94l34 174h107l-142 -706h-88l5 68h-3q-34 -36 -77 -58t-85 -22zM219 76q32 0 65 19.5t64 63.5l40 196q-17 32 -38.5 46t-44.5 14
q-31 0 -59.5 -18.5t-51 -50.5t-35.5 -74.5t-13 -89.5q0 -54 20 -80t53 -26zM577 548l40 217h71l-13 -63l-49 -154h-49z" />
    <glyph glyph-name="uni1E0D" unicode="&#x1e0d;" horiz-adv-x="540" 
d="M175 -12q-65 0 -102.5 46.5t-37.5 132.5q0 70 22 131.5t59.5 107.5t84.5 71.5t98 25.5q37 0 64.5 -17.5t43.5 -47.5h3l14 94l34 174h107l-142 -706h-88l5 68h-3q-34 -36 -77 -58t-85 -22zM219 76q32 0 65 19.5t64 63.5l40 196q-17 32 -38.5 46t-44.5 14
q-31 0 -59.5 -18.5t-51 -50.5t-35.5 -74.5t-13 -89.5q0 -54 20 -80t53 -26zM180 -225q-23 0 -42.5 14.5t-19.5 41.5q0 29 21.5 49.5t50.5 20.5q24 0 43 -14.5t19 -41.5q0 -30 -21 -50t-51 -20z" />
    <glyph glyph-name="uni1E0F" unicode="&#x1e0f;" horiz-adv-x="540" 
d="M175 -12q-65 0 -102.5 46.5t-37.5 132.5q0 70 22 131.5t59.5 107.5t84.5 71.5t98 25.5q37 0 64.5 -17.5t43.5 -47.5h3l14 94l34 174h107l-142 -706h-88l5 68h-3q-34 -36 -77 -58t-85 -22zM219 76q32 0 65 19.5t64 63.5l40 196q-17 32 -38.5 46t-44.5 14
q-31 0 -59.5 -18.5t-51 -50.5t-35.5 -74.5t-13 -89.5q0 -54 20 -80t53 -26zM50 -163l14 70h269l-13 -70h-270z" />
    <glyph glyph-name="uni1E11" unicode="&#x1e11;" horiz-adv-x="540" 
d="M175 -12q-65 0 -102.5 46.5t-37.5 132.5q0 70 22 131.5t59.5 107.5t84.5 71.5t98 25.5q37 0 64.5 -17.5t43.5 -47.5h3l14 94l34 174h107l-142 -706h-88l5 68h-3q-34 -36 -77 -58t-85 -22zM219 76q32 0 65 19.5t64 63.5l40 196q-17 32 -38.5 46t-44.5 14
q-31 0 -59.5 -18.5t-51 -50.5t-35.5 -74.5t-13 -89.5q0 -54 20 -80t53 -26zM43 -233l-1 49q59 3 85.5 15t29.5 35q1 17 -14 27t-55 15l63 95h70l-41 -66q37 -9 51 -25t11 -43q-6 -50 -58.5 -74.5t-140.5 -27.5z" />
    <glyph glyph-name="dcroat" unicode="&#x111;" horiz-adv-x="545" 
d="M175 -12q-64 0 -102 46.5t-38 132.5q0 61 21 114.5t57 94.5t81 64.5t93 23.5q38 0 67.5 -18t44.5 -48h3l14 95l42 213h107l-142 -706h-88l5 68h-3q-34 -36 -77 -58t-85 -22zM219 76q32 0 65 19.5t64 63.5l32 157q-15 31 -37 45.5t-49 14.5q-28 0 -55 -16t-47.5 -43.5
t-33 -62t-12.5 -72.5q0 -54 19.5 -80t53.5 -26zM264 542l16 80h340l-16 -75l-74 -5h-266z" />
    <glyph glyph-name="egrave" unicode="&#xe8;" horiz-adv-x="488" 
d="M236 -12q-93 0 -148 54.5t-55 153.5q0 69 23.5 125t62 97t86 63t95.5 22q58 0 92.5 -24t50 -65t15.5 -92q0 -22 -3 -41.5t-7.5 -36.5t-9.5 -30h-327l9 80h244q3 11 3.5 17.5t0.5 16.5q0 24 -7.5 44.5t-25 33t-47.5 12.5q-22 0 -48 -13t-48.5 -38.5t-37 -64t-14.5 -88.5
q0 -56 14.5 -86.5t41 -42t62.5 -11.5q29 0 55 9.5t47 24.5l38 -66q-30 -24 -71 -39t-91 -15zM316 570l-128 162l7 12h115l88 -174h-82z" />
    <glyph glyph-name="eacute" unicode="&#xe9;" horiz-adv-x="488" 
d="M236 -12q-93 0 -148 54.5t-55 153.5q0 69 23.5 125t62 97t86 63t95.5 22q58 0 92.5 -24t50 -65t15.5 -92q0 -22 -3 -41.5t-7.5 -36.5t-9.5 -30h-327l9 80h244q3 11 3.5 17.5t0.5 16.5q0 24 -7.5 44.5t-25 33t-47.5 12.5q-22 0 -48 -13t-48.5 -38.5t-37 -64t-14.5 -88.5
q0 -56 14.5 -86.5t41 -42t62.5 -11.5q29 0 55 9.5t47 24.5l38 -66q-30 -24 -71 -39t-91 -15zM230 570l154 174h123l7 -12l-194 -162h-90z" />
    <glyph glyph-name="ecircumflex" unicode="&#xea;" horiz-adv-x="488" 
d="M236 -12q-93 0 -148 54.5t-55 153.5q0 69 23.5 125t62 97t86 63t95.5 22q58 0 92.5 -24t50 -65t15.5 -92q0 -22 -3 -41.5t-7.5 -36.5t-9.5 -30h-327l9 80h244q3 11 3.5 17.5t0.5 16.5q0 24 -7.5 44.5t-25 33t-47.5 12.5q-22 0 -48 -13t-48.5 -38.5t-37 -64t-14.5 -88.5
q0 -56 14.5 -86.5t41 -42t62.5 -11.5q29 0 55 9.5t47 24.5l38 -66q-30 -24 -71 -39t-91 -15zM142 570l160 182h104l88 -182h-82l-66 101h-4l-110 -101h-90z" />
    <glyph glyph-name="uni1EBD" unicode="&#x1ebd;" horiz-adv-x="488" 
d="M236 -12q-93 0 -148 54.5t-55 153.5q0 69 23.5 125t62 97t86 63t95.5 22q58 0 92.5 -24t50 -65t15.5 -92q0 -22 -3 -41.5t-7.5 -36.5t-9.5 -30h-327l9 80h244q3 11 3.5 17.5t0.5 16.5q0 24 -7.5 44.5t-25 33t-47.5 12.5q-22 0 -48 -13t-48.5 -38.5t-37 -64t-14.5 -88.5
q0 -56 14.5 -86.5t41 -42t62.5 -11.5q29 0 55 9.5t47 24.5l38 -66q-30 -24 -71 -39t-91 -15zM405 575q-27 0 -45 11.5t-31 26t-26.5 26t-30.5 11.5q-19 0 -32 -17.5t-20 -50.5l-73 4q8 46 25 78t42.5 49t57.5 17q27 0 45 -11.5t31 -26t26.5 -25.5t30.5 -11q19 0 32.5 17.5
t19.5 49.5l73 -4q-9 -45 -25.5 -77t-41.5 -49.5t-58 -17.5z" />
    <glyph glyph-name="edieresis" unicode="&#xeb;" horiz-adv-x="488" 
d="M236 -12q-93 0 -148 54.5t-55 153.5q0 69 23.5 125t62 97t86 63t95.5 22q58 0 92.5 -24t50 -65t15.5 -92q0 -22 -3 -41.5t-7.5 -36.5t-9.5 -30h-327l9 80h244q3 11 3.5 17.5t0.5 16.5q0 24 -7.5 44.5t-25 33t-47.5 12.5q-22 0 -48 -13t-48.5 -38.5t-37 -64t-14.5 -88.5
q0 -56 14.5 -86.5t41 -42t62.5 -11.5q29 0 55 9.5t47 24.5l38 -66q-30 -24 -71 -39t-91 -15zM228 580q-22 0 -36 13t-14 37q0 26 18 45.5t45 19.5q21 0 35.5 -13.5t14.5 -37.5q0 -26 -18.5 -45t-44.5 -19zM426 580q-22 0 -36 13t-14 37q0 26 18.5 45.5t44.5 19.5
q22 0 36 -13.5t14 -37.5q0 -26 -18.5 -45t-44.5 -19z" />
    <glyph glyph-name="emacron" unicode="&#x113;" horiz-adv-x="488" 
d="M236 -12q-93 0 -148 54.5t-55 153.5q0 69 23.5 125t62 97t86 63t95.5 22q58 0 92.5 -24t50 -65t15.5 -92q0 -22 -3 -41.5t-7.5 -36.5t-9.5 -30h-327l9 80h244q3 11 3.5 17.5t0.5 16.5q0 24 -7.5 44.5t-25 33t-47.5 12.5q-22 0 -48 -13t-48.5 -38.5t-37 -64t-14.5 -88.5
q0 -56 14.5 -86.5t41 -42t62.5 -11.5q29 0 55 9.5t47 24.5l38 -66q-30 -24 -71 -39t-91 -15zM190 598l14 70h269l-13 -70h-270z" />
    <glyph glyph-name="ebreve" unicode="&#x115;" horiz-adv-x="488" 
d="M236 -12q-93 0 -148 54.5t-55 153.5q0 69 23.5 125t62 97t86 63t95.5 22q58 0 92.5 -24t50 -65t15.5 -92q0 -22 -3 -41.5t-7.5 -36.5t-9.5 -30h-327l9 80h244q3 11 3.5 17.5t0.5 16.5q0 24 -7.5 44.5t-25 33t-47.5 12.5q-22 0 -48 -13t-48.5 -38.5t-37 -64t-14.5 -88.5
q0 -56 14.5 -86.5t41 -42t62.5 -11.5q29 0 55 9.5t47 24.5l38 -66q-30 -24 -71 -39t-91 -15zM319 571q-46 0 -76 19t-45 54t-15 82l71 10q0 -26 8 -46.5t25.5 -32.5t46.5 -12t51 13t37 34t22 45l66 -11q-9 -41 -32.5 -76t-62.5 -57t-96 -22z" />
    <glyph glyph-name="edotaccent" unicode="&#x117;" horiz-adv-x="488" 
d="M236 -12q-93 0 -148 54.5t-55 153.5q0 69 23.5 125t62 97t86 63t95.5 22q58 0 92.5 -24t50 -65t15.5 -92q0 -22 -3 -41.5t-7.5 -36.5t-9.5 -30h-327l9 80h244q3 11 3.5 17.5t0.5 16.5q0 24 -7.5 44.5t-25 33t-47.5 12.5q-22 0 -48 -13t-48.5 -38.5t-37 -64t-14.5 -88.5
q0 -56 14.5 -86.5t41 -42t62.5 -11.5q29 0 55 9.5t47 24.5l38 -66q-30 -24 -71 -39t-91 -15zM328 578q-23 0 -42.5 14.5t-19.5 41.5q0 29 21.5 49.5t50.5 20.5q24 0 43 -14.5t19 -41.5q0 -30 -21 -50t-51 -20z" />
    <glyph glyph-name="ecaron" unicode="&#x11b;" horiz-adv-x="488" 
d="M236 -12q-93 0 -148 54.5t-55 153.5q0 69 23.5 125t62 97t86 63t95.5 22q58 0 92.5 -24t50 -65t15.5 -92q0 -22 -3 -41.5t-7.5 -36.5t-9.5 -30h-327l9 80h244q3 11 3.5 17.5t0.5 16.5q0 24 -7.5 44.5t-25 33t-47.5 12.5q-22 0 -48 -13t-48.5 -38.5t-37 -64t-14.5 -88.5
q0 -56 14.5 -86.5t41 -42t62.5 -11.5q29 0 55 9.5t47 24.5l38 -66q-30 -24 -71 -39t-91 -15zM272 570l-88 182h82l66 -101h4l110 101h90l-160 -182h-104z" />
    <glyph glyph-name="uni0205" unicode="&#x205;" horiz-adv-x="488" 
d="M236 -12q-93 0 -148 54.5t-55 153.5q0 69 23.5 125t62 97t86 63t95.5 22q58 0 92.5 -24t50 -65t15.5 -92q0 -22 -3 -41.5t-7.5 -36.5t-9.5 -30h-327l9 80h244q3 11 3.5 17.5t0.5 16.5q0 24 -7.5 44.5t-25 33t-47.5 12.5q-22 0 -48 -13t-48.5 -38.5t-37 -64t-14.5 -88.5
q0 -56 14.5 -86.5t41 -42t62.5 -11.5q29 0 55 9.5t47 24.5l38 -66q-30 -24 -71 -39t-91 -15zM202 570l-88 162l7 12h91l54 -174h-64zM370 570l-88 162l7 12h91l54 -174h-64z" />
    <glyph glyph-name="eogonek" unicode="&#x119;" horiz-adv-x="488" 
d="M256 -217q-37 0 -61.5 20t-24.5 58q0 40 27 75.5t68 65.5l9 -9q-8 -2 -18.5 -3.5t-19.5 -1.5q-93 0 -148 54.5t-55 153.5q0 69 23.5 125t62 97t86 63t95.5 22q58 0 92.5 -24t50 -65t15.5 -92q0 -22 -3 -41.5t-7.5 -36.5t-9.5 -30h-327l9 80h244q3 11 3.5 17.5t0.5 16.5
q0 24 -7.5 44.5t-25 33t-47.5 12.5q-22 0 -48 -13t-48.5 -38.5t-37 -64t-14.5 -88.5q0 -56 14.5 -86.5t41 -42t62.5 -11.5q29 0 55 9.5t47 24.5l38 -66q-77 -46 -108 -82t-31 -69q0 -17 10.5 -26.5t26.5 -9.5q12 0 21 3.5t19 9.5l23 -49q-22 -16 -47.5 -26t-55.5 -10z" />
    <glyph glyph-name="eogonek.d" horiz-adv-x="488" 
d="M191 -217q-37 0 -61 20t-24 58q0 28 15 55t39.5 49t53.5 36l22 -13q-93 0 -148 54.5t-55 153.5q0 69 23.5 125t62 97t86 63t95.5 22q58 0 92.5 -24t50 -65t15.5 -92q0 -22 -3 -41.5t-7.5 -36.5t-9.5 -30h-327l9 80h244q3 11 3.5 17.5t0.5 16.5q0 24 -7.5 44.5t-25 33
t-47.5 12.5q-22 0 -48 -13t-48.5 -38.5t-37 -64t-14.5 -88.5q0 -56 14.5 -86.5t41 -42t62.5 -11.5q29 0 55 9.5t47 24.5l38 -66q-26 -19 -47.5 -29t-51.5 -19q-57 -18 -81 -45.5t-24 -57.5q0 -17 10.5 -26.5t26.5 -9.5q13 0 22 3.5t19 9.5l22 -49q-21 -16 -46.5 -26
t-56.5 -10z" />
    <glyph glyph-name="uni1EB9" unicode="&#x1eb9;" horiz-adv-x="488" 
d="M236 -12q-93 0 -148 54.5t-55 153.5q0 69 23.5 125t62 97t86 63t95.5 22q58 0 92.5 -24t50 -65t15.5 -92q0 -22 -3 -41.5t-7.5 -36.5t-9.5 -30h-327l9 80h244q3 11 3.5 17.5t0.5 16.5q0 24 -7.5 44.5t-25 33t-47.5 12.5q-22 0 -48 -13t-48.5 -38.5t-37 -64t-14.5 -88.5
q0 -56 14.5 -86.5t41 -42t62.5 -11.5q29 0 55 9.5t47 24.5l38 -66q-30 -24 -71 -39t-91 -15zM181 -225q-23 0 -42.5 14.5t-19.5 41.5q0 29 21.5 49.5t50.5 20.5q24 0 43 -14.5t19 -41.5q0 -30 -21 -50t-51 -20z" />
    <glyph glyph-name="uni1EBB" unicode="&#x1ebb;" horiz-adv-x="488" 
d="M236 -12q-93 0 -148 54.5t-55 153.5q0 69 23.5 125t62 97t86 63t95.5 22q58 0 92.5 -24t50 -65t15.5 -92q0 -22 -3 -41.5t-7.5 -36.5t-9.5 -30h-327l9 80h244q3 11 3.5 17.5t0.5 16.5q0 24 -7.5 44.5t-25 33t-47.5 12.5q-22 0 -48 -13t-48.5 -38.5t-37 -64t-14.5 -88.5
q0 -56 14.5 -86.5t41 -42t62.5 -11.5q29 0 55 9.5t47 24.5l38 -66q-30 -24 -71 -39t-91 -15zM273 563l-5 48q30 7 45 20.5t15 33.5q0 19 -17.5 29t-53.5 12l19 66q73 -1 107 -22t34 -63q0 -49 -37.5 -83t-106.5 -41z" />
    <glyph glyph-name="uni1EBF" unicode="&#x1ebf;" horiz-adv-x="488" 
d="M236 -12q-93 0 -148 54.5t-55 153.5q0 69 23.5 125t62 97t86 63t95.5 22q58 0 92.5 -24t50 -65t15.5 -92q0 -22 -3 -41.5t-7.5 -36.5t-9.5 -30h-327l9 80h244q3 11 3.5 17.5t0.5 16.5q0 24 -7.5 44.5t-25 33t-47.5 12.5q-22 0 -48 -13t-48.5 -38.5t-37 -64t-14.5 -88.5
q0 -56 14.5 -86.5t41 -42t62.5 -11.5q29 0 55 9.5t47 24.5l38 -66q-30 -24 -71 -39t-91 -15zM154 570l146 148h95l87 -148h-75l-67 78h-3l-101 -78h-82zM442 668l87 124h86l7 -12l-120 -112h-60z" />
    <glyph glyph-name="uni1EC1" unicode="&#x1ec1;" horiz-adv-x="488" 
d="M236 -12q-93 0 -148 54.5t-55 153.5q0 69 23.5 125t62 97t86 63t95.5 22q58 0 92.5 -24t50 -65t15.5 -92q0 -22 -3 -41.5t-7.5 -36.5t-9.5 -30h-327l9 80h244q3 11 3.5 17.5t0.5 16.5q0 24 -7.5 44.5t-25 33t-47.5 12.5q-22 0 -48 -13t-48.5 -38.5t-37 -64t-14.5 -88.5
q0 -56 14.5 -86.5t41 -42t62.5 -11.5q29 0 55 9.5t47 24.5l38 -66q-30 -24 -71 -39t-91 -15zM154 570l146 148h95l87 -148h-75l-67 78h-3l-101 -78h-82zM182 668l-76 112l7 12h79l42 -124h-52z" />
    <glyph glyph-name="uni1EC3" unicode="&#x1ec3;" horiz-adv-x="488" 
d="M236 -12q-93 0 -148 54.5t-55 153.5q0 69 23.5 125t62 97t86 63t95.5 22q58 0 92.5 -24t50 -65t15.5 -92q0 -22 -3 -41.5t-7.5 -36.5t-9.5 -30h-327l9 80h244q3 11 3.5 17.5t0.5 16.5q0 24 -7.5 44.5t-25 33t-47.5 12.5q-22 0 -48 -13t-48.5 -38.5t-37 -64t-14.5 -88.5
q0 -56 14.5 -86.5t41 -42t62.5 -11.5q29 0 55 9.5t47 24.5l38 -66q-30 -24 -71 -39t-91 -15zM464 649l-4 43q21 4 31.5 14t10.5 24t-13.5 21.5t-46.5 9.5l15 65q60 0 92 -19t32 -56q0 -39 -32.5 -67t-84.5 -35zM154 570l146 148h95l87 -148h-75l-67 78h-3l-101 -78h-82z" />
    <glyph glyph-name="uni1EC5" unicode="&#x1ec5;" horiz-adv-x="488" 
d="M236 -12q-93 0 -148 54.5t-55 153.5q0 69 23.5 125t62 97t86 63t95.5 22q58 0 92.5 -24t50 -65t15.5 -92q0 -22 -3 -41.5t-7.5 -36.5t-9.5 -30h-327l9 80h244q3 11 3.5 17.5t0.5 16.5q0 24 -7.5 44.5t-25 33t-47.5 12.5q-22 0 -48 -13t-48.5 -38.5t-37 -64t-14.5 -88.5
q0 -56 14.5 -86.5t41 -42t62.5 -11.5q29 0 55 9.5t47 24.5l38 -66q-30 -24 -71 -39t-91 -15zM421 731q-30 0 -50 10.5t-36.5 21t-35.5 10.5q-17 0 -26.5 -9.5t-16.5 -30.5l-54 6q11 48 35.5 74t58.5 26q30 0 50 -10.5t36 -21t36 -10.5q17 0 26.5 10t16.5 30l54 -6
q-11 -48 -35 -74t-59 -26zM154 571l145 135h95l88 -135h-75l-68 65h-3l-100 -65h-82z" />
    <glyph glyph-name="uni1EC7" unicode="&#x1ec7;" horiz-adv-x="488" 
d="M236 -12q-93 0 -148 54.5t-55 153.5q0 69 23.5 125t62 97t86 63t95.5 22q58 0 92.5 -24t50 -65t15.5 -92q0 -22 -3 -41.5t-7.5 -36.5t-9.5 -30h-327l9 80h244q3 11 3.5 17.5t0.5 16.5q0 24 -7.5 44.5t-25 33t-47.5 12.5q-22 0 -48 -13t-48.5 -38.5t-37 -64t-14.5 -88.5
q0 -56 14.5 -86.5t41 -42t62.5 -11.5q29 0 55 9.5t47 24.5l38 -66q-30 -24 -71 -39t-91 -15zM142 570l160 182h104l88 -182h-82l-66 101h-4l-110 -101h-90zM181 -225q-23 0 -42.5 14.5t-19.5 41.5q0 29 21.5 49.5t50.5 20.5q24 0 43 -14.5t19 -41.5q0 -30 -21 -50t-51 -20z
" />
    <glyph glyph-name="uni1E17" unicode="&#x1e17;" horiz-adv-x="488" 
d="M236 -12q-93 0 -148 54.5t-55 153.5q0 69 23.5 125t62 97t86 63t95.5 22q58 0 92.5 -24t50 -65t15.5 -92q0 -22 -3 -41.5t-7.5 -36.5t-9.5 -30h-327l9 80h244q3 11 3.5 17.5t0.5 16.5q0 24 -7.5 44.5t-25 33t-47.5 12.5q-22 0 -48 -13t-48.5 -38.5t-37 -64t-14.5 -88.5
q0 -56 14.5 -86.5t41 -42t62.5 -11.5q29 0 55 9.5t47 24.5l38 -66q-30 -24 -71 -39t-91 -15zM190 600l14 71h269l-13 -71h-270zM286 724l111 124h98l7 -12l-144 -112h-72z" />
    <glyph glyph-name="uni01DD" unicode="&#x1dd;" horiz-adv-x="488" 
d="M195 -12q-61 0 -98 24t-53.5 65t-16.5 92q0 23 3 43.5t7.5 38.5t9.5 31h327l-9 -80h-244q-4 -12 -4 -19.5v-19.5q0 -24 8.5 -44.5t28.5 -33t53 -12.5q23 0 47 13t45 38.5t33.5 64t12.5 88.5q0 57 -12 87.5t-34 42t-54 11.5q-27 0 -52.5 -9.5t-48.5 -24.5l-38 64
q30 24 71.5 39.5t90.5 15.5q86 0 135 -54t49 -154q0 -69 -21.5 -125t-58.5 -97t-83 -63t-94 -22z" />
    <glyph glyph-name="uni1E1F" unicode="&#x1e1f;" horiz-adv-x="305" 
d="M40 0l81 406h-68l17 80l69 5l11 57q10 50 32 88t57 60t84 22q28 0 52.5 -6.5t44.5 -18.5l-35 -74q-9 6 -23 9.5t-30 3.5q-29 0 -47.5 -19.5t-27.5 -61.5l-12 -60h93l-17 -85h-94l-80 -406h-107zM327 751q-23 0 -42 14.5t-19 41.5q0 29 21 49.5t51 20.5q24 0 42.5 -14.5
t18.5 -42.5q0 -29 -21 -49t-51 -20z" />
    <glyph glyph-name="uni01F5" unicode="&#x1f5;" horiz-adv-x="538" 
d="M174 -211q-45 0 -91 16t-84 52l47 67q27 -22 61 -35.5t71 -13.5q53 0 87.5 31t47.5 86l25 95q-35 -36 -75.5 -56.5t-84.5 -20.5q-62 0 -102.5 43.5t-40.5 129.5q0 67 21.5 125t58 102t82.5 68.5t96 24.5q36 0 65.5 -18.5t45.5 -50.5h3l21 57h87l-100 -498
q-20 -102 -82 -153t-159 -51zM217 99q29 0 64 17.5t63 56.5l37 182q-17 32 -38 46t-44 14q-30 0 -57.5 -17.5t-49 -47.5t-34 -69.5t-12.5 -83.5q0 -49 19.5 -73.5t51.5 -24.5zM231 570l154 174h123l7 -12l-194 -162h-90z" />
    <glyph glyph-name="gcircumflex" unicode="&#x11d;" horiz-adv-x="538" 
d="M174 -211q-45 0 -91 16t-84 52l47 67q27 -22 61 -35.5t71 -13.5q53 0 87.5 31t47.5 86l25 95q-35 -36 -75.5 -56.5t-84.5 -20.5q-62 0 -102.5 43.5t-40.5 129.5q0 67 21.5 125t58 102t82.5 68.5t96 24.5q36 0 65.5 -18.5t45.5 -50.5h3l21 57h87l-100 -498
q-20 -102 -82 -153t-159 -51zM217 99q29 0 64 17.5t63 56.5l37 182q-17 32 -38 46t-44 14q-30 0 -57.5 -17.5t-49 -47.5t-34 -69.5t-12.5 -83.5q0 -49 19.5 -73.5t51.5 -24.5zM143 570l160 182h104l88 -182h-82l-66 101h-4l-110 -101h-90z" />
    <glyph glyph-name="uni1E21" unicode="&#x1e21;" horiz-adv-x="538" 
d="M174 -211q-45 0 -91 16t-84 52l47 67q27 -22 61 -35.5t71 -13.5q53 0 87.5 31t47.5 86l25 95q-35 -36 -75.5 -56.5t-84.5 -20.5q-62 0 -102.5 43.5t-40.5 129.5q0 67 21.5 125t58 102t82.5 68.5t96 24.5q36 0 65.5 -18.5t45.5 -50.5h3l21 57h87l-100 -498
q-20 -102 -82 -153t-159 -51zM217 99q29 0 64 17.5t63 56.5l37 182q-17 32 -38 46t-44 14q-30 0 -57.5 -17.5t-49 -47.5t-34 -69.5t-12.5 -83.5q0 -49 19.5 -73.5t51.5 -24.5zM191 598l14 70h269l-13 -70h-270z" />
    <glyph glyph-name="gbreve" unicode="&#x11f;" horiz-adv-x="538" 
d="M174 -211q-45 0 -91 16t-84 52l47 67q27 -22 61 -35.5t71 -13.5q53 0 87.5 31t47.5 86l25 95q-35 -36 -75.5 -56.5t-84.5 -20.5q-62 0 -102.5 43.5t-40.5 129.5q0 67 21.5 125t58 102t82.5 68.5t96 24.5q36 0 65.5 -18.5t45.5 -50.5h3l21 57h87l-100 -498
q-20 -102 -82 -153t-159 -51zM217 99q29 0 64 17.5t63 56.5l37 182q-17 32 -38 46t-44 14q-30 0 -57.5 -17.5t-49 -47.5t-34 -69.5t-12.5 -83.5q0 -49 19.5 -73.5t51.5 -24.5zM320 571q-46 0 -76 19t-45 54t-15 82l71 10q0 -26 8 -46.5t25.5 -32.5t46.5 -12t51 13t37 34
t22 45l66 -11q-9 -41 -32.5 -76t-62.5 -57t-96 -22z" />
    <glyph glyph-name="gdotaccent" unicode="&#x121;" horiz-adv-x="538" 
d="M174 -211q-45 0 -91 16t-84 52l47 67q27 -22 61 -35.5t71 -13.5q53 0 87.5 31t47.5 86l25 95q-35 -36 -75.5 -56.5t-84.5 -20.5q-62 0 -102.5 43.5t-40.5 129.5q0 67 21.5 125t58 102t82.5 68.5t96 24.5q36 0 65.5 -18.5t45.5 -50.5h3l21 57h87l-100 -498
q-20 -102 -82 -153t-159 -51zM217 99q29 0 64 17.5t63 56.5l37 182q-17 32 -38 46t-44 14q-30 0 -57.5 -17.5t-49 -47.5t-34 -69.5t-12.5 -83.5q0 -49 19.5 -73.5t51.5 -24.5zM329 578q-23 0 -42.5 14.5t-19.5 41.5q0 29 21.5 49.5t50.5 20.5q24 0 43 -14.5t19 -41.5
q0 -30 -21 -50t-51 -20z" />
    <glyph glyph-name="gcaron" unicode="&#x1e7;" horiz-adv-x="538" 
d="M174 -211q-45 0 -91 16t-84 52l47 67q27 -22 61 -35.5t71 -13.5q53 0 87.5 31t47.5 86l25 95q-35 -36 -75.5 -56.5t-84.5 -20.5q-62 0 -102.5 43.5t-40.5 129.5q0 67 21.5 125t58 102t82.5 68.5t96 24.5q36 0 65.5 -18.5t45.5 -50.5h3l21 57h87l-100 -498
q-20 -102 -82 -153t-159 -51zM217 99q29 0 64 17.5t63 56.5l37 182q-17 32 -38 46t-44 14q-30 0 -57.5 -17.5t-49 -47.5t-34 -69.5t-12.5 -83.5q0 -49 19.5 -73.5t51.5 -24.5zM273 570l-88 182h82l66 -101h4l110 101h90l-160 -182h-104z" />
    <glyph glyph-name="uni0123" unicode="&#x123;" horiz-adv-x="538" 
d="M174 -211q-45 0 -91 16t-84 52l47 67q27 -22 61 -35.5t71 -13.5q53 0 87.5 31t47.5 86l25 95q-35 -36 -75.5 -56.5t-84.5 -20.5q-62 0 -102.5 43.5t-40.5 129.5q0 67 21.5 125t58 102t82.5 68.5t96 24.5q36 0 65.5 -18.5t45.5 -50.5h3l21 57h87l-100 -498
q-20 -102 -82 -153t-159 -51zM217 99q29 0 64 17.5t63 56.5l37 182q-17 32 -38 46t-44 14q-30 0 -57.5 -17.5t-49 -47.5t-34 -69.5t-12.5 -83.5q0 -49 19.5 -73.5t51.5 -24.5zM362 572q-47 4 -72.5 13t-34.5 23.5t-9 33.5q0 36 26 59.5t71.5 35.5t103.5 13l-1 -49
q-59 -2 -86 -15t-27 -33q0 -14 13.5 -24t46.5 -11z" />
    <glyph glyph-name="uni01E5" unicode="&#x1e5;" horiz-adv-x="561" 
d="M250 224l16 74l108 6h190l-16 -80h-298zM174 -211q-45 0 -91 16t-84 52l47 67q27 -22 61 -35.5t71 -13.5q53 0 87.5 31t47.5 86l25 95q-35 -36 -75.5 -56.5t-84.5 -20.5q-62 0 -102.5 43.5t-40.5 129.5q0 67 21.5 125t58 102t82.5 68.5t96 24.5q36 0 65.5 -18.5
t45.5 -50.5h3l21 57h87l-100 -498q-20 -102 -82 -153t-159 -51zM217 99q29 0 64 17.5t63 56.5l37 182q-17 32 -38 46t-44 14q-30 0 -57.5 -17.5t-49 -47.5t-34 -69.5t-12.5 -83.5q0 -49 19.5 -73.5t51.5 -24.5z" />
    <glyph glyph-name="uni00670303" horiz-adv-x="538" 
d="M174 -211q-45 0 -91 16t-84 52l47 67q27 -22 61 -35.5t71 -13.5q53 0 87.5 31t47.5 86l25 95q-35 -36 -75.5 -56.5t-84.5 -20.5q-62 0 -102.5 43.5t-40.5 129.5q0 67 21.5 125t58 102t82.5 68.5t96 24.5q36 0 65.5 -18.5t45.5 -50.5h3l21 57h87l-100 -498
q-20 -102 -82 -153t-159 -51zM217 99q29 0 64 17.5t63 56.5l37 182q-17 32 -38 46t-44 14q-30 0 -57.5 -17.5t-49 -47.5t-34 -69.5t-12.5 -83.5q0 -49 19.5 -73.5t51.5 -24.5zM406 575q-27 0 -45 11.5t-31 26t-26.5 26t-30.5 11.5q-19 0 -32 -17.5t-20 -50.5l-73 4
q8 46 25 78t42.5 49t57.5 17q27 0 45 -11.5t31 -26t26.5 -25.5t30.5 -11q19 0 32.5 17.5t19.5 49.5l73 -4q-9 -45 -25.5 -77t-41.5 -49.5t-58 -17.5z" />
    <glyph glyph-name="uni0260" unicode="&#x260;" horiz-adv-x="548" 
d="M174 -211q-46 0 -91 17t-84 51l47 69q28 -21 61 -36t71 -15q54 0 88 31.5t47 85.5l25 95q-35 -36 -75.5 -56.5t-84.5 -20.5q-62 0 -102.5 43.5t-40.5 129.5q0 67 21.5 125t58 101.5t82.5 68.5t96 25q36 0 64 -17.5t44 -47.5h3l26 126q9 45 30 80t56 54.5t86 19.5
q15 0 30 -3.5t24 -8.5l-31 -80q-5 2 -12.5 4t-14.5 2q-26 0 -43.5 -20t-26.5 -60l-113 -559q-20 -101 -82 -152.5t-159 -51.5zM217 99q30 0 64.5 17.5t62.5 56.5l37 182q-17 32 -38 46t-44 14q-30 0 -57.5 -17.5t-49 -48t-34 -69.5t-12.5 -83q0 -50 19.5 -74t51.5 -24z" />
    <glyph glyph-name="hcircumflex" unicode="&#x125;" horiz-adv-x="535" 
d="M22 0l142 706h107l-43 -208l-19 -71h4q37 32 77.5 54t84.5 22q62 0 89 -32.5t27 -91.5q0 -17 -1.5 -33.5t-6.5 -35.5l-62 -310h-107l60 296q3 18 5.5 29.5t2.5 22.5q0 32 -15 47.5t-47 15.5q-25 0 -55 -18t-69 -58l-66 -335h-108zM236 744l154 144h98l104 -144h-90
l-68 71h-4l-102 -71h-92z" />
    <glyph glyph-name="uni1E27" unicode="&#x1e27;" horiz-adv-x="535" 
d="M22 0l142 706h107l-43 -208l-19 -71h4q37 32 77.5 54t84.5 22q62 0 89 -32.5t27 -91.5q0 -17 -1.5 -33.5t-6.5 -35.5l-62 -310h-107l60 296q3 18 5.5 29.5t2.5 22.5q0 32 -15 47.5t-47 15.5q-25 0 -55 -18t-69 -58l-66 -335h-108zM313 747q-21 0 -35.5 13t-14.5 37
q0 26 18.5 45t44.5 19q22 0 36 -13t14 -37q0 -27 -18 -45.5t-45 -18.5zM520 747q-21 0 -35.5 13t-14.5 37q0 26 18.5 45t45.5 19q21 0 35.5 -13t14.5 -37q0 -27 -18.5 -45.5t-45.5 -18.5z" />
    <glyph glyph-name="uni1E23" unicode="&#x1e23;" horiz-adv-x="535" 
d="M22 0l142 706h107l-43 -208l-19 -71h4q37 32 77.5 54t84.5 22q62 0 89 -32.5t27 -91.5q0 -17 -1.5 -33.5t-6.5 -35.5l-62 -310h-107l60 296q3 18 5.5 29.5t2.5 22.5q0 32 -15 47.5t-47 15.5q-25 0 -55 -18t-69 -58l-66 -335h-108zM421 748q-23 0 -42 14.5t-19 41.5
q0 29 21 49.5t51 20.5q24 0 42.5 -14.5t18.5 -42.5q0 -29 -21 -49t-51 -20z" />
    <glyph glyph-name="uni021F" unicode="&#x21f;" horiz-adv-x="535" 
d="M22 0l142 706h107l-43 -208l-19 -71h4q37 32 77.5 54t84.5 22q62 0 89 -32.5t27 -91.5q0 -17 -1.5 -33.5t-6.5 -35.5l-62 -310h-107l60 296q3 18 5.5 29.5t2.5 22.5q0 32 -15 47.5t-47 15.5q-25 0 -55 -18t-69 -58l-66 -335h-108zM362 744l-102 144h90l67 -71h4l103 71
h92l-154 -144h-100z" />
    <glyph glyph-name="uni1E25" unicode="&#x1e25;" horiz-adv-x="535" 
d="M22 0l142 706h107l-43 -208l-19 -71h4q37 32 77.5 54t84.5 22q62 0 89 -32.5t27 -91.5q0 -17 -1.5 -33.5t-6.5 -35.5l-62 -310h-107l60 296q3 18 5.5 29.5t2.5 22.5q0 32 -15 47.5t-47 15.5q-25 0 -55 -18t-69 -58l-66 -335h-108zM190 -225q-23 0 -42.5 14.5t-19.5 41.5
q0 29 21.5 49.5t50.5 20.5q24 0 43 -14.5t19 -41.5q0 -30 -21 -50t-51 -20z" />
    <glyph glyph-name="uni1E29" unicode="&#x1e29;" horiz-adv-x="535" 
d="M22 0l142 706h107l-43 -208l-19 -71h4q37 32 77.5 54t84.5 22q62 0 89 -32.5t27 -91.5q0 -17 -1.5 -33.5t-6.5 -35.5l-62 -310h-107l60 296q3 18 5.5 29.5t2.5 22.5q0 32 -15 47.5t-47 15.5q-25 0 -55 -18t-69 -58l-66 -335h-108zM-63 -233l-1 49q59 3 85.5 15t29.5 35
q1 17 -14 27t-55 15l63 95h70l-41 -66q37 -9 51 -25t11 -43q-6 -50 -58.5 -74.5t-140.5 -27.5z" />
    <glyph glyph-name="uni1E2B" unicode="&#x1e2b;" horiz-adv-x="535" 
d="M22 0l142 706h107l-43 -208l-19 -71h4q37 32 77.5 54t84.5 22q62 0 89 -32.5t27 -91.5q0 -17 -1.5 -33.5t-6.5 -35.5l-62 -310h-107l60 296q3 18 5.5 29.5t2.5 22.5q0 32 -15 47.5t-47 15.5q-25 0 -55 -18t-69 -58l-66 -335h-108zM180 -234q-46 0 -76 19t-45 54t-15 82
l71 10q0 -26 8 -46.5t25.5 -32.5t46.5 -12t51 13t37 34t22 45l66 -11q-9 -41 -32.5 -76t-62.5 -57t-96 -22z" />
    <glyph glyph-name="uni1E96" unicode="&#x1e96;" horiz-adv-x="535" 
d="M22 0l142 706h107l-43 -208l-19 -71h4q37 32 77.5 54t84.5 22q62 0 89 -32.5t27 -91.5q0 -17 -1.5 -33.5t-6.5 -35.5l-62 -310h-107l60 296q3 18 5.5 29.5t2.5 22.5q0 32 -15 47.5t-47 15.5q-25 0 -55 -18t-69 -58l-66 -335h-108zM60 -163l14 70h269l-13 -70h-270z" />
    <glyph glyph-name="hbar" unicode="&#x127;" horiz-adv-x="543" 
d="M30 0l142 706h107l-50 -247l-19 -71h4q37 32 77 54t84 22q62 0 89.5 -32.5t27.5 -91.5q0 -17 -2 -33.5t-6 -35.5l-55 -271h-107l52 257q4 17 6 29t2 23q0 32 -15 47.5t-46 15.5q-26 0 -56 -18.5t-69 -57.5l-58 -296h-108zM62 542l14 74l80 6h276l-16 -80h-354z" />
    <glyph glyph-name="igrave" unicode="&#xec;" horiz-adv-x="251" 
d="M22 0l99 491h107l-98 -491h-108zM186 570l-128 162l7 12h115l88 -174h-82z" />
    <glyph glyph-name="iacute" unicode="&#xed;" horiz-adv-x="251" 
d="M22 0l99 491h107l-98 -491h-108zM100 570l154 174h123l7 -12l-194 -162h-90z" />
    <glyph glyph-name="icircumflex" unicode="&#xee;" horiz-adv-x="251" 
d="M22 0l99 491h107l-98 -491h-108zM12 570l160 182h104l88 -182h-82l-66 101h-4l-110 -101h-90z" />
    <glyph glyph-name="itilde" unicode="&#x129;" horiz-adv-x="251" 
d="M22 0l99 491h107l-98 -491h-108zM275 575q-27 0 -45 11.5t-31 26t-26.5 26t-30.5 11.5q-19 0 -32 -17.5t-20 -50.5l-73 4q8 46 25 78t42.5 49t57.5 17q27 0 45 -11.5t31 -26t26.5 -25.5t30.5 -11q19 0 32.5 17.5t19.5 49.5l73 -4q-9 -45 -25.5 -77t-41.5 -49.5t-58 -17.5
z" />
    <glyph glyph-name="idieresis" unicode="&#xef;" horiz-adv-x="251" 
d="M22 0l99 491h107l-98 -491h-108zM98 580q-22 0 -36 13t-14 37q0 26 18 45.5t45 19.5q21 0 35.5 -13.5t14.5 -37.5q0 -26 -18.5 -45t-44.5 -19zM296 580q-22 0 -36 13t-14 37q0 26 18.5 45.5t44.5 19.5q22 0 36 -13.5t14 -37.5q0 -26 -18.5 -45t-44.5 -19z" />
    <glyph glyph-name="imacron" unicode="&#x12b;" horiz-adv-x="251" 
d="M22 0l99 491h107l-98 -491h-108zM60 598l14 70h269l-13 -70h-270z" />
    <glyph glyph-name="ibreve" unicode="&#x12d;" horiz-adv-x="251" 
d="M22 0l99 491h107l-98 -491h-108zM189 571q-46 0 -76 19t-45 54t-15 82l71 10q0 -26 8 -46.5t25.5 -32.5t46.5 -12t51 13t37 34t22 45l66 -11q-9 -41 -32.5 -76t-62.5 -57t-96 -22z" />
    <glyph glyph-name="uni1ECB" unicode="&#x1ecb;" horiz-adv-x="251" 
d="M22 0l99 491h107l-98 -491h-108zM198 578q-23 0 -42.5 14.5t-19.5 41.5q0 29 21.5 49.5t50.5 20.5q24 0 43 -14.5t19 -41.5q0 -30 -21 -50t-51 -20zM40 -225q-23 0 -42.5 14.5t-19.5 41.5q0 29 21.5 49.5t50.5 20.5q24 0 43 -14.5t19 -41.5q0 -30 -21 -50t-51 -20z" />
    <glyph glyph-name="uni01D0" unicode="&#x1d0;" horiz-adv-x="251" 
d="M22 0l99 491h107l-98 -491h-108zM142 570l-88 182h82l66 -101h4l110 101h90l-160 -182h-104z" />
    <glyph glyph-name="uni0209" unicode="&#x209;" horiz-adv-x="251" 
d="M22 0l99 491h107l-98 -491h-108zM72 570l-88 162l7 12h91l54 -174h-64zM240 570l-88 162l7 12h91l54 -174h-64z" />
    <glyph glyph-name="iogonek" unicode="&#x12f;" horiz-adv-x="251" 
d="M40 -217q-37 0 -61.5 20t-24.5 58q0 26 13.5 51.5t35.5 48t48 39.5h-29l99 491h107l-98 -491q-43 -23 -65 -51t-22 -58q0 -17 11 -26.5t26 -9.5q13 0 21.5 3.5t18.5 9.5l23 -49q-21 -16 -46.5 -26t-56.5 -10zM198 578q-23 0 -42.5 14.5t-19.5 41.5q0 29 21.5 49.5
t50.5 20.5q24 0 43 -14.5t19 -41.5q0 -30 -21 -50t-51 -20z" />
    <glyph glyph-name="uni1EC9" unicode="&#x1ec9;" horiz-adv-x="251" 
d="M22 0l99 491h107l-98 -491h-108zM143 563l-5 48q30 7 45 20.5t15 33.5q0 19 -17.5 29t-53.5 12l19 66q73 -1 107 -22t34 -63q0 -49 -37.5 -83t-106.5 -41z" />
    <glyph glyph-name="uni0268" unicode="&#x268;" horiz-adv-x="306" 
d="M12 214l14 74l88 6h192l-16 -80h-278zM54 0l99 491h107l-98 -491h-108zM230 596q-23 0 -42.5 14.5t-19.5 41.5q0 29 21.5 49.5t50.5 20.5q24 0 43 -14.5t19 -41.5q0 -30 -21 -50t-51 -20z" />
    <glyph glyph-name="dotlessi" unicode="&#x131;" horiz-adv-x="251" 
d="M22 0l99 491h107l-98 -491h-108z" />
    <glyph glyph-name="ij" unicode="&#x133;" horiz-adv-x="504" 
d="M22 0l99 491h107l-98 -491h-108zM198 578q-23 0 -42.5 14.5t-19.5 41.5q0 29 21.5 49.5t50.5 20.5q24 0 43 -14.5t19 -41.5q0 -30 -21 -50t-51 -20zM209 -206q-23 0 -44 4.5t-39 15.5l29 76q11 -5 22 -7.5t24 -2.5q27 0 41.5 21t24.5 63l106 527h107l-106 -530
q-10 -47 -30 -85t-53 -60t-82 -22zM449 578q-23 0 -42.5 14.5t-19.5 41.5q0 29 21.5 49.5t50.5 20.5q24 0 43 -14.5t19 -41.5q0 -30 -21 -50t-51 -20z" />
    <glyph glyph-name="jcircumflex" unicode="&#x135;" horiz-adv-x="252" 
d="M-42 -206q-23 0 -44 4.5t-39 15.5l29 76q11 -5 22 -7.5t24 -2.5q27 0 41.5 21t24.5 63l106 527h107l-106 -530q-10 -47 -30 -85t-53 -60t-82 -22zM12 570l160 182h104l88 -182h-82l-66 101h-4l-110 -101h-90z" />
    <glyph glyph-name="uni01F0" unicode="&#x1f0;" horiz-adv-x="252" 
d="M-42 -206q-23 0 -44 4.5t-39 15.5l29 76q11 -5 22 -7.5t24 -2.5q27 0 41.5 21t24.5 63l106 527h107l-106 -530q-10 -47 -30 -85t-53 -60t-82 -22zM142 570l-88 182h82l66 -101h4l110 101h90l-160 -182h-104z" />
    <glyph glyph-name="uni0249" unicode="&#x249;" horiz-adv-x="316" 
d="M18 214l14 74l90 6h192l-16 -80h-280zM-4 -206q-23 0 -44 4.5t-39 15.5l29 76q11 -5 22 -7.5t24 -2.5q27 0 41.5 21t24.5 63l106 527h107l-106 -530q-10 -47 -30 -85t-53 -60t-82 -22zM230 578q-23 0 -42.5 14.5t-19.5 41.5q0 29 21.5 49.5t50.5 20.5q24 0 43 -14.5
t19 -41.5q0 -30 -21 -50t-51 -20z" />
    <glyph glyph-name="uni0237" unicode="&#x237;" horiz-adv-x="252" 
d="M-42 -206q-23 0 -44 4.5t-39 15.5l29 76q11 -5 22 -7.5t24 -2.5q27 0 41.5 21t24.5 63l106 527h107l-106 -530q-10 -47 -30 -85t-53 -60t-82 -22z" />
    <glyph glyph-name="uni0137" unicode="&#x137;" horiz-adv-x="501" 
d="M22 0l142 706h107l-89 -444h4l217 229h120l-198 -210l117 -281h-108l-84 218l-96 -97l-24 -121h-108zM96 -233v49q59 3 85.5 16t26.5 32q0 15 -13.5 24.5t-45.5 11.5l30 45q48 -3 73 -12t34 -23.5t9 -33.5q0 -36 -25.5 -59.5t-70.5 -35.5t-103 -14z" />
    <glyph glyph-name="uni1E33" unicode="&#x1e33;" horiz-adv-x="501" 
d="M22 0l142 706h107l-89 -444h4l217 229h120l-198 -210l117 -281h-108l-84 218l-96 -97l-24 -121h-108zM194 -228q-23 0 -42.5 14.5t-19.5 41.5q0 29 21.5 49.5t50.5 20.5q24 0 43 -14.5t19 -41.5q0 -30 -21 -50t-51 -20z" />
    <glyph glyph-name="uni1E35" unicode="&#x1e35;" horiz-adv-x="501" 
d="M22 0l142 706h107l-89 -444h4l217 229h120l-198 -210l117 -281h-108l-84 218l-96 -97l-24 -121h-108zM64 -166l14 70h269l-13 -70h-270z" />
    <glyph glyph-name="kgreenlandic" unicode="&#x138;" horiz-adv-x="501" 
d="M22 0l98 491h107l-45 -229h4l217 229h120l-198 -210l117 -281h-108l-84 218l-96 -97l-24 -121h-108z" />
    <glyph glyph-name="lacute" unicode="&#x13a;" horiz-adv-x="262" 
d="M129 -10q-47 0 -68 21.5t-21 58.5q0 11 1.5 23t5.5 28l117 585h107l-118 -589q-1 -8 -1.5 -13t-0.5 -10q0 -17 16 -17q3 0 6 0.5l9 1.5l6 -77q-13 -5 -27.5 -8.5t-31.5 -3.5zM134 754l148 144h133l7 -12l-196 -132h-92z" />
    <glyph glyph-name="lcaron" unicode="&#x13e;" horiz-adv-x="264" 
d="M129 -10q-47 0 -68 21.5t-21 58.5q0 11 1.5 23t5.5 28l117 585h107l-118 -589q-1 -8 -1.5 -13t-0.5 -10q0 -17 16 -17q3 0 6 0.5l9 1.5l6 -77q-13 -5 -27.5 -8.5t-31.5 -3.5zM285 548l40 217h71l-13 -63l-49 -154h-49z" />
    <glyph glyph-name="uni013C" unicode="&#x13c;" horiz-adv-x="262" 
d="M129 -10q-47 0 -68 21.5t-21 58.5q0 11 1.5 23t5.5 28l117 585h107l-118 -589q-1 -8 -1.5 -13t-0.5 -10q0 -17 16 -17q3 0 6 0.5l9 1.5l6 -77q-13 -5 -27.5 -8.5t-31.5 -3.5zM-32 -230v49q59 3 85.5 16t26.5 32q0 15 -13.5 24.5t-45.5 11.5l30 45q48 -3 73 -12t34 -23.5
t9 -33.5q0 -36 -25.5 -59.5t-70.5 -35.5t-103 -14z" />
    <glyph glyph-name="uni1E37" unicode="&#x1e37;" horiz-adv-x="262" 
d="M129 -10q-47 0 -68 21.5t-21 58.5q0 11 1.5 23t5.5 28l117 585h107l-118 -589q-1 -8 -1.5 -13t-0.5 -10q0 -17 16 -17q3 0 6 0.5l9 1.5l6 -77q-13 -5 -27.5 -8.5t-31.5 -3.5zM68 -225q-23 0 -42.5 14.5t-19.5 41.5q0 29 21.5 49.5t50.5 20.5q24 0 43 -14.5t19 -41.5
q0 -30 -21 -50t-51 -20z" />
    <glyph glyph-name="uni1E39" unicode="&#x1e39;" horiz-adv-x="262" 
d="M129 -10q-47 0 -68 21.5t-21 58.5q0 11 1.5 23t5.5 28l117 585h107l-118 -589q-1 -8 -1.5 -13t-0.5 -10q0 -17 16 -17q3 0 6 0.5l9 1.5l6 -77q-13 -5 -27.5 -8.5t-31.5 -3.5zM90 779l14 71h272l-14 -71h-272zM68 -228q-23 0 -42.5 14.5t-19.5 41.5q0 29 21.5 49.5
t50.5 20.5q24 0 43 -14.5t19 -41.5q0 -30 -21 -50t-51 -20z" />
    <glyph glyph-name="uni1E3B" unicode="&#x1e3b;" horiz-adv-x="262" 
d="M129 -10q-47 0 -68 21.5t-21 58.5q0 11 1.5 23t5.5 28l117 585h107l-118 -589q-1 -8 -1.5 -13t-0.5 -10q0 -17 16 -17q3 0 6 0.5l9 1.5l6 -77q-13 -5 -27.5 -8.5t-31.5 -3.5zM-62 -163l14 70h269l-13 -70h-270z" />
    <glyph glyph-name="lslash" unicode="&#x142;" horiz-adv-x="314" 
d="M34 288l-30 76l138 58l102 44l102 42l28 -76l-148 -60l-102 -44zM157 -10q-47 0 -68 21.5t-21 58.5q0 11 1.5 23t5.5 28l117 585h107l-118 -589q-1 -8 -1.5 -13t-0.5 -10q0 -17 16 -17q3 0 6 0.5l9 1.5l6 -77q-13 -5 -27.5 -8.5t-31.5 -3.5z" />
    <glyph glyph-name="uni019A" unicode="&#x19a;" horiz-adv-x="326" 
d="M32 342l14 74l94 6h198l-15 -80h-291zM161 -10q-47 0 -68 21.5t-21 58.5q0 11 1.5 23t5.5 28l117 585h107l-118 -589q-1 -8 -1.5 -13t-0.5 -10q0 -17 16 -17q3 0 6 0.5l9 1.5l6 -77q-13 -5 -27.5 -8.5t-31.5 -3.5z" />
    <glyph glyph-name="uni2C61" unicode="&#x2c61;" horiz-adv-x="326" 
d="M46 414l12 58l94 6h198l-14 -64h-290zM20 286l12 58l94 6h198l-14 -64h-290zM161 -10q-47 0 -68 21.5t-21 58.5q0 11 1.5 23t5.5 28l117 585h107l-118 -589q-1 -8 -1.5 -13t-0.5 -10q0 -17 16 -17q3 0 6 0.5l9 1.5l6 -77q-13 -5 -27.5 -8.5t-31.5 -3.5z" />
    <glyph glyph-name="uni026B" unicode="&#x26b;" horiz-adv-x="375" 
d="M189 -10q-47 0 -68 21.5t-21 58.5q0 11 1.5 23t5.5 28l117 585h107l-118 -589q-1 -8 -1.5 -13t-0.5 -10q0 -17 16 -17q3 0 6 0.5l9 1.5l6 -77q-13 -5 -27.5 -8.5t-31.5 -3.5zM298 305q-28 0 -50.5 11t-42.5 26t-39 26t-39 11q-19 0 -31.5 -17t-21.5 -48l-59 16
q9 36 24 62.5t36 41t47 14.5q27 0 49.5 -11.5t43 -26t39 -26t38.5 -11.5t32.5 17.5t20.5 47.5l59 -15q-8 -36 -23.5 -62.5t-36.5 -41t-46 -14.5z" />
    <glyph glyph-name="uni026C" unicode="&#x26c;" horiz-adv-x="360" 
d="M138 298q-60 0 -91 31t-31 77q0 33 24 61.5t66 28.5q36 0 55.5 -17t27 -41t7.5 -46l-42 -14q0 23 -10 40.5t-31 17.5q-14 0 -21.5 -8t-7.5 -20q0 -13 11.5 -21.5t36.5 -8.5h238l-14 -80h-218zM78 0l142 706h107l-141 -706h-108z" />
    <glyph glyph-name="ldot" unicode="&#x140;" horiz-adv-x="377" 
d="M129 -10q-47 0 -68 21.5t-21 58.5q0 11 1.5 23t5.5 28l117 585h107l-118 -589q-1 -8 -1.5 -13t-0.5 -10q0 -17 16 -17q3 0 6 0.5l9 1.5l6 -77q-13 -5 -27.5 -8.5t-31.5 -3.5zM319 259q-26 0 -42.5 17.5t-16.5 44.5q0 21 11 41t29.5 32.5t42.5 12.5q27 0 42.5 -18
t15.5 -45q0 -21 -10 -40.5t-28.5 -32t-43.5 -12.5z" />
    <glyph glyph-name="uni1E3F" unicode="&#x1e3f;" horiz-adv-x="813" 
d="M22 0l99 491h87l-4 -69h4q37 33 78 57t80 24q57 0 81.5 -25.5t32.5 -65.5q44 42 87.5 66.5t82.5 24.5q61 0 88.5 -32.5t27.5 -91.5q0 -17 -2 -33.5t-6 -35.5l-62 -310h-108l60 296q4 18 6 29.5t2 22.5q0 32 -15 47.5t-45 15.5q-19 0 -49 -18t-68 -58l-67 -335h-107
l59 296q4 18 6 29.5t2 22.5q0 32 -14.5 47.5t-44.5 15.5q-19 0 -49.5 -18t-67.5 -58l-66 -335h-108zM398 570l154 174h123l7 -12l-194 -162h-90z" />
    <glyph glyph-name="uni1E41" unicode="&#x1e41;" horiz-adv-x="813" 
d="M22 0l99 491h87l-4 -69h4q37 33 78 57t80 24q57 0 81.5 -25.5t32.5 -65.5q44 42 87.5 66.5t82.5 24.5q61 0 88.5 -32.5t27.5 -91.5q0 -17 -2 -33.5t-6 -35.5l-62 -310h-108l60 296q4 18 6 29.5t2 22.5q0 32 -15 47.5t-45 15.5q-19 0 -49 -18t-68 -58l-67 -335h-107
l59 296q4 18 6 29.5t2 22.5q0 32 -14.5 47.5t-44.5 15.5q-19 0 -49.5 -18t-67.5 -58l-66 -335h-108zM496 578q-23 0 -42.5 14.5t-19.5 41.5q0 29 21.5 49.5t50.5 20.5q24 0 43 -14.5t19 -41.5q0 -30 -21 -50t-51 -20z" />
    <glyph glyph-name="uni1E43" unicode="&#x1e43;" horiz-adv-x="813" 
d="M22 0l99 491h87l-4 -69h4q37 33 78 57t80 24q57 0 81.5 -25.5t32.5 -65.5q44 42 87.5 66.5t82.5 24.5q61 0 88.5 -32.5t27.5 -91.5q0 -17 -2 -33.5t-6 -35.5l-62 -310h-108l60 296q4 18 6 29.5t2 22.5q0 32 -15 47.5t-45 15.5q-19 0 -49 -18t-68 -58l-67 -335h-107
l59 296q4 18 6 29.5t2 22.5q0 32 -14.5 47.5t-44.5 15.5q-19 0 -49.5 -18t-67.5 -58l-66 -335h-108zM330 -225q-23 0 -42.5 14.5t-19.5 41.5q0 29 21.5 49.5t50.5 20.5q24 0 43 -14.5t19 -41.5q0 -30 -21 -50t-51 -20z" />
    <glyph glyph-name="uni01F9" unicode="&#x1f9;" horiz-adv-x="539" 
d="M22 0l99 491h87l-4 -69h4q37 33 79 57t88 24q62 0 89 -32.5t27 -91.5q0 -17 -1.5 -33.5t-6.5 -35.5l-62 -310h-107l60 296q3 18 5.5 29.5t2.5 22.5q0 32 -15 47.5t-47 15.5q-25 0 -55 -18t-69 -58l-66 -335h-108zM338 570l-128 162l7 12h115l88 -174h-82z" />
    <glyph glyph-name="nacute" unicode="&#x144;" horiz-adv-x="539" 
d="M22 0l99 491h87l-4 -69h4q37 33 79 57t88 24q62 0 89 -32.5t27 -91.5q0 -17 -1.5 -33.5t-6.5 -35.5l-62 -310h-107l60 296q3 18 5.5 29.5t2.5 22.5q0 32 -15 47.5t-47 15.5q-25 0 -55 -18t-69 -58l-66 -335h-108zM252 570l154 174h123l7 -12l-194 -162h-90z" />
    <glyph glyph-name="ncaron" unicode="&#x148;" horiz-adv-x="539" 
d="M22 0l99 491h87l-4 -69h4q37 33 79 57t88 24q62 0 89 -32.5t27 -91.5q0 -17 -1.5 -33.5t-6.5 -35.5l-62 -310h-107l60 296q3 18 5.5 29.5t2.5 22.5q0 32 -15 47.5t-47 15.5q-25 0 -55 -18t-69 -58l-66 -335h-108zM294 570l-88 182h82l66 -101h4l110 101h90l-160 -182
h-104z" />
    <glyph glyph-name="ntilde" unicode="&#xf1;" horiz-adv-x="539" 
d="M22 0l99 491h87l-4 -69h4q37 33 79 57t88 24q62 0 89 -32.5t27 -91.5q0 -17 -1.5 -33.5t-6.5 -35.5l-62 -310h-107l60 296q3 18 5.5 29.5t2.5 22.5q0 32 -15 47.5t-47 15.5q-25 0 -55 -18t-69 -58l-66 -335h-108zM427 575q-27 0 -45 11.5t-31 26t-26.5 26t-30.5 11.5
q-19 0 -32 -17.5t-20 -50.5l-73 4q8 46 25 78t42.5 49t57.5 17q27 0 45 -11.5t31 -26t26.5 -25.5t30.5 -11q19 0 32.5 17.5t19.5 49.5l73 -4q-9 -45 -25.5 -77t-41.5 -49.5t-58 -17.5z" />
    <glyph glyph-name="uni1E45" unicode="&#x1e45;" horiz-adv-x="539" 
d="M22 0l99 491h87l-4 -69h4q37 33 79 57t88 24q62 0 89 -32.5t27 -91.5q0 -17 -1.5 -33.5t-6.5 -35.5l-62 -310h-107l60 296q3 18 5.5 29.5t2.5 22.5q0 32 -15 47.5t-47 15.5q-25 0 -55 -18t-69 -58l-66 -335h-108zM350 578q-23 0 -42.5 14.5t-19.5 41.5q0 29 21.5 49.5
t50.5 20.5q24 0 43 -14.5t19 -41.5q0 -30 -21 -50t-51 -20z" />
    <glyph glyph-name="uni0146" unicode="&#x146;" horiz-adv-x="539" 
d="M22 0l99 491h87l-4 -69h4q37 33 79 57t88 24q62 0 89 -32.5t27 -91.5q0 -17 -1.5 -33.5t-6.5 -35.5l-62 -310h-107l60 296q3 18 5.5 29.5t2.5 22.5q0 32 -15 47.5t-47 15.5q-25 0 -55 -18t-69 -58l-66 -335h-108zM92 -230v49q59 3 85.5 16t26.5 32q0 15 -13.5 24.5
t-45.5 11.5l30 45q48 -3 73 -12t34 -23.5t9 -33.5q0 -36 -25.5 -59.5t-70.5 -35.5t-103 -14z" />
    <glyph glyph-name="uni1E47" unicode="&#x1e47;" horiz-adv-x="539" 
d="M22 0l99 491h87l-4 -69h4q37 33 79 57t88 24q62 0 89 -32.5t27 -91.5q0 -17 -1.5 -33.5t-6.5 -35.5l-62 -310h-107l60 296q3 18 5.5 29.5t2.5 22.5q0 32 -15 47.5t-47 15.5q-25 0 -55 -18t-69 -58l-66 -335h-108zM192 -225q-23 0 -42.5 14.5t-19.5 41.5q0 29 21.5 49.5
t50.5 20.5q24 0 43 -14.5t19 -41.5q0 -30 -21 -50t-51 -20z" />
    <glyph glyph-name="uni1E49" unicode="&#x1e49;" horiz-adv-x="539" 
d="M22 0l99 491h87l-4 -69h4q37 33 79 57t88 24q62 0 89 -32.5t27 -91.5q0 -17 -1.5 -33.5t-6.5 -35.5l-62 -310h-107l60 296q3 18 5.5 29.5t2.5 22.5q0 32 -15 47.5t-47 15.5q-25 0 -55 -18t-69 -58l-66 -335h-108zM62 -163l14 70h269l-13 -70h-270z" />
    <glyph glyph-name="napostrophe" unicode="&#x149;" horiz-adv-x="784" 
d="M115 402l-20 54q60 23 88 56t35 80q2 8 0.5 13.5t-3.5 12.5l14 -12q-8 -10 -20 -16.5t-28 -6.5q-25 0 -44.5 14.5t-19.5 42.5q0 32 24.5 55t65.5 23q34 0 62 -24.5t28 -71.5q0 -56 -23.5 -100.5t-64.5 -74.5t-94 -45zM268 0l99 491h87l-4 -69h4q37 33 79 57t88 24
q62 0 89 -32.5t27 -91.5q0 -17 -1.5 -33.5t-6.5 -35.5l-62 -310h-107l60 296q3 18 5.5 29.5t2.5 22.5q0 32 -15 47.5t-47 15.5q-25 0 -55 -18t-69 -58l-66 -335h-108z" />
    <glyph glyph-name="eng" unicode="&#x14b;" horiz-adv-x="539" 
d="M248 -206q-22 0 -43 4.5t-40 15.5l29 76q11 -5 22.5 -7.5t23.5 -2.5q27 0 42 20.5t24 63.5l68 332q3 18 5.5 29.5t2.5 22.5q0 32 -15 47.5t-47 15.5q-25 0 -55 -18t-69 -58l-66 -335h-108l99 491h87l-4 -69h4q39 33 80 57t87 24q62 0 89 -32.5t27 -91.5q0 -17 -1.5 -33.5
t-6.5 -35.5l-70 -349q-10 -47 -29.5 -85t-52.5 -60t-83 -22z" />
    <glyph glyph-name="uni019E" unicode="&#x19e;" horiz-adv-x="539" 
d="M275 -194l99 490q3 18 5.5 29.5t2.5 22.5q0 32 -15 47.5t-47 15.5q-25 0 -55 -18t-69 -58l-66 -335h-108l99 491h87l-4 -69h4q37 33 79 57t88 24q62 0 89 -32.5t27 -91.5q0 -17 -1.5 -33.5t-6.5 -35.5l-101 -504h-107z" />
    <glyph glyph-name="ograve" unicode="&#xf2;" horiz-adv-x="523" 
d="M217 -12q-55 0 -96.5 24.5t-64 69.5t-22.5 106q0 71 23 128.5t62 99.5t87 64.5t98 22.5q56 0 97 -24.5t64 -69.5t23 -106q0 -70 -23.5 -128t-62 -99.5t-87 -64.5t-98.5 -23zM229 75q29 0 56 17.5t48 48t33.5 71.5t12.5 88q0 56 -22 86t-64 30q-29 0 -56.5 -17
t-48.5 -47.5t-33.5 -71.5t-12.5 -88q0 -55 22.5 -86t64.5 -31zM324 570l-128 162l7 12h115l88 -174h-82z" />
    <glyph glyph-name="oacute" unicode="&#xf3;" horiz-adv-x="523" 
d="M217 -12q-55 0 -96.5 24.5t-64 69.5t-22.5 106q0 71 23 128.5t62 99.5t87 64.5t98 22.5q56 0 97 -24.5t64 -69.5t23 -106q0 -70 -23.5 -128t-62 -99.5t-87 -64.5t-98.5 -23zM229 75q29 0 56 17.5t48 48t33.5 71.5t12.5 88q0 56 -22 86t-64 30q-29 0 -56.5 -17
t-48.5 -47.5t-33.5 -71.5t-12.5 -88q0 -55 22.5 -86t64.5 -31zM238 570l154 174h123l7 -12l-194 -162h-90z" />
    <glyph glyph-name="ocircumflex" unicode="&#xf4;" horiz-adv-x="523" 
d="M217 -12q-55 0 -96.5 24.5t-64 69.5t-22.5 106q0 71 23 128.5t62 99.5t87 64.5t98 22.5q56 0 97 -24.5t64 -69.5t23 -106q0 -70 -23.5 -128t-62 -99.5t-87 -64.5t-98.5 -23zM229 75q29 0 56 17.5t48 48t33.5 71.5t12.5 88q0 56 -22 86t-64 30q-29 0 -56.5 -17
t-48.5 -47.5t-33.5 -71.5t-12.5 -88q0 -55 22.5 -86t64.5 -31zM150 570l160 182h104l88 -182h-82l-66 101h-4l-110 -101h-90z" />
    <glyph glyph-name="otilde" unicode="&#xf5;" horiz-adv-x="523" 
d="M217 -12q-55 0 -96.5 24.5t-64 69.5t-22.5 106q0 71 23 128.5t62 99.5t87 64.5t98 22.5q56 0 97 -24.5t64 -69.5t23 -106q0 -70 -23.5 -128t-62 -99.5t-87 -64.5t-98.5 -23zM229 75q29 0 56 17.5t48 48t33.5 71.5t12.5 88q0 56 -22 86t-64 30q-29 0 -56.5 -17
t-48.5 -47.5t-33.5 -71.5t-12.5 -88q0 -55 22.5 -86t64.5 -31zM413 575q-27 0 -45 11.5t-31 26t-26.5 26t-30.5 11.5q-19 0 -32 -17.5t-20 -50.5l-73 4q8 46 25 78t42.5 49t57.5 17q27 0 45 -11.5t31 -26t26.5 -25.5t30.5 -11q19 0 32.5 17.5t19.5 49.5l73 -4
q-9 -45 -25.5 -77t-41.5 -49.5t-58 -17.5z" />
    <glyph glyph-name="odieresis" unicode="&#xf6;" horiz-adv-x="523" 
d="M217 -12q-55 0 -96.5 24.5t-64 69.5t-22.5 106q0 71 23 128.5t62 99.5t87 64.5t98 22.5q56 0 97 -24.5t64 -69.5t23 -106q0 -70 -23.5 -128t-62 -99.5t-87 -64.5t-98.5 -23zM229 75q29 0 56 17.5t48 48t33.5 71.5t12.5 88q0 56 -22 86t-64 30q-29 0 -56.5 -17
t-48.5 -47.5t-33.5 -71.5t-12.5 -88q0 -55 22.5 -86t64.5 -31zM236 580q-22 0 -36 13t-14 37q0 26 18 45.5t45 19.5q21 0 35.5 -13.5t14.5 -37.5q0 -26 -18.5 -45t-44.5 -19zM434 580q-22 0 -36 13t-14 37q0 26 18.5 45.5t44.5 19.5q22 0 36 -13.5t14 -37.5q0 -26 -18.5 -45
t-44.5 -19z" />
    <glyph glyph-name="omacron" unicode="&#x14d;" horiz-adv-x="523" 
d="M217 -12q-55 0 -96.5 24.5t-64 69.5t-22.5 106q0 71 23 128.5t62 99.5t87 64.5t98 22.5q56 0 97 -24.5t64 -69.5t23 -106q0 -70 -23.5 -128t-62 -99.5t-87 -64.5t-98.5 -23zM229 75q29 0 56 17.5t48 48t33.5 71.5t12.5 88q0 56 -22 86t-64 30q-29 0 -56.5 -17
t-48.5 -47.5t-33.5 -71.5t-12.5 -88q0 -55 22.5 -86t64.5 -31zM198 598l14 70h269l-13 -70h-270z" />
    <glyph glyph-name="obreve" unicode="&#x14f;" horiz-adv-x="523" 
d="M217 -12q-55 0 -96.5 24.5t-64 69.5t-22.5 106q0 71 23 128.5t62 99.5t87 64.5t98 22.5q56 0 97 -24.5t64 -69.5t23 -106q0 -70 -23.5 -128t-62 -99.5t-87 -64.5t-98.5 -23zM229 75q29 0 56 17.5t48 48t33.5 71.5t12.5 88q0 56 -22 86t-64 30q-29 0 -56.5 -17
t-48.5 -47.5t-33.5 -71.5t-12.5 -88q0 -55 22.5 -86t64.5 -31zM327 571q-46 0 -76 19t-45 54t-15 82l71 10q0 -26 8 -46.5t25.5 -32.5t46.5 -12t51 13t37 34t22 45l66 -11q-9 -41 -32.5 -76t-62.5 -57t-96 -22z" />
    <glyph glyph-name="ohungarumlaut" unicode="&#x151;" horiz-adv-x="523" 
d="M217 -12q-55 0 -96.5 24.5t-64 69.5t-22.5 106q0 71 23 128.5t62 99.5t87 64.5t98 22.5q56 0 97 -24.5t64 -69.5t23 -106q0 -70 -23.5 -128t-62 -99.5t-87 -64.5t-98.5 -23zM229 75q29 0 56 17.5t48 48t33.5 71.5t12.5 88q0 56 -22 86t-64 30q-29 0 -56.5 -17
t-48.5 -47.5t-33.5 -71.5t-12.5 -88q0 -55 22.5 -86t64.5 -31zM208 570l112 174h91l7 -12l-146 -162h-64zM376 570l112 174h91l7 -12l-146 -162h-64z" />
    <glyph glyph-name="uni01D2" unicode="&#x1d2;" horiz-adv-x="523" 
d="M217 -12q-55 0 -96.5 24.5t-64 69.5t-22.5 106q0 71 23 128.5t62 99.5t87 64.5t98 22.5q56 0 97 -24.5t64 -69.5t23 -106q0 -70 -23.5 -128t-62 -99.5t-87 -64.5t-98.5 -23zM229 75q29 0 56 17.5t48 48t33.5 71.5t12.5 88q0 56 -22 86t-64 30q-29 0 -56.5 -17
t-48.5 -47.5t-33.5 -71.5t-12.5 -88q0 -55 22.5 -86t64.5 -31zM280 570l-88 182h82l66 -101h4l110 101h90l-160 -182h-104z" />
    <glyph glyph-name="uni020D" unicode="&#x20d;" horiz-adv-x="523" 
d="M217 -12q-55 0 -96.5 24.5t-64 69.5t-22.5 106q0 71 23 128.5t62 99.5t87 64.5t98 22.5q56 0 97 -24.5t64 -69.5t23 -106q0 -70 -23.5 -128t-62 -99.5t-87 -64.5t-98.5 -23zM229 75q29 0 56 17.5t48 48t33.5 71.5t12.5 88q0 56 -22 86t-64 30q-29 0 -56.5 -17
t-48.5 -47.5t-33.5 -71.5t-12.5 -88q0 -55 22.5 -86t64.5 -31zM210 570l-88 162l7 12h91l54 -174h-64zM378 570l-88 162l7 12h91l54 -174h-64z" />
    <glyph glyph-name="uni01EB" unicode="&#x1eb;" horiz-adv-x="523" 
d="M175 -217q-37 0 -61.5 20t-24.5 58q0 28 15.5 55t41 49t54.5 36l17 -13q-55 0 -96.5 24.5t-64 69.5t-22.5 106q0 71 23 128.5t62 99.5t87 64.5t98 22.5q52 0 93.5 -23.5t66 -68t24.5 -108.5q0 -73 -26 -135.5t-74.5 -108t-115.5 -65.5q-51 -16 -72.5 -46t-21.5 -57
q0 -17 10.5 -26.5t26.5 -9.5q12 0 21 3.5t19 9.5l23 -49q-22 -16 -47 -26t-56 -10zM229 75q29 0 56 17.5t48 48t33.5 71.5t12.5 88q0 56 -22 86t-64 30q-29 0 -56.5 -17t-48.5 -47.5t-33.5 -71.5t-12.5 -88q0 -55 22.5 -86t64.5 -31z" />
    <glyph glyph-name="uni1ECD" unicode="&#x1ecd;" horiz-adv-x="523" 
d="M217 -12q-55 0 -96.5 24.5t-64 69.5t-22.5 106q0 71 23 128.5t62 99.5t87 64.5t98 22.5q56 0 97 -24.5t64 -69.5t23 -106q0 -70 -23.5 -128t-62 -99.5t-87 -64.5t-98.5 -23zM229 75q29 0 56 17.5t48 48t33.5 71.5t12.5 88q0 56 -22 86t-64 30q-29 0 -56.5 -17
t-48.5 -47.5t-33.5 -71.5t-12.5 -88q0 -55 22.5 -86t64.5 -31zM160 -228q-23 0 -42.5 14.5t-19.5 41.5q0 29 21.5 49.5t50.5 20.5q24 0 43 -14.5t19 -41.5q0 -30 -21 -50t-51 -20z" />
    <glyph glyph-name="uni1ECF" unicode="&#x1ecf;" horiz-adv-x="523" 
d="M217 -12q-55 0 -96.5 24.5t-64 69.5t-22.5 106q0 71 23 128.5t62 99.5t87 64.5t98 22.5q56 0 97 -24.5t64 -69.5t23 -106q0 -70 -23.5 -128t-62 -99.5t-87 -64.5t-98.5 -23zM229 75q29 0 56 17.5t48 48t33.5 71.5t12.5 88q0 56 -22 86t-64 30q-29 0 -56.5 -17
t-48.5 -47.5t-33.5 -71.5t-12.5 -88q0 -55 22.5 -86t64.5 -31zM281 563l-5 48q30 7 45 20.5t15 33.5q0 19 -17.5 29t-53.5 12l19 66q73 -1 107 -22t34 -63q0 -49 -37.5 -83t-106.5 -41z" />
    <glyph glyph-name="uni1ED1" unicode="&#x1ed1;" horiz-adv-x="523" 
d="M217 -12q-55 0 -96.5 24.5t-64 69.5t-22.5 106q0 71 23 128.5t62 99.5t87 64.5t98 22.5q56 0 97 -24.5t64 -69.5t23 -106q0 -70 -23.5 -128t-62 -99.5t-87 -64.5t-98.5 -23zM229 75q29 0 56 17.5t48 48t33.5 71.5t12.5 88q0 56 -22 86t-64 30q-29 0 -56.5 -17
t-48.5 -47.5t-33.5 -71.5t-12.5 -88q0 -55 22.5 -86t64.5 -31zM162 570l146 148h95l87 -148h-75l-67 78h-3l-101 -78h-82zM450 668l87 124h86l7 -12l-120 -112h-60z" />
    <glyph glyph-name="uni1ED3" unicode="&#x1ed3;" horiz-adv-x="523" 
d="M217 -12q-55 0 -96.5 24.5t-64 69.5t-22.5 106q0 71 23 128.5t62 99.5t87 64.5t98 22.5q56 0 97 -24.5t64 -69.5t23 -106q0 -70 -23.5 -128t-62 -99.5t-87 -64.5t-98.5 -23zM229 75q29 0 56 17.5t48 48t33.5 71.5t12.5 88q0 56 -22 86t-64 30q-29 0 -56.5 -17
t-48.5 -47.5t-33.5 -71.5t-12.5 -88q0 -55 22.5 -86t64.5 -31zM162 570l146 148h95l87 -148h-75l-67 78h-3l-101 -78h-82zM190 668l-76 112l7 12h79l42 -124h-52z" />
    <glyph glyph-name="uni1ED5" unicode="&#x1ed5;" horiz-adv-x="523" 
d="M217 -12q-55 0 -96.5 24.5t-64 69.5t-22.5 106q0 71 23 128.5t62 99.5t87 64.5t98 22.5q56 0 97 -24.5t64 -69.5t23 -106q0 -70 -23.5 -128t-62 -99.5t-87 -64.5t-98.5 -23zM229 75q29 0 56 17.5t48 48t33.5 71.5t12.5 88q0 56 -22 86t-64 30q-29 0 -56.5 -17
t-48.5 -47.5t-33.5 -71.5t-12.5 -88q0 -55 22.5 -86t64.5 -31zM472 649l-4 43q21 4 31.5 14t10.5 24t-13.5 21.5t-46.5 9.5l15 65q60 0 92 -19t32 -56q0 -39 -32.5 -67t-84.5 -35zM162 570l146 148h95l87 -148h-75l-67 78h-3l-101 -78h-82z" />
    <glyph glyph-name="uni1ED7" unicode="&#x1ed7;" horiz-adv-x="523" 
d="M217 -12q-55 0 -96.5 24.5t-64 69.5t-22.5 106q0 71 23 128.5t62 99.5t87 64.5t98 22.5q56 0 97 -24.5t64 -69.5t23 -106q0 -70 -23.5 -128t-62 -99.5t-87 -64.5t-98.5 -23zM229 75q29 0 56 17.5t48 48t33.5 71.5t12.5 88q0 56 -22 86t-64 30q-29 0 -56.5 -17
t-48.5 -47.5t-33.5 -71.5t-12.5 -88q0 -55 22.5 -86t64.5 -31zM429 731q-30 0 -50 10.5t-36.5 21t-35.5 10.5q-17 0 -26.5 -9.5t-16.5 -30.5l-54 6q11 48 35.5 74t58.5 26q30 0 50 -10.5t36 -21t36 -10.5q17 0 26.5 10t16.5 30l54 -6q-11 -48 -35 -74t-59 -26zM162 571
l145 135h95l88 -135h-75l-68 65h-3l-100 -65h-82z" />
    <glyph glyph-name="uni1ED9" unicode="&#x1ed9;" horiz-adv-x="523" 
d="M217 -12q-55 0 -96.5 24.5t-64 69.5t-22.5 106q0 71 23 128.5t62 99.5t87 64.5t98 22.5q56 0 97 -24.5t64 -69.5t23 -106q0 -70 -23.5 -128t-62 -99.5t-87 -64.5t-98.5 -23zM229 75q29 0 56 17.5t48 48t33.5 71.5t12.5 88q0 56 -22 86t-64 30q-29 0 -56.5 -17
t-48.5 -47.5t-33.5 -71.5t-12.5 -88q0 -55 22.5 -86t64.5 -31zM150 570l160 182h104l88 -182h-82l-66 101h-4l-110 -101h-90zM160 -225q-23 0 -42.5 14.5t-19.5 41.5q0 29 21.5 49.5t50.5 20.5q24 0 43 -14.5t19 -41.5q0 -30 -21 -50t-51 -20z" />
    <glyph glyph-name="uni1E53" unicode="&#x1e53;" horiz-adv-x="523" 
d="M217 -12q-55 0 -96.5 24.5t-64 69.5t-22.5 106q0 71 23 128.5t62 99.5t87 64.5t98 22.5q56 0 97 -24.5t64 -69.5t23 -106q0 -70 -23.5 -128t-62 -99.5t-87 -64.5t-98.5 -23zM229 75q29 0 56 17.5t48 48t33.5 71.5t12.5 88q0 56 -22 86t-64 30q-29 0 -56.5 -17
t-48.5 -47.5t-33.5 -71.5t-12.5 -88q0 -55 22.5 -86t64.5 -31zM198 600l14 71h269l-13 -71h-270zM294 724l111 124h98l7 -12l-144 -112h-72z" />
    <glyph glyph-name="oslash" unicode="&#xf8;" horiz-adv-x="524" 
d="M217 -12q-52 0 -93.5 23.5t-65.5 68t-24 108.5q0 71 23 128.5t62 99.5t87 64.5t98 22.5q53 0 94.5 -23.5t65.5 -68t24 -108.5q0 -71 -23 -129t-62 -99.5t-87 -64t-99 -22.5zM225 73q36 0 65.5 19.5t51 52t33 72.5t11.5 81q0 56 -23 88t-67 32q-35 0 -64.5 -19.5t-51 -52
t-33.5 -73t-12 -81.5q0 -55 22.5 -87t67.5 -32zM44 -32l-52 50l490 504l52 -50z" />
    <glyph glyph-name="oslashacute" unicode="&#x1ff;" horiz-adv-x="523" 
d="M217 -12q-52 0 -93.5 23.5t-65.5 68t-24 108.5q0 71 23 128.5t62 99.5t87 64.5t98 22.5q53 0 94.5 -23.5t65.5 -68t24 -108.5q0 -71 -23 -129t-62 -99.5t-87 -64t-99 -22.5zM225 73q36 0 65.5 19.5t51 52t33 72.5t11.5 81q0 56 -23 88t-67 32q-35 0 -64.5 -19.5t-51 -52
t-33.5 -73t-12 -81.5q0 -55 22.5 -87t67.5 -32zM44 -32l-52 50l490 504l52 -50zM238 570l154 174h123l7 -12l-194 -162h-90z" />
    <glyph glyph-name="oe" unicode="&#x153;" horiz-adv-x="805" 
d="M211 -12q-53 0 -93 24.5t-62 69.5t-22 106q0 71 22.5 128.5t60.5 99.5t85 64.5t96 22.5q59 0 94.5 -28.5t51.5 -82.5q33 53 79.5 82t94.5 29q56 0 90.5 -24t50 -65t15.5 -92q0 -33 -8 -63t-14 -45h-286q-4 -51 10 -82t40 -45.5t59 -14.5q28 0 53 10.5t46 25.5l40 -68
q-28 -20 -67 -36t-89 -16q-57 0 -99 29t-59 87q-34 -54 -85 -85t-104 -31zM229 76q27 0 53 17t46 47.5t32 71.5t12 88q0 56 -21 86t-63 30q-27 0 -53 -17t-47 -47.5t-33.5 -71.5t-12.5 -88q0 -55 22 -85.5t65 -30.5zM478 294h202q2 8 3 17t1 19q0 23 -7.5 43t-25 32.5
t-47.5 12.5q-26 0 -51 -14.5t-45 -42t-30 -67.5z" />
    <glyph glyph-name="uni028C" unicode="&#x28c;" horiz-adv-x="474" 
d="M353 491l67 -491h-107l-26 261q-4 36 -6 74t-4 75h-4q-18 -38 -35 -75l-34 -74l-127 -261h-106l256 491h126z" />
    <glyph glyph-name="uni0254" unicode="&#x254;" horiz-adv-x="446" 
d="M130 -12q-47 0 -85 17.5t-60 45.5l56 68q18 -19 41.5 -31.5t52.5 -12.5q46 0 84.5 27t62 75t23.5 113q0 60 -25.5 93t-67.5 33q-28 0 -50.5 -9.5t-48.5 -30.5l-44 66q33 27 74.5 44t93.5 17q51 0 91 -23.5t63 -68.5t23 -109q0 -73 -23 -130.5t-63.5 -98.5t-91 -63
t-106.5 -22z" />
    <glyph glyph-name="uniA74F" unicode="&#xa74f;" horiz-adv-x="827" 
d="M202 -12q-47 0 -85 24t-60.5 68.5t-22.5 107.5q0 68 21 125.5t56.5 100t80.5 66t94 23.5q63 0 105 -36.5t53 -120.5h-30q38 84 91.5 120.5t118.5 36.5q47 0 85 -23.5t60.5 -68.5t22.5 -108q0 -68 -21 -125.5t-56.5 -100t-80.5 -66t-95 -23.5q-62 0 -104 37t-53 121h30
q-38 -84 -91.5 -121t-118.5 -37zM229 75q28 0 54 17.5t46 48t32 71.5t12 88q0 56 -22 86t-64 30q-27 0 -53 -17t-46.5 -47.5t-33 -71.5t-12.5 -88q0 -55 22.5 -86t64.5 -31zM539 75q27 0 53 17.5t46 48t32.5 71.5t12.5 88q0 56 -22 86t-64 30q-28 0 -54 -17t-46 -47.5
t-32.5 -71.5t-12.5 -88q0 -55 22.5 -86t64.5 -31z" />
    <glyph glyph-name="uni0223" unicode="&#x223;" horiz-adv-x="532" 
d="M228 81q38 0 67.5 18.5t46.5 48t17 64.5q0 49 -27.5 85.5t-87.5 63.5q-52 -30 -84 -78.5t-32 -97.5q0 -33 13 -56t35.5 -35.5t51.5 -12.5zM213 -12q-58 0 -102 22t-68.5 61t-24.5 91q0 57 24.5 102.5t63.5 78t84 53.5v4q-32 29 -52.5 65.5t-20.5 86.5q0 49 17.5 91
t44.5 75l90 -28q-21 -30 -32.5 -59t-11.5 -60q0 -28 10 -50.5t32 -42t60 -38.5q53 38 78 91t25 101q0 26 -8 49l95 29q7 -19 10 -35t3 -33q0 -42 -18 -87.5t-50.5 -84t-75.5 -61.5l-1 -4q38 -25 64 -66t26 -103q0 -66 -33 -123t-92 -91t-137 -34z" />
    <glyph glyph-name="ohorn" unicode="&#x1a1;" horiz-adv-x="528" 
d="M438 438l-48 42q43 5 68 34t26 72q0 9 -2 22t-6 23l82 27q6 -14 9 -32.5t3 -33.5q0 -40 -16.5 -72t-46.5 -53t-69 -29zM217 -12q-55 0 -96.5 24.5t-64 69.5t-22.5 106q0 71 23 128.5t62 99.5t87 64.5t98 22.5q56 0 97 -24.5t64 -69.5t23 -106q0 -70 -23.5 -128t-62 -99.5
t-87 -64.5t-98.5 -23zM229 75q29 0 56 17.5t48 48t33.5 71.5t12.5 88q0 56 -22 86t-64 30q-29 0 -56.5 -17t-48.5 -47.5t-33.5 -71.5t-12.5 -88q0 -55 22.5 -86t64.5 -31z" />
    <glyph glyph-name="uni1EDB" unicode="&#x1edb;" horiz-adv-x="528" 
d="M438 438l-48 42q43 5 68 34t26 72q0 9 -2 22t-6 23l82 27q6 -14 9 -32.5t3 -33.5q0 -40 -16.5 -72t-46.5 -53t-69 -29zM217 -12q-55 0 -96.5 24.5t-64 69.5t-22.5 106q0 71 23 128.5t62 99.5t87 64.5t98 22.5q56 0 97 -24.5t64 -69.5t23 -106q0 -70 -23.5 -128t-62 -99.5
t-87 -64.5t-98.5 -23zM229 75q29 0 56 17.5t48 48t33.5 71.5t12.5 88q0 56 -22 86t-64 30q-29 0 -56.5 -17t-48.5 -47.5t-33.5 -71.5t-12.5 -88q0 -55 22.5 -86t64.5 -31zM232 570l154 174h123l7 -12l-194 -162h-90z" />
    <glyph glyph-name="uni1EDD" unicode="&#x1edd;" horiz-adv-x="528" 
d="M438 438l-48 42q43 5 68 34t26 72q0 9 -2 22t-6 23l82 27q6 -14 9 -32.5t3 -33.5q0 -40 -16.5 -72t-46.5 -53t-69 -29zM217 -12q-55 0 -96.5 24.5t-64 69.5t-22.5 106q0 71 23 128.5t62 99.5t87 64.5t98 22.5q56 0 97 -24.5t64 -69.5t23 -106q0 -70 -23.5 -128t-62 -99.5
t-87 -64.5t-98.5 -23zM229 75q29 0 56 17.5t48 48t33.5 71.5t12.5 88q0 56 -22 86t-64 30q-29 0 -56.5 -17t-48.5 -47.5t-33.5 -71.5t-12.5 -88q0 -55 22.5 -86t64.5 -31zM318 570l-128 162l7 12h115l88 -174h-82z" />
    <glyph glyph-name="uni1EDF" unicode="&#x1edf;" horiz-adv-x="528" 
d="M438 438l-48 42q43 5 68 34t26 72q0 9 -2 22t-6 23l82 27q6 -14 9 -32.5t3 -33.5q0 -40 -16.5 -72t-46.5 -53t-69 -29zM217 -12q-55 0 -96.5 24.5t-64 69.5t-22.5 106q0 71 23 128.5t62 99.5t87 64.5t98 22.5q56 0 97 -24.5t64 -69.5t23 -106q0 -70 -23.5 -128t-62 -99.5
t-87 -64.5t-98.5 -23zM229 75q29 0 56 17.5t48 48t33.5 71.5t12.5 88q0 56 -22 86t-64 30q-29 0 -56.5 -17t-48.5 -47.5t-33.5 -71.5t-12.5 -88q0 -55 22.5 -86t64.5 -31zM275 563l-5 48q30 7 45 20.5t15 33.5q0 19 -17.5 29t-53.5 12l19 66q73 -1 107 -22t34 -63
q0 -49 -37.5 -83t-106.5 -41z" />
    <glyph glyph-name="uni1EE1" unicode="&#x1ee1;" horiz-adv-x="528" 
d="M438 438l-48 42q43 5 68 34t26 72q0 9 -2 22t-6 23l82 27q6 -14 9 -32.5t3 -33.5q0 -40 -16.5 -72t-46.5 -53t-69 -29zM217 -12q-55 0 -96.5 24.5t-64 69.5t-22.5 106q0 71 23 128.5t62 99.5t87 64.5t98 22.5q56 0 97 -24.5t64 -69.5t23 -106q0 -70 -23.5 -128t-62 -99.5
t-87 -64.5t-98.5 -23zM229 75q29 0 56 17.5t48 48t33.5 71.5t12.5 88q0 56 -22 86t-64 30q-29 0 -56.5 -17t-48.5 -47.5t-33.5 -71.5t-12.5 -88q0 -55 22.5 -86t64.5 -31zM367 575q-27 0 -45 11.5t-31 26t-26.5 26t-30.5 11.5q-19 0 -32 -17.5t-20 -50.5l-73 4q8 46 25 78
t42.5 49t57.5 17q27 0 45 -11.5t31 -26t26.5 -25.5t30.5 -11q19 0 32.5 17.5t19.5 49.5l73 -4q-9 -45 -25.5 -77t-41.5 -49.5t-58 -17.5z" />
    <glyph glyph-name="uni1EE3" unicode="&#x1ee3;" horiz-adv-x="528" 
d="M438 438l-48 42q43 5 68 34t26 72q0 9 -2 22t-6 23l82 27q6 -14 9 -32.5t3 -33.5q0 -40 -16.5 -72t-46.5 -53t-69 -29zM217 -12q-55 0 -96.5 24.5t-64 69.5t-22.5 106q0 71 23 128.5t62 99.5t87 64.5t98 22.5q56 0 97 -24.5t64 -69.5t23 -106q0 -70 -23.5 -128t-62 -99.5
t-87 -64.5t-98.5 -23zM229 75q29 0 56 17.5t48 48t33.5 71.5t12.5 88q0 56 -22 86t-64 30q-29 0 -56.5 -17t-48.5 -47.5t-33.5 -71.5t-12.5 -88q0 -55 22.5 -86t64.5 -31zM160 -225q-23 0 -42.5 14.5t-19.5 41.5q0 29 21.5 49.5t50.5 20.5q24 0 43 -14.5t19 -41.5
q0 -30 -21 -50t-51 -20z" />
    <glyph glyph-name="uni1E57" unicode="&#x1e57;" horiz-adv-x="544" 
d="M-17 -194l138 685h87l-2 -60h4q35 31 75.5 51.5t82.5 20.5q65 0 102.5 -46t37.5 -133q0 -70 -21.5 -131.5t-59 -107t-84.5 -71.5t-98 -26q-34 0 -62.5 18t-46.5 46h-2l-16 -100l-28 -146h-107zM238 76q32 0 60.5 19t51 51t35.5 74t13 90q0 53 -20 79t-54 26
q-28 0 -62.5 -17.5t-62.5 -53.5l-42 -210q16 -30 37 -44t44 -14zM354 578q-23 0 -42.5 14.5t-19.5 41.5q0 29 21.5 49.5t50.5 20.5q24 0 43 -14.5t19 -41.5q0 -30 -21 -50t-51 -20z" />
    <glyph glyph-name="racute" unicode="&#x155;" horiz-adv-x="363" 
d="M22 0l99 491h87l-8 -95h4q29 46 67.5 76.5t82.5 30.5q16 0 28.5 -2t20.5 -7l-36 -93q-9 5 -21 6t-25 1q-34 0 -68.5 -27.5t-64.5 -83.5l-58 -297h-108zM189 570l154 174h123l7 -12l-194 -162h-90z" />
    <glyph glyph-name="rcaron" unicode="&#x159;" horiz-adv-x="363" 
d="M22 0l99 491h87l-8 -95h4q29 46 67.5 76.5t82.5 30.5q16 0 28.5 -2t20.5 -7l-36 -93q-9 5 -21 6t-25 1q-34 0 -68.5 -27.5t-64.5 -83.5l-58 -297h-108zM231 570l-88 182h82l66 -101h4l110 101h90l-160 -182h-104z" />
    <glyph glyph-name="uni1E59" unicode="&#x1e59;" horiz-adv-x="363" 
d="M22 0l99 491h87l-8 -95h4q29 46 67.5 76.5t82.5 30.5q16 0 28.5 -2t20.5 -7l-36 -93q-9 5 -21 6t-25 1q-34 0 -68.5 -27.5t-64.5 -83.5l-58 -297h-108zM287 578q-23 0 -42.5 14.5t-19.5 41.5q0 29 21.5 49.5t50.5 20.5q24 0 43 -14.5t19 -41.5q0 -30 -21 -50t-51 -20z
" />
    <glyph glyph-name="uni0157" unicode="&#x157;" horiz-adv-x="363" 
d="M22 0l99 491h87l-8 -95h4q29 46 67.5 76.5t82.5 30.5q16 0 28.5 -2t20.5 -7l-36 -93q-9 5 -21 6t-25 1q-34 0 -68.5 -27.5t-64.5 -83.5l-58 -297h-108zM-60 -230v49q59 3 85.5 16t26.5 32q0 15 -13.5 24.5t-45.5 11.5l30 45q48 -3 73 -12t34 -23.5t9 -33.5
q0 -36 -25.5 -59.5t-70.5 -35.5t-103 -14z" />
    <glyph glyph-name="uni1E5B" unicode="&#x1e5b;" horiz-adv-x="363" 
d="M22 0l99 491h87l-8 -95h4q29 46 67.5 76.5t82.5 30.5q16 0 28.5 -2t20.5 -7l-36 -93q-9 5 -21 6t-25 1q-34 0 -68.5 -27.5t-64.5 -83.5l-58 -297h-108zM40 -225q-23 0 -42.5 14.5t-19.5 41.5q0 29 21.5 49.5t50.5 20.5q24 0 43 -14.5t19 -41.5q0 -30 -21 -50t-51 -20z
" />
    <glyph glyph-name="uni1E5D" unicode="&#x1e5d;" horiz-adv-x="363" 
d="M22 0l99 491h87l-8 -95h4q29 46 67.5 76.5t82.5 30.5q16 0 28.5 -2t20.5 -7l-36 -93q-9 5 -21 6t-25 1q-34 0 -68.5 -27.5t-64.5 -83.5l-58 -297h-108zM149 598l14 70h269l-13 -70h-270zM40 -225q-23 0 -42.5 14.5t-19.5 41.5q0 29 21.5 49.5t50.5 20.5q24 0 43 -14.5
t19 -41.5q0 -30 -21 -50t-51 -20z" />
    <glyph glyph-name="uni1E5F" unicode="&#x1e5f;" horiz-adv-x="363" 
d="M22 0l99 491h87l-8 -95h4q29 46 67.5 76.5t82.5 30.5q16 0 28.5 -2t20.5 -7l-36 -93q-9 5 -21 6t-25 1q-34 0 -68.5 -27.5t-64.5 -83.5l-58 -297h-108zM-90 -163l14 70h269l-13 -70h-270z" />
    <glyph glyph-name="sacute" unicode="&#x15b;" horiz-adv-x="413" 
d="M166 -12q-30 0 -62.5 11t-60.5 32t-47 50l56 50q26 -31 57.5 -47t64.5 -16q23 0 42.5 8.5t31.5 22.5t12 33q0 16 -9 28t-29.5 25t-53.5 32q-43 24 -72 56.5t-29 77.5q0 44 23.5 78.5t64 54t88.5 19.5t87 -19.5t68 -52.5l-56 -55q-19 20 -45 33t-55 13q-32 0 -53 -18
t-21 -42q0 -26 25 -42.5t59 -36.5q35 -18 59 -38t37 -44t13 -56q0 -47 -25 -82.5t-69.5 -55t-100.5 -19.5zM182 570l154 174h123l7 -12l-194 -162h-90z" />
    <glyph glyph-name="scircumflex" unicode="&#x15d;" horiz-adv-x="413" 
d="M166 -12q-30 0 -62.5 11t-60.5 32t-47 50l56 50q26 -31 57.5 -47t64.5 -16q23 0 42.5 8.5t31.5 22.5t12 33q0 16 -9 28t-29.5 25t-53.5 32q-43 24 -72 56.5t-29 77.5q0 44 23.5 78.5t64 54t88.5 19.5t87 -19.5t68 -52.5l-56 -55q-19 20 -45 33t-55 13q-32 0 -53 -18
t-21 -42q0 -26 25 -42.5t59 -36.5q35 -18 59 -38t37 -44t13 -56q0 -47 -25 -82.5t-69.5 -55t-100.5 -19.5zM94 570l160 182h104l88 -182h-82l-66 101h-4l-110 -101h-90z" />
    <glyph glyph-name="uni1E61" unicode="&#x1e61;" horiz-adv-x="413" 
d="M166 -12q-30 0 -62.5 11t-60.5 32t-47 50l56 50q26 -31 57.5 -47t64.5 -16q23 0 42.5 8.5t31.5 22.5t12 33q0 16 -9 28t-29.5 25t-53.5 32q-43 24 -72 56.5t-29 77.5q0 44 23.5 78.5t64 54t88.5 19.5t87 -19.5t68 -52.5l-56 -55q-19 20 -45 33t-55 13q-32 0 -53 -18
t-21 -42q0 -26 25 -42.5t59 -36.5q35 -18 59 -38t37 -44t13 -56q0 -47 -25 -82.5t-69.5 -55t-100.5 -19.5zM280 578q-23 0 -42.5 14.5t-19.5 41.5q0 29 21.5 49.5t50.5 20.5q24 0 43 -14.5t19 -41.5q0 -30 -21 -50t-51 -20z" />
    <glyph glyph-name="scaron" unicode="&#x161;" horiz-adv-x="413" 
d="M166 -12q-30 0 -62.5 11t-60.5 32t-47 50l56 50q26 -31 57.5 -47t64.5 -16q23 0 42.5 8.5t31.5 22.5t12 33q0 16 -9 28t-29.5 25t-53.5 32q-43 24 -72 56.5t-29 77.5q0 44 23.5 78.5t64 54t88.5 19.5t87 -19.5t68 -52.5l-56 -55q-19 20 -45 33t-55 13q-32 0 -53 -18
t-21 -42q0 -26 25 -42.5t59 -36.5q35 -18 59 -38t37 -44t13 -56q0 -47 -25 -82.5t-69.5 -55t-100.5 -19.5zM224 570l-88 182h82l66 -101h4l110 101h90l-160 -182h-104z" />
    <glyph glyph-name="uni015F" unicode="&#x15f;" horiz-adv-x="413" 
d="M166 -12q-30 0 -62.5 11t-60.5 32t-47 50l56 50q26 -31 57.5 -47t64.5 -16q23 0 42.5 8.5t31.5 22.5t12 33q0 16 -9 28t-29.5 25t-53.5 32q-43 24 -72 56.5t-29 77.5q0 44 23.5 78.5t64 54t88.5 19.5t87 -19.5t68 -52.5l-56 -55q-19 20 -45 33t-55 13q-32 0 -53 -18
t-21 -42q0 -26 25 -42.5t59 -36.5q35 -18 59 -38t37 -44t13 -56q0 -47 -25 -82.5t-69.5 -55t-100.5 -19.5zM33 -233l-1 49q59 3 85.5 15t29.5 35q1 17 -14 27t-55 15l63 95h70l-41 -66q37 -9 51 -25t11 -43q-6 -50 -58.5 -74.5t-140.5 -27.5z" />
    <glyph glyph-name="uni0219" unicode="&#x219;" horiz-adv-x="413" 
d="M166 -12q-30 0 -62.5 11t-60.5 32t-47 50l56 50q26 -31 57.5 -47t64.5 -16q23 0 42.5 8.5t31.5 22.5t12 33q0 16 -9 28t-29.5 25t-53.5 32q-43 24 -72 56.5t-29 77.5q0 44 23.5 78.5t64 54t88.5 19.5t87 -19.5t68 -52.5l-56 -55q-19 20 -45 33t-55 13q-32 0 -53 -18
t-21 -42q0 -26 25 -42.5t59 -36.5q35 -18 59 -38t37 -44t13 -56q0 -47 -25 -82.5t-69.5 -55t-100.5 -19.5zM29 -230v49q59 3 85.5 16t26.5 32q0 15 -13.5 24.5t-45.5 11.5l30 45q48 -3 73 -12t34 -23.5t9 -33.5q0 -36 -25.5 -59.5t-70.5 -35.5t-103 -14z" />
    <glyph glyph-name="uni1E63" unicode="&#x1e63;" horiz-adv-x="413" 
d="M166 -12q-30 0 -62.5 11t-60.5 32t-47 50l56 50q26 -31 57.5 -47t64.5 -16q23 0 42.5 8.5t31.5 22.5t12 33q0 16 -9 28t-29.5 25t-53.5 32q-43 24 -72 56.5t-29 77.5q0 44 23.5 78.5t64 54t88.5 19.5t87 -19.5t68 -52.5l-56 -55q-19 20 -45 33t-55 13q-32 0 -53 -18
t-21 -42q0 -26 25 -42.5t59 -36.5q35 -18 59 -38t37 -44t13 -56q0 -47 -25 -82.5t-69.5 -55t-100.5 -19.5zM129 -225q-23 0 -42.5 14.5t-19.5 41.5q0 29 21.5 49.5t50.5 20.5q24 0 43 -14.5t19 -41.5q0 -30 -21 -50t-51 -20z" />
    <glyph glyph-name="uni1E67" unicode="&#x1e67;" horiz-adv-x="413" 
d="M166 -12q-30 0 -62.5 11t-60.5 32t-47 50l56 50q26 -31 57.5 -47t64.5 -16q23 0 42.5 8.5t31.5 22.5t12 33q0 16 -9 28t-29.5 25t-53.5 32q-43 24 -72 56.5t-29 77.5q0 44 23.5 78.5t64 54t88.5 19.5t87 -19.5t68 -52.5l-56 -55q-19 20 -45 33t-55 13q-32 0 -53 -18
t-21 -42q0 -26 25 -42.5t59 -36.5q35 -18 59 -38t37 -44t13 -56q0 -47 -25 -82.5t-69.5 -55t-100.5 -19.5zM226 570l-84 144h75l64 -74h3l100 74h82l-145 -144h-95zM304 722q-20 0 -35.5 12.5t-15.5 36.5q0 28 20.5 47t45.5 19q21 0 36 -12t15 -37q0 -27 -19.5 -46.5
t-46.5 -19.5z" />
    <glyph glyph-name="germandbls" unicode="&#xdf;" horiz-adv-x="583" 
d="M357 -12q-36 0 -72 11t-66 37l39 67q21 -16 45.5 -25t52.5 -9q22 0 39.5 9.5t27.5 26t10 37.5q0 24 -13.5 42.5t-33 34.5t-39.5 33.5t-33.5 39.5t-13.5 53q0 30 14 52t33.5 40t39.5 36t33.5 39.5t13.5 50.5q0 31 -17.5 50t-58.5 19q-32 0 -58.5 -18.5t-44.5 -50
t-27 -70.5l-98 -493h-108l104 515q11 57 42.5 103t80.5 73t114 27q46 0 86 -15t64.5 -46t24.5 -79q0 -36 -13.5 -62.5t-33 -47t-39.5 -37t-33.5 -34t-13.5 -36.5q0 -20 13 -35.5t32 -31.5t38 -34.5t32 -44t13 -61.5q0 -46 -23 -83.5t-63 -60t-90 -22.5z" />
    <glyph glyph-name="longs" unicode="&#x17f;" horiz-adv-x="305" 
d="M40 0l110 548q11 51 33 89.5t57 59.5t83 21q28 0 52.5 -6.5t44.5 -18.5l-35 -75q-9 6 -22.5 10t-29.5 4q-30 0 -48.5 -19.5t-27.5 -61.5l-110 -551h-107zM58 406l16 80l66 5h54l-17 -85h-119z" />
    <glyph glyph-name="tcaron" unicode="&#x165;" horiz-adv-x="346" 
d="M192 -10q-67 0 -96.5 34.5t-29.5 86.5q0 14 1.5 28t4.5 29l50 238h-70l18 80l74 5l44 153h90l-30 -153h118l-18 -85h-120l-50 -242q-1 -9 -2 -17t-1 -18q0 -26 13 -39.5t40 -13.5q14 0 26 3t22 7l22 -72q-18 -9 -45.5 -16.5t-60.5 -7.5zM322 548l40 217h71l-13 -63
l-49 -154h-49z" />
    <glyph glyph-name="uni1E6B" unicode="&#x1e6b;" horiz-adv-x="346" 
d="M192 -10q-67 0 -96.5 34.5t-29.5 86.5q0 14 1.5 28t4.5 29l50 238h-70l18 80l74 5l44 153h90l-30 -153h118l-18 -85h-120l-50 -242q-1 -9 -2 -17t-1 -18q0 -26 13 -39.5t40 -13.5q14 0 26 3t22 7l22 -72q-18 -9 -45.5 -16.5t-60.5 -7.5zM252 714q-23 0 -42.5 14.5
t-19.5 41.5q0 29 21.5 49.5t50.5 20.5q24 0 43 -14.5t19 -41.5q0 -30 -21 -50t-51 -20z" />
    </font>
</defs>
</svg>
